<svg width="43" height="43" viewBox="0 0 43 43" fill="none" xmlns="http://www.w3.org/2000/svg">
<path d="M21.5 20C16.8042 20 13.0052 19.2854 10.1031 17.8562C7.20104 16.4271 5.75 14.8083 5.75 13C5.75 11.1625 7.20104 9.53646 10.1031 8.12188C13.0052 6.70729 16.8042 6 21.5 6C26.1958 6 29.9948 6.70729 32.8969 8.12188C35.799 9.53646 37.25 11.1625 37.25 13C37.25 14.8083 35.799 16.4271 32.8969 17.8562C29.9948 19.2854 26.1958 20 21.5 20ZM21.5 28.75C17.2417 28.75 13.5521 28.1083 10.4313 26.825C7.31042 25.5417 5.75 23.9958 5.75 22.1875V17.8125C5.75 18.95 6.29688 19.9344 7.39062 20.7656C8.48438 21.5969 9.84062 22.2823 11.4594 22.8219C13.0781 23.3615 14.799 23.7552 16.6219 24.0031C18.4448 24.251 20.0708 24.375 21.5 24.375C22.9583 24.375 24.5917 24.251 26.4 24.0031C28.2083 23.7552 29.9219 23.3687 31.5406 22.8438C33.1594 22.3188 34.5156 21.6406 35.6094 20.8094C36.7031 19.9781 37.25 18.9792 37.25 17.8125V22.1875C37.25 23.9958 35.6896 25.5417 32.5688 26.825C29.4479 28.1083 25.7583 28.75 21.5 28.75ZM21.5 37.5C17.2417 37.5 13.5521 36.8583 10.4313 35.575C7.31042 34.2917 5.75 32.7458 5.75 30.9375V26.5625C5.75 27.7 6.29688 28.6844 7.39062 29.5156C8.48438 30.3469 9.84062 31.0323 11.4594 31.5719C13.0781 32.1115 14.799 32.5052 16.6219 32.7531C18.4448 33.001 20.0708 33.125 21.5 33.125C22.9583 33.125 24.5917 33.001 26.4 32.7531C28.2083 32.5052 29.9219 32.1187 31.5406 31.5938C33.1594 31.0688 34.5156 30.3906 35.6094 29.5594C36.7031 28.7281 37.25 27.7292 37.25 26.5625V30.9375C37.25 32.7458 35.6896 34.2917 32.5688 35.575C29.4479 36.8583 25.7583 37.5 21.5 37.5Z" fill="#1431C9"/>
</svg>
