<svg width="31" height="31" viewBox="0 0 31 31" fill="none" xmlns="http://www.w3.org/2000/svg">
<path d="M11.2724 22.2683C10.9603 22.2683 10.6951 22.1591 10.4767 21.9407C10.2583 21.7223 10.1491 21.4571 10.1491 21.1451V10.4742H9.38156V9.35099H12.9011V8.78937H17.8433V9.35099H21.3628V10.4742H20.5953V21.1451C20.5953 21.4446 20.483 21.7067 20.2583 21.9313C20.0337 22.156 19.7716 22.2683 19.472 22.2683H11.2724ZM19.472 10.4742H11.2724V21.1451H19.472V10.4742ZM13.2568 19.5351H14.38V12.0655H13.2568V19.5351ZM16.3644 19.5351H17.4876V12.0655H16.3644V19.5351ZM11.2724 10.4742V21.1451V10.4742Z" fill="white"/>
</svg>
