<svg width="19" height="19" viewBox="0 0 19 19" fill="none" xmlns="http://www.w3.org/2000/svg">
<path d="M5.1491 16.0951C4.83708 16.0951 4.57187 15.9859 4.35346 15.7675C4.13506 15.5491 4.02585 15.2839 4.02585 14.9719V4.30108H3.2583V3.17783H6.7778V2.61621H11.7201V3.17783H15.2396V4.30108H14.472V14.9719C14.472 15.2714 14.3597 15.5335 14.1351 15.7582C13.9104 15.9828 13.6483 16.0951 13.3488 16.0951H5.1491ZM13.3488 4.30108H5.1491V14.9719H13.3488V4.30108ZM7.1335 13.3619H8.25674V5.89234H7.1335V13.3619ZM10.2411 13.3619H11.3644V5.89234H10.2411V13.3619ZM5.1491 4.30108V14.9719V4.30108Z" fill="#7C9195"/>
</svg>
