<svg width="19" height="19" viewBox="0 0 19 19" fill="none" xmlns="http://www.w3.org/2000/svg">
<path d="M9.12161 15.1388H10.1512V14.1653C10.9126 14.078 11.5054 13.844 11.9297 13.4633C12.3541 13.0826 12.5662 12.5741 12.5662 11.9376C12.5662 11.301 12.3853 10.7831 12.0233 10.3837C11.6614 9.98436 11.0498 9.6037 10.1887 9.24177C9.46482 8.94224 8.94064 8.6739 8.61615 8.43678C8.29165 8.19965 8.12941 7.88139 8.12941 7.48202C8.12941 7.09512 8.26981 6.78935 8.55062 6.5647C8.83143 6.34005 9.21521 6.22773 9.70195 6.22773C10.0764 6.22773 10.4009 6.31509 10.6754 6.48982C10.95 6.66454 11.1809 6.92664 11.3681 7.27609L12.2667 6.84551C12.0545 6.40869 11.7737 6.06548 11.4243 5.81587C11.0748 5.56626 10.6629 5.41649 10.1887 5.36657V4.41181H9.15905V5.36657C8.52254 5.45394 8.0202 5.68795 7.65203 6.0686C7.28385 6.44926 7.09977 6.92039 7.09977 7.48202C7.09977 8.09356 7.28697 8.5803 7.66139 8.94224C8.0358 9.30417 8.59743 9.64114 9.34626 9.95316C10.1824 10.3026 10.7566 10.6177 11.0686 10.8986C11.3806 11.1794 11.5366 11.5257 11.5366 11.9376C11.5366 12.3369 11.3712 12.6583 11.0405 12.9017C10.7097 13.145 10.2948 13.2667 9.79555 13.2667C9.30881 13.2667 8.87512 13.1294 8.49446 12.8549C8.11381 12.5803 7.8486 12.2059 7.69883 11.7316L6.74407 12.0499C7.00616 12.624 7.32753 13.0764 7.70819 13.4071C8.08884 13.7379 8.55998 13.9781 9.12161 14.1279V15.1388ZM9.66451 17.2542C8.64111 17.2542 7.67387 17.0577 6.76279 16.6645C5.85172 16.2714 5.05608 15.7347 4.3759 15.0546C3.69571 14.3744 3.15905 13.5787 2.76591 12.6677C2.37278 11.7566 2.17621 10.7893 2.17621 9.76595C2.17621 8.73007 2.37278 7.75659 2.76591 6.84551C3.15905 5.93444 3.69571 5.14192 4.3759 4.46798C5.05608 3.79403 5.85172 3.26049 6.76279 2.86735C7.67387 2.47422 8.64111 2.27765 9.66451 2.27765C10.7004 2.27765 11.6739 2.47422 12.5849 2.86735C13.496 3.26049 14.2885 3.79403 14.9625 4.46798C15.6364 5.14192 16.17 5.93444 16.5631 6.84551C16.9562 7.75659 17.1528 8.73007 17.1528 9.76595C17.1528 10.7893 16.9562 11.7566 16.5631 12.6677C16.17 13.5787 15.6364 14.3744 14.9625 15.0546C14.2885 15.7347 13.496 16.2714 12.5849 16.6645C11.6739 17.0577 10.7004 17.2542 9.66451 17.2542ZM9.66451 16.131C11.4367 16.131 12.9406 15.5101 14.1762 14.2683C15.4118 13.0265 16.0296 11.5257 16.0296 9.76595C16.0296 7.99372 15.4118 6.48982 14.1762 5.25425C12.9406 4.01868 11.4367 3.40089 9.66451 3.40089C7.90476 3.40089 6.40398 4.01868 5.16217 5.25425C3.92036 6.48982 3.29945 7.99372 3.29945 9.76595C3.29945 11.5257 3.92036 13.0265 5.16217 14.2683C6.40398 15.5101 7.90476 16.131 9.66451 16.131Z" fill="white"/>
</svg>
