<svg width="13" height="13" viewBox="0 0 13 13" fill="none" xmlns="http://www.w3.org/2000/svg">
<g clip-path="url(#clip0_1_1144)">
<path d="M4.51929 11.5835L3.57077 9.96101L1.68622 9.57411L1.89838 7.73948L0.700256 6.34166L1.89838 4.95633L1.68622 3.12169L3.57077 2.7348L4.51929 1.09985L6.19168 1.87364L7.86406 1.09985L8.82506 2.7348L10.6971 3.12169L10.485 4.95633L11.6831 6.34166L10.485 7.73948L10.6971 9.57411L8.82506 9.96101L7.86406 11.5835L6.19168 10.8097L4.51929 11.5835ZM5.65501 8.00157L8.48809 5.19346L7.92647 4.68176L5.65501 6.92825L4.46937 5.69268L3.89526 6.2543L5.65501 8.00157Z" fill="#C0C0C0"/>
</g>
<defs>
<clipPath id="clip0_1_1144">
<rect width="11.9813" height="11.9813" fill="white" transform="translate(0.200989 0.351074)"/>
</clipPath>
</defs>
</svg>
