<svg width="19" height="18" viewBox="0 0 19 18" fill="none" xmlns="http://www.w3.org/2000/svg">
<path d="M3.625 15.75C3.3125 15.75 3.04688 15.6406 2.82812 15.4219C2.60938 15.2031 2.5 14.9375 2.5 14.625V3.375C2.5 3.0625 2.60938 2.79688 2.82812 2.57812C3.04688 2.35938 3.3125 2.25 3.625 2.25H7.46875C7.53125 1.8125 7.73125 1.45312 8.06875 1.17188C8.40625 0.890625 8.8 0.75 9.25 0.75C9.7 0.75 10.0938 0.890625 10.4312 1.17188C10.7688 1.45312 10.9688 1.8125 11.0312 2.25H14.875C15.1875 2.25 15.4531 2.35938 15.6719 2.57812C15.8906 2.79688 16 3.0625 16 3.375V14.625C16 14.9375 15.8906 15.2031 15.6719 15.4219C15.4531 15.6406 15.1875 15.75 14.875 15.75H3.625ZM3.625 14.625H14.875V3.375H3.625V14.625ZM5.5 12.75H10.6187V11.625H5.5V12.75ZM5.5 9.5625H13V8.4375H5.5V9.5625ZM5.5 6.375H13V5.25H5.5V6.375ZM9.25 3.05625C9.425 3.05625 9.57812 2.99062 9.70938 2.85938C9.84063 2.72812 9.90625 2.575 9.90625 2.4C9.90625 2.225 9.84063 2.07188 9.70938 1.94063C9.57812 1.80938 9.425 1.74375 9.25 1.74375C9.075 1.74375 8.92188 1.80938 8.79062 1.94063C8.65937 2.07188 8.59375 2.225 8.59375 2.4C8.59375 2.575 8.65937 2.72812 8.79062 2.85938C8.92188 2.99062 9.075 3.05625 9.25 3.05625ZM3.625 14.625V3.375V14.625Z" fill="white"/>
</svg>
