<svg width="19" height="19" viewBox="0 0 19 19" fill="none" xmlns="http://www.w3.org/2000/svg">
<path d="M3.9375 16C3.625 16 3.35938 15.8906 3.14062 15.6719C2.92188 15.4531 2.8125 15.1875 2.8125 14.875V3.625C2.8125 3.3125 2.92188 3.04688 3.14062 2.82812C3.35938 2.60938 3.625 2.5 3.9375 2.5H7.78125C7.84375 2.0625 8.04375 1.70312 8.38125 1.42188C8.71875 1.14062 9.1125 1 9.5625 1C10.0125 1 10.4062 1.14062 10.7437 1.42188C11.0813 1.70312 11.2812 2.0625 11.3438 2.5H15.1875C15.5 2.5 15.7656 2.60938 15.9844 2.82812C16.2031 3.04688 16.3125 3.3125 16.3125 3.625V14.875C16.3125 15.1875 16.2031 15.4531 15.9844 15.6719C15.7656 15.8906 15.5 16 15.1875 16H3.9375ZM3.9375 14.875H15.1875V3.625H3.9375V14.875ZM5.8125 13H10.9312V11.875H5.8125V13ZM5.8125 9.8125H13.3125V8.6875H5.8125V9.8125ZM5.8125 6.625H13.3125V5.5H5.8125V6.625ZM9.5625 3.30625C9.7375 3.30625 9.89062 3.24062 10.0219 3.10938C10.1531 2.97812 10.2188 2.825 10.2188 2.65C10.2188 2.475 10.1531 2.32188 10.0219 2.19063C9.89062 2.05938 9.7375 1.99375 9.5625 1.99375C9.3875 1.99375 9.23438 2.05938 9.10312 2.19063C8.97187 2.32188 8.90625 2.475 8.90625 2.65C8.90625 2.825 8.97187 2.97812 9.10312 3.10938C9.23438 3.24062 9.3875 3.30625 9.5625 3.30625ZM3.9375 14.875V3.625V14.875Z" fill="#25474F"/>
</svg>
