<svg width="19" height="18" viewBox="0 0 19 18" fill="none" xmlns="http://www.w3.org/2000/svg">
<path d="M3.9375 15.75C3.625 15.75 3.35937 15.6406 3.14062 15.4219C2.92188 15.2031 2.8125 14.9375 2.8125 14.625V3.375C2.8125 3.0625 2.92188 2.79687 3.14062 2.57812C3.35937 2.35938 3.625 2.25 3.9375 2.25H7.78125C7.84375 1.8125 8.04375 1.45312 8.38125 1.17188C8.71875 0.890625 9.1125 0.75 9.5625 0.75C10.0125 0.75 10.4062 0.890625 10.7437 1.17188C11.0812 1.45312 11.2812 1.8125 11.3438 2.25H15.1875C15.5 2.25 15.7656 2.35938 15.9844 2.57812C16.2031 2.79687 16.3125 3.0625 16.3125 3.375V14.625C16.3125 14.9375 16.2031 15.2031 15.9844 15.4219C15.7656 15.6406 15.5 15.75 15.1875 15.75H3.9375ZM3.9375 14.625H15.1875V3.375H3.9375V14.625ZM5.8125 12.75H10.9312V11.625H5.8125V12.75ZM5.8125 9.5625H13.3125V8.4375H5.8125V9.5625ZM5.8125 6.375H13.3125V5.25H5.8125V6.375ZM9.5625 3.05625C9.7375 3.05625 9.89063 2.99062 10.0219 2.85938C10.1531 2.72813 10.2188 2.575 10.2188 2.4C10.2188 2.225 10.1531 2.07188 10.0219 1.94063C9.89063 1.80938 9.7375 1.74375 9.5625 1.74375C9.3875 1.74375 9.23437 1.80938 9.10312 1.94063C8.97187 2.07188 8.90625 2.225 8.90625 2.4C8.90625 2.575 8.97187 2.72813 9.10312 2.85938C9.23437 2.99062 9.3875 3.05625 9.5625 3.05625ZM3.9375 14.625V3.375V14.625Z" fill="#25474F"/>
</svg>
