<svg width="19" height="19" viewBox="0 0 19 19" fill="none" xmlns="http://www.w3.org/2000/svg">
<path d="M10.1562 16.75L9.96875 14.6875H9.21875C7.43125 14.6875 5.90625 14.0563 4.64375 12.7938C3.38125 11.5312 2.75 10.0063 2.75 8.21875C2.75 6.43125 3.38437 4.90625 4.65312 3.64375C5.92188 2.38125 7.45625 1.75 9.25625 1.75C10.1438 1.75 10.9656 1.90938 11.7219 2.22813C12.4781 2.54688 13.1375 2.99375 13.7 3.56875C14.2625 4.14375 14.7031 4.82187 15.0219 5.60312C15.3406 6.38437 15.5 7.2375 15.5 8.1625C15.5 8.9875 15.3781 9.8125 15.1344 10.6375C14.8906 11.4625 14.5375 12.25 14.075 13C13.6125 13.75 13.05 14.4437 12.3875 15.0812C11.725 15.7188 10.9812 16.275 10.1562 16.75ZM11.0938 14.725C12.1187 13.8625 12.9219 12.8469 13.5031 11.6781C14.0844 10.5094 14.375 9.3375 14.375 8.1625C14.375 6.6125 13.8906 5.34375 12.9219 4.35625C11.9531 3.36875 10.7313 2.875 9.25625 2.875C7.75625 2.875 6.48438 3.39688 5.44063 4.44063C4.39688 5.48438 3.875 6.74375 3.875 8.21875C3.875 9.69375 4.39688 10.9531 5.44063 11.9969C6.48438 13.0406 7.74375 13.5625 9.21875 13.5625H11.0938V14.725ZM9.25625 12.5687C9.45625 12.5687 9.625 12.5 9.7625 12.3625C9.9 12.225 9.96875 12.0563 9.96875 11.8563C9.96875 11.6562 9.9 11.4875 9.7625 11.35C9.625 11.2125 9.45625 11.1437 9.25625 11.1437C9.05625 11.1437 8.8875 11.2125 8.75 11.35C8.6125 11.4875 8.54375 11.6562 8.54375 11.8563C8.54375 12.0563 8.6125 12.225 8.75 12.3625C8.8875 12.5 9.05625 12.5687 9.25625 12.5687ZM8.75 10.0187H9.6875C9.6875 9.70625 9.74062 9.44688 9.84687 9.24063C9.95312 9.03438 10.175 8.7625 10.5125 8.425C10.85 8.0875 11.0875 7.77813 11.225 7.49688C11.3625 7.21563 11.4312 6.9125 11.4312 6.5875C11.4312 6.025 11.2406 5.5625 10.8594 5.2C10.4781 4.8375 9.96875 4.65625 9.33125 4.65625C8.80625 4.65625 8.3375 4.79375 7.925 5.06875C7.5125 5.34375 7.20625 5.71875 7.00625 6.19375L7.86875 6.55C8.00625 6.225 8.19687 5.98438 8.44062 5.82812C8.68437 5.67188 8.9625 5.59375 9.275 5.59375C9.65 5.59375 9.94375 5.68438 10.1562 5.86563C10.3688 6.04688 10.475 6.2875 10.475 6.5875C10.475 6.825 10.4062 7.06563 10.2687 7.30938C10.1312 7.55313 9.8875 7.85625 9.5375 8.21875C9.2 8.56875 8.98438 8.85 8.89062 9.0625C8.79688 9.275 8.75 9.59375 8.75 10.0187Z" fill="white"/>
</svg>
