<svg width="19" height="19" viewBox="0 0 19 19" fill="none" xmlns="http://www.w3.org/2000/svg">
<path d="M10.3197 17.1138L10.1325 15.0546H9.38371C7.599 15.0546 6.07638 14.4243 4.81584 13.1638C3.55531 11.9032 2.92505 10.3806 2.92505 8.5959C2.92505 6.81118 3.55843 5.28856 4.8252 4.02803C6.09198 2.7675 7.62396 2.13724 9.42115 2.13724C10.3073 2.13724 11.1279 2.29636 11.8829 2.61462C12.638 2.93287 13.2963 3.37905 13.858 3.95315C14.4196 4.52725 14.8595 5.20432 15.1778 5.98435C15.496 6.76438 15.6552 7.61618 15.6552 8.53973C15.6552 9.36345 15.5335 10.1872 15.2901 11.0109C15.0467 11.8346 14.6942 12.6209 14.2324 13.3697C13.7706 14.1185 13.209 14.8112 12.5475 15.4477C11.886 16.0842 11.1435 16.6396 10.3197 17.1138ZM11.2558 15.092C12.2792 14.2308 13.0811 13.2168 13.6614 12.0499C14.2417 10.8829 14.5319 9.7129 14.5319 8.53973C14.5319 6.99215 14.0483 5.72538 13.0811 4.73942C12.1138 3.75346 10.8938 3.26048 9.42115 3.26048C7.92349 3.26048 6.6536 3.78154 5.61148 4.82367C4.56935 5.86579 4.04829 7.1232 4.04829 8.5959C4.04829 10.0686 4.56935 11.326 5.61148 12.3681C6.6536 13.4102 7.91101 13.9313 9.38371 13.9313H11.2558V15.092ZM9.42115 12.9391C9.62084 12.9391 9.78932 12.8705 9.92661 12.7332C10.0639 12.5959 10.1325 12.4274 10.1325 12.2277C10.1325 12.028 10.0639 11.8595 9.92661 11.7223C9.78932 11.585 9.62084 11.5163 9.42115 11.5163C9.22146 11.5163 9.05297 11.585 8.91569 11.7223C8.7784 11.8595 8.70976 12.028 8.70976 12.2277C8.70976 12.4274 8.7784 12.5959 8.91569 12.7332C9.05297 12.8705 9.22146 12.9391 9.42115 12.9391ZM8.91569 10.3931H9.85173C9.85173 10.0811 9.90477 9.8221 10.0109 9.61618C10.1169 9.41025 10.3385 9.1388 10.6754 8.80182C11.0124 8.46485 11.2495 8.15596 11.3868 7.87515C11.5241 7.59434 11.5928 7.29168 11.5928 6.96719C11.5928 6.40557 11.4024 5.94379 11.0218 5.58186C10.6411 5.21992 10.1325 5.03895 9.49603 5.03895C8.97185 5.03895 8.50383 5.17624 8.09198 5.45081C7.68012 5.72538 7.37435 6.0998 7.17466 6.57406L8.03581 6.92975C8.1731 6.60526 8.36343 6.36501 8.6068 6.209C8.85017 6.05299 9.12786 5.97499 9.43987 5.97499C9.81428 5.97499 10.1076 6.06547 10.3197 6.24644C10.5319 6.42741 10.638 6.66766 10.638 6.96719C10.638 7.20432 10.5694 7.44457 10.4321 7.68794C10.2948 7.93131 10.0514 8.23396 9.70196 8.5959C9.36499 8.94535 9.1497 9.22616 9.05609 9.43833C8.96249 9.6505 8.91569 9.96875 8.91569 10.3931Z" fill="white"/>
</svg>
