<svg width="19" height="19" viewBox="0 0 19 19" fill="none" xmlns="http://www.w3.org/2000/svg">
<path d="M10.0733 16.9875L9.88608 14.9282H9.13725C7.35254 14.9282 5.82992 14.2979 4.56938 13.0374C3.30885 11.7769 2.67859 10.2542 2.67859 8.46952C2.67859 6.68481 3.31197 5.16219 4.57874 3.90166C5.84552 2.64113 7.3775 2.01086 9.17469 2.01086C10.0608 2.01086 10.8814 2.16999 11.6365 2.48824C12.3915 2.8065 13.0499 3.25267 13.6115 3.82678C14.1731 4.40088 14.6131 5.07795 14.9313 5.85798C15.2496 6.63801 15.4087 7.4898 15.4087 8.41336C15.4087 9.23707 15.287 10.0608 15.0436 10.8845C14.8003 11.7082 14.4477 12.4945 13.9859 13.2433C13.5241 13.9921 12.9625 14.6848 12.3011 15.3213C11.6396 15.9578 10.897 16.5132 10.0733 16.9875ZM11.0093 14.9656C12.0327 14.1045 12.8346 13.0904 13.4149 11.9235C13.9953 10.7566 14.2855 9.58653 14.2855 8.41336C14.2855 6.86578 13.8018 5.59901 12.8346 4.61305C11.8674 3.62709 10.6474 3.13411 9.17469 3.13411C7.67703 3.13411 6.40714 3.65517 5.36502 4.69729C4.32289 5.73941 3.80183 6.99682 3.80183 8.46952C3.80183 9.94222 4.32289 11.1996 5.36502 12.2418C6.40714 13.2839 7.66455 13.8049 9.13725 13.8049H11.0093V14.9656ZM9.17469 12.8127C9.37438 12.8127 9.54286 12.7441 9.68015 12.6068C9.81743 12.4695 9.88608 12.301 9.88608 12.1013C9.88608 11.9017 9.81743 11.7332 9.68015 11.5959C9.54286 11.4586 9.37438 11.39 9.17469 11.39C8.975 11.39 8.80651 11.4586 8.66923 11.5959C8.53194 11.7332 8.4633 11.9017 8.4633 12.1013C8.4633 12.301 8.53194 12.4695 8.66923 12.6068C8.80651 12.7441 8.975 12.8127 9.17469 12.8127ZM8.66923 10.2667H9.60527C9.60527 9.9547 9.65831 9.69573 9.76439 9.4898C9.87048 9.28388 10.092 9.01242 10.429 8.67545C10.766 8.33848 11.0031 8.02959 11.1404 7.74877C11.2777 7.46796 11.3463 7.16531 11.3463 6.84082C11.3463 6.27919 11.156 5.81742 10.7753 5.45548C10.3947 5.09355 9.88608 4.91258 9.24957 4.91258C8.72539 4.91258 8.25737 5.04987 7.84552 5.32444C7.43366 5.59901 7.12789 5.97342 6.9282 6.44768L7.78935 6.80338C7.92664 6.47888 8.11697 6.23863 8.36034 6.08263C8.60371 5.92662 8.8814 5.84862 9.19341 5.84862C9.56782 5.84862 9.86112 5.9391 10.0733 6.12007C10.2855 6.30104 10.3915 6.54129 10.3915 6.84082C10.3915 7.07795 10.3229 7.3182 10.1856 7.56157C10.0483 7.80494 9.80495 8.10759 9.4555 8.46952C9.11853 8.81898 8.90324 9.09979 8.80963 9.31196C8.71603 9.52413 8.66923 9.84238 8.66923 10.2667Z" fill="white"/>
</svg>
