<svg width="19" height="19" viewBox="0 0 19 19" fill="none" xmlns="http://www.w3.org/2000/svg">
<path d="M10.1562 17.25L9.96875 15.1875H9.21875C7.43125 15.1875 5.90625 14.5563 4.64375 13.2938C3.38125 12.0312 2.75 10.5063 2.75 8.71875C2.75 6.93125 3.38437 5.40625 4.65312 4.14375C5.92188 2.88125 7.45625 2.25 9.25625 2.25C10.1438 2.25 10.9656 2.40938 11.7219 2.72813C12.4781 3.04688 13.1375 3.49375 13.7 4.06875C14.2625 4.64375 14.7031 5.32187 15.0219 6.10312C15.3406 6.88437 15.5 7.7375 15.5 8.6625C15.5 9.4875 15.3781 10.3125 15.1344 11.1375C14.8906 11.9625 14.5375 12.75 14.075 13.5C13.6125 14.25 13.05 14.9437 12.3875 15.5812C11.725 16.2188 10.9812 16.775 10.1562 17.25ZM11.0938 15.225C12.1187 14.3625 12.9219 13.3469 13.5031 12.1781C14.0844 11.0094 14.375 9.8375 14.375 8.6625C14.375 7.1125 13.8906 5.84375 12.9219 4.85625C11.9531 3.86875 10.7313 3.375 9.25625 3.375C7.75625 3.375 6.48438 3.89688 5.44063 4.94063C4.39688 5.98438 3.875 7.24375 3.875 8.71875C3.875 10.1937 4.39688 11.4531 5.44063 12.4969C6.48438 13.5406 7.74375 14.0625 9.21875 14.0625H11.0938V15.225ZM9.25625 13.0687C9.45625 13.0687 9.625 13 9.7625 12.8625C9.9 12.725 9.96875 12.5563 9.96875 12.3563C9.96875 12.1562 9.9 11.9875 9.7625 11.85C9.625 11.7125 9.45625 11.6437 9.25625 11.6437C9.05625 11.6437 8.8875 11.7125 8.75 11.85C8.6125 11.9875 8.54375 12.1562 8.54375 12.3563C8.54375 12.5563 8.6125 12.725 8.75 12.8625C8.8875 13 9.05625 13.0687 9.25625 13.0687ZM8.75 10.5187H9.6875C9.6875 10.2062 9.74062 9.94688 9.84687 9.74063C9.95312 9.53438 10.175 9.2625 10.5125 8.925C10.85 8.5875 11.0875 8.27813 11.225 7.99688C11.3625 7.71563 11.4312 7.4125 11.4312 7.0875C11.4312 6.525 11.2406 6.0625 10.8594 5.7C10.4781 5.3375 9.96875 5.15625 9.33125 5.15625C8.80625 5.15625 8.3375 5.29375 7.925 5.56875C7.5125 5.84375 7.20625 6.21875 7.00625 6.69375L7.86875 7.05C8.00625 6.725 8.19687 6.48438 8.44062 6.32812C8.68437 6.17188 8.9625 6.09375 9.275 6.09375C9.65 6.09375 9.94375 6.18438 10.1562 6.36563C10.3688 6.54688 10.475 6.7875 10.475 7.0875C10.475 7.325 10.4062 7.56563 10.2687 7.80938C10.1312 8.05313 9.8875 8.35625 9.5375 8.71875C9.2 9.06875 8.98438 9.35 8.89062 9.5625C8.79688 9.775 8.75 10.0937 8.75 10.5187Z" fill="white"/>
</svg>
