<svg width="19" height="19" viewBox="0 0 19 19" fill="none" xmlns="http://www.w3.org/2000/svg">
<path d="M10.3197 17.1419L10.1325 15.0826H9.38371C7.599 15.0826 6.07638 14.4523 4.81584 13.1918C3.55531 11.9313 2.92505 10.4087 2.92505 8.62394C2.92505 6.83923 3.55843 5.31661 4.8252 4.05608C6.09198 2.79555 7.62396 2.16528 9.42115 2.16528C10.3073 2.16528 11.1279 2.32441 11.8829 2.64266C12.638 2.96092 13.2963 3.40709 13.858 3.9812C14.4196 4.5553 14.8595 5.23237 15.1778 6.0124C15.496 6.79243 15.6552 7.64422 15.6552 8.56778C15.6552 9.39149 15.5335 10.2152 15.2901 11.0389C15.0467 11.8626 14.6942 12.6489 14.2324 13.3977C13.7706 14.1466 13.209 14.8392 12.5475 15.4757C11.886 16.1122 11.1435 16.6676 10.3197 17.1419ZM11.2558 15.12C12.2792 14.2589 13.0811 13.2448 13.6614 12.0779C14.2417 10.911 14.5319 9.74095 14.5319 8.56778C14.5319 7.0202 14.0483 5.75343 13.0811 4.76747C12.1138 3.78151 10.8938 3.28853 9.42115 3.28853C7.92349 3.28853 6.6536 3.80959 5.61148 4.85171C4.56935 5.89383 4.04829 7.15124 4.04829 8.62394C4.04829 10.0966 4.56935 11.3541 5.61148 12.3962C6.6536 13.4383 7.91101 13.9594 9.38371 13.9594H11.2558V15.12ZM9.42115 12.9672C9.62084 12.9672 9.78932 12.8985 9.92661 12.7612C10.0639 12.6239 10.1325 12.4555 10.1325 12.2558C10.1325 12.0561 10.0639 11.8876 9.92661 11.7503C9.78932 11.613 9.62084 11.5444 9.42115 11.5444C9.22146 11.5444 9.05297 11.613 8.91569 11.7503C8.7784 11.8876 8.70976 12.0561 8.70976 12.2558C8.70976 12.4555 8.7784 12.6239 8.91569 12.7612C9.05297 12.8985 9.22146 12.9672 9.42115 12.9672ZM8.91569 10.4211H9.85173C9.85173 10.1091 9.90477 9.85015 10.0109 9.64422C10.1169 9.43829 10.3385 9.16684 10.6754 8.82987C11.0124 8.4929 11.2495 8.184 11.3868 7.90319C11.5241 7.62238 11.5928 7.31973 11.5928 6.99524C11.5928 6.43361 11.4024 5.97184 11.0218 5.6099C10.6411 5.24797 10.1325 5.067 9.49603 5.067C8.97185 5.067 8.50383 5.20428 8.09198 5.47886C7.68012 5.75343 7.37435 6.12784 7.17466 6.6021L8.03581 6.95779C8.1731 6.6333 8.36343 6.39305 8.6068 6.23705C8.85017 6.08104 9.12786 6.00304 9.43987 6.00304C9.81428 6.00304 10.1076 6.09352 10.3197 6.27449C10.5319 6.45545 10.638 6.6957 10.638 6.99524C10.638 7.23237 10.5694 7.47262 10.4321 7.71599C10.2948 7.95936 10.0514 8.26201 9.70196 8.62394C9.36499 8.9734 9.1497 9.25421 9.05609 9.46638C8.96249 9.67854 8.91569 9.9968 8.91569 10.4211Z" fill="white"/>
</svg>
