<svg width="19" height="19" viewBox="0 0 19 19" fill="none" xmlns="http://www.w3.org/2000/svg">
<path d="M10.3197 16.5507L10.1325 14.4914H9.38371C7.599 14.4914 6.07638 13.8611 4.81584 12.6006C3.55531 11.3401 2.92505 9.81747 2.92505 8.03275C2.92505 6.24804 3.55843 4.72542 4.8252 3.46489C6.09198 2.20436 7.62396 1.5741 9.42115 1.5741C10.3073 1.5741 11.1279 1.73322 11.8829 2.05148C12.638 2.36973 13.2963 2.81591 13.858 3.39001C14.4196 3.96411 14.8595 4.64118 15.1778 5.42121C15.496 6.20124 15.6552 7.05304 15.6552 7.97659C15.6552 8.80031 15.5335 9.62402 15.2901 10.4477C15.0467 11.2714 14.6942 12.0577 14.2324 12.8065C13.7706 13.5554 13.209 14.248 12.5475 14.8845C11.886 15.5211 11.1435 16.0764 10.3197 16.5507ZM11.2558 14.5289C12.2792 13.6677 13.0811 12.6537 13.6614 11.4867C14.2417 10.3198 14.5319 9.14976 14.5319 7.97659C14.5319 6.42901 14.0483 5.16224 13.0811 4.17628C12.1138 3.19032 10.8938 2.69734 9.42115 2.69734C7.92349 2.69734 6.6536 3.2184 5.61148 4.26052C4.56935 5.30265 4.04829 6.56006 4.04829 8.03275C4.04829 9.50545 4.56935 10.7629 5.61148 11.805C6.6536 12.8471 7.91101 13.3682 9.38371 13.3682H11.2558V14.5289ZM9.42115 12.376C9.62084 12.376 9.78932 12.3073 9.92661 12.17C10.0639 12.0328 10.1325 11.8643 10.1325 11.6646C10.1325 11.4649 10.0639 11.2964 9.92661 11.1591C9.78932 11.0218 9.62084 10.9532 9.42115 10.9532C9.22146 10.9532 9.05297 11.0218 8.91569 11.1591C8.7784 11.2964 8.70976 11.4649 8.70976 11.6646C8.70976 11.8643 8.7784 12.0328 8.91569 12.17C9.05297 12.3073 9.22146 12.376 9.42115 12.376ZM8.91569 9.82995H9.85173C9.85173 9.51793 9.90477 9.25896 10.0109 9.05304C10.1169 8.84711 10.3385 8.57566 10.6754 8.23868C11.0124 7.90171 11.2495 7.59282 11.3868 7.31201C11.5241 7.0312 11.5928 6.72854 11.5928 6.40405C11.5928 5.84243 11.4024 5.38065 11.0218 5.01871C10.6411 4.65678 10.1325 4.47581 9.49603 4.47581C8.97185 4.47581 8.50383 4.6131 8.09198 4.88767C7.68012 5.16224 7.37435 5.53666 7.17466 6.01091L8.03581 6.36661C8.1731 6.04212 8.36343 5.80187 8.6068 5.64586C8.85017 5.48985 9.12786 5.41185 9.43987 5.41185C9.81428 5.41185 10.1076 5.50233 10.3197 5.6833C10.5319 5.86427 10.638 6.10452 10.638 6.40405C10.638 6.64118 10.5694 6.88143 10.4321 7.1248C10.2948 7.36817 10.0514 7.67082 9.70196 8.03275C9.36499 8.38221 9.1497 8.66302 9.05609 8.87519C8.96249 9.08736 8.91569 9.40561 8.91569 9.82995Z" fill="white"/>
</svg>
