<svg width="19" height="19" viewBox="0 0 19 19" fill="none" xmlns="http://www.w3.org/2000/svg">
<path d="M10.1562 17L9.96875 14.9375H9.21875C7.43125 14.9375 5.90625 14.3063 4.64375 13.0438C3.38125 11.7812 2.75 10.2563 2.75 8.46875C2.75 6.68125 3.38437 5.15625 4.65312 3.89375C5.92188 2.63125 7.45625 2 9.25625 2C10.1438 2 10.9656 2.15938 11.7219 2.47813C12.4781 2.79688 13.1375 3.24375 13.7 3.81875C14.2625 4.39375 14.7031 5.07187 15.0219 5.85312C15.3406 6.63437 15.5 7.4875 15.5 8.4125C15.5 9.2375 15.3781 10.0625 15.1344 10.8875C14.8906 11.7125 14.5375 12.5 14.075 13.25C13.6125 14 13.05 14.6937 12.3875 15.3312C11.725 15.9688 10.9812 16.525 10.1562 17ZM11.0938 14.975C12.1187 14.1125 12.9219 13.0969 13.5031 11.9281C14.0844 10.7594 14.375 9.5875 14.375 8.4125C14.375 6.8625 13.8906 5.59375 12.9219 4.60625C11.9531 3.61875 10.7313 3.125 9.25625 3.125C7.75625 3.125 6.48438 3.64688 5.44063 4.69063C4.39688 5.73438 3.875 6.99375 3.875 8.46875C3.875 9.94375 4.39688 11.2031 5.44063 12.2469C6.48438 13.2906 7.74375 13.8125 9.21875 13.8125H11.0938V14.975ZM9.25625 12.8187C9.45625 12.8187 9.625 12.75 9.7625 12.6125C9.9 12.475 9.96875 12.3063 9.96875 12.1063C9.96875 11.9062 9.9 11.7375 9.7625 11.6C9.625 11.4625 9.45625 11.3937 9.25625 11.3937C9.05625 11.3937 8.8875 11.4625 8.75 11.6C8.6125 11.7375 8.54375 11.9062 8.54375 12.1063C8.54375 12.3063 8.6125 12.475 8.75 12.6125C8.8875 12.75 9.05625 12.8187 9.25625 12.8187ZM8.75 10.2687H9.6875C9.6875 9.95625 9.74062 9.69688 9.84687 9.49063C9.95312 9.28438 10.175 9.0125 10.5125 8.675C10.85 8.3375 11.0875 8.02813 11.225 7.74688C11.3625 7.46563 11.4312 7.1625 11.4312 6.8375C11.4312 6.275 11.2406 5.8125 10.8594 5.45C10.4781 5.0875 9.96875 4.90625 9.33125 4.90625C8.80625 4.90625 8.3375 5.04375 7.925 5.31875C7.5125 5.59375 7.20625 5.96875 7.00625 6.44375L7.86875 6.8C8.00625 6.475 8.19687 6.23438 8.44062 6.07812C8.68437 5.92188 8.9625 5.84375 9.275 5.84375C9.65 5.84375 9.94375 5.93438 10.1562 6.11563C10.3688 6.29688 10.475 6.5375 10.475 6.8375C10.475 7.075 10.4062 7.31563 10.2687 7.55938C10.1312 7.80313 9.8875 8.10625 9.5375 8.46875C9.2 8.81875 8.98438 9.1 8.89062 9.3125C8.79688 9.525 8.75 9.84375 8.75 10.2687Z" fill="white"/>
</svg>
