<svg width="19" height="19" viewBox="0 0 19 19" fill="none" xmlns="http://www.w3.org/2000/svg">
<path d="M17 4.875V14.625C17 14.925 16.8875 15.1875 16.6625 15.4125C16.4375 15.6375 16.175 15.75 15.875 15.75H3.125C2.825 15.75 2.5625 15.6375 2.3375 15.4125C2.1125 15.1875 2 14.925 2 14.625V4.875C2 4.575 2.1125 4.3125 2.3375 4.0875C2.5625 3.8625 2.825 3.75 3.125 3.75H15.875C16.175 3.75 16.4375 3.8625 16.6625 4.0875C16.8875 4.3125 17 4.575 17 4.875ZM3.125 6.91875H15.875V4.875H3.125V6.91875ZM3.125 9.3375V14.625H15.875V9.3375H3.125Z" fill="#717F8C"/>
</svg>
