<svg width="19" height="18" viewBox="0 0 19 18" fill="none" xmlns="http://www.w3.org/2000/svg">
<path d="M17 4.125V13.875C17 14.175 16.8875 14.4375 16.6625 14.6625C16.4375 14.8875 16.175 15 15.875 15H3.125C2.825 15 2.5625 14.8875 2.3375 14.6625C2.1125 14.4375 2 14.175 2 13.875V4.125C2 3.825 2.1125 3.5625 2.3375 3.3375C2.5625 3.1125 2.825 3 3.125 3H15.875C16.175 3 16.4375 3.1125 16.6625 3.3375C16.8875 3.5625 17 3.825 17 4.125ZM3.125 6.16875H15.875V4.125H3.125V6.16875ZM3.125 8.5875V13.875H15.875V8.5875H3.125Z" fill="#717F8C"/>
</svg>
