<svg width="19" height="18" viewBox="0 0 19 18" fill="none" xmlns="http://www.w3.org/2000/svg">
<path d="M4.625 16.5C4.325 16.5 4.0625 16.3875 3.8375 16.1625C3.6125 15.9375 3.5 15.675 3.5 15.375V2.625C3.5 2.325 3.6125 2.0625 3.8375 1.8375C4.0625 1.6125 4.325 1.5 4.625 1.5H11.3937L15.5 5.60625V15.375C15.5 15.675 15.3875 15.9375 15.1625 16.1625C14.9375 16.3875 14.675 16.5 14.375 16.5H4.625ZM10.8312 6.1125V2.625H4.625V15.375H14.375V6.1125H10.8312ZM4.625 2.625V6.1125V2.625V15.375V2.625Z" fill="white"/>
</svg>
