<svg width="10" height="10" viewBox="0 0 10 10" fill="none" xmlns="http://www.w3.org/2000/svg">
<path d="M5.25 7C5.3375 7 5.41094 6.97031 5.47031 6.91094C5.52969 6.85156 5.55937 6.77812 5.55937 6.69062C5.55937 6.60312 5.52969 6.52969 5.47031 6.47031C5.41094 6.41094 5.3375 6.38125 5.25 6.38125C5.1625 6.38125 5.08906 6.41094 5.02969 6.47031C4.97031 6.52969 4.94063 6.60312 4.94063 6.69062C4.94063 6.77812 4.97031 6.85156 5.02969 6.91094C5.08906 6.97031 5.1625 7 5.25 7ZM4.99687 5.56563H5.55937V3.19375H4.99687V5.56563ZM5.25 8.875C4.7375 8.875 4.25312 8.77656 3.79688 8.57969C3.34063 8.38281 2.94219 8.11406 2.60156 7.77344C2.26094 7.43281 1.99219 7.03438 1.79531 6.57812C1.59844 6.12187 1.5 5.63438 1.5 5.11563C1.5 4.60313 1.59844 4.11875 1.79531 3.6625C1.99219 3.20625 2.26094 2.80938 2.60156 2.47188C2.94219 2.13438 3.34063 1.86719 3.79688 1.67031C4.25312 1.47344 4.74062 1.375 5.25937 1.375C5.77187 1.375 6.25625 1.47344 6.7125 1.67031C7.16875 1.86719 7.56563 2.13438 7.90313 2.47188C8.24063 2.80938 8.50781 3.20625 8.70469 3.6625C8.90156 4.11875 9 4.60625 9 5.125C9 5.6375 8.90156 6.12187 8.70469 6.57812C8.50781 7.03438 8.24063 7.43281 7.90313 7.77344C7.56563 8.11406 7.16875 8.38281 6.7125 8.57969C6.25625 8.77656 5.76875 8.875 5.25 8.875ZM5.25937 8.3125C6.14062 8.3125 6.89062 8.00156 7.50937 7.37969C8.12812 6.75781 8.4375 6.00313 8.4375 5.11563C8.4375 4.23438 8.12812 3.48438 7.50937 2.86562C6.89062 2.24687 6.1375 1.9375 5.25 1.9375C4.36875 1.9375 3.61719 2.24687 2.99531 2.86562C2.37344 3.48438 2.0625 4.2375 2.0625 5.125C2.0625 6.00625 2.37344 6.75781 2.99531 7.37969C3.61719 8.00156 4.37187 8.3125 5.25937 8.3125Z" fill="#B60B0B"/>
</svg>
