<svg width="10" height="10" viewBox="0 0 10 10" fill="none" xmlns="http://www.w3.org/2000/svg">
<path d="M5 6.62503C5.0875 6.62503 5.16094 6.59534 5.22031 6.53597C5.27969 6.47659 5.30937 6.40316 5.30937 6.31566C5.30937 6.22816 5.27969 6.15472 5.22031 6.09534C5.16094 6.03597 5.0875 6.00628 5 6.00628C4.9125 6.00628 4.83906 6.03597 4.77969 6.09534C4.72031 6.15472 4.69063 6.22816 4.69063 6.31566C4.69063 6.40316 4.72031 6.47659 4.77969 6.53597C4.83906 6.59534 4.9125 6.62503 5 6.62503ZM4.74687 5.19066H5.30937V2.81878H4.74687V5.19066ZM5 8.50003C4.4875 8.50003 4.00312 8.40159 3.54688 8.20472C3.09063 8.00784 2.69219 7.73909 2.35156 7.39847C2.01094 7.05784 1.74219 6.65941 1.54531 6.20316C1.34844 5.74691 1.25 5.25941 1.25 4.74066C1.25 4.22816 1.34844 3.74378 1.54531 3.28753C1.74219 2.83128 2.01094 2.43441 2.35156 2.09691C2.69219 1.75941 3.09063 1.49222 3.54688 1.29534C4.00312 1.09847 4.49062 1.00003 5.00937 1.00003C5.52187 1.00003 6.00625 1.09847 6.4625 1.29534C6.91875 1.49222 7.31563 1.75941 7.65313 2.09691C7.99063 2.43441 8.25781 2.83128 8.45469 3.28753C8.65156 3.74378 8.75 4.23128 8.75 4.75003C8.75 5.26253 8.65156 5.74691 8.45469 6.20316C8.25781 6.65941 7.99063 7.05784 7.65313 7.39847C7.31563 7.73909 6.91875 8.00784 6.4625 8.20472C6.00625 8.40159 5.51875 8.50003 5 8.50003ZM5.00937 7.93753C5.89062 7.93753 6.64062 7.62659 7.25937 7.00472C7.87812 6.38284 8.1875 5.62816 8.1875 4.74066C8.1875 3.85941 7.87812 3.10941 7.25937 2.49066C6.64062 1.87191 5.8875 1.56253 5 1.56253C4.11875 1.56253 3.36719 1.87191 2.74531 2.49066C2.12344 3.10941 1.8125 3.86253 1.8125 4.75003C1.8125 5.63128 2.12344 6.38284 2.74531 7.00472C3.36719 7.62659 4.12187 7.93753 5.00937 7.93753Z" fill="#B60B0B"/>
</svg>
