<svg width="10" height="9" viewBox="0 0 10 9" fill="none" xmlns="http://www.w3.org/2000/svg">
<path d="M5 6.375C5.0875 6.375 5.16094 6.34531 5.22031 6.28594C5.27969 6.22656 5.30937 6.15312 5.30937 6.06562C5.30937 5.97812 5.27969 5.90469 5.22031 5.84531C5.16094 5.78594 5.0875 5.75625 5 5.75625C4.9125 5.75625 4.83906 5.78594 4.77969 5.84531C4.72031 5.90469 4.69063 5.97812 4.69063 6.06562C4.69063 6.15312 4.72031 6.22656 4.77969 6.28594C4.83906 6.34531 4.9125 6.375 5 6.375ZM4.74687 4.94063H5.30937V2.56875H4.74687V4.94063ZM5 8.25C4.4875 8.25 4.00312 8.15156 3.54688 7.95469C3.09063 7.75781 2.69219 7.48906 2.35156 7.14844C2.01094 6.80781 1.74219 6.40938 1.54531 5.95312C1.34844 5.49687 1.25 5.00938 1.25 4.49063C1.25 3.97813 1.34844 3.49375 1.54531 3.0375C1.74219 2.58125 2.01094 2.18438 2.35156 1.84688C2.69219 1.50938 3.09063 1.24219 3.54688 1.04531C4.00312 0.848437 4.49062 0.75 5.00937 0.75C5.52187 0.75 6.00625 0.848437 6.4625 1.04531C6.91875 1.24219 7.31563 1.50938 7.65313 1.84688C7.99063 2.18438 8.25781 2.58125 8.45469 3.0375C8.65156 3.49375 8.75 3.98125 8.75 4.5C8.75 5.0125 8.65156 5.49687 8.45469 5.95312C8.25781 6.40938 7.99063 6.80781 7.65313 7.14844C7.31563 7.48906 6.91875 7.75781 6.4625 7.95469C6.00625 8.15156 5.51875 8.25 5 8.25ZM5.00937 7.6875C5.89062 7.6875 6.64062 7.37656 7.25937 6.75469C7.87812 6.13281 8.1875 5.37813 8.1875 4.49063C8.1875 3.60938 7.87812 2.85938 7.25937 2.24062C6.64062 1.62187 5.8875 1.3125 5 1.3125C4.11875 1.3125 3.36719 1.62187 2.74531 2.24062C2.12344 2.85938 1.8125 3.6125 1.8125 4.5C1.8125 5.38125 2.12344 6.13281 2.74531 6.75469C3.36719 7.37656 4.12187 7.6875 5.00937 7.6875Z" fill="#B60B0B"/>
</svg>
