<svg width="10" height="10" viewBox="0 0 10 10" fill="none" xmlns="http://www.w3.org/2000/svg">
<path d="M5 6.875C5.0875 6.875 5.16094 6.84531 5.22031 6.78594C5.27969 6.72656 5.30937 6.65312 5.30937 6.56562C5.30937 6.47812 5.27969 6.40469 5.22031 6.34531C5.16094 6.28594 5.0875 6.25625 5 6.25625C4.9125 6.25625 4.83906 6.28594 4.77969 6.34531C4.72031 6.40469 4.69063 6.47812 4.69063 6.56562C4.69063 6.65312 4.72031 6.72656 4.77969 6.78594C4.83906 6.84531 4.9125 6.875 5 6.875ZM4.74687 5.44063H5.30937V3.06875H4.74687V5.44063ZM5 8.75C4.4875 8.75 4.00312 8.65156 3.54688 8.45469C3.09063 8.25781 2.69219 7.98906 2.35156 7.64844C2.01094 7.30781 1.74219 6.90938 1.54531 6.45312C1.34844 5.99687 1.25 5.50938 1.25 4.99063C1.25 4.47813 1.34844 3.99375 1.54531 3.5375C1.74219 3.08125 2.01094 2.68438 2.35156 2.34688C2.69219 2.00938 3.09063 1.74219 3.54688 1.54531C4.00312 1.34844 4.49062 1.25 5.00937 1.25C5.52187 1.25 6.00625 1.34844 6.4625 1.54531C6.91875 1.74219 7.31563 2.00938 7.65313 2.34688C7.99063 2.68438 8.25781 3.08125 8.45469 3.5375C8.65156 3.99375 8.75 4.48125 8.75 5C8.75 5.5125 8.65156 5.99687 8.45469 6.45312C8.25781 6.90938 7.99063 7.30781 7.65313 7.64844C7.31563 7.98906 6.91875 8.25781 6.4625 8.45469C6.00625 8.65156 5.51875 8.75 5 8.75ZM5.00937 8.1875C5.89062 8.1875 6.64062 7.87656 7.25937 7.25469C7.87812 6.63281 8.1875 5.87813 8.1875 4.99063C8.1875 4.10938 7.87812 3.35938 7.25937 2.74062C6.64062 2.12187 5.8875 1.8125 5 1.8125C4.11875 1.8125 3.36719 2.12187 2.74531 2.74062C2.12344 3.35938 1.8125 4.1125 1.8125 5C1.8125 5.88125 2.12344 6.63281 2.74531 7.25469C3.36719 7.87656 4.12187 8.1875 5.00937 8.1875Z" fill="#B60B0B"/>
</svg>
