<svg width="30" height="30" viewBox="0 0 30 30" fill="none" xmlns="http://www.w3.org/2000/svg">
<path d="M10.8514 21.75C10.5416 21.75 10.2783 21.6406 10.0615 21.4219C9.84463 21.2031 9.7362 20.9375 9.7362 20.625V9.9375H8.97412V8.8125H12.4685V8.25H17.3756V8.8125H20.87V9.9375H20.1079V20.625C20.1079 20.925 19.9964 21.1875 19.7733 21.4125C19.5503 21.6375 19.2901 21.75 18.9927 21.75H10.8514ZM18.9927 9.9375H10.8514V20.625H18.9927V9.9375ZM12.8217 19.0125H13.9369V11.5312H12.8217V19.0125ZM15.9072 19.0125H17.0224V11.5312H15.9072V19.0125ZM10.8514 9.9375V20.625V9.9375Z" fill="#7C9195"/>
</svg>
