<svg width="30" height="31" viewBox="0 0 30 31" fill="none" xmlns="http://www.w3.org/2000/svg">
<path d="M10.8514 22.25C10.5416 22.25 10.2783 22.1406 10.0615 21.9219C9.84463 21.7031 9.7362 21.4375 9.7362 21.125V10.4375H8.97412V9.3125H12.4685V8.75H17.3756V9.3125H20.87V10.4375H20.1079V21.125C20.1079 21.425 19.9964 21.6875 19.7733 21.9125C19.5503 22.1375 19.2901 22.25 18.9927 22.25H10.8514ZM18.9927 10.4375H10.8514V21.125H18.9927V10.4375ZM12.8217 19.5125H13.9369V12.0312H12.8217V19.5125ZM15.9072 19.5125H17.0224V12.0312H15.9072V19.5125ZM10.8514 10.4375V21.125V10.4375Z" fill="#7C9195"/>
</svg>
