<svg width="31" height="31" viewBox="0 0 31 31" fill="none" xmlns="http://www.w3.org/2000/svg">
<path d="M11.16 22.142C10.848 22.142 10.5828 22.0328 10.3644 21.8144C10.146 21.596 10.0368 21.3308 10.0368 21.0188V10.348H9.26923V9.22471H12.7887V8.66309H17.731V9.22471H21.2505V10.348H20.483V21.0188C20.483 21.3183 20.3706 21.5804 20.146 21.8051C19.9213 22.0297 19.6592 22.142 19.3597 22.142H11.16ZM19.3597 10.348H11.16V21.0188H19.3597V10.348ZM13.1444 19.4088H14.2677V11.9392H13.1444V19.4088ZM16.2521 19.4088H17.3753V11.9392H16.2521V19.4088ZM11.16 10.348V21.0188V10.348Z" fill="#7C9195"/>
</svg>
