<svg width="31" height="31" viewBox="0 0 31 31" fill="none" xmlns="http://www.w3.org/2000/svg">
<path d="M11.4065 22.705C11.0945 22.705 10.8293 22.5958 10.6109 22.3774C10.3925 22.159 10.2833 21.8938 10.2833 21.5818V10.9109H9.51575V9.7877H13.0352V9.22607H17.9775V9.7877H21.497V10.9109H20.7295V21.5818C20.7295 21.8813 20.6172 22.1434 20.3925 22.368C20.1679 22.5927 19.9058 22.705 19.6062 22.705H11.4065ZM19.6062 10.9109H11.4065V21.5818H19.6062V10.9109ZM13.3909 19.9718H14.5142V12.5022H13.3909V19.9718ZM16.4986 19.9718H17.6218V12.5022H16.4986V19.9718ZM11.4065 10.9109V21.5818V10.9109Z" fill="#7C9195"/>
</svg>
