<svg width="19" height="19" viewBox="0 0 19 19" fill="none" xmlns="http://www.w3.org/2000/svg">
<path d="M5.1491 16.142C4.83708 16.142 4.57187 16.0328 4.35346 15.8144C4.13506 15.5959 4.02585 15.3307 4.02585 15.0187V4.34789H3.2583V3.22465H6.7778V2.66302H11.7201V3.22465H15.2396V4.34789H14.472V15.0187C14.472 15.3183 14.3597 15.5803 14.1351 15.805C13.9104 16.0296 13.6483 16.142 13.3488 16.142H5.1491ZM13.3488 4.34789H5.1491V15.0187H13.3488V4.34789ZM7.1335 13.4087H8.25674V5.93916H7.1335V13.4087ZM10.2411 13.4087H11.3644V5.93916H10.2411V13.4087ZM5.1491 4.34789V15.0187V4.34789Z" fill="#7C9195"/>
</svg>
