<svg width="19" height="19" viewBox="0 0 19 19" fill="none" xmlns="http://www.w3.org/2000/svg">
<path d="M5.1491 16.5504C4.83708 16.5504 4.57187 16.4411 4.35346 16.2227C4.13506 16.0043 4.02585 15.7391 4.02585 15.4271V4.75628H3.2583V3.63303H6.7778V3.07141H11.7201V3.63303H15.2396V4.75628H14.472V15.4271C14.472 15.7266 14.3597 15.9887 14.1351 16.2134C13.9104 16.438 13.6483 16.5504 13.3488 16.5504H5.1491ZM13.3488 4.75628H5.1491V15.4271H13.3488V4.75628ZM7.1335 13.8171H8.25674V6.34754H7.1335V13.8171ZM10.2411 13.8171H11.3644V6.34754H10.2411V13.8171ZM5.1491 4.75628V15.4271V4.75628Z" fill="#7C9195"/>
</svg>
