<svg width="18" height="19" viewBox="0 0 18 19" fill="none" xmlns="http://www.w3.org/2000/svg">
<path d="M4.85095 16.25C4.54116 16.25 4.27784 16.1406 4.06099 15.9219C3.84414 15.7031 3.73571 15.4375 3.73571 15.125V4.4375H2.97363V3.3125H6.46804V2.75H11.3751V3.3125H14.8695V4.4375H14.1074V15.125C14.1074 15.425 13.9959 15.6875 13.7728 15.9125C13.5498 16.1375 13.2896 16.25 12.9922 16.25H4.85095ZM12.9922 4.4375H4.85095V15.125H12.9922V4.4375ZM6.8212 13.5125H7.93644V6.03125H6.8212V13.5125ZM9.90669 13.5125H11.0219V6.03125H9.90669V13.5125ZM4.85095 4.4375V15.125V4.4375Z" fill="#7C9195"/>
</svg>
