<svg width="19" height="19" viewBox="0 0 19 19" fill="none" xmlns="http://www.w3.org/2000/svg">
<path d="M5.1491 16.1888C4.83708 16.1888 4.57187 16.0796 4.35346 15.8612C4.13506 15.6428 4.02585 15.3775 4.02585 15.0655V4.39471H3.2583V3.27146H6.7778V2.70984H11.7201V3.27146H15.2396V4.39471H14.472V15.0655C14.472 15.3651 14.3597 15.6272 14.1351 15.8518C13.9104 16.0765 13.6483 16.1888 13.3488 16.1888H5.1491ZM13.3488 4.39471H5.1491V15.0655H13.3488V4.39471ZM7.1335 13.4555H8.25674V5.98597H7.1335V13.4555ZM10.2411 13.4555H11.3644V5.98597H10.2411V13.4555ZM5.1491 4.39471V15.0655V4.39471Z" fill="#7C9195"/>
</svg>
