<svg width="19" height="19" viewBox="0 0 19 19" fill="none" xmlns="http://www.w3.org/2000/svg">
<path d="M5.38778 16.2964C5.07577 16.2964 4.81056 16.1872 4.59215 15.9688C4.37374 15.7504 4.26454 15.4852 4.26454 15.1731V4.50231H3.49699V3.37907H7.01649V2.81744H11.9588V3.37907H15.4783V4.50231H14.7107V15.1731C14.7107 15.4727 14.5984 15.7348 14.3737 15.9594C14.1491 16.1841 13.887 16.2964 13.5875 16.2964H5.38778ZM13.5875 4.50231H5.38778V15.1731H13.5875V4.50231ZM7.37218 13.5632H8.49543V6.09358H7.37218V13.5632ZM10.4798 13.5632H11.6031V6.09358H10.4798V13.5632ZM5.38778 4.50231V15.1731V4.50231Z" fill="#7C9195"/>
</svg>
