<svg width="19" height="19" viewBox="0 0 19 19" fill="none" xmlns="http://www.w3.org/2000/svg">
<path d="M5.35144 16.5C5.04165 16.5 4.77833 16.3906 4.56148 16.1719C4.34463 15.9531 4.2362 15.6875 4.2362 15.375V4.6875H3.47412V3.5625H6.96853V3H11.8756V3.5625H15.37V4.6875H14.6079V15.375C14.6079 15.675 14.4964 15.9375 14.2733 16.1625C14.0503 16.3875 13.7901 16.5 13.4927 16.5H5.35144ZM13.4927 4.6875H5.35144V15.375H13.4927V4.6875ZM7.32169 13.7625H8.43693V6.28125H7.32169V13.7625ZM10.4072 13.7625H11.5224V6.28125H10.4072V13.7625ZM5.35144 4.6875V15.375V4.6875Z" fill="#7C9195"/>
</svg>
