<svg width="19" height="19" viewBox="0 0 19 19" fill="none" xmlns="http://www.w3.org/2000/svg">
<path d="M5.35095 16C5.04116 16 4.77784 15.8906 4.56099 15.6719C4.34414 15.4531 4.23571 15.1875 4.23571 14.875V4.1875H3.47363V3.0625H6.96804V2.5H11.8751V3.0625H15.3695V4.1875H14.6074V14.875C14.6074 15.175 14.4959 15.4375 14.2728 15.6625C14.0498 15.8875 13.7896 16 13.4922 16H5.35095ZM13.4922 4.1875H5.35095V14.875H13.4922V4.1875ZM7.3212 13.2625H8.43644V5.78125H7.3212V13.2625ZM10.4067 13.2625H11.5219V5.78125H10.4067V13.2625ZM5.35095 4.1875V14.875V4.1875Z" fill="#7C9195"/>
</svg>
