<svg width="19" height="19" viewBox="0 0 19 19" fill="none" xmlns="http://www.w3.org/2000/svg">
<path d="M5.35144 16C5.04165 16 4.77833 15.8906 4.56148 15.6719C4.34463 15.4531 4.2362 15.1875 4.2362 14.875V4.1875H3.47412V3.0625H6.96853V2.5H11.8756V3.0625H15.37V4.1875H14.6079V14.875C14.6079 15.175 14.4964 15.4375 14.2733 15.6625C14.0503 15.8875 13.7901 16 13.4927 16H5.35144ZM13.4927 4.1875H5.35144V14.875H13.4927V4.1875ZM7.32169 13.2625H8.43693V5.78125H7.32169V13.2625ZM10.4072 13.2625H11.5224V5.78125H10.4072V13.2625ZM5.35144 4.1875V14.875V4.1875Z" fill="#7C9195"/>
</svg>
