<svg width="19" height="19" viewBox="0 0 19 19" fill="none" xmlns="http://www.w3.org/2000/svg">
<path d="M5.1491 16.5036C4.83708 16.5036 4.57187 16.3944 4.35346 16.176C4.13506 15.9576 4.02585 15.6924 4.02585 15.3804V4.70953H3.2583V3.58628H6.7778V3.02466H11.7201V3.58628H15.2396V4.70953H14.472V15.3804C14.472 15.6799 14.3597 15.942 14.1351 16.1666C13.9104 16.3913 13.6483 16.5036 13.3488 16.5036H5.1491ZM13.3488 4.70953H5.1491V15.3804H13.3488V4.70953ZM7.1335 13.7704H8.25674V6.30079H7.1335V13.7704ZM10.2411 13.7704H11.3644V6.30079H10.2411V13.7704ZM5.1491 4.70953V15.3804V4.70953Z" fill="#7C9195"/>
</svg>
