<svg width="19" height="19" viewBox="0 0 19 19" fill="none" xmlns="http://www.w3.org/2000/svg">
<path d="M5.1491 16.5972C4.83708 16.5972 4.57187 16.488 4.35346 16.2696C4.13506 16.0512 4.02585 15.786 4.02585 15.474V4.80315H3.2583V3.67991H6.7778V3.11829H11.7201V3.67991H15.2396V4.80315H14.472V15.474C14.472 15.7735 14.3597 16.0356 14.1351 16.2603C13.9104 16.4849 13.6483 16.5972 13.3488 16.5972H5.1491ZM13.3488 4.80315H5.1491V15.474H13.3488V4.80315ZM7.1335 13.864H8.25674V6.39442H7.1335V13.864ZM10.2411 13.864H11.3644V6.39442H10.2411V13.864ZM5.1491 4.80315V15.474V4.80315Z" fill="#7C9195"/>
</svg>
