<svg width="19" height="18" viewBox="0 0 19 18" fill="none" xmlns="http://www.w3.org/2000/svg">
<path d="M9.5 8.98126C8.675 8.98126 8 8.71876 7.475 8.19376C6.95 7.66876 6.6875 6.99376 6.6875 6.16876C6.6875 5.34376 6.95 4.66876 7.475 4.14376C8 3.61876 8.675 3.35626 9.5 3.35626C10.325 3.35626 11 3.61876 11.525 4.14376C12.05 4.66876 12.3125 5.34376 12.3125 6.16876C12.3125 6.99376 12.05 7.66876 11.525 8.19376C11 8.71876 10.325 8.98126 9.5 8.98126ZM3.5 15V13.2375C3.5 12.7625 3.61875 12.3563 3.85625 12.0188C4.09375 11.6813 4.4 11.425 4.775 11.25C5.6125 10.875 6.41563 10.5938 7.18438 10.4063C7.95313 10.2188 8.725 10.125 9.5 10.125C10.275 10.125 11.0437 10.2219 11.8062 10.4156C12.5687 10.6094 13.3687 10.8875 14.2062 11.25C14.5938 11.425 14.9062 11.6813 15.1437 12.0188C15.3812 12.3563 15.5 12.7625 15.5 13.2375V15H3.5ZM4.625 13.875H14.375V13.2375C14.375 13.0375 14.3156 12.8469 14.1969 12.6656C14.0781 12.4844 13.9312 12.35 13.7562 12.2625C12.9562 11.875 12.225 11.6094 11.5625 11.4656C10.9 11.3219 10.2125 11.25 9.5 11.25C8.7875 11.25 8.09375 11.3219 7.41875 11.4656C6.74375 11.6094 6.0125 11.875 5.225 12.2625C5.05 12.35 4.90625 12.4844 4.79375 12.6656C4.68125 12.8469 4.625 13.0375 4.625 13.2375V13.875ZM9.5 7.85626C9.9875 7.85626 10.3906 7.69689 10.7094 7.37814C11.0281 7.05939 11.1875 6.65626 11.1875 6.16876C11.1875 5.68126 11.0281 5.27814 10.7094 4.95939C10.3906 4.64064 9.9875 4.48126 9.5 4.48126C9.0125 4.48126 8.60938 4.64064 8.29062 4.95939C7.97187 5.27814 7.8125 5.68126 7.8125 6.16876C7.8125 6.65626 7.97187 7.05939 8.29062 7.37814C8.60938 7.69689 9.0125 7.85626 9.5 7.85626Z" fill="#25474F"/>
</svg>
