<svg width="19" height="18" viewBox="0 0 19 18" fill="none" xmlns="http://www.w3.org/2000/svg">
<path d="M4.625 16.5C4.31563 16.5 4.05078 16.3898 3.83047 16.1695C3.61016 15.9492 3.5 15.6844 3.5 15.375V7.2375C3.5 6.92813 3.61016 6.66328 3.83047 6.44297C4.05078 6.22266 4.31563 6.1125 4.625 6.1125H5.9375V4.3125C5.9375 3.32687 6.28504 2.48672 6.98011 1.79203C7.67519 1.09734 8.51581 0.75 9.50199 0.75C10.4882 0.75 11.3281 1.09734 12.0219 1.79203C12.7156 2.48672 13.0625 3.32687 13.0625 4.3125V6.1125H14.375C14.6844 6.1125 14.9492 6.22266 15.1695 6.44297C15.3898 6.66328 15.5 6.92813 15.5 7.2375V15.375C15.5 15.6844 15.3898 15.9492 15.1695 16.1695C14.9492 16.3898 14.6844 16.5 14.375 16.5H4.625ZM9.50315 12.75C9.90105 12.75 10.2406 12.6123 10.5219 12.3369C10.8031 12.0615 10.9438 11.7305 10.9438 11.3438C10.9438 10.9688 10.8021 10.6281 10.5187 10.3219C10.2354 10.0156 9.89475 9.8625 9.49685 9.8625C9.09895 9.8625 8.75938 10.0156 8.47813 10.3219C8.19688 10.6281 8.05625 10.9719 8.05625 11.3531C8.05625 11.7344 8.19793 12.0625 8.48128 12.3375C8.76463 12.6125 9.10525 12.75 9.50315 12.75ZM7.0625 6.1125H11.9375V4.3125C11.9375 3.63541 11.7007 3.05989 11.2272 2.58594C10.7537 2.11198 10.1787 1.875 9.50221 1.875C8.82574 1.875 8.25 2.11198 7.775 2.58594C7.3 3.05989 7.0625 3.63541 7.0625 4.3125V6.1125Z" fill="white"/>
</svg>
