<svg width="19" height="19" viewBox="0 0 19 19" fill="none" xmlns="http://www.w3.org/2000/svg">
<path d="M9.5 9.7312C8.675 9.7312 8 9.4687 7.475 8.9437C6.95 8.4187 6.6875 7.7437 6.6875 6.9187C6.6875 6.0937 6.95 5.4187 7.475 4.8937C8 4.3687 8.675 4.1062 9.5 4.1062C10.325 4.1062 11 4.3687 11.525 4.8937C12.05 5.4187 12.3125 6.0937 12.3125 6.9187C12.3125 7.7437 12.05 8.4187 11.525 8.9437C11 9.4687 10.325 9.7312 9.5 9.7312ZM3.5 15.75V13.9874C3.5 13.5125 3.61875 13.1062 3.85625 12.7687C4.09375 12.4312 4.4 12.175 4.775 12C5.6125 11.625 6.41563 11.3437 7.18438 11.1562C7.95313 10.9687 8.725 10.875 9.5 10.875C10.275 10.875 11.0437 10.9718 11.8062 11.1656C12.5687 11.3593 13.3687 11.6375 14.2062 12C14.5938 12.175 14.9062 12.4312 15.1437 12.7687C15.3812 13.1062 15.5 13.5125 15.5 13.9874V15.75H3.5Z" fill="white"/>
</svg>
