<svg width="37" height="37" viewBox="0 0 37 37" fill="none" xmlns="http://www.w3.org/2000/svg">
<path d="M19.8125 33.75L19.4375 29.625H17.9375C14.3625 29.625 11.3125 28.3625 8.7875 25.8375C6.2625 23.3125 5 20.2625 5 16.6875C5 13.1125 6.26875 10.0625 8.80625 7.5375C11.3438 5.0125 14.4125 3.75 18.0125 3.75C19.7875 3.75 21.4313 4.06875 22.9438 4.70625C24.4563 5.34375 25.775 6.2375 26.9 7.3875C28.025 8.5375 28.9063 9.89375 29.5438 11.4562C30.1813 13.0187 30.5 14.725 30.5 16.575C30.5 18.225 30.2563 19.875 29.7688 21.525C29.2813 23.175 28.575 24.75 27.65 26.25C26.725 27.75 25.6 29.1375 24.275 30.4125C22.95 31.6875 21.4625 32.8 19.8125 33.75ZM21.6875 29.7C23.7375 27.975 25.3438 25.9438 26.5063 23.6063C27.6688 21.2688 28.25 18.925 28.25 16.575C28.25 13.475 27.2813 10.9375 25.3438 8.9625C23.4063 6.9875 20.9625 6 18.0125 6C15.0125 6 12.4688 7.04375 10.3813 9.13125C8.29375 11.2188 7.25 13.7375 7.25 16.6875C7.25 19.6375 8.29375 22.1562 10.3813 24.2438C12.4688 26.3313 14.9875 27.375 17.9375 27.375H21.6875V29.7ZM18.0125 25.3875C18.4125 25.3875 18.75 25.25 19.025 24.975C19.3 24.7 19.4375 24.3625 19.4375 23.9625C19.4375 23.5625 19.3 23.225 19.025 22.95C18.75 22.675 18.4125 22.5375 18.0125 22.5375C17.6125 22.5375 17.275 22.675 17 22.95C16.725 23.225 16.5875 23.5625 16.5875 23.9625C16.5875 24.3625 16.725 24.7 17 24.975C17.275 25.25 17.6125 25.3875 18.0125 25.3875ZM17 20.2875H18.875C18.875 19.6625 18.9813 19.1438 19.1938 18.7313C19.4063 18.3188 19.85 17.775 20.525 17.1C21.2 16.425 21.675 15.8063 21.95 15.2438C22.225 14.6813 22.3625 14.075 22.3625 13.425C22.3625 12.3 21.9813 11.375 21.2188 10.65C20.4563 9.925 19.4375 9.5625 18.1625 9.5625C17.1125 9.5625 16.175 9.8375 15.35 10.3875C14.525 10.9375 13.9125 11.6875 13.5125 12.6375L15.2375 13.35C15.5125 12.7 15.8938 12.2188 16.3813 11.9062C16.8688 11.5938 17.425 11.4375 18.05 11.4375C18.8 11.4375 19.3875 11.6188 19.8125 11.9813C20.2375 12.3438 20.45 12.825 20.45 13.425C20.45 13.9 20.3125 14.3813 20.0375 14.8688C19.7625 15.3563 19.275 15.9625 18.575 16.6875C17.9 17.3875 17.4688 17.95 17.2813 18.375C17.0938 18.8 17 19.4375 17 20.2875Z" fill="#25474F"/>
</svg>
