<svg width="37" height="37" viewBox="0 0 37 37" fill="none" xmlns="http://www.w3.org/2000/svg">
<path d="M30.3125 32.25C27.2625 32.25 24.2313 31.5 21.2188 30C18.2063 28.5 15.5 26.55 13.1 24.15C10.7 21.75 8.75 19.0437 7.25 16.0312C5.75 13.0187 5 9.9875 5 6.9375C5 6.4625 5.1625 6.0625 5.4875 5.7375C5.8125 5.4125 6.2125 5.25 6.6875 5.25H11.9375C12.2875 5.25 12.5938 5.36875 12.8563 5.60625C13.1188 5.84375 13.2875 6.1625 13.3625 6.5625L14.375 11.2875C14.425 11.6375 14.4188 11.9562 14.3563 12.2437C14.2937 12.5312 14.1625 12.775 13.9625 12.975L10.2125 16.7625C11.6125 19.0875 13.1813 21.1125 14.9188 22.8375C16.6562 24.5625 18.625 26.025 20.825 27.225L24.3875 23.55C24.6375 23.275 24.925 23.0812 25.25 22.9688C25.575 22.8563 25.9 22.8375 26.225 22.9125L30.6875 23.8875C31.0625 23.9625 31.375 24.15 31.625 24.45C31.875 24.75 32 25.1 32 25.5V30.5625C32 31.0375 31.8375 31.4375 31.5125 31.7625C31.1875 32.0875 30.7875 32.25 30.3125 32.25Z" fill="#25474F"/>
</svg>
