<svg width="19" height="19" viewBox="0 0 19 19" fill="none" xmlns="http://www.w3.org/2000/svg">
<g clip-path="url(#clip0_1_5410)">
<path d="M4.625 16.25C4.31563 16.25 4.05078 16.1398 3.83047 15.9195C3.61016 15.6992 3.5 15.4344 3.5 15.125V6.9875C3.5 6.67813 3.61016 6.41328 3.83047 6.19297C4.05078 5.97266 4.31563 5.8625 4.625 5.8625H5.9375V4.0625C5.9375 3.07688 6.28504 2.23672 6.98011 1.54203C7.67519 0.847344 8.51581 0.5 9.50199 0.5C10.4882 0.5 11.3281 0.847344 12.0219 1.54203C12.7156 2.23672 13.0625 3.07688 13.0625 4.0625V5.8625H14.375C14.6844 5.8625 14.9492 5.97266 15.1695 6.19297C15.3898 6.41328 15.5 6.67813 15.5 6.9875V15.125C15.5 15.4344 15.3898 15.6992 15.1695 15.9195C14.9492 16.1398 14.6844 16.25 14.375 16.25H4.625ZM4.625 15.125H14.375V6.9875H4.625V15.125ZM9.50315 12.5C9.90105 12.5 10.2406 12.3623 10.5219 12.0869C10.8031 11.8115 10.9438 11.4805 10.9438 11.0938C10.9438 10.7188 10.8021 10.3781 10.5187 10.0719C10.2354 9.76562 9.89475 9.6125 9.49685 9.6125C9.09895 9.6125 8.75938 9.76562 8.47813 10.0719C8.19688 10.3781 8.05625 10.7219 8.05625 11.1031C8.05625 11.4844 8.19793 11.8125 8.48128 12.0875C8.76463 12.3625 9.10525 12.5 9.50315 12.5ZM7.0625 5.8625H11.9375V4.0625C11.9375 3.38541 11.7007 2.80989 11.2272 2.33594C10.7537 1.86198 10.1787 1.625 9.50221 1.625C8.82574 1.625 8.25 1.86198 7.775 2.33594C7.3 2.80989 7.0625 3.38541 7.0625 4.0625V5.8625Z" fill="#25474F"/>
</g>
<defs>
<clipPath id="clip0_1_5410">
<rect width="18" height="18" fill="white" transform="translate(0.5 0.5)"/>
</clipPath>
</defs>
</svg>
