<svg width="37" height="37" viewBox="0 0 37 37" fill="none" xmlns="http://www.w3.org/2000/svg">
<path d="M19.7 27.375C20.95 26.75 22.175 26.2812 23.375 25.9688C24.575 25.6562 25.85 25.5 27.2 25.5C28.15 25.5 29.1313 25.575 30.1438 25.725C31.1563 25.875 32.025 26.075 32.75 26.325V10.2375C31.9 9.8125 31 9.5 30.05 9.3C29.1 9.1 28.15 9 27.2 9C25.85 9 24.5438 9.20625 23.2812 9.61875C22.0187 10.0312 20.825 10.6125 19.7 11.3625V27.375ZM18.575 30.75C17.3 29.8 15.9125 29.0688 14.4125 28.5563C12.9125 28.0438 11.375 27.7875 9.8 27.7875C8.875 27.7875 7.975 27.9 7.1 28.125C6.225 28.35 5.35 28.625 4.475 28.95C3.9 29.225 3.34375 29.1875 2.80625 28.8375C2.26875 28.4875 2 27.9875 2 27.3375V9.975C2 9.6 2.0875 9.25625 2.2625 8.94375C2.4375 8.63125 2.7 8.3875 3.05 8.2125C4.1 7.7125 5.19375 7.34375 6.33125 7.10625C7.46875 6.86875 8.625 6.75 9.8 6.75C11.375 6.75 12.9062 6.9625 14.3937 7.3875C15.8812 7.8125 17.275 8.4625 18.575 9.3375C19.85 8.4625 21.2188 7.8125 22.6813 7.3875C24.1438 6.9625 25.65 6.75 27.2 6.75C28.375 6.75 29.525 6.86875 30.65 7.10625C31.775 7.34375 32.8625 7.7125 33.9125 8.2125C34.2625 8.3875 34.5312 8.63125 34.7188 8.94375C34.9062 9.25625 35 9.6 35 9.975V27.3375C35 28.0375 34.7188 28.5688 34.1562 28.9313C33.5938 29.2938 33.0375 29.3 32.4875 28.95C31.6375 28.6 30.775 28.3187 29.9 28.1062C29.025 27.8937 28.125 27.7875 27.2 27.7875C25.625 27.7875 24.1125 28.05 22.6625 28.575C21.2125 29.1 19.85 29.825 18.575 30.75Z" fill="#25474F"/>
</svg>
