<svg width="12" height="13" viewBox="0 0 12 13" fill="none" xmlns="http://www.w3.org/2000/svg">
<g clip-path="url(#clip0_34_2261)">
<path d="M6 8.62488C6.11667 8.62488 6.21458 8.5853 6.29375 8.50613C6.37292 8.42696 6.4125 8.32904 6.4125 8.21238C6.4125 8.09571 6.37292 7.99779 6.29375 7.91863C6.21458 7.83946 6.11667 7.79988 6 7.79988C5.88333 7.79988 5.78542 7.83946 5.70625 7.91863C5.62708 7.99779 5.5875 8.09571 5.5875 8.21238C5.5875 8.32904 5.62708 8.42696 5.70625 8.50613C5.78542 8.5853 5.88333 8.62488 6 8.62488ZM5.6625 6.71238H6.4125V3.54988H5.6625V6.71238ZM6 11.1249C5.31667 11.1249 4.67083 10.9936 4.0625 10.7311C3.45417 10.4686 2.92292 10.1103 2.46875 9.65613C2.01458 9.20196 1.65625 8.67071 1.39375 8.06238C1.13125 7.45404 1 6.80404 1 6.11238C1 5.42904 1.13125 4.78321 1.39375 4.17488C1.65625 3.56654 2.01458 3.03738 2.46875 2.58738C2.92292 2.13738 3.45417 1.78113 4.0625 1.51863C4.67083 1.25613 5.32083 1.12488 6.0125 1.12488C6.69583 1.12488 7.34167 1.25613 7.95 1.51863C8.55833 1.78113 9.0875 2.13738 9.5375 2.58738C9.9875 3.03738 10.3438 3.56654 10.6062 4.17488C10.8687 4.78321 11 5.43321 11 6.12488C11 6.80821 10.8687 7.45404 10.6062 8.06238C10.3438 8.67071 9.9875 9.20196 9.5375 9.65613C9.0875 10.1103 8.55833 10.4686 7.95 10.7311C7.34167 10.9936 6.69167 11.1249 6 11.1249ZM6.0125 10.3749C7.1875 10.3749 8.1875 9.96029 9.0125 9.13113C9.8375 8.30196 10.25 7.29571 10.25 6.11238C10.25 4.93738 9.8375 3.93738 9.0125 3.11238C8.1875 2.28738 7.18333 1.87488 6 1.87488C4.825 1.87488 3.82292 2.28738 2.99375 3.11238C2.16458 3.93738 1.75 4.94154 1.75 6.12488C1.75 7.29988 2.16458 8.30196 2.99375 9.13113C3.82292 9.96029 4.82917 10.3749 6.0125 10.3749Z" fill="#B60B0B"/>
</g>
<defs>
<clipPath id="clip0_34_2261">
<rect width="12" height="12" fill="white" transform="translate(0 0.625)"/>
</clipPath>
</defs>
</svg>
