<svg width="19" height="19" viewBox="0 0 19 19" fill="none" xmlns="http://www.w3.org/2000/svg">
<path d="M9.5 9.4812C8.675 9.4812 8 9.2187 7.475 8.6937C6.95 8.1687 6.6875 7.4937 6.6875 6.6687C6.6875 5.8437 6.95 5.1687 7.475 4.6437C8 4.1187 8.675 3.8562 9.5 3.8562C10.325 3.8562 11 4.1187 11.525 4.6437C12.05 5.1687 12.3125 5.8437 12.3125 6.6687C12.3125 7.4937 12.05 8.1687 11.525 8.6937C11 9.2187 10.325 9.4812 9.5 9.4812ZM3.5 15.5V13.7374C3.5 13.2625 3.61875 12.8562 3.85625 12.5187C4.09375 12.1812 4.4 11.925 4.775 11.75C5.6125 11.375 6.41563 11.0937 7.18438 10.9062C7.95313 10.7187 8.725 10.625 9.5 10.625C10.275 10.625 11.0437 10.7218 11.8062 10.9156C12.5687 11.1093 13.3687 11.3875 14.2062 11.75C14.5938 11.925 14.9062 12.1812 15.1437 12.5187C15.3812 12.8562 15.5 13.2625 15.5 13.7374V15.5H3.5Z" fill="white"/>
</svg>
