<svg width="12" height="13" viewBox="0 0 12 13" fill="none" xmlns="http://www.w3.org/2000/svg">
<path d="M9 4.125H3V2.125H9V4.125ZM9 6.875C9.14167 6.875 9.26033 6.827 9.356 6.731C9.452 6.63533 9.5 6.51667 9.5 6.375C9.5 6.23333 9.452 6.1145 9.356 6.0185C9.26033 5.92283 9.14167 5.875 9 5.875C8.85833 5.875 8.73967 5.92283 8.644 6.0185C8.548 6.1145 8.5 6.23333 8.5 6.375C8.5 6.51667 8.548 6.63533 8.644 6.731C8.73967 6.827 8.85833 6.875 9 6.875ZM8 10.125V8.125H4V10.125H8ZM9 11.125H3V9.125H1V6.125C1 5.7 1.14583 5.34383 1.4375 5.0565C1.72917 4.76883 2.08333 4.625 2.5 4.625H9.5C9.925 4.625 10.2813 4.76883 10.569 5.0565C10.8563 5.34383 11 5.7 11 6.125V9.125H9V11.125Z" fill="#25474F"/>
</svg>
