<svg width="13" height="13" viewBox="0 0 13 13" fill="none" xmlns="http://www.w3.org/2000/svg">
<g clip-path="url(#clip0_1_2517)">
<path d="M12.25 6.75002L11.03 5.36002L11.2 3.52002L9.395 3.11002L8.45 1.52002L6.75 2.25002L5.05 1.52002L4.105 3.11002L2.3 3.51502L2.47 5.35502L1.25 6.75002L2.47 8.14002L2.3 9.98502L4.105 10.395L5.05 11.985L6.75 11.25L8.45 11.98L9.395 10.39L11.2 9.98002L11.03 8.14002L12.25 6.75002ZM5.75 9.25002L3.75 7.25002L4.455 6.54502L5.75 7.83502L9.045 4.54002L9.75 5.25002L5.75 9.25002Z" fill="#25474F"/>
</g>
<defs>
<clipPath id="clip0_1_2517">
<rect width="12" height="12" fill="white" transform="translate(0.75 0.75)"/>
</clipPath>
</defs>
</svg>
