<svg width="19" height="19" viewBox="0 0 19 19" fill="none" xmlns="http://www.w3.org/2000/svg">
<path d="M9.12161 15.1669H10.1512V14.1935C10.9126 14.1061 11.5054 13.8721 11.9297 13.4914C12.3541 13.1108 12.5662 12.6022 12.5662 11.9657C12.5662 11.3292 12.3853 10.8112 12.0233 10.4119C11.6614 10.0125 11.0498 9.63184 10.1887 9.26991C9.46482 8.97037 8.94064 8.70204 8.61615 8.46491C8.29165 8.22778 8.12941 7.90953 8.12941 7.51015C8.12941 7.12326 8.26981 6.81749 8.55062 6.59284C8.83143 6.36819 9.21521 6.25586 9.70195 6.25586C10.0764 6.25586 10.4009 6.34323 10.6754 6.51795C10.95 6.69268 11.1809 6.95477 11.3681 7.30423L12.2667 6.87365C12.0545 6.43683 11.7737 6.09362 11.4243 5.84401C11.0748 5.5944 10.6629 5.44463 10.1887 5.39471V4.43995H9.15905V5.39471C8.52254 5.48207 8.0202 5.71608 7.65203 6.09674C7.28385 6.47739 7.09977 6.94853 7.09977 7.51015C7.09977 8.1217 7.28697 8.60844 7.66139 8.97037C8.0358 9.33231 8.59743 9.66928 9.34626 9.98129C10.1824 10.3307 10.7566 10.6459 11.0686 10.9267C11.3806 11.2075 11.5366 11.5538 11.5366 11.9657C11.5366 12.3651 11.3712 12.6864 11.0405 12.9298C10.7097 13.1732 10.2948 13.2949 9.79555 13.2949C9.30881 13.2949 8.87512 13.1576 8.49446 12.883C8.11381 12.6084 7.8486 12.234 7.69883 11.7598L6.74407 12.078C7.00616 12.6521 7.32753 13.1045 7.70819 13.4353C8.08884 13.766 8.55998 14.0063 9.12161 14.156V15.1669ZM9.66451 17.2824C8.64111 17.2824 7.67387 17.0858 6.76279 16.6927C5.85172 16.2995 5.05608 15.7629 4.3759 15.0827C3.69571 14.4025 3.15905 13.6069 2.76591 12.6958C2.37278 11.7847 2.17621 10.8175 2.17621 9.79409C2.17621 8.7582 2.37278 7.78473 2.76591 6.87365C3.15905 5.96257 3.69571 5.17006 4.3759 4.49611C5.05608 3.82217 5.85172 3.28863 6.76279 2.89549C7.67387 2.50235 8.64111 2.30579 9.66451 2.30579C10.7004 2.30579 11.6739 2.50235 12.5849 2.89549C13.496 3.28863 14.2885 3.82217 14.9625 4.49611C15.6364 5.17006 16.17 5.96257 16.5631 6.87365C16.9562 7.78473 17.1528 8.7582 17.1528 9.79409C17.1528 10.8175 16.9562 11.7847 16.5631 12.6958C16.17 13.6069 15.6364 14.4025 14.9625 15.0827C14.2885 15.7629 13.496 16.2995 12.5849 16.6927C11.6739 17.0858 10.7004 17.2824 9.66451 17.2824ZM9.66451 16.1591C11.4367 16.1591 12.9406 15.5382 14.1762 14.2964C15.4118 13.0546 16.0296 11.5538 16.0296 9.79409C16.0296 8.02185 15.4118 6.51795 14.1762 5.28239C12.9406 4.04682 11.4367 3.42903 9.66451 3.42903C7.90476 3.42903 6.40398 4.04682 5.16217 5.28239C3.92036 6.51795 3.29945 8.02185 3.29945 9.79409C3.29945 11.5538 3.92036 13.0546 5.16217 14.2964C6.40398 15.5382 7.90476 16.1591 9.66451 16.1591Z" fill="white"/>
</svg>
