<svg width="19" height="19" viewBox="0 0 19 19" fill="none" xmlns="http://www.w3.org/2000/svg">
<path d="M8.95625 14.8812H9.9875V13.9062C10.75 13.8188 11.3438 13.5844 11.7687 13.2031C12.1937 12.8219 12.4062 12.3125 12.4062 11.675C12.4062 11.0375 12.225 10.5188 11.8625 10.1187C11.5 9.71875 10.8875 9.3375 10.025 8.975C9.3 8.675 8.775 8.40625 8.45 8.16875C8.125 7.93125 7.9625 7.6125 7.9625 7.2125C7.9625 6.825 8.10312 6.51875 8.38437 6.29375C8.66562 6.06875 9.05 5.95625 9.5375 5.95625C9.9125 5.95625 10.2375 6.04375 10.5125 6.21875C10.7875 6.39375 11.0187 6.65625 11.2062 7.00625L12.1063 6.575C11.8938 6.1375 11.6125 5.79375 11.2625 5.54375C10.9125 5.29375 10.5 5.14375 10.025 5.09375V4.1375H8.99375V5.09375C8.35625 5.18125 7.85313 5.41563 7.48438 5.79688C7.11562 6.17812 6.93125 6.65 6.93125 7.2125C6.93125 7.825 7.11875 8.3125 7.49375 8.675C7.86875 9.0375 8.43125 9.375 9.18125 9.6875C10.0188 10.0375 10.5938 10.3531 10.9062 10.6344C11.2188 10.9156 11.375 11.2625 11.375 11.675C11.375 12.075 11.2094 12.3969 10.8781 12.6406C10.5469 12.8844 10.1313 13.0062 9.63125 13.0062C9.14375 13.0062 8.70937 12.8687 8.32812 12.5938C7.94688 12.3188 7.68125 11.9438 7.53125 11.4688L6.575 11.7875C6.8375 12.3625 7.15937 12.8156 7.54062 13.1469C7.92188 13.4781 8.39375 13.7188 8.95625 13.8688V14.8812ZM9.5 17C8.475 17 7.50625 16.8031 6.59375 16.4094C5.68125 16.0156 4.88438 15.4781 4.20312 14.7969C3.52188 14.1156 2.98437 13.3188 2.59062 12.4062C2.19687 11.4937 2 10.525 2 9.5C2 8.4625 2.19687 7.4875 2.59062 6.575C2.98437 5.6625 3.52188 4.86875 4.20312 4.19375C4.88438 3.51875 5.68125 2.98437 6.59375 2.59062C7.50625 2.19687 8.475 2 9.5 2C10.5375 2 11.5125 2.19687 12.425 2.59062C13.3375 2.98437 14.1313 3.51875 14.8063 4.19375C15.4813 4.86875 16.0156 5.6625 16.4094 6.575C16.8031 7.4875 17 8.4625 17 9.5C17 10.525 16.8031 11.4937 16.4094 12.4062C16.0156 13.3188 15.4813 14.1156 14.8063 14.7969C14.1313 15.4781 13.3375 16.0156 12.425 16.4094C11.5125 16.8031 10.5375 17 9.5 17ZM9.5 15.875C11.275 15.875 12.7812 15.2531 14.0187 14.0094C15.2562 12.7656 15.875 11.2625 15.875 9.5C15.875 7.725 15.2562 6.21875 14.0187 4.98125C12.7812 3.74375 11.275 3.125 9.5 3.125C7.7375 3.125 6.23438 3.74375 4.99063 4.98125C3.74688 6.21875 3.125 7.725 3.125 9.5C3.125 11.2625 3.74688 12.7656 4.99063 14.0094C6.23438 15.2531 7.7375 15.875 9.5 15.875Z" fill="white"/>
</svg>
