<svg width="19" height="19" viewBox="0 0 19 19" fill="none" xmlns="http://www.w3.org/2000/svg">
<path d="M8.95625 14.6312H9.9875V13.6562C10.75 13.5688 11.3438 13.3344 11.7687 12.9531C12.1937 12.5719 12.4062 12.0625 12.4062 11.425C12.4062 10.7875 12.225 10.2688 11.8625 9.86875C11.5 9.46875 10.8875 9.0875 10.025 8.725C9.3 8.425 8.775 8.15625 8.45 7.91875C8.125 7.68125 7.9625 7.3625 7.9625 6.9625C7.9625 6.575 8.10312 6.26875 8.38437 6.04375C8.66562 5.81875 9.05 5.70625 9.5375 5.70625C9.9125 5.70625 10.2375 5.79375 10.5125 5.96875C10.7875 6.14375 11.0187 6.40625 11.2062 6.75625L12.1063 6.325C11.8938 5.8875 11.6125 5.54375 11.2625 5.29375C10.9125 5.04375 10.5 4.89375 10.025 4.84375V3.8875H8.99375V4.84375C8.35625 4.93125 7.85313 5.16563 7.48438 5.54688C7.11562 5.92812 6.93125 6.4 6.93125 6.9625C6.93125 7.575 7.11875 8.0625 7.49375 8.425C7.86875 8.7875 8.43125 9.125 9.18125 9.4375C10.0188 9.7875 10.5938 10.1031 10.9062 10.3844C11.2188 10.6656 11.375 11.0125 11.375 11.425C11.375 11.825 11.2094 12.1469 10.8781 12.3906C10.5469 12.6344 10.1313 12.7562 9.63125 12.7562C9.14375 12.7562 8.70937 12.6187 8.32812 12.3438C7.94688 12.0688 7.68125 11.6938 7.53125 11.2188L6.575 11.5375C6.8375 12.1125 7.15937 12.5656 7.54062 12.8969C7.92188 13.2281 8.39375 13.4688 8.95625 13.6188V14.6312ZM9.5 16.75C8.475 16.75 7.50625 16.5531 6.59375 16.1594C5.68125 15.7656 4.88438 15.2281 4.20312 14.5469C3.52188 13.8656 2.98437 13.0688 2.59062 12.1562C2.19687 11.2437 2 10.275 2 9.25C2 8.2125 2.19687 7.2375 2.59062 6.325C2.98437 5.4125 3.52188 4.61875 4.20312 3.94375C4.88438 3.26875 5.68125 2.73437 6.59375 2.34062C7.50625 1.94687 8.475 1.75 9.5 1.75C10.5375 1.75 11.5125 1.94687 12.425 2.34062C13.3375 2.73437 14.1313 3.26875 14.8063 3.94375C15.4813 4.61875 16.0156 5.4125 16.4094 6.325C16.8031 7.2375 17 8.2125 17 9.25C17 10.275 16.8031 11.2437 16.4094 12.1562C16.0156 13.0688 15.4813 13.8656 14.8063 14.5469C14.1313 15.2281 13.3375 15.7656 12.425 16.1594C11.5125 16.5531 10.5375 16.75 9.5 16.75ZM9.5 15.625C11.275 15.625 12.7812 15.0031 14.0187 13.7594C15.2562 12.5156 15.875 11.0125 15.875 9.25C15.875 7.475 15.2562 5.96875 14.0187 4.73125C12.7812 3.49375 11.275 2.875 9.5 2.875C7.7375 2.875 6.23438 3.49375 4.99063 4.73125C3.74688 5.96875 3.125 7.475 3.125 9.25C3.125 11.0125 3.74688 12.5156 4.99063 13.7594C6.23438 15.0031 7.7375 15.625 9.5 15.625Z" fill="white"/>
</svg>
