<svg width="19" height="19" viewBox="0 0 19 19" fill="none" xmlns="http://www.w3.org/2000/svg">
<path d="M9.12161 14.5756H10.1512V13.6022C10.9126 13.5148 11.5054 13.2808 11.9297 12.9001C12.3541 12.5195 12.5662 12.0109 12.5662 11.3744C12.5662 10.7379 12.3853 10.2199 12.0233 9.82056C11.6614 9.42119 11.0498 9.04053 10.1887 8.6786C9.46482 8.37906 8.94064 8.11073 8.61615 7.8736C8.29165 7.63647 8.12941 7.31822 8.12941 6.91885C8.12941 6.53195 8.26981 6.22618 8.55062 6.00153C8.83143 5.77688 9.21521 5.66456 9.70195 5.66456C10.0764 5.66456 10.4009 5.75192 10.6754 5.92665C10.95 6.10137 11.1809 6.36346 11.3681 6.71292L12.2667 6.28234C12.0545 5.84552 11.7737 5.50231 11.4243 5.2527C11.0748 5.00309 10.6629 4.85332 10.1887 4.8034V3.84864H9.15905V4.8034C8.52254 4.89076 8.0202 5.12477 7.65203 5.50543C7.28385 5.88608 7.09977 6.35722 7.09977 6.91885C7.09977 7.53039 7.28697 8.01713 7.66139 8.37906C8.0358 8.741 8.59743 9.07797 9.34626 9.38998C10.1824 9.73944 10.7566 10.0546 11.0686 10.3354C11.3806 10.6162 11.5366 10.9625 11.5366 11.3744C11.5366 11.7738 11.3712 12.0951 11.0405 12.3385C10.7097 12.5819 10.2948 12.7036 9.79555 12.7036C9.30881 12.7036 8.87512 12.5663 8.49446 12.2917C8.11381 12.0171 7.8486 11.6427 7.69883 11.1685L6.74407 11.4867C7.00616 12.0608 7.32753 12.5132 7.70819 12.844C8.08884 13.1747 8.55998 13.4149 9.12161 13.5647V14.5756ZM9.66451 16.6911C8.64111 16.6911 7.67387 16.4945 6.76279 16.1014C5.85172 15.7082 5.05608 15.1716 4.3759 14.4914C3.69571 13.8112 3.15905 13.0156 2.76591 12.1045C2.37278 11.1934 2.17621 10.2262 2.17621 9.20278C2.17621 8.1669 2.37278 7.19342 2.76591 6.28234C3.15905 5.37126 3.69571 4.57875 4.3759 3.90481C5.05608 3.23086 5.85172 2.69732 6.76279 2.30418C7.67387 1.91105 8.64111 1.71448 9.66451 1.71448C10.7004 1.71448 11.6739 1.91105 12.5849 2.30418C13.496 2.69732 14.2885 3.23086 14.9625 3.90481C15.6364 4.57875 16.17 5.37126 16.5631 6.28234C16.9562 7.19342 17.1528 8.1669 17.1528 9.20278C17.1528 10.2262 16.9562 11.1934 16.5631 12.1045C16.17 13.0156 15.6364 13.8112 14.9625 14.4914C14.2885 15.1716 13.496 15.7082 12.5849 16.1014C11.6739 16.4945 10.7004 16.6911 9.66451 16.6911ZM9.66451 15.5678C11.4367 15.5678 12.9406 14.9469 14.1762 13.7051C15.4118 12.4633 16.0296 10.9625 16.0296 9.20278C16.0296 7.43055 15.4118 5.92665 14.1762 4.69108C12.9406 3.45551 11.4367 2.83772 9.66451 2.83772C7.90476 2.83772 6.40398 3.45551 5.16217 4.69108C3.92036 5.92665 3.29945 7.43055 3.29945 9.20278C3.29945 10.9625 3.92036 12.4633 5.16217 13.7051C6.40398 14.9469 7.90476 15.5678 9.66451 15.5678Z" fill="white"/>
</svg>
