<svg width="19" height="19" viewBox="0 0 19 19" fill="none" xmlns="http://www.w3.org/2000/svg">
<path d="M8.87515 15.0123H9.90479V14.0388C10.6661 13.9514 11.2589 13.7174 11.6833 13.3368C12.1076 12.9561 12.3198 12.4475 12.3198 11.811C12.3198 11.1745 12.1388 10.6566 11.7769 10.2572C11.4149 9.85783 10.8034 9.47718 9.94223 9.11524C9.21836 8.81571 8.69418 8.54738 8.36969 8.31025C8.04519 8.07312 7.88295 7.75487 7.88295 7.35549C7.88295 6.9686 8.02335 6.66282 8.30416 6.43817C8.58497 6.21353 8.96875 6.1012 9.45549 6.1012C9.8299 6.1012 10.1544 6.18856 10.429 6.36329C10.7035 6.53802 10.9344 6.80011 11.1216 7.14956L12.0202 6.71899C11.8081 6.28217 11.5273 5.93895 11.1778 5.68934C10.8283 5.43973 10.4165 5.28997 9.94223 5.24005V4.28529H8.91259V5.24005C8.27608 5.32741 7.77374 5.56142 7.40557 5.94207C7.03739 6.32273 6.85331 6.79387 6.85331 7.35549C6.85331 7.96704 7.04051 8.45377 7.41493 8.81571C7.78934 9.17764 8.35097 9.51462 9.0998 9.82663C9.93599 10.1761 10.5101 10.4912 10.8221 10.772C11.1341 11.0528 11.2901 11.3992 11.2901 11.811C11.2901 12.2104 11.1248 12.5318 10.794 12.7751C10.4633 13.0185 10.0483 13.1402 9.54909 13.1402C9.06235 13.1402 8.62866 13.0029 8.248 12.7283C7.86735 12.4538 7.60214 12.0794 7.45237 11.6051L6.49761 11.9234C6.7597 12.4975 7.08107 12.9499 7.46173 13.2806C7.84238 13.6113 8.31352 13.8516 8.87515 14.0014V15.0123ZM9.41805 17.1277C8.39465 17.1277 7.42741 16.9312 6.51633 16.538C5.60526 16.1449 4.80962 15.6082 4.12944 14.928C3.44925 14.2478 2.91259 13.4522 2.51945 12.5411C2.12632 11.6301 1.92975 10.6628 1.92975 9.63942C1.92975 8.60354 2.12632 7.63006 2.51945 6.71899C2.91259 5.80791 3.44925 5.0154 4.12944 4.34145C4.80962 3.6675 5.60526 3.13396 6.51633 2.74083C7.42741 2.34769 8.39465 2.15112 9.41805 2.15112C10.4539 2.15112 11.4274 2.34769 12.3385 2.74083C13.2496 3.13396 14.0421 3.6675 14.716 4.34145C15.39 5.0154 15.9235 5.80791 16.3166 6.71899C16.7098 7.63006 16.9063 8.60354 16.9063 9.63942C16.9063 10.6628 16.7098 11.6301 16.3166 12.5411C15.9235 13.4522 15.39 14.2478 14.716 14.928C14.0421 15.6082 13.2496 16.1449 12.3385 16.538C11.4274 16.9312 10.4539 17.1277 9.41805 17.1277ZM9.41805 16.0045C11.1903 16.0045 12.6942 15.3836 13.9297 14.1418C15.1653 12.9 15.7831 11.3992 15.7831 9.63942C15.7831 7.86719 15.1653 6.36329 13.9297 5.12772C12.6942 3.89215 11.1903 3.27437 9.41805 3.27437C7.6583 3.27437 6.15752 3.89215 4.91571 5.12772C3.6739 6.36329 3.05299 7.86719 3.05299 9.63942C3.05299 11.3992 3.6739 12.9 4.91571 14.1418C6.15752 15.3836 7.6583 16.0045 9.41805 16.0045Z" fill="white"/>
</svg>
