<svg width="19" height="18" viewBox="0 0 19 18" fill="none" xmlns="http://www.w3.org/2000/svg">
<path d="M9.5 8.9812C8.675 8.9812 8 8.7187 7.475 8.1937C6.95 7.6687 6.6875 6.9937 6.6875 6.1687C6.6875 5.3437 6.95 4.6687 7.475 4.1437C8 3.6187 8.675 3.3562 9.5 3.3562C10.325 3.3562 11 3.6187 11.525 4.1437C12.05 4.6687 12.3125 5.3437 12.3125 6.1687C12.3125 6.9937 12.05 7.6687 11.525 8.1937C11 8.7187 10.325 8.9812 9.5 8.9812ZM3.5 15V13.2374C3.5 12.7625 3.61875 12.3562 3.85625 12.0187C4.09375 11.6812 4.4 11.425 4.775 11.25C5.6125 10.875 6.41563 10.5937 7.18438 10.4062C7.95313 10.2187 8.725 10.125 9.5 10.125C10.275 10.125 11.0437 10.2218 11.8062 10.4156C12.5687 10.6093 13.3687 10.8875 14.2062 11.25C14.5938 11.425 14.9062 11.6812 15.1437 12.0187C15.3812 12.3562 15.5 12.7625 15.5 13.2374V15H3.5Z" fill="white"/>
</svg>
