<svg width="19" height="19" viewBox="0 0 19 19" fill="none" xmlns="http://www.w3.org/2000/svg">
<path d="M9.5 9.2312C8.675 9.2312 8 8.9687 7.475 8.4437C6.95 7.9187 6.6875 7.2437 6.6875 6.4187C6.6875 5.5937 6.95 4.9187 7.475 4.3937C8 3.8687 8.675 3.6062 9.5 3.6062C10.325 3.6062 11 3.8687 11.525 4.3937C12.05 4.9187 12.3125 5.5937 12.3125 6.4187C12.3125 7.2437 12.05 7.9187 11.525 8.4437C11 8.9687 10.325 9.2312 9.5 9.2312ZM3.5 15.25V13.4874C3.5 13.0125 3.61875 12.6062 3.85625 12.2687C4.09375 11.9312 4.4 11.675 4.775 11.5C5.6125 11.125 6.41563 10.8437 7.18438 10.6562C7.95313 10.4687 8.725 10.375 9.5 10.375C10.275 10.375 11.0437 10.4718 11.8062 10.6656C12.5687 10.8593 13.3687 11.1375 14.2062 11.5C14.5938 11.675 14.9062 11.9312 15.1437 12.2687C15.3812 12.6062 15.5 13.0125 15.5 13.4874V15.25H3.5Z" fill="white"/>
</svg>
