<svg width="19" height="19" viewBox="0 0 19 19" fill="none" xmlns="http://www.w3.org/2000/svg">
<path d="M9.5 9.48126C8.675 9.48126 8 9.21876 7.475 8.69376C6.95 8.16876 6.6875 7.49376 6.6875 6.66876C6.6875 5.84376 6.95 5.16876 7.475 4.64376C8 4.11876 8.675 3.85626 9.5 3.85626C10.325 3.85626 11 4.11876 11.525 4.64376C12.05 5.16876 12.3125 5.84376 12.3125 6.66876C12.3125 7.49376 12.05 8.16876 11.525 8.69376C11 9.21876 10.325 9.48126 9.5 9.48126ZM3.5 15.5V13.7375C3.5 13.2625 3.61875 12.8563 3.85625 12.5188C4.09375 12.1813 4.4 11.925 4.775 11.75C5.6125 11.375 6.41563 11.0938 7.18438 10.9063C7.95313 10.7188 8.725 10.625 9.5 10.625C10.275 10.625 11.0437 10.7219 11.8062 10.9156C12.5687 11.1094 13.3687 11.3875 14.2062 11.75C14.5938 11.925 14.9062 12.1813 15.1437 12.5188C15.3812 12.8563 15.5 13.2625 15.5 13.7375V15.5H3.5Z" fill="white"/>
</svg>
