<svg width="43" height="43" viewBox="0 0 43 43" fill="none" xmlns="http://www.w3.org/2000/svg">
<path d="M21.1062 35.3124H14.325C14.0333 36.4499 13.4208 37.3905 12.4875 38.1343C11.5542 38.878 10.475 39.2499 9.25 39.2499C7.79167 39.2499 6.55208 38.7395 5.53125 37.7187C4.51042 36.6978 4 35.4582 4 33.9999C4 32.7749 4.37188 31.6957 5.11563 30.7624C5.85938 29.8291 6.8 29.2166 7.9375 28.9249V14.5749C6.8 14.2832 5.85938 13.6707 5.11563 12.7374C4.37188 11.8041 4 10.7249 4 9.4999C4 8.04157 4.51042 6.80199 5.53125 5.78115C6.55208 4.76032 7.79167 4.2499 9.25 4.2499C10.475 4.2499 11.5542 4.62178 12.4875 5.36553C13.4208 6.10928 14.0333 7.0499 14.325 8.1874H21.1062L18.3938 5.4749C18.1313 5.2124 18 4.90615 18 4.55615C18 4.20615 18.1313 3.8999 18.3938 3.6374C18.6563 3.3749 18.9625 3.24365 19.3125 3.24365C19.6625 3.24365 19.9687 3.3749 20.2312 3.6374L25.2188 8.58115C25.4813 8.84365 25.6125 9.1499 25.6125 9.4999C25.6125 9.8499 25.4813 10.1562 25.2188 10.4187L20.2312 15.3624C20.1146 15.4791 19.976 15.5739 19.8156 15.6468C19.6552 15.7197 19.4875 15.7562 19.3125 15.7562C19.1375 15.7562 18.9771 15.7197 18.8313 15.6468C18.6854 15.5739 18.5396 15.4791 18.3938 15.3624C18.1313 15.0999 18 14.7937 18 14.4437C18 14.0937 18.1313 13.7874 18.3938 13.5249L21.1062 10.8124H14.325C14.0917 11.7457 13.6396 12.5478 12.9688 13.2187C12.2979 13.8895 11.4958 14.3416 10.5625 14.5749V28.9249C11.4958 29.1582 12.2979 29.6103 12.9688 30.2812C13.6396 30.952 14.0917 31.7541 14.325 32.6874H21.1062L18.3938 29.9749C18.1313 29.7124 18 29.4061 18 29.0561C18 28.7061 18.1313 28.3999 18.3938 28.1374C18.6563 27.8749 18.9625 27.7437 19.3125 27.7437C19.6625 27.7437 19.9687 27.8749 20.2312 28.1374L25.2188 33.0812C25.4813 33.3437 25.6125 33.6499 25.6125 33.9999C25.6125 34.3499 25.4813 34.6562 25.2188 34.9187L20.2312 39.8624C20.1146 39.9791 19.976 40.0739 19.8156 40.1468C19.6552 40.2197 19.4875 40.2562 19.3125 40.2562C19.1375 40.2562 18.9771 40.2197 18.8313 40.1468C18.6854 40.0739 18.5396 39.9791 18.3938 39.8624C18.1313 39.5999 18 39.2937 18 38.9437C18 38.5937 18.1313 38.2874 18.3938 38.0249L21.1062 35.3124ZM33.75 39.2499C32.2917 39.2499 31.0521 38.7395 30.0312 37.7187C29.0104 36.6978 28.5 35.4582 28.5 33.9999C28.5 32.7749 28.8719 31.6957 29.6156 30.7624C30.3594 29.8291 31.3 29.2166 32.4375 28.9249V14.5749C31.3 14.2832 30.3594 13.6707 29.6156 12.7374C28.8719 11.8041 28.5 10.7249 28.5 9.4999C28.5 8.04157 29.0104 6.80199 30.0312 5.78115C31.0521 4.76032 32.2917 4.2499 33.75 4.2499C35.2083 4.2499 36.4479 4.76032 37.4688 5.78115C38.4896 6.80199 39 8.04157 39 9.4999C39 10.7249 38.6281 11.8041 37.8844 12.7374C37.1406 13.6707 36.2 14.2832 35.0625 14.5749V28.9249C36.2 29.2166 37.1406 29.8291 37.8844 30.7624C38.6281 31.6957 39 32.7749 39 33.9999C39 35.4582 38.4896 36.6978 37.4688 37.7187C36.4479 38.7395 35.2083 39.2499 33.75 39.2499ZM9.25 36.6249C10.0083 36.6249 10.6354 36.3697 11.1312 35.8593C11.6271 35.3489 11.875 34.7291 11.875 33.9999C11.875 33.2416 11.6271 32.6145 11.1312 32.1187C10.6354 31.6228 10.0083 31.3749 9.25 31.3749C8.52083 31.3749 7.90104 31.6228 7.39062 32.1187C6.88021 32.6145 6.625 33.2416 6.625 33.9999C6.625 34.7291 6.88021 35.3489 7.39062 35.8593C7.90104 36.3697 8.52083 36.6249 9.25 36.6249ZM33.75 36.6249C34.5083 36.6249 35.1354 36.3697 35.6313 35.8593C36.1271 35.3489 36.375 34.7291 36.375 33.9999C36.375 33.2416 36.1271 32.6145 35.6313 32.1187C35.1354 31.6228 34.5083 31.3749 33.75 31.3749C33.0208 31.3749 32.401 31.6228 31.8906 32.1187C31.3802 32.6145 31.125 33.2416 31.125 33.9999C31.125 34.7291 31.3802 35.3489 31.8906 35.8593C32.401 36.3697 33.0208 36.6249 33.75 36.6249ZM9.25 12.1249C10.0083 12.1249 10.6354 11.8697 11.1312 11.3593C11.6271 10.8489 11.875 10.2291 11.875 9.4999C11.875 8.74157 11.6271 8.11449 11.1312 7.61865C10.6354 7.12282 10.0083 6.8749 9.25 6.8749C8.52083 6.8749 7.90104 7.12282 7.39062 7.61865C6.88021 8.11449 6.625 8.74157 6.625 9.4999C6.625 10.2291 6.88021 10.8489 7.39062 11.3593C7.90104 11.8697 8.52083 12.1249 9.25 12.1249ZM33.75 12.1249C34.5083 12.1249 35.1354 11.8697 35.6313 11.3593C36.1271 10.8489 36.375 10.2291 36.375 9.4999C36.375 8.74157 36.1271 8.11449 35.6313 7.61865C35.1354 7.12282 34.5083 6.8749 33.75 6.8749C33.0208 6.8749 32.401 7.12282 31.8906 7.61865C31.3802 8.11449 31.125 8.74157 31.125 9.4999C31.125 10.2291 31.3802 10.8489 31.8906 11.3593C32.401 11.8697 33.0208 12.1249 33.75 12.1249Z" fill="#C0C0C0"/>
</svg>
