<svg width="19" height="19" viewBox="0 0 19 19" fill="none" xmlns="http://www.w3.org/2000/svg">
<path d="M9.13727 2.04056C12.8575 2.04056 15.8767 5.05984 15.8767 8.78003C15.8767 12.5002 12.8575 15.5195 9.13727 15.5195C5.41708 15.5195 2.3978 12.5002 2.3978 8.78003C2.3978 5.05984 5.41708 2.04056 9.13727 2.04056ZM9.13727 14.0218C12.033 14.0218 14.3791 11.6758 14.3791 8.78003C14.3791 5.88355 12.033 3.53822 9.13727 3.53822C6.24079 3.53822 3.89546 5.88355 3.89546 8.78003C3.89546 11.6758 6.24079 14.0218 9.13727 14.0218ZM15.4911 14.075L17.6095 16.1927L16.5499 17.2523L14.4322 15.1339L15.4911 14.075Z" fill="#717F8C"/>
</svg>
