<svg width="19" height="19" viewBox="0 0 19 19" fill="none" xmlns="http://www.w3.org/2000/svg">
<path d="M8.75 2.375C12.476 2.375 15.5 5.399 15.5 9.125C15.5 12.851 12.476 15.875 8.75 15.875C5.024 15.875 2 12.851 2 9.125C2 5.399 5.024 2.375 8.75 2.375ZM8.75 14.375C11.6503 14.375 14 12.0253 14 9.125C14 6.224 11.6503 3.875 8.75 3.875C5.849 3.875 3.5 6.224 3.5 9.125C3.5 12.0253 5.849 14.375 8.75 14.375ZM15.1138 14.4282L17.2355 16.5492L16.1742 17.6105L14.0532 15.4888L15.1138 14.4282Z" fill="#717F8C"/>
</svg>
