<svg width="18" height="19" viewBox="0 0 18 19" fill="none" xmlns="http://www.w3.org/2000/svg">
<path d="M8.24804 2.0686C11.9682 2.0686 14.9875 5.08789 14.9875 8.80807C14.9875 12.5283 11.9682 15.5475 8.24804 15.5475C4.52786 15.5475 1.50858 12.5283 1.50858 8.80807C1.50858 5.08789 4.52786 2.0686 8.24804 2.0686ZM8.24804 14.0499C11.1438 14.0499 13.4899 11.7038 13.4899 8.80807C13.4899 5.9116 11.1438 3.56626 8.24804 3.56626C5.35157 3.56626 3.00624 5.9116 3.00624 8.80807C3.00624 11.7038 5.35157 14.0499 8.24804 14.0499ZM14.6019 14.103L16.7203 16.2207L15.6607 17.2803L13.543 15.1619L14.6019 14.103Z" fill="#717F8C"/>
</svg>
