<svg width="19" height="19" viewBox="0 0 19 19" fill="none" xmlns="http://www.w3.org/2000/svg">
<path d="M9.02493 1.91382C12.7451 1.91382 15.7644 4.9331 15.7644 8.65329C15.7644 12.3735 12.7451 15.3928 9.02493 15.3928C5.30474 15.3928 2.28546 12.3735 2.28546 8.65329C2.28546 4.9331 5.30474 1.91382 9.02493 1.91382ZM9.02493 13.8951C11.9207 13.8951 14.2667 11.549 14.2667 8.65329C14.2667 5.75681 11.9207 3.41148 9.02493 3.41148C6.12846 3.41148 3.78312 5.75681 3.78312 8.65329C3.78312 11.549 6.12846 13.8951 9.02493 13.8951ZM15.3788 13.9483L17.4972 16.066L16.4376 17.1255L14.3199 15.0071L15.3788 13.9483Z" fill="#717F8C"/>
</svg>
