<svg width="19" height="19" viewBox="0 0 19 19" fill="none" xmlns="http://www.w3.org/2000/svg">
<path d="M15.425 15.9812L10.4937 11.05C10.1187 11.375 9.68125 11.6281 9.18125 11.8093C8.68125 11.9906 8.15 12.0812 7.5875 12.0812C6.2375 12.0812 5.09375 11.6125 4.15625 10.675C3.21875 9.73745 2.75 8.6062 2.75 7.2812C2.75 5.9562 3.21875 4.82495 4.15625 3.88745C5.09375 2.94995 6.23125 2.4812 7.56875 2.4812C8.89375 2.4812 10.0219 2.94995 10.9531 3.88745C11.8844 4.82495 12.35 5.9562 12.35 7.2812C12.35 7.8187 12.2625 8.33745 12.0875 8.83745C11.9125 9.33745 11.65 9.8062 11.3 10.2437L16.25 15.1562L15.425 15.9812ZM7.56875 10.9562C8.58125 10.9562 9.44375 10.5968 10.1562 9.87808C10.8687 9.15933 11.225 8.2937 11.225 7.2812C11.225 6.2687 10.8687 5.40308 10.1562 4.68433C9.44375 3.96558 8.58125 3.6062 7.56875 3.6062C6.54375 3.6062 5.67188 3.96558 4.95312 4.68433C4.23438 5.40308 3.875 6.2687 3.875 7.2812C3.875 8.2937 4.23438 9.15933 4.95312 9.87808C5.67188 10.5968 6.54375 10.9562 7.56875 10.9562Z" fill="#717F8C"/>
</svg>
