<svg width="19" height="18" viewBox="0 0 19 18" fill="none" xmlns="http://www.w3.org/2000/svg">
<path d="M15.425 15.7314L10.4937 10.8002C10.1187 11.1252 9.68125 11.3783 9.18125 11.5596C8.68125 11.7408 8.15 11.8314 7.5875 11.8314C6.2375 11.8314 5.09375 11.3627 4.15625 10.4252C3.21875 9.48769 2.75 8.35645 2.75 7.03145C2.75 5.70645 3.21875 4.5752 4.15625 3.6377C5.09375 2.7002 6.23125 2.23145 7.56875 2.23145C8.89375 2.23145 10.0219 2.7002 10.9531 3.6377C11.8844 4.5752 12.35 5.70645 12.35 7.03145C12.35 7.56895 12.2625 8.0877 12.0875 8.5877C11.9125 9.0877 11.65 9.55645 11.3 9.99395L16.25 14.9064L15.425 15.7314ZM7.56875 10.7064C8.58125 10.7064 9.44375 10.3471 10.1562 9.62832C10.8687 8.90957 11.225 8.04395 11.225 7.03145C11.225 6.01895 10.8687 5.15332 10.1562 4.43457C9.44375 3.71582 8.58125 3.35645 7.56875 3.35645C6.54375 3.35645 5.67187 3.71582 4.95312 4.43457C4.23438 5.15332 3.875 6.01895 3.875 7.03145C3.875 8.04395 4.23438 8.90957 4.95312 9.62832C5.67187 10.3471 6.54375 10.7064 7.56875 10.7064V10.7064Z" fill="#717F8C"/>
</svg>
