<svg width="19" height="19" viewBox="0 0 19 19" fill="none" xmlns="http://www.w3.org/2000/svg">
<path d="M15.55 16.4812L10.6187 11.55C10.2437 11.875 9.80625 12.1281 9.30625 12.3093C8.80625 12.4906 8.275 12.5812 7.7125 12.5812C6.3625 12.5812 5.21875 12.1125 4.28125 11.175C3.34375 10.2375 2.875 9.1062 2.875 7.7812C2.875 6.4562 3.34375 5.32495 4.28125 4.38745C5.21875 3.44995 6.35625 2.9812 7.69375 2.9812C9.01875 2.9812 10.1469 3.44995 11.0781 4.38745C12.0094 5.32495 12.475 6.4562 12.475 7.7812C12.475 8.3187 12.3875 8.83745 12.2125 9.33745C12.0375 9.83745 11.775 10.3062 11.425 10.7437L16.375 15.6562L15.55 16.4812ZM7.69375 11.4562C8.70625 11.4562 9.56875 11.0968 10.2812 10.3781C10.9937 9.65933 11.35 8.7937 11.35 7.7812C11.35 6.7687 10.9937 5.90308 10.2812 5.18433C9.56875 4.46558 8.70625 4.1062 7.69375 4.1062C6.66875 4.1062 5.79688 4.46558 5.07812 5.18433C4.35938 5.90308 4 6.7687 4 7.7812C4 8.7937 4.35938 9.65933 5.07812 10.3781C5.79688 11.0968 6.66875 11.4562 7.69375 11.4562Z" fill="#717F8C"/>
</svg>
