<svg width="19" height="19" viewBox="0 0 19 19" fill="none" xmlns="http://www.w3.org/2000/svg">
<path d="M7.775 17.25L7.4 14.8875C7.1625 14.8 6.9125 14.6812 6.65 14.5312C6.3875 14.3813 6.15625 14.225 5.95625 14.0625L3.74375 15.075L2 12L4.025 10.5187C4 10.4062 3.98437 10.2781 3.97812 10.1344C3.97187 9.99062 3.96875 9.8625 3.96875 9.75C3.96875 9.6375 3.97187 9.50938 3.97812 9.36563C3.98437 9.22188 4 9.09375 4.025 8.98125L2 7.5L3.74375 4.425L5.95625 5.4375C6.15625 5.275 6.3875 5.11875 6.65 4.96875C6.9125 4.81875 7.1625 4.70625 7.4 4.63125L7.775 2.25H11.225L11.6 4.6125C11.8375 4.7 12.0906 4.81563 12.3594 4.95938C12.6281 5.10313 12.8563 5.2625 13.0438 5.4375L15.2562 4.425L17 7.5L14.975 8.94375C15 9.06875 15.0156 9.20312 15.0219 9.34687C15.0281 9.49062 15.0312 9.625 15.0312 9.75C15.0312 9.875 15.0281 10.0062 15.0219 10.1437C15.0156 10.2812 15 10.4125 14.975 10.5375L17 12L15.2562 15.075L13.0438 14.0625C12.8438 14.225 12.6156 14.3844 12.3594 14.5406C12.1031 14.6969 11.85 14.8125 11.6 14.8875L11.225 17.25H7.775ZM9.5 12.1875C10.175 12.1875 10.75 11.95 11.225 11.475C11.7 11 11.9375 10.425 11.9375 9.75C11.9375 9.075 11.7 8.5 11.225 8.025C10.75 7.55 10.175 7.3125 9.5 7.3125C8.825 7.3125 8.25 7.55 7.775 8.025C7.3 8.5 7.0625 9.075 7.0625 9.75C7.0625 10.425 7.3 11 7.775 11.475C8.25 11.95 8.825 12.1875 9.5 12.1875ZM9.5 11.0625C9.1375 11.0625 8.82812 10.9344 8.57187 10.6781C8.31562 10.4219 8.1875 10.1125 8.1875 9.75C8.1875 9.3875 8.31562 9.07812 8.57187 8.82187C8.82812 8.56562 9.1375 8.4375 9.5 8.4375C9.8625 8.4375 10.1719 8.56562 10.4281 8.82187C10.6844 9.07812 10.8125 9.3875 10.8125 9.75C10.8125 10.1125 10.6844 10.4219 10.4281 10.6781C10.1719 10.9344 9.8625 11.0625 9.5 11.0625ZM8.675 16.125H10.325L10.5875 14.025C11 13.925 11.3906 13.7688 11.7594 13.5563C12.1281 13.3438 12.4625 13.0875 12.7625 12.7875L14.75 13.65L15.5 12.3L13.7375 11.0063C13.7875 10.7937 13.8281 10.5844 13.8594 10.3781C13.8906 10.1719 13.9062 9.9625 13.9062 9.75C13.9062 9.5375 13.8938 9.32813 13.8688 9.12188C13.8438 8.91563 13.8 8.70625 13.7375 8.49375L15.5 7.2L14.75 5.85L12.7625 6.7125C12.475 6.3875 12.15 6.11563 11.7875 5.89688C11.425 5.67813 11.025 5.5375 10.5875 5.475L10.325 3.375H8.675L8.4125 5.475C7.9875 5.5625 7.59062 5.7125 7.22187 5.925C6.85312 6.1375 6.525 6.4 6.2375 6.7125L4.25 5.85L3.5 7.2L5.2625 8.49375C5.2125 8.70625 5.17188 8.91563 5.14062 9.12188C5.10938 9.32813 5.09375 9.5375 5.09375 9.75C5.09375 9.9625 5.10938 10.1719 5.14062 10.3781C5.17188 10.5844 5.2125 10.7937 5.2625 11.0063L3.5 12.3L4.25 13.65L6.2375 12.7875C6.5375 13.0875 6.87188 13.3438 7.24063 13.5563C7.60938 13.7688 8 13.925 8.4125 14.025L8.675 16.125Z" fill="white"/>
</svg>
