<svg width="19" height="19" viewBox="0 0 19 19" fill="none" xmlns="http://www.w3.org/2000/svg">
<path d="M7.775 16.75L7.4 14.3875C7.1625 14.3 6.9125 14.1812 6.65 14.0312C6.3875 13.8813 6.15625 13.725 5.95625 13.5625L3.74375 14.575L2 11.5L4.025 10.0187C4 9.90625 3.98437 9.77812 3.97812 9.63437C3.97187 9.49062 3.96875 9.3625 3.96875 9.25C3.96875 9.1375 3.97187 9.00938 3.97812 8.86563C3.98437 8.72188 4 8.59375 4.025 8.48125L2 7L3.74375 3.925L5.95625 4.9375C6.15625 4.775 6.3875 4.61875 6.65 4.46875C6.9125 4.31875 7.1625 4.20625 7.4 4.13125L7.775 1.75H11.225L11.6 4.1125C11.8375 4.2 12.0906 4.31563 12.3594 4.45938C12.6281 4.60313 12.8563 4.7625 13.0438 4.9375L15.2562 3.925L17 7L14.975 8.44375C15 8.56875 15.0156 8.70312 15.0219 8.84687C15.0281 8.99062 15.0312 9.125 15.0312 9.25C15.0312 9.375 15.0281 9.50625 15.0219 9.64375C15.0156 9.78125 15 9.9125 14.975 10.0375L17 11.5L15.2562 14.575L13.0438 13.5625C12.8438 13.725 12.6156 13.8844 12.3594 14.0406C12.1031 14.1969 11.85 14.3125 11.6 14.3875L11.225 16.75H7.775ZM9.5 11.6875C10.175 11.6875 10.75 11.45 11.225 10.975C11.7 10.5 11.9375 9.925 11.9375 9.25C11.9375 8.575 11.7 8 11.225 7.525C10.75 7.05 10.175 6.8125 9.5 6.8125C8.825 6.8125 8.25 7.05 7.775 7.525C7.3 8 7.0625 8.575 7.0625 9.25C7.0625 9.925 7.3 10.5 7.775 10.975C8.25 11.45 8.825 11.6875 9.5 11.6875ZM9.5 10.5625C9.1375 10.5625 8.82812 10.4344 8.57187 10.1781C8.31562 9.92188 8.1875 9.6125 8.1875 9.25C8.1875 8.8875 8.31562 8.57812 8.57187 8.32187C8.82812 8.06562 9.1375 7.9375 9.5 7.9375C9.8625 7.9375 10.1719 8.06562 10.4281 8.32187C10.6844 8.57812 10.8125 8.8875 10.8125 9.25C10.8125 9.6125 10.6844 9.92188 10.4281 10.1781C10.1719 10.4344 9.8625 10.5625 9.5 10.5625ZM8.675 15.625H10.325L10.5875 13.525C11 13.425 11.3906 13.2688 11.7594 13.0563C12.1281 12.8438 12.4625 12.5875 12.7625 12.2875L14.75 13.15L15.5 11.8L13.7375 10.5063C13.7875 10.2937 13.8281 10.0844 13.8594 9.87812C13.8906 9.67187 13.9062 9.4625 13.9062 9.25C13.9062 9.0375 13.8938 8.82813 13.8688 8.62188C13.8438 8.41563 13.8 8.20625 13.7375 7.99375L15.5 6.7L14.75 5.35L12.7625 6.2125C12.475 5.8875 12.15 5.61563 11.7875 5.39688C11.425 5.17813 11.025 5.0375 10.5875 4.975L10.325 2.875H8.675L8.4125 4.975C7.9875 5.0625 7.59062 5.2125 7.22187 5.425C6.85312 5.6375 6.525 5.9 6.2375 6.2125L4.25 5.35L3.5 6.7L5.2625 7.99375C5.2125 8.20625 5.17188 8.41563 5.14062 8.62188C5.10938 8.82813 5.09375 9.0375 5.09375 9.25C5.09375 9.4625 5.10938 9.67187 5.14062 9.87812C5.17188 10.0844 5.2125 10.2937 5.2625 10.5063L3.5 11.8L4.25 13.15L6.2375 12.2875C6.5375 12.5875 6.87188 12.8438 7.24063 13.0563C7.60938 13.2688 8 13.425 8.4125 13.525L8.675 15.625Z" fill="white"/>
</svg>
