<svg width="19" height="18" viewBox="0 0 19 18" fill="none" xmlns="http://www.w3.org/2000/svg">
<g clip-path="url(#clip0_34_2180)">
<path d="M7.775 16.5L7.4 14.1375C7.1625 14.05 6.9125 13.9312 6.65 13.7812C6.3875 13.6313 6.15625 13.475 5.95625 13.3125L3.74375 14.325L2 11.25L4.025 9.76875C4 9.65625 3.98437 9.52812 3.97812 9.38437C3.97187 9.24062 3.96875 9.1125 3.96875 9C3.96875 8.8875 3.97187 8.75938 3.97812 8.61563C3.98437 8.47188 4 8.34375 4.025 8.23125L2 6.75L3.74375 3.675L5.95625 4.6875C6.15625 4.525 6.3875 4.36875 6.65 4.21875C6.9125 4.06875 7.1625 3.95625 7.4 3.88125L7.775 1.5H11.225L11.6 3.8625C11.8375 3.95 12.0906 4.06563 12.3594 4.20938C12.6281 4.35313 12.8563 4.5125 13.0438 4.6875L15.2562 3.675L17 6.75L14.975 8.19375C15 8.31875 15.0156 8.45312 15.0219 8.59687C15.0281 8.74062 15.0312 8.875 15.0312 9C15.0312 9.125 15.0281 9.25625 15.0219 9.39375C15.0156 9.53125 15 9.6625 14.975 9.7875L17 11.25L15.2562 14.325L13.0438 13.3125C12.8438 13.475 12.6156 13.6344 12.3594 13.7906C12.1031 13.9469 11.85 14.0625 11.6 14.1375L11.225 16.5H7.775ZM9.5 11.4375C10.175 11.4375 10.75 11.2 11.225 10.725C11.7 10.25 11.9375 9.675 11.9375 9C11.9375 8.325 11.7 7.75 11.225 7.275C10.75 6.8 10.175 6.5625 9.5 6.5625C8.825 6.5625 8.25 6.8 7.775 7.275C7.3 7.75 7.0625 8.325 7.0625 9C7.0625 9.675 7.3 10.25 7.775 10.725C8.25 11.2 8.825 11.4375 9.5 11.4375Z" fill="white"/>
</g>
<defs>
<clipPath id="clip0_34_2180">
<rect width="18" height="18" fill="white" transform="translate(0.5)"/>
</clipPath>
</defs>
</svg>
