<svg width="19" height="19" viewBox="0 0 19 19" fill="none" xmlns="http://www.w3.org/2000/svg">
<path d="M7.9422 16.6209L7.56778 14.2621C7.33065 14.1747 7.08104 14.0561 6.81895 13.9064C6.55686 13.7566 6.32597 13.6006 6.12629 13.4384L3.91724 14.4493L2.17621 11.3791L4.19805 9.90014C4.17309 9.78781 4.15749 9.65989 4.15125 9.51636C4.14501 9.37284 4.14189 9.24491 4.14189 9.13259C4.14189 9.02026 4.14501 8.89234 4.15125 8.74881C4.15749 8.60529 4.17309 8.47736 4.19805 8.36504L2.17621 6.8861L3.91724 3.81589L6.12629 4.82681C6.32597 4.66457 6.55686 4.50856 6.81895 4.3588C7.08104 4.20903 7.33065 4.09671 7.56778 4.02182L7.9422 1.64429H11.3868L11.7612 4.0031C11.9984 4.09047 12.2511 4.20591 12.5194 4.34944C12.7878 4.49296 13.0155 4.65209 13.2027 4.82681L15.4118 3.81589L17.1528 6.8861L15.131 8.32759C15.1559 8.4524 15.1715 8.58656 15.1778 8.73009C15.184 8.87362 15.1871 9.00778 15.1871 9.13259C15.1871 9.25739 15.184 9.38844 15.1778 9.52572C15.1715 9.66301 15.1559 9.79405 15.131 9.91886L17.1528 11.3791L15.4118 14.4493L13.2027 13.4384C13.003 13.6006 12.7753 13.7597 12.5194 13.9157C12.2636 14.0717 12.0108 14.1872 11.7612 14.2621L11.3868 16.6209H7.9422ZM9.66451 11.5663C10.3385 11.5663 10.9126 11.3292 11.3868 10.8549C11.8611 10.3806 12.0982 9.80653 12.0982 9.13259C12.0982 8.45864 11.8611 7.88454 11.3868 7.41028C10.9126 6.93602 10.3385 6.69889 9.66451 6.69889C8.99056 6.69889 8.41646 6.93602 7.9422 7.41028C7.46794 7.88454 7.23081 8.45864 7.23081 9.13259C7.23081 9.80653 7.46794 10.3806 7.9422 10.8549C8.41646 11.3292 8.99056 11.5663 9.66451 11.5663ZM9.66451 10.443C9.30257 10.443 8.99368 10.3151 8.73783 10.0593C8.48198 9.80341 8.35406 9.49452 8.35406 9.13259C8.35406 8.77065 8.48198 8.46176 8.73783 8.20591C8.99368 7.95006 9.30257 7.82213 9.66451 7.82213C10.0264 7.82213 10.3353 7.95006 10.5912 8.20591C10.847 8.46176 10.975 8.77065 10.975 9.13259C10.975 9.49452 10.847 9.80341 10.5912 10.0593C10.3353 10.3151 10.0264 10.443 9.66451 10.443ZM8.8408 15.4976H10.4882L10.7503 13.4009C11.1622 13.3011 11.5522 13.1451 11.9204 12.9329C12.2885 12.7207 12.6224 12.4649 12.9219 12.1653L14.9063 13.0265L15.6551 11.6786L13.8954 10.3869C13.9453 10.1747 13.9859 9.96566 14.0171 9.75973C14.0483 9.5538 14.0639 9.34476 14.0639 9.13259C14.0639 8.92042 14.0514 8.71137 14.0264 8.50544C14.0015 8.29951 13.9578 8.09047 13.8954 7.8783L15.6551 6.58657L14.9063 5.23867L12.9219 6.09983C12.6349 5.77533 12.3104 5.50388 11.9484 5.28547C11.5865 5.06706 11.1871 4.92666 10.7503 4.86426L10.4882 2.76753H8.8408L8.5787 4.86426C8.15437 4.95162 7.75811 5.10139 7.38994 5.31355C7.02176 5.52572 6.69415 5.78781 6.4071 6.09983L4.4227 5.23867L3.67387 6.58657L5.43362 7.8783C5.3837 8.09047 5.34314 8.29951 5.31193 8.50544C5.28073 8.71137 5.26513 8.92042 5.26513 9.13259C5.26513 9.34476 5.28073 9.5538 5.31193 9.75973C5.34314 9.96566 5.3837 10.1747 5.43362 10.3869L3.67387 11.6786L4.4227 13.0265L6.4071 12.1653C6.70663 12.4649 7.04048 12.7207 7.40866 12.9329C7.77683 13.1451 8.16685 13.3011 8.5787 13.4009L8.8408 15.4976Z" fill="white"/>
</svg>
