<svg width="19" height="19" viewBox="0 0 19 19" fill="none" xmlns="http://www.w3.org/2000/svg">
<path d="M7.9422 17.2121L7.56778 14.8533C7.33065 14.766 7.08104 14.6474 6.81895 14.4976C6.55686 14.3479 6.32597 14.1919 6.12629 14.0296L3.91724 15.0405L2.17621 11.9703L4.19805 10.4914C4.17309 10.3791 4.15749 10.2511 4.15125 10.1076C4.14501 9.96408 4.14189 9.83616 4.14189 9.72383C4.14189 9.61151 4.14501 9.48358 4.15125 9.34006C4.15749 9.19653 4.17309 9.06861 4.19805 8.95628L2.17621 7.47734L3.91724 4.40714L6.12629 5.41806C6.32597 5.25582 6.55686 5.09981 6.81895 4.95004C7.08104 4.80028 7.33065 4.68795 7.56778 4.61307L7.9422 2.23553H11.3868L11.7612 4.59435C11.9984 4.68171 12.2511 4.79716 12.5194 4.94068C12.7878 5.08421 13.0155 5.24334 13.2027 5.41806L15.4118 4.40714L17.1528 7.47734L15.131 8.91884C15.1559 9.04365 15.1715 9.17781 15.1778 9.32134C15.184 9.46486 15.1871 9.59903 15.1871 9.72383C15.1871 9.84864 15.184 9.97968 15.1778 10.117C15.1715 10.2543 15.1559 10.3853 15.131 10.5101L17.1528 11.9703L15.4118 15.0405L13.2027 14.0296C13.003 14.1919 12.7753 14.351 12.5194 14.507C12.2636 14.663 12.0108 14.7784 11.7612 14.8533L11.3868 17.2121H7.9422ZM9.66451 12.1575C10.3385 12.1575 10.9126 11.9204 11.3868 11.4461C11.8611 10.9719 12.0982 10.3978 12.0982 9.72383C12.0982 9.04989 11.8611 8.47578 11.3868 8.00153C10.9126 7.52727 10.3385 7.29014 9.66451 7.29014C8.99056 7.29014 8.41646 7.52727 7.9422 8.00153C7.46794 8.47578 7.23081 9.04989 7.23081 9.72383C7.23081 10.3978 7.46794 10.9719 7.9422 11.4461C8.41646 11.9204 8.99056 12.1575 9.66451 12.1575ZM9.66451 11.0343C9.30257 11.0343 8.99368 10.9064 8.73783 10.6505C8.48198 10.3947 8.35406 10.0858 8.35406 9.72383C8.35406 9.3619 8.48198 9.05301 8.73783 8.79716C8.99368 8.54131 9.30257 8.41338 9.66451 8.41338C10.0264 8.41338 10.3353 8.54131 10.5912 8.79716C10.847 9.05301 10.975 9.3619 10.975 9.72383C10.975 10.0858 10.847 10.3947 10.5912 10.6505C10.3353 10.9064 10.0264 11.0343 9.66451 11.0343ZM8.8408 16.0889H10.4882L10.7503 13.9922C11.1622 13.8923 11.5522 13.7363 11.9204 13.5241C12.2885 13.312 12.6224 13.0561 12.9219 12.7566L14.9063 13.6178L15.6551 12.2699L13.8954 10.9781C13.9453 10.766 13.9859 10.5569 14.0171 10.351C14.0483 10.1451 14.0639 9.936 14.0639 9.72383C14.0639 9.51167 14.0514 9.30262 14.0264 9.09669C14.0015 8.89076 13.9578 8.68171 13.8954 8.46954L15.6551 7.17781L14.9063 5.82992L12.9219 6.69107C12.6349 6.36658 12.3104 6.09513 11.9484 5.87672C11.5865 5.65831 11.1871 5.51791 10.7503 5.4555L10.4882 3.35878H8.8408L8.5787 5.4555C8.15437 5.54287 7.75811 5.69263 7.38994 5.9048C7.02176 6.11697 6.69415 6.37906 6.4071 6.69107L4.4227 5.82992L3.67387 7.17781L5.43362 8.46954C5.3837 8.68171 5.34314 8.89076 5.31193 9.09669C5.28073 9.30262 5.26513 9.51167 5.26513 9.72383C5.26513 9.936 5.28073 10.1451 5.31193 10.351C5.34314 10.5569 5.3837 10.766 5.43362 10.9781L3.67387 12.2699L4.4227 13.6178L6.4071 12.7566C6.70663 13.0561 7.04048 13.312 7.40866 13.5241C7.77683 13.7363 8.16685 13.8923 8.5787 13.9922L8.8408 16.0889Z" fill="white"/>
</svg>
