<svg width="19" height="19" viewBox="0 0 19 19" fill="none" xmlns="http://www.w3.org/2000/svg">
<path d="M7.69574 17.0574L7.32132 14.6986C7.08419 14.6112 6.83458 14.4927 6.57249 14.3429C6.3104 14.1931 6.07951 14.0371 5.87983 13.8749L3.67078 14.8858L1.92975 11.8156L3.95159 10.3367C3.92663 10.2243 3.91103 10.0964 3.90479 9.95289C3.89855 9.80936 3.89543 9.68143 3.89543 9.56911C3.89543 9.45679 3.89855 9.32886 3.90479 9.18534C3.91103 9.04181 3.92663 8.91388 3.95159 8.80156L1.92975 7.32262L3.67078 4.25242L5.87983 5.26334C6.07951 5.10109 6.3104 4.94509 6.57249 4.79532C6.83458 4.64555 7.08419 4.53323 7.32132 4.45835L7.69574 2.08081H11.1404L11.5148 4.43963C11.7519 4.52699 12.0046 4.64243 12.273 4.78596C12.5413 4.92948 12.7691 5.08861 12.9563 5.26334L15.1653 4.25242L16.9063 7.32262L14.8845 8.76412C14.9095 8.88892 14.9251 9.02309 14.9313 9.16661C14.9375 9.31014 14.9407 9.4443 14.9407 9.56911C14.9407 9.69392 14.9375 9.82496 14.9313 9.96225C14.9251 10.0995 14.9095 10.2306 14.8845 10.3554L16.9063 11.8156L15.1653 14.8858L12.9563 13.8749C12.7566 14.0371 12.5288 14.1963 12.273 14.3523C12.0171 14.5083 11.7644 14.6237 11.5148 14.6986L11.1404 17.0574H7.69574ZM9.41805 12.0028C10.092 12.0028 10.6661 11.7657 11.1404 11.2914C11.6146 10.8172 11.8517 10.2431 11.8517 9.56911C11.8517 8.89516 11.6146 8.32106 11.1404 7.8468C10.6661 7.37254 10.092 7.13541 9.41805 7.13541C8.7441 7.13541 8.17 7.37254 7.69574 7.8468C7.22148 8.32106 6.98435 8.89516 6.98435 9.56911C6.98435 10.2431 7.22148 10.8172 7.69574 11.2914C8.17 11.7657 8.7441 12.0028 9.41805 12.0028ZM9.41805 10.8796C9.05611 10.8796 8.74722 10.7516 8.49137 10.4958C8.23552 10.2399 8.1076 9.93104 8.1076 9.56911C8.1076 9.20718 8.23552 8.89828 8.49137 8.64243C8.74722 8.38658 9.05611 8.25866 9.41805 8.25866C9.77998 8.25866 10.0889 8.38658 10.3447 8.64243C10.6006 8.89828 10.7285 9.20718 10.7285 9.56911C10.7285 9.93104 10.6006 10.2399 10.3447 10.4958C10.0889 10.7516 9.77998 10.8796 9.41805 10.8796ZM8.59434 15.9342H10.2418L10.5039 13.8374C10.9157 13.7376 11.3057 13.5816 11.6739 13.3694C12.0421 13.1573 12.3759 12.9014 12.6755 12.6019L14.6599 13.463L15.4087 12.1151L13.6489 10.8234C13.6989 10.6112 13.7394 10.4022 13.7706 10.1963C13.8018 9.99033 13.8174 9.78128 13.8174 9.56911C13.8174 9.35694 13.8049 9.14789 13.78 8.94197C13.755 8.73604 13.7113 8.52699 13.6489 8.31482L15.4087 7.02309L14.6599 5.67519L12.6755 6.53635C12.3884 6.21186 12.0639 5.94041 11.702 5.722C11.34 5.50359 10.9407 5.36318 10.5039 5.30078L10.2418 3.20406H8.59434L8.33224 5.30078C7.90791 5.38814 7.51165 5.53791 7.14348 5.75008C6.7753 5.96225 6.44769 6.22434 6.16064 6.53635L4.17624 5.67519L3.42741 7.02309L5.18716 8.31482C5.13724 8.52699 5.09668 8.73604 5.06547 8.94197C5.03427 9.14789 5.01867 9.35694 5.01867 9.56911C5.01867 9.78128 5.03427 9.99033 5.06547 10.1963C5.09668 10.4022 5.13724 10.6112 5.18716 10.8234L3.42741 12.1151L4.17624 13.463L6.16064 12.6019C6.46017 12.9014 6.79402 13.1573 7.1622 13.3694C7.53037 13.5816 7.92039 13.7376 8.33224 13.8374L8.59434 15.9342Z" fill="white"/>
</svg>
