<svg width="19" height="19" viewBox="0 0 19 19" fill="none" xmlns="http://www.w3.org/2000/svg">
<path d="M7.775 17L7.4 14.6375C7.1625 14.55 6.9125 14.4312 6.65 14.2812C6.3875 14.1313 6.15625 13.975 5.95625 13.8125L3.74375 14.825L2 11.75L4.025 10.2687C4 10.1562 3.98437 10.0281 3.97812 9.88437C3.97187 9.74062 3.96875 9.6125 3.96875 9.5C3.96875 9.3875 3.97187 9.25938 3.97812 9.11563C3.98437 8.97188 4 8.84375 4.025 8.73125L2 7.25L3.74375 4.175L5.95625 5.1875C6.15625 5.025 6.3875 4.86875 6.65 4.71875C6.9125 4.56875 7.1625 4.45625 7.4 4.38125L7.775 2H11.225L11.6 4.3625C11.8375 4.45 12.0906 4.56563 12.3594 4.70938C12.6281 4.85313 12.8563 5.0125 13.0438 5.1875L15.2562 4.175L17 7.25L14.975 8.69375C15 8.81875 15.0156 8.95312 15.0219 9.09687C15.0281 9.24062 15.0312 9.375 15.0312 9.5C15.0312 9.625 15.0281 9.75625 15.0219 9.89375C15.0156 10.0312 15 10.1625 14.975 10.2875L17 11.75L15.2562 14.825L13.0438 13.8125C12.8438 13.975 12.6156 14.1344 12.3594 14.2906C12.1031 14.4469 11.85 14.5625 11.6 14.6375L11.225 17H7.775ZM9.5 11.9375C10.175 11.9375 10.75 11.7 11.225 11.225C11.7 10.75 11.9375 10.175 11.9375 9.5C11.9375 8.825 11.7 8.25 11.225 7.775C10.75 7.3 10.175 7.0625 9.5 7.0625C8.825 7.0625 8.25 7.3 7.775 7.775C7.3 8.25 7.0625 8.825 7.0625 9.5C7.0625 10.175 7.3 10.75 7.775 11.225C8.25 11.7 8.825 11.9375 9.5 11.9375ZM9.5 10.8125C9.1375 10.8125 8.82812 10.6844 8.57187 10.4281C8.31562 10.1719 8.1875 9.8625 8.1875 9.5C8.1875 9.1375 8.31562 8.82812 8.57187 8.57187C8.82812 8.31562 9.1375 8.1875 9.5 8.1875C9.8625 8.1875 10.1719 8.31562 10.4281 8.57187C10.6844 8.82812 10.8125 9.1375 10.8125 9.5C10.8125 9.8625 10.6844 10.1719 10.4281 10.4281C10.1719 10.6844 9.8625 10.8125 9.5 10.8125ZM8.675 15.875H10.325L10.5875 13.775C11 13.675 11.3906 13.5188 11.7594 13.3063C12.1281 13.0938 12.4625 12.8375 12.7625 12.5375L14.75 13.4L15.5 12.05L13.7375 10.7563C13.7875 10.5437 13.8281 10.3344 13.8594 10.1281C13.8906 9.92187 13.9062 9.7125 13.9062 9.5C13.9062 9.2875 13.8938 9.07813 13.8688 8.87188C13.8438 8.66563 13.8 8.45625 13.7375 8.24375L15.5 6.95L14.75 5.6L12.7625 6.4625C12.475 6.1375 12.15 5.86563 11.7875 5.64688C11.425 5.42813 11.025 5.2875 10.5875 5.225L10.325 3.125H8.675L8.4125 5.225C7.9875 5.3125 7.59062 5.4625 7.22187 5.675C6.85312 5.8875 6.525 6.15 6.2375 6.4625L4.25 5.6L3.5 6.95L5.2625 8.24375C5.2125 8.45625 5.17188 8.66563 5.14062 8.87188C5.10938 9.07813 5.09375 9.2875 5.09375 9.5C5.09375 9.7125 5.10938 9.92187 5.14062 10.1281C5.17188 10.3344 5.2125 10.5437 5.2625 10.7563L3.5 12.05L4.25 13.4L6.2375 12.5375C6.5375 12.8375 6.87188 13.0938 7.24063 13.3063C7.60938 13.5188 8 13.675 8.4125 13.775L8.675 15.875Z" fill="white"/>
</svg>
