<svg width="19" height="19" viewBox="0 0 19 19" fill="none" xmlns="http://www.w3.org/2000/svg">
<g clip-path="url(#clip0_34_2210)">
<path d="M7.775 17L7.4 14.6375C7.1625 14.55 6.9125 14.4312 6.65 14.2812C6.3875 14.1313 6.15625 13.975 5.95625 13.8125L3.74375 14.825L2 11.75L4.025 10.2687C4 10.1562 3.98437 10.0281 3.97812 9.88437C3.97187 9.74062 3.96875 9.6125 3.96875 9.5C3.96875 9.3875 3.97187 9.25938 3.97812 9.11563C3.98437 8.97188 4 8.84375 4.025 8.73125L2 7.25L3.74375 4.175L5.95625 5.1875C6.15625 5.025 6.3875 4.86875 6.65 4.71875C6.9125 4.56875 7.1625 4.45625 7.4 4.38125L7.775 2H11.225L11.6 4.3625C11.8375 4.45 12.0906 4.56563 12.3594 4.70938C12.6281 4.85313 12.8563 5.0125 13.0438 5.1875L15.2562 4.175L17 7.25L14.975 8.69375C15 8.81875 15.0156 8.95312 15.0219 9.09687C15.0281 9.24062 15.0312 9.375 15.0312 9.5C15.0312 9.625 15.0281 9.75625 15.0219 9.89375C15.0156 10.0312 15 10.1625 14.975 10.2875L17 11.75L15.2562 14.825L13.0438 13.8125C12.8438 13.975 12.6156 14.1344 12.3594 14.2906C12.1031 14.4469 11.85 14.5625 11.6 14.6375L11.225 17H7.775ZM9.5 11.9375C10.175 11.9375 10.75 11.7 11.225 11.225C11.7 10.75 11.9375 10.175 11.9375 9.5C11.9375 8.825 11.7 8.25 11.225 7.775C10.75 7.3 10.175 7.0625 9.5 7.0625C8.825 7.0625 8.25 7.3 7.775 7.775C7.3 8.25 7.0625 8.825 7.0625 9.5C7.0625 10.175 7.3 10.75 7.775 11.225C8.25 11.7 8.825 11.9375 9.5 11.9375Z" fill="white"/>
</g>
<defs>
<clipPath id="clip0_34_2210">
<rect width="18" height="18" fill="white" transform="translate(0.5 0.5)"/>
</clipPath>
</defs>
</svg>
