<svg width="19" height="19" viewBox="0 0 19 19" fill="none" xmlns="http://www.w3.org/2000/svg">
<g clip-path="url(#clip0_34_2240)">
<path d="M7.775 16.75L7.4 14.3875C7.1625 14.3 6.9125 14.1812 6.65 14.0312C6.3875 13.8813 6.15625 13.725 5.95625 13.5625L3.74375 14.575L2 11.5L4.025 10.0187C4 9.90625 3.98437 9.77812 3.97812 9.63437C3.97187 9.49062 3.96875 9.3625 3.96875 9.25C3.96875 9.1375 3.97187 9.00938 3.97812 8.86563C3.98437 8.72188 4 8.59375 4.025 8.48125L2 7L3.74375 3.925L5.95625 4.9375C6.15625 4.775 6.3875 4.61875 6.65 4.46875C6.9125 4.31875 7.1625 4.20625 7.4 4.13125L7.775 1.75H11.225L11.6 4.1125C11.8375 4.2 12.0906 4.31563 12.3594 4.45938C12.6281 4.60313 12.8563 4.7625 13.0438 4.9375L15.2562 3.925L17 7L14.975 8.44375C15 8.56875 15.0156 8.70312 15.0219 8.84687C15.0281 8.99062 15.0312 9.125 15.0312 9.25C15.0312 9.375 15.0281 9.50625 15.0219 9.64375C15.0156 9.78125 15 9.9125 14.975 10.0375L17 11.5L15.2562 14.575L13.0438 13.5625C12.8438 13.725 12.6156 13.8844 12.3594 14.0406C12.1031 14.1969 11.85 14.3125 11.6 14.3875L11.225 16.75H7.775ZM9.5 11.6875C10.175 11.6875 10.75 11.45 11.225 10.975C11.7 10.5 11.9375 9.925 11.9375 9.25C11.9375 8.575 11.7 8 11.225 7.525C10.75 7.05 10.175 6.8125 9.5 6.8125C8.825 6.8125 8.25 7.05 7.775 7.525C7.3 8 7.0625 8.575 7.0625 9.25C7.0625 9.925 7.3 10.5 7.775 10.975C8.25 11.45 8.825 11.6875 9.5 11.6875Z" fill="white"/>
</g>
<defs>
<clipPath id="clip0_34_2240">
<rect width="18" height="18" fill="white" transform="translate(0.5 0.25)"/>
</clipPath>
</defs>
</svg>
