<svg width="19" height="19" viewBox="0 0 19 19" fill="none" xmlns="http://www.w3.org/2000/svg">
<path d="M7.9422 17.1841L7.56778 14.8252C7.33065 14.7379 7.08104 14.6193 6.81895 14.4695C6.55686 14.3198 6.32597 14.1638 6.12629 14.0015L3.91724 15.0125L2.17621 11.9422L4.19805 10.4633C4.17309 10.351 4.15749 10.2231 4.15125 10.0795C4.14501 9.93601 4.14189 9.80808 4.14189 9.69576C4.14189 9.58343 4.14501 9.45551 4.15125 9.31198C4.15749 9.16846 4.17309 9.04053 4.19805 8.92821L2.17621 7.44927L3.91724 4.37907L6.12629 5.38999C6.32597 5.22774 6.55686 5.07173 6.81895 4.92197C7.08104 4.7722 7.33065 4.65988 7.56778 4.58499L7.9422 2.20746H11.3868L11.7612 4.56627C11.9984 4.65364 12.2511 4.76908 12.5194 4.91261C12.7878 5.05613 13.0155 5.21526 13.2027 5.38999L15.4118 4.37907L17.1528 7.44927L15.131 8.89077C15.1559 9.01557 15.1715 9.14974 15.1778 9.29326C15.184 9.43679 15.1871 9.57095 15.1871 9.69576C15.1871 9.82056 15.184 9.95161 15.1778 10.0889C15.1715 10.2262 15.1559 10.3572 15.131 10.482L17.1528 11.9422L15.4118 15.0125L13.2027 14.0015C13.003 14.1638 12.7753 14.3229 12.5194 14.4789C12.2636 14.6349 12.0108 14.7504 11.7612 14.8252L11.3868 17.1841H7.9422ZM9.66451 12.1295C10.3385 12.1295 10.9126 11.8923 11.3868 11.4181C11.8611 10.9438 12.0982 10.3697 12.0982 9.69576C12.0982 9.02181 11.8611 8.44771 11.3868 7.97345C10.9126 7.49919 10.3385 7.26206 9.66451 7.26206C8.99056 7.26206 8.41646 7.49919 7.9422 7.97345C7.46794 8.44771 7.23081 9.02181 7.23081 9.69576C7.23081 10.3697 7.46794 10.9438 7.9422 11.4181C8.41646 11.8923 8.99056 12.1295 9.66451 12.1295ZM9.66451 11.0062C9.30257 11.0062 8.99368 10.8783 8.73783 10.6224C8.48198 10.3666 8.35406 10.0577 8.35406 9.69576C8.35406 9.33382 8.48198 9.02493 8.73783 8.76908C8.99368 8.51323 9.30257 8.38531 9.66451 8.38531C10.0264 8.38531 10.3353 8.51323 10.5912 8.76908C10.847 9.02493 10.975 9.33382 10.975 9.69576C10.975 10.0577 10.847 10.3666 10.5912 10.6224C10.3353 10.8783 10.0264 11.0062 9.66451 11.0062ZM8.8408 16.0608H10.4882L10.7503 13.9641C11.1622 13.8642 11.5522 13.7082 11.9204 13.4961C12.2885 13.2839 12.6224 13.0281 12.9219 12.7285L14.9063 13.5897L15.6551 12.2418L13.8954 10.95C13.9453 10.7379 13.9859 10.5288 14.0171 10.3229C14.0483 10.117 14.0639 9.90793 14.0639 9.69576C14.0639 9.48359 14.0514 9.27454 14.0264 9.06861C14.0015 8.86269 13.9578 8.65364 13.8954 8.44147L15.6551 7.14974L14.9063 5.80184L12.9219 6.663C12.6349 6.3385 12.3104 6.06705 11.9484 5.84864C11.5865 5.63024 11.1871 5.48983 10.7503 5.42743L10.4882 3.3307H8.8408L8.5787 5.42743C8.15437 5.51479 7.75811 5.66456 7.38994 5.87673C7.02176 6.08889 6.69415 6.35098 6.4071 6.663L4.4227 5.80184L3.67387 7.14974L5.43362 8.44147C5.3837 8.65364 5.34314 8.86269 5.31193 9.06861C5.28073 9.27454 5.26513 9.48359 5.26513 9.69576C5.26513 9.90793 5.28073 10.117 5.31193 10.3229C5.34314 10.5288 5.3837 10.7379 5.43362 10.95L3.67387 12.2418L4.4227 13.5897L6.4071 12.7285C6.70663 13.0281 7.04048 13.2839 7.40866 13.4961C7.77683 13.7082 8.16685 13.8642 8.5787 13.9641L8.8408 16.0608Z" fill="white"/>
</svg>
