<svg width="19" height="18" viewBox="0 0 19 18" fill="none" xmlns="http://www.w3.org/2000/svg">
<path d="M10.875 16.4813C9.475 16.4813 8.3125 15.9906 7.3875 15.0094C6.4625 14.0281 6 12.8562 6 11.4937V10.8375C4.9375 10.7 4.04687 10.2281 3.32812 9.42188C2.60938 8.61562 2.25 7.6625 2.25 6.5625V2.25H4.5V1.5H5.625V4.125H4.5V3.375H3.375V6.5625C3.375 7.45 3.68438 8.20312 4.30313 8.82187C4.92188 9.44062 5.675 9.75 6.5625 9.75C7.45 9.75 8.20312 9.44062 8.82187 8.82187C9.44062 8.20312 9.75 7.45 9.75 6.5625V3.375H8.625V4.125H7.5V1.5H8.625V2.25H10.875V6.5625C10.875 7.6625 10.5156 8.61562 9.79688 9.42188C9.07813 10.2281 8.1875 10.7 7.125 10.8375V11.4937C7.125 12.5562 7.47813 13.4656 8.18438 14.2219C8.89063 14.9781 9.7875 15.3563 10.875 15.3563C11.8875 15.3563 12.7656 14.9813 13.5094 14.2313C14.2531 13.4813 14.625 12.5687 14.625 11.4937V10.05C14.1875 9.925 13.8281 9.68125 13.5469 9.31875C13.2656 8.95625 13.125 8.5375 13.125 8.0625C13.125 7.4875 13.325 7 13.725 6.6C14.125 6.2 14.6125 6 15.1875 6C15.7625 6 16.25 6.2 16.65 6.6C17.05 7 17.25 7.4875 17.25 8.0625C17.25 8.5375 17.1094 8.95625 16.8281 9.31875C16.5469 9.68125 16.1875 9.925 15.75 10.05V11.4937C15.75 12.8812 15.2719 14.0594 14.3156 15.0281C13.3594 15.9969 12.2125 16.4813 10.875 16.4813ZM15.1875 9C15.45 9 15.6719 8.90937 15.8531 8.72812C16.0344 8.54687 16.125 8.325 16.125 8.0625C16.125 7.8 16.0344 7.57813 15.8531 7.39688C15.6719 7.21563 15.45 7.125 15.1875 7.125C14.925 7.125 14.7031 7.21563 14.5219 7.39688C14.3406 7.57813 14.25 7.8 14.25 8.0625C14.25 8.325 14.3406 8.54687 14.5219 8.72812C14.7031 8.90937 14.925 9 15.1875 9Z" fill="#25474F"/>
</svg>
