<svg width="19" height="19" viewBox="0 0 19 19" fill="none" xmlns="http://www.w3.org/2000/svg">
<path d="M10.875 16.7313C9.475 16.7313 8.3125 16.2406 7.3875 15.2594C6.4625 14.2781 6 13.1062 6 11.7437V11.0875C4.9375 10.95 4.04688 10.4781 3.32812 9.67188C2.60938 8.86562 2.25 7.9125 2.25 6.8125V2.5H4.5V1.75H5.625V4.375H4.5V3.625H3.375V6.8125C3.375 7.7 3.68438 8.45312 4.30313 9.07187C4.92188 9.69062 5.675 10 6.5625 10C7.45 10 8.20312 9.69062 8.82187 9.07187C9.44062 8.45312 9.75 7.7 9.75 6.8125V3.625H8.625V4.375H7.5V1.75H8.625V2.5H10.875V6.8125C10.875 7.9125 10.5156 8.86562 9.79688 9.67188C9.07812 10.4781 8.1875 10.95 7.125 11.0875V11.7437C7.125 12.8062 7.47813 13.7156 8.18438 14.4719C8.89063 15.2281 9.7875 15.6063 10.875 15.6063C11.8875 15.6063 12.7656 15.2313 13.5094 14.4813C14.2531 13.7313 14.625 12.8187 14.625 11.7437V10.3C14.1875 10.175 13.8281 9.93125 13.5469 9.56875C13.2656 9.20625 13.125 8.7875 13.125 8.3125C13.125 7.7375 13.325 7.25 13.725 6.85C14.125 6.45 14.6125 6.25 15.1875 6.25C15.7625 6.25 16.25 6.45 16.65 6.85C17.05 7.25 17.25 7.7375 17.25 8.3125C17.25 8.7875 17.1094 9.20625 16.8281 9.56875C16.5469 9.93125 16.1875 10.175 15.75 10.3V11.7437C15.75 13.1312 15.2719 14.3094 14.3156 15.2781C13.3594 16.2469 12.2125 16.7313 10.875 16.7313ZM15.1875 9.25C15.45 9.25 15.6719 9.15937 15.8531 8.97812C16.0344 8.79688 16.125 8.575 16.125 8.3125C16.125 8.05 16.0344 7.82812 15.8531 7.64688C15.6719 7.46563 15.45 7.375 15.1875 7.375C14.925 7.375 14.7031 7.46563 14.5219 7.64688C14.3406 7.82812 14.25 8.05 14.25 8.3125C14.25 8.575 14.3406 8.79688 14.5219 8.97812C14.7031 9.15937 14.925 9.25 15.1875 9.25Z" fill="#25474F"/>
</svg>
