<svg width="40" height="28" viewBox="0 0 40 28" fill="none" xmlns="http://www.w3.org/2000/svg">
<path fill-rule="evenodd" clip-rule="evenodd" d="M11.5 1.25C5.2868 1.25 0.25 6.2868 0.25 12.5C0.25 18.7132 5.2868 23.75 11.5 23.75H27.25C33.4632 23.75 38.5 18.7132 38.5 12.5C38.5 6.2868 33.4632 1.25 27.25 1.25H11.5Z" fill="#34C759"/>
<g filter="url(#filter0_dddd_1_5454)">
<path fill-rule="evenodd" clip-rule="evenodd" d="M26.875 22.6614C32.674 22.6614 37.375 18.1121 37.375 12.5002C37.375 6.88823 32.674 2.33887 26.875 2.33887C21.076 2.33887 16.375 6.88823 16.375 12.5002C16.375 18.1121 21.076 22.6614 26.875 22.6614Z" fill="white"/>
</g>
<defs>
<filter id="filter0_dddd_1_5454" x="14.125" y="0.0888672" width="25.5" height="27.0725" filterUnits="userSpaceOnUse" color-interpolation-filters="sRGB">
<feFlood flood-opacity="0" result="BackgroundImageFix"/>
<feColorMatrix in="SourceAlpha" type="matrix" values="0 0 0 0 0 0 0 0 0 0 0 0 0 0 0 0 0 0 127 0" result="hardAlpha"/>
<feOffset dy="2.25"/>
<feGaussianBlur stdDeviation="1.125"/>
<feColorMatrix type="matrix" values="0 0 0 0 0 0 0 0 0 0 0 0 0 0 0 0 0 0 0.05 0"/>
<feBlend mode="normal" in2="BackgroundImageFix" result="effect1_dropShadow_1_5454"/>
<feColorMatrix in="SourceAlpha" type="matrix" values="0 0 0 0 0 0 0 0 0 0 0 0 0 0 0 0 0 0 127 0" result="hardAlpha"/>
<feOffset dy="1.5"/>
<feGaussianBlur stdDeviation="0.75"/>
<feColorMatrix type="matrix" values="0 0 0 0 0 0 0 0 0 0 0 0 0 0 0 0 0 0 0.1 0"/>
<feBlend mode="normal" in2="effect1_dropShadow_1_5454" result="effect2_dropShadow_1_5454"/>
<feColorMatrix in="SourceAlpha" type="matrix" values="0 0 0 0 0 0 0 0 0 0 0 0 0 0 0 0 0 0 127 0" result="hardAlpha"/>
<feOffset dy="2.25"/>
<feGaussianBlur stdDeviation="0.375"/>
<feColorMatrix type="matrix" values="0 0 0 0 0 0 0 0 0 0 0 0 0 0 0 0 0 0 0.0510643 0"/>
<feBlend mode="normal" in2="effect2_dropShadow_1_5454" result="effect3_dropShadow_1_5454"/>
<feColorMatrix in="SourceAlpha" type="matrix" values="0 0 0 0 0 0 0 0 0 0 0 0 0 0 0 0 0 0 127 0" result="hardAlpha"/>
<feOffset/>
<feGaussianBlur stdDeviation="1.125"/>
<feColorMatrix type="matrix" values="0 0 0 0 0 0 0 0 0 0 0 0 0 0 0 0 0 0 0.05 0"/>
<feBlend mode="normal" in2="effect3_dropShadow_1_5454" result="effect4_dropShadow_1_5454"/>
<feBlend mode="normal" in="SourceGraphic" in2="effect4_dropShadow_1_5454" result="shape"/>
</filter>
</defs>
</svg>
