<svg width="13" height="13" viewBox="0 0 13 13" fill="none" xmlns="http://www.w3.org/2000/svg">
<g clip-path="url(#clip0_1_1487)">
<path d="M4.76581 11.738L3.81729 10.1155L1.93274 9.72865L2.14491 7.89402L0.946777 6.4962L2.14491 5.11087L1.93274 3.27624L3.81729 2.88934L4.76581 1.25439L6.4382 2.02819L8.11058 1.25439L9.07158 2.88934L10.9437 3.27624L10.7315 5.11087L11.9296 6.4962L10.7315 7.89402L10.9437 9.72865L9.07158 10.1155L8.11058 11.738L6.4382 10.9642L4.76581 11.738ZM5.90154 8.15611L8.73461 5.348L8.17299 4.8363L5.90154 7.08279L4.71589 5.84722L4.14179 6.40884L5.90154 8.15611Z" fill="#0FB4DB"/>
</g>
<defs>
<clipPath id="clip0_1_1487">
<rect width="11.9813" height="11.9813" fill="white" transform="translate(0.44751 0.505493)"/>
</clipPath>
</defs>
</svg>
