<svg width="13" height="13" viewBox="0 0 13 13" fill="none" xmlns="http://www.w3.org/2000/svg">
<g clip-path="url(#clip0_1_1315)">
<path d="M4.76581 11.7098L3.81729 10.0874L1.93274 9.70049L2.14491 7.86585L0.946777 6.46804L2.14491 5.0827L1.93274 3.24807L3.81729 2.86117L4.76581 1.22623L6.4382 2.00002L8.11058 1.22623L9.07158 2.86117L10.9437 3.24807L10.7315 5.0827L11.9296 6.46804L10.7315 7.86585L10.9437 9.70049L9.07158 10.0874L8.11058 11.7098L6.4382 10.9361L4.76581 11.7098ZM5.90154 8.12794L8.73461 5.31983L8.17299 4.80813L5.90154 7.05462L4.71589 5.81905L4.14179 6.38067L5.90154 8.12794Z" fill="#0FB4DB"/>
</g>
<defs>
<clipPath id="clip0_1_1315">
<rect width="11.9813" height="11.9813" fill="white" transform="translate(0.44751 0.477386)"/>
</clipPath>
</defs>
</svg>
