<svg width="13" height="13" viewBox="0 0 13 13" fill="none" xmlns="http://www.w3.org/2000/svg">
<g clip-path="url(#clip0_1_976)">
<path d="M4.76581 12.1466L3.81729 10.5241L1.93274 10.1372L2.14491 8.30259L0.946777 6.90477L2.14491 5.51944L1.93274 3.6848L3.81729 3.29791L4.76581 1.66296L6.4382 2.43675L8.11058 1.66296L9.07158 3.29791L10.9437 3.6848L10.7315 5.51944L11.9296 6.90477L10.7315 8.30259L10.9437 10.1372L9.07158 10.5241L8.11058 12.1466L6.4382 11.3728L4.76581 12.1466ZM5.90154 8.56468L8.73461 5.75657L8.17299 5.24487L5.90154 7.49136L4.71589 6.25579L4.14179 6.81741L5.90154 8.56468Z" fill="#0FB4DB"/>
</g>
<defs>
<clipPath id="clip0_1_976">
<rect width="11.9813" height="11.9813" fill="white" transform="translate(0.44751 0.914062)"/>
</clipPath>
</defs>
</svg>
