<svg width="13" height="13" viewBox="0 0 13 13" fill="none" xmlns="http://www.w3.org/2000/svg">
<g clip-path="url(#clip0_1_1529)">
<path d="M4.46332 11.6442L3.5148 10.0217L1.63025 9.63484L1.84242 7.80021L0.644287 6.40239L1.84242 5.01706L1.63025 3.18242L3.5148 2.79553L4.46332 1.16058L6.13571 1.93437L7.80809 1.16058L8.76909 2.79553L10.6412 3.18242L10.429 5.01706L11.6271 6.40239L10.429 7.80021L10.6412 9.63484L8.76909 10.0217L7.80809 11.6442L6.13571 10.8704L4.46332 11.6442ZM5.59905 8.0623L8.43212 5.25419L7.8705 4.74249L5.59905 6.98898L4.4134 5.75341L3.8393 6.31503L5.59905 8.0623Z" fill="#0FB4DB"/>
</g>
<defs>
<clipPath id="clip0_1_1529">
<rect width="11.9813" height="11.9813" fill="white" transform="translate(0.145081 0.411804)"/>
</clipPath>
</defs>
</svg>
