<svg width="43" height="43" viewBox="0 0 43 43" fill="none" xmlns="http://www.w3.org/2000/svg">
<path d="M13.1875 30.0625H19.3125V23.9375H13.1875V30.0625ZM23.6875 30.0625H29.8125V23.9375H23.6875V30.0625ZM13.1875 19.5625H19.3125V13.4375H13.1875V19.5625ZM23.6875 19.5625H29.8125V13.4375H23.6875V19.5625ZM8.375 37.5C7.675 37.5 7.0625 37.2375 6.5375 36.7125C6.0125 36.1875 5.75 35.575 5.75 34.875V8.625C5.75 7.925 6.0125 7.3125 6.5375 6.7875C7.0625 6.2625 7.675 6 8.375 6H34.625C35.325 6 35.9375 6.2625 36.4625 6.7875C36.9875 7.3125 37.25 7.925 37.25 8.625V34.875C37.25 35.575 36.9875 36.1875 36.4625 36.7125C35.9375 37.2375 35.325 37.5 34.625 37.5H8.375ZM8.375 34.875H34.625V8.625H8.375V34.875ZM8.375 8.625V34.875V8.625Z" fill="#C0C0C0"/>
</svg>
