<svg width="29" height="36" viewBox="0 0 29 36" fill="none" xmlns="http://www.w3.org/2000/svg">
<path d="M12.4875 24.1812L8.8125 20.5063C8.69583 20.3896 8.56458 20.3021 8.41875 20.2437C8.27292 20.1854 8.12708 20.1562 7.98125 20.1562C7.83542 20.1562 7.68958 20.1854 7.54375 20.2437C7.39792 20.3021 7.26667 20.4042 7.15 20.55C6.91667 20.7833 6.8 21.0677 6.8 21.4031C6.8 21.7385 6.91667 22.0229 7.15 22.2563L11.5687 26.675C11.7146 26.8208 11.8604 26.9229 12.0062 26.9812C12.1521 27.0396 12.3125 27.0688 12.4875 27.0688C12.6625 27.0688 12.8229 27.0396 12.9688 26.9812C13.1146 26.9229 13.2604 26.8208 13.4062 26.675L21.675 18.4062C21.9083 18.1729 22.025 17.8885 22.025 17.5531C22.025 17.2177 21.9083 16.9333 21.675 16.7C21.4417 16.4667 21.1573 16.35 20.8219 16.35C20.4865 16.35 20.2021 16.4667 19.9688 16.7L12.4875 24.1812ZM3.125 35.25C2.425 35.25 1.8125 34.9875 1.2875 34.4625C0.7625 33.9375 0.5 33.325 0.5 32.625V2.875C0.5 2.175 0.7625 1.5625 1.2875 1.0375C1.8125 0.5125 2.425 0.25 3.125 0.25H17.825C18.175 0.25 18.5177 0.322917 18.8531 0.46875C19.1885 0.614583 19.4729 0.804167 19.7063 1.0375L27.7125 9.04375C27.9458 9.27708 28.1354 9.56146 28.2812 9.89687C28.4271 10.2323 28.5 10.575 28.5 10.925V32.625C28.5 33.325 28.2375 33.9375 27.7125 34.4625C27.1875 34.9875 26.575 35.25 25.875 35.25H3.125ZM17.6062 9.7V2.875H3.125V32.625H25.875V11.0125H18.9187C18.5396 11.0125 18.226 10.8885 17.9781 10.6406C17.7302 10.3927 17.6062 10.0792 17.6062 9.7ZM3.125 2.875V11.0125V2.875V32.625V2.875Z" fill="#25474F"/>
</svg>
