<svg width="43" height="43" viewBox="0 0 43 43" fill="none" xmlns="http://www.w3.org/2000/svg">
<path d="M20.275 33.9125H22.9V25.1187L26.4875 28.7063L28.325 26.8687L21.5 20.2188L14.7625 26.9563L16.6 28.7937L20.275 25.1187V33.9125ZM10.125 39.25C9.425 39.25 8.8125 38.9875 8.2875 38.4625C7.7625 37.9375 7.5 37.325 7.5 36.625V6.875C7.5 6.175 7.7625 5.5625 8.2875 5.0375C8.8125 4.5125 9.425 4.25 10.125 4.25H25.9187L35.5 13.8313V36.625C35.5 37.325 35.2375 37.9375 34.7125 38.4625C34.1875 38.9875 33.575 39.25 32.875 39.25H10.125ZM24.6062 15.0125V6.875H10.125V36.625H32.875V15.0125H24.6062ZM10.125 6.875V15.0125V6.875V36.625V6.875Z" fill="#C0C0C0"/>
</svg>
