<svg width="25" height="24" viewBox="0 0 25 24" fill="none" xmlns="http://www.w3.org/2000/svg">
<path d="M5 21C4.58333 21 4.22917 20.8542 3.9375 20.5625C3.64583 20.2708 3.5 19.9167 3.5 19.5V4.5C3.5 4.08333 3.64583 3.72917 3.9375 3.4375C4.22917 3.14583 4.58333 3 5 3H10.125C10.2083 2.41667 10.475 1.9375 10.925 1.5625C11.375 1.1875 11.9 1 12.5 1C13.1 1 13.625 1.1875 14.075 1.5625C14.525 1.9375 14.7917 2.41667 14.875 3H20C20.4167 3 20.7708 3.14583 21.0625 3.4375C21.3542 3.72917 21.5 4.08333 21.5 4.5V19.5C21.5 19.9167 21.3542 20.2708 21.0625 20.5625C20.7708 20.8542 20.4167 21 20 21H5ZM5 19.5H20V4.5H5V19.5ZM7.5 17H14.325V15.5H7.5V17ZM7.5 12.75H17.5V11.25H7.5V12.75ZM7.5 8.5H17.5V7H7.5V8.5ZM12.5 4.075C12.7333 4.075 12.9375 3.9875 13.1125 3.8125C13.2875 3.6375 13.375 3.43333 13.375 3.2C13.375 2.96667 13.2875 2.7625 13.1125 2.5875C12.9375 2.4125 12.7333 2.325 12.5 2.325C12.2667 2.325 12.0625 2.4125 11.8875 2.5875C11.7125 2.7625 11.625 2.96667 11.625 3.2C11.625 3.43333 11.7125 3.6375 11.8875 3.8125C12.0625 3.9875 12.2667 4.075 12.5 4.075ZM5 19.5V4.5V19.5Z" fill="white"/>
</svg>
