<svg width="19" height="18" viewBox="0 0 19 18" fill="none" xmlns="http://www.w3.org/2000/svg">
<path d="M4.125 15.75C3.8125 15.75 3.54687 15.6406 3.32812 15.4219C3.10938 15.2031 3 14.9375 3 14.625V3.375C3 3.0625 3.10938 2.79687 3.32812 2.57812C3.54687 2.35938 3.8125 2.25 4.125 2.25H7.96875C8.03125 1.8125 8.23125 1.45312 8.56875 1.17188C8.90625 0.890625 9.3 0.75 9.75 0.75C10.2 0.75 10.5937 0.890625 10.9312 1.17188C11.2687 1.45312 11.4687 1.8125 11.5312 2.25H15.375C15.6875 2.25 15.9531 2.35938 16.1719 2.57812C16.3906 2.79687 16.5 3.0625 16.5 3.375V14.625C16.5 14.9375 16.3906 15.2031 16.1719 15.4219C15.9531 15.6406 15.6875 15.75 15.375 15.75H4.125ZM4.125 14.625H15.375V3.375H4.125V14.625ZM6 12.75H11.1187V11.625H6V12.75ZM6 9.5625H13.5V8.4375H6V9.5625ZM6 6.375H13.5V5.25H6V6.375ZM9.75 3.05625C9.925 3.05625 10.0781 2.99062 10.2094 2.85938C10.3406 2.72813 10.4062 2.575 10.4062 2.4C10.4062 2.225 10.3406 2.07188 10.2094 1.94063C10.0781 1.80938 9.925 1.74375 9.75 1.74375C9.575 1.74375 9.42187 1.80938 9.29062 1.94063C9.15937 2.07188 9.09375 2.225 9.09375 2.4C9.09375 2.575 9.15937 2.72813 9.29062 2.85938C9.42187 2.99062 9.575 3.05625 9.75 3.05625ZM4.125 14.625V3.375V14.625Z" fill="white"/>
</svg>
