<svg width="32" height="32" viewBox="0 0 32 32" fill="none" xmlns="http://www.w3.org/2000/svg">
<g id="call">
<mask id="mask0_503_6446" style="mask-type:alpha" maskUnits="userSpaceOnUse" x="0" y="0" width="32" height="32">
<rect id="Bounding box" width="32" height="32" fill="#D9D9D9"/>
</mask>
<g mask="url(#mask0_503_6446)">
<path id="call_2" d="M26.6 28C23.7333 28 20.9389 27.3611 18.2167 26.0833C15.4944 24.8056 13.0833 23.1167 10.9833 21.0167C8.88333 18.9167 7.19444 16.5056 5.91667 13.7833C4.63889 11.0611 4 8.26667 4 5.4C4 5 4.13333 4.66667 4.4 4.4C4.66667 4.13333 5 4 5.4 4H10.8C11.1111 4 11.3889 4.1 11.6333 4.3C11.8778 4.5 12.0222 4.75556 12.0667 5.06667L12.9333 9.73333C12.9778 10.0444 12.9722 10.3278 12.9167 10.5833C12.8611 10.8389 12.7333 11.0667 12.5333 11.2667L9.3 14.5333C10.2333 16.1333 11.4056 17.6333 12.8167 19.0333C14.2278 20.4333 15.7778 21.6444 17.4667 22.6667L20.6 19.5333C20.8 19.3333 21.0611 19.1833 21.3833 19.0833C21.7056 18.9833 22.0222 18.9556 22.3333 19L26.9333 19.9333C27.2444 20 27.5 20.15 27.7 20.3833C27.9 20.6167 28 20.8889 28 21.2V26.6C28 27 27.8667 27.3333 27.6 27.6C27.3333 27.8667 27 28 26.6 28ZM8.03333 12L10.2333 9.8L9.66667 6.66667H6.7C6.81111 7.57778 6.96667 8.47778 7.16667 9.36667C7.36667 10.2556 7.65556 11.1333 8.03333 12ZM25.3333 25.2667V22.3333L22.2 21.7L19.9667 23.9333C20.8333 24.3111 21.7167 24.6111 22.6167 24.8333C23.5167 25.0556 24.4222 25.2 25.3333 25.2667Z" fill="#464646"/>
</g>
</g>
</svg>
