<svg width="27" height="27" viewBox="0 0 27 27" fill="none" xmlns="http://www.w3.org/2000/svg">
<path d="M6.50905 3.33567C8.00552 1.65214 11.3414 1.1793 12.8223 1.15332C14.2252 1.15332 17.374 1.43391 18.7458 2.55626C20.4605 3.9592 20.6164 4.11509 22.2531 5.20626C23.8899 6.29744 25.059 7.93421 25.7605 11.8313C26.462 15.7283 24.2796 16.6636 24.1237 18.3783C23.9678 20.093 22.1752 22.2754 20.1487 23.2886C18.1222 24.3019 19.0575 24.9254 17.9664 24.9254C16.8752 24.9254 17.0311 24.9254 15.6281 25.393C14.2252 25.8607 12.8223 26.0166 11.4193 26.1724C10.0163 26.3283 8.22371 25.7048 6.50905 24.9254C4.79438 24.146 2.30018 20.6386 1.91048 19.1577C1.52077 17.6769 0.975223 18.6901 0.7414 15.0269C0.507576 11.3636 1.75464 7.23273 2.92375 6.37538C4.09287 5.51803 4.63846 5.44009 6.50905 3.33567Z" fill="#68DA80" fill-opacity="0.1" stroke="#68DA80" stroke-width="0.467647"/>
<path d="M19.7308 12.6887C19.7308 16.5628 17.4705 20.3269 12.872 20.3269C8.99789 20.3269 5.38965 17.576 5.38965 13.7019C5.38965 11.6279 6.84258 9.84202 8.27347 8.55778C9.51537 7.44317 11.5396 6.76514 13.3397 6.76514C17.2138 6.76514 19.7308 8.81455 19.7308 12.6887Z" fill="#68DA80"/>
</svg>
