<svg width="65" height="64" viewBox="0 0 65 64" fill="none" xmlns="http://www.w3.org/2000/svg">
<path d="M15.8809 6.41468C19.5939 2.23764 27.8706 1.06446 31.5448 1C35.0257 1 42.8382 1.69617 46.2417 4.48086C50.4961 7.96173 50.8829 8.34849 54.9439 11.0558C59.0049 13.7632 61.9056 17.8242 63.646 27.4932C65.3865 37.1623 59.9718 39.4829 59.585 43.7373C59.1983 47.9917 54.7505 53.4063 49.7226 55.9203C44.6947 58.4342 47.0152 59.9813 44.3079 59.9813C41.6006 59.9813 41.9873 59.9813 38.5065 61.1416C35.0256 62.3019 31.5448 62.6886 28.0639 63.0754C24.5829 63.4622 20.1352 61.9151 15.8809 59.9813C11.6267 58.0475 5.43826 49.3453 4.47135 45.6711C3.50444 41.9968 2.15088 44.5108 1.57073 35.4219C0.99059 26.3329 4.08469 16.0837 6.98541 13.9565C9.88613 11.8294 11.2398 11.636 15.8809 6.41468Z" fill="#AA5EA6" fill-opacity="0.1" stroke="#AA5EA6" stroke-width="1.16029"/>
<path d="M47.7888 31.412C47.7888 39.9193 42.7294 48.185 32.436 48.185C23.7642 48.185 15.6875 42.1443 15.6875 33.637C15.6875 29.0825 18.9397 25.1609 22.1427 22.3408C24.9225 19.8932 29.4535 18.4043 33.4828 18.4043C42.1546 18.4043 47.7888 22.9047 47.7888 31.412Z" fill="#AA5EA6"/>
</svg>
