<svg width="27" height="26" viewBox="0 0 27 26" fill="none" xmlns="http://www.w3.org/2000/svg">
<path d="M6.77077 2.87327C8.26724 1.18974 11.6031 0.716898 13.084 0.690918C14.4869 0.690918 17.6357 0.971506 19.0075 2.09386C20.7222 3.4968 20.8781 3.65268 22.5149 4.74386C24.1516 5.83504 25.3207 7.4718 26.0222 11.3689C26.7237 15.2659 24.5413 16.2012 24.3854 17.9159C24.2296 19.6306 22.4369 21.813 20.4104 22.8262C18.384 23.8395 19.3193 24.463 18.2281 24.463C17.1369 24.463 17.2928 24.463 15.8898 24.9306C14.4869 25.3983 13.084 25.5542 11.681 25.71C10.278 25.8659 8.48543 25.2424 6.77077 24.463C5.0561 23.6836 2.5619 20.1762 2.17219 18.6953C1.78249 17.2145 1.23694 18.2277 1.00312 14.5645C0.769295 10.9012 2.01635 6.77033 3.18547 5.91298C4.35459 5.05563 4.90018 4.97768 6.77077 2.87327Z" fill="#68DA80" fill-opacity="0.1" stroke="#68DA80" stroke-width="0.467647"/>
<path d="M19.9925 12.2263C19.9925 16.1004 17.7323 19.8645 13.1337 19.8645C9.25961 19.8645 5.65137 17.1136 5.65137 13.2395C5.65137 11.1655 7.1043 9.37962 8.53519 8.09538C9.77709 6.98077 11.8013 6.30273 13.6014 6.30273C17.4755 6.30273 19.9925 8.35215 19.9925 12.2263Z" fill="#68DA80"/>
</svg>
