<svg width="49" height="48" viewBox="0 0 49 48" fill="none" xmlns="http://www.w3.org/2000/svg">
<path d="M11.9107 4.56101C14.6954 1.42823 20.9029 0.548345 23.6586 0.5C26.2692 0.5 32.1286 1.02213 34.6813 3.11065C37.8721 5.72129 38.1621 6.01137 41.2079 8.04187C44.2537 10.0724 46.4292 13.1181 47.7345 20.3699C49.0398 27.6217 44.9788 29.3622 44.6888 32.5529C44.3987 35.7437 41.0629 39.8047 37.2919 41.6902C33.521 43.5757 35.2614 44.736 33.2309 44.736C31.2004 44.736 31.4905 44.736 28.8798 45.6062C26.2692 46.4764 23.6586 46.7665 21.0479 47.0565C18.4372 47.3466 15.1014 46.1863 11.9107 44.736C8.72 43.2856 4.07869 36.759 3.35351 34.0033C2.62833 31.2476 1.61316 33.1331 1.17805 26.3164C0.742943 19.4997 3.06352 11.8128 5.23906 10.2174C7.4146 8.62201 8.42985 8.47698 11.9107 4.56101Z" fill="#AA5EA6" fill-opacity="0.1" stroke="#AA5EA6" stroke-width="0.870216"/>
<path d="M35.8416 23.309C35.8416 29.6894 32.047 35.8888 24.327 35.8888C17.8231 35.8888 11.7656 31.3582 11.7656 24.9777C11.7656 21.5619 14.2048 18.6207 16.607 16.5056C18.6919 14.6699 22.0901 13.5532 25.1121 13.5532C31.616 13.5532 35.8416 16.9285 35.8416 23.309Z" fill="#AA5EA6"/>
</svg>
