<svg width="49" height="48" viewBox="0 0 49 48" fill="none" xmlns="http://www.w3.org/2000/svg">
<path d="M11.7572 5.05028C14.5345 1.92578 20.7257 1.04822 23.4741 1C26.0778 1 31.9217 1.52075 34.4676 3.60375C37.65 6.2075 37.9393 6.49681 40.977 8.52194C44.0147 10.5471 46.1845 13.5848 47.4864 20.8174C48.7882 28.0501 44.738 29.7859 44.4487 32.9683C44.1594 36.1506 40.8323 40.2009 37.0714 42.0814C33.3104 43.9619 35.0462 45.1191 33.0211 45.1191C30.996 45.1191 31.2853 45.1191 28.6815 45.987C26.0778 46.8549 23.4741 47.1442 20.8703 47.4335C18.2664 47.7229 14.9395 46.5656 11.7572 45.1191C8.57493 43.6726 3.94589 37.1632 3.22262 34.4148C2.49936 31.6664 1.48687 33.5469 1.05291 26.7482C0.618952 19.9495 2.9334 12.2829 5.10319 10.6917C7.27298 9.10056 8.28555 8.9559 11.7572 5.05028Z" fill="#00B0F0" fill-opacity="0.1" stroke="#00B0F0" stroke-width="0.867917"/>
<path d="M25.6314 36.8615C18.8545 36.8615 12.2701 32.9401 12.2701 24.9622C12.2701 18.2411 17.0821 11.9812 23.859 11.9812C27.487 11.9812 30.6109 14.5019 32.8574 16.9843C34.8071 19.1388 35.9932 22.6506 35.9932 25.7735C35.9932 32.4947 32.4082 36.8615 25.6314 36.8615Z" fill="#00B0F0"/>
</svg>
