<svg width="49" height="49" viewBox="0 0 49 49" fill="none" xmlns="http://www.w3.org/2000/svg">
<path d="M11.7857 5.06101C14.5704 1.92823 20.7779 1.04835 23.5336 1C26.1442 1 32.0036 1.52213 34.5563 3.61065C37.7471 6.22129 38.0371 6.51137 41.0829 8.54187C44.1287 10.5724 46.3042 13.6181 47.6095 20.8699C48.9148 28.1217 44.8538 29.8622 44.5638 33.0529C44.2737 36.2437 40.9379 40.3047 37.1669 42.1902C33.396 44.0757 35.1364 45.236 33.1059 45.236C31.0754 45.236 31.3655 45.236 28.7548 46.1062C26.1442 46.9764 23.5336 47.2665 20.9229 47.5565C18.3122 47.8466 14.9764 46.6863 11.7857 45.236C8.595 43.7856 3.95369 37.259 3.22851 34.5033C2.50333 31.7476 1.48816 33.6331 1.05305 26.8164C0.617943 19.9997 2.93852 12.3128 5.11406 10.7174C7.2896 9.12201 8.30485 8.97698 11.7857 5.06101Z" fill="#AA5EA6" fill-opacity="0.1" stroke="#AA5EA6" stroke-width="0.870216"/>
<path d="M35.7166 23.809C35.7166 30.1894 31.922 36.3888 24.202 36.3888C17.6981 36.3888 11.6406 31.8582 11.6406 25.4777C11.6406 22.0619 14.0798 19.1207 16.482 17.0056C18.5669 15.1699 21.9651 14.0532 24.9871 14.0532C31.491 14.0532 35.7166 17.4285 35.7166 23.809Z" fill="#AA5EA6"/>
</svg>
