<svg width="18" height="19" viewBox="0 0 18 19" fill="none" xmlns="http://www.w3.org/2000/svg">
<g clip-path="url(#clip0_1_2433)">
<path d="M9 1.75C4.86 1.75 1.5 5.11 1.5 9.25C1.5 13.39 4.86 16.75 9 16.75C13.14 16.75 16.5 13.39 16.5 9.25C16.5 5.11 13.14 1.75 9 1.75ZM6.9675 12.4675L4.275 9.775C3.9825 9.4825 3.9825 9.01 4.275 8.7175C4.5675 8.425 5.04 8.425 5.3325 8.7175L7.5 10.8775L12.66 5.7175C12.9525 5.425 13.425 5.425 13.7175 5.7175C14.01 6.01 14.01 6.4825 13.7175 6.775L8.025 12.4675C7.74 12.76 7.26 12.76 6.9675 12.4675Z" fill="#C0C0C0"/>
</g>
<defs>
<clipPath id="clip0_1_2433">
<rect width="18" height="18" fill="white" transform="translate(0 0.25)"/>
</clipPath>
</defs>
</svg>
