<svg width="32" height="32" viewBox="0 0 32 32" fill="none" xmlns="http://www.w3.org/2000/svg">
<g clip-path="url(#clip0_466_7184)">
<path d="M16 2.66675C8.63996 2.66675 2.66663 8.64008 2.66663 16.0001C2.66663 23.3601 8.63996 29.3334 16 29.3334C23.36 29.3334 29.3333 23.3601 29.3333 16.0001C29.3333 8.64008 23.36 2.66675 16 2.66675ZM12.3866 21.7201L7.59996 16.9334C7.07996 16.4134 7.07996 15.5734 7.59996 15.0534C8.11996 14.5334 8.95996 14.5334 9.47996 15.0534L13.3333 18.8934L22.5066 9.72008C23.0266 9.20008 23.8666 9.20008 24.3866 9.72008C24.9066 10.2401 24.9066 11.0801 24.3866 11.6001L14.2666 21.7201C13.76 22.2401 12.9066 22.2401 12.3866 21.7201Z" fill="white"/>
</g>
<defs>
<clipPath id="clip0_466_7184">
<rect width="32" height="32" fill="white"/>
</clipPath>
</defs>
</svg>
