<svg width="56" height="56" viewBox="0 0 56 56" fill="none" xmlns="http://www.w3.org/2000/svg">
<path d="M16.9167 39.0833H25.0833V30.9167H16.9167V39.0833ZM30.9167 39.0833H39.0833V30.9167H30.9167V39.0833ZM16.9167 25.0833H25.0833V16.9167H16.9167V25.0833ZM30.9167 25.0833H39.0833V16.9167H30.9167V25.0833ZM10.5 49C9.56667 49 8.75 48.65 8.05 47.95C7.35 47.25 7 46.4333 7 45.5V10.5C7 9.56667 7.35 8.75 8.05 8.05C8.75 7.35 9.56667 7 10.5 7H45.5C46.4333 7 47.25 7.35 47.95 8.05C48.65 8.75 49 9.56667 49 10.5V45.5C49 46.4333 48.65 47.25 47.95 47.95C47.25 48.65 46.4333 49 45.5 49H10.5ZM10.5 45.5H45.5V10.5H10.5V45.5ZM10.5 10.5V45.5V10.5Z" fill="#464646"/>
</svg>
