<svg width="56" height="56" viewBox="0 0 56 56" fill="none" xmlns="http://www.w3.org/2000/svg">
<path d="M28 25.6667C21.7389 25.6667 16.6736 24.7139 12.8042 22.8083C8.93472 20.9028 7 18.7444 7 16.3333C7 13.8833 8.93472 11.7153 12.8042 9.82917C16.6736 7.94306 21.7389 7 28 7C34.2611 7 39.3264 7.94306 43.1958 9.82917C47.0653 11.7153 49 13.8833 49 16.3333C49 18.7444 47.0653 20.9028 43.1958 22.8083C39.3264 24.7139 34.2611 25.6667 28 25.6667ZM28 37.3333C22.3222 37.3333 17.4028 36.4778 13.2417 34.7667C9.08056 33.0556 7 30.9944 7 28.5833V22.75C7 24.2667 7.72917 25.5792 9.1875 26.6875C10.6458 27.7958 12.4542 28.7097 14.6125 29.4292C16.7708 30.1486 19.0653 30.6736 21.4958 31.0042C23.9264 31.3347 26.0944 31.5 28 31.5C29.9444 31.5 32.1222 31.3347 34.5333 31.0042C36.9444 30.6736 39.2292 30.1583 41.3875 29.4583C43.5458 28.7583 45.3542 27.8542 46.8125 26.7458C48.2708 25.6375 49 24.3056 49 22.75V28.5833C49 30.9944 46.9194 33.0556 42.7583 34.7667C38.5972 36.4778 33.6778 37.3333 28 37.3333ZM28 49C22.3222 49 17.4028 48.1444 13.2417 46.4333C9.08056 44.7222 7 42.6611 7 40.25V34.4167C7 35.9333 7.72917 37.2458 9.1875 38.3542C10.6458 39.4625 12.4542 40.3764 14.6125 41.0958C16.7708 41.8153 19.0653 42.3403 21.4958 42.6708C23.9264 43.0014 26.0944 43.1667 28 43.1667C29.9444 43.1667 32.1222 43.0014 34.5333 42.6708C36.9444 42.3403 39.2292 41.825 41.3875 41.125C43.5458 40.425 45.3542 39.5208 46.8125 38.4125C48.2708 37.3042 49 35.9722 49 34.4167V40.25C49 42.6611 46.9194 44.7222 42.7583 46.4333C38.5972 48.1444 33.6778 49 28 49Z" fill="#009F06"/>
</svg>
