<svg width="2" height="2" viewBox="0 0 2 2" fill="none" xmlns="http://www.w3.org/2000/svg">
<path fill-rule="evenodd" clip-rule="evenodd" d="M0.937348 0.962783L0.971333 0.950453C1.02609 0.930588 1.04884 0.909049 1.0586 0.897088C1.06839 0.885082 1.07693 0.868228 1.08101 0.839814C1.09058 0.773295 1.07103 0.671358 1.01902 0.557345C0.976579 0.464326 0.796075 0.38804 0.640292 0.477982C0.549312 0.530509 0.502864 0.570159 0.479894 0.596102C0.461278 0.617129 0.461027 0.625446 0.461009 0.626046C0.461008 0.626064 0.461008 0.626075 0.461007 0.626079C0.460187 0.631432 0.458665 0.651315 0.47258 0.699973C0.486061 0.747112 0.508515 0.803462 0.542126 0.881714C0.61515 1.00333 0.676882 1.03856 0.708603 1.04758C0.733329 1.05461 0.792775 1.06107 0.907446 0.983111L0.937348 0.962783ZM0.285737 1.01192C0.137688 0.669389 0.075178 0.475015 0.497729 0.231055C0.772279 0.0725431 1.15514 0.164273 1.27997 0.437897C1.40481 0.711521 1.45161 1.07959 1.06798 1.21876C0.746683 1.43719 0.478197 1.34527 0.285737 1.01192Z" fill="#E9EDED"/>
</svg>
