<svg width="2" height="2" viewBox="0 0 2 2" fill="none" xmlns="http://www.w3.org/2000/svg">
<path fill-rule="evenodd" clip-rule="evenodd" d="M0.662885 0.863573L0.678413 0.8858C0.703434 0.921612 0.723454 0.933913 0.734014 0.938661C0.744612 0.943426 0.758478 0.946334 0.779855 0.943779C0.829902 0.937795 0.899956 0.903851 0.972455 0.844037C1.0316 0.795236 1.05183 0.649663 0.956433 0.554265C0.90072 0.498552 0.862979 0.4726 0.839726 0.460995C0.820879 0.45159 0.814805 0.453023 0.814368 0.453126C0.814354 0.453129 0.814346 0.453131 0.814343 0.453132C0.810306 0.453576 0.795606 0.456333 0.763058 0.475859C0.731525 0.494776 0.695061 0.521981 0.644896 0.56152C0.570969 0.638028 0.557427 0.689589 0.55705 0.71432C0.556757 0.733598 0.563619 0.777916 0.642354 0.845857L0.662885 0.863573ZM0.5008 0.401055C0.720207 0.227312 0.848886 0.144296 1.10764 0.403054C1.27577 0.571182 1.28364 0.866348 1.10964 1.0099C0.935651 1.15345 0.678092 1.2588 0.5028 1.0079C0.282194 0.817535 0.296665 0.60519 0.5008 0.401055Z" fill="#E9EDED"/>
</svg>
