<svg width="2" height="1" viewBox="0 0 2 1" fill="none" xmlns="http://www.w3.org/2000/svg">
<path fill-rule="evenodd" clip-rule="evenodd" d="M0.756651 0.389921L0.764074 0.400545C0.776033 0.417663 0.785602 0.423543 0.79065 0.425812C0.795716 0.42809 0.802343 0.42948 0.812561 0.428258C0.836483 0.425398 0.869967 0.409174 0.904621 0.380583C0.932893 0.357258 0.942561 0.287676 0.896963 0.242077C0.870333 0.215447 0.852293 0.203042 0.841178 0.197496C0.83217 0.193 0.829267 0.193685 0.829058 0.193734C0.829051 0.193736 0.829047 0.193737 0.829046 0.193737C0.827116 0.193949 0.82009 0.195267 0.804532 0.2046C0.78946 0.213642 0.772031 0.226646 0.748053 0.245545C0.712717 0.282115 0.706244 0.30676 0.706064 0.318581C0.705924 0.327795 0.709204 0.348979 0.746838 0.381453L0.756651 0.389921ZM0.679177 0.168845C0.78405 0.0857987 0.845557 0.0461183 0.969239 0.169801C1.0496 0.250163 1.05336 0.391248 0.970195 0.459862C0.887029 0.528477 0.76392 0.578832 0.680133 0.458907C0.574687 0.367916 0.581604 0.266418 0.679177 0.168845Z" fill="#E9EDED"/>
</svg>
