<svg width="2" height="2" viewBox="0 0 2 2" fill="none" xmlns="http://www.w3.org/2000/svg">
<path fill-rule="evenodd" clip-rule="evenodd" d="M0.639478 1.07885L0.641122 1.09758C0.64377 1.12776 0.651645 1.14208 0.656411 1.1486C0.661195 1.15513 0.668624 1.16168 0.682556 1.16756C0.715171 1.18132 0.769825 1.18522 0.835074 1.17444C0.888309 1.16564 0.951876 1.08525 0.927296 0.994898C0.912941 0.942133 0.899068 0.913467 0.888977 0.898439C0.880798 0.886258 0.876591 0.885013 0.876288 0.884923C0.876279 0.884921 0.876273 0.884919 0.876271 0.884918C0.873653 0.883785 0.863722 0.880345 0.837007 0.880786C0.811126 0.881213 0.779322 0.884907 0.734824 0.891257C0.662828 0.911568 0.636425 0.937832 0.627491 0.95255C0.620527 0.964023 0.609112 0.993012 0.633197 1.0611L0.639478 1.07885ZM0.703458 0.744958C0.898364 0.716697 1.00603 0.71146 1.0727 0.956525C1.11602 1.11576 1.01692 1.29571 0.86033 1.32158C0.703736 1.34746 0.509644 1.32143 0.491089 1.11002C0.423605 0.919243 0.507165 0.796762 0.703458 0.744958Z" fill="white"/>
</svg>
