<svg width="2" height="2" viewBox="0 0 2 2" fill="none" xmlns="http://www.w3.org/2000/svg">
<path fill-rule="evenodd" clip-rule="evenodd" d="M0.880681 0.919389L0.889561 0.9321C0.90387 0.95258 0.915319 0.959615 0.921358 0.96233C0.927419 0.965055 0.935349 0.966718 0.947574 0.965257C0.976195 0.961835 1.01626 0.942423 1.05772 0.908216C1.09154 0.880308 1.10311 0.797057 1.04856 0.742501C1.01669 0.71064 0.995111 0.695798 0.981813 0.689162C0.971035 0.683783 0.967561 0.684603 0.967311 0.684662C0.967304 0.684664 0.967299 0.684665 0.967297 0.684665C0.964988 0.684919 0.956582 0.686496 0.937968 0.697662C0.919935 0.708481 0.899082 0.724038 0.870394 0.74665C0.828116 0.790404 0.820371 0.819891 0.820156 0.834034C0.819988 0.845058 0.823913 0.870403 0.86894 0.909257L0.880681 0.919389ZM0.787988 0.654883C0.913462 0.555523 0.987051 0.508048 1.13503 0.656027C1.23118 0.752175 1.23568 0.920975 1.13617 1.00307C1.03667 1.08516 0.889378 1.14541 0.789131 1.00193C0.662971 0.89306 0.671247 0.771624 0.787988 0.654883Z" fill="#E9EDED"/>
</svg>
