<svg width="3" height="3" viewBox="0 0 3 3" fill="none" xmlns="http://www.w3.org/2000/svg">
<path fill-rule="evenodd" clip-rule="evenodd" d="M1.24913 2.10743L1.25438 2.16808C1.26282 2.26582 1.28795 2.31221 1.30315 2.3333C1.31841 2.35447 1.34211 2.37569 1.38655 2.39472C1.49059 2.43928 1.66493 2.45192 1.87306 2.417C2.04288 2.38851 2.24565 2.12813 2.16724 1.83551C2.12145 1.66462 2.0772 1.57178 2.04501 1.52311C2.01892 1.48366 2.0055 1.47963 2.00453 1.47934C2.0045 1.47933 2.00448 1.47932 2.00448 1.47932C1.99613 1.47565 1.96445 1.46451 1.87923 1.46594C1.79667 1.46732 1.69522 1.47928 1.55328 1.49985C1.32362 1.56563 1.23939 1.65069 1.2109 1.69836C1.18868 1.73552 1.15227 1.82941 1.2291 2.04992L1.24913 2.10743ZM1.45322 1.02603C2.07495 0.934494 2.41839 0.917531 2.63106 1.71123C2.76925 2.22694 2.45315 2.80976 1.95363 2.89356C1.45411 2.97737 0.834976 2.89306 0.775789 2.20835C0.56052 1.59049 0.827068 1.1938 1.45322 1.02603Z" fill="#E9EDED"/>
</svg>
