<svg width="2" height="2" viewBox="0 0 2 2" fill="none" xmlns="http://www.w3.org/2000/svg">
<path fill-rule="evenodd" clip-rule="evenodd" d="M0.774228 0.832206L0.793663 0.825155C0.824978 0.813794 0.837989 0.801476 0.84357 0.794636C0.849171 0.78777 0.85405 0.778132 0.856386 0.761882C0.861856 0.723841 0.85068 0.665546 0.820933 0.600344C0.796664 0.547148 0.693437 0.503521 0.604347 0.554957C0.552318 0.584996 0.525755 0.607672 0.512619 0.622508C0.501972 0.634533 0.501829 0.639289 0.501819 0.639632C0.501818 0.639643 0.501818 0.639649 0.501818 0.639651C0.501349 0.642713 0.500478 0.654083 0.508436 0.68191C0.516146 0.708868 0.528986 0.741093 0.548208 0.785844C0.589969 0.855392 0.625272 0.875542 0.643413 0.8807C0.657553 0.884721 0.691549 0.888413 0.757128 0.843831L0.774228 0.832206ZM0.401584 0.860306C0.316918 0.66442 0.281169 0.55326 0.522818 0.413744C0.679828 0.323094 0.898778 0.375553 0.970169 0.532034C1.04156 0.688514 1.06832 0.899003 0.848935 0.978596C0.66519 1.10351 0.511648 1.05094 0.401584 0.860306Z" fill="#E9EDED"/>
</svg>
