<svg width="2" height="2" viewBox="0 0 2 2" fill="none" xmlns="http://www.w3.org/2000/svg">
<path fill-rule="evenodd" clip-rule="evenodd" d="M1.20304 1.22209L1.22853 1.21284C1.2696 1.19794 1.28666 1.18179 1.29398 1.17282C1.30133 1.16381 1.30772 1.15117 1.31079 1.12986C1.31796 1.07997 1.30331 1.00352 1.26429 0.918009C1.23247 0.848245 1.09709 0.79103 0.980249 0.858486C0.912015 0.897882 0.877178 0.92762 0.859951 0.947077C0.845989 0.962847 0.845801 0.969085 0.845787 0.969534C0.845787 0.969548 0.845787 0.969556 0.845786 0.969559C0.845171 0.973574 0.844029 0.988487 0.854466 1.02498C0.864577 1.06033 0.881416 1.1026 0.906625 1.16129C0.961393 1.2525 1.00769 1.27892 1.03148 1.28569C1.05003 1.29096 1.09461 1.2958 1.18062 1.23733L1.20304 1.22209ZM0.714333 1.25894C0.603297 1.00204 0.556414 0.856261 0.873327 0.673291C1.07924 0.554407 1.36638 0.623205 1.46001 0.828423C1.55364 1.03364 1.58873 1.30969 1.30102 1.41407C1.06004 1.57789 0.858678 1.50895 0.714333 1.25894Z" fill="#E9EDED"/>
</svg>
