<svg width="2" height="1" viewBox="0 0 2 1" fill="none" xmlns="http://www.w3.org/2000/svg">
<path fill-rule="evenodd" clip-rule="evenodd" d="M1.17497 0.559104L1.18681 0.576051C1.20589 0.603358 1.22116 0.612738 1.22921 0.616358C1.23729 0.619992 1.24786 0.62221 1.26416 0.620261C1.30233 0.615698 1.35574 0.589816 1.41102 0.544207C1.45612 0.506996 1.47155 0.395995 1.39881 0.323254C1.35632 0.280772 1.32755 0.260983 1.30982 0.252134C1.29545 0.244963 1.29081 0.246056 1.29048 0.246134C1.29047 0.246137 1.29046 0.246138 1.29046 0.246138C1.28738 0.246478 1.27617 0.24858 1.25136 0.263468C1.22731 0.277893 1.19951 0.298636 1.16126 0.328785C1.10489 0.387124 1.09456 0.426439 1.09427 0.445297C1.09405 0.459996 1.09928 0.493789 1.15932 0.545595L1.17497 0.559104ZM1.05138 0.20643C1.21868 0.0739492 1.3168 0.0106486 1.51411 0.207954C1.6423 0.336152 1.6483 0.561219 1.51563 0.670677C1.38296 0.780136 1.18657 0.860465 1.05291 0.669153C0.884694 0.523999 0.895728 0.362084 1.05138 0.20643Z" fill="#E9EDED"/>
</svg>
