<svg width="3" height="3" viewBox="0 0 3 3" fill="none" xmlns="http://www.w3.org/2000/svg">
<path fill-rule="evenodd" clip-rule="evenodd" d="M0.742388 1.5441L0.748662 1.61668C0.75877 1.73361 0.788826 1.78912 0.807016 1.81435C0.825274 1.83968 0.853627 1.86507 0.906798 1.88784C1.03128 1.94114 1.23986 1.95627 1.48889 1.91449C1.69206 1.8804 1.93467 1.56888 1.84086 1.21878C1.78607 1.01431 1.73312 0.903235 1.69461 0.845C1.66339 0.797802 1.64734 0.792977 1.64618 0.792629C1.64615 0.792618 1.64612 0.792612 1.64612 0.792608C1.63613 0.78822 1.59822 0.774888 1.49626 0.776596C1.39749 0.778251 1.27611 0.792565 1.10628 0.817172C0.831505 0.895875 0.730736 0.997648 0.696639 1.05468C0.670062 1.09914 0.626496 1.21147 0.718419 1.47531L0.742388 1.5441ZM0.986571 0.250268C1.73043 0.140757 2.14134 0.120461 2.39579 1.07008C2.56112 1.6871 2.18292 2.3844 1.58528 2.48467C0.987631 2.58494 0.246873 2.48407 0.176059 1.66486C-0.0814977 0.925616 0.237412 0.451005 0.986571 0.250268Z" fill="#E9EDED"/>
</svg>
