<svg width="3" height="3" viewBox="0 0 3 3" fill="none" xmlns="http://www.w3.org/2000/svg">
<path fill-rule="evenodd" clip-rule="evenodd" d="M1.24925 2.10743L1.2545 2.16808C1.26295 2.26582 1.28807 2.31221 1.30327 2.3333C1.31853 2.35447 1.34223 2.37569 1.38667 2.39472C1.49071 2.43928 1.66505 2.45192 1.87319 2.417C2.043 2.38851 2.24577 2.12813 2.16737 1.83551C2.12158 1.66462 2.07732 1.57178 2.04513 1.52311C2.01904 1.48366 2.00562 1.47963 2.00465 1.47934C2.00462 1.47933 2.00461 1.47932 2.0046 1.47932C1.99625 1.47565 1.96457 1.46451 1.87935 1.46594C1.79679 1.46732 1.69534 1.47928 1.5534 1.49985C1.32374 1.56563 1.23952 1.65069 1.21102 1.69836C1.1888 1.73552 1.15239 1.82941 1.22922 2.04992L1.24925 2.10743ZM1.45334 1.02603C2.07507 0.934494 2.41851 0.917531 2.63118 1.71123C2.76937 2.22694 2.45327 2.80976 1.95375 2.89356C1.45423 2.97737 0.835098 2.89306 0.775911 2.20835C0.560642 1.59049 0.82719 1.1938 1.45334 1.02603Z" fill="#E9EDED"/>
</svg>
