<svg width="3" height="3" viewBox="0 0 3 3" fill="none" xmlns="http://www.w3.org/2000/svg">
<path fill-rule="evenodd" clip-rule="evenodd" d="M1.66335 1.79128L1.71714 1.80082C1.80382 1.81619 1.84987 1.8052 1.87168 1.79692C1.89357 1.7886 1.91746 1.77299 1.94428 1.73889C2.00706 1.65906 2.05851 1.51089 2.07658 1.32238C2.09133 1.16857 1.91274 0.932346 1.6409 0.932346C1.48214 0.932346 1.39139 0.949142 1.34173 0.965738C1.30148 0.97919 1.29486 0.989886 1.29439 0.990656C1.29437 0.99068 1.29436 0.990694 1.29436 0.990699C1.28924 0.997085 1.27223 1.02196 1.25367 1.09615C1.2357 1.16803 1.2225 1.25874 1.20737 1.38655C1.21104 1.60089 1.26521 1.69364 1.29991 1.72941C1.32696 1.7573 1.39988 1.81066 1.60886 1.79529L1.66335 1.79128ZM0.773438 1.36323C0.838497 0.803082 0.903556 0.501465 1.6409 0.501465C2.11998 0.501465 2.55173 0.910802 2.50836 1.36323C2.46498 1.81565 2.24812 2.33271 1.6409 2.22499C1.05536 2.26808 0.773438 1.94492 0.773438 1.36323Z" fill="#E9EDED"/>
</svg>
