<svg width="2" height="2" viewBox="0 0 2 2" fill="none" xmlns="http://www.w3.org/2000/svg">
<path fill-rule="evenodd" clip-rule="evenodd" d="M0.937338 1.08048L0.94127 1.12597C0.947607 1.19927 0.966448 1.23407 0.97785 1.24989C0.989295 1.26576 1.00707 1.28168 1.0404 1.29595C1.11843 1.32937 1.24918 1.33885 1.40529 1.31266C1.53265 1.29129 1.68473 1.09601 1.62592 0.876544C1.59158 0.748375 1.55839 0.678744 1.53425 0.64224C1.51468 0.612653 1.50461 0.609628 1.50389 0.60941C1.50387 0.609404 1.50385 0.6094 1.50385 0.609398C1.49758 0.606646 1.47382 0.598289 1.40991 0.59936C1.34799 0.600398 1.2719 0.60937 1.16545 0.624796C0.993201 0.674131 0.930034 0.737928 0.90866 0.773681C0.892 0.801548 0.86469 0.871964 0.922312 1.03735L0.937338 1.08048ZM1.09041 0.269427C1.5567 0.200779 1.81428 0.188057 1.97378 0.783335C2.07742 1.17011 1.84035 1.60723 1.46571 1.67008C1.09107 1.73294 0.626721 1.66971 0.58233 1.15617C0.420879 0.692774 0.620789 0.395261 1.09041 0.269427Z" fill="#E9EDED"/>
</svg>
