<svg width="2" height="2" viewBox="0 0 2 2" fill="none" xmlns="http://www.w3.org/2000/svg">
<path fill-rule="evenodd" clip-rule="evenodd" d="M1.00616 1.1398L1.01359 1.15042C1.02554 1.16754 1.03511 1.17342 1.04016 1.17569C1.04523 1.17797 1.05185 1.17936 1.06207 1.17814C1.08599 1.17528 1.11948 1.15905 1.15413 1.13046C1.1824 1.10714 1.19207 1.03755 1.14647 0.991955C1.11984 0.965325 1.1018 0.95292 1.09069 0.947373C1.08168 0.942878 1.07878 0.943563 1.07857 0.943612C1.07856 0.943614 1.07856 0.943615 1.07856 0.943615C1.07663 0.943827 1.0696 0.945145 1.05404 0.954478C1.03897 0.96352 1.02154 0.976524 0.997565 0.995423C0.962229 1.03199 0.955756 1.05664 0.955576 1.06846C0.955435 1.07767 0.958716 1.09886 0.996349 1.13133L1.00616 1.1398ZM0.928689 0.918723C1.03356 0.835677 1.09507 0.795996 1.21875 0.919679C1.29911 1.00004 1.30287 1.14113 1.21971 1.20974C1.13654 1.27836 1.01343 1.32871 0.929645 1.20878C0.824199 1.11779 0.831116 1.0163 0.928689 0.918723Z" fill="#E9EDED"/>
</svg>
