<svg width="2" height="2" viewBox="0 0 2 2" fill="none" xmlns="http://www.w3.org/2000/svg">
<path fill-rule="evenodd" clip-rule="evenodd" d="M0.883806 1.48476L0.90451 1.5144C0.937871 1.56215 0.964565 1.57855 0.978644 1.58488C0.992776 1.59124 1.01126 1.59511 1.03977 1.5917C1.10649 1.58373 1.1999 1.53847 1.29657 1.45872C1.37543 1.39365 1.4024 1.19955 1.2752 1.07235C1.20092 0.998069 1.1506 0.963466 1.11959 0.947994C1.09447 0.935453 1.08637 0.937364 1.08578 0.937502C1.08577 0.937506 1.08575 0.937508 1.08575 0.937509C1.08037 0.938102 1.06077 0.941777 1.01737 0.967812C0.975325 0.993035 0.926707 1.02931 0.859821 1.08203C0.761251 1.18404 0.743195 1.25279 0.742693 1.28576C0.742302 1.31146 0.751452 1.37055 0.856431 1.46114L0.883806 1.48476ZM0.667693 0.868073C0.960235 0.636416 1.13181 0.525728 1.47682 0.870739C1.70099 1.09491 1.71147 1.48846 1.47948 1.67986C1.24749 1.87126 0.904082 2.01173 0.670359 1.6772C0.376218 1.42338 0.395513 1.14025 0.667693 0.868073Z" fill="#E9EDED"/>
</svg>
