<svg width="4" height="3" viewBox="0 0 4 3" fill="none" xmlns="http://www.w3.org/2000/svg">
<path fill-rule="evenodd" clip-rule="evenodd" d="M1.88406 2.38821L1.95578 2.40093C2.07135 2.42143 2.13275 2.40676 2.16183 2.39573C2.19101 2.38464 2.22288 2.36383 2.25863 2.31836C2.34234 2.21192 2.41094 2.01436 2.43503 1.76301C2.45469 1.55793 2.21657 1.24297 1.85412 1.24297C1.64245 1.24297 1.52145 1.26536 1.45523 1.28749C1.40156 1.30542 1.39274 1.31968 1.39211 1.32071C1.39209 1.32074 1.39208 1.32076 1.39207 1.32077C1.38525 1.32928 1.36256 1.36245 1.33782 1.46137C1.31386 1.55721 1.29627 1.67816 1.27608 1.84857C1.28098 2.13435 1.35321 2.25803 1.39947 2.30572C1.43554 2.3429 1.53277 2.41406 1.8114 2.39355L1.88406 2.38821ZM0.69751 1.81747C0.784256 1.07061 0.871002 0.668457 1.85412 0.668457C2.4929 0.668457 3.06857 1.21424 3.01074 1.81747C2.95291 2.42071 2.66375 3.11012 1.85412 2.96649C1.07341 3.02394 0.69751 2.59306 0.69751 1.81747Z" fill="#E9EDED"/>
</svg>
