<svg width="2" height="2" viewBox="0 0 2 2" fill="none" xmlns="http://www.w3.org/2000/svg">
<path fill-rule="evenodd" clip-rule="evenodd" d="M0.675576 1.18648L0.685472 1.20065C0.701418 1.22347 0.714177 1.23131 0.720907 1.23433C0.727662 1.23737 0.736498 1.23923 0.750122 1.2376C0.782017 1.23378 0.826664 1.21215 0.872868 1.17403C0.910565 1.14293 0.923456 1.05015 0.862658 0.989355C0.827151 0.953848 0.803098 0.937308 0.788279 0.929913C0.776268 0.923919 0.772397 0.924832 0.772118 0.924898C0.772109 0.9249 0.772104 0.924901 0.772102 0.924901C0.769529 0.925185 0.760161 0.926941 0.739417 0.939386C0.719321 0.951442 0.696082 0.968779 0.664111 0.993978C0.616997 1.04274 0.608366 1.0756 0.608126 1.09136C0.607939 1.10365 0.612313 1.13189 0.662491 1.17519L0.675576 1.18648ZM0.572277 0.891712C0.712107 0.780984 0.794116 0.728076 0.959026 0.892986C1.06618 1.00014 1.07119 1.18825 0.9603 1.27974C0.849413 1.37122 0.685267 1.43836 0.573551 1.27846C0.432957 1.15714 0.44218 1.02181 0.572277 0.891712Z" fill="#E9EDED"/>
</svg>
