<svg width="3" height="2" viewBox="0 0 3 2" fill="none" xmlns="http://www.w3.org/2000/svg">
<path fill-rule="evenodd" clip-rule="evenodd" d="M1.6547 1.34098L1.69462 1.34795C1.75895 1.35919 1.79312 1.35115 1.80931 1.3451C1.82555 1.33902 1.84329 1.32761 1.86319 1.30269C1.90978 1.24434 1.94796 1.13603 1.96138 0.998235C1.97232 0.885813 1.83978 0.713144 1.63804 0.713144C1.52022 0.713144 1.45287 0.725421 1.41601 0.737552C1.38614 0.747384 1.38123 0.755202 1.38088 0.755766C1.38087 0.755783 1.38086 0.755793 1.38086 0.755797C1.37706 0.760465 1.36443 0.778644 1.35066 0.832876C1.33732 0.885416 1.32753 0.951722 1.3163 1.04514C1.31903 1.20181 1.35923 1.26961 1.38498 1.29576C1.40505 1.31614 1.45917 1.35515 1.61426 1.34391L1.6547 1.34098ZM0.994263 1.02809C1.04255 0.618659 1.09083 0.398193 1.63804 0.398193C1.99359 0.398193 2.314 0.697397 2.28181 1.02809C2.24963 1.35879 2.08868 1.73673 1.63804 1.658C1.20349 1.68949 0.994263 1.45328 0.994263 1.02809Z" fill="white"/>
</svg>
