<svg width="4" height="3" viewBox="0 0 4 3" fill="none" xmlns="http://www.w3.org/2000/svg">
<path fill-rule="evenodd" clip-rule="evenodd" d="M1.88418 2.38833L1.95591 2.40105C2.07147 2.42155 2.13287 2.40689 2.16195 2.39585C2.19114 2.38477 2.223 2.36395 2.25876 2.31848C2.34246 2.21205 2.41106 2.01448 2.43516 1.76313C2.45482 1.55806 2.2167 1.24309 1.85424 1.24309C1.64257 1.24309 1.52157 1.26548 1.45535 1.28761C1.40168 1.30555 1.39287 1.31981 1.39223 1.32083C1.39221 1.32087 1.3922 1.32088 1.3922 1.32089C1.38537 1.32941 1.36268 1.36257 1.33794 1.46149C1.31398 1.55733 1.29639 1.67828 1.2762 1.84869C1.28111 2.13447 1.35333 2.25815 1.3996 2.30585C1.43566 2.34302 1.53289 2.41418 1.81152 2.39367L1.88418 2.38833ZM0.697632 1.8176C0.784378 1.07073 0.871124 0.668579 1.85424 0.668579C2.49302 0.668579 3.06869 1.21436 3.01086 1.8176C2.95303 2.42083 2.66387 3.11024 1.85424 2.96661C1.07353 3.02406 0.697632 2.59318 0.697632 1.8176Z" fill="#E9EDED"/>
</svg>
