<svg width="3" height="3" viewBox="0 0 3 3" fill="none" xmlns="http://www.w3.org/2000/svg">
<path fill-rule="evenodd" clip-rule="evenodd" d="M0.742144 1.5441L0.748418 1.61668C0.758525 1.73361 0.788582 1.78912 0.806772 1.81435C0.82503 1.83968 0.853383 1.86507 0.906554 1.88784C1.03103 1.94114 1.23962 1.95627 1.48864 1.91449C1.69182 1.8804 1.93442 1.56888 1.84061 1.21878C1.78583 1.01431 1.73288 0.903235 1.69437 0.845C1.66315 0.797802 1.64709 0.792977 1.64594 0.792629C1.6459 0.792618 1.64588 0.792612 1.64587 0.792608C1.63588 0.78822 1.59798 0.774888 1.49602 0.776596C1.39724 0.778251 1.27586 0.792565 1.10603 0.817172C0.831261 0.895875 0.730492 0.997648 0.696395 1.05468C0.669818 1.09914 0.626252 1.21147 0.718174 1.47531L0.742144 1.5441ZM0.986326 0.250268C1.73019 0.140757 2.14109 0.120461 2.39554 1.07008C2.56087 1.6871 2.18268 2.3844 1.58503 2.48467C0.987387 2.58494 0.246629 2.48407 0.175815 1.66486C-0.0817419 0.925616 0.237168 0.451005 0.986326 0.250268Z" fill="#E9EDED"/>
</svg>
