<svg width="2" height="2" viewBox="0 0 2 2" fill="none" xmlns="http://www.w3.org/2000/svg">
<path fill-rule="evenodd" clip-rule="evenodd" d="M0.912396 1.61357L0.927925 1.6358C0.952946 1.67161 0.972966 1.68391 0.983525 1.68866C0.994124 1.69343 1.00799 1.69633 1.02937 1.69378C1.07941 1.6878 1.14947 1.65385 1.22197 1.59404C1.28112 1.54524 1.30134 1.39966 1.20594 1.30427C1.15023 1.24855 1.11249 1.2226 1.08924 1.211C1.07039 1.20159 1.06432 1.20302 1.06388 1.20313C1.06387 1.20313 1.06386 1.20313 1.06385 1.20313C1.05982 1.20358 1.04512 1.20633 1.01257 1.22586C0.981036 1.24478 0.944572 1.27198 0.894408 1.31152C0.820481 1.38803 0.806939 1.43959 0.806562 1.46432C0.806269 1.4836 0.813131 1.52792 0.891865 1.59586L0.912396 1.61357ZM0.750312 1.15106C0.969718 0.977312 1.0984 0.894296 1.35716 1.15305C1.52528 1.32118 1.53315 1.61635 1.35916 1.7599C1.18516 1.90345 0.927604 2.0088 0.752311 1.7579C0.531706 1.56754 0.546177 1.35519 0.750312 1.15106Z" fill="#E9EDED"/>
</svg>
