<svg width="2" height="1" viewBox="0 0 2 1" fill="none" xmlns="http://www.w3.org/2000/svg">
<path fill-rule="evenodd" clip-rule="evenodd" d="M1.17473 0.559104L1.18657 0.576051C1.20565 0.603358 1.22091 0.612738 1.22897 0.616358C1.23705 0.619992 1.24762 0.62221 1.26392 0.620261C1.30208 0.615698 1.3555 0.589816 1.41078 0.544207C1.45588 0.506996 1.4713 0.395995 1.39856 0.323254C1.35608 0.280772 1.3273 0.260983 1.30957 0.252134C1.2952 0.244963 1.29057 0.246056 1.29024 0.246134C1.29023 0.246137 1.29022 0.246138 1.29022 0.246138C1.28714 0.246478 1.27593 0.24858 1.25111 0.263468C1.22707 0.277893 1.19926 0.298636 1.16101 0.328785C1.10464 0.387124 1.09432 0.426439 1.09403 0.445297C1.09381 0.459996 1.09904 0.493789 1.15907 0.545595L1.17473 0.559104ZM1.05114 0.20643C1.21844 0.0739492 1.31656 0.0106486 1.51386 0.207954C1.64206 0.336153 1.64806 0.561219 1.51539 0.670677C1.38272 0.780136 1.18633 0.860465 1.05266 0.669153C0.88445 0.523999 0.895484 0.362084 1.05114 0.20643Z" fill="#E9EDED"/>
</svg>
