<svg width="3" height="3" viewBox="0 0 3 3" fill="none" xmlns="http://www.w3.org/2000/svg">
<path fill-rule="evenodd" clip-rule="evenodd" d="M0.80673 1.65826L0.811435 1.71269C0.819016 1.80039 0.841558 1.84202 0.855201 1.86095C0.868894 1.87994 0.890159 1.89898 0.930038 1.91606C1.0234 1.95604 1.17984 1.96739 1.3666 1.93605C1.51898 1.91049 1.70094 1.67684 1.63058 1.41427C1.58949 1.26092 1.54978 1.17761 1.5209 1.13393C1.49749 1.09853 1.48544 1.09492 1.48457 1.09465C1.48455 1.09465 1.48453 1.09464 1.48453 1.09464C1.47703 1.09135 1.44861 1.08135 1.37214 1.08263C1.29805 1.08387 1.20702 1.09461 1.07965 1.11306C0.873568 1.17209 0.797991 1.24842 0.772419 1.29119C0.752485 1.32454 0.719811 1.40879 0.788753 1.60666L0.80673 1.65826ZM0.989867 0.687884C1.54776 0.605751 1.85594 0.590529 2.04678 1.30275C2.17078 1.76551 1.88713 2.28849 1.4389 2.36369C0.990662 2.43889 0.435094 2.36324 0.381983 1.74883C0.188816 1.1944 0.427998 0.838437 0.989867 0.687884Z" fill="#E9EDED"/>
</svg>
