<svg width="2" height="2" viewBox="0 0 2 2" fill="none" xmlns="http://www.w3.org/2000/svg">
<path fill-rule="evenodd" clip-rule="evenodd" d="M0.513771 1.33073L0.531077 1.3555C0.55896 1.39541 0.581271 1.40912 0.593039 1.41441C0.60485 1.41972 0.620302 1.42296 0.644125 1.42011C0.699897 1.41345 0.777967 1.37562 0.85876 1.30896C0.924677 1.25458 0.947218 1.09235 0.840906 0.986035C0.778818 0.923947 0.736759 0.895025 0.710846 0.882093C0.689843 0.871612 0.683074 0.873209 0.682586 0.873324C0.682571 0.873327 0.682562 0.873329 0.682559 0.87333C0.678059 0.873825 0.661678 0.876898 0.625406 0.898658C0.590265 0.919739 0.549629 0.950056 0.493725 0.994119C0.411339 1.07938 0.396248 1.13684 0.395828 1.1644C0.395501 1.18588 0.403149 1.23527 0.490891 1.31099L0.513771 1.33073ZM0.333143 0.815295C0.577652 0.621674 0.721054 0.529159 1.00942 0.817523C1.19678 1.00489 1.20555 1.33382 1.01165 1.4938C0.817746 1.65377 0.530719 1.77117 0.335371 1.49157C0.0895247 1.27943 0.105652 1.04279 0.333143 0.815295Z" fill="#E9EDED"/>
</svg>
