<svg width="2" height="1" viewBox="0 0 2 1" fill="none" xmlns="http://www.w3.org/2000/svg">
<path fill-rule="evenodd" clip-rule="evenodd" d="M0.634657 0.747988L0.647636 0.766565C0.668549 0.796497 0.685282 0.806778 0.694108 0.810746C0.702966 0.81473 0.714555 0.81716 0.732423 0.815024C0.774252 0.810023 0.832804 0.781652 0.893399 0.731659C0.942836 0.690871 0.959742 0.569199 0.880008 0.489465C0.833442 0.442899 0.801898 0.421208 0.782463 0.411509C0.766711 0.403648 0.761634 0.404845 0.761268 0.404932C0.761257 0.404934 0.76125 0.404936 0.761248 0.404936C0.757873 0.405308 0.745587 0.407612 0.718383 0.423932C0.692027 0.439743 0.66155 0.462481 0.619622 0.495528C0.557833 0.559475 0.546514 0.60257 0.5462 0.623241C0.545954 0.639353 0.55169 0.676394 0.617497 0.73318L0.634657 0.747988ZM0.499186 0.36141C0.682567 0.216194 0.790119 0.146808 1.00639 0.363081C1.14691 0.503604 1.15349 0.750306 1.00806 0.870287C0.862638 0.990268 0.647368 1.07832 0.500857 0.868616C0.316472 0.709509 0.328567 0.532028 0.499186 0.36141Z" fill="#E9EDED"/>
</svg>
