<svg width="1" height="2" viewBox="0 0 1 2" fill="none" xmlns="http://www.w3.org/2000/svg">
<path fill-rule="evenodd" clip-rule="evenodd" d="M0.330488 1.12409L0.345064 1.11881C0.36855 1.11028 0.378308 1.10105 0.382494 1.09592C0.386695 1.09077 0.390354 1.08354 0.392106 1.07135C0.396209 1.04282 0.387827 0.999098 0.365517 0.950197C0.347315 0.9103 0.269895 0.87758 0.203077 0.916157C0.164055 0.938686 0.144133 0.955693 0.134281 0.96682C0.126296 0.975839 0.126189 0.979406 0.126181 0.979663C0.126181 0.979671 0.126181 0.979676 0.12618 0.979677C0.125828 0.981974 0.125175 0.990502 0.131144 1.01137C0.136926 1.03159 0.146557 1.05576 0.160973 1.08932C0.192294 1.14148 0.218771 1.1566 0.232377 1.16046C0.242982 1.16348 0.268479 1.16625 0.317663 1.13281L0.330488 1.12409ZM0.0510048 1.14517C-0.0124948 0.998254 -0.0393062 0.914884 0.14193 0.810247C0.259688 0.74226 0.4239 0.781604 0.477444 0.898964C0.530987 1.01632 0.551058 1.17419 0.386518 1.23389C0.24871 1.32757 0.133553 1.28815 0.0510048 1.14517Z" fill="#E9EDED"/>
</svg>
