<svg width="2" height="1" viewBox="0 0 2 1" fill="none" xmlns="http://www.w3.org/2000/svg">
<path fill-rule="evenodd" clip-rule="evenodd" d="M1.08049 0.374093L1.09506 0.368805C1.11855 0.360285 1.12831 0.351046 1.13249 0.345916C1.1367 0.340767 1.14035 0.333538 1.14211 0.321351C1.14621 0.29282 1.13783 0.249098 1.11552 0.200197C1.09731 0.1603 1.01989 0.12758 0.953077 0.166157C0.914055 0.188686 0.894133 0.205693 0.884281 0.21682C0.876296 0.225839 0.876189 0.229406 0.876181 0.229663C0.876181 0.229671 0.876181 0.229676 0.87618 0.229677C0.875828 0.231974 0.875175 0.240502 0.881144 0.261371C0.886926 0.28159 0.896557 0.305759 0.910973 0.339322C0.942294 0.391483 0.968771 0.406596 0.982377 0.410464C0.992982 0.41348 1.01848 0.416248 1.06766 0.382812L1.08049 0.374093ZM0.801005 0.395169C0.737505 0.248254 0.710694 0.164884 0.89193 0.0602473C1.00969 -0.00774023 1.1739 0.0316039 1.22744 0.148964C1.28099 0.266324 1.30106 0.424191 1.13652 0.483886C0.99871 0.577571 0.883553 0.538147 0.801005 0.395169Z" fill="#E9EDED"/>
</svg>
