<svg width="2" height="2" viewBox="0 0 2 2" fill="none" xmlns="http://www.w3.org/2000/svg">
<path fill-rule="evenodd" clip-rule="evenodd" d="M0.513649 1.33073L0.530955 1.3555C0.558838 1.39541 0.581149 1.40912 0.592917 1.41441C0.604728 1.41972 0.62018 1.42296 0.644003 1.42011C0.699775 1.41345 0.777845 1.37562 0.858638 1.30896C0.924555 1.25458 0.947096 1.09235 0.840784 0.986035C0.778696 0.923947 0.736637 0.895025 0.710724 0.882093C0.689721 0.871612 0.682952 0.873209 0.682464 0.873324C0.682449 0.873327 0.68244 0.873329 0.682437 0.87333C0.677937 0.873825 0.661556 0.876898 0.625283 0.898658C0.590143 0.919739 0.549507 0.950056 0.493603 0.994119C0.411217 1.07938 0.396126 1.13684 0.395706 1.1644C0.395379 1.18588 0.403027 1.23527 0.490769 1.31099L0.513649 1.33073ZM0.333021 0.815295C0.57753 0.621674 0.720932 0.529159 1.0093 0.817523C1.19666 1.00489 1.20542 1.33382 1.01152 1.4938C0.817624 1.65377 0.530597 1.77117 0.335249 1.49157C0.0894027 1.27943 0.10553 1.04279 0.333021 0.815295Z" fill="#E9EDED"/>
</svg>
