<svg width="12" height="13" viewBox="0 0 12 13" fill="none" xmlns="http://www.w3.org/2000/svg">
<path d="M6 9C6.11667 9 6.21458 8.96042 6.29375 8.88125C6.37292 8.80208 6.4125 8.70417 6.4125 8.5875C6.4125 8.47083 6.37292 8.37292 6.29375 8.29375C6.21458 8.21458 6.11667 8.175 6 8.175C5.88333 8.175 5.78542 8.21458 5.70625 8.29375C5.62708 8.37292 5.5875 8.47083 5.5875 8.5875C5.5875 8.70417 5.62708 8.80208 5.70625 8.88125C5.78542 8.96042 5.88333 9 6 9ZM5.6625 7.0875H6.4125V3.925H5.6625V7.0875ZM6 11.5C5.31667 11.5 4.67083 11.3687 4.0625 11.1062C3.45417 10.8438 2.92292 10.4854 2.46875 10.0312C2.01458 9.57708 1.65625 9.04583 1.39375 8.4375C1.13125 7.82917 1 7.17917 1 6.4875C1 5.80417 1.13125 5.15833 1.39375 4.55C1.65625 3.94167 2.01458 3.4125 2.46875 2.9625C2.92292 2.5125 3.45417 2.15625 4.0625 1.89375C4.67083 1.63125 5.32083 1.5 6.0125 1.5C6.69583 1.5 7.34167 1.63125 7.95 1.89375C8.55833 2.15625 9.0875 2.5125 9.5375 2.9625C9.9875 3.4125 10.3438 3.94167 10.6062 4.55C10.8687 5.15833 11 5.80833 11 6.5C11 7.18333 10.8687 7.82917 10.6062 8.4375C10.3438 9.04583 9.9875 9.57708 9.5375 10.0312C9.0875 10.4854 8.55833 10.8438 7.95 11.1062C7.34167 11.3687 6.69167 11.5 6 11.5ZM6.0125 10.75C7.1875 10.75 8.1875 10.3354 9.0125 9.50625C9.8375 8.67708 10.25 7.67083 10.25 6.4875C10.25 5.3125 9.8375 4.3125 9.0125 3.4875C8.1875 2.6625 7.18333 2.25 6 2.25C4.825 2.25 3.82292 2.6625 2.99375 3.4875C2.16458 4.3125 1.75 5.31667 1.75 6.5C1.75 7.675 2.16458 8.67708 2.99375 9.50625C3.82292 10.3354 4.82917 10.75 6.0125 10.75Z" fill="#B60B0B"/>
</svg>
