<svg width="44" height="44" viewBox="0 0 44 44" fill="none" xmlns="http://www.w3.org/2000/svg">
<path d="M36.4618 7.27317C38.5777 9.34 39.6468 12.1827 39.7441 15.3657L36.5247 18.6616C36.9481 15.187 36.1176 12.0171 33.9224 9.87286C30.2062 6.24289 23.6428 6.59203 17.7178 10.3006L35.773 27.9367C35.1189 28.9371 34.3868 29.9198 33.5787 30.8734L12.9358 10.7097C20.8912 3.63984 31.0935 2.02958 36.4618 7.27317Z" fill="#25474F"/>
<path d="M7.51336 36.9096C5.3974 34.8428 4.32836 32.0001 4.23106 28.8171L7.45042 25.5212C7.02704 28.9957 7.85753 32.1657 10.0527 34.3099C13.7689 37.9399 20.3324 37.5908 26.2573 33.8822L8.20212 16.2461C8.85624 15.2457 9.58834 14.2629 10.3965 13.3094L31.0393 33.4731C23.084 40.543 12.8816 42.1532 7.51336 36.9096Z" fill="#25474F"/>
</svg>
