<svg width="60" height="60" viewBox="0 0 60 60" fill="none" xmlns="http://www.w3.org/2000/svg">
<path d="M8.73938 40.353C8.73938 39.397 9.49815 38.622 10.4341 38.622H15.5184C16.4543 38.622 17.2131 39.397 17.2131 40.353V55.5H8.73938V40.353Z" fill="#333333"/>
<path d="M19.9671 36.8909C19.9671 35.9348 20.7258 35.1598 21.6618 35.1598H26.746C27.682 35.1598 28.4408 35.9348 28.4408 36.8909V55.5H19.9671V36.8909Z" fill="#333333"/>
<path d="M31.1947 31.2649C31.1947 30.3088 31.9535 29.5338 32.8895 29.5338H37.9737C38.9097 29.5338 39.6684 30.3088 39.6684 31.2649V55.5H31.1947V31.2649Z" fill="#333333"/>
<path d="M42.4224 20.0129C42.4224 19.0568 43.1812 18.2818 44.1171 18.2818H49.2014C50.1373 18.2818 50.8961 19.0568 50.8961 20.0129V55.5H42.4224V20.0129Z" fill="#333333"/>
<path fill-rule="evenodd" clip-rule="evenodd" d="M51.683 5.43153C51.6331 4.8685 51.1523 4.45333 50.609 4.50422L50.5195 4.51261C50.4229 4.5082 50.326 4.51727 50.2317 4.53956L41.7562 5.33348C41.2129 5.38437 40.813 5.88204 40.8628 6.44506C40.9127 7.00809 41.3935 7.42326 41.9368 7.37237L47.4046 6.86019C47.5776 6.84398 47.7506 6.84729 47.9208 6.86934C42.6589 12.3973 35.5411 16.3347 28.5094 19.0309C20.6801 22.033 13.0618 23.4566 8.47144 23.8468C7.88846 23.8963 7.4552 24.4192 7.50371 25.0147C7.55222 25.6102 8.06414 26.0527 8.64711 26.0032C13.4215 25.5974 21.232 24.1327 29.254 21.0567C36.5542 18.2575 44.1163 14.0908 49.7081 8.09287C49.8835 8.40478 49.9939 8.75597 50.0265 9.12398L50.5285 14.7908C50.5784 15.3538 51.0592 15.769 51.6025 15.7181C52.1457 15.6672 52.5457 15.1696 52.4958 14.6065L51.683 5.43153Z" fill="#333333"/>
</svg>
