<svg width="60" height="61" viewBox="0 0 60 61" fill="none" xmlns="http://www.w3.org/2000/svg">
<path d="M53.3311 28.8497L49.9792 18.213C49.7074 18.362 49.4734 18.578 49.2771 18.861C49.0809 19.1441 48.9827 19.4644 48.9827 19.8219V28.8497C48.9827 29.6541 48.9525 30.2947 48.8921 30.7714C48.8317 31.2481 48.7109 31.7397 48.5298 32.2462L47.6691 34.7937C47.5182 35.2704 47.2162 35.613 46.7632 35.8216C46.3103 36.0301 45.8422 36.0599 45.3591 35.911C44.8759 35.762 44.5211 35.4715 44.2946 35.0395C44.0682 34.6074 44.0304 34.1531 44.1814 33.6764L44.8155 31.7993C44.9665 31.2928 45.0873 30.7193 45.1779 30.0787C45.2685 29.4381 45.3289 28.5666 45.3591 27.4642V26.9726C45.0269 26.9726 44.7098 27.0694 44.4079 27.2631C44.1059 27.4568 43.9096 27.6877 43.819 27.9558L39.9236 38.4137V41.274H49.8886L53.3311 28.8497ZM56.8641 29.7882L53.6028 41.274C54.388 41.5123 55.0221 41.9816 55.5053 42.6818C55.9884 43.3819 56.23 44.1045 56.23 44.8493V48.4247C56.23 49.4079 55.8752 50.2496 55.1655 50.9497C54.4559 51.6499 53.6028 52 52.6063 52H39.9236C38.9271 52 38.0741 51.6499 37.3644 50.9497C36.6548 50.2496 36.3 49.4079 36.3 48.4247V38.4137C36.3 38.2051 36.3226 37.9966 36.3679 37.788C36.4132 37.5795 36.4661 37.3858 36.5265 37.207L40.4672 26.7045C40.8295 25.7212 41.4637 24.9242 42.3696 24.3134C43.2755 23.7027 44.272 23.3973 45.3591 23.3973V19.8219C45.3591 18.3322 45.8573 17.0659 46.8538 16.0231C47.8503 14.9803 49.1639 14.4589 50.7945 14.4589C51.4589 14.4589 51.9798 14.6302 52.3572 14.9729C52.7347 15.3155 53.0442 15.8443 53.2858 16.5594L56.8188 27.7324C56.9396 28.0601 57 28.4027 57 28.7603C57 29.1178 56.9547 29.4604 56.8641 29.7882ZM52.6063 48.4247V44.8493H39.9236V48.4247H52.6063Z" fill="#333333"/>
<path d="M6.61575 28.8497L9.91904 18.213C10.1869 18.362 10.4175 18.578 10.6109 18.861C10.8044 19.1441 10.9011 19.4644 10.9011 19.8219V28.8497C10.9011 29.6541 10.9309 30.2947 10.9904 30.7714C11.0499 31.2481 11.1689 31.7397 11.3475 32.2462L12.1956 34.7937C12.3444 35.2704 12.642 35.613 13.0884 35.8216C13.5348 36.0301 13.9961 36.0599 14.4722 35.911C14.9484 35.762 15.298 35.4715 15.5212 35.0395C15.7444 34.6074 15.7816 34.1531 15.6328 33.6764L15.0079 31.7993C14.8591 31.2928 14.74 30.7193 14.6508 30.0787C14.5615 29.4381 14.502 28.5666 14.4722 27.4642V26.9726C14.7996 26.9726 15.112 27.0694 15.4096 27.2631C15.7072 27.4568 15.9007 27.6877 15.9899 27.9558L19.8289 38.4137V41.274H10.0083L6.61575 28.8497ZM3.13391 29.7882L6.34792 41.274C5.57418 41.5123 4.94923 41.9816 4.47308 42.6818C3.99693 43.3819 3.75886 44.1045 3.75886 44.8493V48.4247C3.75886 49.4079 4.10853 50.2496 4.80788 50.9497C5.50722 51.6499 6.34792 52 7.32998 52H19.8289C20.8109 52 21.6516 51.6499 22.351 50.9497C23.0503 50.2496 23.4 49.4079 23.4 48.4247V38.4137C23.4 38.2051 23.3777 37.9966 23.333 37.788C23.2884 37.5795 23.2363 37.3858 23.1768 37.207L19.2932 26.7045C18.9361 25.7212 18.3112 24.9242 17.4184 24.3134C16.5256 23.7027 15.5435 23.3973 14.4722 23.3973V19.8219C14.4722 18.3322 13.9812 17.0659 12.9991 16.0231C12.0171 14.9803 10.7225 14.4589 9.11553 14.4589C8.46083 14.4589 7.94748 14.6302 7.57549 14.9729C7.2035 15.3155 6.89847 15.8443 6.66039 16.5594L3.17855 27.7324C3.05952 28.0601 3 28.4027 3 28.7603C3 29.1178 3.04464 29.4604 3.13391 29.7882ZM7.32998 48.4247V44.8493H19.8289V48.4247H7.32998Z" fill="#333333"/>
<path d="M32.715 19.5389H36.135C36.8475 19.5389 37.4531 19.2912 37.9519 18.7959C38.4506 18.3005 38.7 17.6991 38.7 16.9914C38.7 16.2838 38.4506 15.6823 37.9519 15.187C37.4531 14.6917 36.8475 14.444 36.135 14.444H32.715V11.0474C32.715 10.3398 32.4656 9.73833 31.9669 9.243C31.4681 8.74767 30.8625 8.5 30.15 8.5C29.4375 8.5 28.8319 8.74767 28.3331 9.243C27.8344 9.73833 27.585 10.3398 27.585 11.0474V14.444H24.165C23.4525 14.444 22.8469 14.6917 22.3481 15.187C21.8494 15.6823 21.6 16.2838 21.6 16.9914C21.6 17.6991 21.8494 18.3005 22.3481 18.7959C22.8469 19.2912 23.4525 19.5389 24.165 19.5389H27.585V22.9354C27.585 23.6431 27.8344 24.2445 28.3331 24.7399C28.8319 25.2352 29.4375 25.4829 30.15 25.4829C30.8625 25.4829 31.4681 25.2352 31.9669 24.7399C32.4656 24.2445 32.715 23.6431 32.715 22.9354V19.5389Z" fill="#333333"/>
</svg>
