<svg width="80" height="80" viewBox="0 0 80 80" fill="none" xmlns="http://www.w3.org/2000/svg">
<path d="M71.1081 38.1329L66.639 23.9507C66.2766 24.1493 65.9646 24.4373 65.7029 24.8147C65.4411 25.1921 65.3103 25.6192 65.3103 26.0959V38.1329C65.3103 39.2055 65.27 40.0596 65.1895 40.6952C65.109 41.3308 64.9479 41.9863 64.7063 42.6616L63.5589 46.0582C63.3576 46.6938 62.9549 47.1507 62.351 47.4288C61.7471 47.7068 61.123 47.7466 60.4788 47.5479C59.8346 47.3493 59.3615 46.962 59.0595 46.386C58.7576 45.8099 58.7072 45.2041 58.9085 44.5685L59.754 42.0658C59.9554 41.3904 60.1164 40.6257 60.2372 39.7716C60.358 38.9175 60.4385 37.7555 60.4788 36.2856V35.6301C60.0359 35.6301 59.6131 35.7592 59.2105 36.0175C58.8079 36.2757 58.5462 36.5836 58.4254 36.9411L53.2315 50.8849V54.6986H66.5182L71.1081 38.1329ZM75.8188 39.3842L71.4705 54.6986C72.5173 55.0164 73.3628 55.6421 74.007 56.5757C74.6512 57.5092 74.9733 58.4726 74.9733 59.4658V64.2329C74.9733 65.5438 74.5002 66.6661 73.5541 67.5997C72.6079 68.5332 71.4705 69 70.1418 69H53.2315C51.9028 69 50.7654 68.5332 49.8193 67.5997C48.8731 66.6661 48.4 65.5438 48.4 64.2329V50.8849C48.4 50.6068 48.4302 50.3288 48.4906 50.0507C48.551 49.7726 48.6214 49.5144 48.702 49.276L53.9562 35.2726C54.4394 33.9616 55.2849 32.899 56.4928 32.0846C57.7007 31.2702 59.0293 30.863 60.4788 30.863V26.0959C60.4788 24.1096 61.1431 22.4212 62.4718 21.0308C63.8004 19.6404 65.5519 18.9452 67.726 18.9452C68.6118 18.9452 69.3064 19.1736 69.8096 19.6305C70.3129 20.0873 70.7256 20.7925 71.0477 21.7459L75.7584 36.6432C75.9195 37.0801 76 37.537 76 38.0137C76 38.4904 75.9396 38.9473 75.8188 39.3842ZM70.1418 64.2329V59.4658H53.2315V64.2329H70.1418Z" fill="#333333"/>
<path d="M8.82101 38.1329L13.2254 23.9507C13.5825 24.1493 13.89 24.4373 14.1479 24.8147C14.4058 25.1921 14.5348 25.6192 14.5348 26.0959V38.1329C14.5348 39.2055 14.5745 40.0596 14.6538 40.6952C14.7332 41.3308 14.8919 41.9863 15.13 42.6616L16.2608 46.0582C16.4592 46.6938 16.856 47.1507 17.4512 47.4288C18.0464 47.7068 18.6614 47.7466 19.2963 47.5479C19.9311 47.3493 20.3974 46.962 20.695 46.386C20.9926 45.8099 21.0422 45.2041 20.8438 44.5685L20.0105 42.0658C19.8121 41.3904 19.6534 40.6257 19.5344 39.7716C19.4153 38.9175 19.336 37.7555 19.2963 36.2856V35.6301C19.7327 35.6301 20.1494 35.7592 20.5462 36.0175C20.943 36.2757 21.2009 36.5836 21.3199 36.9411L26.4385 50.8849V54.6986H13.3444L8.82101 38.1329ZM4.17855 39.3842L8.4639 54.6986C7.43224 55.0164 6.59898 55.6421 5.96411 56.5757C5.32925 57.5092 5.01181 58.4726 5.01181 59.4658V64.2329C5.01181 65.5438 5.47804 66.6661 6.4105 67.5997C7.34296 68.5332 8.46389 69 9.7733 69H26.4385C27.7479 69 28.8689 68.5332 29.8013 67.5997C30.7338 66.6661 31.2 65.5438 31.2 64.2329V50.8849C31.2 50.6068 31.1702 50.3288 31.1107 50.0507C31.0512 49.7726 30.9818 49.5144 30.9024 49.276L25.7243 35.2726C25.2481 33.9616 24.4149 32.899 23.2245 32.0846C22.0341 31.2702 20.7247 30.863 19.2963 30.863V26.0959C19.2963 24.1096 18.6416 22.4212 17.3322 21.0308C16.0228 19.6404 14.2967 18.9452 12.154 18.9452C11.2811 18.9452 10.5966 19.1736 10.1007 19.6305C9.60467 20.0873 9.19796 20.7925 8.88052 21.7459L4.23807 36.6432C4.07935 37.0801 4 37.537 4 38.0137C4 38.4904 4.05952 38.9473 4.17855 39.3842ZM9.7733 64.2329V59.4658H26.4385V64.2329H9.7733Z" fill="#333333"/>
<path d="M43.62 25.7185H48.18C49.13 25.7185 49.9375 25.3883 50.6025 24.7278C51.2675 24.0674 51.6 23.2654 51.6 22.3219C51.6 21.3784 51.2675 20.5765 50.6025 19.916C49.9375 19.2556 49.13 18.9253 48.18 18.9253H43.62V14.3966C43.62 13.4531 43.2875 12.6511 42.6225 11.9907C41.9575 11.3302 41.15 11 40.2 11C39.25 11 38.4425 11.3302 37.7775 11.9907C37.1125 12.6511 36.78 13.4531 36.78 14.3966V18.9253H32.22C31.27 18.9253 30.4625 19.2556 29.7975 19.916C29.1325 20.5765 28.8 21.3784 28.8 22.3219C28.8 23.2654 29.1325 24.0674 29.7975 24.7278C30.4625 25.3883 31.27 25.7185 32.22 25.7185H36.78V30.2473C36.78 31.1908 37.1125 31.9927 37.7775 32.6532C38.4425 33.3136 39.25 33.6438 40.2 33.6438C41.15 33.6438 41.9575 33.3136 42.6225 32.6532C43.2875 31.9927 43.62 31.1908 43.62 30.2473V25.7185Z" fill="#333333"/>
</svg>
