<svg width="60" height="60" viewBox="0 0 60 60" fill="none" xmlns="http://www.w3.org/2000/svg">
<path d="M12.0474 41.0132L11.0587 40.1566C8.91646 38.2803 7.4128 36.1388 6.54768 33.7322C5.68256 31.3257 5.25 28.8987 5.25 26.4513C5.25 22.6171 6.22841 19.1398 8.18522 16.0194C10.142 12.899 12.7889 10.5026 16.1258 8.83026C16.7025 8.50395 17.3205 8.48355 17.9796 8.76908C18.6387 9.05461 19.0713 9.52368 19.2773 10.1763C19.4833 10.7882 19.473 11.4 19.2464 12.0118C19.0198 12.6237 18.6181 13.0928 18.0414 13.4191C15.652 14.7243 13.7467 16.5293 12.3254 18.8339C10.9042 21.1385 10.1935 23.6776 10.1935 26.4513C10.1935 28.2868 10.5437 30.0714 11.244 31.8049C11.9444 33.5385 13.0361 35.1395 14.5191 36.6079L15.1371 37.2197V33.6711C15.1371 32.9776 15.3739 32.3964 15.8477 31.9273C16.3215 31.4582 16.9085 31.2237 17.6088 31.2237C18.3092 31.2237 18.8962 31.4582 19.37 31.9273C19.8437 32.3964 20.0806 32.9776 20.0806 33.6711V43.4605C20.0806 44.1539 19.8437 44.7352 19.37 45.2043C18.8962 45.6734 18.3092 45.9079 17.6088 45.9079H7.72177C7.02143 45.9079 6.43439 45.6734 5.96063 45.2043C5.48688 44.7352 5.25 44.1539 5.25 43.4605C5.25 42.7671 5.48688 42.1859 5.96063 41.7168C6.43439 41.2477 7.02143 41.0132 7.72177 41.0132H12.0474ZM39.8547 15.4382V18.9868C39.8547 19.6803 39.6179 20.2615 39.1441 20.7306C38.6704 21.1997 38.0833 21.4342 37.383 21.4342C36.6826 21.4342 36.0956 21.1997 35.6218 20.7306C35.1481 20.2615 34.9112 19.6803 34.9112 18.9868V9.19737C34.9112 8.50395 35.1481 7.9227 35.6218 7.45362C36.0956 6.98454 36.6826 6.75 37.383 6.75H47.2701C47.9704 6.75 48.5574 6.98454 49.0312 7.45362C49.5049 7.9227 49.7418 8.50395 49.7418 9.19737C49.7418 9.89079 49.5049 10.472 49.0312 10.9411C48.5574 11.4102 47.9704 11.6447 47.2701 11.6447H42.9445L43.9332 12.5013C45.6222 14.2145 46.9199 16.0296 47.8262 17.9467C48.7325 19.8638 49.3093 21.8421 49.5564 23.8816H44.5511C44.3451 22.4539 43.9023 21.0875 43.2225 19.7822C42.5428 18.477 41.6262 17.2329 40.4727 16.05L39.8547 15.4382ZM40.8435 53.25C40.5139 53.25 40.2564 53.1582 40.071 52.9747C39.8856 52.7911 39.7518 52.5566 39.6694 52.2711L39.1132 49.5789C38.6189 49.375 38.1554 49.1609 37.7228 48.9365C37.2903 48.7122 36.8474 48.4368 36.3943 48.1105L33.7371 48.9059C33.4488 48.9875 33.181 48.9773 32.9338 48.8753C32.6866 48.7734 32.4806 48.6 32.3159 48.3553L30.8328 45.9079C30.668 45.6632 30.6268 45.398 30.7092 45.1125C30.7916 44.827 30.9358 44.5822 31.1418 44.3783L33.181 42.6039C33.0986 42.0329 33.0574 41.5026 33.0574 41.0132C33.0574 40.5237 33.0986 39.9934 33.181 39.4224L31.1418 37.648C30.9358 37.4441 30.7916 37.1993 30.7092 36.9138C30.6268 36.6283 30.668 36.3632 30.8328 36.1184L32.3159 33.6711C32.4806 33.4263 32.6866 33.253 32.9338 33.151C33.181 33.049 33.4488 33.0388 33.7371 33.1204L36.3943 33.9158C36.8474 33.5895 37.2903 33.3141 37.7228 33.0898C38.1554 32.8655 38.6189 32.6513 39.1132 32.4474L39.6694 29.7553C39.7518 29.4697 39.8856 29.2352 40.071 29.0516C40.2564 28.8681 40.5139 28.7763 40.8435 28.7763H43.8096C44.1391 28.7763 44.3966 28.8681 44.582 29.0516C44.7674 29.2352 44.9013 29.4697 44.9837 29.7553L45.5398 32.4474C46.0342 32.6513 46.4976 32.8757 46.9302 33.1204C47.3627 33.3651 47.8056 33.6711 48.2588 34.0382L50.8541 33.1204C51.1425 33.0388 51.4206 33.049 51.6883 33.151C51.9561 33.253 52.1724 33.4263 52.3372 33.6711L53.8202 36.2408C53.985 36.4855 54.0365 36.7507 53.9747 37.0362C53.9129 37.3217 53.779 37.5664 53.5731 37.7704L51.4721 39.5447C51.5544 40.0342 51.5956 40.5441 51.5956 41.0743C51.5956 41.6046 51.5544 42.1145 51.4721 42.6039L53.5113 44.3783C53.7172 44.5822 53.8614 44.827 53.9438 45.1125C54.0262 45.398 53.985 45.6632 53.8202 45.9079L52.3372 48.3553C52.1724 48.6 51.9664 48.7734 51.7192 48.8753C51.4721 48.9773 51.2043 48.9875 50.9159 48.9059L48.2588 48.1105C47.8056 48.4368 47.3627 48.7122 46.9302 48.9365C46.4976 49.1609 46.0342 49.375 45.5398 49.5789L44.9837 52.2711C44.9013 52.5566 44.7674 52.7911 44.582 52.9747C44.3966 53.1582 44.1391 53.25 43.8096 53.25H40.8435ZM42.3265 45.9079C43.686 45.9079 44.8498 45.4286 45.8179 44.4701C46.786 43.5115 47.2701 42.3592 47.2701 41.0132C47.2701 39.6671 46.786 38.5148 45.8179 37.5563C44.8498 36.5977 43.686 36.1184 42.3265 36.1184C40.967 36.1184 39.8033 36.5977 38.8351 37.5563C37.867 38.5148 37.383 39.6671 37.383 41.0132C37.383 42.3592 37.867 43.5115 38.8351 44.4701C39.8033 45.4286 40.967 45.9079 42.3265 45.9079Z" fill="#333333"/>
</svg>
