<svg width="32" height="32" viewBox="0 0 32 32" fill="none" xmlns="http://www.w3.org/2000/svg">
<path d="M26.5177 5.2896C28.0565 6.79275 28.834 8.86016 28.9048 11.1751L26.5634 13.5721C26.8714 11.0451 26.2674 8.7397 24.6709 7.18028C21.9682 4.54031 17.1948 4.79422 12.8857 7.4914L26.0168 20.3176C25.541 21.0452 25.0086 21.7599 24.4209 22.4534L9.40787 7.78892C15.1936 2.64718 22.6135 1.47608 26.5177 5.2896Z" fill="#25474F"/>
<path d="M5.46429 26.8434C3.92541 25.3402 3.14792 23.2728 3.07716 20.9579L5.41851 18.5609C5.1106 21.0878 5.71459 23.3933 7.31107 24.9527C10.0138 27.5927 14.7872 27.3388 19.0963 24.6416L5.9652 11.8154C6.44092 11.0878 6.97336 10.3731 7.56108 9.6796L22.5741 24.3441C16.7884 29.4858 9.36845 30.6569 5.46429 26.8434Z" fill="#25474F"/>
</svg>
