<svg width="80" height="80" viewBox="0 0 80 80" fill="none" xmlns="http://www.w3.org/2000/svg">
<g id="Frame 3326">
<g id="Group 495">
<circle id="Ellipse 37" cx="53.4671" cy="41.7052" r="20.4376" fill="#E9EDED" stroke="#25474F" stroke-width="2.72502"/>
<circle id="Ellipse 38" cx="53.4626" cy="41.7051" r="3.27002" fill="#25474F"/>
<circle id="Ellipse 39" cx="53.464" cy="25.3551" r="1.09001" fill="#25474F"/>
<circle id="Ellipse 40" cx="53.464" cy="58.0551" r="1.09001" fill="#25474F"/>
<circle id="Ellipse 41" cx="69.8177" cy="41.7052" r="1.09001" fill="#25474F"/>
<circle id="Ellipse 42" cx="37.1154" cy="41.7052" r="1.09001" fill="#25474F"/>
<path id="Rectangle 301" d="M61.7224 32.1208C62.1481 31.6952 62.8382 31.6952 63.2639 32.1208C63.6896 32.5465 63.6896 33.2367 63.2639 33.6624L55.5564 41.3699L54.0149 39.8284L61.7224 32.1208Z" fill="#25474F"/>
<path id="Rectangle 302" d="M52.374 17.7249H54.554V22.0849H52.374V17.7249Z" fill="#25474F"/>
<rect id="Rectangle 303" x="56.7412" y="15" width="2.18001" height="6.54004" rx="1.09001" transform="rotate(90 56.7412 15)" fill="#25474F"/>
</g>
<g id="Group 496">
<rect id="Rectangle 304" x="5" y="30" width="23.3333" height="3.33333" rx="1.66667" fill="#25474F"/>
<rect id="Rectangle 305" x="1.66699" y="38.3333" width="23.3333" height="3.33333" rx="1.66667" fill="#25474F"/>
<rect id="Rectangle 306" x="5" y="46.6667" width="23.3333" height="3.33333" rx="1.66667" fill="#25474F"/>
</g>
</g>
</svg>
