<svg width="60" height="60" viewBox="0 0 60 60" fill="none" xmlns="http://www.w3.org/2000/svg">
<path d="M53.3311 28.5997L49.9792 17.963C49.7074 18.112 49.4734 18.328 49.2771 18.611C49.0809 18.8941 48.9827 19.2144 48.9827 19.5719V28.5997C48.9827 29.4041 48.9525 30.0447 48.8921 30.5214C48.8317 30.9981 48.7109 31.4897 48.5298 31.9962L47.6691 34.5437C47.5182 35.0204 47.2162 35.363 46.7632 35.5716C46.3103 35.7801 45.8422 35.8099 45.3591 35.661C44.8759 35.512 44.5211 35.2215 44.2946 34.7895C44.0682 34.3574 44.0304 33.9031 44.1814 33.4264L44.8155 31.5493C44.9665 31.0428 45.0873 30.4693 45.1779 29.8287C45.2685 29.1881 45.3289 28.3166 45.3591 27.2142V26.7226C45.0269 26.7226 44.7099 26.8194 44.4079 27.0131C44.1059 27.2068 43.9096 27.4377 43.819 27.7058L39.9236 38.1637V41.024H49.8886L53.3311 28.5997ZM56.8641 29.5382L53.6028 41.024C54.388 41.2623 55.0221 41.7316 55.5053 42.4318C55.9884 43.1319 56.23 43.8545 56.23 44.5993V48.1747C56.23 49.1579 55.8752 49.9996 55.1655 50.6997C54.4559 51.3999 53.6028 51.75 52.6063 51.75H39.9236C38.9271 51.75 38.0741 51.3999 37.3644 50.6997C36.6548 49.9996 36.3 49.1579 36.3 48.1747V38.1637C36.3 37.9551 36.3227 37.7466 36.3679 37.538C36.4132 37.3295 36.4661 37.1358 36.5265 36.957L40.4672 26.4545C40.8295 25.4712 41.4637 24.6742 42.3696 24.0634C43.2755 23.4527 44.272 23.1473 45.3591 23.1473V19.5719C45.3591 18.0822 45.8573 16.8159 46.8538 15.7731C47.8503 14.7303 49.1639 14.2089 50.7945 14.2089C51.4589 14.2089 51.9798 14.3802 52.3572 14.7229C52.7347 15.0655 53.0442 15.5943 53.2858 16.3094L56.8188 27.4824C56.9396 27.8101 57 28.1527 57 28.5103C57 28.8678 56.9547 29.2104 56.8641 29.5382ZM52.6063 48.1747V44.5993H39.9236V48.1747H52.6063Z" fill="#333333"/>
<path d="M6.61575 28.5997L9.91904 17.963C10.1869 18.112 10.4175 18.328 10.6109 18.611C10.8044 18.8941 10.9011 19.2144 10.9011 19.5719V28.5997C10.9011 29.4041 10.9309 30.0447 10.9904 30.5214C11.0499 30.9981 11.1689 31.4897 11.3475 31.9962L12.1956 34.5437C12.3444 35.0204 12.642 35.363 13.0884 35.5716C13.5348 35.7801 13.9961 35.8099 14.4722 35.661C14.9484 35.512 15.298 35.2215 15.5212 34.7895C15.7444 34.3574 15.7816 33.9031 15.6328 33.4264L15.0079 31.5493C14.8591 31.0428 14.74 30.4693 14.6508 29.8287C14.5615 29.1881 14.502 28.3166 14.4722 27.2142V26.7226C14.7996 26.7226 15.112 26.8194 15.4096 27.0131C15.7072 27.2068 15.9007 27.4377 15.9899 27.7058L19.8289 38.1637V41.024H10.0083L6.61575 28.5997ZM3.13391 29.5382L6.34792 41.024C5.57418 41.2623 4.94923 41.7316 4.47308 42.4318C3.99693 43.1319 3.75886 43.8545 3.75886 44.5993V48.1747C3.75886 49.1579 4.10853 49.9996 4.80788 50.6997C5.50722 51.3999 6.34792 51.75 7.32998 51.75H19.8289C20.8109 51.75 21.6516 51.3999 22.351 50.6997C23.0503 49.9996 23.4 49.1579 23.4 48.1747V38.1637C23.4 37.9551 23.3777 37.7466 23.333 37.538C23.2884 37.3295 23.2363 37.1358 23.1768 36.957L19.2932 26.4545C18.9361 25.4712 18.3112 24.6742 17.4184 24.0634C16.5256 23.4527 15.5435 23.1473 14.4722 23.1473V19.5719C14.4722 18.0822 13.9812 16.8159 12.9991 15.7731C12.0171 14.7303 10.7225 14.2089 9.11553 14.2089C8.46083 14.2089 7.94748 14.3802 7.57549 14.7229C7.2035 15.0655 6.89847 15.5943 6.66039 16.3094L3.17855 27.4824C3.05952 27.8101 3 28.1527 3 28.5103C3 28.8678 3.04464 29.2104 3.13391 29.5382ZM7.32998 48.1747V44.5993H19.8289V48.1747H7.32998Z" fill="#333333"/>
<path d="M32.715 19.2889H36.135C36.8475 19.2889 37.4531 19.0412 37.9519 18.5459C38.4506 18.0505 38.7 17.4491 38.7 16.7414C38.7 16.0338 38.4506 15.4323 37.9519 14.937C37.4531 14.4417 36.8475 14.194 36.135 14.194H32.715V10.7974C32.715 10.0898 32.4656 9.48833 31.9669 8.993C31.4681 8.49767 30.8625 8.25 30.15 8.25C29.4375 8.25 28.8319 8.49767 28.3331 8.993C27.8344 9.48833 27.585 10.0898 27.585 10.7974V14.194H24.165C23.4525 14.194 22.8469 14.4417 22.3481 14.937C21.8494 15.4323 21.6 16.0338 21.6 16.7414C21.6 17.4491 21.8494 18.0505 22.3481 18.5459C22.8469 19.0412 23.4525 19.2889 24.165 19.2889H27.585V22.6854C27.585 23.3931 27.8344 23.9945 28.3331 24.4899C28.8319 24.9852 29.4375 25.2329 30.15 25.2329C30.8625 25.2329 31.4681 24.9852 31.9669 24.4899C32.4656 23.9945 32.715 23.3931 32.715 22.6854V19.2889Z" fill="#333333"/>
</svg>
