<svg width="19" height="19" viewBox="0 0 19 19" fill="none" xmlns="http://www.w3.org/2000/svg">
<path d="M15.6199 10.1101C15.6199 13.2913 12.8799 15.8701 9.49988 15.8701C6.1199 15.8701 3.37988 13.2913 3.37988 10.1101C3.37988 6.92894 6.1199 4.3501 9.49988 4.3501C12.8799 4.3501 15.6199 6.92894 15.6199 10.1101Z" fill="#E9EBED"/>
<path fill-rule="evenodd" clip-rule="evenodd" d="M9.49988 15.1501C12.4574 15.1501 14.8549 12.8936 14.8549 10.1101C14.8549 7.32658 12.4574 5.0701 9.49988 5.0701C6.5424 5.0701 4.14488 7.32658 4.14488 10.1101C4.14488 12.8936 6.5424 15.1501 9.49988 15.1501ZM9.49988 15.8701C12.8799 15.8701 15.6199 13.2913 15.6199 10.1101C15.6199 6.92894 12.8799 4.3501 9.49988 4.3501C6.1199 4.3501 3.37988 6.92894 3.37988 10.1101C3.37988 13.2913 6.1199 15.8701 9.49988 15.8701Z" fill="#333333"/>
<path d="M10.5799 10.4699C10.5799 11.0664 10.0964 11.5499 9.49992 11.5499C8.90345 11.5499 8.41992 11.0664 8.41992 10.4699C8.41992 9.87343 8.90345 9.38989 9.49992 9.38989C10.0964 9.38989 10.5799 9.87343 10.5799 10.4699Z" fill="#333333"/>
<path d="M9.85965 5.42995C9.85965 5.62877 9.69847 5.78995 9.49965 5.78995C9.30083 5.78995 9.13965 5.62877 9.13965 5.42995C9.13965 5.23112 9.30083 5.06995 9.49965 5.06995C9.69847 5.06995 9.85965 5.23112 9.85965 5.42995Z" fill="#333333"/>
<path d="M9.85965 14.07C9.85965 14.2688 9.69847 14.43 9.49965 14.43C9.30083 14.43 9.13965 14.2688 9.13965 14.07C9.13965 13.8711 9.30083 13.71 9.49965 13.71C9.69847 13.71 9.85965 13.8711 9.85965 14.07Z" fill="#333333"/>
<path d="M14.1804 9.74989C14.1804 9.94872 14.0193 10.1099 13.8204 10.1099C13.6216 10.1099 13.4604 9.94872 13.4604 9.74989C13.4604 9.55107 13.6216 9.38989 13.8204 9.38989C14.0193 9.38989 14.1804 9.55107 14.1804 9.74989Z" fill="#333333"/>
<path d="M5.53982 9.75001C5.53982 9.94884 5.37865 10.11 5.17982 10.11C4.981 10.11 4.81982 9.94884 4.81982 9.75001C4.81982 9.55119 4.981 9.39001 5.17982 9.39001C5.37865 9.39001 5.53982 9.55119 5.53982 9.75001Z" fill="#333333"/>
<path d="M11.8299 7.41048C11.9346 7.31079 12.1363 7.3411 12.2803 7.47817V7.47817C12.4243 7.61524 12.4562 7.80717 12.3514 7.90686L10.4549 9.71186L9.93334 9.21548L11.8299 7.41048Z" fill="#333333"/>
<path d="M9.13965 3.63H9.85965V5.07H9.13965V3.63Z" fill="#333333"/>
<path d="M10.2196 2.91003C10.4184 2.91003 10.5796 3.07121 10.5796 3.27003V3.27003C10.5796 3.46886 10.4184 3.63003 10.2196 3.63003L8.77959 3.63003C8.58077 3.63003 8.41959 3.46886 8.41959 3.27003V3.27003C8.41959 3.07121 8.58077 2.91003 8.77959 2.91003L10.2196 2.91003Z" fill="#333333"/>
</svg>
