<svg width="46" height="46" viewBox="0 0 46 46" fill="none" xmlns="http://www.w3.org/2000/svg">
<path d="M38.1186 7.60397C40.3307 9.76474 41.4484 12.7366 41.5501 16.0643L38.1844 19.51C38.627 15.8776 37.7588 12.5635 35.4638 10.3218C31.5787 6.52686 24.7169 6.89186 18.5226 10.769L37.3985 29.2067C36.7147 30.2526 35.9493 31.28 35.1044 32.2769L13.5233 11.1967C21.8402 3.80548 32.5064 2.12203 38.1186 7.60397Z" fill="#25474F"/>
<path d="M7.85435 38.5875C5.64221 36.4268 4.52457 33.4549 4.42285 30.1271L7.78855 26.6815C7.34592 30.3139 8.21416 33.628 10.5091 35.8697C14.3943 39.6646 21.256 39.2996 27.4503 35.4225L8.57441 16.9848C9.25826 15.9389 10.0236 14.9115 10.8685 13.9146L32.4497 34.9948C24.1327 42.386 13.4666 44.0695 7.85435 38.5875Z" fill="#25474F"/>
</svg>
