<svg width="19" height="19" viewBox="0 0 19 19" fill="none" xmlns="http://www.w3.org/2000/svg">
<path d="M15.6199 9.8601C15.6199 13.0413 12.8799 15.6201 9.49988 15.6201C6.1199 15.6201 3.37988 13.0413 3.37988 9.8601C3.37988 6.67894 6.1199 4.1001 9.49988 4.1001C12.8799 4.1001 15.6199 6.67894 15.6199 9.8601Z" fill="#E9EBED"/>
<path fill-rule="evenodd" clip-rule="evenodd" d="M9.49988 14.9001C12.4574 14.9001 14.8549 12.6436 14.8549 9.8601C14.8549 7.07658 12.4574 4.8201 9.49988 4.8201C6.5424 4.8201 4.14488 7.07658 4.14488 9.8601C4.14488 12.6436 6.5424 14.9001 9.49988 14.9001ZM9.49988 15.6201C12.8799 15.6201 15.6199 13.0413 15.6199 9.8601C15.6199 6.67894 12.8799 4.1001 9.49988 4.1001C6.1199 4.1001 3.37988 6.67894 3.37988 9.8601C3.37988 13.0413 6.1199 15.6201 9.49988 15.6201Z" fill="#333333"/>
<path d="M10.5799 10.2199C10.5799 10.8164 10.0964 11.2999 9.49992 11.2999C8.90345 11.2999 8.41992 10.8164 8.41992 10.2199C8.41992 9.62343 8.90345 9.13989 9.49992 9.13989C10.0964 9.13989 10.5799 9.62343 10.5799 10.2199Z" fill="#333333"/>
<path d="M9.85965 5.17995C9.85965 5.37877 9.69847 5.53995 9.49965 5.53995C9.30083 5.53995 9.13965 5.37877 9.13965 5.17995C9.13965 4.98112 9.30083 4.81995 9.49965 4.81995C9.69847 4.81995 9.85965 4.98112 9.85965 5.17995Z" fill="#333333"/>
<path d="M9.85965 13.82C9.85965 14.0188 9.69847 14.18 9.49965 14.18C9.30083 14.18 9.13965 14.0188 9.13965 13.82C9.13965 13.6211 9.30083 13.46 9.49965 13.46C9.69847 13.46 9.85965 13.6211 9.85965 13.82Z" fill="#333333"/>
<path d="M14.1804 9.49989C14.1804 9.69872 14.0193 9.85989 13.8204 9.85989C13.6216 9.85989 13.4604 9.69872 13.4604 9.49989C13.4604 9.30107 13.6216 9.13989 13.8204 9.13989C14.0193 9.13989 14.1804 9.30107 14.1804 9.49989Z" fill="#333333"/>
<path d="M5.53982 9.50001C5.53982 9.69884 5.37865 9.86001 5.17982 9.86001C4.981 9.86001 4.81982 9.69884 4.81982 9.50001C4.81982 9.30119 4.981 9.14001 5.17982 9.14001C5.37865 9.14001 5.53982 9.30119 5.53982 9.50001Z" fill="#333333"/>
<path d="M11.8299 7.16048C11.9346 7.06079 12.1363 7.0911 12.2803 7.22817V7.22817C12.4243 7.36524 12.4562 7.55717 12.3514 7.65686L10.4549 9.46186L9.93334 8.96548L11.8299 7.16048Z" fill="#333333"/>
<path d="M9.13965 3.38H9.85965V4.82H9.13965V3.38Z" fill="#333333"/>
<path d="M10.2196 2.66003C10.4184 2.66003 10.5796 2.82121 10.5796 3.02003V3.02003C10.5796 3.21886 10.4184 3.38003 10.2196 3.38003L8.77959 3.38003C8.58077 3.38003 8.41959 3.21886 8.41959 3.02003V3.02003C8.41959 2.82121 8.58077 2.66003 8.77959 2.66003L10.2196 2.66003Z" fill="#333333"/>
</svg>
