<svg width="80" height="80" viewBox="0 0 80 80" fill="none" xmlns="http://www.w3.org/2000/svg">
<path d="M11.6525 53.8041C11.6525 52.5293 12.6642 51.496 13.9122 51.496H20.6911C21.9391 51.496 22.9508 52.5293 22.9508 53.8041V74H11.6525V53.8041Z" fill="#333333"/>
<path d="M26.6227 49.1878C26.6227 47.9131 27.6344 46.8797 28.8824 46.8797H35.6614C36.9093 46.8797 37.921 47.9131 37.921 49.1879V74H26.6227V49.1878Z" fill="#333333"/>
<path d="M41.593 41.6865C41.593 40.4118 42.6046 39.3784 43.8526 39.3784H50.6316C51.8796 39.3784 52.8912 40.4118 52.8912 41.6865V74H41.593V41.6865Z" fill="#333333"/>
<path d="M56.5632 26.6838C56.5632 25.4091 57.5749 24.3757 58.8228 24.3757H65.6018C66.8498 24.3757 67.8615 25.4091 67.8615 26.6838V74H56.5632V26.6838Z" fill="#333333"/>
<path fill-rule="evenodd" clip-rule="evenodd" d="M68.9106 7.24203C68.8441 6.49134 68.203 5.93778 67.4787 6.00563L67.3593 6.01681C67.2305 6.01093 67.1013 6.02303 66.9756 6.05275L55.6749 7.11131C54.9506 7.17916 54.4173 7.84272 54.4838 8.59342C54.5503 9.34412 55.1914 9.89768 55.9157 9.82983L63.2062 9.14692C63.4368 9.12531 63.6675 9.12972 63.8944 9.15911C56.8785 16.5298 47.3882 21.7796 38.0126 25.3745C27.5734 29.3773 17.4157 31.2755 11.2952 31.7957C10.5179 31.8618 9.94026 32.559 10.0049 33.3529C10.0696 34.1469 10.7522 34.737 11.5295 34.6709C17.8953 34.1298 28.3094 32.1769 39.0053 28.0756C48.7389 24.3433 58.8218 18.7877 66.2774 10.7905C66.5114 11.2064 66.6585 11.6746 66.702 12.1653L67.3713 19.7211C67.4378 20.4718 68.079 21.0253 68.8033 20.9575C69.5276 20.8896 70.0609 20.2261 69.9944 19.4754L68.9106 7.24203Z" fill="#333333"/>
</svg>
