<svg width="24" height="24" viewBox="0 0 24 24" fill="none" xmlns="http://www.w3.org/2000/svg">
<path d="M19.2034 3.60986C20.3564 4.73609 20.9439 6.27999 21.0055 8.00567L19.2691 9.78333C19.489 7.90106 19.03 6.18042 17.8338 5.01202C15.8088 3.03403 12.2511 3.20508 9.04887 5.19896L18.8873 14.809C18.5354 15.3495 18.1412 15.8801 17.7057 16.3948L6.45722 5.40745C10.751 1.59716 16.2782 0.752593 19.2034 3.60986Z" fill="#25474F"/>
<path d="M3.58987 19.5945C2.43687 18.4683 1.84936 16.9244 1.78777 15.1987L3.52416 13.421C3.30424 15.3033 3.76332 17.024 4.95948 18.1923C6.98449 20.1703 10.5422 19.9993 13.7444 18.0054L3.906 8.3954C4.25788 7.85492 4.6521 7.32424 5.08761 6.80961L16.3361 17.7969C12.0423 21.6072 6.51506 22.4518 3.58987 19.5945Z" fill="#25474F"/>
</svg>
