<svg width="60" height="60" viewBox="0 0 60 60" fill="none" xmlns="http://www.w3.org/2000/svg">
<path d="M49.7206 9.91809C52.606 12.7365 54.0638 16.6129 54.1965 20.9534L49.8064 25.4478C50.3838 20.7097 49.2513 16.387 46.2579 13.4631C41.1903 8.51317 32.2401 8.98926 24.1606 14.0465L48.7814 38.0956C47.8894 39.4598 46.8911 40.7999 45.7891 42.1002L17.6397 14.6043C28.488 4.96355 42.4003 2.76774 49.7206 9.91809Z" fill="#25474F"/>
<path d="M10.2455 50.3314C7.36011 47.513 5.90232 43.6366 5.76964 39.2962L10.1597 34.8018C9.58234 39.5398 10.7148 43.8625 13.7082 46.7864C18.7758 51.7364 27.726 51.2603 35.8055 46.2031L11.1847 22.1539C12.0767 20.7897 13.075 19.4496 14.177 18.1494L42.3264 45.6452C31.4781 55.286 17.5658 57.4818 10.2455 50.3314Z" fill="#25474F"/>
</svg>
