<svg width="36" height="36" viewBox="0 0 36 36" fill="none" xmlns="http://www.w3.org/2000/svg">
<path d="M29.8325 5.95071C31.5638 7.64175 32.4384 9.96759 32.518 12.5719L29.884 15.2685C30.2304 12.4257 29.5509 9.83207 27.7549 8.07773C24.7143 5.10776 19.3443 5.39341 14.4965 8.42773L29.269 22.8572C28.7338 23.6758 28.1348 24.4798 27.4736 25.26L10.584 8.76245C17.0929 2.97798 25.4404 1.6605 29.8325 5.95071Z" fill="#25474F"/>
<path d="M6.14747 30.1987C4.41624 28.5077 3.54157 26.1818 3.46196 23.5775L6.09598 20.8809C5.74957 23.7237 6.42907 26.3173 8.22511 28.0717C11.2657 31.0417 16.6357 30.756 21.4835 27.7217L6.71101 13.2922C7.24619 12.4737 7.84519 11.6696 8.50637 10.8895L25.396 27.387C18.8871 33.1714 10.5397 34.4889 6.14747 30.1987Z" fill="#25474F"/>
</svg>
