<svg width="60" height="61" viewBox="0 0 60 61" fill="none" xmlns="http://www.w3.org/2000/svg">
<path d="M12.0474 41.2632L11.0587 40.4066C8.91646 38.5303 7.4128 36.3888 6.54768 33.9822C5.68256 31.5757 5.25 29.1487 5.25 26.7013C5.25 22.8671 6.22841 19.3898 8.18522 16.2694C10.142 13.149 12.7889 10.7526 16.1258 9.08026C16.7025 8.75395 17.3205 8.73355 17.9796 9.01908C18.6387 9.30461 19.0713 9.77368 19.2773 10.4263C19.4833 11.0382 19.473 11.65 19.2464 12.2618C19.0198 12.8737 18.6181 13.3428 18.0414 13.6691C15.652 14.9743 13.7467 16.7793 12.3254 19.0839C10.9042 21.3885 10.1935 23.9276 10.1935 26.7013C10.1935 28.5368 10.5437 30.3214 11.244 32.0549C11.9444 33.7885 13.0361 35.3895 14.5191 36.8579L15.1371 37.4697V33.9211C15.1371 33.2276 15.3739 32.6464 15.8477 32.1773C16.3215 31.7082 16.9085 31.4737 17.6088 31.4737C18.3092 31.4737 18.8962 31.7082 19.37 32.1773C19.8437 32.6464 20.0806 33.2276 20.0806 33.9211V43.7105C20.0806 44.4039 19.8437 44.9852 19.37 45.4543C18.8962 45.9234 18.3092 46.1579 17.6088 46.1579H7.72177C7.02143 46.1579 6.43439 45.9234 5.96063 45.4543C5.48688 44.9852 5.25 44.4039 5.25 43.7105C5.25 43.0171 5.48688 42.4359 5.96063 41.9668C6.43439 41.4977 7.02143 41.2632 7.72177 41.2632H12.0474ZM39.8547 15.6882V19.2368C39.8547 19.9303 39.6179 20.5115 39.1441 20.9806C38.6704 21.4497 38.0833 21.6842 37.383 21.6842C36.6826 21.6842 36.0956 21.4497 35.6218 20.9806C35.1481 20.5115 34.9112 19.9303 34.9112 19.2368V9.44737C34.9112 8.75395 35.1481 8.1727 35.6218 7.70362C36.0956 7.23454 36.6826 7 37.383 7H47.2701C47.9704 7 48.5574 7.23454 49.0312 7.70362C49.5049 8.1727 49.7418 8.75395 49.7418 9.44737C49.7418 10.1408 49.5049 10.722 49.0312 11.1911C48.5574 11.6602 47.9704 11.8947 47.2701 11.8947H42.9445L43.9332 12.7513C45.6222 14.4645 46.9199 16.2796 47.8262 18.1967C48.7325 20.1138 49.3093 22.0921 49.5564 24.1316H44.5511C44.3451 22.7039 43.9023 21.3375 43.2225 20.0322C42.5428 18.727 41.6262 17.4829 40.4727 16.3L39.8547 15.6882ZM40.8435 53.5C40.5139 53.5 40.2564 53.4082 40.071 53.2247C39.8856 53.0411 39.7518 52.8066 39.6694 52.5211L39.1132 49.8289C38.6189 49.625 38.1554 49.4109 37.7228 49.1865C37.2903 48.9622 36.8474 48.6868 36.3943 48.3605L33.7371 49.1559C33.4488 49.2375 33.181 49.2273 32.9338 49.1253C32.6866 49.0234 32.4806 48.85 32.3159 48.6053L30.8328 46.1579C30.668 45.9132 30.6268 45.648 30.7092 45.3625C30.7916 45.077 30.9358 44.8322 31.1418 44.6283L33.181 42.8539C33.0986 42.2829 33.0574 41.7526 33.0574 41.2632C33.0574 40.7737 33.0986 40.2434 33.181 39.6724L31.1418 37.898C30.9358 37.6941 30.7916 37.4493 30.7092 37.1638C30.6268 36.8783 30.668 36.6132 30.8328 36.3684L32.3159 33.9211C32.4806 33.6763 32.6866 33.503 32.9338 33.401C33.181 33.299 33.4488 33.2888 33.7371 33.3704L36.3943 34.1658C36.8474 33.8395 37.2903 33.5641 37.7228 33.3398C38.1554 33.1155 38.6189 32.9013 39.1132 32.6974L39.6694 30.0053C39.7518 29.7197 39.8856 29.4852 40.071 29.3016C40.2564 29.1181 40.5139 29.0263 40.8435 29.0263H43.8096C44.1391 29.0263 44.3966 29.1181 44.582 29.3016C44.7674 29.4852 44.9013 29.7197 44.9837 30.0053L45.5398 32.6974C46.0342 32.9013 46.4976 33.1257 46.9302 33.3704C47.3627 33.6151 47.8056 33.9211 48.2588 34.2882L50.8541 33.3704C51.1425 33.2888 51.4206 33.299 51.6883 33.401C51.9561 33.503 52.1724 33.6763 52.3372 33.9211L53.8202 36.4908C53.985 36.7355 54.0365 37.0007 53.9747 37.2862C53.9129 37.5717 53.779 37.8164 53.5731 38.0204L51.4721 39.7947C51.5544 40.2842 51.5956 40.7941 51.5956 41.3243C51.5956 41.8546 51.5544 42.3645 51.4721 42.8539L53.5113 44.6283C53.7172 44.8322 53.8614 45.077 53.9438 45.3625C54.0262 45.648 53.985 45.9132 53.8202 46.1579L52.3372 48.6053C52.1724 48.85 51.9664 49.0234 51.7192 49.1253C51.4721 49.2273 51.2043 49.2375 50.9159 49.1559L48.2588 48.3605C47.8056 48.6868 47.3627 48.9622 46.9302 49.1865C46.4976 49.4109 46.0342 49.625 45.5398 49.8289L44.9837 52.5211C44.9013 52.8066 44.7674 53.0411 44.582 53.2247C44.3966 53.4082 44.1391 53.5 43.8096 53.5H40.8435ZM42.3265 46.1579C43.686 46.1579 44.8498 45.6786 45.8179 44.7201C46.786 43.7615 47.2701 42.6092 47.2701 41.2632C47.2701 39.9171 46.786 38.7648 45.8179 37.8063C44.8498 36.8477 43.686 36.3684 42.3265 36.3684C40.967 36.3684 39.8033 36.8477 38.8351 37.8063C37.867 38.7648 37.383 39.9171 37.383 41.2632C37.383 42.6092 37.867 43.7615 38.8351 44.7201C39.8033 45.6786 40.967 46.1579 42.3265 46.1579Z" fill="#333333"/>
</svg>
