<svg width="60" height="61" viewBox="0 0 60 61" fill="none" xmlns="http://www.w3.org/2000/svg">
<path d="M12.0474 41.5132L11.0587 40.6566C8.91646 38.7803 7.4128 36.6388 6.54768 34.2322C5.68256 31.8257 5.25 29.3987 5.25 26.9513C5.25 23.1171 6.22841 19.6398 8.18522 16.5194C10.142 13.399 12.7889 11.0026 16.1258 9.33026C16.7025 9.00395 17.3205 8.98355 17.9796 9.26908C18.6387 9.55461 19.0713 10.0237 19.2773 10.6763C19.4833 11.2882 19.473 11.9 19.2464 12.5118C19.0198 13.1237 18.6181 13.5928 18.0414 13.9191C15.652 15.2243 13.7467 17.0293 12.3254 19.3339C10.9042 21.6385 10.1935 24.1776 10.1935 26.9513C10.1935 28.7868 10.5437 30.5714 11.244 32.3049C11.9444 34.0385 13.0361 35.6395 14.5191 37.1079L15.1371 37.7197V34.1711C15.1371 33.4776 15.3739 32.8964 15.8477 32.4273C16.3215 31.9582 16.9085 31.7237 17.6088 31.7237C18.3092 31.7237 18.8962 31.9582 19.37 32.4273C19.8437 32.8964 20.0806 33.4776 20.0806 34.1711V43.9605C20.0806 44.6539 19.8437 45.2352 19.37 45.7043C18.8962 46.1734 18.3092 46.4079 17.6088 46.4079H7.72177C7.02143 46.4079 6.43439 46.1734 5.96063 45.7043C5.48688 45.2352 5.25 44.6539 5.25 43.9605C5.25 43.2671 5.48688 42.6859 5.96063 42.2168C6.43439 41.7477 7.02143 41.5132 7.72177 41.5132H12.0474ZM39.8547 15.9382V19.4868C39.8547 20.1803 39.6179 20.7615 39.1441 21.2306C38.6704 21.6997 38.0833 21.9342 37.383 21.9342C36.6826 21.9342 36.0956 21.6997 35.6218 21.2306C35.1481 20.7615 34.9112 20.1803 34.9112 19.4868V9.69737C34.9112 9.00395 35.1481 8.4227 35.6218 7.95362C36.0956 7.48454 36.6826 7.25 37.383 7.25H47.2701C47.9704 7.25 48.5574 7.48454 49.0312 7.95362C49.5049 8.4227 49.7418 9.00395 49.7418 9.69737C49.7418 10.3908 49.5049 10.972 49.0312 11.4411C48.5574 11.9102 47.9704 12.1447 47.2701 12.1447H42.9445L43.9332 13.0013C45.6222 14.7145 46.9199 16.5296 47.8262 18.4467C48.7325 20.3638 49.3093 22.3421 49.5564 24.3816H44.5511C44.3451 22.9539 43.9023 21.5875 43.2225 20.2822C42.5428 18.977 41.6262 17.7329 40.4727 16.55L39.8547 15.9382ZM40.8435 53.75C40.5139 53.75 40.2564 53.6582 40.071 53.4747C39.8856 53.2911 39.7518 53.0566 39.6694 52.7711L39.1132 50.0789C38.6189 49.875 38.1554 49.6609 37.7228 49.4365C37.2903 49.2122 36.8474 48.9368 36.3943 48.6105L33.7371 49.4059C33.4488 49.4875 33.181 49.4773 32.9338 49.3753C32.6866 49.2734 32.4806 49.1 32.3159 48.8553L30.8328 46.4079C30.668 46.1632 30.6268 45.898 30.7092 45.6125C30.7916 45.327 30.9358 45.0822 31.1418 44.8783L33.181 43.1039C33.0986 42.5329 33.0574 42.0026 33.0574 41.5132C33.0574 41.0237 33.0986 40.4934 33.181 39.9224L31.1418 38.148C30.9358 37.9441 30.7916 37.6993 30.7092 37.4138C30.6268 37.1283 30.668 36.8632 30.8328 36.6184L32.3159 34.1711C32.4806 33.9263 32.6866 33.753 32.9338 33.651C33.181 33.549 33.4488 33.5388 33.7371 33.6204L36.3943 34.4158C36.8474 34.0895 37.2903 33.8141 37.7228 33.5898C38.1554 33.3655 38.6189 33.1513 39.1132 32.9474L39.6694 30.2553C39.7518 29.9697 39.8856 29.7352 40.071 29.5516C40.2564 29.3681 40.5139 29.2763 40.8435 29.2763H43.8096C44.1391 29.2763 44.3966 29.3681 44.582 29.5516C44.7674 29.7352 44.9013 29.9697 44.9837 30.2553L45.5398 32.9474C46.0342 33.1513 46.4976 33.3757 46.9302 33.6204C47.3627 33.8651 47.8056 34.1711 48.2588 34.5382L50.8541 33.6204C51.1425 33.5388 51.4206 33.549 51.6883 33.651C51.9561 33.753 52.1724 33.9263 52.3372 34.1711L53.8202 36.7408C53.985 36.9855 54.0365 37.2507 53.9747 37.5362C53.9129 37.8217 53.779 38.0664 53.5731 38.2704L51.4721 40.0447C51.5544 40.5342 51.5956 41.0441 51.5956 41.5743C51.5956 42.1046 51.5544 42.6145 51.4721 43.1039L53.5113 44.8783C53.7172 45.0822 53.8614 45.327 53.9438 45.6125C54.0262 45.898 53.985 46.1632 53.8202 46.4079L52.3372 48.8553C52.1724 49.1 51.9664 49.2734 51.7192 49.3753C51.4721 49.4773 51.2043 49.4875 50.9159 49.4059L48.2588 48.6105C47.8056 48.9368 47.3627 49.2122 46.9302 49.4365C46.4976 49.6609 46.0342 49.875 45.5398 50.0789L44.9837 52.7711C44.9013 53.0566 44.7674 53.2911 44.582 53.4747C44.3966 53.6582 44.1391 53.75 43.8096 53.75H40.8435ZM42.3265 46.4079C43.686 46.4079 44.8498 45.9286 45.8179 44.9701C46.786 44.0115 47.2701 42.8592 47.2701 41.5132C47.2701 40.1671 46.786 39.0148 45.8179 38.0563C44.8498 37.0977 43.686 36.6184 42.3265 36.6184C40.967 36.6184 39.8033 37.0977 38.8351 38.0563C37.867 39.0148 37.383 40.1671 37.383 41.5132C37.383 42.8592 37.867 44.0115 38.8351 44.9701C39.8033 45.9286 40.967 46.4079 42.3265 46.4079Z" fill="#333333"/>
</svg>
