<svg width="24" height="24" viewBox="0 0 24 24" fill="none" xmlns="http://www.w3.org/2000/svg">
<path d="M20.16 12.48C20.16 16.7216 16.5066 20.16 12 20.16C7.49332 20.16 3.83997 16.7216 3.83997 12.48C3.83997 8.2385 7.49332 4.80005 12 4.80005C16.5066 4.80005 20.16 8.2385 20.16 12.48Z" fill="#E9EBED"/>
<path fill-rule="evenodd" clip-rule="evenodd" d="M12 19.2C15.9433 19.2 19.14 16.1914 19.14 12.48C19.14 8.7687 15.9433 5.76005 12 5.76005C8.05665 5.76005 4.85997 8.7687 4.85997 12.48C4.85997 16.1914 8.05665 19.2 12 19.2ZM12 20.16C16.5066 20.16 20.16 16.7216 20.16 12.48C20.16 8.2385 16.5066 4.80005 12 4.80005C7.49332 4.80005 3.83997 8.2385 3.83997 12.48C3.83997 16.7216 7.49332 20.16 12 20.16Z" fill="#333333"/>
<path d="M13.4397 12.9599C13.4397 13.7552 12.795 14.3999 11.9997 14.3999C11.2044 14.3999 10.5597 13.7552 10.5597 12.9599C10.5597 12.1646 11.2044 11.5199 11.9997 11.5199C12.795 11.5199 13.4397 12.1646 13.4397 12.9599Z" fill="#333333"/>
<path d="M12.4797 6.23989C12.4797 6.50498 12.2648 6.71989 11.9997 6.71989C11.7346 6.71989 11.5197 6.50498 11.5197 6.23989C11.5197 5.97479 11.7346 5.75989 11.9997 5.75989C12.2648 5.75989 12.4797 5.97479 12.4797 6.23989Z" fill="#333333"/>
<path d="M12.4797 17.7599C12.4797 18.025 12.2648 18.2399 11.9997 18.2399C11.7346 18.2399 11.5197 18.025 11.5197 17.7599C11.5197 17.4948 11.7346 17.2799 11.9997 17.2799C12.2648 17.2799 12.4797 17.4948 12.4797 17.7599Z" fill="#333333"/>
<path d="M18.2404 11.9999C18.2404 12.265 18.0255 12.4799 17.7604 12.4799C17.4953 12.4799 17.2804 12.265 17.2804 11.9999C17.2804 11.7348 17.4953 11.5199 17.7604 11.5199C18.0255 11.5199 18.2404 11.7348 18.2404 11.9999Z" fill="#333333"/>
<path d="M6.72001 12C6.72001 12.2651 6.50511 12.48 6.24001 12.48C5.97491 12.48 5.76001 12.2651 5.76001 12C5.76001 11.7349 5.97491 11.52 6.24001 11.52C6.50511 11.52 6.72001 11.7349 6.72001 12Z" fill="#333333"/>
<path d="M15.1066 8.88068C15.2463 8.74776 15.5152 8.78817 15.7072 8.97093V8.97093C15.8992 9.15369 15.9417 9.4096 15.802 9.54252L13.2733 11.9492L12.5779 11.2873L15.1066 8.88068Z" fill="#333333"/>
<path d="M11.5197 3.83997H12.4797V5.75997H11.5197V3.83997Z" fill="#333333"/>
<path d="M12.9596 2.88C13.2247 2.88 13.4396 3.09491 13.4396 3.36V3.36C13.4396 3.6251 13.2247 3.84 12.9596 3.84L11.0396 3.84C10.7745 3.84 10.5596 3.6251 10.5596 3.36V3.36C10.5596 3.09491 10.7745 2.88 11.0396 2.88L12.9596 2.88Z" fill="#333333"/>
</svg>
