<svg width="60" height="61" viewBox="0 0 60 61" fill="none" xmlns="http://www.w3.org/2000/svg">
<path d="M8.73938 40.603C8.73938 39.647 9.49815 38.872 10.4341 38.872H15.5184C16.4543 38.872 17.2131 39.647 17.2131 40.603V55.75H8.73938V40.603Z" fill="#333333"/>
<path d="M19.9671 37.1409C19.9671 36.1848 20.7258 35.4098 21.6618 35.4098H26.746C27.682 35.4098 28.4408 36.1848 28.4408 37.1409V55.75H19.9671V37.1409Z" fill="#333333"/>
<path d="M31.1947 31.5149C31.1947 30.5588 31.9535 29.7838 32.8895 29.7838H37.9737C38.9097 29.7838 39.6684 30.5588 39.6684 31.5149V55.75H31.1947V31.5149Z" fill="#333333"/>
<path d="M42.4224 20.2629C42.4224 19.3068 43.1812 18.5318 44.1171 18.5318H49.2014C50.1373 18.5318 50.8961 19.3068 50.8961 20.2629V55.75H42.4224V20.2629Z" fill="#333333"/>
<path fill-rule="evenodd" clip-rule="evenodd" d="M51.683 5.68153C51.6331 5.1185 51.1523 4.70333 50.609 4.75422L50.5195 4.76261C50.4229 4.7582 50.326 4.76727 50.2317 4.78956L41.7562 5.58348C41.2129 5.63437 40.813 6.13204 40.8628 6.69506C40.9127 7.25809 41.3935 7.67326 41.9368 7.62237L47.4046 7.11019C47.5776 7.09398 47.7506 7.09729 47.9208 7.11934C42.6589 12.6473 35.5411 16.5847 28.5094 19.2809C20.6801 22.283 13.0618 23.7066 8.47144 24.0968C7.88846 24.1463 7.4552 24.6692 7.50371 25.2647C7.55222 25.8602 8.06414 26.3027 8.64711 26.2532C13.4215 25.8474 21.232 24.3827 29.254 21.3067C36.5542 18.5075 44.1163 14.3408 49.7081 8.34287C49.8835 8.65478 49.9939 9.00597 50.0265 9.37398L50.5285 15.0408C50.5784 15.6038 51.0592 16.019 51.6025 15.9681C52.1457 15.9172 52.5457 15.4196 52.4958 14.8565L51.683 5.68153Z" fill="#333333"/>
</svg>
