<svg width="60" height="60" viewBox="0 0 60 60" fill="none" xmlns="http://www.w3.org/2000/svg">
<path d="M45 10H15C12.2386 10 10 12.2386 10 15V45C10 47.7614 12.2386 50 15 50H45C47.7614 50 50 47.7614 50 45V15C50 12.2386 47.7614 10 45 10Z" fill="#25474F" stroke="#25474F" stroke-width="2" stroke-linecap="round" stroke-linejoin="round"/>
<path d="M37.5 22.5H22.5V37.5H37.5V22.5Z" fill="white" stroke="#25474F" stroke-width="2" stroke-linecap="round" stroke-linejoin="round"/>
<path d="M22.5 2.5V10" stroke="#25474F" stroke-width="2" stroke-linecap="round" stroke-linejoin="round"/>
<path d="M37.5 2.5V10" stroke="#25474F" stroke-width="2" stroke-linecap="round" stroke-linejoin="round"/>
<path d="M22.5 50V57.5" stroke="#25474F" stroke-width="2" stroke-linecap="round" stroke-linejoin="round"/>
<path d="M37.5 50V57.5" stroke="#25474F" stroke-width="2" stroke-linecap="round" stroke-linejoin="round"/>
<path d="M50 22.5H57.5" stroke="#25474F" stroke-width="2" stroke-linecap="round" stroke-linejoin="round"/>
<path d="M50 35H57.5" stroke="#25474F" stroke-width="2" stroke-linecap="round" stroke-linejoin="round"/>
<path d="M2.5 22.5H10" stroke="#25474F" stroke-width="2" stroke-linecap="round" stroke-linejoin="round"/>
<path d="M2.5 35H10" stroke="#25474F" stroke-width="2" stroke-linecap="round" stroke-linejoin="round"/>
</svg>
