<svg width="80" height="80" viewBox="0 0 80 80" fill="none" xmlns="http://www.w3.org/2000/svg">
<path d="M64.4506 43.25H41.7686L56.8743 59.3001C57.4517 59.9135 58.4018 59.9633 58.9954 59.3692C62.6947 55.6662 65.2392 50.6743 65.9858 45.0629C66.1138 44.1021 65.3635 43.25 64.4506 43.25Z" fill="#7C9195"/>
<path d="M62.9373 36.6686C62.1496 24.5358 53.0248 14.8406 41.6059 14.0037C40.7341 13.9397 40 14.7207 40 15.649V38.3749H61.3897C62.2634 38.3749 62.9975 37.5949 62.9373 36.6686Z" fill="#A8B5B9"/>
<path d="M35.4119 43.25V19.15C35.4119 18.18 34.6099 17.3828 33.7066 17.5189C22.3154 19.2292 13.6083 29.803 14.0136 42.4751C14.4304 55.4894 24.9766 66.1617 37.2309 65.9982C42.0486 65.9342 46.5001 64.2848 50.1602 61.5264C50.9153 60.9576 50.965 59.7764 50.3102 59.0807L35.4119 43.25Z" fill="#25474F"/>
</svg>
