<svg width="60" height="60" viewBox="0 0 60 60" fill="none" xmlns="http://www.w3.org/2000/svg">
<path d="M52.5701 33H31.6328L45.5766 47.8155C46.1095 48.3817 46.9866 48.4276 47.5345 47.8792C50.9492 44.461 53.298 39.8532 53.9871 34.6735C54.1053 33.7866 53.4127 33 52.5701 33Z" fill="#7C9195"/>
<path d="M51.1728 26.9248C50.4458 15.7254 42.0229 6.7759 31.4823 6.00339C30.6776 5.94433 30 6.66527 30 7.52215V28.4998H49.7443C50.5508 28.4998 51.2284 27.7798 51.1728 26.9248Z" fill="#A8B5B9"/>
<path d="M25.7648 32.9999V10.7538C25.7648 9.85847 25.0245 9.12253 24.1907 9.24815C13.6757 10.8269 5.63843 20.5873 6.01255 32.2846C6.39725 44.2979 16.1322 54.1492 27.4439 53.9983C31.8909 53.9392 36 52.4167 39.3786 49.8704C40.0756 49.3454 40.1215 48.2551 39.5171 47.6129L25.7648 32.9999Z" fill="#25474F"/>
</svg>
