<svg width="80" height="80" viewBox="0 0 80 80" fill="none" xmlns="http://www.w3.org/2000/svg">
<g id="Frame 3393">
<g id="Group 570">
<g id="Group 567">
<rect id="Rectangle 1151" x="0.286594" y="0.642486" width="40.0166" height="56.6796" rx="1.5" transform="matrix(0.935636 0.352967 -0.362449 0.932004 35.1572 9.94253)" fill="#F1F3F4" stroke="#25474F"/>
<path id="Union" fill-rule="evenodd" clip-rule="evenodd" d="M48.8576 51.3643C48.9225 51.4511 48.903 51.5708 48.8141 51.6315C48.632 51.7558 48.4648 51.8927 48.3129 52.0402L52.8298 58.088C53.025 57.9986 53.2148 57.8919 53.3969 57.7676C53.4858 57.7069 53.6105 57.7281 53.6754 57.8149C53.7403 57.9018 53.7208 58.0215 53.6318 58.0822C51.9715 59.2155 49.732 59.0219 48.2572 57.7297C48.9943 59.3933 48.4793 61.3617 46.9084 62.434C45.3373 63.5064 43.2224 63.3328 41.8159 62.1259C42.6157 63.8791 42.0802 65.9671 40.4198 67.1005C40.3308 67.1613 40.2061 67.1401 40.1412 67.0532C40.0764 66.9663 40.0959 66.8467 40.1848 66.786C40.3671 66.6616 40.5344 66.5245 40.6864 66.3768L36.1696 60.3292C35.9742 60.4187 35.7842 60.5255 35.602 60.6499C35.5131 60.7106 35.3883 60.6894 35.3235 60.6025C35.2586 60.5156 35.2781 60.396 35.3671 60.3353C37.0275 59.2019 39.2672 59.3956 40.7421 60.688C40.0047 59.0244 40.5196 57.0557 42.0906 55.9833C43.6616 54.911 45.7763 55.0846 47.1828 56.2912C46.3832 54.538 46.9188 52.4502 48.5791 51.3169C48.6681 51.2562 48.7928 51.2774 48.8576 51.3643ZM41.0352 61.5733C41.663 62.4139 41.8857 63.4118 41.7388 64.3486L38.5179 60.036C39.4925 60.2074 40.4074 60.7328 41.0352 61.5733ZM41.0816 65.9241C41.2766 65.6594 41.432 65.3728 41.5464 65.0728L37.739 59.975C37.405 59.981 37.071 60.0284 36.7459 60.1188L41.0816 65.9241ZM52.2536 58.2985L47.9176 52.4929C47.7226 52.7575 47.5672 53.044 47.4528 53.344L51.2606 58.4425C51.5946 58.4364 51.9285 58.3889 52.2536 58.2985ZM50.4818 58.3816L47.2602 54.068C47.1131 55.0051 47.3357 56.0033 47.9637 56.8441C48.5916 57.6849 49.5069 58.2103 50.4818 58.3816ZM42.5754 56.1418L46.909 61.9443C47.3217 61.6105 47.6385 61.2023 47.8536 60.7539L44.0598 55.6742C43.5463 55.7231 43.0396 55.877 42.5754 56.1418ZM42.0897 56.4734L46.4233 62.2758C45.9589 62.5406 45.4521 62.6944 44.9385 62.7433L41.1451 57.6642C41.3602 57.2156 41.6769 56.8073 42.0897 56.4734ZM40.9077 58.3282C40.6713 59.2956 40.8597 60.3608 41.5188 61.2433C42.1779 62.1258 43.1706 62.6421 44.2044 62.7423L40.9077 58.3282ZM48.0911 60.09L44.7937 55.6749C45.8278 55.775 46.821 56.2913 47.4803 57.174C48.1396 58.0568 48.3279 59.1224 48.0911 60.09Z" fill="#25474F"/>
<path id="Union_2" fill-rule="evenodd" clip-rule="evenodd" d="M43.6165 20.7549C43.5717 20.8537 43.6164 20.9664 43.7162 21.0067C43.9207 21.0891 44.1133 21.1872 44.2932 21.2988L41.1743 28.1727C40.9644 28.127 40.7562 28.0634 40.5517 27.9809C40.4519 27.9406 40.3346 27.988 40.2898 28.0867C40.245 28.1855 40.2896 28.2982 40.3895 28.3385C42.2538 29.0905 44.4 28.4224 45.5644 26.8447C45.2002 28.6274 46.1241 30.4402 47.8881 31.1517C49.6521 31.8633 51.681 31.2414 52.7968 29.7616C52.3905 31.6453 53.3602 33.5705 55.2246 34.3226C55.3245 34.3629 55.4418 34.3155 55.4866 34.2168C55.5313 34.118 55.4867 34.0053 55.3868 33.965C55.1822 33.8825 54.9894 33.7844 54.8094 33.6726L57.9282 26.7989C58.1383 26.8446 58.3467 26.9082 58.5513 26.9908C58.6512 27.0311 58.7685 26.9837 58.8133 26.885C58.8581 26.7862 58.8134 26.6735 58.7135 26.6332C56.8491 25.8812 54.7027 26.5494 53.5384 28.1274C53.9028 26.3445 52.9788 24.5315 51.2148 23.8199C49.4509 23.1084 47.4222 23.7302 46.3063 25.2097C46.7124 23.3261 45.7427 21.4012 43.8785 20.6491C43.7786 20.6088 43.6613 20.6562 43.6165 20.7549ZM53.4413 29.0549C53.0078 30.0102 53.0037 31.0327 53.3475 31.9164L55.5716 27.0148C54.6562 27.3906 53.8748 28.0995 53.4413 29.0549ZM54.3265 33.3149C54.0794 33.098 53.8663 32.8513 53.6904 32.5827L56.3194 26.7885C56.647 26.723 56.9834 26.6979 57.3203 26.7167L54.3265 33.3149ZM41.7821 28.255L44.7761 21.6564C45.0232 21.8732 45.2363 22.1199 45.4123 22.3884L42.7829 28.1833C42.4554 28.2488 42.119 28.2738 41.7821 28.255ZM43.5307 27.9572L45.7553 23.0545C46.0993 23.9385 46.0954 24.9612 45.6618 25.9168C45.2281 26.8725 44.4464 27.5815 43.5307 27.9572ZM50.7752 24.0784L47.7827 30.6735C47.3082 30.4357 46.9115 30.1046 46.6054 29.7126L49.2251 23.9391C49.7372 23.877 50.265 23.919 50.7752 24.0784ZM51.3206 24.2984L48.3281 30.8934C48.8384 31.0528 49.3664 31.0946 49.8786 31.0325L52.4979 25.2597C52.1919 24.8675 51.7952 24.5363 51.3206 24.2984ZM52.8718 25.8576C53.3097 26.752 53.3535 27.8329 52.8983 28.8359C52.4432 29.8389 51.5839 30.5556 50.5954 30.8746L52.8718 25.8576ZM46.2314 29.1149L48.5083 24.0968C47.5195 24.4157 46.6598 25.1324 46.2045 26.1357C45.7493 27.1391 45.7932 28.2203 46.2314 29.1149Z" fill="#7C9195"/>
<g id="Group 490">
<path id="Star 1" d="M30.4431 44.9147C30.7535 44.5053 31.3688 44.5053 31.6792 44.9147L31.9532 45.276C32.1225 45.4993 32.3992 45.6139 32.6768 45.5758L33.1261 45.514C33.635 45.444 34.0701 45.8791 34.0001 46.388L33.9383 46.8373C33.9002 47.1149 34.0148 47.3916 34.2381 47.5609L34.5994 47.8349C35.0088 48.1453 35.0088 48.7606 34.5994 49.071L34.2381 49.345C34.0148 49.5143 33.9002 49.791 33.9383 50.0687L34.0001 50.5179C34.0701 51.0268 33.635 51.4619 33.1261 51.392L32.6768 51.3302C32.3992 51.292 32.1225 51.4066 31.9532 51.6299L31.6792 51.9913C31.3688 52.4006 30.7535 52.4006 30.4431 51.9913L30.1691 51.6299C29.9998 51.4066 29.7231 51.292 29.4454 51.3302L28.9962 51.392C28.4873 51.4619 28.0522 51.0268 28.1221 50.5179L28.1839 50.0687C28.2221 49.791 28.1075 49.5143 27.8842 49.345L27.5228 49.071C27.1135 48.7606 27.1135 48.1453 27.5228 47.8349L27.8842 47.5609C28.1075 47.3916 28.2221 47.1149 28.1839 46.8373L28.1221 46.388C28.0522 45.8791 28.4873 45.444 28.9962 45.514L29.4454 45.5758C29.7231 45.6139 29.9998 45.4993 30.1691 45.276L30.4431 44.9147Z" fill="#25474F"/>
<path id="Vector 22 (Stroke)" fill-rule="evenodd" clip-rule="evenodd" d="M32.0478 47.4148C32.4175 47.6497 32.4156 48.0198 32.37 48.1765L32.3684 48.182L32.366 48.1872C32.2905 48.3535 32.1129 48.4446 31.9548 48.4732C31.8759 48.4874 31.793 48.4879 31.7221 48.4689C31.6504 48.4497 31.5776 48.4054 31.5609 48.3274C31.5551 48.3003 31.5508 48.2747 31.5466 48.2505C31.5263 48.1313 31.5113 48.043 31.3577 47.9554C31.2204 47.877 31.134 47.7635 31.099 47.6535C31.0657 47.5488 31.0732 47.4223 31.1718 47.3401C31.2447 47.2793 31.3538 47.2198 31.5103 47.2213C31.6612 47.2227 31.8367 47.2807 32.0478 47.4148ZM32.1557 48.1333C32.1887 48.0107 32.1816 47.7318 31.9086 47.5584C31.7154 47.4356 31.5853 47.4029 31.5024 47.4021C31.4253 47.4014 31.3725 47.4283 31.3287 47.4648C31.3107 47.4798 31.2894 47.5269 31.314 47.6043C31.3369 47.6763 31.3951 47.7535 31.4879 47.8065C31.7234 47.9409 31.7498 48.1086 31.7693 48.2331C31.7725 48.2535 31.7755 48.2727 31.7793 48.2905C31.7813 48.2919 31.786 48.2943 31.796 48.297C31.8204 48.3035 31.8614 48.3058 31.9118 48.2967C32.0105 48.2789 32.1115 48.2242 32.1557 48.1333ZM31.778 48.2891C31.7781 48.2891 31.7785 48.2894 31.7789 48.2902C31.7781 48.2895 31.7779 48.2891 31.778 48.2891Z" fill="white"/>
<path id="Vector 22 (Stroke)_2" fill-rule="evenodd" clip-rule="evenodd" d="M31.2658 50.0581C30.8413 50.1663 30.7279 50.5185 30.7225 50.6816L30.7223 50.6873L30.7229 50.6931C30.743 50.8745 30.8834 51.0164 31.0247 51.0928C31.0953 51.1309 31.174 51.1571 31.2473 51.1611C31.3213 51.1652 31.4043 51.1458 31.4444 51.0768C31.4584 51.0529 31.4705 51.0299 31.482 51.0081C31.5383 50.9013 31.5801 50.822 31.7534 50.7865C31.9082 50.7548 32.0256 50.6738 32.0931 50.5802C32.1574 50.491 32.1896 50.3685 32.1215 50.2596C32.0711 50.1792 31.986 50.0887 31.8367 50.0414C31.6929 49.9958 31.5081 49.9963 31.2658 50.0581ZM30.9396 50.7073C30.9464 50.5805 31.0399 50.3177 31.3533 50.2378C31.5751 50.1813 31.709 50.1906 31.788 50.2157C31.8615 50.239 31.9033 50.281 31.9335 50.3293C31.946 50.3492 31.9516 50.4006 31.9042 50.4664C31.86 50.5278 31.7806 50.583 31.6759 50.6045C31.4103 50.6589 31.3331 50.8101 31.2757 50.9223C31.2664 50.9407 31.2575 50.9581 31.2484 50.9738C31.2461 50.9745 31.2408 50.9753 31.2305 50.9748C31.2052 50.9734 31.1656 50.9628 31.1206 50.9385C31.0323 50.8908 30.9533 50.8074 30.9396 50.7073ZM31.2501 50.9729C31.25 50.9728 31.2495 50.973 31.2488 50.9736C31.2498 50.9733 31.2502 50.973 31.2501 50.9729Z" fill="white"/>
<path id="Vector 22 (Stroke)_3" fill-rule="evenodd" clip-rule="evenodd" d="M30.8375 46.0434C30.5789 45.8742 30.2097 45.8912 30.0564 45.9201L30.0511 45.9211L30.0459 45.9225C29.8851 45.9664 29.8057 46.0565 29.7876 46.1344C29.7785 46.1734 29.7835 46.2136 29.8071 46.2472C29.831 46.2811 29.8799 46.3145 29.9589 46.3192C29.9863 46.3209 30.0121 46.3219 30.0366 46.3228C30.1567 46.3275 30.2459 46.331 30.3434 46.4017C30.4306 46.465 30.5494 46.5019 30.6615 46.5142C30.7682 46.5258 30.8939 46.5167 30.9695 46.4652C31.0254 46.4272 31.0775 46.3717 31.0658 46.2958C31.0545 46.2227 30.9851 46.14 30.8375 46.0434ZM30.1136 46.0222C30.2337 46.0009 30.5124 45.9922 30.7033 46.1172C30.8385 46.2056 30.8797 46.2673 30.8859 46.3075C30.8917 46.3449 30.8683 46.3717 30.8348 46.3945C30.8209 46.4039 30.7753 46.4163 30.6966 46.4077C30.6232 46.3997 30.5424 46.3748 30.4834 46.3321C30.3339 46.2236 30.1648 46.2181 30.0393 46.214C30.0188 46.2134 29.9994 46.2127 29.9814 46.2117C29.9799 46.2108 29.9771 46.2086 29.9738 46.2039C29.9657 46.1923 29.9607 46.1725 29.9665 46.1477C29.9778 46.099 30.0257 46.0476 30.1136 46.0222ZM29.9828 46.2123C29.9829 46.2122 29.9825 46.212 29.9817 46.2118C29.9824 46.2122 29.9828 46.2123 29.9828 46.2123Z" fill="white"/>
<path id="Ellipse 7 (Stroke)" fill-rule="evenodd" clip-rule="evenodd" d="M29.1539 48.1227L29.1936 48.1297C29.2575 48.141 29.2915 48.1329 29.3075 48.1268C29.3237 48.1207 29.3413 48.1092 29.3611 48.084C29.4074 48.0251 29.4453 47.9159 29.4587 47.7768C29.4695 47.6634 29.3378 47.4892 29.1373 47.4892C29.0202 47.4892 28.9533 47.5016 28.9167 47.5138C28.887 47.5237 28.8821 47.5316 28.8818 47.5322C28.8818 47.5322 28.8818 47.5322 28.8818 47.5322C28.878 47.5369 28.8654 47.5553 28.8517 47.61C28.8385 47.663 28.8288 47.7299 28.8176 47.8242C28.8203 47.9822 28.8603 48.0506 28.8858 48.077C28.9058 48.0976 28.9596 48.137 29.1137 48.1256L29.1539 48.1227ZM28.4976 47.807C28.5455 47.3938 28.5935 47.1714 29.1373 47.1714C29.4907 47.1714 29.8091 47.4733 29.7771 47.807C29.7451 48.1406 29.5852 48.522 29.1373 48.4425C28.7055 48.4743 28.4976 48.236 28.4976 47.807Z" fill="white"/>
<path id="Ellipse 7 (Stroke)_2" fill-rule="evenodd" clip-rule="evenodd" d="M29.4361 50.1369L29.4376 50.1553C29.4402 50.1848 29.4478 50.1988 29.4524 50.2052C29.457 50.2116 29.4642 50.218 29.4776 50.2238C29.5091 50.2373 29.5618 50.2411 29.6247 50.2305C29.676 50.2219 29.7373 50.1432 29.7136 50.0547C29.6998 50.0031 29.6864 49.975 29.6767 49.9603C29.6688 49.9484 29.6647 49.9471 29.6644 49.9471C29.6644 49.947 29.6644 49.947 29.6644 49.947C29.6619 49.9459 29.6523 49.9426 29.6265 49.943C29.6016 49.9434 29.5709 49.947 29.528 49.9533C29.4586 49.9731 29.4331 49.9989 29.4245 50.0133C29.4178 50.0245 29.4068 50.0529 29.43 50.1196L29.4361 50.1369ZM29.4978 49.81C29.6857 49.7823 29.7895 49.7772 29.8538 50.0172C29.8956 50.1731 29.8001 50.3493 29.649 50.3746C29.498 50.3999 29.3108 50.3744 29.293 50.1674C29.2279 49.9807 29.3085 49.8607 29.4978 49.81Z" fill="white"/>
</g>
<g id="Group 565">
<path id="Star 1_2" d="M56.2708 41.4422C56.6033 41.0103 57.2548 41.0103 57.5873 41.4422L57.845 41.7769C58.0265 42.0126 58.32 42.1333 58.6148 42.0934L59.0353 42.0364C59.5806 41.9626 60.0457 42.4296 59.9696 42.9746L59.9164 43.3558C59.8745 43.6558 59.9993 43.9549 60.2421 44.1362L60.552 44.3677C60.9969 44.6999 60.9969 45.3667 60.552 45.699L60.2421 45.9304C59.9993 46.1117 59.8745 46.4108 59.9164 46.7109L59.9696 47.0921C60.0457 47.637 59.5806 48.104 59.0353 48.0302L58.6148 47.9733C58.32 47.9333 58.0265 48.054 57.845 48.2897L57.5873 48.6244C57.2548 49.0564 56.6033 49.0564 56.2708 48.6244L56.0131 48.2897C55.8316 48.054 55.5381 47.9333 55.2433 47.9733L54.8228 48.0302C54.2775 48.104 53.8124 47.637 53.8885 47.0921L53.9417 46.7109C53.9836 46.4108 53.8588 46.1117 53.616 45.9304L53.3061 45.699C52.8612 45.3667 52.8612 44.6999 53.3061 44.3677L53.616 44.1362C53.8588 43.9549 53.9836 43.6558 53.9417 43.3558L53.8885 42.9746C53.8124 42.4296 54.2775 41.9626 54.8228 42.0364L55.2433 42.0934C55.5381 42.1333 55.8316 42.0126 56.0131 41.7769L56.2708 41.4422Z" fill="#333333"/>
<path id="Vector 22 (Stroke)_4" fill-rule="evenodd" clip-rule="evenodd" d="M58.5675 43.369C58.9395 43.6018 58.9376 43.9685 58.8918 44.1238L58.8902 44.1292L58.8878 44.1345C58.8117 44.2992 58.633 44.3895 58.474 44.4179C58.3945 44.432 58.3111 44.4324 58.2398 44.4136C58.1677 44.3946 58.0945 44.3507 58.0777 44.2734C58.0718 44.2465 58.0674 44.2212 58.0633 44.1971C58.0428 44.0791 58.0277 43.9915 57.8731 43.9047C57.735 43.827 57.648 43.7146 57.6128 43.6055C57.5793 43.5017 57.5868 43.3764 57.6861 43.2949C57.7594 43.2346 57.8692 43.1757 58.0267 43.1772C58.1785 43.1786 58.3551 43.236 58.5675 43.369ZM58.6761 44.081C58.7093 43.9595 58.7022 43.6831 58.4275 43.5113C58.2331 43.3896 58.1022 43.3571 58.0188 43.3563C57.9411 43.3556 57.8881 43.3823 57.844 43.4185C57.8259 43.4334 57.8044 43.4801 57.8291 43.5567C57.8522 43.6281 57.9108 43.7046 58.0042 43.7571C58.2412 43.8903 58.2677 44.0565 58.2873 44.1799C58.2906 44.2001 58.2936 44.2192 58.2973 44.2368C58.2994 44.2382 58.3041 44.2406 58.3142 44.2433C58.3388 44.2497 58.38 44.252 58.4307 44.243C58.53 44.2253 58.6317 44.1711 58.6761 44.081ZM58.296 44.2354C58.2961 44.2354 58.2966 44.2357 58.297 44.2365C58.2961 44.2359 58.2959 44.2355 58.296 44.2354Z" fill="white"/>
<path id="Vector 22 (Stroke)_5" fill-rule="evenodd" clip-rule="evenodd" d="M57.7796 45.9885C57.3525 46.0958 57.2384 46.4449 57.2329 46.6065L57.2327 46.6122L57.2334 46.6179C57.2536 46.7977 57.3949 46.9384 57.5371 47.014C57.6081 47.0518 57.6873 47.0778 57.761 47.0818C57.8355 47.0858 57.919 47.0666 57.9594 46.9982C57.9734 46.9745 57.9856 46.9517 57.9972 46.9301C58.0539 46.8242 58.096 46.7457 58.2703 46.7105C58.4261 46.679 58.5442 46.5988 58.6121 46.506C58.6768 46.4176 58.7093 46.2962 58.6407 46.1883C58.59 46.1085 58.5043 46.0189 58.3541 45.972C58.2095 45.9268 58.0235 45.9273 57.7796 45.9885ZM57.4514 46.6319C57.4582 46.5063 57.5524 46.2458 57.8677 46.1667C58.0909 46.1106 58.2256 46.1199 58.3051 46.1447C58.3791 46.1679 58.4211 46.2095 58.4516 46.2573C58.4641 46.2771 58.4697 46.328 58.422 46.3933C58.3775 46.4541 58.2977 46.5088 58.1923 46.5301C57.925 46.584 57.8473 46.7338 57.7897 46.8451C57.7802 46.8633 57.7713 46.8805 57.7622 46.8961C57.7598 46.8968 57.7545 46.8976 57.7441 46.8971C57.7187 46.8957 57.6788 46.8852 57.6335 46.8611C57.5447 46.8138 57.4652 46.7312 57.4514 46.6319ZM57.7638 46.8952C57.7637 46.8951 57.7632 46.8953 57.7626 46.8959C57.7636 46.8956 57.7639 46.8953 57.7638 46.8952Z" fill="white"/>
<path id="Vector 22 (Stroke)_6" fill-rule="evenodd" clip-rule="evenodd" d="M57.351 42.1668C57.0881 41.8184 56.7168 41.8472 56.5629 41.9036L56.5576 41.9056L56.5524 41.9083C56.3912 41.9951 56.3128 42.1772 56.2958 42.3355C56.2873 42.4146 56.293 42.4966 56.3173 42.5653C56.3418 42.6347 56.3916 42.7034 56.4711 42.7143C56.4988 42.718 56.5247 42.7205 56.5494 42.7228C56.6704 42.7342 56.7602 42.7427 56.8595 42.8882C56.9482 43.0182 57.0685 43.0953 57.1814 43.1219C57.289 43.1472 57.4154 43.1307 57.4907 43.0272C57.5463 42.9507 57.5979 42.8386 57.5849 42.6839C57.5723 42.535 57.5012 42.3657 57.351 42.1668ZM56.6221 42.1123C56.7426 42.0708 57.0231 42.0576 57.2172 42.3147C57.3547 42.4968 57.3971 42.623 57.404 42.7049C57.4104 42.7811 57.3873 42.8352 57.3539 42.8811C57.3402 42.9 57.2945 42.9245 57.215 42.9059C57.141 42.8884 57.0593 42.8365 56.9993 42.7486C56.8471 42.5256 56.6768 42.5117 56.5504 42.5014C56.5297 42.4998 56.5102 42.4982 56.4921 42.4958C56.4905 42.4939 56.4877 42.4894 56.4843 42.4797C56.4759 42.456 56.4707 42.4157 56.4761 42.3653C56.4867 42.2664 56.5341 42.1625 56.6221 42.1123ZM56.4936 42.497C56.4936 42.4968 56.4932 42.4964 56.4924 42.4961C56.4931 42.4969 56.4935 42.4971 56.4936 42.497Z" fill="white"/>
<path id="Ellipse 7 (Stroke)_3" fill-rule="evenodd" clip-rule="evenodd" d="M55.6547 45.341L55.6946 45.348C55.7589 45.3592 55.7931 45.3511 55.8093 45.3451C55.8256 45.339 55.8433 45.3276 55.8632 45.3027C55.9098 45.2443 55.948 45.136 55.9614 44.9982C55.9723 44.8858 55.8398 44.7131 55.638 44.7131C55.5202 44.7131 55.4529 44.7254 55.416 44.7376C55.3861 44.7474 55.3812 44.7552 55.3809 44.7558C55.3809 44.7558 55.3809 44.7558 55.3809 44.7558C55.3771 44.7605 55.3644 44.7786 55.3507 44.8329C55.3373 44.8854 55.3275 44.9517 55.3163 45.0451C55.319 45.2018 55.3592 45.2696 55.385 45.2958C55.4051 45.3161 55.4592 45.3551 55.6143 45.3439L55.6547 45.341ZM54.9943 45.0281C55.0425 44.6187 55.0908 44.3982 55.638 44.3982C55.9936 44.3982 56.314 44.6974 56.2818 45.0281C56.2496 45.3588 56.0887 45.7367 55.638 45.658C55.2035 45.6895 54.9943 45.4533 54.9943 45.0281Z" fill="white"/>
<path id="Ellipse 7 (Stroke)_4" fill-rule="evenodd" clip-rule="evenodd" d="M54.6395 46.0789L54.6411 46.0976C54.6438 46.1278 54.6516 46.1421 54.6564 46.1486C54.6612 46.1551 54.6686 46.1617 54.6826 46.1676C54.7152 46.1813 54.7698 46.1852 54.8351 46.1744C54.8883 46.1656 54.9519 46.0852 54.9273 45.9949C54.9129 45.9421 54.8991 45.9135 54.889 45.8984C54.8808 45.8863 54.8766 45.885 54.8763 45.8849C54.8763 45.8849 54.8763 45.8849 54.8763 45.8849C54.8737 45.8838 54.8637 45.8803 54.837 45.8808C54.8111 45.8812 54.7793 45.8849 54.7348 45.8913C54.6628 45.9116 54.6364 45.9378 54.6275 45.9526C54.6205 45.964 54.6091 45.993 54.6332 46.0611L54.6395 46.0789ZM54.7035 45.745C54.8984 45.7167 55.006 45.7115 55.0727 45.9565C55.116 46.1158 55.0169 46.2957 54.8603 46.3216C54.7037 46.3475 54.5096 46.3214 54.4911 46.11C54.4236 45.9192 54.5072 45.7968 54.7035 45.745Z" fill="white"/>
</g>
</g>
<g id="Group 569">
<g id="Group 568">
<path id="Rectangle 1152" d="M39.0785 33.1399L30.6039 39.4754L10.8274 13.3851L19.302 7.04957L39.0785 33.1399Z" fill="#E9EDED"/>
<path id="Rectangle 1152 (Stroke)" fill-rule="evenodd" clip-rule="evenodd" d="M30.6564 38.9609L38.566 33.0477L19.2495 7.56413L11.3398 13.4773L30.6564 38.9609ZM39.0785 33.1399L19.302 7.04957L10.8274 13.3851L30.6039 39.4754L39.0785 33.1399Z" fill="#25474F"/>
</g>
<path id="Rectangle 1154" d="M7.80608 9.3988C7.36103 8.81166 7.50614 7.95749 8.13019 7.49095L14.3449 2.84488C14.969 2.37834 15.8357 2.47611 16.2807 3.06325L19.3026 7.04988L10.8279 13.3854L7.80608 9.3988Z" fill="#25474F"/>
<path id="Polygon 1" d="M42.873 45.2536C43.1684 46.1969 42.1079 46.9897 41.2768 46.4469L30.6046 39.4758L39.0792 33.1403L42.873 45.2536Z" fill="#25474F"/>
</g>
</g>
</g>
</svg>
