<svg width="34" height="34" viewBox="0 0 34 34" fill="none" xmlns="http://www.w3.org/2000/svg">
<path d="M27.8463 6.20475C29.4333 7.75488 30.2351 9.88689 30.308 12.2742L27.8935 14.7461C28.2111 12.1402 27.5882 9.76267 25.9418 8.15452C23.1546 5.43205 18.2321 5.6939 13.7883 8.47536L27.3298 21.7024C26.8392 22.4527 26.2901 23.1898 25.684 23.9049L10.2018 8.78218C16.1684 3.47976 23.8202 2.27206 27.8463 6.20475Z" fill="#25474F"/>
<path d="M6.13502 28.4321C4.54805 26.882 3.74627 24.75 3.6733 22.3627L6.08782 19.8908C5.77028 22.4967 6.39315 24.8742 8.03952 26.4823C10.8267 29.2048 15.7493 28.943 20.193 26.1615L6.65159 12.9345C7.14218 12.1841 7.69126 11.4471 8.29734 10.7319L23.7795 25.8547C17.813 31.1571 10.1612 32.3648 6.13502 28.4321Z" fill="#25474F"/>
</svg>
