<svg width="24" height="24" viewBox="0 0 24 24" fill="none" xmlns="http://www.w3.org/2000/svg">
<path d="M19.8882 3.96714C21.0423 5.0945 21.6255 6.64506 21.6785 8.38125L19.9225 10.179C20.1535 8.2838 19.7005 6.55472 18.5031 5.38515C16.4761 3.40517 12.896 3.59561 9.6642 5.61849L19.5125 15.2381C19.1557 15.7838 18.7564 16.3199 18.3156 16.84L7.05584 5.84163C11.3951 1.98532 16.9601 1.107 19.8882 3.96714Z" fill="#25474F"/>
<path d="M4.09815 20.1325C2.944 19.0051 2.36088 17.4546 2.30781 15.7184L4.06382 13.9206C3.83289 15.8158 4.28588 17.5449 5.48325 18.7145C7.51029 20.6944 11.0903 20.504 14.3221 18.4811L4.47384 8.86146C4.83063 8.31578 5.22996 7.77974 5.67075 7.25964L16.9305 18.258C12.5912 22.1143 7.02627 22.9926 4.09815 20.1325Z" fill="#25474F"/>
</svg>
