<svg width="61" height="61" viewBox="0 0 61 61" fill="none" xmlns="http://www.w3.org/2000/svg">
<path d="M48.5877 32.6875H31.5762L42.9055 44.7251C43.3385 45.1852 44.0511 45.2225 44.4963 44.7769C47.2708 41.9996 49.1792 38.2557 49.7391 34.0472C49.8351 33.3266 49.2724 32.6875 48.5877 32.6875Z" fill="#7C9195"/>
<path d="M47.453 27.7515C46.8622 18.6519 40.0186 11.3804 31.4544 10.7528C30.8006 10.7048 30.25 11.2905 30.25 11.9868V29.0312H46.2923C46.9475 29.0312 47.4981 28.4461 47.453 27.7515Z" fill="#A8B5B9"/>
<path d="M26.8089 32.6874V14.6124C26.8089 13.885 26.2074 13.287 25.53 13.3891C16.9866 14.6718 10.4562 22.6022 10.7602 32.1062C11.0728 41.867 18.9824 49.8712 28.1732 49.7486C31.7864 49.7006 35.1251 48.4636 37.8701 46.3947C38.4365 45.9682 38.4738 45.0823 37.9827 44.5605L26.8089 32.6874Z" fill="#25474F"/>
</svg>
