<svg width="33" height="34" viewBox="0 0 33 34" fill="none" xmlns="http://www.w3.org/2000/svg">
<path d="M27.3463 5.95475C28.9333 7.50488 29.7351 9.63689 29.808 12.0242L27.3935 14.4961C27.7111 11.8902 27.0882 9.51267 25.4418 7.90452C22.6546 5.18205 17.7321 5.4439 13.2883 8.22536L26.8298 21.4524C26.3392 22.2027 25.7901 22.9398 25.184 23.6549L9.70184 8.53218C15.6684 3.22976 23.3202 2.02206 27.3463 5.95475Z" fill="#25474F"/>
<path d="M5.63502 28.1821C4.04805 26.632 3.24627 24.5 3.1733 22.1127L5.58782 19.6408C5.27028 22.2467 5.89315 24.6242 7.53952 26.2323C10.3267 28.9548 15.2493 28.693 19.693 25.9115L6.15159 12.6845C6.64218 11.9341 7.19126 11.1971 7.79734 10.4819L23.2795 25.6047C17.313 30.9071 9.66119 32.1148 5.63502 28.1821Z" fill="#25474F"/>
</svg>
