<svg width="60" height="61" viewBox="0 0 60 61" fill="none" xmlns="http://www.w3.org/2000/svg">
<path d="M53.3311 29.0997L49.9792 18.463C49.7074 18.612 49.4734 18.828 49.2771 19.111C49.0809 19.3941 48.9827 19.7144 48.9827 20.0719V29.0997C48.9827 29.9041 48.9525 30.5447 48.8921 31.0214C48.8317 31.4981 48.7109 31.9897 48.5298 32.4962L47.6691 35.0437C47.5182 35.5204 47.2162 35.863 46.7632 36.0716C46.3103 36.2801 45.8422 36.3099 45.3591 36.161C44.8759 36.012 44.5211 35.7215 44.2946 35.2895C44.0682 34.8574 44.0304 34.4031 44.1814 33.9264L44.8155 32.0493C44.9665 31.5428 45.0873 30.9693 45.1779 30.3287C45.2685 29.6881 45.3289 28.8166 45.3591 27.7142V27.2226C45.0269 27.2226 44.7098 27.3194 44.4079 27.5131C44.1059 27.7068 43.9096 27.9377 43.819 28.2058L39.9236 38.6637V41.524H49.8886L53.3311 29.0997ZM56.8641 30.0382L53.6028 41.524C54.388 41.7623 55.0221 42.2316 55.5053 42.9318C55.9884 43.6319 56.23 44.3545 56.23 45.0993V48.6747C56.23 49.6579 55.8752 50.4996 55.1655 51.1997C54.4559 51.8999 53.6028 52.25 52.6063 52.25H39.9236C38.9271 52.25 38.0741 51.8999 37.3644 51.1997C36.6548 50.4996 36.3 49.6579 36.3 48.6747V38.6637C36.3 38.4551 36.3226 38.2466 36.3679 38.038C36.4132 37.8295 36.4661 37.6358 36.5265 37.457L40.4672 26.9545C40.8295 25.9712 41.4637 25.1742 42.3696 24.5634C43.2755 23.9527 44.272 23.6473 45.3591 23.6473V20.0719C45.3591 18.5822 45.8573 17.3159 46.8538 16.2731C47.8503 15.2303 49.1639 14.7089 50.7945 14.7089C51.4589 14.7089 51.9798 14.8802 52.3572 15.2229C52.7347 15.5655 53.0442 16.0943 53.2858 16.8094L56.8188 27.9824C56.9396 28.3101 57 28.6527 57 29.0103C57 29.3678 56.9547 29.7104 56.8641 30.0382ZM52.6063 48.6747V45.0993H39.9236V48.6747H52.6063Z" fill="#333333"/>
<path d="M6.61575 29.0997L9.91904 18.463C10.1869 18.612 10.4175 18.828 10.6109 19.111C10.8044 19.3941 10.9011 19.7144 10.9011 20.0719V29.0997C10.9011 29.9041 10.9309 30.5447 10.9904 31.0214C11.0499 31.4981 11.1689 31.9897 11.3475 32.4962L12.1956 35.0437C12.3444 35.5204 12.642 35.863 13.0884 36.0716C13.5348 36.2801 13.9961 36.3099 14.4722 36.161C14.9484 36.012 15.298 35.7215 15.5212 35.2895C15.7444 34.8574 15.7816 34.4031 15.6328 33.9264L15.0079 32.0493C14.8591 31.5428 14.74 30.9693 14.6508 30.3287C14.5615 29.6881 14.502 28.8166 14.4722 27.7142V27.2226C14.7996 27.2226 15.112 27.3194 15.4096 27.5131C15.7072 27.7068 15.9007 27.9377 15.9899 28.2058L19.8289 38.6637V41.524H10.0083L6.61575 29.0997ZM3.13391 30.0382L6.34792 41.524C5.57418 41.7623 4.94923 42.2316 4.47308 42.9318C3.99693 43.6319 3.75886 44.3545 3.75886 45.0993V48.6747C3.75886 49.6579 4.10853 50.4996 4.80788 51.1997C5.50722 51.8999 6.34792 52.25 7.32998 52.25H19.8289C20.8109 52.25 21.6516 51.8999 22.351 51.1997C23.0503 50.4996 23.4 49.6579 23.4 48.6747V38.6637C23.4 38.4551 23.3777 38.2466 23.333 38.038C23.2884 37.8295 23.2363 37.6358 23.1768 37.457L19.2932 26.9545C18.9361 25.9712 18.3112 25.1742 17.4184 24.5634C16.5256 23.9527 15.5435 23.6473 14.4722 23.6473V20.0719C14.4722 18.5822 13.9812 17.3159 12.9991 16.2731C12.0171 15.2303 10.7225 14.7089 9.11553 14.7089C8.46083 14.7089 7.94748 14.8802 7.57549 15.2229C7.2035 15.5655 6.89847 16.0943 6.66039 16.8094L3.17855 27.9824C3.05952 28.3101 3 28.6527 3 29.0103C3 29.3678 3.04464 29.7104 3.13391 30.0382ZM7.32998 48.6747V45.0993H19.8289V48.6747H7.32998Z" fill="#333333"/>
<path d="M32.715 19.7889H36.135C36.8475 19.7889 37.4531 19.5412 37.9519 19.0459C38.4506 18.5505 38.7 17.9491 38.7 17.2414C38.7 16.5338 38.4506 15.9323 37.9519 15.437C37.4531 14.9417 36.8475 14.694 36.135 14.694H32.715V11.2974C32.715 10.5898 32.4656 9.98833 31.9669 9.493C31.4681 8.99767 30.8625 8.75 30.15 8.75C29.4375 8.75 28.8319 8.99767 28.3331 9.493C27.8344 9.98833 27.585 10.5898 27.585 11.2974V14.694H24.165C23.4525 14.694 22.8469 14.9417 22.3481 15.437C21.8494 15.9323 21.6 16.5338 21.6 17.2414C21.6 17.9491 21.8494 18.5505 22.3481 19.0459C22.8469 19.5412 23.4525 19.7889 24.165 19.7889H27.585V23.1854C27.585 23.8931 27.8344 24.4945 28.3331 24.9899C28.8319 25.4852 29.4375 25.7329 30.15 25.7329C30.8625 25.7329 31.4681 25.4852 31.9669 24.9899C32.4656 24.4945 32.715 23.8931 32.715 23.1854V19.7889Z" fill="#333333"/>
</svg>
