<svg width="60" height="61" viewBox="0 0 60 61" fill="none" xmlns="http://www.w3.org/2000/svg">
<path d="M8.73938 40.853C8.73938 39.897 9.49815 39.122 10.4341 39.122H15.5184C16.4543 39.122 17.2131 39.897 17.2131 40.853V56H8.73938V40.853Z" fill="#333333"/>
<path d="M19.9671 37.3909C19.9671 36.4348 20.7258 35.6598 21.6618 35.6598H26.746C27.682 35.6598 28.4408 36.4348 28.4408 37.3909V56H19.9671V37.3909Z" fill="#333333"/>
<path d="M31.1947 31.7649C31.1947 30.8088 31.9535 30.0338 32.8895 30.0338H37.9737C38.9097 30.0338 39.6684 30.8088 39.6684 31.7649V56H31.1947V31.7649Z" fill="#333333"/>
<path d="M42.4224 20.5129C42.4224 19.5568 43.1812 18.7818 44.1171 18.7818H49.2014C50.1373 18.7818 50.8961 19.5568 50.8961 20.5129V56H42.4224V20.5129Z" fill="#333333"/>
<path fill-rule="evenodd" clip-rule="evenodd" d="M51.683 5.93153C51.6331 5.3685 51.1523 4.95333 50.609 5.00422L50.5195 5.01261C50.4229 5.0082 50.326 5.01727 50.2317 5.03956L41.7562 5.83348C41.2129 5.88437 40.813 6.38204 40.8628 6.94506C40.9127 7.50809 41.3935 7.92326 41.9368 7.87237L47.4046 7.36019C47.5776 7.34398 47.7506 7.34729 47.9208 7.36934C42.6589 12.8973 35.5411 16.8347 28.5094 19.5309C20.6801 22.533 13.0618 23.9566 8.47144 24.3468C7.88846 24.3963 7.4552 24.9192 7.50371 25.5147C7.55222 26.1102 8.06414 26.5527 8.64711 26.5032C13.4215 26.0974 21.232 24.6327 29.254 21.5567C36.5542 18.7575 44.1163 14.5908 49.7081 8.59287C49.8835 8.90478 49.9939 9.25597 50.0265 9.62398L50.5285 15.2908C50.5784 15.8538 51.0592 16.269 51.6025 16.2181C52.1457 16.1672 52.5457 15.6696 52.4958 15.1065L51.683 5.93153Z" fill="#333333"/>
</svg>
