<svg width="80" height="80" viewBox="0 0 80 80" fill="none" xmlns="http://www.w3.org/2000/svg">
<path d="M16.0631 54.6842L14.7449 53.5421C11.8886 51.0404 9.88373 48.1851 8.73024 44.9763C7.57675 41.7675 7 38.5316 7 35.2684C7 30.1561 8.30454 25.5197 10.9136 21.3592C13.5227 17.1987 17.0519 14.0035 21.501 11.7737C22.27 11.3386 23.094 11.3114 23.9728 11.6921C24.8517 12.0728 25.4284 12.6982 25.703 13.5684C25.9777 14.3842 25.964 15.2 25.6618 16.0158C25.3597 16.8316 24.8242 17.457 24.0552 17.8921C20.8694 19.6325 18.3289 22.039 16.4339 25.1118C14.5389 28.1846 13.5914 31.5702 13.5914 35.2684C13.5914 37.7158 14.0583 40.0952 14.992 42.4066C15.9258 44.718 17.3814 46.8526 19.3588 48.8105L20.1828 49.6263V44.8947C20.1828 43.9702 20.4986 43.1952 21.1303 42.5697C21.7619 41.9443 22.5447 41.6316 23.4785 41.6316C24.4122 41.6316 25.195 41.9443 25.8266 42.5697C26.4583 43.1952 26.7741 43.9702 26.7741 44.8947V57.9474C26.7741 58.8719 26.4583 59.6469 25.8266 60.2724C25.195 60.8978 24.4122 61.2105 23.4785 61.2105H10.2957C9.36191 61.2105 8.57918 60.8978 7.94751 60.2724C7.31584 59.6469 7 58.8719 7 57.9474C7 57.0228 7.31584 56.2478 7.94751 55.6224C8.57918 54.9969 9.36191 54.6842 10.2957 54.6842H16.0631ZM53.1397 20.5842V25.3158C53.1397 26.2404 52.8238 27.0154 52.1922 27.6408C51.5605 28.2662 50.7778 28.5789 49.844 28.5789C48.9102 28.5789 48.1275 28.2662 47.4958 27.6408C46.8641 27.0154 46.5483 26.2404 46.5483 25.3158V12.2632C46.5483 11.3386 46.8641 10.5636 47.4958 9.93816C48.1275 9.31272 48.9102 9 49.844 9H63.0267C63.9605 9 64.7432 9.31272 65.3749 9.93816C66.0066 10.5636 66.3224 11.3386 66.3224 12.2632C66.3224 13.1877 66.0066 13.9627 65.3749 14.5882C64.7432 15.2136 63.9605 15.5263 63.0267 15.5263H57.2593L58.5776 16.6684C60.8296 18.9526 62.5598 21.3728 63.7683 23.9289C64.9767 26.4851 65.7457 29.1228 66.0753 31.8421H59.4015C59.1268 29.9386 58.5364 28.1167 57.63 26.3763C56.7237 24.636 55.5016 22.9772 53.9636 21.4L53.1397 20.5842ZM54.4579 71C54.0185 71 53.6752 70.8776 53.428 70.6329C53.1809 70.3882 53.0023 70.0754 52.8925 69.6947L52.151 66.1053C51.4918 65.8333 50.8739 65.5478 50.2971 65.2487C49.7204 64.9496 49.1299 64.5825 48.5257 64.1474L44.9828 65.2079C44.5983 65.3167 44.2413 65.3031 43.9117 65.1671C43.5822 65.0311 43.3075 64.8 43.0878 64.4737L41.1104 61.2105C40.8907 60.8842 40.8358 60.5307 40.9456 60.15C41.0555 59.7693 41.2477 59.443 41.5224 59.1711L44.2413 56.8053C44.1314 56.0439 44.0765 55.3368 44.0765 54.6842C44.0765 54.0316 44.1314 53.3246 44.2413 52.5632L41.5224 50.1974C41.2477 49.9254 41.0555 49.5991 40.9456 49.2184C40.8358 48.8377 40.8907 48.4842 41.1104 48.1579L43.0878 44.8947C43.3075 44.5684 43.5822 44.3373 43.9117 44.2013C44.2413 44.0654 44.5983 44.0518 44.9828 44.1605L48.5257 45.2211C49.1299 44.786 49.7204 44.4189 50.2971 44.1197C50.8739 43.8206 51.4918 43.5351 52.151 43.2632L52.8925 39.6737C53.0023 39.293 53.1809 38.9803 53.428 38.7355C53.6752 38.4908 54.0185 38.3684 54.4579 38.3684H58.4128C58.8522 38.3684 59.1955 38.4908 59.4427 38.7355C59.6898 38.9803 59.8684 39.293 59.9782 39.6737L60.7198 43.2632C61.3789 43.5351 61.9968 43.8342 62.5736 44.1605C63.1503 44.4868 63.7408 44.8947 64.345 45.3842L67.8055 44.1605C68.19 44.0518 68.5607 44.0654 68.9178 44.2013C69.2748 44.3373 69.5632 44.5684 69.7829 44.8947L71.7603 48.3211C71.98 48.6474 72.0487 49.0009 71.9663 49.3816C71.8839 49.7623 71.7054 50.0886 71.4307 50.3605L68.6294 52.7263C68.7393 53.3789 68.7942 54.0588 68.7942 54.7658C68.7942 55.4728 68.7393 56.1526 68.6294 56.8053L71.3484 59.1711C71.623 59.443 71.8152 59.7693 71.9251 60.15C72.035 60.5307 71.98 60.8842 71.7603 61.2105L69.7829 64.4737C69.5632 64.8 69.2886 65.0311 68.959 65.1671C68.6294 65.3031 68.2724 65.3167 67.8879 65.2079L64.345 64.1474C63.7408 64.5825 63.1503 64.9496 62.5736 65.2487C61.9968 65.5478 61.3789 65.8333 60.7198 66.1053L59.9782 69.6947C59.8684 70.0754 59.6898 70.3882 59.4427 70.6329C59.1955 70.8776 58.8522 71 58.4128 71H54.4579ZM56.4354 61.2105C58.248 61.2105 59.7997 60.5715 61.0905 59.2934C62.3813 58.0154 63.0267 56.4789 63.0267 54.6842C63.0267 52.8895 62.3813 51.3531 61.0905 50.075C59.7997 48.7969 58.248 48.1579 56.4354 48.1579C54.6227 48.1579 53.071 48.7969 51.7802 50.075C50.4894 51.3531 49.844 52.8895 49.844 54.6842C49.844 56.4789 50.4894 58.0154 51.7802 59.2934C53.071 60.5715 54.6227 61.2105 56.4354 61.2105Z" fill="#333333"/>
</svg>
