<svg width="117" height="30" viewBox="0 0 117 30" fill="none" xmlns="http://www.w3.org/2000/svg">
<g id="Group 698">
<path id="Fast" d="M117 7.35527L116.467 10.8478H105L105.533 7.35527H117ZM109.428 2H113.515L110.207 23.1446C110.08 23.9886 110.103 24.6241 110.276 25.0509C110.449 25.4681 110.713 25.7543 111.068 25.9095C111.433 26.055 111.838 26.1278 112.285 26.1278C112.613 26.1278 112.9 26.1036 113.146 26.055C113.392 26.0065 113.588 25.9677 113.733 25.9386L113.952 29.5331C113.679 29.6301 113.31 29.7271 112.845 29.8241C112.39 29.9308 111.834 29.989 111.178 29.9987C110.103 30.0181 109.132 29.8144 108.267 29.3875C107.401 28.951 106.754 28.2913 106.326 27.4084C105.897 26.5159 105.793 25.3953 106.011 24.0468L109.428 2Z" fill="white"/>
<path id="Rectangle 1161" d="M2 13H29L27 16H0L2 13Z" fill="url(#paint0_linear_602_7242)"/>
<path id="Fast_2" d="M36 30L40.8571 0H59L58.3714 3.89649H44.6429L43.1571 13.0371H55.5857L54.9571 16.9189H42.5286L40.4143 30H36Z" fill="white"/>
<path id="Fast_3" d="M65.4739 30C64.0771 30 62.8573 29.7396 61.8144 29.2189C60.7716 28.6885 60.0015 27.9218 59.504 26.9189C59.0065 25.9159 58.8773 24.6864 59.1165 23.2302C59.327 21.9765 59.7384 20.9447 60.3507 20.1346C60.9725 19.3245 61.7283 18.6832 62.6181 18.2107C63.5078 17.7285 64.4741 17.3669 65.517 17.1258C66.5598 16.8847 67.6122 16.7063 68.6741 16.5906C70.0136 16.4363 71.0994 16.3061 71.9318 16.2C72.7737 16.0939 73.4051 15.93 73.8261 15.7082C74.2471 15.4767 74.5006 15.1006 74.5867 14.5799V14.4786C74.7876 13.2249 74.6058 12.2509 74.0414 11.5566C73.4865 10.8526 72.5202 10.5006 71.1425 10.5006C69.7074 10.5006 68.5019 10.8189 67.5261 11.4553C66.5598 12.0918 65.847 12.8054 65.3878 13.5962L61.5418 12.6704C62.2306 11.3203 63.106 10.2306 64.168 9.40126C65.2395 8.56226 66.4115 7.95472 67.6839 7.57861C68.9564 7.19287 70.2575 7 71.5874 7C72.4676 7 73.3812 7.10608 74.3284 7.31824C75.2755 7.52075 76.1366 7.89685 76.9115 8.44654C77.696 8.99622 78.2796 9.78218 78.6623 10.8044C79.045 11.817 79.1024 13.1333 78.8345 14.7535L76.4093 29.5082H72.2188L72.7354 26.4704H72.5632C72.1997 27.0298 71.6926 27.5795 71.042 28.1195C70.401 28.6595 69.6165 29.108 68.6885 29.4648C67.7605 29.8216 66.6889 30 65.4739 30ZM66.9377 26.5283C68.1336 26.5283 69.1908 26.292 70.1092 25.8195C71.0373 25.347 71.7883 24.7298 72.3623 23.9679C72.9363 23.1964 73.2951 22.3719 73.4386 21.4943L73.9122 18.6302C73.7304 18.7845 73.4099 18.9243 72.9507 19.0497C72.501 19.1751 71.994 19.286 71.4295 19.3824C70.865 19.4788 70.3101 19.5608 69.7648 19.6283C69.229 19.6958 68.7842 19.7585 68.4302 19.8164C67.5883 19.9224 66.799 20.1008 66.0623 20.3516C65.3352 20.6023 64.7277 20.9639 64.2397 21.4365C63.7518 21.8994 63.4457 22.5166 63.3213 23.288C63.1491 24.3585 63.4026 25.1686 64.0819 25.7182C64.7707 26.2583 65.7227 26.5283 66.9377 26.5283Z" fill="white"/>
<path id="Fast_4" d="M101 12.7246L97.0675 13.4203C96.9829 12.9082 96.8091 12.4251 96.546 11.971C96.2923 11.5169 95.9023 11.1498 95.3761 10.8696C94.8499 10.5797 94.1498 10.4348 93.276 10.4348C92.0638 10.4348 91.002 10.7198 90.0905 11.2899C89.1884 11.8599 88.6716 12.5845 88.5401 13.4638C88.4179 14.1787 88.5823 14.7585 89.0334 15.2029C89.4844 15.6377 90.2784 16 91.4154 16.2899L94.7418 17.1014C96.6588 17.5749 98.0307 18.314 98.8576 19.3188C99.6939 20.314 99.9852 21.6087 99.7315 23.2029C99.5153 24.5266 98.9515 25.7005 98.0401 26.7246C97.138 27.7488 95.9822 28.5507 94.5727 29.1304C93.1632 29.7101 91.594 30 89.865 30C87.4031 30 85.4861 29.4638 84.1142 28.3913C82.7423 27.3188 82.0376 25.8019 82 23.8406L86.1721 23.2029C86.2473 24.2947 86.6278 25.1208 87.3138 25.6812C88.0091 26.2319 88.9723 26.5072 90.2033 26.5072C91.6128 26.5169 92.792 26.2126 93.7411 25.5942C94.6902 24.9758 95.2305 24.2271 95.362 23.3478C95.4748 22.6618 95.3244 22.0918 94.911 21.6377C94.5069 21.1836 93.7928 20.8357 92.7685 20.5942L89.273 19.7681C87.3185 19.2947 85.9372 18.5314 85.1291 17.4783C84.321 16.4251 84.0485 15.1014 84.3116 13.5072C84.5183 12.2029 85.0539 11.0676 85.9184 10.1014C86.7923 9.1256 87.8964 8.36715 89.2307 7.82609C90.565 7.27536 92.0403 7 93.6565 7C96.0151 7 97.7863 7.52174 98.9703 8.56522C100.154 9.59903 100.831 10.9855 101 12.7246Z" fill="white"/>
<path id="Rectangle 1160" d="M18 0H52L50 3H16L18 0Z" fill="url(#paint1_linear_602_7242)"/>
<path id="Rectangle 1162" d="M9 27H40L38 30H7L9 27Z" fill="url(#paint2_linear_602_7242)"/>
</g>
<defs>
<linearGradient id="paint0_linear_602_7242" x1="21.3472" y1="15" x2="-6.07487" y2="16.2994" gradientUnits="userSpaceOnUse">
<stop stop-color="white"/>
<stop offset="1" stop-color="white" stop-opacity="0"/>
</linearGradient>
<linearGradient id="paint1_linear_602_7242" x1="42.5" y1="2" x2="8.5" y2="3.99999" gradientUnits="userSpaceOnUse">
<stop stop-color="white"/>
<stop offset="1" stop-color="white" stop-opacity="0"/>
</linearGradient>
<linearGradient id="paint2_linear_602_7242" x1="31.2917" y1="29" x2="0.107823" y2="30.6815" gradientUnits="userSpaceOnUse">
<stop stop-color="white"/>
<stop offset="1" stop-color="white" stop-opacity="0"/>
</linearGradient>
</defs>
</svg>
