<svg width="124" height="32" viewBox="0 0 124 32" fill="none" xmlns="http://www.w3.org/2000/svg">
<g id="Group 576">
<path id="F" d="M37 32L42.2795 0H62L61.3168 4.15625H46.3944L44.7795 13.9062H58.2888L57.6056 18.0469H44.0963L41.7981 32H37Z" fill="white"/>
<path id="a" d="M67.1213 32C65.5848 32 64.243 31.717 63.0959 31.1509C61.9488 30.5744 61.1016 29.7411 60.5544 28.6509C60.0071 27.5608 59.865 26.2243 60.1281 24.6415C60.3597 23.2788 60.8122 22.1572 61.4857 21.2767C62.1698 20.3962 63.0012 19.6992 63.9799 19.1855C64.9586 18.6614 66.0215 18.2683 67.1687 18.0063C68.3158 17.7442 69.4734 17.5503 70.6416 17.4245C72.1149 17.2568 73.3094 17.1153 74.225 17C75.1511 16.8847 75.8457 16.7065 76.3087 16.4654C76.7718 16.2138 77.0506 15.805 77.1454 15.239V15.1289C77.3664 13.7662 77.1664 12.7075 76.5455 11.9528C75.9351 11.1876 74.8722 10.805 73.3567 10.805C71.7781 10.805 70.4521 11.1509 69.3787 11.8428C68.3158 12.5346 67.5317 13.3103 67.0266 14.1698L62.796 13.1635C63.5537 11.696 64.5166 10.5115 65.6848 9.61006C66.8635 8.69811 68.1526 8.03773 69.5523 7.62893C70.952 7.20964 72.3833 7 73.8461 7C74.8143 7 75.8193 7.1153 76.8612 7.34591C77.9031 7.56604 78.8502 7.97484 79.7027 8.57233C80.5656 9.16981 81.2076 10.0241 81.6286 11.1352C82.0495 12.2358 82.1127 13.6667 81.818 15.4277L79.1502 31.4654H74.5407L75.109 28.1635H74.9195C74.5196 28.7715 73.9619 29.369 73.2462 29.956C72.5411 30.543 71.6782 31.0304 70.6573 31.4182C69.6365 31.8061 68.4578 32 67.1213 32ZM68.7315 28.2264C70.047 28.2264 71.2099 27.9696 72.2202 27.456C73.241 26.9423 74.0671 26.2715 74.6985 25.4434C75.33 24.6048 75.7246 23.7086 75.8825 22.7547L76.4034 19.6415C76.2035 19.8092 75.8509 19.9612 75.3458 20.0975C74.8511 20.2338 74.2934 20.3543 73.6725 20.4591C73.0515 20.5639 72.4412 20.653 71.8413 20.7264C71.2519 20.7998 70.7626 20.8679 70.3732 20.9308C69.4471 21.0461 68.5789 21.24 67.7685 21.5126C66.9687 21.7851 66.3004 22.1782 65.7637 22.6918C65.227 23.195 64.8902 23.8658 64.7534 24.7044C64.564 25.8679 64.8429 26.7484 65.5901 27.3459C66.3478 27.9329 67.3949 28.2264 68.7315 28.2264Z" fill="white"/>
<path id="s" d="M106 13.2224L101.654 13.9786C101.56 13.422 101.368 12.8969 101.077 12.4033C100.797 11.9097 100.366 11.5106 99.7841 11.206C99.2025 10.891 98.4288 10.7335 97.4629 10.7335C96.1231 10.7335 94.9496 11.0433 93.9421 11.6629C92.9451 12.2825 92.3739 13.0702 92.2285 14.0258C92.0935 14.803 92.2752 15.4331 92.7737 15.9162C93.2723 16.3888 94.1499 16.7826 95.4065 17.0977L99.0831 17.9798C101.202 18.4944 102.718 19.2978 103.632 20.39C104.556 21.4718 104.878 22.879 104.598 24.6118C104.359 26.0506 103.736 27.3266 102.728 28.4398C101.731 29.553 100.454 30.4247 98.8961 31.0548C97.3383 31.6849 95.6039 32 93.6929 32C90.9718 32 88.8531 31.4171 87.3368 30.2514C85.8205 29.0857 85.0415 27.4369 85 25.305L89.6113 24.6118C89.6944 25.7986 90.115 26.6965 90.8731 27.3056C91.6417 27.9042 92.7062 28.2035 94.0668 28.2035C95.6246 28.214 96.928 27.8832 97.977 27.2111C99.026 26.539 99.6231 25.7251 99.7685 24.7694C99.8932 24.0237 99.727 23.4041 99.27 22.9105C98.8234 22.4169 98.0341 22.0389 96.9021 21.7763L93.0386 20.8784C90.8783 20.3638 89.3516 19.5341 88.4585 18.3894C87.5653 17.2447 87.2641 15.8059 87.5549 14.0731C87.7834 12.6553 88.3754 11.4213 89.3309 10.3711C90.2967 9.31044 91.5171 8.48603 92.9918 7.89792C94.4666 7.29931 96.0972 7 97.8835 7C100.49 7 102.448 7.56711 103.757 8.70132C105.065 9.82504 105.813 11.3321 106 13.2224Z" fill="white"/>
<path id="t" d="M124 7.73779L123.378 11.4798H110L110.622 7.73779H124ZM115.166 2H119.934L116.075 24.6549C115.926 25.5592 115.953 26.2401 116.155 26.6974C116.357 27.1444 116.665 27.451 117.08 27.6173C117.505 27.7733 117.978 27.8512 118.499 27.8512C118.882 27.8512 119.216 27.8252 119.503 27.7733C119.79 27.7213 120.019 27.6797 120.189 27.6485L120.444 31.4997C120.125 31.6037 119.695 31.7076 119.153 31.8115C118.621 31.9259 117.973 31.9883 117.207 31.9986C115.953 32.0194 114.821 31.8011 113.811 31.3438C112.801 30.876 112.046 30.1692 111.547 29.2233C111.047 28.267 110.925 27.0664 111.18 25.6216L115.166 2Z" fill="white"/>
<path id="Rectangle 1155" d="M18 0H52L50 3H16L18 0Z" fill="url(#paint0_linear_602_7156)"/>
<path id="Rectangle 1156" d="M2 13.5H29L27 16.5H0L2 13.5Z" fill="url(#paint1_linear_602_7156)"/>
<path id="Rectangle 1157" d="M10 29H41L39 32H8L10 29Z" fill="url(#paint2_linear_602_7156)"/>
</g>
<defs>
<linearGradient id="paint0_linear_602_7156" x1="42.5" y1="2" x2="8.5" y2="3.99999" gradientUnits="userSpaceOnUse">
<stop stop-color="white"/>
<stop offset="1" stop-color="white" stop-opacity="0"/>
</linearGradient>
<linearGradient id="paint1_linear_602_7156" x1="21.3472" y1="15.5" x2="-6.07487" y2="16.7994" gradientUnits="userSpaceOnUse">
<stop stop-color="white"/>
<stop offset="1" stop-color="white" stop-opacity="0"/>
</linearGradient>
<linearGradient id="paint2_linear_602_7156" x1="32.2917" y1="31" x2="1.10782" y2="32.6815" gradientUnits="userSpaceOnUse">
<stop stop-color="white"/>
<stop offset="1" stop-color="white" stop-opacity="0"/>
</linearGradient>
</defs>
</svg>
