<svg width="25" height="24" viewBox="0 0 25 24" fill="none" xmlns="http://www.w3.org/2000/svg">
<path d="M7.31406 21C6.8974 21 6.54323 20.8542 6.25156 20.5625C5.9599 20.2708 5.81406 19.9167 5.81406 19.5V5.25H4.78906V3.75H9.48906V3H16.0891V3.75H20.7891V5.25H19.7641V19.5C19.7641 19.9 19.6141 20.25 19.3141 20.55C19.0141 20.85 18.6641 21 18.2641 21H7.31406ZM18.2641 5.25H7.31406V19.5H18.2641V5.25ZM9.96406 17.35H11.4641V7.375H9.96406V17.35ZM14.1141 17.35H15.6141V7.375H14.1141V17.35ZM7.31406 5.25V19.5V5.25Z" fill="#7C9195"/>
</svg>
