<svg width="24" height="24" viewBox="0 0 24 24" fill="none" xmlns="http://www.w3.org/2000/svg">
<path d="M6.46842 21C6.05537 21 5.70428 20.8542 5.41514 20.5625C5.126 20.2708 4.98144 19.9167 4.98144 19.5V5.25H3.96533V3.75H8.62454V3H15.1673V3.75H19.8265V5.25H18.8104V19.5C18.8104 19.9 18.6617 20.25 18.3643 20.55C18.0669 20.85 17.7199 21 17.3234 21H6.46842ZM17.3234 5.25H6.46842V19.5H17.3234V5.25ZM9.09542 17.35H10.5824V7.375H9.09542V17.35ZM13.2094 17.35H14.6964V7.375H13.2094V17.35ZM6.46842 5.25V19.5V5.25Z" fill="#7C9195"/>
</svg>
