<svg width="60" height="60" viewBox="0 0 60 60" fill="none" xmlns="http://www.w3.org/2000/svg">
<path d="M23.3 33.2025H31.025V51.2025C31.025 53.8525 34.325 55.1025 36.075 53.1025L55 31.6025C56.65 29.7275 55.325 26.8025 52.825 26.8025H45.1V8.80249C45.1 6.15249 41.8 4.90249 40.05 6.90249L21.125 28.4025C19.5 30.2775 20.825 33.2025 23.3 33.2025ZM21.25 11.875H3.75C2.725 11.875 1.875 11.025 1.875 9.99999C1.875 8.97499 2.725 8.12499 3.75 8.12499H21.25C22.275 8.12499 23.125 8.97499 23.125 9.99999C23.125 11.025 22.275 11.875 21.25 11.875ZM18.75 51.875H3.75C2.725 51.875 1.875 51.025 1.875 50C1.875 48.975 2.725 48.125 3.75 48.125H18.75C19.775 48.125 20.625 48.975 20.625 50C20.625 51.025 19.775 51.875 18.75 51.875ZM11.25 31.875H3.75C2.725 31.875 1.875 31.025 1.875 30C1.875 28.975 2.725 28.125 3.75 28.125H11.25C12.275 28.125 13.125 28.975 13.125 30C13.125 31.025 12.275 31.875 11.25 31.875Z" fill="#25474F"/>
</svg>
