<svg width="60" height="60" viewBox="0 0 60 60" fill="none" xmlns="http://www.w3.org/2000/svg">
<path d="M56.65 11.5995C56.15 10.6995 55 10.3495 54.1 10.8495L11.75 34.1495C11.45 32.7995 11.25 31.3995 11.25 29.9995C11.2521 26.6571 12.1473 23.376 13.8429 20.4956C15.5385 17.6152 17.973 15.2402 20.8944 13.6163C23.8158 11.9925 27.1181 11.1787 30.4595 11.2593C33.801 11.3398 37.0602 12.3118 39.9 14.0745C40.1085 14.2042 40.3405 14.2915 40.5827 14.3316C40.8249 14.3716 41.0727 14.3635 41.3118 14.3078C41.5509 14.2521 41.7767 14.1498 41.9763 14.0069C42.1759 13.8639 42.3453 13.683 42.475 13.4745C42.6047 13.266 42.692 13.0341 42.7321 12.7918C42.7721 12.5496 42.764 12.3019 42.7083 12.0627C42.6526 11.8236 42.5503 11.5978 42.4073 11.3983C42.2644 11.1987 42.0835 11.0292 41.875 10.8995C38.3155 8.67127 34.1994 7.49277 30 7.49951C17.6 7.49951 7.5 17.5995 7.5 29.9995C7.5 32.0245 7.775 34.0245 8.3 35.9745C8.3 35.9995 8.325 35.9995 8.325 36.0245L4.1 38.3495C3.2 38.8495 2.85 39.9995 3.35 40.8995C3.7 41.5245 4.325 41.8745 5 41.8745C5.3 41.8745 5.625 41.7995 5.9 41.6495L55.9 14.1495C56.8 13.6495 57.15 12.4995 56.65 11.5995ZM56.65 20.3545C56.15 19.4545 55 19.1045 54.1 19.6045L48.825 22.5045C48.75 22.5545 48.65 22.5795 48.575 22.6545L4.1 47.1045C3.2 47.6045 2.85 48.7545 3.35 49.6545C3.7 50.2795 4.325 50.6295 5 50.6295C5.3 50.6295 5.625 50.5545 5.9 50.4045L48.475 26.9795C48.625 27.9795 48.75 28.9795 48.75 30.0045C48.749 33.3524 47.8519 36.6391 46.152 39.5233C44.452 42.4075 42.0111 44.7842 39.0825 46.4066C36.154 48.029 32.8446 48.8381 29.4978 48.7498C26.1511 48.6615 22.8889 47.6791 20.05 45.9045C19.8416 45.7746 19.6096 45.687 19.3673 45.6468C19.1251 45.6066 18.8772 45.6146 18.638 45.6704C18.3989 45.7261 18.173 45.8285 17.9734 45.9716C17.7739 46.1147 17.6045 46.2958 17.475 46.5045C16.925 47.3795 17.175 48.5295 18.075 49.0795C21.65 51.3295 25.775 52.5045 30.025 52.5045C42.425 52.5045 52.525 42.4045 52.525 30.0045C52.525 28.3295 52.275 26.7045 51.925 25.1045L55.925 22.9045C56.8 22.4045 57.15 21.2545 56.65 20.3545Z" fill="#25474F"/>
</svg>
