<svg width="60" height="60" viewBox="0 0 60 60" fill="none" xmlns="http://www.w3.org/2000/svg">
<path d="M38.15 54.9945C38 54.9945 37.825 54.9695 37.675 54.9195C32.65 53.4945 27.375 53.4945 22.35 54.9195C21.425 55.1695 20.45 54.6445 20.2 53.7195C20.1354 53.4996 20.1153 53.269 20.1408 53.0411C20.1664 52.8133 20.2371 52.5929 20.3488 52.3927C20.4605 52.1925 20.6111 52.0166 20.7915 51.8753C20.972 51.734 21.1789 51.63 21.4 51.5695C27.05 49.9695 33 49.9695 38.65 51.5695C39.575 51.8445 40.125 52.7945 39.85 53.7195C39.6 54.4945 38.9 54.9945 38.15 54.9945ZM48.025 15.902C45.425 10.652 40.4 6.77704 34.575 5.50204C28.475 4.15204 22.225 5.60204 17.45 9.45204C15.0931 11.3266 13.1915 13.7109 11.8882 16.4258C10.5849 19.1406 9.91368 22.1156 9.925 25.127C9.925 31.602 13.8 38.377 19.65 42.302V44.377C19.625 45.077 19.6 46.152 20.45 47.027C21.325 47.927 22.625 48.027 23.65 48.027H36.475C37.825 48.027 38.85 47.652 39.55 46.952C40.5 45.977 40.475 44.727 40.45 44.052V42.302C48.2 37.077 53.075 26.052 48.025 15.902ZM34.3 29.052L31.625 33.702C31.275 34.302 30.65 34.652 30 34.652C29.6737 34.6481 29.3541 34.5595 29.0724 34.3949C28.7906 34.2304 28.5564 33.9955 28.3926 33.7134C28.2288 33.4312 28.1411 33.1113 28.138 32.785C28.1349 32.4588 28.2166 32.1373 28.375 31.852L30.5 28.152H28.4C27.15 28.152 26.125 27.602 25.575 26.677C25.025 25.727 25.075 24.577 25.7 23.477L28.375 18.827C28.9 17.927 30.05 17.627 30.925 18.127C31.825 18.652 32.125 19.802 31.625 20.677L29.5 24.377H31.6C32.85 24.377 33.875 24.927 34.425 25.852C34.975 26.802 34.925 27.977 34.3 29.052Z" fill="#25474F"/>
</svg>
