<svg width="24" height="24" viewBox="0 0 24 24" fill="none" xmlns="http://www.w3.org/2000/svg">
<g clip-path="url(#clip0_109_1693)">
<path d="M1 21L12 2L23 21H1ZM12.1 18.075C12.3167 18.075 12.4958 18.0042 12.6375 17.8625C12.7792 17.7208 12.85 17.5417 12.85 17.325C12.85 17.1083 12.7792 16.9292 12.6375 16.7875C12.4958 16.6458 12.3167 16.575 12.1 16.575C11.8833 16.575 11.7042 16.6458 11.5625 16.7875C11.4208 16.9292 11.35 17.1083 11.35 17.325C11.35 17.5417 11.4208 17.7208 11.5625 17.8625C11.7042 18.0042 11.8833 18.075 12.1 18.075ZM11.35 15.3H12.85V9.7H11.35V15.3Z" fill="#464646"/>
</g>
<defs>
<clipPath id="clip0_109_1693">
<rect width="24" height="24" fill="white"/>
</clipPath>
</defs>
</svg>
