<svg width="525" height="15" viewBox="0 0 525 15" fill="none" xmlns="http://www.w3.org/2000/svg">
<path d="M0.112723 7.75L5.75 13.3873L11.3873 7.75L5.75 2.11272L0.112723 7.75ZM524.69 8.44047C525.072 8.05916 525.072 7.44093 524.69 7.05962L518.477 0.845819C518.095 0.464509 517.477 0.464509 517.096 0.845819C516.714 1.22713 516.714 1.84535 517.096 2.22666L522.619 7.75005L517.096 13.2734C516.714 13.6547 516.714 14.273 517.096 14.6543C517.477 15.0356 518.095 15.0356 518.477 14.6543L524.69 8.44047ZM5.75 8.72641L524 8.72645L524 6.77364L5.75 6.77359L5.75 8.72641Z" fill="#333333"/>
</svg>
