<svg width="525" height="15" viewBox="0 0 525 15" fill="none" xmlns="http://www.w3.org/2000/svg">
<path d="M0.112723 7.5L5.75 13.1373L11.3873 7.5L5.75 1.86272L0.112723 7.5ZM524.69 8.19047C525.072 7.80916 525.072 7.19093 524.69 6.80962L518.477 0.595819C518.095 0.214509 517.477 0.214509 517.096 0.595819C516.714 0.977128 516.714 1.59535 517.096 1.97666L522.619 7.50005L517.096 13.0234C516.714 13.4047 516.714 14.023 517.096 14.4043C517.477 14.7856 518.095 14.7856 518.477 14.4043L524.69 8.19047ZM5.75 8.47641L524 8.47645L524 6.52364L5.75 6.52359L5.75 8.47641Z" fill="#333333"/>
</svg>
