<svg width="546" height="16" viewBox="0 0 546 16" fill="none" xmlns="http://www.w3.org/2000/svg">
<path d="M0.362723 8L6 13.6373L11.6373 8L6 2.36272L0.362723 8ZM545.69 8.69047C546.072 8.30916 546.072 7.69093 545.69 7.30962L539.477 1.09582C539.095 0.714511 538.477 0.714511 538.096 1.09582C537.714 1.47713 537.714 2.09536 538.096 2.47667L543.619 8.00005L538.096 13.5234C537.714 13.9047 537.714 14.523 538.096 14.9043C538.477 15.2856 539.095 15.2856 539.477 14.9043L545.69 8.69047ZM6 8.97641L545 8.97645L545 7.02364L6 7.02359L6 8.97641Z" fill="#333333"/>
</svg>
