<svg width="701" height="20" viewBox="0 0 701 20" fill="none" xmlns="http://www.w3.org/2000/svg">
<path d="M0.483631 10L8 17.5164L15.5164 10L8 2.48363L0.483631 10ZM699.921 10.9206C700.429 10.4122 700.429 9.58791 699.921 9.0795L691.635 0.794425C691.127 0.286012 690.303 0.286012 689.794 0.794425C689.286 1.30284 689.286 2.12714 689.794 2.63555L697.159 10.0001L689.794 17.3646C689.286 17.873 689.286 18.6973 689.794 19.2057C690.303 19.7141 691.127 19.7141 691.635 19.2057L699.921 10.9206ZM8 11.3019L699 11.3019L699 8.69819L8 8.69813L8 11.3019Z" fill="#333333"/>
</svg>
