<svg width="26" height="26" viewBox="0 0 26 26" fill="none" xmlns="http://www.w3.org/2000/svg">
<path d="M23.7123 0.446533H2.04539C1.00748 0.446533 0.168213 1.26588 0.168213 2.27889V24.0338C0.168213 25.0468 1.00748 25.8711 2.04539 25.8711H23.7123C24.7502 25.8711 25.5945 25.0468 25.5945 24.0388V2.27889C25.5945 1.26588 24.7502 0.446533 23.7123 0.446533ZM7.71166 22.1121H3.93746V9.97579H7.71166V22.1121ZM5.82456 8.3222C4.61284 8.3222 3.63453 7.34395 3.63453 6.13727C3.63453 4.9306 4.61284 3.95235 5.82456 3.95235C7.03131 3.95235 8.00963 4.9306 8.00963 6.13727C8.00963 7.33898 7.03131 8.3222 5.82456 8.3222ZM21.8352 22.1121H18.0659V16.2128C18.0659 14.8075 18.0411 12.995 16.1043 12.995C14.1427 12.995 13.8448 14.5294 13.8448 16.1135V22.1121H10.0805V9.97579H13.6958V11.6344H13.7454C14.247 10.6809 15.4786 9.67288 17.3111 9.67288C21.13 9.67288 21.8352 12.1855 21.8352 15.453V22.1121V22.1121Z" fill="white"/>
</svg>
