<svg width="19" height="19" viewBox="0 0 19 19" fill="none" xmlns="http://www.w3.org/2000/svg">
<path d="M16.9165 0.751342H1.57824C0.853323 0.743161 0.258847 1.32385 0.25 2.04877V17.451C0.258544 18.1762 0.852972 18.7575 1.57824 18.7499H16.9165C17.6432 18.7589 18.2399 18.1777 18.25 17.451V2.04766C18.2396 1.3213 17.6428 0.740651 16.9165 0.750114" fill="#464646"/>
<path d="M12.9196 16.087H15.5867L15.5878 11.3752C15.5878 9.06202 15.0894 7.28396 12.3862 7.28396C11.3528 7.2456 10.3821 7.77875 9.86004 8.6714H9.8242V7.4976H7.26384V16.0868H9.93088V11.8377C9.93088 10.7173 10.1434 9.63211 11.5325 9.63211C12.9018 9.63211 12.9196 10.9143 12.9196 11.9103V16.087Z" fill="white"/>
<path d="M2.70654 4.77605C2.7067 5.63085 3.39976 6.32368 4.25454 6.32352C4.66502 6.32345 5.05865 6.16031 5.34885 5.87C5.63905 5.57969 5.80205 5.18599 5.80197 4.7755C5.80182 3.9207 5.10876 3.22787 4.25398 3.22803C3.3992 3.22818 2.70639 3.92126 2.70654 4.77605Z" fill="white"/>
<path d="M2.91824 16.087H5.58805V7.4976H2.91824V16.087Z" fill="white"/>
</svg>
