<svg width="19" height="18" viewBox="0 0 19 18" fill="none" xmlns="http://www.w3.org/2000/svg">
<path d="M16.9165 0.00134218H1.57824C0.853323 -0.00683869 0.258847 0.573848 0.25 1.29877V16.701C0.258544 17.4262 0.852972 18.0075 1.57824 17.9999H16.9165C17.6432 18.0089 18.2399 17.4277 18.25 16.701V1.29766C18.2396 0.571305 17.6428 -0.00934888 16.9165 0.000114038" fill="#464646"/>
<path d="M12.9196 15.337H15.5867L15.5878 10.6252C15.5878 8.31202 15.0894 6.53396 12.3862 6.53396C11.3528 6.4956 10.3821 7.02875 9.86004 7.9214H9.8242V6.7476H7.26384V15.3368H9.93088V11.0877C9.93088 9.96729 10.1434 8.88211 11.5325 8.88211C12.9018 8.88211 12.9196 10.1643 12.9196 11.1603V15.337Z" fill="white"/>
<path d="M2.70654 4.02605C2.7067 4.88085 3.39976 5.57368 4.25454 5.57352C4.66502 5.57345 5.05865 5.41031 5.34885 5.12C5.63905 4.82969 5.80205 4.43599 5.80197 4.0255C5.80182 3.1707 5.10876 2.47787 4.25398 2.47803C3.3992 2.47818 2.70639 3.17126 2.70654 4.02605Z" fill="white"/>
<path d="M2.91824 15.337H5.58805V6.7476H2.91824V15.337Z" fill="white"/>
</svg>
