<svg width="36" height="36" viewBox="0 0 36 36" fill="none" xmlns="http://www.w3.org/2000/svg">
<g clip-path="url(#clip0_1_261)">
<path d="M33.3425 -0.000488281H2.6575C1.95269 -0.000488281 1.27674 0.279498 0.778364 0.777876C0.279986 1.27625 0 1.9522 0 2.65701V33.342C0 34.0468 0.279986 34.7228 0.778364 35.2212C1.27674 35.7195 1.95269 35.9995 2.6575 35.9995H33.3425C34.0473 35.9995 34.7233 35.7195 35.2216 35.2212C35.72 34.7228 36 34.0468 36 33.342V2.65701C36 1.9522 35.72 1.27625 35.2216 0.777876C34.7233 0.279498 34.0473 -0.000488281 33.3425 -0.000488281ZM10.73 30.667H5.3175V13.4745H10.73V30.667ZM8.02 11.092C7.40605 11.0886 6.80687 10.9033 6.2981 10.5596C5.78933 10.216 5.39376 9.72931 5.16132 9.16105C4.92887 8.59278 4.86997 7.9684 4.99205 7.36669C5.11412 6.76499 5.4117 6.21293 5.84723 5.78018C6.28276 5.34744 6.83672 5.05341 7.4392 4.9352C8.04168 4.81699 8.66567 4.8799 9.23243 5.11599C9.79919 5.35208 10.2833 5.75076 10.6237 6.26173C10.9641 6.7727 11.1455 7.37305 11.145 7.98701C11.1508 8.39806 11.0738 8.80607 10.9185 9.18672C10.7633 9.56737 10.533 9.91286 10.2414 10.2026C9.94974 10.4924 9.60277 10.7204 9.22114 10.8732C8.8395 11.026 8.431 11.1004 8.02 11.092ZM30.68 30.682H25.27V21.2895C25.27 18.5195 24.0925 17.6645 22.5725 17.6645C20.9675 17.6645 19.3925 18.8745 19.3925 21.3595V30.682H13.98V13.487H19.185V15.8695H19.255C19.7775 14.812 21.6075 13.0045 24.4 13.0045C27.42 13.0045 30.6825 14.797 30.6825 20.047L30.68 30.682Z" fill="#0A66C2"/>
</g>
<defs>
<clipPath id="clip0_1_261">
<rect width="36" height="36" fill="white" transform="translate(0 -0.000488281)"/>
</clipPath>
</defs>
</svg>
