<svg width="24" height="24" viewBox="0 0 24 24" fill="none" xmlns="http://www.w3.org/2000/svg">
<path d="M22.222 0.00178957H1.77099C0.804431 -0.00911825 0.0117963 0.765131 0 1.7317V22.268C0.0113924 23.235 0.803963 24.01 1.77099 23.9999H22.222C23.1909 24.0119 23.9866 23.2369 24 22.268V1.73022C23.9862 0.761739 23.1904 -0.0124652 22.222 0.000152051" fill="#464646"/>
<path d="M16.8931 20.4495H20.4491L20.4506 14.1671C20.4506 11.0829 19.7861 8.71211 16.1819 8.71211C14.804 8.66096 13.5097 9.37182 12.8136 10.562H12.7658V8.99697H9.35203V20.4492H12.9081V14.7838C12.9081 13.2899 13.1915 11.843 15.0436 11.843C16.8694 11.843 16.8931 13.5525 16.8931 14.8805V20.4495Z" fill="white"/>
<path d="M3.27563 5.36823C3.27584 6.50797 4.19992 7.43173 5.33962 7.43153C5.88693 7.43143 6.41178 7.21392 6.79872 6.82683C7.18565 6.43975 7.40297 5.91481 7.40287 5.36749C7.40267 4.22776 6.47859 3.30399 5.33888 3.3042C4.19918 3.3044 3.27543 4.2285 3.27563 5.36823Z" fill="white"/>
<path d="M3.5579 20.4495H7.11765V8.99697H3.5579V20.4495Z" fill="white"/>
</svg>
