<svg width="25" height="24" viewBox="0 0 25 24" fill="none" xmlns="http://www.w3.org/2000/svg">
<path d="M22.972 0.00178957H2.52099C1.55443 -0.00911825 0.761796 0.765131 0.75 1.7317V22.268C0.761392 23.235 1.55396 24.01 2.52099 23.9999H22.972C23.9409 24.0119 24.7366 23.2369 24.75 22.268V1.73022C24.7362 0.761739 23.9404 -0.0124652 22.972 0.000152051" fill="#464646"/>
<path d="M17.6433 20.4495H21.1994L21.2009 14.1671C21.2009 11.0829 20.5363 8.71211 16.9321 8.71211C15.5543 8.66096 14.26 9.37182 13.5639 10.562H13.5161V8.99697H10.1023V20.4492H13.6583V14.7838C13.6583 13.2899 13.9417 11.843 15.7938 11.843C17.6196 11.843 17.6433 13.5525 17.6433 14.8805V20.4495Z" fill="white"/>
<path d="M4.02588 5.36823C4.02608 6.50797 4.95016 7.43173 6.08987 7.43153C6.63718 7.43143 7.16203 7.21392 7.54896 6.82683C7.93589 6.43975 8.15322 5.91481 8.15312 5.36749C8.15291 4.22776 7.22883 3.30399 6.08913 3.3042C4.94942 3.3044 4.02567 4.2285 4.02588 5.36823Z" fill="white"/>
<path d="M4.30814 20.4495H7.86789V8.99697H4.30814V20.4495Z" fill="white"/>
</svg>
