<svg width="322" height="38" xmlns="http://www.w3.org/2000/svg" xmlns:xlink="http://www.w3.org/1999/xlink" xml:space="preserve" overflow="hidden"><defs><clipPath id="clip0"><rect x="264" y="200" width="322" height="38"/></clipPath><clipPath id="clip1"><rect x="264" y="201" width="322" height="37"/></clipPath><clipPath id="clip2"><rect x="264" y="201" width="322" height="37"/></clipPath></defs><g clip-path="url(#clip0)" transform="translate(-264 -200)"><g clip-path="url(#clip1)"><g clip-path="url(#clip2)"><path d="M0 0 400.627 0 400.627 154.087 0 154.087Z" fill="#FFFFFF" fill-rule="nonzero" fill-opacity="1" transform="matrix(1 0 0 1.01847 232.443 141.41)"/><path d="M49.2323 62.5362C51.3038 64.5598 52.3505 67.3428 52.4458 70.459L49.2939 73.6858C49.7084 70.2841 48.8953 67.1807 46.7462 65.0814 43.1079 61.5275 36.6822 61.8694 30.8814 65.5002L48.558 82.7663C47.9176 83.7458 47.2008 84.7079 46.4097 85.6414L26.1998 65.9007C33.9883 58.9791 43.9767 57.4026 49.2323 62.5362Z" fill="#25474F" fill-rule="nonzero" fill-opacity="1" transform="matrix(1 0 0 1.01847 247.852 141.41)"/><path d="M20.8911 91.5511C18.8194 89.5276 17.7729 86.7445 17.6777 83.6282L20.8295 80.4015C20.415 83.8031 21.228 86.9066 23.3772 89.0059 27.0155 92.5598 33.4412 92.2178 39.2419 88.5871L21.5654 71.321C22.2058 70.3414 22.9225 69.3793 23.7137 68.4459L43.9236 88.1866C36.1352 95.1082 26.1468 96.6847 20.8911 91.5511Z" fill="#25474F" fill-rule="nonzero" fill-opacity="1" transform="matrix(1 0 0 1.01847 247.852 141.41)"/><path d="M70.5086 86.2889 65.7174 68.6531 68.9678 68.6531 72.3865 82.3764 76.4072 68.7374 79.5251 68.7374 83.3412 82.4247 86.8322 68.6531 90.0825 68.6531 85.1469 86.2889 81.7641 86.2889 77.9962 73.372 73.8671 86.2889 70.5086 86.2889ZM91.9724 86.2889 91.9724 73.0591 95.1264 73.0591 95.1264 86.2889 91.9724 86.2889ZM91.9724 71.133 91.9724 68.4365 95.1384 68.4365 95.1384 71.133 91.9724 71.133ZM103.71 86.4695C102.811 86.4695 102.06 86.3651 101.458 86.1565 100.865 85.9397 100.399 85.6027 100.062 85.1452 99.725 84.6877 99.4841 84.1501 99.3398 83.5321 99.2032 82.9062 99.1351 82.1357 99.1351 81.2208L99.1351 74.973 96.9682 74.973 97.0887 73.2637 99.3518 73.0591 100.363 69.4716 102.289 69.4596 102.289 73.0591 105.576 73.0591 105.576 74.973 102.289 74.973 102.289 81.281C102.289 82.2841 102.434 82.9985 102.722 83.4238 103.011 83.8492 103.545 84.0618 104.324 84.0618 104.781 84.0618 105.27 84.0216 105.792 83.9415L105.876 86.2046C105.86 86.2046 105.76 86.2246 105.576 86.2648 105.399 86.2969 105.226 86.3249 105.058 86.3491 104.897 86.3812 104.689 86.4092 104.432 86.4334 104.175 86.4574 103.934 86.4695 103.71 86.4695ZM113.388 86.4695C112.489 86.4695 111.739 86.3651 111.137 86.1565 110.543 85.9397 110.078 85.6027 109.741 85.1452 109.403 84.6877 109.163 84.1501 109.018 83.5321 108.882 82.9062 108.814 82.1357 108.814 81.2208L108.814 74.973 106.647 74.973 106.767 73.2637 109.03 73.0591 110.042 69.4716 111.968 69.4596 111.968 73.0591 115.254 73.0591 115.254 74.973 111.968 74.973 111.968 81.281C111.968 82.2841 112.112 82.9985 112.401 83.4238 112.69 83.8492 113.224 84.0618 114.002 84.0618 114.46 84.0618 114.949 84.0216 115.471 83.9415L115.555 86.2046C115.539 86.2046 115.439 86.2246 115.254 86.2648 115.077 86.2969 114.905 86.3249 114.736 86.3491 114.576 86.3812 114.367 86.4092 114.11 86.4334 113.854 86.4574 113.613 86.4695 113.388 86.4695ZM125.956 86.5417C123.267 86.5417 121.165 85.7311 119.648 84.1099 118.139 82.4889 117.385 80.2699 117.385 77.4529 117.385 75.6633 117.738 74.0902 118.444 72.734 119.15 71.3697 120.19 70.3063 121.562 69.5439 122.934 68.7815 124.556 68.4003 126.425 68.4003 128.568 68.4003 130.406 68.8618 131.939 69.7847L130.879 72.2164C129.419 71.4299 127.954 71.0367 126.486 71.0367 124.704 71.0367 123.304 71.6145 122.284 72.7702 121.265 73.9258 120.755 75.4987 120.755 77.4891 120.755 79.4633 121.209 81.0242 122.116 82.1718 123.023 83.3195 124.351 83.8933 126.1 83.8933 127.224 83.8933 128.243 83.7167 129.158 83.3637L129.158 79.2707 125.462 79.2707 125.486 76.7065 132.228 76.7065 132.228 85.2175C131.136 85.667 130.101 86 129.122 86.2166 128.151 86.4334 127.095 86.5417 125.956 86.5417ZM141.545 86.5417C139.418 86.5417 137.761 85.9317 136.574 84.7119 135.394 83.484 134.804 81.7906 134.804 79.6318 134.804 77.5292 135.362 75.8559 136.477 74.612 137.593 73.368 139.114 72.742 141.04 72.734 142.861 72.734 144.274 73.3038 145.277 74.4434 146.288 75.583 146.794 77.0959 146.794 78.9817 146.794 79.1183 146.79 79.3389 146.782 79.6439 146.782 79.9488 146.782 80.1734 146.782 80.318L137.982 80.318C138.014 81.5539 138.351 82.513 138.993 83.1951 139.643 83.8692 140.534 84.2062 141.666 84.2062 143.11 84.2062 144.499 83.829 145.831 83.0748L146.276 85.3138C144.952 86.1323 143.375 86.5417 141.545 86.5417ZM138.042 78.3316 143.82 78.3316C143.82 77.2563 143.576 76.4297 143.086 75.8519 142.597 75.2741 141.918 74.9852 141.052 74.9852 140.241 74.9852 139.555 75.2661 138.993 75.8277 138.439 76.3895 138.122 77.2242 138.042 78.3316ZM149.37 86.2889 149.37 73.0591 151.91 73.0591 152.259 74.7323C153.607 73.4001 155.104 72.734 156.75 72.734 158.291 72.734 159.442 73.1794 160.205 74.0702 160.975 74.953 161.36 76.2371 161.36 77.9224L161.36 86.2889 158.194 86.2889 158.194 78.3076C158.186 77.2402 158.013 76.4418 157.676 75.912 157.339 75.3824 156.733 75.1175 155.858 75.1175 155.177 75.1175 154.551 75.2941 153.98 75.6473 153.419 75.9923 153.009 76.4297 152.753 76.9593 152.6 77.5854 152.524 78.5484 152.524 79.8485L152.524 86.2889 149.37 86.2889ZM165.055 86.2889 165.055 68.3762 169.943 68.3762C172.166 68.3762 173.787 68.7454 174.806 69.4838 175.834 70.222 176.347 71.3456 176.347 72.8543 176.347 73.0309 176.344 73.1634 176.336 73.2517 176.336 73.34 176.319 73.5164 176.287 73.7813 176.254 74.0382 176.203 74.2548 176.131 74.4314 176.066 74.608 175.961 74.8286 175.818 75.0935 175.673 75.3502 175.496 75.575 175.288 75.7676 175.088 75.9602 174.823 76.1569 174.493 76.3575 174.165 76.5501 173.79 76.7106 173.374 76.839 174.626 77.0236 175.586 77.5252 176.251 78.3438 176.917 79.1623 177.25 80.1294 177.25 81.245 177.25 82.8259 176.749 84.0618 175.746 84.9526 174.743 85.8434 173.202 86.2889 171.123 86.2889L165.055 86.2889ZM166.596 85.0851 170.726 85.0851C173.975 85.0851 175.601 83.805 175.601 81.245 175.601 79.8565 175.151 78.8934 174.253 78.3558 173.354 77.8101 171.946 77.5372 170.028 77.5372L166.596 77.5372 166.596 85.0851ZM166.596 76.3575 170.701 76.3575C171.336 76.3575 171.881 76.3092 172.339 76.2129 172.797 76.1166 173.209 75.9482 173.578 75.7074 173.955 75.4587 174.237 75.1095 174.421 74.66 174.613 74.2026 174.71 73.6369 174.71 72.9628 174.71 71.7108 174.32 70.8441 173.542 70.3626 172.772 69.873 171.548 69.6282 169.87 69.6282L166.596 69.6282 166.596 76.3575ZM180.031 86.2889 180.031 73.0951 181.536 73.0951 181.536 86.2889 180.031 86.2889ZM180.031 70.3986 180.031 68.3762 181.524 68.3762 181.524 70.3986 180.031 70.3986ZM190.709 85.3861C191.672 85.3861 192.483 85.1332 193.141 84.6277 193.806 84.1139 194.289 83.4398 194.584 82.6053 194.89 81.7706 195.042 80.8115 195.042 79.7281 195.042 78.0267 194.682 76.6584 193.959 75.6231 193.236 74.5878 192.138 74.0702 190.66 74.0702 189.697 74.0702 188.876 74.3311 188.193 74.8527 187.518 75.3664 187.025 76.0445 186.712 76.8871 186.399 77.7218 186.242 78.6808 186.242 79.7642 186.242 81.4094 186.624 82.7577 187.386 83.809 188.156 84.8603 189.264 85.3861 190.709 85.3861ZM190.6 86.5778C189.404 86.5778 188.349 86.2768 187.435 85.675 186.527 85.073 185.834 84.2585 185.352 83.2312 184.879 82.196 184.641 81.0282 184.641 79.7281 184.641 78.7491 184.778 77.8421 185.051 77.0076 185.332 76.1649 185.729 75.4385 186.242 74.8286 186.757 74.2107 187.395 73.7292 188.156 73.3841 188.919 73.0309 189.766 72.8543 190.697 72.8543 191.933 72.8543 193.004 73.1594 193.911 73.7693 194.817 74.3711 195.495 75.1858 195.945 76.2129 196.403 77.2322 196.631 78.3959 196.631 79.7041 196.631 81.0202 196.398 82.1918 195.933 83.2191 195.467 84.2464 194.774 85.0649 193.851 85.675 192.928 86.2768 191.845 86.5778 190.6 86.5778ZM203.289 86.5658C202.181 86.5658 201.37 86.3169 200.857 85.8194 200.343 85.3138 200.087 84.4951 200.087 83.3637L200.087 74.1906 198.221 74.1906 198.329 73.2878 200.11 73.1192 200.508 70.0977 201.555 70.0254 201.555 73.0951 205.408 73.0951 205.408 74.1906 201.555 74.1906 201.555 83.0506C201.555 83.9816 201.708 84.6076 202.013 84.9286 202.318 85.2415 202.854 85.3981 203.625 85.3981 204.122 85.3981 204.74 85.3058 205.48 85.1212L205.54 86.2768C204.568 86.4695 203.817 86.5658 203.289 86.5658ZM213.052 86.5778C211.229 86.5778 209.781 85.9679 208.705 84.748 207.639 83.5281 207.104 81.8749 207.104 79.7882 207.104 77.774 207.626 76.1246 208.67 74.8406 209.72 73.5566 211.076 72.8945 212.739 72.8543 214.288 72.8543 215.531 73.4081 216.469 74.5157 217.409 75.6231 217.878 77.1079 217.878 78.9697 217.878 79.042 217.875 79.1904 217.867 79.4152 217.867 79.6318 217.867 79.7842 217.867 79.8725L208.682 79.8725C208.697 81.5659 209.107 82.9102 209.91 83.9053 210.711 84.8925 211.771 85.3861 213.087 85.3861 213.946 85.3861 214.693 85.2858 215.326 85.0851 215.961 84.8844 216.622 84.5994 217.312 84.2304L217.565 85.3499C216.234 86.1685 214.728 86.5778 213.052 86.5778ZM208.742 78.6688 216.254 78.6688C216.254 77.2002 215.936 76.0766 215.303 75.2981 214.668 74.5117 213.798 74.1184 212.69 74.1184 211.566 74.1184 210.66 74.5357 209.97 75.3704 209.28 76.2049 208.87 77.3045 208.742 78.6688ZM226.377 86.5778C225.101 86.5778 223.994 86.2648 223.055 85.6388 222.115 85.0129 221.417 84.1982 220.96 83.1951 220.503 82.1838 220.274 81.0604 220.274 79.8244 220.274 78.8774 220.411 77.9866 220.684 77.152 220.957 76.3173 221.342 75.579 221.839 74.937 222.345 74.2949 222.99 73.7893 223.778 73.4201 224.571 73.0429 225.454 72.8543 226.425 72.8543 227.06 72.8543 227.69 72.9386 228.316 73.1072 228.949 73.2757 229.419 73.4763 229.724 73.709L229.254 74.8286C228.428 74.3631 227.448 74.1305 226.317 74.1305 224.944 74.1305 223.858 74.652 223.055 75.6954 222.252 76.7307 221.852 78.107 221.852 79.8244 221.852 81.4696 222.248 82.8019 223.043 83.821 223.846 84.8323 224.937 85.3378 226.317 85.3378 227.28 85.3378 228.316 85.0972 229.424 84.6156L229.652 85.687C229.274 85.9679 228.786 86.1845 228.183 86.3369 227.581 86.4975 226.98 86.5778 226.377 86.5778ZM232.505 86.2889 232.505 67.979 233.997 67.8465 233.997 74.1425C233.997 74.311 233.997 74.4274 233.997 74.4916 233.997 74.5557 233.994 74.5919 233.986 74.6 233.986 74.608 233.982 74.652 233.974 74.7323 233.974 74.8126 233.969 74.9329 233.961 75.0935 235.037 73.6007 236.578 72.8543 238.584 72.8543 241.449 72.8543 242.882 74.5838 242.882 78.0427L242.882 86.2889 241.401 86.2889 241.401 78.3316C241.401 76.847 241.173 75.7757 240.715 75.1175 240.257 74.4514 239.45 74.1184 238.294 74.1184 237.148 74.1184 236.193 74.4234 235.43 75.0333 234.667 75.6351 234.199 76.4136 234.022 77.3686 234.006 77.6897 233.997 78.1672 233.997 78.8011L233.997 86.2889 232.505 86.2889ZM246.349 86.2889 246.349 73.0951 247.649 73.0951 247.854 75.1296C248.327 74.4234 248.96 73.8696 249.755 73.4683 250.558 73.0591 251.421 72.8543 252.344 72.8543 253.86 72.8543 254.976 73.2717 255.691 74.1064 256.404 74.9409 256.762 76.2732 256.762 78.103L256.762 86.2889 255.256 86.2889 255.256 77.4288C255.216 76.2572 254.968 75.4145 254.511 74.9009 254.053 74.3872 253.303 74.1305 252.259 74.1305 251.064 74.1305 250.085 74.4314 249.322 75.0333 248.567 75.6351 248.094 76.4136 247.902 77.3686 247.869 77.7458 247.854 78.139 247.854 78.5484L247.854 86.2889 246.349 86.2889ZM265.682 85.3861C266.645 85.3861 267.455 85.1332 268.113 84.6277 268.779 84.1139 269.261 83.4398 269.559 82.6053 269.862 81.7706 270.015 80.8115 270.015 79.7281 270.015 78.0267 269.654 76.6584 268.932 75.6231 268.21 74.5878 267.11 74.0702 265.634 74.0702 264.671 74.0702 263.848 74.3311 263.166 74.8527 262.492 75.3664 261.998 76.0445 261.685 76.8871 261.372 77.7218 261.215 78.6808 261.215 79.7642 261.215 81.4094 261.597 82.7577 262.36 83.809 263.13 84.8603 264.237 85.3861 265.682 85.3861ZM265.574 86.5778C264.378 86.5778 263.323 86.2768 262.408 85.675 261.5 85.073 260.807 84.2585 260.324 83.2312 259.851 82.196 259.614 81.0282 259.614 79.7281 259.614 78.7491 259.751 77.8421 260.024 77.0076 260.304 76.1649 260.702 75.4385 261.215 74.8286 261.73 74.2107 262.367 73.7292 263.13 73.3841 263.891 73.0309 264.739 72.8543 265.67 72.8543 266.905 72.8543 267.976 73.1594 268.884 73.7693 269.791 74.3711 270.469 75.1858 270.918 76.2129 271.375 77.2322 271.605 78.3959 271.605 79.7041 271.605 81.0202 271.372 82.1918 270.907 83.2191 270.44 84.2464 269.747 85.0649 268.824 85.675 267.901 86.2768 266.818 86.5778 265.574 86.5778ZM277.864 86.5658C276.756 86.5658 275.946 86.3169 275.433 85.8194 274.919 85.3138 274.662 84.4951 274.662 83.3637L274.662 67.967 276.131 67.8465 276.131 83.2794C276.131 84.0819 276.275 84.6357 276.564 84.9406 276.861 85.2455 277.306 85.3981 277.901 85.3981 278.382 85.3981 278.984 85.3058 279.705 85.1212L279.767 86.2768C278.98 86.4695 278.346 86.5658 277.864 86.5658ZM287.014 85.3861C287.977 85.3861 288.787 85.1332 289.445 84.6277 290.111 84.1139 290.593 83.4398 290.889 82.6053 291.194 81.7706 291.347 80.8115 291.347 79.7281 291.347 78.0267 290.986 76.6584 290.263 75.6231 289.541 74.5878 288.442 74.0702 286.964 74.0702 286.001 74.0702 285.18 74.3311 284.497 74.8527 283.823 75.3664 283.329 76.0445 283.017 76.8871 282.704 77.7218 282.547 78.6808 282.547 79.7642 282.547 81.4094 282.929 82.7577 283.69 83.809 284.46 84.8603 285.568 85.3861 287.014 85.3861ZM286.904 86.5778C285.709 86.5778 284.653 86.2768 283.739 85.675 282.832 85.073 282.138 84.2585 281.656 83.2312 281.183 82.196 280.946 81.0282 280.946 79.7281 280.946 78.7491 281.083 77.8421 281.356 77.0076 281.636 76.1649 282.034 75.4385 282.547 74.8286 283.061 74.2107 283.699 73.7292 284.46 73.3841 285.223 73.0309 286.071 72.8543 287.001 72.8543 288.237 72.8543 289.308 73.1594 290.216 73.7693 291.122 74.3711 291.8 75.1858 292.25 76.2129 292.707 77.2322 292.935 78.3959 292.935 79.7041 292.935 81.0202 292.703 82.1918 292.237 83.2191 291.772 84.2464 291.079 85.0649 290.156 85.675 289.233 86.2768 288.149 86.5778 286.904 86.5778ZM297.908 92.4163 297.727 91.0801 300.519 91.0801C301.137 91.0801 301.683 91.0238 302.157 90.9115 302.63 90.8072 303.028 90.6666 303.349 90.4902 303.678 90.3216 303.954 90.0808 304.179 89.7678 304.412 89.4629 304.594 89.158 304.721 88.853 304.849 88.5479 304.946 88.1507 305.01 87.6612 305.082 87.1796 305.127 86.7343 305.142 86.3249 305.159 85.9237 305.167 85.4141 305.167 84.7961 305.167 84.8844 305.159 84.8643 305.142 84.736 305.102 84.1822 305.082 83.9053 305.082 83.9053 304.577 84.6677 303.979 85.2576 303.288 85.675 302.598 86.0842 301.755 86.2889 300.761 86.2889 299.974 86.2889 299.256 86.1485 298.606 85.8676 297.963 85.5867 297.435 85.2215 297.017 84.772 296.607 84.3227 296.262 83.809 295.982 83.2312 295.701 82.6533 295.499 82.0795 295.379 81.5097 295.259 80.9319 295.199 80.3621 295.199 79.8004 295.199 79.0941 295.256 78.4239 295.368 77.79 295.488 77.1479 295.692 76.522 295.982 75.912 296.27 75.3021 296.632 74.7764 297.065 74.3351 297.498 73.8856 298.056 73.5286 298.738 73.2637 299.421 72.9908 300.191 72.8543 301.05 72.8543 301.892 72.8543 302.635 73.0229 303.276 73.36 303.926 73.689 304.529 74.2187 305.082 74.949L305.227 73.0951 306.55 73.0951 306.55 85.3258C306.55 85.8556 306.543 86.2809 306.527 86.6018 306.52 86.9309 306.47 87.3722 306.382 87.926 306.302 88.4878 306.185 88.9453 306.033 89.2983 305.889 89.6595 305.664 90.0568 305.359 90.4902 305.054 90.9235 304.684 91.2646 304.251 91.5133 303.826 91.7622 303.276 91.9748 302.603 92.1514 301.937 92.328 301.177 92.4163 300.327 92.4163L297.908 92.4163ZM300.954 85.073C301.54 85.073 302.068 84.9807 302.543 84.7961 303.016 84.6035 303.406 84.3548 303.711 84.0498 304.023 83.7369 304.284 83.3717 304.492 82.9543 304.709 82.537 304.862 82.1077 304.949 81.6662 305.039 81.2168 305.082 80.7554 305.082 80.2819L305.082 78.9095C305.082 78.2836 305.006 77.6937 304.854 77.1399 304.701 76.5861 304.464 76.0766 304.144 75.6111 303.831 75.1376 303.396 74.7644 302.843 74.4916 302.29 74.2187 301.647 74.0822 300.917 74.0822 300.324 74.0822 299.786 74.1986 299.304 74.4314 298.831 74.656 298.441 74.957 298.136 75.3342 297.831 75.7114 297.575 76.1529 297.365 76.6584 297.157 77.164 297.009 77.6817 296.92 78.2113 296.84 78.733 296.8 79.2707 296.8 79.8244 296.8 80.314 296.837 80.7915 296.909 81.257 296.989 81.7143 297.125 82.1798 297.318 82.6533 297.518 83.1268 297.771 83.5401 298.076 83.8933 298.381 84.2384 298.778 84.5233 299.268 84.748 299.766 84.9646 300.327 85.073 300.954 85.073ZM310.162 86.2889 310.162 73.0951 311.668 73.0951 311.668 86.2889 310.162 86.2889ZM310.162 70.3986 310.162 68.3762 311.655 68.3762 311.655 70.3986 310.162 70.3986ZM320.72 86.5778C318.897 86.5778 317.449 85.9679 316.374 84.748 315.307 83.5281 314.773 81.8749 314.773 79.7882 314.773 77.774 315.295 76.1246 316.338 74.8406 317.389 73.5566 318.745 72.8945 320.408 72.8543 321.956 72.8543 323.2 73.4081 324.138 74.5157 325.078 75.6231 325.546 77.1079 325.546 78.9697 325.546 79.042 325.543 79.1904 325.536 79.4152 325.536 79.6318 325.536 79.7842 325.536 79.8725L316.35 79.8725C316.366 81.5659 316.776 82.9102 317.578 83.9053 318.38 84.8925 319.44 85.3861 320.756 85.3861 321.614 85.3861 322.361 85.2858 322.995 85.0851 323.629 84.8844 324.29 84.5994 324.981 84.2304L325.234 85.3499C323.902 86.1685 322.397 86.5778 320.72 86.5778ZM316.41 78.6688 323.922 78.6688C323.922 77.2002 323.605 76.0766 322.971 75.2981 322.337 74.5117 321.466 74.1184 320.358 74.1184 319.235 74.1184 318.329 74.5357 317.639 75.3704 316.948 76.2049 316.538 77.3045 316.41 78.6688ZM332.397 86.5898C331.546 86.5898 330.747 86.4855 330.001 86.2768 329.255 86.0682 328.665 85.8194 328.232 85.5304L328.448 84.2785C329.773 84.9686 331.041 85.3138 332.252 85.3138 334.426 85.3138 335.554 84.5073 335.634 82.8942 335.634 82.22 335.414 81.6903 334.973 81.3051 334.539 80.9198 333.665 80.5186 332.349 80.1013 331.659 79.8605 331.277 79.7281 331.204 79.7041 329.143 79.078 328.103 77.9666 328.087 76.3695 328.087 75.4465 328.492 74.632 329.303 73.9258 330.121 73.2115 331.224 72.8543 332.613 72.8543 334.001 72.8543 335.306 73.1272 336.525 73.673L336.02 74.7804C334.784 74.315 333.636 74.0822 332.577 74.0822 331.647 74.0822 330.912 74.2909 330.374 74.7083 329.845 75.1255 329.58 75.6874 329.58 76.3935 329.58 76.9874 329.753 77.4449 330.098 77.766 330.451 78.0789 331.144 78.3799 332.18 78.6688 332.292 78.7008 332.497 78.7731 332.795 78.8854 333.1 78.9978 333.268 79.058 333.3 79.066 334.688 79.4913 335.654 79.997 336.201 80.5829 336.755 81.1607 337.032 81.9511 337.032 82.9543 337.007 84.1099 336.574 85.0049 335.731 85.6388 334.896 86.2728 333.785 86.5898 332.397 86.5898Z" fill="#25474F" fill-rule="nonzero" fill-opacity="1" transform="matrix(1 0 0 1.01847 247.852 141.41)"/></g></g></g></svg>