<svg width="56" height="56" viewBox="0 0 56 56" fill="none" xmlns="http://www.w3.org/2000/svg">
<path d="M27.4753 46.0833H18.4337C18.0448 47.6 17.2281 48.8541 15.9837 49.8458C14.7392 50.8374 13.3003 51.3333 11.667 51.3333C9.72255 51.3333 8.06977 50.6527 6.70866 49.2916C5.34755 47.9305 4.66699 46.2777 4.66699 44.3333C4.66699 42.7 5.16283 41.2611 6.15449 40.0166C7.14616 38.7722 8.40033 37.9555 9.91699 37.5666V18.4333C8.40033 18.0444 7.14616 17.2277 6.15449 15.9833C5.16283 14.7388 4.66699 13.3 4.66699 11.6666C4.66699 9.72217 5.34755 8.0694 6.70866 6.70828C8.06977 5.34717 9.72255 4.66662 11.667 4.66662C13.3003 4.66662 14.7392 5.16245 15.9837 6.15412C17.2281 7.14578 18.0448 8.39995 18.4337 9.91662H27.4753L23.8587 6.29995C23.5087 5.94995 23.3337 5.54162 23.3337 5.07495C23.3337 4.60828 23.5087 4.19995 23.8587 3.84995C24.2087 3.49995 24.617 3.32495 25.0837 3.32495C25.5503 3.32495 25.9587 3.49995 26.3087 3.84995L32.9587 10.4416C33.3087 10.7916 33.4837 11.2 33.4837 11.6666C33.4837 12.1333 33.3087 12.5416 32.9587 12.8916L26.3087 19.4833C26.1531 19.6388 25.9684 19.7652 25.7545 19.8624C25.5406 19.9597 25.317 20.0083 25.0837 20.0083C24.8503 20.0083 24.6364 19.9597 24.442 19.8624C24.2475 19.7652 24.0531 19.6388 23.8587 19.4833C23.5087 19.1333 23.3337 18.7249 23.3337 18.2583C23.3337 17.7916 23.5087 17.3833 23.8587 17.0333L27.4753 13.4166H18.4337C18.1225 14.6611 17.5198 15.7305 16.6253 16.625C15.7309 17.5194 14.6614 18.1222 13.417 18.4333V37.5666C14.6614 37.8777 15.7309 38.4805 16.6253 39.375C17.5198 40.2694 18.1225 41.3388 18.4337 42.5833H27.4753L23.8587 38.9666C23.5087 38.6166 23.3337 38.2083 23.3337 37.7416C23.3337 37.2749 23.5087 36.8666 23.8587 36.5166C24.2087 36.1666 24.617 35.9916 25.0837 35.9916C25.5503 35.9916 25.9587 36.1666 26.3087 36.5166L32.9587 43.1083C33.3087 43.4583 33.4837 43.8666 33.4837 44.3333C33.4837 44.7999 33.3087 45.2083 32.9587 45.5583L26.3087 52.15C26.1531 52.3055 25.9684 52.4319 25.7545 52.5291C25.5406 52.6263 25.317 52.675 25.0837 52.675C24.8503 52.675 24.6364 52.6263 24.442 52.5291C24.2475 52.4319 24.0531 52.3055 23.8587 52.15C23.5087 51.8 23.3337 51.3916 23.3337 50.925C23.3337 50.4583 23.5087 50.0499 23.8587 49.7L27.4753 46.0833ZM44.3337 51.3333C42.3892 51.3333 40.7364 50.6527 39.3753 49.2916C38.0142 47.9305 37.3337 46.2777 37.3337 44.3333C37.3337 42.7 37.8295 41.2611 38.8212 40.0166C39.8128 38.7722 41.067 37.9555 42.5837 37.5666V18.4333C41.067 18.0444 39.8128 17.2277 38.8212 15.9833C37.8295 14.7388 37.3337 13.3 37.3337 11.6666C37.3337 9.72217 38.0142 8.0694 39.3753 6.70828C40.7364 5.34717 42.3892 4.66662 44.3337 4.66662C46.2781 4.66662 47.9309 5.34717 49.292 6.70828C50.6531 8.0694 51.3337 9.72217 51.3337 11.6666C51.3337 13.3 50.8378 14.7388 49.8462 15.9833C48.8545 17.2277 47.6003 18.0444 46.0837 18.4333V37.5666C47.6003 37.9555 48.8545 38.7722 49.8462 40.0166C50.8378 41.2611 51.3337 42.7 51.3337 44.3333C51.3337 46.2777 50.6531 47.9305 49.292 49.2916C47.9309 50.6527 46.2781 51.3333 44.3337 51.3333ZM11.667 47.8333C12.6781 47.8333 13.5142 47.493 14.1753 46.8125C14.8364 46.1319 15.167 45.3055 15.167 44.3333C15.167 43.3222 14.8364 42.4861 14.1753 41.825C13.5142 41.1638 12.6781 40.8333 11.667 40.8333C10.6948 40.8333 9.86838 41.1638 9.18783 41.825C8.50727 42.4861 8.16699 43.3222 8.16699 44.3333C8.16699 45.3055 8.50727 46.1319 9.18783 46.8125C9.86838 47.493 10.6948 47.8333 11.667 47.8333ZM44.3337 47.8333C45.3448 47.8333 46.1809 47.493 46.842 46.8125C47.5031 46.1319 47.8337 45.3055 47.8337 44.3333C47.8337 43.3222 47.5031 42.4861 46.842 41.825C46.1809 41.1638 45.3448 40.8333 44.3337 40.8333C43.3614 40.8333 42.535 41.1638 41.8545 41.825C41.1739 42.4861 40.8337 43.3222 40.8337 44.3333C40.8337 45.3055 41.1739 46.1319 41.8545 46.8125C42.535 47.493 43.3614 47.8333 44.3337 47.8333ZM11.667 15.1666C12.6781 15.1666 13.5142 14.8263 14.1753 14.1458C14.8364 13.4652 15.167 12.6388 15.167 11.6666C15.167 10.6555 14.8364 9.8194 14.1753 9.15828C13.5142 8.49717 12.6781 8.16662 11.667 8.16662C10.6948 8.16662 9.86838 8.49717 9.18783 9.15828C8.50727 9.8194 8.16699 10.6555 8.16699 11.6666C8.16699 12.6388 8.50727 13.4652 9.18783 14.1458C9.86838 14.8263 10.6948 15.1666 11.667 15.1666ZM44.3337 15.1666C45.3448 15.1666 46.1809 14.8263 46.842 14.1458C47.5031 13.4652 47.8337 12.6388 47.8337 11.6666C47.8337 10.6555 47.5031 9.8194 46.842 9.15828C46.1809 8.49717 45.3448 8.16662 44.3337 8.16662C43.3614 8.16662 42.535 8.49717 41.8545 9.15828C41.1739 9.8194 40.8337 10.6555 40.8337 11.6666C40.8337 12.6388 41.1739 13.4652 41.8545 14.1458C42.535 14.8263 43.3614 15.1666 44.3337 15.1666Z" fill="#C0C0C0"/>
</svg>
