<svg width="25" height="24" viewBox="0 0 25 24" fill="none" xmlns="http://www.w3.org/2000/svg">
<path d="M11.7891 2C16.7571 2 20.7891 6.032 20.7891 11C20.7891 15.968 16.7571 20 11.7891 20C6.82106 20 2.78906 15.968 2.78906 11C2.78906 6.032 6.82106 2 11.7891 2ZM11.7891 18C15.6561 18 18.7891 14.867 18.7891 11C18.7891 7.132 15.6561 4 11.7891 4C7.92106 4 4.78906 7.132 4.78906 11C4.78906 14.867 7.92106 18 11.7891 18ZM20.2741 18.071L23.1031 20.899L21.6881 22.314L18.8601 19.485L20.2741 18.071Z" fill="#717F8C"/>
</svg>
