<svg width="19" height="18" viewBox="0 0 19 18" fill="none" xmlns="http://www.w3.org/2000/svg">
<path d="M7.775 16.5L7.4 14.1375C7.1625 14.05 6.9125 13.9313 6.65 13.7812C6.3875 13.6312 6.15625 13.475 5.95625 13.3125L3.74375 14.325L2 11.25L4.025 9.76875C4 9.65625 3.98437 9.52812 3.97812 9.38437C3.97187 9.24062 3.96875 9.1125 3.96875 9C3.96875 8.8875 3.97187 8.75938 3.97812 8.61563C3.98437 8.47188 4 8.34375 4.025 8.23125L2 6.75L3.74375 3.675L5.95625 4.6875C6.15625 4.525 6.3875 4.36875 6.65 4.21875C6.9125 4.06875 7.1625 3.95625 7.4 3.88125L7.775 1.5H11.225L11.6 3.8625C11.8375 3.95 12.0906 4.06563 12.3594 4.20938C12.6281 4.35313 12.8563 4.5125 13.0438 4.6875L15.2562 3.675L17 6.75L14.975 8.19375C15 8.31875 15.0156 8.45312 15.0219 8.59687C15.0281 8.74062 15.0312 8.875 15.0312 9C15.0312 9.125 15.0281 9.25625 15.0219 9.39375C15.0156 9.53125 15 9.6625 14.975 9.7875L17 11.25L15.2562 14.325L13.0438 13.3125C12.8438 13.475 12.6156 13.6344 12.3594 13.7906C12.1031 13.9469 11.85 14.0625 11.6 14.1375L11.225 16.5H7.775ZM9.5 11.4375C10.175 11.4375 10.75 11.2 11.225 10.725C11.7 10.25 11.9375 9.675 11.9375 9C11.9375 8.325 11.7 7.75 11.225 7.275C10.75 6.8 10.175 6.5625 9.5 6.5625C8.825 6.5625 8.25 6.8 7.775 7.275C7.3 7.75 7.0625 8.325 7.0625 9C7.0625 9.675 7.3 10.25 7.775 10.725C8.25 11.2 8.825 11.4375 9.5 11.4375ZM9.5 10.3125C9.1375 10.3125 8.82812 10.1844 8.57187 9.92813C8.31562 9.67188 8.1875 9.3625 8.1875 9C8.1875 8.6375 8.31562 8.32812 8.57187 8.07187C8.82812 7.81562 9.1375 7.6875 9.5 7.6875C9.8625 7.6875 10.1719 7.81562 10.4281 8.07187C10.6844 8.32812 10.8125 8.6375 10.8125 9C10.8125 9.3625 10.6844 9.67188 10.4281 9.92813C10.1719 10.1844 9.8625 10.3125 9.5 10.3125ZM8.675 15.375H10.325L10.5875 13.275C11 13.175 11.3906 13.0188 11.7594 12.8063C12.1281 12.5938 12.4625 12.3375 12.7625 12.0375L14.75 12.9L15.5 11.55L13.7375 10.2563C13.7875 10.0438 13.8281 9.83437 13.8594 9.62812C13.8906 9.42187 13.9062 9.2125 13.9062 9C13.9062 8.7875 13.8938 8.57813 13.8688 8.37188C13.8438 8.16563 13.8 7.95625 13.7375 7.74375L15.5 6.45L14.75 5.1L12.7625 5.9625C12.475 5.6375 12.15 5.36563 11.7875 5.14688C11.425 4.92813 11.025 4.7875 10.5875 4.725L10.325 2.625H8.675L8.4125 4.725C7.9875 4.8125 7.59062 4.9625 7.22187 5.175C6.85312 5.3875 6.525 5.65 6.2375 5.9625L4.25 5.1L3.5 6.45L5.2625 7.74375C5.2125 7.95625 5.17188 8.16563 5.14062 8.37188C5.10937 8.57813 5.09375 8.7875 5.09375 9C5.09375 9.2125 5.10937 9.42187 5.14062 9.62812C5.17188 9.83437 5.2125 10.0438 5.2625 10.2563L3.5 11.55L4.25 12.9L6.2375 12.0375C6.5375 12.3375 6.87188 12.5938 7.24063 12.8063C7.60938 13.0188 8 13.175 8.4125 13.275L8.675 15.375Z" fill="white"/>
</svg>
