<svg width="7" height="7" viewBox="0 0 7 7" fill="none" xmlns="http://www.w3.org/2000/svg">
<path d="M3.20301 1.08173C3.45243 0.757752 3.94102 0.757753 4.19044 1.08173L4.3837 1.33276C4.51978 1.50952 4.73997 1.60004 4.96103 1.57011L5.27645 1.52739C5.68538 1.47202 6.03421 1.82228 5.97716 2.23098L5.93725 2.51687C5.90583 2.74194 5.99943 2.96627 6.18151 3.10224L6.41395 3.27583C6.74761 3.52502 6.74761 4.02509 6.41395 4.27428L6.18151 4.44786C5.99943 4.58384 5.90583 4.80817 5.93725 5.03323L5.97716 5.31913C6.03421 5.72783 5.68538 6.07809 5.27645 6.02271L4.96103 5.98C4.73997 5.95006 4.51978 6.04059 4.3837 6.21735L4.19044 6.46838C3.94102 6.79236 3.45243 6.79236 3.20301 6.46838L3.00975 6.21735C2.87367 6.04059 2.65348 5.95006 2.43243 5.98L2.117 6.02271C1.70807 6.07809 1.35924 5.72783 1.4163 5.31913L1.45621 5.03323C1.48763 4.80817 1.39402 4.58384 1.21194 4.44786L0.979506 4.27428C0.64584 4.02509 0.64584 3.52502 0.979506 3.27583L1.21194 3.10224C1.39402 2.96627 1.48763 2.74194 1.45621 2.51688L1.4163 2.23098C1.35924 1.82228 1.70807 1.47202 2.117 1.52739L2.43243 1.57011C2.65348 1.60004 2.87367 1.50952 3.00975 1.33276L3.20301 1.08173Z" fill="#333333"/>
</svg>
