<svg width="9" height="8" viewBox="0 0 9 8" fill="none" xmlns="http://www.w3.org/2000/svg">
<path d="M4.27076 0.442226C4.60332 0.0102546 5.25478 0.0102552 5.58734 0.442227L5.84501 0.776932C6.02645 1.01261 6.32004 1.13331 6.61478 1.0934L7.03535 1.03644C7.58059 0.962607 8.0457 1.42962 7.96962 1.97456L7.91641 2.35575C7.87452 2.65584 7.99933 2.95494 8.2421 3.13624L8.55201 3.36769C8.9969 3.69994 8.9969 4.36671 8.55201 4.69896L8.2421 4.9304C7.99933 5.11171 7.87452 5.41081 7.91641 5.7109L7.96962 6.09209C8.0457 6.63702 7.58059 7.10404 7.03535 7.0302L6.61478 6.97325C6.32004 6.93334 6.02645 7.05404 5.84501 7.28972L5.58734 7.62442C5.25478 8.05639 4.60332 8.05639 4.27076 7.62442L4.01309 7.28972C3.83165 7.05404 3.53806 6.93334 3.24332 6.97325L2.82275 7.0302C2.27751 7.10404 1.8124 6.63702 1.88848 6.09209L1.94169 5.7109C1.98358 5.41081 1.85877 5.11171 1.616 4.9304L1.30609 4.69896C0.861202 4.36671 0.861202 3.69994 1.30609 3.36769L1.616 3.13624C1.85877 2.95494 1.98358 2.65584 1.94169 2.35575L1.88848 1.97456C1.8124 1.42962 2.27751 0.962607 2.82275 1.03644L3.24332 1.0934C3.53806 1.13331 3.83165 1.01261 4.01309 0.776932L4.27076 0.442226Z" fill="#333333"/>
</svg>
