<svg width="10" height="10" viewBox="0 0 10 10" fill="none" xmlns="http://www.w3.org/2000/svg">
<path d="M1.88409 1.84738C1.96304 1.21988 2.61915 0.841076 3.20206 1.08645L3.71667 1.30308C4.03473 1.43696 4.40027 1.38884 4.67284 1.1772L5.11385 0.83476C5.61338 0.446877 6.34518 0.642961 6.58385 1.22865L6.79456 1.74571C6.92478 2.06528 7.21729 2.28973 7.55968 2.33281L8.11366 2.40251C8.74116 2.48146 9.11996 3.13757 8.87459 3.72048L8.65796 4.23509C8.52408 4.55314 8.5722 4.91869 8.78384 5.19125L9.12628 5.63226C9.51416 6.1318 9.31808 6.8636 8.73239 7.10227L8.21533 7.31297C7.89576 7.4432 7.67131 7.73571 7.62823 8.0781L7.55853 8.63207C7.47958 9.25957 6.82347 9.63838 6.24056 9.393L5.72595 9.17638C5.40789 9.04249 5.04235 9.09062 4.76978 9.30226L4.32878 9.6447C3.82924 10.0326 3.09744 9.8365 2.85877 9.25081L2.64806 8.73375C2.51784 8.41418 2.22533 8.18973 1.88294 8.14665L1.32896 8.07695C0.701463 7.99799 0.322658 7.34189 0.568034 6.75898L0.784659 6.24437C0.918545 5.92631 0.87042 5.56077 0.658778 5.2882L0.316343 4.84719C-0.0715396 4.34766 0.124544 3.61586 0.710228 3.37719L1.22729 3.16648C1.54686 3.03626 1.77131 2.74375 1.81439 2.40136L1.88409 1.84738Z" fill="#25474F"/>
</svg>
