<svg width="9" height="8" viewBox="0 0 9 8" fill="none" xmlns="http://www.w3.org/2000/svg">
<path d="M2.34026 1.68686C2.40046 1.20838 2.90075 0.919541 3.34522 1.10664L3.73762 1.27182C3.98014 1.37391 4.25887 1.33721 4.4667 1.17584L4.80297 0.914725C5.18387 0.618962 5.74187 0.768477 5.92386 1.21507L6.08453 1.60933C6.18383 1.85301 6.40687 2.02415 6.66794 2.057L7.09035 2.11015C7.56883 2.17035 7.85767 2.67064 7.67057 3.11511L7.50539 3.5075C7.4033 3.75002 7.44 4.02876 7.60138 4.23659L7.86249 4.57286C8.15825 4.95376 8.00873 5.51176 7.56214 5.69375L7.16788 5.85442C6.92421 5.95372 6.75306 6.17676 6.72021 6.43783L6.66706 6.86024C6.60686 7.33872 6.10657 7.62756 5.6621 7.44046L5.26971 7.27528C5.02719 7.17319 4.74846 7.20989 4.54062 7.37126L4.20435 7.63238C3.82345 7.92814 3.26545 7.77862 3.08346 7.33203L2.92279 6.93777C2.82349 6.69409 2.60045 6.52295 2.33938 6.4901L1.91697 6.43695C1.43849 6.37675 1.14965 5.87646 1.33675 5.43199L1.50193 5.0396C1.60402 4.79708 1.56733 4.51834 1.40595 4.31051L1.14484 3.97424C0.849073 3.59334 0.998588 3.03534 1.44518 2.85335L1.83944 2.69268C2.08312 2.59338 2.25426 2.37034 2.28711 2.10927L2.34026 1.68686Z" fill="#25474F"/>
</svg>
