<svg width="26" height="26" viewBox="0 0 26 26" fill="none" xmlns="http://www.w3.org/2000/svg">
<path d="M11.1016 1.02662C12.1282 -0.327289 14.1635 -0.327288 15.1901 1.02662L16.0965 2.2219C16.6566 2.96064 17.5717 3.3397 18.4902 3.21342L19.9763 3.0091C21.6595 2.77766 23.0988 4.21688 22.8673 5.90016L22.663 7.38622C22.5367 8.30467 22.9158 9.2198 23.6545 9.77996L24.8498 10.6863C26.2037 11.7129 26.2037 13.7483 24.8498 14.7749L23.6545 15.6812C22.9158 16.2413 22.5367 17.1565 22.663 18.0749L22.8673 19.561C23.0988 21.2443 21.6595 22.6835 19.9763 22.452L18.4902 22.2477C17.5717 22.1214 16.6566 22.5005 16.0965 23.2392L15.1901 24.4345C14.1635 25.7884 12.1282 25.7884 11.1016 24.4345L10.1952 23.2392C9.63509 22.5005 8.71995 22.1214 7.8015 22.2477L6.31544 22.452C4.63216 22.6835 3.19294 21.2443 3.42438 19.561L3.6287 18.0749C3.75499 17.1565 3.37592 16.2413 2.63718 15.6812L1.4419 14.7749C0.087994 13.7483 0.0879954 11.7129 1.44191 10.6863L2.63718 9.77996C3.37593 9.2198 3.75499 8.30467 3.6287 7.38621L3.42438 5.90016C3.19294 4.21688 4.63216 2.77766 6.31544 3.0091L7.8015 3.21342C8.71995 3.3397 9.63509 2.96064 10.1952 2.2219L11.1016 1.02662Z" fill="#25474F"/>
</svg>
