<svg width="11" height="11" viewBox="0 0 11 11" fill="none" xmlns="http://www.w3.org/2000/svg">
<path d="M2.63409 2.09738C2.71304 1.46988 3.36915 1.09108 3.95206 1.33645L4.46667 1.55308C4.78473 1.68696 5.15027 1.63884 5.42284 1.4272L5.86385 1.08476C6.36338 0.696877 7.09518 0.892961 7.33385 1.47865L7.54456 1.99571C7.67478 2.31528 7.96729 2.53973 8.30968 2.58281L8.86366 2.65251C9.49116 2.73146 9.86996 3.38757 9.62459 3.97048L9.40796 4.48509C9.27408 4.80314 9.3222 5.16869 9.53384 5.44125L9.87628 5.88226C10.2642 6.3818 10.0681 7.1136 9.48239 7.35227L8.96533 7.56297C8.64576 7.6932 8.42131 7.98571 8.37823 8.3281L8.30853 8.88207C8.22958 9.50957 7.57347 9.88838 6.99056 9.643L6.47595 9.42638C6.15789 9.29249 5.79235 9.34062 5.51978 9.55226L5.07878 9.8947C4.57924 10.2826 3.84744 10.0865 3.60877 9.50081L3.39806 8.98375C3.26784 8.66418 2.97533 8.43973 2.63294 8.39665L2.07896 8.32695C1.45146 8.24799 1.07266 7.59189 1.31803 7.00898L1.53466 6.49437C1.66854 6.17631 1.62042 5.81077 1.40878 5.5382L1.06634 5.09719C0.67846 4.59766 0.874544 3.86586 1.46023 3.62719L1.97729 3.41648C2.29686 3.28626 2.52131 2.99375 2.56439 2.65136L2.63409 2.09738Z" fill="#25474F"/>
</svg>
