<svg width="20" height="20" viewBox="0 0 20 20" fill="none" xmlns="http://www.w3.org/2000/svg">
<path d="M8.82635 1.02009C9.59631 0.00465655 11.1228 0.00465643 11.8928 1.02009L12.5725 1.91655C12.9926 2.4706 13.679 2.7549 14.3678 2.66019L15.4824 2.50694C16.7448 2.33336 17.8243 3.41278 17.6507 4.67524L17.4974 5.78978C17.4027 6.47862 17.687 7.16498 18.2411 7.58509L19.1375 8.26483C20.153 9.03478 20.153 10.5613 19.1375 11.3313L18.2411 12.011C17.687 12.4311 17.4027 13.1175 17.4974 13.8063L17.6507 14.9209C17.8243 16.1833 16.7448 17.2627 15.4824 17.0891L14.3678 16.9359C13.679 16.8412 12.9926 17.1255 12.5725 17.6795L11.8928 18.576C11.1228 19.5914 9.59631 19.5914 8.82635 18.576L8.14661 17.6795C7.7265 17.1255 7.04015 16.8412 6.35131 16.9359L5.23676 17.0891C3.97431 17.2627 2.89489 16.1833 3.06847 14.9209L3.22171 13.8063C3.31642 13.1175 3.03213 12.4311 2.47807 12.011L1.58161 11.3313C0.56618 10.5613 0.56618 9.03478 1.58161 8.26483L2.47807 7.58509C3.03213 7.16498 3.31642 6.47862 3.22171 5.78978L3.06847 4.67524C2.89489 3.41278 3.97431 2.33337 5.23676 2.50695L6.35131 2.66019C7.04015 2.7549 7.7265 2.4706 8.14661 1.91655L8.82635 1.02009Z" fill="#25474F"/>
</svg>
