<svg width="9" height="8" viewBox="0 0 9 8" fill="none" xmlns="http://www.w3.org/2000/svg">
<path d="M2.34038 1.6871C2.40058 1.20863 2.90087 0.919785 3.34534 1.10689L3.73774 1.27207C3.98026 1.37415 4.25899 1.33746 4.46682 1.17608L4.80309 0.914969C5.184 0.619206 5.742 0.768721 5.92398 1.21531L6.08465 1.60958C6.18395 1.85325 6.40699 2.0244 6.66806 2.05724L7.09048 2.11039C7.56895 2.17059 7.85779 2.67088 7.67069 3.11535L7.50551 3.50775C7.40342 3.75027 7.44012 4.029 7.6015 4.23683L7.86261 4.57311C8.15837 4.95401 8.00886 5.51201 7.56227 5.694L7.168 5.85466C6.92433 5.95396 6.75318 6.177 6.72033 6.43807L6.66719 6.86049C6.60698 7.33896 6.1067 7.6278 5.66222 7.4407L5.26983 7.27552C5.02731 7.17343 4.74858 7.21013 4.54074 7.37151L4.20447 7.63262C3.82357 7.92838 3.26557 7.77887 3.08358 7.33228L2.92292 6.93801C2.82362 6.69434 2.60058 6.52319 2.3395 6.49034L1.91709 6.4372C1.43862 6.377 1.14977 5.87671 1.33688 5.43223L1.50205 5.03984C1.60414 4.79732 1.56745 4.51859 1.40607 4.31076L1.14496 3.97448C0.849195 3.59358 0.99871 3.03558 1.4453 2.85359L1.83956 2.69293C2.08324 2.59363 2.25438 2.37059 2.28723 2.10951L2.34038 1.6871Z" fill="#25474F"/>
</svg>
