<svg width="14" height="14" viewBox="0 0 14 14" fill="none" xmlns="http://www.w3.org/2000/svg">
<path d="M3.17903 2.46309C3.2843 1.62643 4.15911 1.12135 4.93632 1.44852L5.62247 1.73735C6.04655 1.91587 6.53394 1.8517 6.89736 1.56951L7.48537 1.11293C8.15142 0.595756 9.12715 0.8572 9.44538 1.63811L9.72632 2.32753C9.89995 2.75362 10.29 3.05289 10.7465 3.11033L11.4851 3.20326C12.3218 3.30853 12.8269 4.18335 12.4997 4.96056L12.2109 5.6467C12.0323 6.07078 12.0965 6.55817 12.3787 6.92159L12.8353 7.5096C13.3525 8.17565 13.091 9.15138 12.3101 9.46961L11.6207 9.75055C11.1946 9.92419 10.8953 10.3142 10.8379 10.7707L10.7449 11.5094C10.6397 12.346 9.76487 12.8511 8.98766 12.5239L8.30151 12.2351C7.87744 12.0566 7.39004 12.1207 7.02662 12.4029L6.43861 12.8595C5.77256 13.3767 4.79683 13.1152 4.47861 12.3343L4.19766 11.6449C4.02403 11.2188 3.63402 10.9196 3.1775 10.8621L2.43886 10.7692C1.60219 10.6639 1.09712 9.7891 1.42429 9.01189L1.71312 8.32574C1.89164 7.90167 1.82747 7.41427 1.54528 7.05085L1.0887 6.46284C0.571524 5.79679 0.832969 4.82107 1.61388 4.50284L2.3033 4.2219C2.72939 4.04826 3.02866 3.65825 3.0861 3.20173L3.17903 2.46309Z" fill="#25474F"/>
</svg>
