<svg width="26" height="26" viewBox="0 0 26 26" fill="none" xmlns="http://www.w3.org/2000/svg">
<path d="M11.1017 1.02662C12.1283 -0.327289 14.1637 -0.327288 15.1903 1.02662L16.0966 2.2219C16.6567 2.96064 17.5719 3.3397 18.4903 3.21342L19.9764 3.0091C21.6597 2.77766 23.0989 4.21688 22.8674 5.90016L22.6631 7.38622C22.5368 8.30467 22.9159 9.2198 23.6546 9.77996L24.8499 10.6863C26.2038 11.7129 26.2038 13.7483 24.8499 14.7749L23.6546 15.6812C22.9159 16.2413 22.5368 17.1565 22.6631 18.0749L22.8674 19.561C23.0989 21.2443 21.6597 22.6835 19.9764 22.452L18.4903 22.2477C17.5719 22.1214 16.6567 22.5005 16.0966 23.2392L15.1903 24.4345C14.1637 25.7884 12.1283 25.7884 11.1017 24.4345L10.1954 23.2392C9.63521 22.5005 8.72007 22.1214 7.80162 22.2477L6.31556 22.452C4.63228 22.6835 3.19306 21.2443 3.4245 19.561L3.62883 18.0749C3.75511 17.1565 3.37605 16.2413 2.63731 15.6812L1.44203 14.7749C0.088116 13.7483 0.0881175 11.7129 1.44203 10.6863L2.63731 9.77996C3.37605 9.2198 3.75511 8.30467 3.62883 7.38621L3.4245 5.90016C3.19306 4.21688 4.63229 2.77766 6.31556 3.0091L7.80162 3.21342C8.72008 3.3397 9.63521 2.96064 10.1954 2.2219L11.1017 1.02662Z" fill="#25474F"/>
</svg>
