<svg width="24" height="24" viewBox="0 0 24 24" fill="none" xmlns="http://www.w3.org/2000/svg">
<path d="M13.5 21.975C11.6333 21.975 10.0833 21.3208 8.85 20.0125C7.61667 18.7042 7 17.1417 7 15.325V14.45C5.58333 14.2667 4.39583 13.6375 3.4375 12.5625C2.47917 11.4875 2 10.2167 2 8.75V3H5V2H6.5V5.5H5V4.5H3.5V8.75C3.5 9.93333 3.9125 10.9375 4.7375 11.7625C5.5625 12.5875 6.56667 13 7.75 13C8.93333 13 9.9375 12.5875 10.7625 11.7625C11.5875 10.9375 12 9.93333 12 8.75V4.5H10.5V5.5H9V2H10.5V3H13.5V8.75C13.5 10.2167 13.0208 11.4875 12.0625 12.5625C11.1042 13.6375 9.91667 14.2667 8.5 14.45V15.325C8.5 16.7417 8.97083 17.9542 9.9125 18.9625C10.8542 19.9708 12.05 20.475 13.5 20.475C14.85 20.475 16.0208 19.975 17.0125 18.975C18.0042 17.975 18.5 16.7583 18.5 15.325V13.4C17.9167 13.2333 17.4375 12.9083 17.0625 12.425C16.6875 11.9417 16.5 11.3833 16.5 10.75C16.5 9.98333 16.7667 9.33333 17.3 8.8C17.8333 8.26667 18.4833 8 19.25 8C20.0167 8 20.6667 8.26667 21.2 8.8C21.7333 9.33333 22 9.98333 22 10.75C22 11.3833 21.8125 11.9417 21.4375 12.425C21.0625 12.9083 20.5833 13.2333 20 13.4V15.325C20 17.175 19.3625 18.7458 18.0875 20.0375C16.8125 21.3292 15.2833 21.975 13.5 21.975ZM19.25 12C19.6 12 19.8958 11.8792 20.1375 11.6375C20.3792 11.3958 20.5 11.1 20.5 10.75C20.5 10.4 20.3792 10.1042 20.1375 9.8625C19.8958 9.62083 19.6 9.5 19.25 9.5C18.9 9.5 18.6042 9.62083 18.3625 9.8625C18.1208 10.1042 18 10.4 18 10.75C18 11.1 18.1208 11.3958 18.3625 11.6375C18.6042 11.8792 18.9 12 19.25 12Z" fill="white"/>
</svg>
