<svg width="56" height="56" viewBox="0 0 56 56" fill="none" xmlns="http://www.w3.org/2000/svg">
<path d="M25.3163 36.5751L20.4163 31.6751C20.2608 31.5195 20.0858 31.4029 19.8913 31.3251C19.6969 31.2473 19.5025 31.2084 19.308 31.2084C19.1136 31.2084 18.9191 31.2473 18.7247 31.3251C18.5302 31.4029 18.3552 31.539 18.1997 31.7334C17.8886 32.0445 17.733 32.4237 17.733 32.8709C17.733 33.3181 17.8886 33.6973 18.1997 34.0084L24.0913 39.9001C24.2858 40.0945 24.4802 40.2306 24.6747 40.3084C24.8691 40.3862 25.083 40.4251 25.3163 40.4251C25.5497 40.4251 25.7636 40.3862 25.958 40.3084C26.1525 40.2306 26.3469 40.0945 26.5413 39.9001L37.5663 28.8751C37.8775 28.564 38.033 28.1848 38.033 27.7376C38.033 27.2904 37.8775 26.9112 37.5663 26.6001C37.2552 26.289 36.8761 26.1334 36.4288 26.1334C35.9816 26.1334 35.6025 26.289 35.2913 26.6001L25.3163 36.5751ZM12.833 51.3334C11.8997 51.3334 11.083 50.9834 10.383 50.2834C9.68301 49.5834 9.33301 48.7668 9.33301 47.8334V8.16675C9.33301 7.23341 9.68301 6.41675 10.383 5.71675C11.083 5.01675 11.8997 4.66675 12.833 4.66675H32.433C32.8997 4.66675 33.3566 4.76397 33.8038 4.95841C34.2511 5.15286 34.6302 5.40564 34.9413 5.71675L45.6163 16.3917C45.9274 16.7029 46.1802 17.082 46.3747 17.5292C46.5691 17.9765 46.6663 18.4334 46.6663 18.9001V47.8334C46.6663 48.7668 46.3163 49.5834 45.6163 50.2834C44.9163 50.9834 44.0997 51.3334 43.1663 51.3334H12.833ZM32.1413 17.2667V8.16675H12.833V47.8334H43.1663V19.0167H33.8913C33.3858 19.0167 32.9677 18.8515 32.6372 18.5209C32.3066 18.1904 32.1413 17.7723 32.1413 17.2667ZM12.833 8.16675V19.0167V8.16675V47.8334V8.16675Z" fill="#C0C0C0"/>
</svg>
