<svg width="36" height="36" viewBox="0 0 36 36" fill="none" xmlns="http://www.w3.org/2000/svg">
<path d="M11.3213 32.6261C24.9062 32.6261 32.3366 21.3711 32.3366 11.6108C32.3366 11.2911 32.3366 10.9729 32.315 10.6561C33.7606 9.61049 35.0084 8.31589 36 6.83286C34.6521 7.43046 33.2221 7.82219 31.7578 7.99494C33.2997 7.07197 34.4537 5.62011 35.005 3.90966C33.5551 4.77007 31.969 5.3764 30.3149 5.70246C29.2013 4.51833 27.7284 3.73422 26.1243 3.47149C24.5201 3.20875 22.8741 3.48203 21.441 4.24904C20.0078 5.01605 18.8673 6.23402 18.1961 7.71448C17.5249 9.19494 17.3603 10.8554 17.7278 12.4388C14.7913 12.2915 11.9186 11.5283 9.29618 10.1989C6.67373 8.86941 4.36015 7.00335 2.5056 4.72182C1.56109 6.34781 1.27181 8.27266 1.69665 10.1045C2.12149 11.9362 3.22851 13.5373 4.79232 14.5815C3.61685 14.5471 2.46697 14.23 1.44 13.657V13.7506C1.44047 15.4559 2.03078 17.1085 3.11081 18.4282C4.19084 19.7478 5.69409 20.6533 7.3656 20.9909C6.27822 21.2875 5.13731 21.3309 4.03056 21.1177C4.50272 22.5851 5.42164 23.8684 6.65886 24.7881C7.89607 25.7077 9.38974 26.2178 10.931 26.2469C9.39966 27.4507 7.64597 28.3406 5.77031 28.8659C3.89465 29.3913 1.93382 29.5416 0 29.3084C3.37775 31.4759 7.30789 32.6257 11.3213 32.6204" fill="#1DA1F2"/>
</svg>
