<svg width="33" height="32" viewBox="0 0 33 32" fill="none" xmlns="http://www.w3.org/2000/svg">
<path d="M29.3909 9.32614C29.4104 9.61545 29.4104 9.90476 29.4104 10.1967C29.4104 19.0934 22.8063 29.354 10.7305 29.354V29.3486C7.16319 29.354 3.67004 28.306 0.666992 26.3302C1.1857 26.3942 1.70701 26.4262 2.22962 26.4275C5.18586 26.4302 8.05761 25.4129 10.3833 23.5397C7.574 23.4851 5.11046 21.6065 4.24985 18.8641C5.23396 19.0587 6.24798 19.0187 7.21389 18.7481C4.15105 18.1135 1.94751 15.3537 1.94751 12.1486C1.94751 12.1193 1.94751 12.0913 1.94751 12.0633C2.86013 12.5846 3.88194 12.8739 4.92716 12.9059C2.04241 10.9287 1.1532 6.99298 2.89523 3.91588C6.22848 8.12223 11.1465 10.6794 16.4258 10.95C15.8967 8.61153 16.6195 6.16104 18.3252 4.51717C20.9694 1.96803 25.1282 2.09868 27.6138 4.80915C29.0841 4.51183 30.4934 3.95854 31.783 3.1746C31.2929 4.73315 30.2672 6.05705 28.8969 6.89832C30.1983 6.741 31.4697 6.38369 32.667 5.8384C31.7856 7.19297 30.6754 8.37288 29.3909 9.32614Z" fill="#464646"/>
</svg>
