<svg width="19" height="18" viewBox="0 0 19 18" fill="none" xmlns="http://www.w3.org/2000/svg">
<path d="M16.4072 5.24588C16.4182 5.40862 16.4182 5.57136 16.4182 5.7356C16.4182 10.74 12.7034 16.5115 5.9107 16.5115V16.5085C3.90411 16.5115 1.93921 15.9221 0.25 14.8107C0.541773 14.8467 0.835009 14.8647 1.12898 14.8654C2.79186 14.8669 4.40722 14.2947 5.71545 13.241C4.13519 13.2103 2.74945 12.1536 2.26536 10.611C2.81892 10.7205 3.38931 10.698 3.93263 10.5457C2.20978 10.1888 0.970293 8.63638 0.970293 6.83351C0.970293 6.81702 0.970293 6.80127 0.970293 6.78552C1.48364 7.07875 2.05841 7.24148 2.64634 7.25948C1.02367 6.14732 0.523492 3.93348 1.50338 2.20261C3.37834 4.56869 6.1447 6.00708 9.11435 6.15932C8.81673 4.84391 9.22331 3.46552 10.1827 2.54084C11.6701 1.10695 14.0094 1.18044 15.4076 2.70508C16.2346 2.53784 17.0273 2.22661 17.7527 1.78564C17.4771 2.66233 16.9001 3.40702 16.1293 3.88024C16.8613 3.79174 17.5765 3.59076 18.25 3.28403C17.7542 4.04597 17.1297 4.70967 16.4072 5.24588Z" fill="#464646"/>
</svg>
