<svg width="24" height="24" viewBox="0 0 24 24" fill="none" xmlns="http://www.w3.org/2000/svg">
<path d="M21.543 6.99451C21.5576 7.2115 21.5576 7.42848 21.5576 7.64746C21.5576 14.32 16.6045 22.0154 7.54759 22.0154V22.0114C4.87215 22.0154 2.25229 21.2294 0 19.7476C0.389031 19.7955 0.780012 19.8195 1.17197 19.8205C3.38915 19.8225 5.54296 19.0596 7.28726 17.6547C5.18026 17.6137 3.3326 16.2048 2.68714 14.148C3.42523 14.294 4.18574 14.264 4.91018 14.061C2.61304 13.585 0.96039 11.5152 0.96039 9.11135C0.96039 9.08935 0.96039 9.06836 0.96039 9.04736C1.64485 9.43833 2.41121 9.65531 3.19512 9.67931C1.03157 8.19642 0.364656 5.24464 1.67118 2.93682C4.17111 6.09158 7.8596 8.00944 11.8191 8.21242C11.4223 6.45855 11.9644 4.62069 13.2436 3.38778C15.2268 1.47593 18.3459 1.57392 20.2101 3.60677C21.3129 3.38378 22.3698 2.96882 23.337 2.38086C22.9694 3.54977 22.2001 4.5427 21.1725 5.17365C22.1484 5.05566 23.102 4.78768 24 4.37871C23.3389 5.39463 22.5063 6.27957 21.543 6.99451Z" fill="#464646"/>
</svg>
