<svg width="19" height="19" viewBox="0 0 19 19" fill="none" xmlns="http://www.w3.org/2000/svg">
<path d="M16.4072 5.99588C16.4182 6.15862 16.4182 6.32136 16.4182 6.4856C16.4182 11.49 12.7034 17.2615 5.9107 17.2615V17.2585C3.90411 17.2615 1.93921 16.6721 0.25 15.5607C0.541773 15.5967 0.835009 15.6147 1.12898 15.6154C2.79186 15.6169 4.40722 15.0447 5.71545 13.991C4.13519 13.9603 2.74945 12.9036 2.26536 11.361C2.81892 11.4705 3.38931 11.448 3.93263 11.2957C2.20978 10.9388 0.970293 9.38638 0.970293 7.58351C0.970293 7.56702 0.970293 7.55127 0.970293 7.53552C1.48364 7.82875 2.05841 7.99148 2.64634 8.00948C1.02367 6.89732 0.523492 4.68348 1.50338 2.95261C3.37834 5.31869 6.1447 6.75708 9.11435 6.90932C8.81673 5.59391 9.22331 4.21552 10.1827 3.29084C11.6701 1.85695 14.0094 1.93044 15.4076 3.45508C16.2346 3.28784 17.0273 2.97661 17.7527 2.53564C17.4771 3.41233 16.9001 4.15702 16.1293 4.63024C16.8613 4.54174 17.5765 4.34076 18.25 4.03403C17.7542 4.79597 17.1297 5.45967 16.4072 5.99588Z" fill="#464646"/>
</svg>
