<svg width="22" height="21" viewBox="0 0 22 21" fill="none" xmlns="http://www.w3.org/2000/svg">
<path d="M7.25667 18.9759C14.9308 18.9759 19.1295 12.6166 19.1295 7.10345C19.1295 6.92467 19.1255 6.74192 19.1175 6.56314C19.9343 5.97249 20.6391 5.24088 21.199 4.4027C20.4383 4.74112 19.6307 4.96215 18.8037 5.05822C19.6744 4.53628 20.3264 3.71634 20.6388 2.75039C19.8196 3.23585 18.9237 3.57831 17.9896 3.76307C17.3602 3.09432 16.528 2.65152 15.6217 2.50315C14.7154 2.35477 13.7855 2.50908 12.9757 2.94221C12.1659 3.37535 11.5213 4.06318 11.1416 4.89937C10.762 5.73556 10.6683 6.67353 10.8752 7.56827C9.21652 7.48503 7.59381 7.05416 6.11231 6.30357C4.6308 5.55298 3.32357 4.49944 2.27537 3.21124C1.74262 4.12974 1.57959 5.21663 1.81943 6.25101C2.05927 7.28539 2.68398 8.18964 3.56658 8.77999C2.90397 8.75895 2.25588 8.58056 1.67585 8.25954V8.31119C1.67526 9.27509 2.0085 10.2095 2.61892 10.9554C3.22935 11.7014 4.07929 12.213 5.02426 12.4032C4.41046 12.5712 3.76625 12.5956 3.14148 12.4747C3.40813 13.3037 3.92694 14.0287 4.6255 14.5487C5.32406 15.0686 6.16752 15.3574 7.03815 15.3749C5.56007 16.536 3.7342 17.1657 1.85463 17.1627C1.52131 17.1622 1.18831 17.1418 0.857422 17.1015C2.76686 18.3265 4.98805 18.9771 7.25667 18.9759Z" fill="white"/>
</svg>
