<svg width="61" height="61" viewBox="0 0 61 61" fill="none" xmlns="http://www.w3.org/2000/svg">
<path fill-rule="evenodd" clip-rule="evenodd" d="M41.2762 1.08197C41.5635 1.36932 41.5635 1.83521 41.2762 2.12256C40.738 2.66067 40.2567 3.23406 39.8321 3.83529L58.0323 22.0354C58.6335 21.6109 59.2069 21.1295 59.745 20.5914C60.0324 20.3041 60.4982 20.3041 60.7856 20.5914C61.0729 20.8788 61.0729 21.3446 60.7856 21.632C55.8927 26.5249 48.3785 27.199 42.7634 23.6543C46.0282 28.9692 45.3586 36.0176 40.7547 40.6215C36.1503 45.2259 29.1009 45.8951 23.7858 42.6291C27.3303 48.2442 26.6562 55.7582 21.7633 60.6511C21.476 60.9384 21.0101 60.9384 20.7228 60.6511C20.4354 60.3637 20.4354 59.8978 20.7228 59.6105C21.2612 59.0721 21.7428 58.4983 22.1675 57.8967L3.96768 39.6969C3.36608 40.1216 2.79233 40.6032 2.25391 41.1416C1.96656 41.429 1.50067 41.429 1.21332 41.1416C0.925965 40.8543 0.925965 40.3884 1.21332 40.101C6.10661 35.2078 13.6215 34.5339 19.2368 38.0795C15.9718 32.7646 16.6413 25.7161 21.2453 21.1121C25.8493 16.5081 32.898 15.8386 38.213 19.1037C34.6686 13.4886 35.3428 5.97475 40.2356 1.08197C40.5229 0.794617 40.9888 0.794617 41.2762 1.08197ZM20.7228 41.1416C23.2364 43.6552 24.5111 46.9386 24.547 50.2329L11.6315 37.3174C14.9258 37.3533 18.2092 38.628 20.7228 41.1416ZM23.2336 56.0937C23.7369 55.06 24.0956 53.9735 24.3098 52.8647L8.99967 37.5546C7.89085 37.7688 6.80443 38.1275 5.77066 38.6308L23.2336 56.0937ZM56.2294 23.1016L38.7659 5.63812C38.2625 6.67183 37.9037 7.7582 37.6894 8.86699L53.0006 24.1782C54.1094 23.9639 55.1957 23.605 56.2294 23.1016ZM50.369 24.4157C47.0742 24.3802 43.7902 23.1054 41.2762 20.5914C38.7621 18.0774 37.4874 14.7934 37.4519 11.4986L50.369 24.4157ZM23.0316 21.4651L40.4018 38.8352C41.5932 37.4326 42.4203 35.8263 42.883 34.141L27.7259 18.9839C26.0405 19.4466 24.4342 20.2736 23.0316 21.4651ZM21.5972 22.8997L38.9671 40.2697C37.5651 41.4603 35.9596 42.2869 34.2751 42.7495L19.1173 27.5917C19.5799 25.9072 20.4066 24.3017 21.5972 22.8997ZM18.7035 30.0469C18.4768 33.4682 19.6709 36.966 22.2859 39.5809C24.9009 42.1959 28.3987 43.39 31.8199 43.1633L18.7035 30.0469ZM43.2966 31.6855L30.1813 18.5702C33.6022 18.3438 37.0995 19.538 39.7142 22.1527C42.3288 24.7674 43.523 28.2647 43.2966 31.6855Z" fill="#25474F"/>
</svg>
