<svg width="43" height="59" viewBox="0 0 43 59" fill="none" xmlns="http://www.w3.org/2000/svg">
<path fill-rule="evenodd" clip-rule="evenodd" d="M40.44 22.1041C40.44 32.5312 31.9871 40.9841 21.56 40.9841C11.1329 40.9841 2.68 32.5312 2.68 22.1041C2.68 11.6769 11.1329 3.22406 21.56 3.22406C31.9871 3.22406 40.44 11.6769 40.44 22.1041ZM24.6528 43.3226C35.0283 41.8236 43 32.8948 43 22.1041C43 10.2631 33.401 0.664062 21.56 0.664062C9.71901 0.664062 0.119995 10.2631 0.119995 22.1041C0.119995 32.8944 8.09113 41.823 18.4661 43.3225V55.8109C18.4661 57.5193 19.851 58.9042 21.5594 58.9042C23.2678 58.9042 24.6528 57.5193 24.6528 55.8109V43.3226Z" fill="#25474F"/>
</svg>
