<svg width="48" height="54" viewBox="0 0 48 54" fill="none" xmlns="http://www.w3.org/2000/svg">
<path fill-rule="evenodd" clip-rule="evenodd" d="M12.5488 1.65487C3.22847 10.9083 -7.49226 30.3695 7.35162 51.9196C7.94522 52.7813 8.94383 53.287 9.99028 53.287H42.0765C43.895 53.287 45.3692 51.8128 45.3692 49.9942V47.6893C45.3692 45.8708 43.895 44.3966 42.0765 44.3966H40.2648V35.3427H46.5208C47.2482 35.3427 47.8379 34.753 47.8379 34.0256C47.8379 33.2982 47.2482 32.7085 46.5208 32.7085L22.1547 32.7085C21.4273 32.7085 20.8376 33.2982 20.8376 34.0256C20.8376 34.753 21.4273 35.3427 22.1547 35.3427H38.6184V44.3966H29.3994V35.3428H27.7531V44.3966H23.9565C23.4224 44.3966 22.896 44.2715 22.4325 44.0062C14.2811 39.3391 3.35301 26.5791 18.1884 8.89422C19.0658 7.84831 19.2827 6.38223 18.6721 5.16117L17.384 2.58481C16.4489 0.714772 14.0326 0.18181 12.5488 1.65487Z" fill="#25474F"/>
</svg>
