<svg width="48" height="49" viewBox="0 0 48 49" fill="none" xmlns="http://www.w3.org/2000/svg">
<path fill-rule="evenodd" clip-rule="evenodd" d="M32.2209 1.07359C32.4507 1.30346 32.4507 1.67615 32.2209 1.90602C31.7904 2.33647 31.4054 2.79513 31.0658 3.27606L45.6251 17.8354C46.106 17.4958 46.5647 17.1107 46.9951 16.6803C47.225 16.4504 47.5977 16.4504 47.8275 16.6803C48.0574 16.9102 48.0574 17.2828 47.8275 17.5127C43.9135 21.4268 37.9025 21.9661 33.4106 19.1305C36.0223 23.3822 35.4866 29.0205 31.8038 32.7034C28.1204 36.3868 22.4811 36.9221 18.2293 34.3093C21.0648 38.8012 20.5256 44.8122 16.6115 48.7263C16.3816 48.9561 16.0089 48.9561 15.779 48.7263C15.5492 48.4964 15.5492 48.1237 15.779 47.8938C16.2098 47.4631 16.595 47.0041 16.9348 46.5229L2.37577 31.9638C1.89449 32.3036 1.43551 32.6889 1.00478 33.1196C0.774908 33.3494 0.402217 33.3495 0.172348 33.1196C-0.0575203 32.8897 -0.0575198 32.517 0.172348 32.2872C4.08679 28.3727 10.0985 27.8337 14.5905 30.6701C11.9785 26.4184 12.5141 20.7798 16.1971 17.0967C19.8801 13.4137 25.5186 12.8782 29.7704 15.4901C26.9351 10.9983 27.4745 4.98757 31.3884 1.07359C31.6183 0.843725 31.991 0.843725 32.2209 1.07359ZM15.779 33.1196C17.7898 35.1303 18.8095 37.7568 18.8383 40.3921L8.50655 30.0604C11.1418 30.0891 13.7683 31.1088 15.779 33.1196ZM17.7876 45.0805C18.1902 44.2536 18.4772 43.3845 18.6485 42.4974L6.40118 30.2501C5.51416 30.4214 4.64506 30.7084 3.81808 31.111L17.7876 45.0805ZM44.1829 18.6883L30.2128 4.71823C29.8101 5.54516 29.523 6.41422 29.3516 7.3012L41.5999 19.5495C42.4869 19.3781 43.356 19.091 44.1829 18.6883ZM39.4948 19.7395C36.8591 19.7111 34.232 18.6914 32.2209 16.6803C30.2097 14.6692 29.19 12.0421 29.1616 9.40632L39.4948 19.7395ZM17.626 17.3791L31.5214 31.2745C32.4745 30.1525 33.1361 28.8675 33.5063 27.5192L21.3813 15.3942C20.033 15.7644 18.748 16.426 17.626 17.3791ZM16.4785 18.5267L30.3738 32.4219C29.2522 33.3744 27.9679 34.0357 26.6203 34.4057L14.4948 22.2802C14.8648 20.9326 15.5261 19.6483 16.4785 18.5267ZM14.1637 24.2443C13.9824 26.9811 14.9376 29.7792 17.0295 31.871C19.1213 33.9629 21.9194 34.9181 24.6562 34.7367L14.1637 24.2443ZM33.8371 25.555L23.3455 15.0634C26.082 14.8823 28.8797 15.8375 30.9713 17.9292C33.063 20.0208 34.0182 22.8185 33.8371 25.555Z" fill="#25474F"/>
</svg>
