<svg width="33" height="45" viewBox="0 0 33 45" fill="none" xmlns="http://www.w3.org/2000/svg">
<path fill-rule="evenodd" clip-rule="evenodd" d="M31.0798 17.078C31.0798 24.8984 24.7402 31.238 16.9198 31.238C9.09949 31.238 2.75984 24.8984 2.75984 17.078C2.75984 9.2577 9.09949 2.91805 16.9198 2.91805C24.7402 2.91805 31.0798 9.2577 31.0798 17.078ZM19.2394 32.992C27.0211 31.8677 32.9998 25.1711 32.9998 17.078C32.9998 8.19731 25.8006 0.998047 16.9198 0.998047C8.0391 0.998047 0.839844 8.19731 0.839844 17.078C0.839844 25.1708 6.8182 31.8672 14.5994 32.9919V42.3581C14.5994 43.6394 15.6381 44.6781 16.9194 44.6781C18.2007 44.6781 19.2394 43.6394 19.2394 42.3581V32.992Z" fill="#25474F"/>
</svg>
