<svg width="15" height="11" viewBox="0 0 15 11" fill="none" xmlns="http://www.w3.org/2000/svg">
<path fill-rule="evenodd" clip-rule="evenodd" d="M2.71219 0.566148C2.67859 0.640197 2.71208 0.724723 2.78699 0.754942C2.94033 0.816794 3.08476 0.89031 3.21972 0.974029L0.880513 6.12943C0.723092 6.09521 0.566957 6.04748 0.413625 5.98562C0.338712 5.95541 0.250746 5.99094 0.217147 6.06499C0.183548 6.13904 0.217039 6.22356 0.291951 6.25378C1.69017 6.8178 3.29985 6.31675 4.17313 5.13347C3.89995 6.47049 4.59293 7.83008 5.91587 8.36373C7.23893 8.89744 8.76055 8.43098 9.59745 7.32116C9.29269 8.73393 10.0199 10.1778 11.4183 10.7419C11.4932 10.7721 11.5811 10.7366 11.6147 10.6625C11.6483 10.5885 11.6148 10.5039 11.5399 10.4737C11.3865 10.4118 11.2419 10.3382 11.1068 10.2544L13.446 5.09913C13.6035 5.13336 13.7598 5.18112 13.9133 5.24303C13.9882 5.27325 14.0762 5.23772 14.1098 5.16367C14.1434 5.08962 14.1099 5.00509 14.035 4.97487C12.6366 4.41081 11.0268 4.91199 10.1536 6.09547C10.4269 4.75835 9.73395 3.39859 8.41091 2.86489C7.08796 2.33124 5.56648 2.79757 4.72954 3.90718C5.03412 2.49452 4.30688 1.0508 2.90867 0.486785C2.83375 0.456567 2.74579 0.492099 2.71219 0.566148ZM10.0808 6.79109C9.75567 7.50762 9.75259 8.27443 10.0104 8.93727L11.6785 5.26102C10.992 5.54292 10.4059 6.07456 10.0808 6.79109ZM10.7447 9.98611C10.5594 9.82346 10.3996 9.63844 10.2676 9.43696L12.2394 5.09133C12.4851 5.04218 12.7373 5.02338 12.9901 5.03743L10.7447 9.98611ZM1.33639 6.1912L3.58192 1.24226C3.76724 1.40486 3.92706 1.58984 4.05903 1.79128L2.08701 6.13743C1.84135 6.18654 1.5891 6.20529 1.33639 6.1912ZM2.64784 5.96787L4.31627 2.29083C4.57433 2.9538 4.57134 3.72084 4.24613 4.43757C3.92093 5.1543 3.3346 5.68603 2.64784 5.96787ZM8.08121 3.05872L5.83686 8.00504C5.48095 7.82668 5.18343 7.57842 4.95387 7.28437L6.91862 2.95424C7.30271 2.90772 7.6986 2.93917 8.08121 3.05872ZM8.49023 3.22375L6.24592 8.17001C6.62861 8.28953 7.02459 8.32092 7.40875 8.27431L9.37326 3.94472C9.14372 3.65055 8.84619 3.40219 8.49023 3.22375ZM9.6537 4.39313C9.98209 5.06392 10.0149 5.87461 9.67357 6.62688C9.33224 7.37915 8.68771 7.91661 7.94638 8.1559L9.6537 4.39313ZM4.67337 6.8361L6.38105 3.07251C5.63945 3.31169 4.99464 3.84925 4.6532 4.60174C4.31177 5.35424 4.34471 6.16519 4.67337 6.8361Z" fill="#7C9195"/>
</svg>
