<svg width="15" height="13" viewBox="0 0 15 13" fill="none" xmlns="http://www.w3.org/2000/svg">
<path fill-rule="evenodd" clip-rule="evenodd" d="M10.6435 0.523071C10.6921 0.588221 10.6775 0.677954 10.6108 0.723495C10.4742 0.816708 10.3489 0.919413 10.2349 1.03006L13.6226 5.56591C13.769 5.49881 13.9113 5.41879 14.0479 5.32558C14.1146 5.28004 14.2081 5.29593 14.2568 5.36108C14.3055 5.42623 14.2908 5.51597 14.2241 5.56151C12.9789 6.41151 11.2993 6.2663 10.1931 5.29717C10.7459 6.54482 10.3598 8.02116 9.18155 8.8254C8.00324 9.62971 6.41707 9.49947 5.36218 8.59431C5.96203 9.90921 5.5604 11.4752 4.31507 12.3253C4.24836 12.3708 4.15483 12.3549 4.10617 12.2898C4.05751 12.2246 4.07215 12.1349 4.13887 12.0894C4.27555 11.9961 4.40102 11.8932 4.51504 11.7825L1.12748 7.24676C0.980881 7.31389 0.838431 7.39397 0.70175 7.48727C0.635034 7.53281 0.541504 7.51691 0.492845 7.45176C0.444187 7.38661 0.458826 7.29688 0.525543 7.25134C1.77089 6.40127 3.45065 6.54657 4.55678 7.51591C4.00379 6.26819 4.38994 4.79168 5.56823 3.98739C6.74644 3.18314 8.33245 3.31329 9.38733 4.21825C8.78768 2.90341 9.18934 1.33756 10.4346 0.487564C10.5013 0.442023 10.5948 0.45792 10.6435 0.523071ZM4.77666 8.17987C5.2475 8.81029 5.4145 9.5587 5.30438 10.2614L2.88869 7.0269C3.61961 7.15546 4.30583 7.54945 4.77666 8.17987ZM4.81145 11.4429C4.95768 11.2444 5.07421 11.0295 5.16001 10.8045L2.30448 6.98109C2.05398 6.98561 1.80352 7.0212 1.55964 7.08898L4.81145 11.4429ZM13.1904 5.72374L9.93846 1.36954C9.79221 1.56802 9.67565 1.78289 9.58982 2.00789L12.4457 5.83174C12.6962 5.82718 12.9466 5.79155 13.1904 5.72374ZM11.8616 5.78606L9.44536 2.5509C9.33506 3.25372 9.50202 4.00238 9.97299 4.63298C10.444 5.26357 11.1304 5.65761 11.8616 5.78606ZM5.93176 4.10622L9.18202 8.45811C9.49155 8.20776 9.72909 7.90162 9.89045 7.56527L7.0451 3.75552C6.65994 3.79222 6.27994 3.90761 5.93176 4.10622ZM5.56749 4.3549L8.81771 8.70675C8.46943 8.90535 8.08933 9.02069 7.70409 9.05732L4.85908 5.24804C5.0204 4.91159 5.25792 4.60535 5.56749 4.3549ZM4.68103 5.74605C4.5037 6.47155 4.64502 7.27051 5.13934 7.93237C5.63366 8.59424 6.37822 8.98142 7.15357 9.05663L4.68103 5.74605ZM10.0686 7.06738L7.59552 3.75609C8.37112 3.83113 9.11598 4.21835 9.61045 4.88041C10.1049 5.54247 10.2462 6.34171 10.0686 7.06738Z" fill="#25474F"/>
</svg>
