<svg width="56" height="56" viewBox="0 0 56 56" fill="none" xmlns="http://www.w3.org/2000/svg">
<path d="M26.3663 44.2168H29.8663V32.4918L34.6497 37.2751L37.0997 34.8251L27.9997 25.9584L19.0163 34.9418L21.4663 37.3918L26.3663 32.4918V44.2168ZM12.833 51.3334C11.8997 51.3334 11.083 50.9834 10.383 50.2834C9.68301 49.5834 9.33301 48.7668 9.33301 47.8334V8.16675C9.33301 7.23341 9.68301 6.41675 10.383 5.71675C11.083 5.01675 11.8997 4.66675 12.833 4.66675H33.8913L46.6663 17.4417V47.8334C46.6663 48.7668 46.3163 49.5834 45.6163 50.2834C44.9163 50.9834 44.0997 51.3334 43.1663 51.3334H12.833ZM32.1413 19.0167V8.16675H12.833V47.8334H43.1663V19.0167H32.1413ZM12.833 8.16675V19.0167V8.16675V47.8334V8.16675Z" fill="#009F06"/>
</svg>
