<svg width="48" height="48" viewBox="0 0 48 48" fill="none" xmlns="http://www.w3.org/2000/svg">
<path d="M11.3822 4.80028C14.1595 1.67578 20.3507 0.798218 23.0991 0.75C25.7028 0.75 31.5467 1.27075 34.0926 3.35375C37.275 5.9575 37.5643 6.24681 40.602 8.27194C43.6397 10.2971 45.8095 13.3348 47.1114 20.5674C48.4132 27.8001 44.363 29.5359 44.0737 32.7183C43.7844 35.9006 40.4573 39.9509 36.6964 41.8314C32.9354 43.7119 34.6712 44.8691 32.6461 44.8691C30.621 44.8691 30.9103 44.8691 28.3065 45.737C25.7028 46.6049 23.0991 46.8942 20.4953 47.1835C17.8914 47.4729 14.5645 46.3156 11.3822 44.8691C8.19993 43.4226 3.57089 36.9132 2.84762 34.1648C2.12436 31.4164 1.11187 33.2969 0.67791 26.4982C0.243952 19.6995 2.5584 12.0329 4.72819 10.4417C6.89798 8.85056 7.91055 8.7059 11.3822 4.80028Z" fill="#68DA80" fill-opacity="0.1" stroke="#68DA80" stroke-width="0.867917"/>
</svg>
