<svg width="27" height="27" viewBox="0 0 27 27" fill="none" xmlns="http://www.w3.org/2000/svg">
<path d="M6.79616 3.30442C8.29263 1.62089 11.6285 1.14805 13.1094 1.12207C14.5123 1.12207 17.6611 1.40266 19.0329 2.52501C20.7476 3.92795 20.9035 4.08384 22.5402 5.17501C24.177 6.26619 25.3461 7.90296 26.0476 11.8C26.7491 15.6971 24.5667 16.6324 24.4108 18.3471C24.2549 20.0618 22.4623 22.2441 20.4358 23.2574C18.4094 24.2706 19.3447 24.8941 18.2535 24.8941C17.1623 24.8941 17.3182 24.8941 15.9152 25.3618C14.5123 25.8294 13.1094 25.9853 11.7064 26.1412C10.3034 26.2971 8.51082 25.6736 6.79616 24.8941C5.08149 24.1147 2.58729 20.6074 2.19758 19.1265C1.80788 17.6456 1.26233 18.6588 1.02851 14.9956C0.794685 11.3324 2.04174 7.20148 3.21086 6.34413C4.37998 5.48678 4.92557 5.40884 6.79616 3.30442Z" fill="#FF9933" fill-opacity="0.1" stroke="#FF9933" stroke-width="0.467647"/>
</svg>
