<svg width="2" height="2" viewBox="0 0 2 2" fill="none" xmlns="http://www.w3.org/2000/svg">
<path fill-rule="evenodd" clip-rule="evenodd" d="M1.01326 0.625108C0.816013 0.363834 0.537574 0.385387 0.422178 0.427691L0.418146 0.429169L0.414299 0.431239C0.293376 0.496299 0.234588 0.632912 0.221826 0.751648C0.215452 0.810953 0.219707 0.872431 0.237923 0.923955C0.256335 0.976029 0.293655 1.02756 0.353322 1.03569C0.374038 1.03851 0.393519 1.04035 0.412025 1.0421C0.502795 1.05067 0.570111 1.05703 0.644582 1.16613C0.711137 1.26362 0.801315 1.32149 0.886053 1.34143C0.966743 1.36042 1.06152 1.34799 1.11797 1.27038C1.15968 1.21304 1.19839 1.12894 1.18862 1.01296C1.17922 0.901236 1.12587 0.774278 1.01326 0.625108ZM0.466551 0.584242C0.556952 0.553095 0.767267 0.54317 0.912887 0.736062C1.01597 0.872614 1.04782 0.967274 1.05299 1.02868C1.0578 1.08584 1.04047 1.12639 1.01541 1.16085C1.00509 1.17503 0.970817 1.19341 0.911255 1.17939C0.855742 1.16633 0.794466 1.12738 0.749449 1.06144C0.635271 0.894176 0.507595 0.883793 0.412793 0.876083C0.397265 0.87482 0.382619 0.873629 0.369059 0.871832C0.367866 0.870414 0.365771 0.867047 0.363207 0.859797C0.356927 0.842034 0.352958 0.8118 0.357025 0.773956C0.364996 0.699792 0.400551 0.621901 0.466551 0.584242ZM0.370136 0.872719C0.370155 0.872636 0.369881 0.872334 0.369259 0.872062C0.369806 0.872665 0.370117 0.872802 0.370136 0.872719Z" fill="white"/>
</svg>
