<svg width="26" height="27" viewBox="0 0 26 27" fill="none" xmlns="http://www.w3.org/2000/svg">
<path d="M2.07314 8.04413C2.42981 5.82505 4.99273 3.64119 6.22961 2.82664C7.41464 2.07571 10.2256 0.626622 11.9892 0.837752C14.1938 1.10166 14.4095 1.14953 16.3801 1.19255C18.3508 1.23558 20.2205 1.98848 22.9134 4.8956C25.6064 7.80271 24.2671 9.75866 25.0596 11.2864C25.8521 12.8142 25.5141 15.612 24.3485 17.5502C23.1828 19.4883 24.3089 19.5129 23.3872 20.097C22.4655 20.6811 22.5972 20.5976 21.6642 21.7425C20.7312 22.8873 19.6302 23.7695 18.5291 24.6518C17.4281 25.5341 15.5778 25.9684 13.7094 26.2297C11.841 26.4909 7.84378 24.8717 6.71644 23.8329C5.58911 22.7941 5.6744 23.9396 3.50251 20.9791C1.33062 18.0186 0.157559 13.8716 0.683007 12.5236C1.20845 11.1757 1.6273 10.818 2.07314 8.04413Z" fill="#68DA80" fill-opacity="0.1" stroke="#68DA80" stroke-width="0.467647"/>
</svg>
