<svg width="26" height="27" viewBox="0 0 26 27" fill="none" xmlns="http://www.w3.org/2000/svg">
<path d="M6.1863 3.09861C7.68277 1.41508 11.0187 0.94224 12.4995 0.91626C13.9025 0.91626 17.0513 1.19685 18.423 2.3192C20.1377 3.72214 20.2936 3.87803 21.9304 4.9692C23.5671 6.06038 24.7363 7.69714 25.4377 11.5942C26.1392 15.4913 23.9568 16.4266 23.801 18.1413C23.6451 19.856 21.8524 22.0383 19.826 23.0516C17.7995 24.0648 18.7348 24.6883 17.6436 24.6883C16.5524 24.6883 16.7083 24.6883 15.3054 25.156C13.9024 25.6236 12.4995 25.7795 11.0965 25.9354C9.69357 26.0913 7.90096 25.4677 6.1863 24.6883C4.47163 23.9089 1.97743 20.4016 1.58772 18.9207C1.19802 17.4398 0.652469 18.453 0.418646 14.7898C0.184822 11.1266 1.43188 6.99567 2.601 6.13832C3.77012 5.28097 4.31571 5.20303 6.1863 3.09861Z" fill="#FF9933" fill-opacity="0.1" stroke="#FF9933" stroke-width="0.467647"/>
</svg>
