<svg width="35" height="35" viewBox="0 0 35 35" fill="none" xmlns="http://www.w3.org/2000/svg">
<path d="M8.72821 3.78871C10.7235 1.544 15.1713 0.913547 17.1459 0.878906C19.0164 0.878906 23.2148 1.25302 25.0438 2.7495C27.3301 4.62008 27.538 4.82793 29.7203 6.28283C31.9027 7.73773 33.4615 9.92009 34.3968 15.1162C35.3321 20.3122 32.4223 21.5593 32.2144 23.8456C32.0066 26.1319 29.6164 29.0417 26.9144 30.3926C24.2125 31.7436 25.4595 32.575 24.0046 32.575C22.5497 32.575 22.7576 32.575 20.887 33.1985C19.0164 33.8221 17.1459 34.0299 15.2752 34.2377C13.4046 34.4456 11.0144 33.6142 8.72821 32.575C6.44199 31.5358 3.11639 26.8593 2.59678 24.8848C2.07717 22.9103 1.34978 24.2613 1.03801 19.377C0.726247 14.4926 2.38899 8.98479 3.94782 7.84165C5.50664 6.69852 6.23409 6.59459 8.72821 3.78871Z" fill="#68DA80" fill-opacity="0.1" stroke="#68DA80" stroke-width="0.62353"/>
</svg>
