<svg width="26" height="27" viewBox="0 0 26 27" fill="none" xmlns="http://www.w3.org/2000/svg">
<path d="M2.44724 6.78195C3.04299 4.60963 5.82412 2.70776 7.14021 2.02836C8.39793 1.40679 11.3451 0.263269 13.0721 0.661711C15.2309 1.15976 15.4397 1.23045 17.3905 1.48354C19.3412 1.73662 21.1145 2.68602 23.4698 5.869C25.8251 9.05197 24.283 10.8574 24.9029 12.4637C25.5228 14.07 24.8825 16.8207 23.5147 18.627C22.1469 20.4332 23.2616 20.5778 22.2833 21.0612C21.3051 21.5447 21.4449 21.4756 20.3943 22.5164C19.3437 23.5573 18.1551 24.3186 16.9664 25.0799C15.7777 25.8413 13.8944 26.0765 12.0119 26.1374C10.1294 26.1983 6.33954 24.159 5.33411 23.004C4.32868 21.8491 4.28848 22.9991 2.45598 19.8186C0.623473 16.6381 -0.0886032 12.3822 0.579684 11.0956C1.24797 9.80895 1.70256 9.49735 2.44724 6.78195Z" fill="#00B0F0" fill-opacity="0.1" stroke="#00B0F0" stroke-width="0.467647"/>
</svg>
