<svg width="65" height="64" viewBox="0 0 65 64" fill="none" xmlns="http://www.w3.org/2000/svg">
<path d="M15.843 6.40037C19.5461 2.23437 27.8009 1.06429 31.4655 1C34.9371 1 42.729 1.69433 46.1235 4.47167C50.3666 7.94333 50.7524 8.32907 54.8027 11.0293C58.8529 13.7294 61.746 17.7797 63.4818 27.4232C65.2177 37.0668 59.8173 39.3812 59.4316 43.6244C59.0458 47.8675 54.6098 53.2679 49.5952 55.7752C44.5805 58.2825 46.895 59.8255 44.1948 59.8255C41.4946 59.8255 41.8804 59.8255 38.4087 60.9827C34.937 62.1399 31.4655 62.5257 27.9937 62.9114C24.5219 63.2971 20.086 61.7542 15.843 59.8255C11.5999 57.8968 5.42785 49.2176 4.4635 45.5531C3.49915 41.8885 2.14916 44.3958 1.57055 35.3309C0.991936 26.266 4.07786 16.0439 6.97092 13.9223C9.86397 11.8007 11.2141 11.6079 15.843 6.40037Z" fill="#00B0F0" fill-opacity="0.1" stroke="#00B0F0" stroke-width="1.15722"/>
</svg>
