<svg width="35" height="35" viewBox="0 0 35 35" fill="none" xmlns="http://www.w3.org/2000/svg">
<path d="M8.1366 3.90981C10.1319 1.6651 14.5797 1.03464 16.5542 1C18.4248 1 22.6232 1.37412 24.4522 2.87059C26.7385 4.74118 26.9464 4.94902 29.1287 6.40392C31.3111 7.85883 32.8699 10.0412 33.8052 15.2373C34.7405 20.4333 31.8307 21.6804 31.6228 23.9667C31.415 26.253 29.0248 29.1628 26.3228 30.5137C23.6209 31.8647 24.8679 32.6961 23.413 32.6961C21.9581 32.6961 22.166 32.6961 20.2954 33.3196C18.4248 33.9431 16.5542 34.151 14.6836 34.3588C12.813 34.5667 10.4228 33.7353 8.1366 32.6961C5.85038 31.6569 2.52477 26.9804 2.00517 25.0059C1.48556 23.0314 0.758163 24.3824 0.446398 19.498C0.134633 14.6137 1.79738 9.10589 3.3562 7.96275C4.91503 6.81961 5.64248 6.71569 8.1366 3.90981Z" fill="#00B0F0" fill-opacity="0.1" stroke="#00B0F0" stroke-width="0.62353"/>
</svg>
