<svg width="42" height="41" viewBox="0 0 42 41" fill="none" xmlns="http://www.w3.org/2000/svg">
<path d="M10.4816 3.9921C12.8446 1.3337 18.1122 0.587045 20.4506 0.546021C22.6659 0.546021 27.6381 0.989088 29.8042 2.76136C32.5118 4.97669 32.758 5.22284 35.3426 6.94588C37.9271 8.66892 39.7732 11.2535 40.8809 17.4072C41.9886 23.5609 38.5425 25.0378 38.2963 27.7454C38.0502 30.4531 35.2195 33.8992 32.0195 35.4991C28.8196 37.0991 30.2965 38.0837 28.5735 38.0837C26.8504 38.0837 27.0966 38.0837 24.8812 38.8221C22.6659 39.5606 20.4506 39.8067 18.2352 40.0529C16.0198 40.299 13.1892 39.3144 10.4816 38.0837C7.77405 36.8529 3.83554 31.3146 3.22017 28.9762C2.6048 26.6378 1.74334 28.2377 1.37412 22.4532C1.0049 16.6688 2.97408 10.1458 4.8202 8.792C6.66631 7.43818 7.52783 7.31511 10.4816 3.9921Z" fill="#00B0F0" fill-opacity="0.1" stroke="#00B0F0" stroke-width="0.738446"/>
</svg>
