<svg width="35" height="35" viewBox="0 0 35 35" fill="none" xmlns="http://www.w3.org/2000/svg">
<path d="M27.8286 5.08886C30.6121 6.22863 32.6893 10.214 33.3799 12.0643C34.0031 13.8279 35.049 17.91 34.2459 20.1288C33.2421 22.9024 33.1152 23.167 32.4692 25.7053C31.8231 28.2435 30.2827 30.4342 25.6899 33.0325C21.0972 35.6308 18.9506 33.2992 16.7234 33.8585C14.4962 34.4178 10.9533 33.1254 8.77788 31.0241C6.60243 28.9228 6.23325 30.3733 5.74847 29.0015C5.26369 27.6297 5.33295 27.8257 4.12114 26.268C2.90932 24.7103 2.08988 23.0153 1.27039 21.3202C0.450911 19.6251 0.439211 17.0969 0.65831 14.5981C0.877411 12.0992 4.18325 7.41882 5.87379 6.27665C7.56432 5.13448 6.04681 4.89493 10.553 2.98751C15.0593 1.08009 20.812 0.828364 22.4103 1.92049C24.0087 3.01261 24.3492 3.66416 27.8286 5.08886Z" fill="#68DA80" fill-opacity="0.1" stroke="#68DA80" stroke-width="0.62353"/>
</svg>
