<svg width="2" height="3" viewBox="0 0 2 3" fill="none" xmlns="http://www.w3.org/2000/svg">
<path fill-rule="evenodd" clip-rule="evenodd" d="M0.36687 1.02761C0.0585269 1.39588 0.150118 1.84668 0.233115 2.0276L0.236014 2.03392L0.239671 2.03983C0.354621 2.22575 0.552192 2.29756 0.715305 2.29739C0.796774 2.2973 0.87879 2.27947 0.944239 2.24062C1.01039 2.20134 1.07156 2.13129 1.06913 2.03243C1.06829 1.99811 1.0664 1.96598 1.06461 1.93545C1.05581 1.78574 1.04928 1.6747 1.17979 1.53381C1.29644 1.4079 1.35429 1.25042 1.36218 1.10854C1.36969 0.973442 1.33165 0.820901 1.21423 0.742464C1.12749 0.684514 1.0053 0.636194 0.850957 0.672659C0.702283 0.707787 0.542914 0.817352 0.36687 1.02761ZM0.434438 1.92745C0.372109 1.78536 0.311503 1.44374 0.539145 1.17185C0.700298 0.979378 0.820903 0.910633 0.902621 0.891325C0.978676 0.873356 1.0373 0.894477 1.08942 0.929298C1.11088 0.943632 1.14338 0.996341 1.13784 1.09607C1.13267 1.18902 1.09386 1.29595 1.01496 1.38112C0.814856 1.59714 0.829502 1.80743 0.840377 1.96358C0.842159 1.98915 0.843839 2.01328 0.844457 2.03573C0.842811 2.03793 0.838737 2.04195 0.829528 2.04742C0.806965 2.06081 0.767051 2.07264 0.715064 2.0727C0.613181 2.07281 0.500078 2.02854 0.434438 1.92745ZM0.845412 2.03382C0.845296 2.0338 0.844951 2.0343 0.844722 2.03537C0.845414 2.03437 0.845528 2.03383 0.845412 2.03382Z" fill="#E9EDED"/>
</svg>
