<svg width="26" height="27" viewBox="0 0 26 27" fill="none" xmlns="http://www.w3.org/2000/svg">
<path d="M1.74783 8.36404C2.03156 6.13127 4.51862 3.85944 5.72669 3.00262C6.88508 2.21121 9.64368 0.666346 11.4109 0.818232C13.62 1.00809 13.8369 1.04873 15.8053 1.02541C17.7737 1.00209 19.6645 1.69258 22.4472 4.51119C25.2299 7.32979 23.9567 9.33233 24.7975 10.8346C25.6384 12.3368 25.3921 15.1481 24.2918 17.127C23.1914 19.1059 24.3162 19.0925 23.4153 19.7081C22.5143 20.3236 22.643 20.2357 21.749 21.4128C20.855 22.59 19.7848 23.51 18.7145 24.43C17.6442 25.35 15.8115 25.8469 13.955 26.1714C12.0985 26.4958 8.05597 25.0099 6.89688 24.0083C5.73778 23.0067 5.86023 24.1502 3.5959 21.2606C1.33158 18.3711 0.0255964 14.2604 0.506169 12.8937C0.986741 11.5271 1.39316 11.155 1.74783 8.36404Z" fill="#68DA80" fill-opacity="0.1" stroke="#68DA80" stroke-width="0.467647"/>
</svg>
