<svg width="35" height="35" viewBox="0 0 35 35" fill="none" xmlns="http://www.w3.org/2000/svg">
<path d="M8.22382 3.75282C10.2191 1.50812 14.667 0.877658 16.6415 0.843018C18.512 0.843018 22.7104 1.21714 24.5395 2.71361C26.8257 4.5842 27.0336 4.79204 29.2159 6.24694C31.3983 7.70184 32.9571 9.8842 33.8924 15.0803C34.8277 20.2764 31.9179 21.5234 31.71 23.8097C31.5022 26.096 29.112 29.0058 26.41 30.3568C23.7081 31.7077 24.9551 32.5391 23.5002 32.5391C22.0453 32.5391 22.2532 32.5391 20.3826 33.1626C18.512 33.7862 16.6415 33.994 14.7708 34.2019C12.9002 34.4097 10.51 33.5783 8.22382 32.5391C5.9376 31.4999 2.61199 26.8234 2.09239 24.8489C1.57278 22.8744 0.845382 24.2254 0.533617 19.3411C0.221852 14.4567 1.8846 8.9489 3.44342 7.80577C5.00225 6.66263 5.7297 6.55871 8.22382 3.75282Z" fill="#68DA80" fill-opacity="0.1" stroke="#68DA80" stroke-width="0.62353"/>
</svg>
