<svg width="27" height="26" viewBox="0 0 27 26" fill="none" xmlns="http://www.w3.org/2000/svg">
<path d="M6.67555 2.51609C8.17202 0.832564 11.5079 0.359721 12.9888 0.33374C14.3917 0.33374 17.5405 0.614329 18.9123 1.73668C20.627 3.13962 20.7829 3.29551 22.4196 4.38668C24.0564 5.47786 25.2255 7.11463 25.927 11.0117C26.6285 14.9087 24.4461 15.844 24.2902 17.5587C24.1343 19.2735 22.3417 21.4558 20.3152 22.469C18.2888 23.4823 19.224 24.1058 18.1329 24.1058C17.0417 24.1058 17.1976 24.1058 15.7946 24.5735C14.3917 25.0411 12.9888 25.197 11.5858 25.3529C10.1828 25.5088 8.39022 24.8852 6.67555 24.1058C4.96089 23.3264 2.46669 19.819 2.07698 18.3382C1.68727 16.8573 1.14173 17.8705 0.907903 14.2073C0.67408 10.544 1.92114 6.41315 3.09026 5.5558C4.25938 4.69845 4.80496 4.62051 6.67555 2.51609Z" fill="#68DA80" fill-opacity="0.1" stroke="#68DA80" stroke-width="0.467647"/>
</svg>
