<svg width="26" height="26" viewBox="0 0 26 26" fill="none" xmlns="http://www.w3.org/2000/svg">
<path d="M6.33034 2.82579C7.82681 1.14226 11.1627 0.669413 12.6436 0.643433C14.0465 0.643433 17.1953 0.924021 18.5671 2.04637C20.2818 3.44932 20.4377 3.6052 22.0744 4.69638C23.7112 5.78755 24.8803 7.42432 25.5818 11.3214C26.2832 15.2184 24.1009 16.1537 23.945 17.8684C23.7891 19.5831 21.9965 21.7655 19.97 22.7787C17.9435 23.792 18.8788 24.4155 17.7877 24.4155C16.6965 24.4155 16.8524 24.4155 15.4494 24.8831C14.0465 25.3508 12.6436 25.5067 11.2406 25.6626C9.83761 25.8184 8.045 25.1949 6.33034 24.4155C4.61567 23.6361 2.12147 20.1287 1.73176 18.6479C1.34206 17.167 0.796512 18.1802 0.562689 14.517C0.328865 10.8537 1.57592 6.72285 2.74504 5.86549C3.91416 5.00814 4.45975 4.9302 6.33034 2.82579Z" fill="#68DA80" fill-opacity="0.1" stroke="#68DA80" stroke-width="0.467647"/>
</svg>
