<svg width="35" height="35" viewBox="0 0 35 35" fill="none" xmlns="http://www.w3.org/2000/svg">
<path d="M8.58185 4.13148C10.5771 1.88678 15.025 1.25632 16.9995 1.22168C18.8701 1.22168 23.0685 1.5958 24.8975 3.09227C27.1838 4.96286 27.3916 5.1707 29.574 6.6256C31.7563 8.08051 33.3151 10.2629 34.2504 15.4589C35.1857 20.655 32.2759 21.9021 32.0681 24.1884C31.8602 26.4746 29.47 29.3844 26.7681 30.7354C24.0661 32.0864 25.3132 32.9178 23.8583 32.9178C22.4034 32.9178 22.6112 32.9178 20.7406 33.5413C18.87 34.1648 16.9995 34.3727 15.1289 34.5805C13.2582 34.7884 10.8681 33.957 8.58185 32.9178C6.29563 31.8786 2.97003 27.2021 2.45042 25.2276C1.93081 23.2531 1.20341 24.604 0.89165 19.7197C0.579885 14.8354 2.24263 9.32757 3.80145 8.18443C5.36028 7.04129 6.08773 6.93737 8.58185 4.13148Z" fill="#FF9933" fill-opacity="0.1" stroke="#FF9933" stroke-width="0.62353"/>
</svg>
