<svg width="26" height="26" viewBox="0 0 26 26" fill="none" xmlns="http://www.w3.org/2000/svg">
<path d="M6.04616 2.68235C7.54263 0.998824 10.8785 0.52598 12.3594 0.5C13.7623 0.5 16.9111 0.780588 18.2829 1.90294C19.9976 3.30588 20.1535 3.46177 21.7902 4.55294C23.427 5.64412 24.5961 7.28089 25.2976 11.1779C25.9991 15.075 23.8167 16.0103 23.6608 17.725C23.5049 19.4397 21.7123 21.6221 19.6858 22.6353C17.6594 23.6485 18.5947 24.2721 17.5035 24.2721C16.4123 24.2721 16.5682 24.2721 15.1652 24.7397C13.7623 25.2074 12.3594 25.3632 10.9564 25.5191C9.55343 25.675 7.76082 25.0515 6.04616 24.2721C4.33149 23.4927 1.83729 19.9853 1.44758 18.5044C1.05788 17.0235 0.512332 18.0368 0.278509 14.3735C0.0446852 10.7103 1.29174 6.57941 2.46086 5.72206C3.62998 4.86471 4.17557 4.78677 6.04616 2.68235Z" fill="#00B0F0" fill-opacity="0.1" stroke="#00B0F0" stroke-width="0.467647"/>
</svg>
