<svg width="2" height="2" viewBox="0 0 2 2" fill="none" xmlns="http://www.w3.org/2000/svg">
<path fill-rule="evenodd" clip-rule="evenodd" d="M1.03996 0.412319C0.768629 0.326217 0.542125 0.477949 0.461633 0.564193L0.45882 0.567206L0.456401 0.570543C0.380365 0.67543 0.385492 0.799913 0.422321 0.889294C0.440716 0.933937 0.468958 0.974885 0.505001 1.00201C0.541428 1.02943 0.593607 1.04719 0.647257 1.0236C0.665883 1.01541 0.683073 1.00714 0.699402 0.999278C0.779497 0.960736 0.838896 0.932152 0.945527 0.971972C1.04083 1.00756 1.14018 1.00381 1.21974 0.976187C1.2955 0.94988 1.37055 0.894672 1.38711 0.812639C1.39934 0.752032 1.39832 0.674164 1.34357 0.597766C1.29083 0.524171 1.19487 0.461478 1.03996 0.412319ZM0.561875 0.652007C0.625731 0.585839 0.799366 0.475679 0.999683 0.539246C1.14149 0.584246 1.20634 0.634882 1.23533 0.675333C1.26231 0.712981 1.26393 0.749875 1.25658 0.786293C1.25355 0.801285 1.23198 0.830973 1.17606 0.850391C1.12394 0.86849 1.05657 0.871295 0.992114 0.847223C0.828627 0.78617 0.71664 0.841558 0.633487 0.882685C0.619867 0.889422 0.607021 0.895775 0.594849 0.901172C0.593273 0.900765 0.590153 0.899436 0.585081 0.895619C0.572656 0.886266 0.557181 0.867049 0.545443 0.838562C0.522439 0.782733 0.521236 0.710759 0.561875 0.652007ZM0.596114 0.901264C0.596096 0.901197 0.595744 0.90112 0.59511 0.901234C0.595814 0.901388 0.596131 0.901331 0.596114 0.901264Z" fill="#E9EDED"/>
</svg>
