<svg width="27" height="26" viewBox="0 0 27 26" fill="none" xmlns="http://www.w3.org/2000/svg">
<path d="M6.13872 2.83363C7.55873 1.08574 10.8703 0.466183 12.3486 0.374889C13.7501 0.312989 16.9084 0.454368 18.3288 1.51508C20.1043 2.84097 20.267 2.98982 21.9508 4.0077C23.6346 5.02558 24.8755 6.60913 25.7499 10.4714C26.6243 14.3336 24.4857 15.3643 24.4064 17.0842C24.3271 18.804 22.6334 21.0633 20.654 22.165C18.6747 23.2666 19.6368 23.8482 18.5467 23.8964C17.4566 23.9445 17.6123 23.9377 16.2316 24.4667C14.8509 24.9958 13.4563 25.2134 12.0616 25.4311C10.6669 25.6487 8.84829 25.1049 7.10057 24.4019C5.35285 23.6989 2.70482 20.3051 2.24952 18.8429C1.79422 17.3807 1.29434 18.417 0.897545 14.7677C0.500746 11.1184 1.56255 6.93659 2.69234 6.02851C3.82212 5.12042 4.36371 5.01849 6.13872 2.83363Z" fill="#68DA80" fill-opacity="0.1" stroke="#68DA80" stroke-width="0.467647"/>
</svg>
