<svg width="26" height="26" viewBox="0 0 26 26" fill="none" xmlns="http://www.w3.org/2000/svg">
<path d="M6.04323 2.54576C7.5397 0.862227 10.8756 0.389384 12.3565 0.363403C13.7594 0.363403 16.9082 0.643992 18.28 1.76635C19.9947 3.16929 20.1505 3.32517 21.7873 4.41635C23.4241 5.50752 24.5932 7.14429 25.2947 11.0413C25.9961 14.9384 23.8138 15.8737 23.6579 17.5884C23.502 19.3031 21.7094 21.4855 19.6829 22.4987C17.6564 23.5119 18.5917 24.1355 17.5005 24.1355C16.4094 24.1355 16.5653 24.1355 15.1623 24.6031C13.7594 25.0708 12.3565 25.2266 10.9535 25.3825C9.5505 25.5384 7.75789 24.9149 6.04323 24.1355C4.32856 23.3561 1.83436 19.8487 1.44466 18.3678C1.05495 16.8869 0.509403 17.9002 0.275579 14.2369C0.0417556 10.5737 1.28881 6.44282 2.45793 5.58546C3.62705 4.72811 4.17264 4.65017 6.04323 2.54576Z" fill="#68DA80" fill-opacity="0.1" stroke="#68DA80" stroke-width="0.467647"/>
</svg>
