<svg width="27" height="27" viewBox="0 0 27 27" fill="none" xmlns="http://www.w3.org/2000/svg">
<path d="M6.85231 2.93235C8.34878 1.24882 11.6847 0.77598 13.1655 0.75C14.5685 0.75 17.7173 1.03059 19.089 2.15294C20.8037 3.55588 20.9596 3.71177 22.5964 4.80294C24.2332 5.89412 25.4023 7.53089 26.1037 11.4279C26.8052 15.325 24.6229 16.2603 24.467 17.975C24.3111 19.6897 22.5185 21.8721 20.492 22.8853C18.4655 23.8985 19.4008 24.5221 18.3096 24.5221C17.2184 24.5221 17.3743 24.5221 15.9714 24.9897C14.5684 25.4574 13.1655 25.6132 11.7626 25.7691C10.3596 25.925 8.56698 25.3015 6.85231 24.5221C5.13765 23.7427 2.64344 20.2353 2.25374 18.7544C1.86403 17.2735 1.31848 18.2868 1.08466 14.6235C0.850838 10.9603 2.0979 6.82941 3.26701 5.97206C4.43613 5.11471 4.98172 5.03677 6.85231 2.93235Z" fill="#00B0F0" fill-opacity="0.1" stroke="#00B0F0" stroke-width="0.467647"/>
</svg>
