<svg width="27" height="26" viewBox="0 0 27 26" fill="none" xmlns="http://www.w3.org/2000/svg">
<path d="M6.9363 2.72361C8.43277 1.04008 11.7687 0.56724 13.2495 0.54126C14.6525 0.54126 17.8013 0.821848 19.173 1.9442C20.8877 3.34714 21.0436 3.50303 22.6804 4.5942C24.3171 5.68538 25.4863 7.32214 26.1877 11.2192C26.8892 15.1163 24.7068 16.0516 24.551 17.7663C24.3951 19.481 22.6024 21.6633 20.576 22.6766C18.5495 23.6898 19.4848 24.3133 18.3936 24.3133C17.3024 24.3133 17.4583 24.3133 16.0554 24.781C14.6524 25.2486 13.2495 25.4045 11.8465 25.5604C10.4436 25.7163 8.65096 25.0927 6.9363 24.3133C5.22163 23.5339 2.72743 20.0266 2.33772 18.5457C1.94802 17.0648 1.40247 18.078 1.16865 14.4148C0.934822 10.7516 2.18188 6.62067 3.351 5.76332C4.52012 4.90597 5.06571 4.82803 6.9363 2.72361Z" fill="#68DA80" fill-opacity="0.1" stroke="#68DA80" stroke-width="0.467647"/>
</svg>
