<svg width="26" height="27" viewBox="0 0 26 27" fill="none" xmlns="http://www.w3.org/2000/svg">
<path d="M6.29616 2.93235C7.79263 1.24882 11.1285 0.77598 12.6094 0.75C14.0123 0.75 17.1611 1.03059 18.5329 2.15294C20.2476 3.55588 20.4035 3.71177 22.0402 4.80294C23.677 5.89412 24.8461 7.53089 25.5476 11.4279C26.2491 15.325 24.0667 16.2603 23.9108 17.975C23.7549 19.6897 21.9623 21.8721 19.9358 22.8853C17.9094 23.8985 18.8447 24.5221 17.7535 24.5221C16.6623 24.5221 16.8182 24.5221 15.4152 24.9897C14.0123 25.4574 12.6094 25.6132 11.2064 25.7691C9.80343 25.925 8.01082 25.3015 6.29616 24.5221C4.58149 23.7427 2.08729 20.2353 1.69758 18.7544C1.30788 17.2735 0.762332 18.2868 0.528509 14.6235C0.294685 10.9603 1.54174 6.82941 2.71086 5.97206C3.87998 5.11471 4.42557 5.03677 6.29616 2.93235Z" fill="#68DA80" fill-opacity="0.1" stroke="#68DA80" stroke-width="0.467647"/>
</svg>
