<svg width="27" height="26" viewBox="0 0 27 26" fill="none" xmlns="http://www.w3.org/2000/svg">
<path d="M6.66823 2.56468C8.1647 0.881148 11.5006 0.408305 12.9815 0.382324C14.3844 0.382324 17.5332 0.662913 18.905 1.78527C20.6197 3.18821 20.7755 3.34409 22.4123 4.43527C24.0491 5.52644 25.2182 7.16321 25.9197 11.0603C26.6211 14.9573 24.4388 15.8926 24.2829 17.6073C24.127 19.322 22.3344 21.5044 20.3079 22.5176C18.2814 23.5309 19.2167 24.1544 18.1255 24.1544C17.0344 24.1544 17.1903 24.1544 15.7873 24.622C14.3844 25.0897 12.9815 25.2456 11.5785 25.4015C10.1755 25.5573 8.38289 24.9338 6.66823 24.1544C4.95356 23.375 2.45936 19.8676 2.06966 18.3867C1.67995 16.9059 1.1344 17.9191 0.900579 14.2559C0.666756 10.5926 1.91381 6.46174 3.08293 5.60439C4.25205 4.74703 4.79764 4.66909 6.66823 2.56468Z" fill="#FF9933" fill-opacity="0.1" stroke="#FF9933" stroke-width="0.467647"/>
</svg>
