<svg width="35" height="35" viewBox="0 0 35 35" fill="none" xmlns="http://www.w3.org/2000/svg">
<path d="M24.8178 2.92199C27.7956 3.36084 30.7715 6.7298 31.8872 8.35942C32.9167 9.9212 34.9141 13.631 34.6676 15.9762C34.3596 18.9076 34.2999 19.1947 34.2827 21.8121C34.2656 24.4296 33.2961 26.924 29.4598 30.5453C25.6236 34.1667 22.9779 32.4189 20.949 33.4952C18.9202 34.5714 15.1681 34.1664 12.5498 32.649C9.93146 31.1316 9.92164 32.6273 9.12091 31.4125C8.32017 30.1978 8.43456 30.3713 6.88293 29.1504C5.33129 27.9295 4.12776 26.4813 2.92418 25.0331C1.72059 23.5849 1.10129 21.1348 0.713222 18.6579C0.325158 16.181 2.41075 10.848 3.77815 9.33485C5.14556 7.82166 3.61396 7.95285 7.53232 5.02255C11.4507 2.09226 16.9779 0.469667 18.793 1.14627C20.6082 1.82287 21.0956 2.37343 24.8178 2.92199Z" fill="#68DA80" fill-opacity="0.1" stroke="#68DA80" stroke-width="0.62353"/>
</svg>
