<svg width="26" height="27" viewBox="0 0 26 27" fill="none" xmlns="http://www.w3.org/2000/svg">
<path d="M6.16823 3.18956C7.6647 1.50603 11.0006 1.03318 12.4815 1.0072C13.8844 1.0072 17.0332 1.28779 18.405 2.41014C20.1197 3.81309 20.2755 3.96897 21.9123 5.06014C23.5491 6.15132 24.7182 7.78809 25.4197 11.6851C26.1211 15.5822 23.9388 16.5175 23.7829 18.2322C23.627 19.9469 21.8344 22.1293 19.8079 23.1425C17.7814 24.1557 18.7167 24.7793 17.6255 24.7793C16.5344 24.7793 16.6903 24.7793 15.2873 25.2469C13.8844 25.7146 12.4815 25.8704 11.0785 26.0263C9.6755 26.1822 7.88289 25.5587 6.16823 24.7793C4.45356 23.9999 1.95936 20.4925 1.56966 19.0116C1.17995 17.5307 0.634403 18.544 0.400579 14.8807C0.166756 11.2175 1.41381 7.08662 2.58293 6.22926C3.75205 5.37191 4.29764 5.29397 6.16823 3.18956Z" fill="#FF9933" fill-opacity="0.1" stroke="#FF9933" stroke-width="0.467647"/>
</svg>
