<svg width="3" height="3" viewBox="0 0 3 3" fill="none" xmlns="http://www.w3.org/2000/svg">
<path fill-rule="evenodd" clip-rule="evenodd" d="M1.72256 0.453246C2.42729 0.55471 2.77218 1.14295 2.85956 1.42477L2.86261 1.43462L2.86442 1.44477C2.92147 1.76373 2.77443 2.03846 2.5942 2.19965C2.50418 2.28015 2.39601 2.34162 2.28532 2.36348C2.17344 2.38557 2.03661 2.36876 1.94148 2.25723C1.90845 2.21851 1.87875 2.18118 1.85053 2.1457C1.71212 1.97173 1.60948 1.8427 1.32601 1.8163C1.07268 1.79271 0.853019 1.67611 0.703939 1.5273C0.56198 1.3856 0.453056 1.17958 0.505066 0.976826C0.543493 0.82703 0.630568 0.652802 0.837016 0.540359C1.03589 0.432043 1.32021 0.395317 1.72256 0.453246ZM2.53824 1.5134C2.46647 1.29489 2.19538 0.857819 1.6751 0.782911C1.30678 0.729882 1.10563 0.773318 0.996325 0.832853C0.894592 0.888263 0.850774 0.969578 0.827685 1.05959C0.81818 1.09664 0.83445 1.18698 0.939238 1.29158C1.0369 1.38907 1.18554 1.46871 1.3569 1.48467C1.79151 1.52515 1.98339 1.77178 2.12588 1.95491C2.14921 1.9849 2.17122 2.01319 2.19276 2.03859C2.19675 2.03939 2.20522 2.0398 2.2208 2.03672C2.25896 2.02919 2.31473 2.00276 2.37217 1.95138C2.48474 1.85071 2.5658 1.68994 2.53824 1.5134ZM2.18981 2.03742C2.18992 2.03729 2.1908 2.0375 2.1921 2.03845C2.19035 2.03803 2.1897 2.03756 2.18981 2.03742Z" fill="#E9EDED"/>
</svg>
