<svg width="4" height="3" viewBox="0 0 4 3" fill="none" xmlns="http://www.w3.org/2000/svg">
<path fill-rule="evenodd" clip-rule="evenodd" d="M1.65704 0.531248C0.975234 0.780233 0.754483 1.43941 0.726401 1.7389L0.725419 1.74936L0.725736 1.75986C0.735695 2.09004 0.940003 2.3333 1.15361 2.45632C1.26029 2.51776 1.3811 2.55641 1.49612 2.555C1.61236 2.55358 1.74535 2.50813 1.81687 2.37692C1.8417 2.33136 1.86351 2.28788 1.88423 2.24658C1.98583 2.04399 2.06118 1.89374 2.33845 1.80797C2.58625 1.73132 2.78094 1.56894 2.89848 1.38922C3.01039 1.21808 3.07586 0.989704 2.98147 0.798333C2.91172 0.656944 2.78832 0.50138 2.55878 0.432486C2.33766 0.36612 2.0463 0.389093 1.65704 0.531248ZM1.06555 1.75995C1.09134 1.5269 1.27015 1.03401 1.77351 0.85019C2.12985 0.72006 2.33963 0.72122 2.46117 0.757698C2.57428 0.791648 2.63505 0.863585 2.67695 0.948542C2.6942 0.983516 2.69691 1.07706 2.6143 1.20338C2.53731 1.32112 2.40571 1.43174 2.2381 1.48359C1.813 1.6151 1.67327 1.90138 1.56952 2.11396C1.55252 2.14878 1.5365 2.18162 1.52034 2.21147C1.51652 2.21311 1.50815 2.21529 1.49197 2.21548C1.45232 2.21597 1.39114 2.20129 1.32306 2.16208C1.18964 2.08525 1.07507 1.94185 1.06555 1.75995ZM1.52303 2.20969C1.52289 2.20958 1.52206 2.20997 1.52096 2.21119C1.52262 2.21041 1.52317 2.2098 1.52303 2.20969Z" fill="#E9EDED"/>
</svg>
