<svg width="49" height="48" viewBox="0 0 49 48" fill="none" xmlns="http://www.w3.org/2000/svg">
<path d="M11.8822 4.55028C14.6595 1.42578 20.8507 0.548218 23.5991 0.5C26.2028 0.5 32.0467 1.02075 34.5926 3.10375C37.775 5.7075 38.0643 5.99681 41.102 8.02194C44.1397 10.0471 46.3095 13.0848 47.6114 20.3174C48.9132 27.5501 44.863 29.2859 44.5737 32.4683C44.2844 35.6506 40.9573 39.7009 37.1964 41.5814C33.4354 43.4619 35.1712 44.6191 33.1461 44.6191C31.121 44.6191 31.4103 44.6191 28.8065 45.487C26.2028 46.3549 23.5991 46.6442 20.9953 46.9335C18.3914 47.2229 15.0645 46.0656 11.8822 44.6191C8.69993 43.1726 4.07089 36.6632 3.34762 33.9148C2.62436 31.1664 1.61187 33.0469 1.17791 26.2482C0.743952 19.4495 3.0584 11.7829 5.22819 10.1917C7.39798 8.60056 8.41055 8.4559 11.8822 4.55028Z" fill="#FF9933" fill-opacity="0.1" stroke="#FF9933" stroke-width="0.867917"/>
</svg>
