<svg width="27" height="26" viewBox="0 0 27 26" fill="none" xmlns="http://www.w3.org/2000/svg">
<path d="M6.13872 3.08363C7.55873 1.33574 10.8703 0.716183 12.3486 0.624889C13.7501 0.562989 16.9084 0.704368 18.3288 1.76508C20.1043 3.09097 20.267 3.23982 21.9508 4.2577C23.6346 5.27558 24.8755 6.85913 25.7499 10.7214C26.6243 14.5836 24.4857 15.6143 24.4064 17.3342C24.3271 19.054 22.6334 21.3133 20.654 22.415C18.6747 23.5166 19.6368 24.0982 18.5467 24.1464C17.4566 24.1945 17.6123 24.1877 16.2316 24.7167C14.8509 25.2458 13.4563 25.4634 12.0616 25.6811C10.6669 25.8987 8.84829 25.3549 7.10057 24.6519C5.35285 23.9489 2.70482 20.5551 2.24952 19.0929C1.79422 17.6307 1.29434 18.667 0.897545 15.0177C0.500746 11.3684 1.56255 7.18659 2.69234 6.27851C3.82212 5.37042 4.36371 5.26849 6.13872 3.08363Z" fill="#68DA80" fill-opacity="0.1" stroke="#68DA80" stroke-width="0.467647"/>
</svg>
