<svg width="35" height="35" viewBox="0 0 35 35" fill="none" xmlns="http://www.w3.org/2000/svg">
<path d="M8.58191 3.63148C10.5772 1.38678 15.025 0.75632 16.9996 0.72168C18.8701 0.72168 23.0685 1.0958 24.8975 2.59227C27.1838 4.46286 27.3917 4.6707 29.574 6.1256C31.7564 7.58051 33.3152 9.76286 34.2505 14.9589C35.1858 20.155 32.276 21.4021 32.0681 23.6884C31.8603 25.9746 29.4701 28.8844 26.7681 30.2354C24.0662 31.5864 25.3132 32.4178 23.8583 32.4178C22.4034 32.4178 22.6113 32.4178 20.7407 33.0413C18.8701 33.6648 16.9996 33.8727 15.1289 34.0805C13.2583 34.2884 10.8681 33.457 8.58191 32.4178C6.29569 31.3786 2.97009 26.7021 2.45048 24.7276C1.93087 22.7531 1.20348 24.104 0.891711 19.2197C0.579946 14.3354 2.24269 8.82757 3.80152 7.68443C5.36034 6.54129 6.08779 6.43737 8.58191 3.63148Z" fill="#68DA80" fill-opacity="0.1" stroke="#68DA80" stroke-width="0.62353"/>
</svg>
