<svg width="35" height="35" viewBox="0 0 35 35" fill="none" xmlns="http://www.w3.org/2000/svg">
<path d="M2.99728 10.8187C3.37559 7.8417 6.69168 4.81259 8.30244 3.67016C9.84696 2.61494 13.5251 0.555129 15.8814 0.757645C18.8269 1.01079 19.116 1.06497 21.7406 1.03388C24.3652 1.00279 26.8862 1.92344 30.5964 5.68158C34.3067 9.43972 32.6092 12.1098 33.7302 14.1127C34.8513 16.1157 34.523 19.8641 33.0559 22.5026C31.5887 25.1411 33.0885 25.1234 31.8872 25.9441C30.6859 26.7648 30.8575 26.6476 29.6655 28.2171C28.4736 29.7866 27.0466 31.0133 25.6195 32.24C24.1925 33.4667 21.7489 34.1293 19.2735 34.5618C16.7982 34.9943 11.4081 33.0132 9.86269 31.6777C8.31723 30.3423 8.48049 31.8669 5.46139 28.0142C2.44229 24.1614 0.700978 18.6805 1.34174 16.8583C1.9825 15.0361 2.5244 14.54 2.99728 10.8187Z" fill="#68DA80" fill-opacity="0.1" stroke="#68DA80" stroke-width="0.62353"/>
</svg>
