<svg width="26" height="26" viewBox="0 0 26 26" fill="none" xmlns="http://www.w3.org/2000/svg">
<path d="M6.29616 2.43235C7.79263 0.748824 11.1285 0.27598 12.6094 0.25C14.0123 0.25 17.1611 0.530588 18.5329 1.65294C20.2476 3.05588 20.4035 3.21177 22.0402 4.30294C23.677 5.39412 24.8461 7.03089 25.5476 10.9279C26.2491 14.825 24.0667 15.7603 23.9108 17.475C23.7549 19.1897 21.9623 21.3721 19.9358 22.3853C17.9094 23.3985 18.8447 24.0221 17.7535 24.0221C16.6623 24.0221 16.8182 24.0221 15.4152 24.4897C14.0123 24.9574 12.6094 25.1132 11.2064 25.2691C9.80343 25.425 8.01082 24.8015 6.29616 24.0221C4.58149 23.2427 2.08729 19.7353 1.69758 18.2544C1.30788 16.7735 0.762332 17.7868 0.528509 14.1235C0.294685 10.4603 1.54174 6.32941 2.71086 5.47206C3.87998 4.61471 4.42557 4.53677 6.29616 2.43235Z" fill="#AA5EA6" fill-opacity="0.1" stroke="#AA5EA6" stroke-width="0.467647"/>
</svg>
