<svg width="3" height="3" viewBox="0 0 3 3" fill="none" xmlns="http://www.w3.org/2000/svg">
<path fill-rule="evenodd" clip-rule="evenodd" d="M1.29162 0.589996C1.82016 0.666094 2.07883 1.10727 2.14436 1.31864L2.14665 1.32603L2.14801 1.33364C2.1908 1.57286 2.08052 1.77891 1.94534 1.8998C1.87783 1.96018 1.7967 2.00628 1.71368 2.02267C1.62978 2.03924 1.52715 2.02663 1.4558 1.94299C1.43103 1.91395 1.40876 1.88594 1.38759 1.85934C1.28379 1.72886 1.2068 1.63209 0.994205 1.61229C0.804202 1.59459 0.639459 1.50715 0.527649 1.39554C0.42118 1.28926 0.339487 1.13474 0.378495 0.982681C0.407314 0.870334 0.472621 0.739663 0.627457 0.65533C0.776611 0.574093 0.989853 0.546549 1.29162 0.589996ZM1.90337 1.38511C1.84955 1.22123 1.64623 0.893426 1.25602 0.837244C0.97978 0.797472 0.82892 0.830049 0.746938 0.874701C0.670639 0.916258 0.637776 0.977244 0.620459 1.04475C0.61333 1.07254 0.625533 1.1403 0.704123 1.21874C0.777373 1.29186 0.888854 1.3516 1.01737 1.36357C1.34333 1.39392 1.48724 1.57889 1.5941 1.71624C1.6116 1.73874 1.62811 1.75995 1.64427 1.77901C1.64726 1.7796 1.65361 1.77991 1.6653 1.7776C1.69392 1.77195 1.73574 1.75213 1.77882 1.7136C1.86325 1.63809 1.92404 1.51752 1.90337 1.38511ZM1.64205 1.77813C1.64214 1.77803 1.6428 1.77819 1.64377 1.7789C1.64246 1.77858 1.64197 1.77823 1.64205 1.77813Z" fill="#E9EDED"/>
</svg>
