<svg width="35" height="35" viewBox="0 0 35 35" fill="none" xmlns="http://www.w3.org/2000/svg">
<path d="M24.9158 31.539C22.724 33.5922 18.2372 33.8141 16.2677 33.6683C14.405 33.4976 10.2582 32.7418 8.57344 31.0847C6.46743 29.0132 6.27943 28.7873 4.23897 27.1392C2.19851 25.4912 0.845378 23.1757 0.388226 17.9159C-0.0689211 12.6561 2.94255 11.6799 3.35819 9.42212C3.77383 7.16436 6.41963 4.48487 9.23361 3.38615C12.0476 2.28744 10.8816 1.3457 12.3305 1.4785C13.7793 1.6113 13.5723 1.59233 15.492 1.14215C17.4117 0.691959 19.2934 0.655718 21.1752 0.619488C23.057 0.583258 25.3613 1.62933 27.5431 2.87288C29.7249 4.11644 32.6098 9.07695 32.9471 11.0906C33.2843 13.1043 34.132 11.8254 33.9966 16.7178C33.8613 21.6102 31.7028 26.9433 30.0462 27.9393C28.3895 28.9354 27.6556 28.9725 24.9158 31.539Z" fill="#00B0F0" fill-opacity="0.1" stroke="#00B0F0" stroke-width="0.62353"/>
</svg>
