<svg width="27" height="27" viewBox="0 0 27 27" fill="none" xmlns="http://www.w3.org/2000/svg">
<path d="M6.46217 3.18235C7.95865 1.49882 11.2945 1.02598 12.7754 1C14.1783 1 17.3271 1.28059 18.6989 2.40294C20.4136 3.80588 20.5695 3.96177 22.2063 5.05294C23.843 6.14412 25.0121 7.78089 25.7136 11.6779C26.4151 15.575 24.2327 16.5103 24.0768 18.225C23.921 19.9397 22.1283 22.1221 20.1018 23.1353C18.0754 24.1485 19.0107 24.7721 17.9195 24.7721C16.8283 24.7721 16.9842 24.7721 15.5813 25.2397C14.1783 25.7074 12.7754 25.8632 11.3724 26.0191C9.96944 26.175 8.17684 25.5515 6.46217 24.7721C4.74751 23.9927 2.25331 20.4853 1.8636 19.0044C1.47389 17.5235 0.928348 18.5368 0.694525 14.8735C0.460701 11.2103 1.70776 7.07941 2.87688 6.22206C4.046 5.36471 4.59159 5.28677 6.46217 3.18235Z" fill="#00B0F0" fill-opacity="0.1" stroke="#00B0F0" stroke-width="0.467647"/>
</svg>
