<svg width="2" height="3" viewBox="0 0 2 3" fill="none" xmlns="http://www.w3.org/2000/svg">
<path fill-rule="evenodd" clip-rule="evenodd" d="M0.779605 0.988535C0.352502 1.09576 0.238422 1.4449 0.23293 1.60651L0.232738 1.61216L0.233381 1.61788C0.253585 1.79773 0.394869 1.93836 0.537086 2.01401C0.608119 2.0518 0.687258 2.07778 0.761006 2.08176C0.835542 2.08578 0.91898 2.06655 0.959388 1.99819C0.973417 1.97446 0.985592 1.95173 0.997157 1.93013C1.05388 1.82422 1.09595 1.74567 1.27029 1.71048C1.42609 1.67903 1.54424 1.5988 1.61214 1.50597C1.6768 1.41758 1.70926 1.29616 1.64068 1.18826C1.59001 1.10855 1.50431 1.01892 1.35413 0.972018C1.20946 0.926838 1.02345 0.927318 0.779605 0.988535ZM0.451447 1.63193C0.458246 1.50633 0.552372 1.24583 0.867691 1.16667C1.09091 1.11063 1.22558 1.11991 1.3051 1.14474C1.3791 1.16785 1.42111 1.20945 1.45155 1.25735C1.46409 1.27707 1.46974 1.32801 1.42201 1.39326C1.37753 1.45408 1.29771 1.50878 1.19232 1.53005C0.925031 1.58401 0.847343 1.73384 0.789658 1.84509C0.780209 1.86331 0.771298 1.8805 0.762177 1.89606C0.759797 1.89679 0.754519 1.89763 0.744142 1.89707C0.718717 1.8957 0.678846 1.8852 0.633518 1.86109C0.544687 1.81383 0.465166 1.73118 0.451447 1.63193ZM0.763833 1.8952C0.763739 1.89513 0.763222 1.89531 0.762566 1.89593C0.763599 1.89557 0.763927 1.89526 0.763833 1.8952Z" fill="white"/>
</svg>
