<svg width="26" height="27" viewBox="0 0 26 27" fill="none" xmlns="http://www.w3.org/2000/svg">
<path d="M2.44675 7.03195C3.0425 4.85963 5.82363 2.95776 7.13973 2.27836C8.39745 1.65679 11.3446 0.513269 13.0716 0.911711C15.2304 1.40976 15.4392 1.48045 17.39 1.73354C19.3407 1.98662 21.114 2.93602 23.4693 6.119C25.8247 9.30197 24.2825 11.1074 24.9024 12.7137C25.5223 14.32 24.8821 17.0707 23.5142 18.877C22.1464 20.6832 23.2611 20.8278 22.2829 21.3112C21.3046 21.7947 21.4444 21.7256 20.3938 22.7664C19.3433 23.8073 18.1546 24.5686 16.9659 25.3299C15.7772 26.0913 13.8939 26.3265 12.0114 26.3874C10.1289 26.4483 6.33905 24.409 5.33362 23.254C4.32819 22.0991 4.288 23.2491 2.45549 20.0686C0.622984 16.8881 -0.0890915 12.6322 0.579195 11.3456C1.24748 10.0589 1.70207 9.74735 2.44675 7.03195Z" fill="#00B0F0" fill-opacity="0.1" stroke="#00B0F0" stroke-width="0.467647"/>
</svg>
