<svg width="60" height="60" viewBox="0 0 60 60" fill="none" xmlns="http://www.w3.org/2000/svg">
<path d="M46.682 26.477L26.818 1.64705C25.9741 0.592157 24.8295 -0.00048048 23.6361 -0.000488281H4.5C2.01469 -0.000488281 0 2.51787 0 5.62451V29.5446C6.24072e-06 31.0364 0.474116 32.4672 1.31803 33.522L21.182 58.352C22.9392 60.5486 25.7885 60.5488 27.5459 58.352L46.682 34.4319C48.4393 32.2352 48.4393 28.6736 46.682 26.477ZM10.5 18.7495C8.01469 18.7495 6 16.2311 6 13.1245C6 10.0179 8.01469 7.49951 10.5 7.49951C12.9853 7.49951 15 10.0179 15 13.1245C15 16.2311 12.9853 18.7495 10.5 18.7495ZM58.682 34.4319L39.5459 58.352C37.7886 60.5486 34.9393 60.5486 33.182 58.352L33.1482 58.3098L49.4663 37.9122C51.0599 35.9202 51.9375 33.2716 51.9375 30.4544C51.9375 27.6372 51.0598 24.9887 49.4663 22.9966L31.0685 -0.000488281H35.6361C36.8295 -0.00048048 37.9741 0.592157 38.818 1.64705L58.682 26.477C60.4393 28.6736 60.4393 32.2352 58.682 34.4319Z" fill="#25474F"/>
</svg>
