<svg width="27" height="26" viewBox="0 0 27 26" fill="none" xmlns="http://www.w3.org/2000/svg">
<path d="M6.66823 2.81468C8.1647 1.13115 11.5006 0.658305 12.9815 0.632324C14.3844 0.632324 17.5332 0.912913 18.905 2.03527C20.6197 3.43821 20.7755 3.59409 22.4123 4.68527C24.0491 5.77644 25.2182 7.41321 25.9197 11.3103C26.6211 15.2073 24.4388 16.1426 24.2829 17.8573C24.127 19.572 22.3344 21.7544 20.3079 22.7676C18.2814 23.7809 19.2167 24.4044 18.1255 24.4044C17.0344 24.4044 17.1903 24.4044 15.7873 24.872C14.3844 25.3397 12.9815 25.4956 11.5785 25.6515C10.1755 25.8073 8.38289 25.1838 6.66823 24.4044C4.95356 23.625 2.45936 20.1176 2.06966 18.6367C1.67995 17.1559 1.1344 18.1691 0.900579 14.5059C0.666756 10.8426 1.91381 6.71174 3.08293 5.85439C4.25205 4.99703 4.79764 4.91909 6.66823 2.81468Z" fill="#68DA80" fill-opacity="0.1" stroke="#68DA80" stroke-width="0.467647"/>
</svg>
