<svg width="26" height="26" viewBox="0 0 26 26" fill="none" xmlns="http://www.w3.org/2000/svg">
<path d="M18.687 23.6543C17.0431 25.1942 13.678 25.3606 12.2009 25.2513C10.8038 25.1232 7.6938 24.5564 6.4302 23.3135C4.8507 21.7599 4.70969 21.5904 3.17935 20.3544C1.64901 19.1184 0.634154 17.3818 0.291293 13.4369C-0.0515705 9.4921 2.20704 8.75991 2.51877 7.06659C2.8305 5.37327 4.81484 3.36365 6.92533 2.53961C9.03582 1.71558 8.16134 1.00928 9.24796 1.10888C10.3346 1.20848 10.1794 1.19425 11.6191 0.856608C13.0589 0.518968 14.4702 0.491789 15.8815 0.464615C17.2929 0.437444 19.0211 1.22199 20.6574 2.15466C22.2938 3.08733 24.4575 6.80771 24.7104 8.31798C24.9633 9.82825 25.5991 8.86904 25.4976 12.5383C25.3961 16.2076 23.7772 20.2074 22.5347 20.9545C21.2923 21.7016 20.7418 21.7294 18.687 23.6543Z" fill="#00B0F0" fill-opacity="0.1" stroke="#00B0F0" stroke-width="0.467647"/>
</svg>
