<svg width="26" height="27" viewBox="0 0 26 27" fill="none" xmlns="http://www.w3.org/2000/svg">
<path d="M6.16823 3.31468C7.6647 1.63115 11.0006 1.1583 12.4815 1.13232C13.8844 1.13232 17.0332 1.41291 18.405 2.53527C20.1197 3.93821 20.2755 4.09409 21.9123 5.18527C23.5491 6.27644 24.7182 7.91321 25.4197 11.8103C26.1211 15.7073 23.9388 16.6426 23.7829 18.3573C23.627 20.072 21.8344 22.2544 19.8079 23.2676C17.7814 24.2809 18.7167 24.9044 17.6255 24.9044C16.5344 24.9044 16.6903 24.9044 15.2873 25.372C13.8844 25.8397 12.4815 25.9956 11.0785 26.1515C9.6755 26.3073 7.88289 25.6838 6.16823 24.9044C4.45356 24.125 1.95936 20.6176 1.56966 19.1367C1.17995 17.6559 0.634403 18.6691 0.400579 15.0059C0.166756 11.3426 1.41381 7.21174 2.58293 6.35439C3.75205 5.49703 4.29764 5.41909 6.16823 3.31468Z" fill="#68DA80" fill-opacity="0.1" stroke="#68DA80" stroke-width="0.467647"/>
</svg>
