<svg width="64" height="64" viewBox="0 0 64 64" fill="none" xmlns="http://www.w3.org/2000/svg">
<path d="M15.343 6.40037C19.0461 2.23437 27.3009 1.06429 30.9655 1C34.4371 1 42.229 1.69433 45.6235 4.47167C49.8666 7.94333 50.2524 8.32907 54.3027 11.0293C58.3529 13.7294 61.246 17.7797 62.9818 27.4232C64.7177 37.0668 59.3173 39.3812 58.9316 43.6244C58.5458 47.8675 54.1098 53.2679 49.0952 55.7752C44.0805 58.2825 46.395 59.8255 43.6948 59.8255C40.9946 59.8255 41.3804 59.8255 37.9087 60.9827C34.437 62.1399 30.9655 62.5257 27.4937 62.9114C24.0219 63.2971 19.586 61.7542 15.343 59.8255C11.0999 57.8968 4.92785 49.2176 3.9635 45.5531C2.99915 41.8885 1.64916 44.3958 1.07055 35.3309C0.491936 26.266 3.57786 16.0439 6.47092 13.9223C9.36397 11.8007 10.7141 11.6079 15.343 6.40037Z" fill="#FF9933" fill-opacity="0.1" stroke="#FF9933" stroke-width="1.15722"/>
</svg>
