<svg width="27" height="26" viewBox="0 0 27 26" fill="none" xmlns="http://www.w3.org/2000/svg">
<path d="M6.06796 2.80373C7.48762 1.05618 10.7991 0.437347 12.2774 0.346373C13.679 0.284775 16.8373 0.42683 18.258 1.48783C20.0339 2.81408 20.1966 2.96296 21.8806 3.98118C23.5646 4.9994 24.8059 6.58319 25.6812 10.4455C26.5564 14.3079 24.4181 15.3381 24.3391 17.0579C24.2601 18.7777 22.5669 21.0366 20.5878 22.1378C18.6086 23.239 19.5709 23.8208 18.4808 23.8687C17.3907 23.9167 17.5464 23.9098 16.1658 24.4386C14.7851 24.9674 13.3905 25.1847 11.9959 25.402C10.6012 25.6193 8.78245 25.0751 7.03454 24.3718C5.28663 23.6685 2.63781 20.2741 2.18218 18.8118C1.72655 17.3495 1.22689 18.3857 0.829292 14.7364C0.431689 11.0871 1.4926 6.90563 2.62221 5.99781C3.75182 5.08998 4.29339 4.98816 6.06796 2.80373Z" fill="#68DA80" fill-opacity="0.1" stroke="#68DA80" stroke-width="0.467647"/>
</svg>
