<svg width="1" height="2" viewBox="0 0 1 2" fill="none" xmlns="http://www.w3.org/2000/svg">
<path fill-rule="evenodd" clip-rule="evenodd" d="M0.307455 0.441699C0.131119 0.652306 0.183498 0.910107 0.230963 1.01357L0.232621 1.01719L0.234713 1.02057C0.30045 1.12689 0.413437 1.16796 0.506718 1.16786C0.553309 1.16781 0.600213 1.15762 0.637641 1.13539C0.675469 1.11293 0.710453 1.07287 0.709066 1.01634C0.708585 0.996709 0.707505 0.978333 0.706478 0.960877C0.701444 0.875257 0.697711 0.811759 0.77235 0.731186C0.839056 0.659176 0.87214 0.569121 0.876653 0.487983C0.88095 0.41072 0.859194 0.323485 0.792047 0.278629C0.742436 0.245488 0.672559 0.217855 0.584296 0.238708C0.499271 0.258797 0.408131 0.321456 0.307455 0.441699ZM0.346096 0.956298C0.310451 0.875042 0.275792 0.679673 0.405976 0.524187C0.498136 0.414115 0.567108 0.374801 0.613841 0.363759C0.657335 0.353483 0.690861 0.365562 0.72067 0.385475C0.732942 0.393673 0.751529 0.423816 0.748357 0.480848C0.745401 0.534003 0.723206 0.595158 0.678086 0.643865C0.56365 0.7674 0.572026 0.887662 0.578245 0.97696C0.579264 0.991587 0.580225 1.00538 0.580578 1.01823C0.579637 1.01948 0.577307 1.02178 0.57204 1.02491C0.559137 1.03257 0.536311 1.03933 0.50658 1.03937C0.448316 1.03943 0.383634 1.01411 0.346096 0.956298ZM0.581124 1.01713C0.581058 1.01712 0.58086 1.01741 0.58073 1.01801C0.581125 1.01744 0.581191 1.01714 0.581124 1.01713Z" fill="#E9EDED"/>
</svg>
