<svg width="2" height="2" viewBox="0 0 2 2" fill="none" xmlns="http://www.w3.org/2000/svg">
<path fill-rule="evenodd" clip-rule="evenodd" d="M0.95467 0.190023C1.25694 0.233542 1.40486 0.485843 1.44234 0.606723L1.44365 0.610946L1.44443 0.615298C1.4689 0.752102 1.40583 0.869941 1.32852 0.939074C1.28991 0.973604 1.24352 0.999968 1.19604 1.00934C1.14806 1.01882 1.08937 1.01161 1.04857 0.963774C1.0344 0.947167 1.02166 0.931151 1.00956 0.915937C0.950192 0.841317 0.906167 0.785976 0.784586 0.774653C0.675927 0.764533 0.581714 0.714525 0.517771 0.650698C0.456884 0.58992 0.410165 0.501554 0.432473 0.414593C0.448954 0.350344 0.486302 0.275615 0.57485 0.227387C0.660148 0.180929 0.782098 0.165177 0.95467 0.190023ZM1.30452 0.644736C1.27374 0.551015 1.15747 0.363549 0.934313 0.33142C0.776337 0.308676 0.690063 0.327306 0.643179 0.352841C0.599545 0.376607 0.580751 0.411484 0.570848 0.450089C0.566771 0.465982 0.573749 0.504729 0.618694 0.549593C0.660584 0.591407 0.724338 0.625568 0.797834 0.632413C0.984241 0.649775 1.06654 0.755556 1.12766 0.834102C1.13767 0.846967 1.14711 0.859101 1.15634 0.869996C1.15806 0.870338 1.16169 0.870512 1.16837 0.869193C1.18474 0.865961 1.20866 0.854625 1.23329 0.832591C1.28158 0.789409 1.31634 0.720455 1.30452 0.644736ZM1.15508 0.869494C1.15513 0.869438 1.1555 0.869528 1.15606 0.869935C1.15531 0.869754 1.15503 0.869551 1.15508 0.869494Z" fill="#E9EDED"/>
</svg>
