<svg width="35" height="35" viewBox="0 0 35 35" fill="none" xmlns="http://www.w3.org/2000/svg">
<path d="M2.99722 10.8187C3.37553 7.8417 6.69162 4.81259 8.30238 3.67016C9.8469 2.61494 13.525 0.555129 15.8814 0.757645C18.8268 1.01079 19.1159 1.06497 21.7405 1.03388C24.3651 1.00279 26.8862 1.92344 30.5964 5.68158C34.3066 9.43972 32.6091 12.1098 33.7302 14.1127C34.8513 16.1157 34.5229 19.8641 33.0558 22.5026C31.5887 25.1411 33.0885 25.1234 31.8871 25.9441C30.6858 26.7648 30.8575 26.6476 29.6655 28.2171C28.4735 29.7866 27.0465 31.0133 25.6195 32.24C24.1924 33.4667 21.7488 34.1293 19.2735 34.5618C16.7982 34.9943 11.4081 33.0132 9.86262 31.6777C8.31716 30.3423 8.48043 31.8669 5.46133 28.0142C2.44223 24.1614 0.700917 18.6805 1.34168 16.8583C1.98244 15.0361 2.52434 14.54 2.99722 10.8187Z" fill="#68DA80" fill-opacity="0.1" stroke="#68DA80" stroke-width="0.62353"/>
</svg>
