<svg width="27" height="26" viewBox="0 0 27 26" fill="none" xmlns="http://www.w3.org/2000/svg">
<path d="M6.57985 2.53331C8.07632 0.849776 11.4122 0.376933 12.8931 0.350952C14.296 0.350952 17.4448 0.631541 18.8166 1.75389C20.5313 3.15684 20.6872 3.31272 22.3239 4.40389C23.9607 5.49507 25.1298 7.13184 25.8313 11.0289C26.5328 14.926 24.3504 15.8613 24.1945 17.576C24.0386 19.2907 22.246 21.473 20.2195 22.4863C18.193 23.4995 19.1283 24.123 18.0372 24.123C16.946 24.123 17.1019 24.123 15.6989 24.5907C14.296 25.0583 12.8931 25.2142 11.4901 25.3701C10.0871 25.526 8.29451 24.9024 6.57985 24.123C4.86519 23.3436 2.37098 19.8363 1.98128 18.3554C1.59157 16.8745 1.04602 17.8877 0.8122 14.2245C0.578377 10.5613 1.82544 6.43037 2.99455 5.57301C4.16367 4.71566 4.70926 4.63772 6.57985 2.53331Z" fill="#FF9933" fill-opacity="0.1" stroke="#FF9933" stroke-width="0.467647"/>
</svg>
