<svg width="42" height="41" viewBox="0 0 42 41" fill="none" xmlns="http://www.w3.org/2000/svg">
<path d="M10.0431 3.86777C12.4062 1.20937 17.6737 0.462717 20.0122 0.421692C22.2275 0.421692 27.1996 0.864759 29.3657 2.63703C32.0734 4.85237 32.3195 5.09851 34.9041 6.82155C37.4886 8.54459 39.3348 11.1292 40.4424 17.2829C41.5501 23.4366 38.104 24.9135 37.8579 27.6211C37.6117 30.3287 34.781 33.7748 31.5811 35.3748C28.3811 36.9748 29.858 37.9593 28.135 37.9593C26.412 37.9593 26.6581 37.9593 24.4428 38.6978C22.2274 39.4362 20.0122 39.6824 17.7968 39.9285C15.5813 40.1747 12.7507 39.1901 10.0431 37.9593C7.33557 36.7286 3.39706 31.1903 2.78169 28.8519C2.16632 26.5134 1.30487 28.1134 0.935642 22.3289C0.56642 16.5444 2.53561 10.0215 4.38172 8.66767C6.22784 7.31385 7.08936 7.19078 10.0431 3.86777Z" fill="#68DA80" fill-opacity="0.1" stroke="#68DA80" stroke-width="0.738446"/>
</svg>
