<svg width="27" height="26" viewBox="0 0 27 26" fill="none" xmlns="http://www.w3.org/2000/svg">
<path d="M6.9363 2.47361C8.43277 0.790083 11.7687 0.31724 13.2495 0.29126C14.6525 0.29126 17.8013 0.571848 19.173 1.6942C20.8877 3.09714 21.0436 3.25303 22.6804 4.3442C24.3171 5.43538 25.4863 7.07214 26.1877 10.9692C26.8892 14.8663 24.7068 15.8016 24.551 17.5163C24.3951 19.231 22.6024 21.4133 20.576 22.4266C18.5495 23.4398 19.4848 24.0633 18.3936 24.0633C17.3024 24.0633 17.4583 24.0633 16.0554 24.531C14.6524 24.9986 13.2495 25.1545 11.8465 25.3104C10.4436 25.4663 8.65096 24.8427 6.9363 24.0633C5.22163 23.2839 2.72743 19.7766 2.33772 18.2957C1.94802 16.8148 1.40247 17.828 1.16865 14.1648C0.934822 10.5016 2.18188 6.37067 3.351 5.51332C4.52012 4.65597 5.06571 4.57803 6.9363 2.47361Z" fill="#68DA80" fill-opacity="0.1" stroke="#68DA80" stroke-width="0.467647"/>
</svg>
