<svg width="27" height="26" viewBox="0 0 27 26" fill="none" xmlns="http://www.w3.org/2000/svg">
<path d="M18.8636 2.19149C21.0969 2.52063 23.3288 5.04735 24.1656 6.26957C24.9378 7.4409 26.4358 10.2233 26.251 11.9821C26.0199 14.1807 25.9752 14.396 25.9623 16.3591C25.9494 18.3222 25.2223 20.193 22.3451 22.909C19.4679 25.625 17.4836 24.3142 15.962 25.1214C14.4404 25.9286 11.6263 25.6248 9.66259 24.4868C7.69884 23.3487 7.69147 24.4705 7.09092 23.5594C6.49037 22.6484 6.57617 22.7785 5.41244 21.8628C4.24871 20.9471 3.34607 19.861 2.44338 18.7748C1.54069 17.6887 1.07621 15.8511 0.785161 13.9935C0.494111 12.1358 2.05831 8.13603 3.08386 7.00114C4.10941 5.86624 2.96071 5.96464 5.89948 3.76692C8.83825 1.56919 12.9836 0.352251 14.345 0.859702C15.7064 1.36715 16.0719 1.78007 18.8636 2.19149Z" fill="#68DA80" fill-opacity="0.1" stroke="#68DA80" stroke-width="0.467647"/>
</svg>
