<svg width="27" height="26" viewBox="0 0 27 26" fill="none" xmlns="http://www.w3.org/2000/svg">
<path d="M6.42555 2.76609C7.92202 1.08256 11.2579 0.609721 12.7388 0.58374C14.1417 0.58374 17.2905 0.864329 18.6623 1.98668C20.377 3.38962 20.5329 3.54551 22.1696 4.63668C23.8064 5.72786 24.9755 7.36463 25.677 11.2617C26.3785 15.1587 24.1961 16.094 24.0402 17.8087C23.8843 19.5235 22.0917 21.7058 20.0652 22.719C18.0388 23.7323 18.974 24.3558 17.8829 24.3558C16.7917 24.3558 16.9476 24.3558 15.5446 24.8235C14.1417 25.2911 12.7388 25.447 11.3358 25.6029C9.93282 25.7588 8.14022 25.1352 6.42555 24.3558C4.71089 23.5764 2.21669 20.069 1.82698 18.5882C1.43727 17.1073 0.891727 18.1205 0.657903 14.4573C0.42408 10.794 1.67114 6.66315 2.84026 5.8058C4.00938 4.94845 4.55496 4.87051 6.42555 2.76609Z" fill="#68DA80" fill-opacity="0.1" stroke="#68DA80" stroke-width="0.467647"/>
</svg>
