<svg width="27" height="27" viewBox="0 0 27 27" fill="none" xmlns="http://www.w3.org/2000/svg">
<path d="M6.81667 3.02916C8.31314 1.34563 11.649 0.872782 13.1299 0.846802C14.5328 0.846802 17.6816 1.12739 19.0534 2.24974C20.7681 3.65269 20.924 3.80857 22.5607 4.89974C24.1975 5.99092 25.3666 7.62769 26.0681 11.5247C26.7696 15.4218 24.5872 16.3571 24.4313 18.0718C24.2755 19.7865 22.4828 21.9689 20.4563 22.9821C18.4299 23.9953 19.3652 24.6189 18.274 24.6189C17.1828 24.6189 17.3387 24.6189 15.9357 25.0865C14.5328 25.5542 13.1299 25.71 11.7269 25.8659C10.3239 26.0218 8.53133 25.3983 6.81667 24.6189C5.102 23.8395 2.6078 20.3321 2.21809 18.8512C1.82839 17.3703 1.28284 18.3836 1.04902 14.7203C0.815193 11.0571 2.06225 6.92622 3.23137 6.06886C4.40049 5.21151 4.94608 5.13357 6.81667 3.02916Z" fill="#00B0F0" fill-opacity="0.1" stroke="#00B0F0" stroke-width="0.467647"/>
</svg>
