<svg width="26" height="26" viewBox="0 0 26 26" fill="none" xmlns="http://www.w3.org/2000/svg">
<path d="M6.29616 2.68235C7.79263 0.998824 11.1285 0.52598 12.6094 0.5C14.0123 0.5 17.1611 0.780588 18.5329 1.90294C20.2476 3.30588 20.4035 3.46177 22.0402 4.55294C23.677 5.64412 24.8461 7.28089 25.5476 11.1779C26.2491 15.075 24.0667 16.0103 23.9108 17.725C23.7549 19.4397 21.9623 21.6221 19.9358 22.6353C17.9094 23.6485 18.8447 24.2721 17.7535 24.2721C16.6623 24.2721 16.8182 24.2721 15.4152 24.7397C14.0123 25.2074 12.6094 25.3632 11.2064 25.5191C9.80343 25.675 8.01082 25.0515 6.29616 24.2721C4.58149 23.4927 2.08729 19.9853 1.69758 18.5044C1.30788 17.0235 0.762332 18.0368 0.528509 14.3735C0.294685 10.7103 1.54174 6.57941 2.71086 5.72206C3.87998 4.86471 4.42557 4.78677 6.29616 2.68235Z" fill="#00B0F0" fill-opacity="0.1" stroke="#00B0F0" stroke-width="0.467647"/>
</svg>
