<svg width="3" height="3" viewBox="0 0 3 3" fill="none" xmlns="http://www.w3.org/2000/svg">
<path fill-rule="evenodd" clip-rule="evenodd" d="M2.27468 1.17058C1.88796 0.746976 1.33985 0.78355 1.11251 0.852951L1.10456 0.855376L1.09698 0.858761C0.858629 0.965182 0.742163 1.18757 0.716381 1.38064C0.703504 1.47707 0.711532 1.57698 0.747094 1.66063C0.783037 1.74517 0.856196 1.82873 0.973581 1.84161C1.01433 1.84608 1.05266 1.84897 1.08908 1.85171C1.26767 1.86514 1.40012 1.87511 1.54607 2.05202C1.67651 2.21013 1.85366 2.30369 2.02032 2.33563C2.17901 2.36605 2.36561 2.34533 2.47714 2.21887C2.55955 2.12544 2.63621 1.98852 2.61764 1.80005C2.59975 1.6185 2.49548 1.41243 2.27468 1.17058ZM1.19896 1.10717C1.37705 1.05605 1.79102 1.03875 2.07652 1.35148C2.27864 1.57288 2.34079 1.72657 2.35062 1.82636C2.35976 1.91923 2.32543 1.98525 2.27591 2.04139C2.25553 2.0645 2.18797 2.09457 2.07083 2.07212C1.96164 2.05119 1.84127 1.98822 1.75304 1.88127C1.52927 1.61003 1.27805 1.59386 1.09152 1.58185C1.06097 1.57988 1.03215 1.57803 1.00547 1.57518C1.00313 1.57288 0.999026 1.56742 0.994022 1.55565C0.981762 1.52681 0.974119 1.47769 0.982336 1.41615C0.99844 1.29556 1.06885 1.16875 1.19896 1.10717ZM1.00759 1.57662C1.00762 1.57648 1.00709 1.57599 1.00586 1.57555C1.00694 1.57653 1.00755 1.57675 1.00759 1.57662Z" fill="#E9EDED"/>
</svg>
