<svg width="27" height="26" viewBox="0 0 27 26" fill="none" xmlns="http://www.w3.org/2000/svg">
<path d="M6.54616 2.68235C8.04263 0.998824 11.3785 0.52598 12.8594 0.5C14.2623 0.5 17.4111 0.780588 18.7829 1.90294C20.4976 3.30588 20.6535 3.46177 22.2902 4.55294C23.927 5.64412 25.0961 7.28089 25.7976 11.1779C26.4991 15.075 24.3167 16.0103 24.1608 17.725C24.0049 19.4397 22.2123 21.6221 20.1858 22.6353C18.1594 23.6485 19.0947 24.2721 18.0035 24.2721C16.9123 24.2721 17.0682 24.2721 15.6652 24.7397C14.2623 25.2074 12.8594 25.3632 11.4564 25.5191C10.0534 25.675 8.26082 25.0515 6.54616 24.2721C4.83149 23.4927 2.33729 19.9853 1.94758 18.5044C1.55788 17.0235 1.01233 18.0368 0.778509 14.3735C0.544685 10.7103 1.79174 6.57941 2.96086 5.72206C4.12998 4.86471 4.67557 4.78677 6.54616 2.68235Z" fill="#00B0F0" fill-opacity="0.1" stroke="#00B0F0" stroke-width="0.467647"/>
</svg>
