<svg width="35" height="35" viewBox="0 0 35 35" fill="none" xmlns="http://www.w3.org/2000/svg">
<path d="M8.58191 4.13148C10.5772 1.88678 15.025 1.25632 16.9996 1.22168C18.8701 1.22168 23.0685 1.5958 24.8975 3.09227C27.1838 4.96286 27.3917 5.1707 29.574 6.6256C31.7564 8.08051 33.3152 10.2629 34.2505 15.4589C35.1858 20.655 32.276 21.9021 32.0681 24.1884C31.8603 26.4746 29.4701 29.3844 26.7681 30.7354C24.0662 32.0864 25.3132 32.9178 23.8583 32.9178C22.4034 32.9178 22.6113 32.9178 20.7407 33.5413C18.8701 34.1648 16.9996 34.3727 15.1289 34.5805C13.2583 34.7884 10.8681 33.957 8.58191 32.9178C6.29569 31.8786 2.97009 27.2021 2.45048 25.2276C1.93087 23.2531 1.20348 24.604 0.891711 19.7197C0.579946 14.8354 2.24269 9.32757 3.80152 8.18443C5.36034 7.04129 6.08779 6.93737 8.58191 4.13148Z" fill="#FF9933" fill-opacity="0.1" stroke="#FF9933" stroke-width="0.62353"/>
</svg>
