<svg width="26" height="27" viewBox="0 0 26 27" fill="none" xmlns="http://www.w3.org/2000/svg">
<path d="M6.04616 3.18235C7.54263 1.49882 10.8785 1.02598 12.3594 1C13.7623 1 16.9111 1.28059 18.2829 2.40294C19.9976 3.80588 20.1535 3.96177 21.7902 5.05294C23.427 6.14412 24.5961 7.78089 25.2976 11.6779C25.9991 15.575 23.8167 16.5103 23.6608 18.225C23.5049 19.9397 21.7123 22.1221 19.6858 23.1353C17.6594 24.1485 18.5947 24.7721 17.5035 24.7721C16.4123 24.7721 16.5682 24.7721 15.1652 25.2397C13.7623 25.7074 12.3594 25.8632 10.9564 26.0191C9.55343 26.175 7.76082 25.5515 6.04616 24.7721C4.33149 23.9927 1.83729 20.4853 1.44758 19.0044C1.05788 17.5235 0.512332 18.5368 0.278509 14.8735C0.0446852 11.2103 1.29174 7.07941 2.46086 6.22206C3.62998 5.36471 4.17557 5.28677 6.04616 3.18235Z" fill="#68DA80" fill-opacity="0.1" stroke="#68DA80" stroke-width="0.467647"/>
</svg>
