<svg width="27" height="26" viewBox="0 0 27 26" fill="none" xmlns="http://www.w3.org/2000/svg">
<path d="M21.3715 3.81671C23.4591 4.67153 25.0169 7.66059 25.5349 9.04826C26.0024 10.371 26.7867 13.4326 26.1844 15.0967C25.4316 17.1769 25.3364 17.3753 24.8519 19.279C24.3673 21.1827 23.212 22.8257 19.7674 24.7744C16.3229 26.7232 14.7129 24.9745 13.0425 25.3939C11.3721 25.8134 8.71499 24.8441 7.08341 23.2682C5.45182 21.6922 5.17494 22.78 4.81136 21.7512C4.44777 20.7224 4.49971 20.8693 3.59085 19.7011C2.68199 18.5328 2.06741 17.2615 1.45279 15.9902C0.838183 14.7189 0.829406 12.8228 0.993732 10.9486C1.15806 9.07446 3.63744 5.56418 4.90534 4.70755C6.17324 3.85092 5.0351 3.67126 8.41479 2.24069C11.7945 0.810126 16.109 0.621334 17.3078 1.44043C18.5065 2.25952 18.7619 2.74818 21.3715 3.81671Z" fill="#68DA80" fill-opacity="0.1" stroke="#68DA80" stroke-width="0.467647"/>
</svg>
