<svg width="2" height="2" viewBox="0 0 2 2" fill="none" xmlns="http://www.w3.org/2000/svg">
<path fill-rule="evenodd" clip-rule="evenodd" d="M0.774695 0.770769C0.543437 1.04697 0.61213 1.38507 0.674378 1.52076L0.676553 1.5255L0.679296 1.52994C0.765508 1.66937 0.913686 1.72323 1.03602 1.7231C1.09712 1.72304 1.15864 1.70967 1.20772 1.68052C1.25733 1.65107 1.30321 1.59853 1.30139 1.52439C1.30076 1.49864 1.29934 1.47454 1.298 1.45165C1.2914 1.33936 1.2865 1.25609 1.38439 1.15042C1.47187 1.05598 1.51526 0.937879 1.52118 0.831469C1.52681 0.730142 1.49828 0.615737 1.41022 0.556909C1.34516 0.513447 1.25351 0.477206 1.13776 0.504556C1.02625 0.530901 0.906728 0.613075 0.774695 0.770769ZM0.825371 1.44565C0.778624 1.33908 0.73317 1.08286 0.903901 0.87895C1.02477 0.734594 1.11522 0.683036 1.17651 0.668555C1.23355 0.655078 1.27752 0.670919 1.31661 0.697034C1.3327 0.707785 1.35708 0.747317 1.35292 0.822112C1.34904 0.891823 1.31994 0.972025 1.26076 1.0359C1.11068 1.19791 1.12167 1.35563 1.12983 1.47274C1.13116 1.49193 1.13242 1.51002 1.13289 1.52686C1.13165 1.52851 1.1286 1.53152 1.12169 1.53562C1.10477 1.54567 1.07483 1.55454 1.03584 1.55459C0.959428 1.55467 0.874601 1.52147 0.825371 1.44565ZM1.1336 1.52542C1.13351 1.52541 1.13326 1.52579 1.13308 1.52659C1.1336 1.52584 1.13369 1.52544 1.1336 1.52542Z" fill="#E9EDED"/>
</svg>
