<svg width="26" height="26" viewBox="0 0 26 26" fill="none" xmlns="http://www.w3.org/2000/svg">
<path d="M6.1863 2.84861C7.68277 1.16508 11.0187 0.69224 12.4995 0.66626C13.9025 0.66626 17.0513 0.946848 18.423 2.0692C20.1377 3.47214 20.2936 3.62803 21.9304 4.7192C23.5671 5.81038 24.7363 7.44714 25.4377 11.3442C26.1392 15.2413 23.9568 16.1766 23.801 17.8913C23.6451 19.606 21.8524 21.7883 19.826 22.8016C17.7995 23.8148 18.7348 24.4383 17.6436 24.4383C16.5524 24.4383 16.7083 24.4383 15.3054 24.906C13.9024 25.3736 12.4995 25.5295 11.0965 25.6854C9.69357 25.8413 7.90096 25.2177 6.1863 24.4383C4.47163 23.6589 1.97743 20.1516 1.58772 18.6707C1.19802 17.1898 0.652469 18.203 0.418646 14.5398C0.184822 10.8766 1.43188 6.74567 2.601 5.88832C3.77012 5.03097 4.31571 4.95303 6.1863 2.84861Z" fill="#FF9933" fill-opacity="0.1" stroke="#FF9933" stroke-width="0.467647"/>
</svg>
