<svg width="26" height="26" viewBox="0 0 26 26" fill="none" xmlns="http://www.w3.org/2000/svg">
<path d="M6.04274 2.54576C7.53921 0.862227 10.8751 0.389384 12.356 0.363403C13.7589 0.363403 16.9077 0.643992 18.2795 1.76635C19.9942 3.16929 20.1501 3.32517 21.7868 4.41635C23.4236 5.50752 24.5927 7.14429 25.2942 11.0413C25.9956 14.9384 23.8133 15.8737 23.6574 17.5884C23.5015 19.3031 21.7089 21.4855 19.6824 22.4987C17.6559 23.5119 18.5912 24.1355 17.5001 24.1355C16.4089 24.1355 16.5648 24.1355 15.1618 24.6031C13.7589 25.0708 12.356 25.2266 10.953 25.3825C9.55001 25.5384 7.7574 24.9149 6.04274 24.1355C4.32808 23.3561 1.83387 19.8487 1.44417 18.3678C1.05446 16.8869 0.508915 17.9002 0.275091 14.2369C0.0412673 10.5737 1.28833 6.44282 2.45744 5.58546C3.62656 4.72811 4.17215 4.65017 6.04274 2.54576Z" fill="#68DA80" fill-opacity="0.1" stroke="#68DA80" stroke-width="0.467647"/>
</svg>
