<svg width="27" height="27" viewBox="0 0 27 27" fill="none" xmlns="http://www.w3.org/2000/svg">
<path d="M6.77077 3.36631C8.26724 1.68278 11.6031 1.20994 13.084 1.18396C14.4869 1.18396 17.6357 1.46455 19.0075 2.5869C20.7222 3.98984 20.8781 4.14573 22.5149 5.2369C24.1516 6.32808 25.3207 7.96485 26.0222 11.8619C26.7237 15.759 24.5413 16.6943 24.3854 18.409C24.2296 20.1237 22.4369 22.306 20.4104 23.3193C18.384 24.3325 19.3193 24.956 18.2281 24.956C17.1369 24.956 17.2928 24.956 15.8898 25.4237C14.4869 25.8913 13.084 26.0472 11.681 26.2031C10.278 26.359 8.48543 25.7354 6.77077 24.956C5.0561 24.1766 2.5619 20.6693 2.17219 19.1884C1.78249 17.7075 1.23694 18.7207 1.00312 15.0575C0.769295 11.3943 2.01635 7.26337 3.18547 6.40602C4.35459 5.54867 4.90018 5.47073 6.77077 3.36631Z" fill="#FF9933" fill-opacity="0.1" stroke="#FF9933" stroke-width="0.467647"/>
</svg>
