<svg width="27" height="27" viewBox="0 0 27 27" fill="none" xmlns="http://www.w3.org/2000/svg">
<path d="M6.66823 3.06468C8.1647 1.38115 11.5006 0.908305 12.9815 0.882324C14.3844 0.882324 17.5332 1.16291 18.905 2.28527C20.6197 3.68821 20.7755 3.84409 22.4123 4.93527C24.0491 6.02644 25.2182 7.66321 25.9197 11.5603C26.6211 15.4573 24.4388 16.3926 24.2829 18.1073C24.127 19.822 22.3344 22.0044 20.3079 23.0176C18.2814 24.0309 19.2167 24.6544 18.1255 24.6544C17.0344 24.6544 17.1903 24.6544 15.7873 25.122C14.3844 25.5897 12.9815 25.7456 11.5785 25.9015C10.1755 26.0573 8.38289 25.4338 6.66823 24.6544C4.95356 23.875 2.45936 20.3676 2.06966 18.8867C1.67995 17.4059 1.1344 18.4191 0.900579 14.7559C0.666756 11.0926 1.91381 6.96174 3.08293 6.10439C4.25205 5.24703 4.79764 5.16909 6.66823 3.06468Z" fill="#68DA80" fill-opacity="0.1" stroke="#68DA80" stroke-width="0.467647"/>
</svg>
