<svg width="35" height="35" viewBox="0 0 35 35" fill="none" xmlns="http://www.w3.org/2000/svg">
<path d="M8.77264 3.71107C10.7679 1.46637 15.2158 0.83591 17.1903 0.80127C19.0609 0.80127 23.2593 1.17539 25.0883 2.67186C27.3746 4.54245 27.5824 4.75029 29.7648 6.20519C31.9471 7.6601 33.5059 9.84245 34.4412 15.0385C35.3765 20.2346 32.4667 21.4817 32.2589 23.7679C32.051 26.0542 29.6608 28.964 26.9589 30.315C24.2569 31.666 25.504 32.4974 24.0491 32.4974C22.5942 32.4974 22.802 32.4974 20.9314 33.1209C19.0608 33.7444 17.1903 33.9523 15.3196 34.1601C13.449 34.368 11.0589 33.5366 8.77264 32.4974C6.48643 31.4581 3.16082 26.7817 2.64121 24.8072C2.12161 22.8327 1.39421 24.1836 1.08245 19.2993C0.770681 14.415 2.43343 8.90716 3.99225 7.76402C5.55107 6.62088 6.27853 6.51696 8.77264 3.71107Z" fill="#FF9933" fill-opacity="0.1" stroke="#FF9933" stroke-width="0.62353"/>
</svg>
