<svg width="26" height="27" viewBox="0 0 26 27" fill="none" xmlns="http://www.w3.org/2000/svg">
<path d="M4.16532 5.29757C5.18158 3.29037 8.28711 1.9866 9.71284 1.58561C11.0698 1.22953 14.1874 0.701537 15.8017 1.43827C17.8196 2.3592 18.0103 2.47031 19.8729 3.10965C21.7356 3.74899 23.2856 5.03442 24.9623 8.62343C26.639 12.2125 24.7676 13.6705 25.056 15.3675C25.3444 17.0646 24.1695 19.6292 22.4689 21.123C20.7683 22.6167 21.8327 22.9821 20.7772 23.259C19.7218 23.536 19.8726 23.4964 18.6353 24.3046C17.3981 25.1127 16.0811 25.6195 14.764 26.1263C13.4469 26.633 11.5533 26.4853 9.69511 26.1671C7.83696 25.8489 4.5261 23.0916 3.76985 21.759C3.01361 20.4265 2.74545 21.5444 1.58102 18.0627C0.416582 14.581 0.564756 10.2714 1.47599 9.14589C2.38723 8.02039 2.89499 7.80657 4.16532 5.29757Z" fill="#68DA80" fill-opacity="0.1" stroke="#68DA80" stroke-width="0.467647"/>
</svg>
