<svg width="35" height="35" viewBox="0 0 35 35" fill="none" xmlns="http://www.w3.org/2000/svg">
<path d="M7.8513 4.44484C9.74464 2.11432 14.1601 1.28824 16.1311 1.16652C17.9999 1.08399 22.2108 1.27249 24.1047 2.68678C26.4721 4.45463 26.689 4.6531 28.9341 6.01027C31.1791 7.36744 32.8337 9.47884 33.9995 14.6285C35.1654 19.7782 32.314 21.1524 32.2082 23.4455C32.1024 25.7387 29.8442 28.7511 27.2051 30.2199C24.5659 31.6888 25.8488 32.4643 24.3953 32.5285C22.9418 32.5927 23.1495 32.5835 21.3085 33.289C19.4675 33.9944 17.608 34.2846 15.7485 34.5748C13.8889 34.8649 11.4641 34.1399 9.13377 33.2025C6.80348 32.2652 3.27277 27.7401 2.6657 25.7905C2.05863 23.8409 1.39213 25.2226 0.863067 20.3569C0.334002 15.4912 1.74975 9.91546 3.25612 8.70468C4.7625 7.4939 5.48461 7.35798 7.8513 4.44484Z" fill="#68DA80" fill-opacity="0.1" stroke="#68DA80" stroke-width="0.62353"/>
</svg>
