<svg width="35" height="35" viewBox="0 0 35 35" fill="none" xmlns="http://www.w3.org/2000/svg">
<path d="M8.07446 4.05202C10.0698 1.80731 14.5176 1.17685 16.4921 1.14221C18.3627 1.14221 22.5611 1.51633 24.3901 3.0128C26.6764 4.88339 26.8842 5.09123 29.0666 6.54614C31.2489 8.00104 32.8078 10.1834 33.743 15.3795C34.6783 20.5756 31.7685 21.8226 31.5607 24.1089C31.3528 26.3952 28.9627 29.305 26.2607 30.6559C23.5587 32.0069 24.8058 32.8383 23.3509 32.8383C21.896 32.8383 22.1038 32.8383 20.2332 33.4618C18.3626 34.0854 16.4921 34.2932 14.6215 34.501C12.7508 34.7089 10.3607 33.8775 8.07446 32.8383C5.78824 31.7991 2.46264 27.1226 1.94303 25.1481C1.42342 23.1736 0.696029 24.5246 0.384264 19.6403C0.0724995 14.7559 1.73525 9.2481 3.29407 8.10496C4.85289 6.96182 5.58034 6.8579 8.07446 4.05202Z" fill="#00B0F0" fill-opacity="0.1" stroke="#00B0F0" stroke-width="0.62353"/>
</svg>
