<svg width="27" height="27" viewBox="0 0 27 27" fill="none" xmlns="http://www.w3.org/2000/svg">
<path d="M6.50905 3.26023C8.00552 1.5767 11.3414 1.10386 12.8223 1.07788C14.2252 1.07788 17.374 1.35847 18.7458 2.48082C20.4605 3.88376 20.6164 4.03965 22.2531 5.13082C23.8899 6.222 25.059 7.85877 25.7605 11.7558C26.462 15.6529 24.2796 16.5882 24.1237 18.3029C23.9678 20.0176 22.1752 22.1999 20.1487 23.2132C18.1222 24.2264 19.0575 24.8499 17.9664 24.8499C16.8752 24.8499 17.0311 24.8499 15.6281 25.3176C14.2252 25.7852 12.8223 25.9411 11.4193 26.097C10.0163 26.2529 8.22371 25.6294 6.50905 24.8499C4.79438 24.0705 2.30018 20.5632 1.91048 19.0823C1.52077 17.6014 0.975223 18.6147 0.7414 14.9514C0.507576 11.2882 1.75464 7.1573 2.92375 6.29994C4.09287 5.44259 4.63846 5.36465 6.50905 3.26023Z" fill="#FF9933" fill-opacity="0.1" stroke="#FF9933" stroke-width="0.467647"/>
</svg>
