<svg width="26" height="27" viewBox="0 0 26 27" fill="none" xmlns="http://www.w3.org/2000/svg">
<path d="M2.07314 7.79413C2.42981 5.57505 4.99273 3.39119 6.22961 2.57664C7.41464 1.82571 10.2256 0.376622 11.9892 0.587752C14.1938 0.851665 14.4095 0.899531 16.3801 0.942555C18.3508 0.98558 20.2205 1.73848 22.9134 4.6456C25.6064 7.55271 24.2671 9.50866 25.0596 11.0364C25.8521 12.5642 25.5141 15.362 24.3485 17.3002C23.1828 19.2383 24.3089 19.2629 23.3872 19.847C22.4655 20.4311 22.5972 20.3476 21.6642 21.4925C20.7312 22.6373 19.6302 23.5195 18.5291 24.4018C17.4281 25.2841 15.5778 25.7184 13.7094 25.9797C11.841 26.2409 7.84378 24.6217 6.71644 23.5829C5.58911 22.5441 5.6744 23.6896 3.50251 20.7291C1.33062 17.7686 0.157559 13.6216 0.683007 12.2736C1.20845 10.9257 1.6273 10.568 2.07314 7.79413Z" fill="#68DA80" fill-opacity="0.1" stroke="#68DA80" stroke-width="0.467647"/>
</svg>
