<svg width="2" height="1" viewBox="0 0 2 1" fill="none" xmlns="http://www.w3.org/2000/svg">
<path fill-rule="evenodd" clip-rule="evenodd" d="M1.22175 0.117716C1.01486 0.0520622 0.84215 0.167759 0.780774 0.233521L0.77863 0.235818L0.776785 0.238363C0.718807 0.31834 0.722716 0.413259 0.750799 0.481413C0.764825 0.515453 0.78636 0.546677 0.813843 0.567362C0.841619 0.588269 0.881406 0.601811 0.922314 0.583822C0.936516 0.577576 0.949624 0.571269 0.962075 0.565277C1.02315 0.535888 1.06844 0.514092 1.14975 0.544456C1.22241 0.571592 1.29817 0.568735 1.35884 0.547669C1.4166 0.527611 1.47383 0.485514 1.48646 0.422963C1.49579 0.376749 1.495 0.317375 1.45326 0.25912C1.41304 0.203004 1.33988 0.155199 1.22175 0.117716ZM0.857209 0.30048C0.905901 0.250026 1.0383 0.166028 1.19104 0.214498C1.29917 0.248812 1.34862 0.287422 1.37072 0.318266C1.39129 0.346972 1.39253 0.375105 1.38693 0.402874C1.38462 0.414305 1.36817 0.436942 1.32553 0.451749C1.28579 0.465549 1.23442 0.467689 1.18527 0.449334C1.06061 0.40278 0.975219 0.445014 0.911814 0.476374C0.901429 0.48151 0.891634 0.486355 0.882352 0.49047C0.881151 0.490159 0.878772 0.489146 0.874904 0.486235C0.86543 0.479104 0.85363 0.464451 0.84468 0.442729C0.827139 0.400159 0.826222 0.345278 0.857209 0.30048ZM0.883317 0.49054C0.883304 0.490489 0.883035 0.49043 0.882551 0.490518C0.883088 0.490635 0.88333 0.490591 0.883317 0.49054Z" fill="#E9EDED"/>
</svg>
