<svg width="35" height="35" viewBox="0 0 35 35" fill="none" xmlns="http://www.w3.org/2000/svg">
<path d="M8.72821 3.90981C10.7235 1.6651 15.1713 1.03464 17.1459 1C19.0164 1 23.2148 1.37412 25.0438 2.87059C27.3301 4.74118 27.538 4.94902 29.7203 6.40392C31.9027 7.85883 33.4615 10.0412 34.3968 15.2373C35.3321 20.4333 32.4223 21.6804 32.2144 23.9667C32.0066 26.253 29.6164 29.1628 26.9144 30.5137C24.2125 31.8647 25.4595 32.6961 24.0046 32.6961C22.5497 32.6961 22.7576 32.6961 20.887 33.3196C19.0164 33.9431 17.1459 34.151 15.2752 34.3588C13.4046 34.5667 11.0144 33.7353 8.72821 32.6961C6.44199 31.6569 3.11639 26.9804 2.59678 25.0059C2.07717 23.0314 1.34978 24.3824 1.03801 19.498C0.726247 14.6137 2.38899 9.10589 3.94782 7.96275C5.50664 6.81961 6.23409 6.71569 8.72821 3.90981Z" fill="#00B0F0" fill-opacity="0.1" stroke="#00B0F0" stroke-width="0.62353"/>
</svg>
