<svg width="27" height="27" viewBox="0 0 27 27" fill="none" xmlns="http://www.w3.org/2000/svg">
<path d="M6.6863 2.97361C8.18277 1.29008 11.5187 0.81724 12.9995 0.79126C14.4025 0.79126 17.5513 1.07185 18.923 2.1942C20.6377 3.59714 20.7936 3.75303 22.4304 4.8442C24.0671 5.93538 25.2363 7.57214 25.9377 11.4692C26.6392 15.3663 24.4568 16.3016 24.301 18.0163C24.1451 19.731 22.3524 21.9133 20.326 22.9266C18.2995 23.9398 19.2348 24.5633 18.1436 24.5633C17.0524 24.5633 17.2083 24.5633 15.8054 25.031C14.4024 25.4986 12.9995 25.6545 11.5965 25.8104C10.1936 25.9663 8.40096 25.3427 6.6863 24.5633C4.97163 23.7839 2.47743 20.2766 2.08772 18.7957C1.69802 17.3148 1.15247 18.328 0.918646 14.6648C0.684822 11.0016 1.93188 6.87067 3.101 6.01332C4.27012 5.15597 4.81571 5.07803 6.6863 2.97361Z" fill="#68DA80" fill-opacity="0.1" stroke="#68DA80" stroke-width="0.467647"/>
</svg>
