<svg width="27" height="26" viewBox="0 0 27 26" fill="none" xmlns="http://www.w3.org/2000/svg">
<path d="M9.90147 1.68733C11.8287 0.515547 15.1585 1.03788 16.5825 1.44552C17.9243 1.85522 20.8531 3.04291 21.8344 4.51604C23.061 6.35745 23.1642 6.55194 24.4081 8.07267C25.652 9.5934 26.2879 11.4989 25.8106 15.4278C25.3333 19.3568 22.9705 19.6132 22.3162 21.2063C21.6619 22.7994 19.3044 24.3613 17.0677 24.7378C14.8311 25.1143 15.5419 25.9832 14.4983 25.6646C13.4546 25.3459 13.6037 25.3914 12.1242 25.4286C10.6446 25.4658 9.25692 25.2051 7.86916 24.9443C6.48141 24.6836 4.95066 23.5642 3.54038 22.3187C2.13011 21.0731 0.778019 16.9931 0.841621 15.4641C0.905223 13.9352 0.0849232 14.7441 0.940611 11.1752C1.7963 7.60628 4.2061 4.02295 5.57686 3.54508C6.94762 3.0672 7.49239 3.15205 9.90147 1.68733Z" fill="#68DA80" fill-opacity="0.1" stroke="#68DA80" stroke-width="0.467647"/>
</svg>
