<svg width="27" height="27" viewBox="0 0 27 27" fill="none" xmlns="http://www.w3.org/2000/svg">
<path d="M6.54616 3.18235C8.04263 1.49882 11.3785 1.02598 12.8594 1C14.2623 1 17.4111 1.28059 18.7829 2.40294C20.4976 3.80588 20.6535 3.96177 22.2902 5.05294C23.927 6.14412 25.0961 7.78089 25.7976 11.6779C26.4991 15.575 24.3167 16.5103 24.1608 18.225C24.0049 19.9397 22.2123 22.1221 20.1858 23.1353C18.1594 24.1485 19.0947 24.7721 18.0035 24.7721C16.9123 24.7721 17.0682 24.7721 15.6652 25.2397C14.2623 25.7074 12.8594 25.8632 11.4564 26.0191C10.0534 26.175 8.26082 25.5515 6.54616 24.7721C4.83149 23.9927 2.33729 20.4853 1.94758 19.0044C1.55788 17.5235 1.01233 18.5368 0.778509 14.8735C0.544685 11.2103 1.79174 7.07941 2.96086 6.22206C4.12998 5.36471 4.67557 5.28677 6.54616 3.18235Z" fill="#68DA80" fill-opacity="0.1" stroke="#68DA80" stroke-width="0.467647"/>
</svg>
