<svg width="27" height="26" viewBox="0 0 27 26" fill="none" xmlns="http://www.w3.org/2000/svg">
<path d="M20.8788 3.17373C22.9695 4.03021 24.5324 7.01822 25.0525 8.40517C25.522 9.7272 26.3108 12.7867 25.71 14.4485C24.959 16.5258 24.8639 16.7239 24.3812 18.6252C23.8985 20.5265 22.744 22.1665 19.2985 24.1093C15.8531 26.052 14.2394 24.3031 12.568 24.7202C10.8965 25.1372 8.23561 24.1657 6.60057 22.5894C4.96552 21.013 4.68969 22.0994 4.32452 21.0712C3.95934 20.0429 4.01151 20.1898 3.10037 19.0216C2.18923 17.8533 1.57253 16.5826 0.955791 15.3118C0.339058 14.0409 0.327984 12.1466 0.490205 10.2745C0.652424 8.40235 3.12994 4.89841 4.39802 4.04412C5.66609 3.18983 4.52666 3.00899 7.90784 1.58383C11.289 0.158664 15.6074 -0.0248129 16.8083 0.794913C18.0093 1.61464 18.2655 2.10313 20.8788 3.17373Z" fill="#68DA80" fill-opacity="0.1" stroke="#68DA80" stroke-width="0.467647"/>
</svg>
