<svg width="26" height="26" viewBox="0 0 26 26" fill="none" xmlns="http://www.w3.org/2000/svg">
<path d="M6.04616 2.43235C7.54263 0.748824 10.8785 0.27598 12.3594 0.25C13.7623 0.25 16.9111 0.530588 18.2829 1.65294C19.9976 3.05588 20.1535 3.21177 21.7902 4.30294C23.427 5.39412 24.5961 7.03089 25.2976 10.9279C25.9991 14.825 23.8167 15.7603 23.6608 17.475C23.5049 19.1897 21.7123 21.3721 19.6858 22.3853C17.6594 23.3985 18.5947 24.0221 17.5035 24.0221C16.4123 24.0221 16.5682 24.0221 15.1652 24.4897C13.7623 24.9574 12.3594 25.1132 10.9564 25.2691C9.55343 25.425 7.76082 24.8015 6.04616 24.0221C4.33149 23.2427 1.83729 19.7353 1.44758 18.2544C1.05788 16.7735 0.512332 17.7868 0.278509 14.1235C0.0446852 10.4603 1.29174 6.32941 2.46086 5.47206C3.62998 4.61471 4.17557 4.53677 6.04616 2.43235Z" fill="#FF9933" fill-opacity="0.1" stroke="#FF9933" stroke-width="0.467647"/>
</svg>
