<svg width="26" height="27" viewBox="0 0 26 27" fill="none" xmlns="http://www.w3.org/2000/svg">
<path d="M2.91103 6.88662C3.50715 4.71336 6.28781 2.81005 7.60362 2.13005C8.86106 1.50792 11.8075 0.36318 13.5338 0.761293C15.6916 1.25893 15.9004 1.32959 17.8504 1.58223C19.8004 1.83487 21.5727 2.78413 23.9263 5.9676C26.28 9.15107 24.7379 10.9575 25.3571 12.5642C25.9764 14.171 25.3356 16.9229 23.9677 18.7301C22.5999 20.5373 23.7142 20.6817 22.7362 21.1656C21.7581 21.6495 21.8979 21.5803 20.8474 22.6218C19.7969 23.6633 18.6085 24.4252 17.42 25.1871C16.2315 25.9491 14.3488 26.1849 12.467 26.2464C10.5852 26.3078 6.7972 24.2688 5.79244 23.1137C4.78769 21.9586 4.74719 23.1091 2.91621 19.9279C1.08522 16.7467 0.374562 12.4895 1.04296 11.2023C1.71136 9.91502 2.16587 9.60318 2.91103 6.88662Z" fill="#00B0F0" fill-opacity="0.1" stroke="#00B0F0" stroke-width="0.467647"/>
</svg>
