<svg width="4" height="4" viewBox="0 0 4 4" fill="none" xmlns="http://www.w3.org/2000/svg">
<path fill-rule="evenodd" clip-rule="evenodd" d="M1.54198 0.708452C0.632912 1.04043 0.338578 1.91933 0.301135 2.31865L0.299827 2.3326L0.300249 2.34661C0.313528 2.78684 0.585939 3.11119 0.870742 3.27522C1.01299 3.35714 1.17407 3.40867 1.32742 3.40679C1.48241 3.4049 1.65973 3.34429 1.7551 3.16935C1.78821 3.10861 1.81728 3.05063 1.8449 2.99556C1.98038 2.72544 2.08085 2.52512 2.45053 2.41075C2.78093 2.30854 3.04053 2.09204 3.19724 1.85241C3.34646 1.62423 3.43375 1.31973 3.30789 1.06457C3.2149 0.876047 3.05036 0.668629 2.74431 0.57677C2.44948 0.488282 2.061 0.518913 1.54198 0.708452ZM0.753337 2.34672C0.78772 2.03599 1.02614 1.3788 1.69728 1.13371C2.1724 0.960202 2.45211 0.961749 2.61416 1.01039C2.76498 1.05565 2.846 1.15157 2.90187 1.26484C2.92487 1.31148 2.92849 1.4362 2.81834 1.60463C2.71567 1.76161 2.54022 1.90911 2.31674 1.97825C1.74993 2.15359 1.56363 2.5353 1.42529 2.81873C1.40263 2.86516 1.38126 2.90894 1.35972 2.94875C1.35463 2.95093 1.34347 2.95384 1.32189 2.9541C1.26903 2.95475 1.18746 2.93518 1.09668 2.8829C0.918792 2.78045 0.766028 2.58926 0.753337 2.34672ZM1.36331 2.94637C1.36313 2.94623 1.36202 2.94675 1.36055 2.94838C1.36276 2.94733 1.3635 2.94652 1.36331 2.94637Z" fill="#E9EDED"/>
</svg>
