<svg width="27" height="26" viewBox="0 0 27 26" fill="none" xmlns="http://www.w3.org/2000/svg">
<path d="M6.54713 2.59153C8.04361 0.908003 11.3795 0.43516 12.8604 0.40918C14.2633 0.40918 17.4121 0.689768 18.7839 1.81212C20.4986 3.21506 20.6545 3.37095 22.2912 4.46212C23.928 5.5533 25.0971 7.19006 25.7986 11.0871C26.5 14.9842 24.3177 15.9195 24.1618 17.6342C24.0059 19.3489 22.2133 21.5312 20.1868 22.5445C18.1603 23.5577 19.0956 24.1812 18.0044 24.1812C16.9133 24.1812 17.0692 24.1812 15.6662 24.6489C14.2633 25.1165 12.8604 25.2724 11.4574 25.4283C10.0544 25.5842 8.2618 24.9607 6.54713 24.1812C4.83247 23.4018 2.33827 19.8945 1.94856 18.4136C1.55886 16.9327 1.01331 17.946 0.779485 14.2827C0.545662 10.6195 1.79272 6.48859 2.96184 5.63124C4.13096 4.77389 4.67655 4.69595 6.54713 2.59153Z" fill="#68DA80" fill-opacity="0.1" stroke="#68DA80" stroke-width="0.467647"/>
</svg>
