<svg width="35" height="35" viewBox="0 0 35 35" fill="none" xmlns="http://www.w3.org/2000/svg">
<path d="M8.56726 3.68813C10.5626 1.44342 15.0104 0.812961 16.9849 0.77832C18.8555 0.77832 23.0539 1.15244 24.8829 2.64891C27.1692 4.5195 27.377 4.72734 29.5594 6.18224C31.7417 7.63715 33.3005 9.8195 34.2358 15.0156C35.1711 20.2117 32.2613 21.4587 32.0535 23.745C31.8456 26.0313 29.4554 28.9411 26.7535 30.2921C24.0515 31.643 25.2986 32.4744 23.8437 32.4744C22.3888 32.4744 22.5966 32.4744 20.726 33.0979C18.8554 33.7215 16.9849 33.9293 15.1143 34.1372C13.2436 34.345 10.8535 33.5136 8.56726 32.4744C6.28104 31.4352 2.95544 26.7587 2.43583 24.7842C1.91622 22.8097 1.18883 24.1607 0.877062 19.2764C0.565297 14.3921 2.22804 8.88421 3.78687 7.74107C5.34569 6.59793 6.07314 6.49401 8.56726 3.68813Z" fill="#68DA80" fill-opacity="0.1" stroke="#68DA80" stroke-width="0.62353"/>
</svg>
