<svg width="27" height="27" viewBox="0 0 27 27" fill="none" xmlns="http://www.w3.org/2000/svg">
<path d="M6.85231 3.18235C8.34878 1.49882 11.6847 1.02598 13.1655 1C14.5685 1 17.7173 1.28059 19.089 2.40294C20.8037 3.80588 20.9596 3.96177 22.5964 5.05294C24.2332 6.14412 25.4023 7.78089 26.1037 11.6779C26.8052 15.575 24.6229 16.5103 24.467 18.225C24.3111 19.9397 22.5185 22.1221 20.492 23.1353C18.4655 24.1485 19.4008 24.7721 18.3096 24.7721C17.2184 24.7721 17.3743 24.7721 15.9714 25.2397C14.5684 25.7074 13.1655 25.8632 11.7626 26.0191C10.3596 26.175 8.56698 25.5515 6.85231 24.7721C5.13765 23.9927 2.64344 20.4853 2.25374 19.0044C1.86403 17.5235 1.31848 18.5368 1.08466 14.8735C0.850838 11.2103 2.0979 7.07941 3.26701 6.22206C4.43613 5.36471 4.98172 5.28677 6.85231 3.18235Z" fill="#00B0F0" fill-opacity="0.1" stroke="#00B0F0" stroke-width="0.467647"/>
</svg>
