<svg width="2" height="1" viewBox="0 0 2 1" fill="none" xmlns="http://www.w3.org/2000/svg">
<path fill-rule="evenodd" clip-rule="evenodd" d="M1.222 0.117716C1.01511 0.0520622 0.842394 0.167759 0.781018 0.233521L0.778874 0.235818L0.777029 0.238363C0.719051 0.31834 0.72296 0.413259 0.751043 0.481413C0.765069 0.515453 0.786604 0.546677 0.814087 0.567362C0.841863 0.588269 0.88165 0.601811 0.922558 0.583822C0.93676 0.577576 0.949868 0.571269 0.962319 0.565277C1.02339 0.535888 1.06868 0.514092 1.14999 0.544456C1.22266 0.571592 1.29842 0.568735 1.35908 0.547669C1.41685 0.527611 1.47408 0.485514 1.4867 0.422963C1.49603 0.376749 1.49525 0.317375 1.4535 0.25912C1.41329 0.203004 1.34012 0.155199 1.222 0.117716ZM0.857454 0.30048C0.906145 0.250026 1.03854 0.166028 1.19129 0.214498C1.29942 0.248812 1.34886 0.287422 1.37097 0.318266C1.39154 0.346972 1.39278 0.375105 1.38717 0.402874C1.38486 0.414305 1.36841 0.436942 1.32577 0.451749C1.28603 0.465549 1.23466 0.467689 1.18551 0.449334C1.06085 0.40278 0.975463 0.445014 0.912058 0.476374C0.901673 0.48151 0.891878 0.486355 0.882596 0.49047C0.881395 0.490159 0.879016 0.489146 0.875149 0.486235C0.865674 0.479104 0.853875 0.464451 0.844924 0.442729C0.827383 0.400159 0.826466 0.345278 0.857454 0.30048ZM0.883561 0.49054C0.883548 0.490489 0.883279 0.49043 0.882795 0.490518C0.883332 0.490635 0.883574 0.490591 0.883561 0.49054Z" fill="#E9EDED"/>
</svg>
