<svg width="27" height="27" viewBox="0 0 27 27" fill="none" xmlns="http://www.w3.org/2000/svg">
<path d="M6.53005 3.37193C8.02652 1.6884 11.3624 1.21556 12.8433 1.18958C14.2462 1.18958 17.395 1.47016 18.7668 2.59252C20.4815 3.99546 20.6374 4.15134 22.2741 5.24252C23.9109 6.33369 25.08 7.97046 25.7815 11.8675C26.483 15.7646 24.3006 16.6999 24.1447 18.4146C23.9888 20.1293 22.1962 22.3116 20.1697 23.3249C18.1432 24.3381 19.0785 24.9616 17.9874 24.9616C16.8962 24.9616 17.0521 24.9616 15.6491 25.4293C14.2462 25.8969 12.8433 26.0528 11.4403 26.2087C10.0373 26.3646 8.24471 25.7411 6.53005 24.9616C4.81538 24.1822 2.32118 20.6749 1.93147 19.194C1.54177 17.7131 0.996219 18.7263 0.762396 15.0631C0.528572 11.3999 1.77563 7.26899 2.94475 6.41164C4.11387 5.55428 4.65946 5.47634 6.53005 3.37193Z" fill="#68DA80" fill-opacity="0.1" stroke="#68DA80" stroke-width="0.467647"/>
</svg>
