<svg width="27" height="27" viewBox="0 0 27 27" fill="none" xmlns="http://www.w3.org/2000/svg">
<path d="M6.41823 3.06468C7.9147 1.38115 11.2506 0.908305 12.7315 0.882324C14.1344 0.882324 17.2832 1.16291 18.655 2.28527C20.3697 3.68821 20.5255 3.84409 22.1623 4.93527C23.7991 6.02644 24.9682 7.66321 25.6697 11.5603C26.3711 15.4573 24.1888 16.3926 24.0329 18.1073C23.877 19.822 22.0844 22.0044 20.0579 23.0176C18.0314 24.0309 18.9667 24.6544 17.8755 24.6544C16.7844 24.6544 16.9403 24.6544 15.5373 25.122C14.1344 25.5897 12.7315 25.7456 11.3285 25.9015C9.9255 26.0573 8.13289 25.4338 6.41823 24.6544C4.70356 23.875 2.20936 20.3676 1.81966 18.8867C1.42995 17.4059 0.884403 18.4191 0.650579 14.7559C0.416756 11.0926 1.66381 6.96174 2.83293 6.10439C4.00205 5.24703 4.54764 5.16909 6.41823 3.06468Z" fill="#68DA80" fill-opacity="0.1" stroke="#68DA80" stroke-width="0.467647"/>
</svg>
