<svg width="27" height="26" viewBox="0 0 27 26" fill="none" xmlns="http://www.w3.org/2000/svg">
<path d="M19.4457 24.1371C17.8041 25.6754 14.4399 25.8377 12.963 25.7266C11.5661 25.5968 8.4561 25.026 7.19129 23.7813C5.61027 22.2255 5.4691 22.0558 3.93761 20.8176C2.40613 19.5795 1.38942 17.8412 1.04189 13.8951C0.694367 9.94897 2.95159 9.21936 3.26121 7.52604C3.57084 5.83273 5.55232 3.82508 7.66135 3.00343C9.77037 2.18178 8.89524 1.47426 9.98174 1.5752C11.0682 1.67615 10.913 1.66172 12.3521 1.32576C13.7911 0.989802 15.202 0.964335 16.613 0.938874C18.024 0.913416 19.7528 1.70025 21.3899 2.63512C23.027 3.56998 25.1947 7.29383 25.4494 8.80474C25.7041 10.3157 26.3385 9.35701 26.2415 13.027C26.1444 16.697 24.5307 20.6957 23.2894 21.4414C22.0481 22.1871 21.4978 22.2143 19.4457 24.1371Z" fill="#00B0F0" fill-opacity="0.1" stroke="#00B0F0" stroke-width="0.467647"/>
</svg>
