<svg width="26" height="26" viewBox="0 0 26 26" fill="none" xmlns="http://www.w3.org/2000/svg">
<path d="M6.29616 2.84153C7.79263 1.158 11.1285 0.68516 12.6094 0.65918C14.0123 0.65918 17.1611 0.939768 18.5329 2.06212C20.2476 3.46506 20.4035 3.62095 22.0402 4.71212C23.677 5.8033 24.8461 7.44006 25.5476 11.3371C26.2491 15.2342 24.0667 16.1695 23.9108 17.8842C23.7549 19.5989 21.9623 21.7812 19.9358 22.7945C17.9094 23.8077 18.8447 24.4312 17.7535 24.4312C16.6623 24.4312 16.8182 24.4312 15.4152 24.8989C14.0123 25.3665 12.6094 25.5224 11.2064 25.6783C9.80343 25.8342 8.01082 25.2107 6.29616 24.4312C4.58149 23.6518 2.08729 20.1445 1.69758 18.6636C1.30788 17.1827 0.762332 18.196 0.528509 14.5327C0.294685 10.8695 1.54174 6.73859 2.71086 5.88124C3.87998 5.02389 4.42557 4.94595 6.29616 2.84153Z" fill="#68DA80" fill-opacity="0.1" stroke="#68DA80" stroke-width="0.467647"/>
</svg>
