<svg width="27" height="27" viewBox="0 0 27 27" fill="none" xmlns="http://www.w3.org/2000/svg">
<path d="M6.67555 3.01609C8.17202 1.33256 11.5079 0.859721 12.9888 0.83374C14.3917 0.83374 17.5405 1.11433 18.9123 2.23668C20.627 3.63962 20.7829 3.79551 22.4196 4.88668C24.0564 5.97786 25.2255 7.61463 25.927 11.5117C26.6285 15.4087 24.4461 16.344 24.2902 18.0587C24.1343 19.7735 22.3417 21.9558 20.3152 22.969C18.2888 23.9823 19.224 24.6058 18.1329 24.6058C17.0417 24.6058 17.1976 24.6058 15.7946 25.0735C14.3917 25.5411 12.9888 25.697 11.5858 25.8529C10.1828 26.0088 8.39022 25.3852 6.67555 24.6058C4.96089 23.8264 2.46669 20.319 2.07698 18.8382C1.68727 17.3573 1.14173 18.3705 0.907903 14.7073C0.67408 11.044 1.92114 6.91315 3.09026 6.0558C4.25938 5.19845 4.80496 5.12051 6.67555 3.01609Z" fill="#68DA80" fill-opacity="0.1" stroke="#68DA80" stroke-width="0.467647"/>
</svg>
