<svg width="54" height="54" viewBox="0 0 54 54" fill="none" xmlns="http://www.w3.org/2000/svg">
<path d="M12.949 5.2844C16.0784 1.76381 23.0544 0.775003 26.1512 0.720673C29.085 0.720673 35.6698 1.30744 38.5384 3.6545C42.1242 6.58832 42.4502 6.9143 45.873 9.19617C49.2958 11.478 51.7406 14.9008 53.2075 23.0503C54.6744 31.1999 50.1107 33.1557 49.7847 36.7415C49.4588 40.3273 45.71 44.891 41.4722 47.0099C37.2345 49.1288 39.1904 50.4327 36.9085 50.4327C34.6266 50.4327 34.9526 50.4327 32.0188 51.4106C29.085 52.3886 26.1512 52.7146 23.2173 53.0406C20.2834 53.3665 16.5347 52.0626 12.949 50.4327C9.36333 48.8028 4.14746 41.4682 3.33251 38.3714C2.51756 35.2746 1.37671 37.3935 0.887743 29.7329C0.398772 22.0724 3.00662 13.4339 5.45147 11.641C7.89632 9.84813 9.03726 9.68514 12.949 5.2844Z" fill="#68DA80" fill-opacity="0.1" stroke="#68DA80" stroke-width="0.977942"/>
</svg>
