<svg width="49" height="48" viewBox="0 0 49 48" fill="none" xmlns="http://www.w3.org/2000/svg">
<path d="M11.8822 4.80028C14.6595 1.67578 20.8507 0.798218 23.5991 0.75C26.2028 0.75 32.0467 1.27075 34.5926 3.35375C37.775 5.9575 38.0643 6.24681 41.102 8.27194C44.1397 10.2971 46.3095 13.3348 47.6114 20.5674C48.9132 27.8001 44.863 29.5359 44.5737 32.7183C44.2844 35.9006 40.9573 39.9509 37.1964 41.8314C33.4354 43.7119 35.1712 44.8691 33.1461 44.8691C31.121 44.8691 31.4103 44.8691 28.8065 45.737C26.2028 46.6049 23.5991 46.8942 20.9953 47.1835C18.3914 47.4729 15.0645 46.3156 11.8822 44.8691C8.69993 43.4226 4.07089 36.9132 3.34762 34.1648C2.62436 31.4164 1.61187 33.2969 1.17791 26.4982C0.743952 19.6995 3.0584 12.0329 5.22819 10.4417C7.39798 8.85056 8.41055 8.7059 11.8822 4.80028Z" fill="#FF9933" fill-opacity="0.1" stroke="#FF9933" stroke-width="0.867917"/>
</svg>
