<svg width="26" height="26" viewBox="0 0 26 26" fill="none" xmlns="http://www.w3.org/2000/svg">
<path d="M4.16965 4.52251C5.18439 2.51757 8.29038 1.21783 9.71653 0.818573C11.0739 0.464119 14.1928 -0.0602942 15.8088 0.677688C17.8289 1.60017 18.0198 1.71142 19.8843 2.35232C21.7487 2.99322 23.301 4.27949 24.9825 7.86811C26.664 11.4567 24.7931 12.9119 25.0834 14.6083C25.3738 16.3046 24.2009 18.8664 22.5009 20.3575C20.8009 21.8486 21.8662 22.2149 20.8105 22.4906C19.7547 22.7662 19.9055 22.7269 18.6684 23.5332C17.4313 24.3396 16.114 24.8447 14.7967 25.3498C13.4793 25.8549 11.5844 25.7052 9.72486 25.3853C7.86527 25.0653 4.54952 22.3062 3.79141 20.9737C3.03331 19.6411 2.76617 20.7581 1.59736 17.2773C0.428539 13.7964 0.57223 9.48957 1.48281 8.3657C2.3934 7.24183 2.90123 7.02867 4.16965 4.52251Z" fill="#68DA80" fill-opacity="0.1" stroke="#68DA80" stroke-width="0.467647"/>
</svg>
