<svg width="27" height="27" viewBox="0 0 27 27" fill="none" xmlns="http://www.w3.org/2000/svg">
<path d="M9.90147 1.93733C11.8287 0.765547 15.1585 1.28788 16.5825 1.69552C17.9243 2.10522 20.8531 3.29291 21.8344 4.76604C23.061 6.60745 23.1642 6.80194 24.4081 8.32267C25.652 9.8434 26.2879 11.7489 25.8106 15.6778C25.3333 19.6068 22.9705 19.8632 22.3162 21.4563C21.6619 23.0494 19.3044 24.6113 17.0677 24.9878C14.8311 25.3643 15.5419 26.2332 14.4983 25.9146C13.4546 25.5959 13.6037 25.6414 12.1242 25.6786C10.6446 25.7158 9.25692 25.4551 7.86916 25.1943C6.48141 24.9336 4.95066 23.8142 3.54038 22.5687C2.13011 21.3231 0.778019 17.2431 0.841621 15.7141C0.905223 14.1852 0.0849232 14.9941 0.940611 11.4252C1.7963 7.85628 4.2061 4.27295 5.57686 3.79508C6.94762 3.3172 7.49239 3.40205 9.90147 1.93733Z" fill="#68DA80" fill-opacity="0.1" stroke="#68DA80" stroke-width="0.467647"/>
</svg>
