<svg width="27" height="27" viewBox="0 0 27 27" fill="none" xmlns="http://www.w3.org/2000/svg">
<path d="M6.58034 3.28331C8.07681 1.59978 11.4127 1.12693 12.8936 1.10095C14.2965 1.10095 17.4453 1.38154 18.8171 2.50389C20.5318 3.90684 20.6877 4.06272 22.3244 5.15389C23.9612 6.24507 25.1303 7.88184 25.8318 11.7789C26.5332 15.676 24.3509 16.6113 24.195 18.326C24.0391 20.0407 22.2465 22.223 20.22 23.2363C18.1935 24.2495 19.1288 24.873 18.0377 24.873C16.9465 24.873 17.1024 24.873 15.6994 25.3407C14.2965 25.8083 12.8936 25.9642 11.4906 26.1201C10.0876 26.276 8.295 25.6524 6.58034 24.873C4.86567 24.0936 2.37147 20.5863 1.98176 19.1054C1.59206 17.6245 1.04651 18.6377 0.812689 14.9745C0.578865 11.3113 1.82592 7.18037 2.99504 6.32301C4.16416 5.46566 4.70975 5.38772 6.58034 3.28331Z" fill="#FF9933" fill-opacity="0.1" stroke="#FF9933" stroke-width="0.467647"/>
</svg>
