<svg width="27" height="27" viewBox="0 0 27 27" fill="none" xmlns="http://www.w3.org/2000/svg">
<path d="M6.53053 3.37193C8.027 1.6884 11.3629 1.21556 12.8438 1.18958C14.2467 1.18958 17.3955 1.47016 18.7673 2.59252C20.482 3.99546 20.6378 4.15134 22.2746 5.24252C23.9114 6.33369 25.0805 7.97046 25.782 11.8675C26.4834 15.7646 24.3011 16.6999 24.1452 18.4146C23.9893 20.1293 22.1967 22.3116 20.1702 23.3249C18.1437 24.3381 19.079 24.9616 17.9878 24.9616C16.8967 24.9616 17.0526 24.9616 15.6496 25.4293C14.2467 25.8969 12.8438 26.0528 11.4408 26.2087C10.0378 26.3646 8.2452 25.7411 6.53053 24.9616C4.81587 24.1822 2.32167 20.6749 1.93196 19.194C1.54225 17.7131 0.996707 18.7263 0.762884 15.0631C0.52906 11.3999 1.77612 7.26899 2.94524 6.41164C4.11436 5.55428 4.65994 5.47634 6.53053 3.37193Z" fill="#68DA80" fill-opacity="0.1" stroke="#68DA80" stroke-width="0.467647"/>
</svg>
