<svg width="34" height="36" viewBox="0 0 34 36" fill="none" xmlns="http://www.w3.org/2000/svg">
<path d="M3.2147 9.18215C4.00954 6.28448 7.71708 3.74673 9.47149 2.84007C11.1481 2.01056 15.0767 0.48424 17.3784 1.01506C20.2555 1.67858 20.5338 1.77279 23.1338 2.10964C25.7338 2.4465 28.0969 3.71217 31.2351 7.9568C34.3733 12.2014 32.3172 14.61 33.1429 16.7523C33.9685 18.8946 33.1141 22.5638 31.2903 24.9735C29.4665 27.3831 30.9522 27.5756 29.6482 28.2208C28.3442 28.8659 28.5305 28.7738 27.1298 30.1624C25.7292 31.5511 24.1447 32.5669 22.56 33.5829C20.9754 34.5988 18.4651 34.9132 15.956 34.9951C13.4469 35.0771 8.39627 32.3584 7.05659 30.8183C5.71692 29.2781 5.66292 30.8121 3.22161 26.5705C0.780297 22.329 -0.167251 16.6527 0.723947 14.9364C1.61515 13.22 2.22116 12.8042 3.2147 9.18215Z" fill="#00B0F0" fill-opacity="0.1" stroke="#00B0F0" stroke-width="0.62353"/>
</svg>
