<svg width="27" height="26" viewBox="0 0 27 26" fill="none" xmlns="http://www.w3.org/2000/svg">
<path d="M6.79616 2.43235C8.29263 0.748824 11.6285 0.27598 13.1094 0.25C14.5123 0.25 17.6611 0.530588 19.0329 1.65294C20.7476 3.05588 20.9035 3.21177 22.5402 4.30294C24.177 5.39412 25.3461 7.03089 26.0476 10.9279C26.7491 14.825 24.5667 15.7603 24.4108 17.475C24.2549 19.1897 22.4623 21.3721 20.4358 22.3853C18.4094 23.3985 19.3447 24.0221 18.2535 24.0221C17.1623 24.0221 17.3182 24.0221 15.9152 24.4897C14.5123 24.9574 13.1094 25.1132 11.7064 25.2691C10.3034 25.425 8.51082 24.8015 6.79616 24.0221C5.08149 23.2427 2.58729 19.7353 2.19758 18.2544C1.80788 16.7735 1.26233 17.7868 1.02851 14.1235C0.794685 10.4603 2.04174 6.32941 3.21086 5.47206C4.37998 4.61471 4.92557 4.53677 6.79616 2.43235Z" fill="#00B0F0" fill-opacity="0.1" stroke="#00B0F0" stroke-width="0.467647"/>
</svg>
