<svg width="26" height="27" viewBox="0 0 26 27" fill="none" xmlns="http://www.w3.org/2000/svg">
<path d="M6.04616 2.93235C7.54263 1.24882 10.8785 0.77598 12.3594 0.75C13.7623 0.75 16.9111 1.03059 18.2829 2.15294C19.9976 3.55588 20.1535 3.71177 21.7902 4.80294C23.427 5.89412 24.5961 7.53089 25.2976 11.4279C25.9991 15.325 23.8167 16.2603 23.6608 17.975C23.5049 19.6897 21.7123 21.8721 19.6858 22.8853C17.6594 23.8985 18.5947 24.5221 17.5035 24.5221C16.4123 24.5221 16.5682 24.5221 15.1652 24.9897C13.7623 25.4574 12.3594 25.6132 10.9564 25.7691C9.55343 25.925 7.76082 25.3015 6.04616 24.5221C4.33149 23.7427 1.83729 20.2353 1.44758 18.7544C1.05788 17.2735 0.512332 18.2868 0.278509 14.6235C0.0446852 10.9603 1.29174 6.82941 2.46086 5.97206C3.62998 5.11471 4.17557 5.03677 6.04616 2.93235Z" fill="#FF9933" fill-opacity="0.1" stroke="#FF9933" stroke-width="0.467647"/>
</svg>
