<svg width="27" height="27" viewBox="0 0 27 27" fill="none" xmlns="http://www.w3.org/2000/svg">
<path d="M6.97585 3.06041C8.47232 1.37688 11.8082 0.904032 13.2891 0.878052C14.692 0.878052 17.8408 1.15864 19.2126 2.28099C20.9273 3.68394 21.0832 3.83982 22.7199 4.93099C24.3567 6.02217 25.5258 7.65894 26.2273 11.556C26.9288 15.4531 24.7464 16.3884 24.5905 18.1031C24.4346 19.8178 22.642 22.0001 20.6155 23.0134C18.589 24.0266 19.5243 24.6501 18.4332 24.6501C17.342 24.6501 17.4979 24.6501 16.0949 25.1178C14.692 25.5854 13.2891 25.7413 11.8861 25.8972C10.4831 26.0531 8.69051 25.4295 6.97585 24.6501C5.26118 23.8707 2.76698 20.3634 2.37727 18.8825C1.98757 17.4016 1.44202 18.4148 1.2082 14.7516C0.974373 11.0884 2.22143 6.95747 3.39055 6.10011C4.55967 5.24276 5.10526 5.16482 6.97585 3.06041Z" fill="#68DA80" fill-opacity="0.1" stroke="#68DA80" stroke-width="0.467647"/>
</svg>
