<svg width="27" height="27" viewBox="0 0 27 27" fill="none" xmlns="http://www.w3.org/2000/svg">
<path d="M2.47144 8.73561C2.75273 6.51258 5.24638 4.25416 6.45804 3.40284C7.61993 2.61656 10.3874 1.08253 12.1622 1.23661C14.3807 1.42921 14.5985 1.47002 16.575 1.44995C18.5515 1.42987 20.4512 2.12051 23.2499 4.93185C26.0486 7.74318 24.7735 9.73535 25.6202 11.2327C26.4669 12.73 26.2242 15.5292 25.1225 17.4981C24.0209 19.467 25.1503 19.4556 24.2466 20.0671C23.3429 20.6787 23.472 20.5913 22.5762 21.7621C21.6805 22.9329 20.6073 23.8474 19.5341 24.7619C18.4609 25.6763 16.6214 26.1683 14.7578 26.4884C12.8942 26.8085 8.83255 25.3223 7.66705 24.323C6.50156 23.3238 6.62636 24.4627 4.34802 21.5815C2.06968 18.7004 0.751657 14.6047 1.232 13.2445C1.71234 11.8843 2.11983 11.5144 2.47144 8.73561Z" fill="#68DA80" fill-opacity="0.1" stroke="#68DA80" stroke-width="0.467647"/>
</svg>
