<svg width="26" height="27" viewBox="0 0 26 27" fill="none" xmlns="http://www.w3.org/2000/svg">
<path d="M2.91103 6.63662C3.50715 4.46336 6.28781 2.56005 7.60362 1.88005C8.86106 1.25792 11.8075 0.11318 13.5338 0.511293C15.6916 1.00893 15.9004 1.07959 17.8504 1.33223C19.8004 1.58487 21.5727 2.53413 23.9263 5.7176C26.28 8.90107 24.7379 10.7075 25.3571 12.3142C25.9764 13.921 25.3356 16.6729 23.9677 18.4801C22.5999 20.2873 23.7142 20.4317 22.7362 20.9156C21.7581 21.3995 21.8979 21.3303 20.8474 22.3718C19.7969 23.4133 18.6085 24.1752 17.42 24.9371C16.2315 25.6991 14.3488 25.9349 12.467 25.9964C10.5852 26.0578 6.7972 24.0188 5.79244 22.8637C4.78769 21.7086 4.74719 22.8591 2.91621 19.6779C1.08522 16.4967 0.374562 12.2395 1.04296 10.9523C1.71136 9.66502 2.16587 9.35318 2.91103 6.63662Z" fill="#00B0F0" fill-opacity="0.1" stroke="#00B0F0" stroke-width="0.467647"/>
</svg>
