<svg width="27" height="27" viewBox="0 0 27 27" fill="none" xmlns="http://www.w3.org/2000/svg">
<path d="M6.42555 3.01609C7.92202 1.33256 11.2579 0.859721 12.7388 0.83374C14.1417 0.83374 17.2905 1.11433 18.6623 2.23668C20.377 3.63962 20.5329 3.79551 22.1696 4.88668C23.8064 5.97786 24.9755 7.61463 25.677 11.5117C26.3785 15.4087 24.1961 16.344 24.0402 18.0587C23.8843 19.7735 22.0917 21.9558 20.0652 22.969C18.0388 23.9823 18.974 24.6058 17.8829 24.6058C16.7917 24.6058 16.9476 24.6058 15.5446 25.0735C14.1417 25.5411 12.7388 25.697 11.3358 25.8529C9.93282 26.0088 8.14022 25.3852 6.42555 24.6058C4.71089 23.8264 2.21669 20.319 1.82698 18.8382C1.43727 17.3573 0.891727 18.3705 0.657903 14.7073C0.42408 11.044 1.67114 6.91315 2.84026 6.0558C4.00938 5.19845 4.55496 5.12051 6.42555 3.01609Z" fill="#68DA80" fill-opacity="0.1" stroke="#68DA80" stroke-width="0.467647"/>
</svg>
