<svg width="1" height="2" viewBox="0 0 1 2" fill="none" xmlns="http://www.w3.org/2000/svg">
<path fill-rule="evenodd" clip-rule="evenodd" d="M0.230469 0.580969C0.0982174 0.738924 0.137502 0.932275 0.1731 1.00987L0.174344 1.01258L0.175912 1.01512C0.225215 1.09486 0.309956 1.12566 0.379917 1.12559C0.41486 1.12555 0.450037 1.11791 0.478109 1.10124C0.50648 1.08439 0.532718 1.05435 0.531678 1.01195C0.531317 0.997227 0.530506 0.983445 0.529737 0.970352C0.525961 0.906137 0.523161 0.858514 0.57914 0.798084C0.62917 0.744077 0.653983 0.676536 0.657368 0.615682C0.66059 0.557735 0.644274 0.492309 0.593913 0.458666C0.556705 0.433811 0.504297 0.413086 0.4381 0.428726C0.374331 0.443793 0.305976 0.490786 0.230469 0.580969ZM0.25945 0.966918C0.232716 0.905976 0.206722 0.759449 0.30436 0.642835C0.37348 0.560281 0.425209 0.530796 0.460259 0.522514C0.492879 0.514807 0.518024 0.523866 0.540381 0.538801C0.549584 0.544949 0.563525 0.567557 0.561146 0.610331C0.558929 0.650197 0.542282 0.696063 0.508442 0.732593C0.422615 0.825245 0.428897 0.915441 0.433562 0.982415C0.434326 0.993385 0.435046 1.00373 0.435312 1.01336C0.434606 1.01431 0.432858 1.01603 0.428908 1.01837C0.419231 1.02412 0.402111 1.0292 0.379813 1.02922C0.336115 1.02927 0.287604 1.01028 0.25945 0.966918ZM0.435721 1.01254C0.435671 1.01254 0.435523 1.01275 0.435425 1.01321C0.435722 1.01278 0.435771 1.01255 0.435721 1.01254Z" fill="#E9EDED"/>
</svg>
