<svg width="26" height="27" viewBox="0 0 26 27" fill="none" xmlns="http://www.w3.org/2000/svg">
<path d="M2.26281 7.82043C2.6181 5.60618 5.18409 3.42914 6.42267 2.61741C7.60936 1.8691 10.4246 0.425577 12.192 0.637926C14.4012 0.903362 14.6173 0.951333 16.592 0.99611C18.5666 1.04089 20.4408 1.79401 23.1419 4.69775C25.843 7.60148 24.5028 9.55222 25.2984 11.0776C26.0939 12.6031 25.7579 15.3948 24.5918 17.328C23.4256 19.2611 24.554 19.2867 23.631 19.8688C22.708 20.4508 22.8399 20.3676 21.9061 21.5093C20.9723 22.6509 19.87 23.5304 18.7675 24.4098C17.6651 25.2893 15.8115 25.7209 13.9396 25.98C12.0677 26.239 8.06096 24.6192 6.93038 23.5815C5.79981 22.5438 5.88635 23.687 3.70731 20.7305C1.52826 17.774 0.348921 13.6343 0.874144 12.2895C1.39937 10.9448 1.81871 10.5882 2.26281 7.82043Z" fill="#68DA80" fill-opacity="0.1" stroke="#68DA80" stroke-width="0.467647"/>
</svg>
