<svg width="34" height="36" viewBox="0 0 34 36" fill="none" xmlns="http://www.w3.org/2000/svg">
<path d="M3.26185 9.0426C4.05618 6.14618 7.76435 3.61035 9.51915 2.70448C11.1961 1.87573 15.1257 0.351026 17.4284 0.882283C20.3067 1.54635 20.5851 1.6406 23.1861 1.97805C25.7872 2.31549 28.1515 3.58136 31.2919 7.82533C34.4324 12.0693 32.3762 14.4765 33.2028 16.6182C34.0293 18.76 33.1756 22.4277 31.3518 24.8359C29.528 27.2442 31.0143 27.437 29.71 28.0816C28.4057 28.7262 28.592 28.6341 27.1913 30.0219C25.7905 31.4097 24.2057 32.4248 22.6207 33.4399C21.0358 34.455 18.5247 34.7686 16.0147 34.8499C13.5047 34.9311 8.45158 32.212 7.11101 30.672C5.77044 29.1321 5.71684 30.6655 3.2735 26.4248C0.830157 22.1841 -0.119277 16.5095 0.771772 14.7941C1.66282 13.0786 2.26894 12.6631 3.26185 9.0426Z" fill="#00B0F0" fill-opacity="0.1" stroke="#00B0F0" stroke-width="0.62353"/>
</svg>
