<svg width="2" height="2" viewBox="0 0 2 2" fill="none" xmlns="http://www.w3.org/2000/svg">
<path fill-rule="evenodd" clip-rule="evenodd" d="M0.790449 0.662319C0.519118 0.576217 0.292613 0.727949 0.212121 0.814193L0.209309 0.817206L0.20689 0.820543C0.130854 0.92543 0.13598 1.04991 0.172809 1.13929C0.191205 1.18394 0.219447 1.22489 0.255489 1.25201C0.291917 1.27943 0.344096 1.29719 0.397745 1.2736C0.416371 1.26541 0.433561 1.25714 0.449891 1.24928C0.529985 1.21074 0.589384 1.18215 0.696015 1.22197C0.791313 1.25756 0.89067 1.25381 0.970227 1.22619C1.04598 1.19988 1.12104 1.14467 1.1376 1.06264C1.14983 1.00203 1.14881 0.924164 1.09406 0.847766C1.04132 0.774171 0.945362 0.711478 0.790449 0.662319ZM0.312363 0.902007C0.37622 0.835839 0.549855 0.725679 0.750171 0.789246C0.89198 0.834246 0.956828 0.884882 0.985816 0.925333C1.01279 0.962981 1.01442 0.999875 1.00707 1.03629C1.00404 1.05128 0.982466 1.08097 0.926545 1.10039C0.874425 1.11849 0.807061 1.12129 0.742602 1.09722C0.579116 1.03617 0.467129 1.09156 0.383975 1.13269C0.370355 1.13942 0.357509 1.14578 0.345337 1.15117C0.343761 1.15076 0.340641 1.14944 0.33557 1.14562C0.323144 1.13627 0.30767 1.11705 0.295931 1.08856C0.272927 1.03273 0.271724 0.960759 0.312363 0.902007ZM0.346602 1.15126C0.346585 1.1512 0.346233 1.15112 0.345598 1.15123C0.346302 1.15139 0.34662 1.15133 0.346602 1.15126Z" fill="#E9EDED"/>
</svg>
