<svg width="36" height="35" viewBox="0 0 36 35" fill="none" xmlns="http://www.w3.org/2000/svg">
<path d="M13.535 1.91644C16.1047 0.354063 20.5444 1.05051 22.443 1.59403C24.232 2.14029 28.1372 3.72387 29.4456 5.68805C31.081 8.14327 31.2186 8.40258 32.8771 10.4302C34.5357 12.4579 35.3836 14.9986 34.7471 20.2371C34.1107 25.4757 30.9603 25.8176 30.0879 27.9417C29.2155 30.0658 26.0722 32.1484 23.09 32.6504C20.1077 33.1523 21.0555 34.311 19.664 33.8861C18.2725 33.4612 18.4713 33.5219 16.4986 33.5715C14.5258 33.6211 12.6756 33.2734 10.8252 32.9258C8.97489 32.5781 6.93389 31.0856 5.05352 29.4249C3.17315 27.7642 1.37037 22.3241 1.45517 20.2855C1.53997 18.2469 0.446239 19.3255 1.58716 14.5669C2.72807 9.80838 5.94114 5.0306 7.76882 4.39344C9.5965 3.75627 10.3229 3.8694 13.535 1.91644Z" fill="#68DA80" fill-opacity="0.1" stroke="#68DA80" stroke-width="0.62353"/>
</svg>
