<svg width="26" height="26" viewBox="0 0 26 26" fill="none" xmlns="http://www.w3.org/2000/svg">
<path d="M6.30592 2.53904C7.8024 0.855513 11.1383 0.38267 12.6192 0.356689C14.0221 0.356689 17.1709 0.637278 18.5427 1.75963C20.2574 3.16257 20.4132 3.31846 22.05 4.40963C23.6868 5.50081 24.8559 7.13757 25.5574 11.0346C26.2588 14.9317 24.0765 15.867 23.9206 17.5817C23.7647 19.2964 21.9721 21.4788 19.9456 22.492C17.9191 23.5052 18.8544 24.1288 17.7632 24.1288C16.6721 24.1288 16.8279 24.1288 15.425 24.5964C14.0221 25.0641 12.6192 25.2199 11.2162 25.3758C9.81319 25.5317 8.02059 24.9082 6.30592 24.1288C4.59126 23.3493 2.09706 19.842 1.70735 18.3611C1.31764 16.8802 0.772098 17.8935 0.538275 14.2302C0.304451 10.567 1.55151 6.4361 2.72063 5.57875C3.88975 4.7214 4.43534 4.64346 6.30592 2.53904Z" fill="#00B0F0" fill-opacity="0.1" stroke="#00B0F0" stroke-width="0.467647"/>
</svg>
