<svg width="27" height="27" viewBox="0 0 27 27" fill="none" xmlns="http://www.w3.org/2000/svg">
<path d="M6.67555 3.26609C8.17202 1.58256 11.5079 1.10972 12.9888 1.08374C14.3917 1.08374 17.5405 1.36433 18.9123 2.48668C20.627 3.88962 20.7829 4.04551 22.4196 5.13668C24.0564 6.22786 25.2255 7.86463 25.927 11.7617C26.6285 15.6587 24.4461 16.594 24.2902 18.3087C24.1343 20.0235 22.3417 22.2058 20.3152 23.219C18.2888 24.2323 19.224 24.8558 18.1329 24.8558C17.0417 24.8558 17.1976 24.8558 15.7946 25.3235C14.3917 25.7911 12.9888 25.947 11.5858 26.1029C10.1828 26.2588 8.39022 25.6352 6.67555 24.8558C4.96089 24.0764 2.46669 20.569 2.07698 19.0882C1.68727 17.6073 1.14173 18.6205 0.907903 14.9573C0.67408 11.294 1.92114 7.16315 3.09026 6.3058C4.25938 5.44845 4.80496 5.37051 6.67555 3.26609Z" fill="#68DA80" fill-opacity="0.1" stroke="#68DA80" stroke-width="0.467647"/>
</svg>
