<svg width="2" height="3" viewBox="0 0 2 3" fill="none" xmlns="http://www.w3.org/2000/svg">
<path fill-rule="evenodd" clip-rule="evenodd" d="M1.35105 1.16681C1.08806 0.818445 0.716806 0.847183 0.562945 0.903588L0.557569 0.905558L0.55244 0.908318C0.391209 0.995065 0.312824 1.17722 0.295809 1.33553C0.287311 1.4146 0.292983 1.49657 0.317272 1.56527C0.34182 1.6347 0.39158 1.70342 0.471137 1.71425C0.498758 1.71802 0.524733 1.72047 0.549408 1.7228C0.670434 1.73423 0.760189 1.74271 0.859483 1.88817C0.948224 2.01816 1.06846 2.09532 1.18144 2.1219C1.28903 2.14722 1.4154 2.13065 1.49067 2.02718C1.54628 1.95072 1.59789 1.83859 1.58487 1.68395C1.57233 1.53498 1.5012 1.3657 1.35105 1.16681ZM0.622109 1.11232C0.742643 1.07079 1.02306 1.05756 1.21722 1.31475C1.35467 1.49682 1.39713 1.62303 1.40403 1.70491C1.41044 1.78112 1.38733 1.83519 1.35392 1.88113C1.34016 1.90004 1.29446 1.92455 1.21505 1.90586C1.14103 1.88844 1.05933 1.83651 0.999306 1.74858C0.847068 1.52557 0.676834 1.51172 0.550431 1.50144C0.529727 1.49976 0.510199 1.49817 0.492119 1.49578C0.490529 1.49389 0.487735 1.4894 0.484317 1.47973C0.475943 1.45605 0.470651 1.41573 0.476074 1.36527C0.486702 1.26639 0.534108 1.16253 0.622109 1.11232ZM0.493555 1.49696C0.49358 1.49685 0.493215 1.49645 0.492386 1.49608C0.493116 1.49689 0.493531 1.49707 0.493555 1.49696Z" fill="white"/>
</svg>
