<svg width="27" height="26" viewBox="0 0 27 26" fill="none" xmlns="http://www.w3.org/2000/svg">
<path d="M6.54616 2.84153C8.04263 1.158 11.3785 0.68516 12.8594 0.65918C14.2623 0.65918 17.4111 0.939768 18.7829 2.06212C20.4976 3.46506 20.6535 3.62095 22.2902 4.71212C23.927 5.8033 25.0961 7.44006 25.7976 11.3371C26.4991 15.2342 24.3167 16.1695 24.1608 17.8842C24.0049 19.5989 22.2123 21.7812 20.1858 22.7945C18.1594 23.8077 19.0947 24.4312 18.0035 24.4312C16.9123 24.4312 17.0682 24.4312 15.6652 24.8989C14.2623 25.3665 12.8594 25.5224 11.4564 25.6783C10.0534 25.8342 8.26082 25.2107 6.54616 24.4312C4.83149 23.6518 2.33729 20.1445 1.94758 18.6636C1.55788 17.1827 1.01233 18.196 0.778509 14.5327C0.544685 10.8695 1.79174 6.73859 2.96086 5.88124C4.12998 5.02389 4.67557 4.94595 6.54616 2.84153Z" fill="#68DA80" fill-opacity="0.1" stroke="#68DA80" stroke-width="0.467647"/>
</svg>
