<svg width="35" height="35" viewBox="0 0 35 35" fill="none" xmlns="http://www.w3.org/2000/svg">
<path d="M8.22382 3.2527C10.2191 1.00799 14.667 0.377536 16.6415 0.342896C18.512 0.342896 22.7104 0.717013 24.5395 2.21348C26.8257 4.08407 27.0336 4.29192 29.2159 5.74682C31.3983 7.20172 32.9571 9.38408 33.8924 14.5802C34.8277 19.7762 31.9179 21.0233 31.71 23.3096C31.5022 25.5958 29.112 28.5057 26.41 29.8566C23.7081 31.2076 24.9551 32.039 23.5002 32.039C22.0453 32.039 22.2532 32.039 20.3826 32.6625C18.512 33.286 16.6415 33.4939 14.7708 33.7017C12.9002 33.9096 10.51 33.0782 8.22382 32.039C5.9376 30.9998 2.61199 26.3233 2.09239 24.3488C1.57278 22.3743 0.845382 23.7253 0.533617 18.8409C0.221852 13.9566 1.8846 8.44878 3.44342 7.30564C5.00225 6.16251 5.7297 6.05858 8.22382 3.2527Z" fill="#FF9933" fill-opacity="0.1" stroke="#FF9933" stroke-width="0.62353"/>
</svg>
