<svg width="27" height="26" viewBox="0 0 27 26" fill="none" xmlns="http://www.w3.org/2000/svg">
<path d="M6.79616 2.68235C8.29263 0.998824 11.6285 0.52598 13.1094 0.5C14.5123 0.5 17.6611 0.780588 19.0329 1.90294C20.7476 3.30588 20.9035 3.46177 22.5402 4.55294C24.177 5.64412 25.3461 7.28089 26.0476 11.1779C26.7491 15.075 24.5667 16.0103 24.4108 17.725C24.2549 19.4397 22.4623 21.6221 20.4358 22.6353C18.4094 23.6485 19.3447 24.2721 18.2535 24.2721C17.1623 24.2721 17.3182 24.2721 15.9152 24.7397C14.5123 25.2074 13.1094 25.3632 11.7064 25.5191C10.3034 25.675 8.51082 25.0515 6.79616 24.2721C5.08149 23.4927 2.58729 19.9853 2.19758 18.5044C1.80788 17.0235 1.26233 18.0368 1.02851 14.3735C0.794685 10.7103 2.04174 6.57941 3.21086 5.72206C4.37998 4.86471 4.92557 4.78677 6.79616 2.68235Z" fill="#00B0F0" fill-opacity="0.1" stroke="#00B0F0" stroke-width="0.467647"/>
</svg>
