<svg width="27" height="27" viewBox="0 0 27 27" fill="none" xmlns="http://www.w3.org/2000/svg">
<path d="M3.16567 7.39095C3.76092 5.21984 6.54266 3.3198 7.85912 2.64118C9.1172 2.02033 12.0653 0.878361 13.7933 1.27722C15.9532 1.7758 16.1621 1.84653 18.1139 2.10018C20.0656 2.35383 21.84 3.30342 24.1975 6.48576C26.555 9.66811 25.0129 11.4721 25.6336 13.0779C26.2543 14.6837 25.6147 17.433 24.2469 19.2379C22.8791 21.0428 23.9943 21.1877 23.0158 21.6706C22.0373 22.1535 22.1771 22.0845 21.1264 23.1245C20.0758 24.1645 18.8868 24.925 17.6979 25.6856C16.5089 26.4462 14.6248 26.6806 12.7415 26.7409C10.8581 26.8011 7.06583 24.7614 6.05953 23.6066C5.05324 22.4518 5.01343 23.6014 3.17897 20.4216C1.34451 17.2419 0.630622 12.9877 1.29876 11.7019C1.96691 10.4161 2.42159 10.1048 3.16567 7.39095Z" fill="#00B0F0" fill-opacity="0.1" stroke="#00B0F0" stroke-width="0.467647"/>
</svg>
