<svg width="26" height="26" viewBox="0 0 26 26" fill="none" xmlns="http://www.w3.org/2000/svg">
<path d="M18.677 23.5471C17.0334 25.0869 13.6683 25.2529 12.1913 25.1435C10.7942 25.0153 7.68417 24.4481 6.42046 23.2051C4.84083 21.6513 4.69981 21.4818 3.16937 20.2456C1.63893 19.0094 0.623924 17.2726 0.280671 13.3277C-0.0625847 9.38276 2.19591 8.65078 2.50746 6.95746C2.81901 5.26414 4.80312 3.25468 6.91349 2.43085C9.02385 1.60701 8.14931 0.900608 9.23593 1.00032C10.3225 1.10003 10.1673 1.08578 11.607 0.748284C13.0467 0.410784 14.458 0.383747 15.8693 0.356716C17.2806 0.329686 19.0089 1.11443 20.6453 2.04728C22.2817 2.98013 24.4458 6.7008 24.6988 8.21112C24.9519 9.72145 25.5875 8.76228 25.4864 12.4316C25.3853 16.101 23.7669 20.1007 22.5245 20.8477C21.2821 21.5946 20.7317 21.6224 18.677 23.5471Z" fill="#00B0F0" fill-opacity="0.1" stroke="#00B0F0" stroke-width="0.467647"/>
</svg>
