<svg width="2" height="2" viewBox="0 0 2 2" fill="none" xmlns="http://www.w3.org/2000/svg">
<path fill-rule="evenodd" clip-rule="evenodd" d="M0.939154 0.25369C1.34217 0.311715 1.53941 0.648117 1.58938 0.809289L1.59113 0.81492L1.59216 0.820723C1.62479 1.00313 1.5407 1.16025 1.43763 1.25242C1.38615 1.29846 1.32428 1.33362 1.26098 1.34612C1.197 1.35875 1.11875 1.34914 1.06435 1.28536C1.04546 1.26321 1.02847 1.24186 1.01233 1.22158C0.933183 1.12208 0.874483 1.04829 0.712375 1.0332C0.567496 1.0197 0.441878 0.953025 0.356622 0.867923C0.275438 0.786886 0.213147 0.669065 0.24289 0.553116C0.264866 0.46745 0.314662 0.367813 0.432726 0.303509C0.546458 0.241564 0.709056 0.220561 0.939154 0.25369ZM1.40562 0.859973C1.36458 0.735012 1.20955 0.485058 0.91201 0.442219C0.701376 0.411893 0.586344 0.436733 0.523832 0.47078C0.465653 0.502468 0.440594 0.54897 0.42739 0.600444C0.421954 0.621635 0.431259 0.673298 0.491185 0.733116C0.547038 0.788869 0.632043 0.834416 0.730038 0.843543C0.978582 0.866692 1.08832 1.00773 1.1698 1.11246C1.18315 1.12961 1.19574 1.14579 1.20805 1.16032C1.21033 1.16078 1.21518 1.16101 1.22409 1.15925C1.24591 1.15494 1.2778 1.13983 1.31065 1.11045C1.37503 1.05287 1.42138 0.960932 1.40562 0.859973ZM1.20636 1.15965C1.20643 1.15958 1.20693 1.1597 1.20768 1.16024C1.20667 1.16 1.2063 1.15973 1.20636 1.15965Z" fill="#E9EDED"/>
</svg>
