<svg width="26" height="26" viewBox="0 0 26 26" fill="none" xmlns="http://www.w3.org/2000/svg">
<path d="M6.16823 2.43956C7.6647 0.756026 11.0006 0.283183 12.4815 0.257202C13.8844 0.257202 17.0332 0.537791 18.405 1.66014C20.1197 3.06309 20.2755 3.21897 21.9123 4.31014C23.5491 5.40132 24.7182 7.03809 25.4197 10.9351C26.1211 14.8322 23.9388 15.7675 23.7829 17.4822C23.627 19.1969 21.8344 21.3793 19.8079 22.3925C17.7814 23.4057 18.7167 24.0293 17.6255 24.0293C16.5344 24.0293 16.6903 24.0293 15.2873 24.4969C13.8844 24.9646 12.4815 25.1204 11.0785 25.2763C9.6755 25.4322 7.88289 24.8087 6.16823 24.0293C4.45356 23.2499 1.95936 19.7425 1.56966 18.2616C1.17995 16.7807 0.634403 17.794 0.400579 14.1307C0.166756 10.4675 1.41381 6.33662 2.58293 5.47926C3.75205 4.62191 4.29764 4.54397 6.16823 2.43956Z" fill="#FF9933" fill-opacity="0.1" stroke="#FF9933" stroke-width="0.467647"/>
</svg>
