<svg width="26" height="27" viewBox="0 0 26 27" fill="none" xmlns="http://www.w3.org/2000/svg">
<path d="M2.85153 6.51897C3.45177 4.33545 6.22715 2.41634 7.53981 1.72973C8.79415 1.10138 11.7324 -0.0566981 13.4507 0.337763C15.5986 0.830839 15.8063 0.90114 17.7479 1.14889C19.6895 1.39664 21.452 2.34425 23.787 5.53303C26.1219 8.72181 24.5805 10.54 25.1926 12.1511C25.8046 13.7622 25.1581 16.5267 23.7903 18.3451C22.4225 20.1635 23.5319 20.3051 22.5563 20.7938C21.5807 21.2825 21.7201 21.2127 20.6707 22.2614C19.6212 23.3101 18.4352 24.0786 17.2491 24.8471C16.063 25.6156 14.187 25.858 12.3124 25.9253C10.4378 25.9927 6.6708 23.9572 5.67342 22.8006C4.67605 21.644 4.63229 22.7991 2.81795 19.6111C1.00361 16.423 0.308388 12.1514 0.977983 10.8571C1.64758 9.56279 2.10123 9.24838 2.85153 6.51897Z" fill="#00B0F0" fill-opacity="0.1" stroke="#00B0F0" stroke-width="0.467647"/>
</svg>
