<svg width="27" height="26" viewBox="0 0 27 26" fill="none" xmlns="http://www.w3.org/2000/svg">
<path d="M6.67555 2.76609C8.17202 1.08256 11.5079 0.609721 12.9888 0.58374C14.3917 0.58374 17.5405 0.864329 18.9123 1.98668C20.627 3.38962 20.7829 3.54551 22.4196 4.63668C24.0564 5.72786 25.2255 7.36463 25.927 11.2617C26.6285 15.1587 24.4461 16.094 24.2902 17.8087C24.1343 19.5235 22.3417 21.7058 20.3152 22.719C18.2888 23.7323 19.224 24.3558 18.1329 24.3558C17.0417 24.3558 17.1976 24.3558 15.7946 24.8235C14.3917 25.2911 12.9888 25.447 11.5858 25.6029C10.1828 25.7588 8.39022 25.1352 6.67555 24.3558C4.96089 23.5764 2.46669 20.069 2.07698 18.5882C1.68727 17.1073 1.14173 18.1205 0.907903 14.4573C0.67408 10.794 1.92114 6.66315 3.09026 5.8058C4.25938 4.94845 4.80496 4.87051 6.67555 2.76609Z" fill="#68DA80" fill-opacity="0.1" stroke="#68DA80" stroke-width="0.467647"/>
</svg>
