<svg width="27" height="27" viewBox="0 0 27 27" fill="none" xmlns="http://www.w3.org/2000/svg">
<path d="M6.54616 2.93235C8.04263 1.24882 11.3785 0.77598 12.8594 0.75C14.2623 0.75 17.4111 1.03059 18.7829 2.15294C20.4976 3.55588 20.6535 3.71177 22.2902 4.80294C23.927 5.89412 25.0961 7.53089 25.7976 11.4279C26.4991 15.325 24.3167 16.2603 24.1608 17.975C24.0049 19.6897 22.2123 21.8721 20.1858 22.8853C18.1594 23.8985 19.0947 24.5221 18.0035 24.5221C16.9123 24.5221 17.0682 24.5221 15.6652 24.9897C14.2623 25.4574 12.8594 25.6132 11.4564 25.7691C10.0534 25.925 8.26082 25.3015 6.54616 24.5221C4.83149 23.7427 2.33729 20.2353 1.94758 18.7544C1.55788 17.2735 1.01233 18.2868 0.778509 14.6235C0.544685 10.9603 1.79174 6.82941 2.96086 5.97206C4.12998 5.11471 4.67557 5.03677 6.54616 2.93235Z" fill="#00B0F0" fill-opacity="0.1" stroke="#00B0F0" stroke-width="0.467647"/>
</svg>
