<svg width="3" height="2" viewBox="0 0 3 2" fill="none" xmlns="http://www.w3.org/2000/svg">
<path fill-rule="evenodd" clip-rule="evenodd" d="M1.72052 0.21667C1.35874 0.101867 1.05674 0.304176 0.949413 0.419168L0.945664 0.423186L0.942438 0.427635C0.841057 0.567484 0.847892 0.733461 0.896998 0.852636C0.921525 0.91216 0.959181 0.966758 1.00724 1.00293C1.05581 1.03949 1.12538 1.06317 1.19691 1.03171C1.22175 1.02079 1.24467 1.00976 1.26644 0.999281C1.37323 0.947892 1.45243 0.90978 1.59461 0.962874C1.72167 1.01033 1.85415 1.00533 1.96022 0.968493C2.06123 0.933418 2.16131 0.859807 2.18338 0.75043C2.1997 0.66962 2.19833 0.565797 2.12533 0.463932C2.05501 0.365806 1.92707 0.282214 1.72052 0.21667ZM1.08307 0.536253C1.16821 0.44803 1.39972 0.30115 1.66681 0.385905C1.85589 0.445906 1.94236 0.51342 1.98101 0.567355C2.01698 0.617551 2.01914 0.666745 2.00934 0.715301C2.00531 0.73529 1.97654 0.774874 1.90198 0.800765C1.83249 0.824897 1.74267 0.828637 1.65672 0.796542C1.43874 0.715138 1.28942 0.788988 1.17855 0.843825C1.16039 0.852806 1.14326 0.861278 1.12703 0.868473C1.12493 0.86793 1.12077 0.866159 1.11401 0.861069C1.09744 0.848599 1.07681 0.822976 1.06116 0.784993C1.03049 0.710555 1.02888 0.614589 1.08307 0.536253ZM1.12872 0.868596C1.1287 0.868506 1.12823 0.868404 1.12738 0.868557C1.12832 0.868762 1.12874 0.868685 1.12872 0.868596Z" fill="#E9EDED"/>
</svg>
