<svg width="35" height="34" viewBox="0 0 35 34" fill="none" xmlns="http://www.w3.org/2000/svg">
<path d="M25.5694 31.3961C23.3778 33.4491 18.8911 33.6705 16.9217 33.5246C15.0589 33.3537 10.9122 32.5975 9.22728 30.9401C7.12111 28.8684 6.93308 28.6424 4.8925 26.9941C2.85191 25.3459 1.49857 23.0302 1.04089 17.7703C0.583223 12.5104 3.59454 11.5344 4.00995 9.27662C4.42535 7.01885 7.07083 4.33958 9.88465 3.24113C12.6985 2.14268 11.5324 1.20081 12.9812 1.33376C14.4301 1.46671 14.2231 1.44771 16.1427 0.997715C18.0623 0.547713 19.9439 0.511662 21.8257 0.475622C23.7075 0.439582 26.0118 1.4859 28.1937 2.7297C30.3757 3.97351 33.261 8.93439 33.5984 10.9482C33.9359 12.9619 34.7834 11.683 34.6485 16.5755C34.5137 21.468 32.3558 26.8009 30.6993 27.7969C29.0428 28.7928 28.3089 28.8298 25.5694 31.3961Z" fill="#00B0F0" fill-opacity="0.1" stroke="#00B0F0" stroke-width="0.62353"/>
</svg>
