<svg width="35" height="36" viewBox="0 0 35 36" fill="none" xmlns="http://www.w3.org/2000/svg">
<path d="M5.22042 6.7301C6.57544 4.05383 10.7161 2.31547 12.6171 1.78082C14.4264 1.30604 18.5832 0.60205 20.7356 1.58437C23.4261 2.81226 23.6804 2.96042 26.1639 3.81287C28.6474 4.66532 30.7142 6.37922 32.9497 11.1646C35.1853 15.9499 32.6902 17.894 33.0747 20.1567C33.4593 22.4195 31.8926 25.8389 29.6252 27.8306C27.3577 29.8223 28.7769 30.3094 27.3696 30.6787C25.9624 31.048 26.1634 30.9952 24.5138 32.0728C22.8642 33.1503 21.1081 33.826 19.352 34.5017C17.5958 35.1774 15.071 34.9804 12.5935 34.5561C10.116 34.1319 5.70146 30.4555 4.69314 28.6787C3.68481 26.902 3.32727 28.3925 1.77469 23.7502C0.222108 19.108 0.419674 13.3618 1.63466 11.8612C2.84964 10.3605 3.52665 10.0754 5.22042 6.7301Z" fill="#68DA80" fill-opacity="0.1" stroke="#68DA80" stroke-width="0.62353"/>
</svg>
