<svg width="5" height="6" viewBox="0 0 5 6" fill="none" xmlns="http://www.w3.org/2000/svg">
<path fill-rule="evenodd" clip-rule="evenodd" d="M3.03343 1.33289C4.16094 2.21992 4.17014 3.59385 4.03868 4.17366L4.03409 4.19392L4.02703 4.21345C3.80524 4.8275 3.27186 5.15877 2.79498 5.25846C2.55679 5.30825 2.30611 5.30653 2.09093 5.23315C1.87346 5.15898 1.65162 4.9918 1.59798 4.70135C1.57936 4.60052 1.56514 4.50543 1.55164 4.41511C1.4854 3.97208 1.43627 3.64353 0.968232 3.31188C0.549935 3.01548 0.284102 2.59073 0.173882 2.18086C0.0689274 1.79058 0.0864191 1.32134 0.381439 1.01994C0.599405 0.797263 0.926877 0.580965 1.40041 0.592743C1.85656 0.604089 2.3897 0.826448 3.03343 1.33289ZM3.38869 4.0046C3.4836 3.551 3.45089 2.5152 2.61848 1.86033C2.0292 1.39673 1.63444 1.26987 1.38372 1.26364C1.15038 1.25783 0.991993 1.35558 0.861024 1.48938C0.807107 1.54446 0.744485 1.71849 0.821958 2.00659C0.894165 2.2751 1.0733 2.56383 1.35623 2.76431C2.07383 3.27279 2.1602 3.89647 2.22433 4.35957C2.23484 4.43542 2.24475 4.50696 2.25673 4.57299C2.2629 4.5784 2.27727 4.58764 2.30755 4.59797C2.38173 4.62327 2.50567 4.63333 2.65766 4.60156C2.95553 4.53929 3.25893 4.34042 3.38869 4.0046ZM2.25277 4.56798C2.2531 4.56786 2.25441 4.56911 2.25573 4.57208C2.2531 4.56958 2.25244 4.56809 2.25277 4.56798Z" fill="#E9EDED"/>
</svg>
