<svg width="27" height="26" viewBox="0 0 27 26" fill="none" xmlns="http://www.w3.org/2000/svg">
<path d="M6.54616 2.43235C8.04263 0.748824 11.3785 0.27598 12.8594 0.25C14.2623 0.25 17.4111 0.530588 18.7829 1.65294C20.4976 3.05588 20.6535 3.21177 22.2902 4.30294C23.927 5.39412 25.0961 7.03089 25.7976 10.9279C26.4991 14.825 24.3167 15.7603 24.1608 17.475C24.0049 19.1897 22.2123 21.3721 20.1858 22.3853C18.1594 23.3985 19.0947 24.0221 18.0035 24.0221C16.9123 24.0221 17.0682 24.0221 15.6652 24.4897C14.2623 24.9574 12.8594 25.1132 11.4564 25.2691C10.0534 25.425 8.26082 24.8015 6.54616 24.0221C4.83149 23.2427 2.33729 19.7353 1.94758 18.2544C1.55788 16.7735 1.01233 17.7868 0.778509 14.1235C0.544685 10.4603 1.79174 6.32941 2.96086 5.47206C4.12998 4.61471 4.67557 4.53677 6.54616 2.43235Z" fill="#00B0F0" fill-opacity="0.1" stroke="#00B0F0" stroke-width="0.467647"/>
</svg>
