<svg width="35" height="35" viewBox="0 0 35 35" fill="none" xmlns="http://www.w3.org/2000/svg">
<path d="M8.72821 4.0309C10.7235 1.78619 15.1713 1.15573 17.1459 1.12109C19.0164 1.12109 23.2148 1.49521 25.0438 2.99168C27.3301 4.86227 27.538 5.07011 29.7203 6.52502C31.9027 7.97992 33.4615 10.1623 34.3968 15.3584C35.3321 20.5544 32.4223 21.8015 32.2144 24.0878C32.0066 26.374 29.6164 29.2838 26.9144 30.6348C24.2125 31.9858 25.4595 32.8172 24.0046 32.8172C22.5497 32.8172 22.7576 32.8172 20.887 33.4407C19.0164 34.0642 17.1459 34.2721 15.2752 34.4799C13.4046 34.6878 11.0144 33.8564 8.72821 32.8172C6.44199 31.778 3.11639 27.1015 2.59678 25.127C2.07717 23.1525 1.34978 24.5035 1.03801 19.6191C0.726247 14.7348 2.38899 9.22698 3.94782 8.08384C5.50664 6.9407 6.23409 6.83678 8.72821 4.0309Z" fill="#FF9933" fill-opacity="0.1" stroke="#FF9933" stroke-width="0.62353"/>
</svg>
