<svg width="26" height="27" viewBox="0 0 26 27" fill="none" xmlns="http://www.w3.org/2000/svg">
<path d="M6.04274 2.99278C7.53921 1.30925 10.8751 0.836405 12.356 0.810425C13.7589 0.810425 16.9077 1.09101 18.2795 2.21337C19.9942 3.61631 20.1501 3.77219 21.7868 4.86337C23.4236 5.95454 24.5927 7.59131 25.2942 11.4884C25.9956 15.3854 23.8133 16.3207 23.6574 18.0354C23.5015 19.7501 21.7089 21.9325 19.6824 22.9457C17.6559 23.959 18.5912 24.5825 17.5001 24.5825C16.4089 24.5825 16.5648 24.5825 15.1618 25.0501C13.7589 25.5178 12.356 25.6737 10.953 25.8296C9.55001 25.9854 7.7574 25.3619 6.04274 24.5825C4.32808 23.8031 1.83387 20.2957 1.44417 18.8148C1.05446 17.334 0.508915 18.3472 0.275091 14.684C0.0412673 11.0207 1.28833 6.88984 2.45744 6.03249C3.62656 5.17513 4.17215 5.09719 6.04274 2.99278Z" fill="#FF9933" fill-opacity="0.1" stroke="#FF9933" stroke-width="0.467647"/>
</svg>
