<svg width="27" height="27" viewBox="0 0 27 27" fill="none" xmlns="http://www.w3.org/2000/svg">
<path d="M19.4274 24.2985C17.7833 25.8386 14.4181 26.0054 12.941 25.8963C11.5439 25.7684 8.43388 25.202 7.1704 23.9593C5.59106 22.406 5.45008 22.2365 3.91986 21.0007C2.38964 19.7649 1.37499 18.0285 1.03263 14.0838C0.690269 10.1391 2.94903 9.40662 3.26098 7.7133C3.57294 6.01998 5.55759 4.01015 7.66824 3.18586C9.77888 2.36157 8.90448 1.6554 9.99111 1.75486C11.0777 1.85431 10.9225 1.8401 12.3624 1.50229C13.8022 1.16447 15.2135 1.13711 16.6249 1.10975C18.0363 1.0824 19.7644 1.86671 21.4007 2.79914C23.037 3.73157 25.2003 7.45158 25.453 8.96179C25.7057 10.472 26.3416 9.51272 26.2397 13.1819C26.1377 16.8512 24.5183 20.8511 23.2756 21.5983C22.033 22.3455 21.4826 22.3734 19.4274 24.2985Z" fill="#00B0F0" fill-opacity="0.1" stroke="#00B0F0" stroke-width="0.467647"/>
</svg>
