<svg width="4" height="4" viewBox="0 0 4 4" fill="none" xmlns="http://www.w3.org/2000/svg">
<path fill-rule="evenodd" clip-rule="evenodd" d="M1.54211 0.70833C0.633034 1.04031 0.3387 1.91921 0.301257 2.31853L0.299949 2.33248L0.300372 2.34649C0.31365 2.78672 0.586061 3.11107 0.870864 3.27509C1.01311 3.35702 1.17419 3.40854 1.32754 3.40667C1.48254 3.40478 1.65985 3.34417 1.75522 3.16922C1.78833 3.10849 1.8174 3.05051 1.84502 2.99544C1.9805 2.72532 2.08097 2.52499 2.45066 2.41063C2.78105 2.30842 3.04065 2.09192 3.19736 1.85229C3.34658 1.62411 3.43388 1.31961 3.30801 1.06444C3.21502 0.875925 3.05048 0.668507 2.74443 0.576648C2.4496 0.48816 2.06113 0.518791 1.54211 0.70833ZM0.753459 2.34659C0.787842 2.03587 1.02626 1.37868 1.6974 1.13359C2.17252 0.96008 2.45223 0.961627 2.61428 1.01026C2.7651 1.05553 2.84612 1.15145 2.90199 1.26472C2.925 1.31135 2.92861 1.43607 2.81846 1.60451C2.7158 1.76149 2.54034 1.90899 2.31686 1.97813C1.75005 2.15347 1.56375 2.53518 1.42541 2.81861C1.40276 2.86503 1.38138 2.90882 1.35984 2.94863C1.35475 2.95081 1.3436 2.95372 1.32202 2.95398C1.26915 2.95462 1.18758 2.93506 1.09681 2.88278C0.918914 2.78033 0.76615 2.58913 0.753459 2.34659ZM1.36343 2.94625C1.36325 2.94611 1.36214 2.94663 1.36067 2.94826C1.36289 2.94721 1.36362 2.9464 1.36343 2.94625Z" fill="#E9EDED"/>
</svg>
