<svg width="2" height="3" viewBox="0 0 2 3" fill="none" xmlns="http://www.w3.org/2000/svg">
<path fill-rule="evenodd" clip-rule="evenodd" d="M1.04162 0.839996C1.57016 0.916094 1.82883 1.35727 1.89436 1.56864L1.89665 1.57603L1.89801 1.58364C1.9408 1.82286 1.83051 2.02891 1.69534 2.1498C1.62783 2.21018 1.5467 2.25628 1.46368 2.27267C1.37978 2.28924 1.27715 2.27663 1.2058 2.19299C1.18103 2.16395 1.15876 2.13594 1.13759 2.10934C1.03379 1.97886 0.956803 1.88209 0.744205 1.86229C0.554202 1.84459 0.389459 1.75715 0.277649 1.64554C0.17118 1.53926 0.0894871 1.38474 0.128495 1.23268C0.157314 1.12033 0.222621 0.989663 0.377457 0.90533C0.526611 0.824093 0.739853 0.796549 1.04162 0.839996ZM1.65337 1.63511C1.59955 1.47123 1.39623 1.14343 1.00602 1.08724C0.72978 1.04747 0.57892 1.08005 0.496938 1.1247C0.420639 1.16626 0.387776 1.22724 0.370459 1.29475C0.36333 1.32254 0.375533 1.3903 0.454123 1.46874C0.527373 1.54186 0.638854 1.6016 0.76737 1.61357C1.09333 1.64392 1.23724 1.82889 1.3441 1.96624C1.3616 1.98874 1.37811 2.00995 1.39427 2.02901C1.39726 2.0296 1.40361 2.02991 1.4153 2.0276C1.44392 2.02195 1.48574 2.00213 1.52882 1.9636C1.61325 1.88809 1.67404 1.76752 1.65337 1.63511ZM1.39205 2.02813C1.39214 2.02803 1.3928 2.02819 1.39377 2.0289C1.39246 2.02858 1.39197 2.02823 1.39205 2.02813Z" fill="#E9EDED"/>
</svg>
