<svg width="2" height="2" viewBox="0 0 2 2" fill="none" xmlns="http://www.w3.org/2000/svg">
<path fill-rule="evenodd" clip-rule="evenodd" d="M1.56752 0.368964C1.93954 0.601771 1.93764 0.968547 1.8918 1.12381L1.89019 1.12924L1.88777 1.13448C1.81175 1.2992 1.63305 1.38954 1.47399 1.41786C1.39454 1.432 1.31112 1.43243 1.23978 1.4136C1.16768 1.39458 1.09445 1.35073 1.07765 1.27338C1.07182 1.24653 1.06743 1.22119 1.06326 1.19712C1.04282 1.07908 1.02766 0.991539 0.873099 0.904661C0.734966 0.827017 0.648034 0.714564 0.612835 0.605531C0.579318 0.501707 0.586834 0.376367 0.686102 0.294851C0.759444 0.234625 0.869204 0.175713 1.02675 0.177172C1.17851 0.178578 1.35513 0.236046 1.56752 0.368964ZM1.6761 1.08099C1.70932 0.959549 1.70218 0.683131 1.42753 0.511255C1.2331 0.389581 1.10218 0.357118 1.01877 0.356345C0.941136 0.355626 0.888075 0.382287 0.844007 0.418474C0.825865 0.433372 0.804396 0.480058 0.829137 0.556696C0.852197 0.628126 0.910768 0.704574 1.0042 0.757092C1.24117 0.890292 1.26766 1.05649 1.28733 1.1799C1.29055 1.20012 1.29359 1.21918 1.29734 1.23677C1.29937 1.23819 1.30412 1.2406 1.31416 1.24325C1.33876 1.24974 1.37997 1.25199 1.43066 1.24297C1.53001 1.22528 1.6317 1.17111 1.6761 1.08099ZM1.29604 1.23544C1.29615 1.23541 1.29658 1.23574 1.29701 1.23653C1.29614 1.23587 1.29593 1.23547 1.29604 1.23544Z" fill="white"/>
</svg>
