<svg width="27" height="27" viewBox="0 0 27 27" fill="none" xmlns="http://www.w3.org/2000/svg">
<path d="M18.8636 2.44149C21.0969 2.77063 23.3288 5.29735 24.1656 6.51957C24.9378 7.6909 26.4358 10.4733 26.251 12.2321C26.0199 14.4307 25.9752 14.646 25.9623 16.6091C25.9494 18.5722 25.2223 20.443 22.3451 23.159C19.4679 25.875 17.4836 24.5642 15.962 25.3714C14.4404 26.1786 11.6263 25.8748 9.66259 24.7368C7.69884 23.5987 7.69147 24.7205 7.09092 23.8094C6.49037 22.8984 6.57617 23.0285 5.41244 22.1128C4.24871 21.1971 3.34607 20.111 2.44338 19.0248C1.54069 17.9387 1.07621 16.1011 0.785161 14.2435C0.494111 12.3858 2.05831 8.38603 3.08386 7.25114C4.10941 6.11624 2.96071 6.21464 5.89948 4.01692C8.83825 1.81919 12.9836 0.602251 14.345 1.1097C15.7064 1.61715 16.0719 2.03007 18.8636 2.44149Z" fill="#68DA80" fill-opacity="0.1" stroke="#68DA80" stroke-width="0.467647"/>
</svg>
