<svg width="27" height="26" viewBox="0 0 27 26" fill="none" xmlns="http://www.w3.org/2000/svg">
<path d="M6.54616 2.59153C8.04263 0.908003 11.3785 0.43516 12.8594 0.40918C14.2623 0.40918 17.4111 0.689768 18.7829 1.81212C20.4976 3.21506 20.6535 3.37095 22.2902 4.46212C23.927 5.5533 25.0961 7.19006 25.7976 11.0871C26.4991 14.9842 24.3167 15.9195 24.1608 17.6342C24.0049 19.3489 22.2123 21.5312 20.1858 22.5445C18.1594 23.5577 19.0947 24.1812 18.0035 24.1812C16.9123 24.1812 17.0682 24.1812 15.6652 24.6489C14.2623 25.1165 12.8594 25.2724 11.4564 25.4283C10.0534 25.5842 8.26082 24.9607 6.54616 24.1812C4.83149 23.4018 2.33729 19.8945 1.94758 18.4136C1.55788 16.9327 1.01233 17.946 0.778509 14.2827C0.544685 10.6195 1.79174 6.48859 2.96086 5.63124C4.12998 4.77389 4.67557 4.69595 6.54616 2.59153Z" fill="#68DA80" fill-opacity="0.1" stroke="#68DA80" stroke-width="0.467647"/>
</svg>
