<svg width="26" height="27" viewBox="0 0 26 27" fill="none" xmlns="http://www.w3.org/2000/svg">
<path d="M6.12917 3.18248C7.62564 1.49895 10.9615 1.0261 12.4424 1.00012C13.8453 1.00012 16.9941 1.28071 18.3659 2.40306C20.0806 3.80601 20.2365 3.96189 21.8732 5.05306C23.51 6.14424 24.6791 7.78101 25.3806 11.6781C26.0821 15.5751 23.8997 16.5104 23.7438 18.2251C23.588 19.9398 21.7953 22.1222 19.7688 23.1354C17.7424 24.1487 18.6777 24.7722 17.5865 24.7722C16.4953 24.7722 16.6512 24.7722 15.2482 25.2398C13.8453 25.7075 12.4424 25.8634 11.0394 26.0193C9.63644 26.1751 7.84383 25.5516 6.12917 24.7722C4.4145 23.9928 1.9203 20.4854 1.53059 19.0045C1.14089 17.5237 0.59534 18.5369 0.361517 14.8737C0.127693 11.2104 1.37475 7.07954 2.54387 6.22218C3.71299 5.36483 4.25858 5.28689 6.12917 3.18248Z" fill="#00B0F0" fill-opacity="0.1" stroke="#00B0F0" stroke-width="0.467647"/>
</svg>
