<svg width="26" height="26" viewBox="0 0 26 26" fill="none" xmlns="http://www.w3.org/2000/svg">
<path d="M6.29616 2.52317C7.79263 0.839644 11.1285 0.366801 12.6094 0.34082C14.0123 0.34082 17.1611 0.621409 18.5329 1.74376C20.2476 3.1467 20.4035 3.30259 22.0402 4.39376C23.677 5.48494 24.8461 7.12171 25.5476 11.0188C26.2491 14.9158 24.0667 15.8511 23.9108 17.5658C23.7549 19.2805 21.9623 21.4629 19.9358 22.4761C17.9094 23.4894 18.8447 24.1129 17.7535 24.1129C16.6623 24.1129 16.8182 24.1129 15.4152 24.5805C14.0123 25.0482 12.6094 25.2041 11.2064 25.3599C9.80343 25.5158 8.01082 24.8923 6.29616 24.1129C4.58149 23.3335 2.08729 19.8261 1.69758 18.3452C1.30788 16.8644 0.762332 17.8776 0.528509 14.2144C0.294685 10.5511 1.54174 6.42023 2.71086 5.56288C3.87998 4.70553 4.42557 4.62759 6.29616 2.52317Z" fill="#FF9933" fill-opacity="0.1" stroke="#FF9933" stroke-width="0.467647"/>
</svg>
