<svg width="26" height="26" viewBox="0 0 26 26" fill="none" xmlns="http://www.w3.org/2000/svg">
<path d="M18.687 23.9043C17.0431 25.4442 13.678 25.6106 12.2009 25.5013C10.8038 25.3732 7.6938 24.8064 6.4302 23.5635C4.8507 22.0099 4.70969 21.8404 3.17935 20.6044C1.64901 19.3684 0.634154 17.6318 0.291293 13.6869C-0.0515705 9.7421 2.20704 9.00991 2.51877 7.31659C2.8305 5.62327 4.81484 3.61365 6.92533 2.78961C9.03582 1.96558 8.16134 1.25928 9.24796 1.35888C10.3346 1.45848 10.1794 1.44425 11.6191 1.10661C13.0589 0.768968 14.4702 0.741789 15.8815 0.714615C17.2929 0.687444 19.0211 1.47199 20.6574 2.40466C22.2938 3.33733 24.4575 7.05771 24.7104 8.56798C24.9633 10.0783 25.5991 9.11904 25.4976 12.7883C25.3961 16.4576 23.7772 20.4574 22.5347 21.2045C21.2923 21.9516 20.7418 21.9794 18.687 23.9043Z" fill="#00B0F0" fill-opacity="0.1" stroke="#00B0F0" stroke-width="0.467647"/>
</svg>
