<svg width="27" height="26" viewBox="0 0 27 26" fill="none" xmlns="http://www.w3.org/2000/svg">
<path d="M6.54713 2.84153C8.04361 1.158 11.3795 0.68516 12.8604 0.65918C14.2633 0.65918 17.4121 0.939768 18.7839 2.06212C20.4986 3.46506 20.6545 3.62095 22.2912 4.71212C23.928 5.8033 25.0971 7.44006 25.7986 11.3371C26.5 15.2342 24.3177 16.1695 24.1618 17.8842C24.0059 19.5989 22.2133 21.7812 20.1868 22.7945C18.1603 23.8077 19.0956 24.4312 18.0044 24.4312C16.9133 24.4312 17.0692 24.4312 15.6662 24.8989C14.2633 25.3665 12.8604 25.5224 11.4574 25.6783C10.0544 25.8342 8.2618 25.2107 6.54713 24.4312C4.83247 23.6518 2.33827 20.1445 1.94856 18.6636C1.55886 17.1827 1.01331 18.196 0.779485 14.5327C0.545662 10.8695 1.79272 6.73859 2.96184 5.88124C4.13096 5.02389 4.67655 4.94595 6.54713 2.84153Z" fill="#68DA80" fill-opacity="0.1" stroke="#68DA80" stroke-width="0.467647"/>
</svg>
