<svg width="27" height="27" viewBox="0 0 27 27" fill="none" xmlns="http://www.w3.org/2000/svg">
<path d="M2.47193 8.73561C2.75322 6.51258 5.24687 4.25416 6.45853 3.40284C7.62041 2.61656 10.3879 1.08253 12.1627 1.23661C14.3812 1.42921 14.599 1.47002 16.5755 1.44995C18.552 1.42987 20.4517 2.12051 23.2504 4.93185C26.0491 7.74318 24.774 9.73535 25.6207 11.2327C26.4674 12.73 26.2247 15.5292 25.123 17.4981C24.0214 19.467 25.1508 19.4556 24.2471 20.0671C23.3434 20.6787 23.4725 20.5913 22.5767 21.7621C21.681 22.9329 20.6078 23.8474 19.5346 24.7619C18.4614 25.6763 16.6219 26.1683 14.7583 26.4884C12.8947 26.8085 8.83304 25.3223 7.66754 24.323C6.50205 23.3238 6.62685 24.4627 4.34851 21.5815C2.07017 18.7004 0.752145 14.6047 1.23249 13.2445C1.71283 11.8843 2.12032 11.5144 2.47193 8.73561Z" fill="#68DA80" fill-opacity="0.1" stroke="#68DA80" stroke-width="0.467647"/>
</svg>
