<svg width="27" height="26" viewBox="0 0 27 26" fill="none" xmlns="http://www.w3.org/2000/svg">
<path d="M6.6863 2.84861C8.18277 1.16508 11.5187 0.69224 12.9995 0.66626C14.4025 0.66626 17.5513 0.946848 18.923 2.0692C20.6377 3.47214 20.7936 3.62803 22.4304 4.7192C24.0671 5.81038 25.2363 7.44714 25.9377 11.3442C26.6392 15.2413 24.4568 16.1766 24.301 17.8913C24.1451 19.606 22.3524 21.7883 20.326 22.8016C18.2995 23.8148 19.2348 24.4383 18.1436 24.4383C17.0524 24.4383 17.2083 24.4383 15.8054 24.906C14.4024 25.3736 12.9995 25.5295 11.5965 25.6854C10.1936 25.8413 8.40096 25.2177 6.6863 24.4383C4.97163 23.6589 2.47743 20.1516 2.08772 18.6707C1.69802 17.1898 1.15247 18.203 0.918646 14.5398C0.684822 10.8766 1.93188 6.74567 3.101 5.88832C4.27012 5.03097 4.81571 4.95303 6.6863 2.84861Z" fill="#FF9933" fill-opacity="0.1" stroke="#FF9933" stroke-width="0.467647"/>
</svg>
