<svg width="3" height="2" viewBox="0 0 3 2" fill="none" xmlns="http://www.w3.org/2000/svg">
<path fill-rule="evenodd" clip-rule="evenodd" d="M1.33467 0.491463C1.01435 0.57188 0.928786 0.83374 0.924667 0.954945L0.924523 0.959179L0.925005 0.963471C0.940158 1.09836 1.04612 1.20383 1.15278 1.26057C1.20606 1.28891 1.26541 1.3084 1.32072 1.31138C1.37663 1.31439 1.4392 1.29998 1.46951 1.2487C1.48003 1.2309 1.48916 1.21386 1.49784 1.19766C1.54038 1.11822 1.57193 1.05931 1.70268 1.03292C1.81954 1.00933 1.90815 0.949163 1.95908 0.87954C2.00757 0.813243 2.03191 0.722178 1.98048 0.641257C1.94247 0.581471 1.8782 0.51425 1.76557 0.479074C1.65706 0.44519 1.51756 0.44555 1.33467 0.491463ZM1.08856 0.974006C1.09365 0.879812 1.16425 0.684434 1.40074 0.625064C1.56815 0.583035 1.66916 0.589991 1.72879 0.608615C1.7843 0.625949 1.8158 0.657149 1.83863 0.693073C1.84803 0.707861 1.85227 0.746072 1.81648 0.79501C1.78311 0.840621 1.72325 0.881645 1.64421 0.8976C1.44374 0.938065 1.38548 1.05044 1.34221 1.13388C1.33513 1.14754 1.32844 1.16043 1.3216 1.1721C1.31982 1.17265 1.31586 1.17328 1.30808 1.17286C1.28901 1.17183 1.2591 1.16396 1.22511 1.14588C1.15848 1.11043 1.09884 1.04844 1.08856 0.974006ZM1.32284 1.17146C1.32277 1.17141 1.32239 1.17155 1.32189 1.17201C1.32267 1.17174 1.32291 1.17151 1.32284 1.17146Z" fill="white"/>
</svg>
