<svg width="2" height="2" viewBox="0 0 2 2" fill="none" xmlns="http://www.w3.org/2000/svg">
<path fill-rule="evenodd" clip-rule="evenodd" d="M0.925704 0.526662C1.20472 0.701267 1.20329 0.976349 1.16891 1.0928L1.16771 1.09687L1.16589 1.1008C1.10887 1.22434 0.974846 1.2921 0.855551 1.31333C0.795966 1.32394 0.733403 1.32426 0.679896 1.31014C0.625818 1.29587 0.570902 1.26299 0.558301 1.20497C0.553926 1.18483 0.550635 1.16583 0.547509 1.14778C0.532177 1.05925 0.520806 0.993593 0.404886 0.928435C0.301286 0.870202 0.236087 0.785862 0.209688 0.704087C0.184549 0.626219 0.190187 0.532214 0.264638 0.471077C0.319644 0.425908 0.401964 0.381723 0.520121 0.382818C0.633942 0.383872 0.766406 0.426973 0.925704 0.526662ZM1.00713 1.06068C1.03205 0.969601 1.02669 0.762287 0.820707 0.63338C0.674883 0.542124 0.576699 0.517778 0.514138 0.517198C0.455913 0.516659 0.416118 0.536654 0.383066 0.563795C0.36946 0.574968 0.353358 0.609982 0.371914 0.667461C0.389209 0.721034 0.433137 0.778369 0.503211 0.817758C0.68094 0.917658 0.700807 1.04231 0.715559 1.13487C0.717975 1.15003 0.720254 1.16433 0.723067 1.17751C0.724591 1.17858 0.728154 1.18039 0.735683 1.18238C0.754129 1.18725 0.785035 1.18893 0.823057 1.18216C0.897571 1.1689 0.973837 1.12827 1.00713 1.06068ZM0.722091 1.17652C0.722173 1.1765 0.722499 1.17674 0.72282 1.17733C0.722169 1.17684 0.722008 1.17654 0.722091 1.17652Z" fill="white"/>
</svg>
