<svg width="26" height="27" viewBox="0 0 26 27" fill="none" xmlns="http://www.w3.org/2000/svg">
<path d="M6.32985 3.07579C7.82632 1.39226 11.1622 0.919413 12.6431 0.893433C14.046 0.893433 17.1948 1.17402 18.5666 2.29637C20.2813 3.69932 20.4372 3.8552 22.0739 4.94638C23.7107 6.03755 24.8798 7.67432 25.5813 11.5714C26.2828 15.4684 24.1004 16.4037 23.9445 18.1184C23.7886 19.8331 21.996 22.0155 19.9695 23.0287C17.943 24.042 18.8783 24.6655 17.7872 24.6655C16.696 24.6655 16.8519 24.6655 15.4489 25.1331C14.046 25.6008 12.6431 25.7567 11.2401 25.9126C9.83712 26.0684 8.04451 25.4449 6.32985 24.6655C4.61519 23.8861 2.12098 20.3787 1.73128 18.8979C1.34157 17.417 0.796024 18.4302 0.5622 14.767C0.328377 11.1037 1.57544 6.97285 2.74455 6.11549C3.91367 5.25814 4.45926 5.1802 6.32985 3.07579Z" fill="#68DA80" fill-opacity="0.1" stroke="#68DA80" stroke-width="0.467647"/>
</svg>
