<svg width="2" height="2" viewBox="0 0 2 2" fill="none" xmlns="http://www.w3.org/2000/svg">
<path fill-rule="evenodd" clip-rule="evenodd" d="M0.939276 0.25369C1.3423 0.311715 1.53953 0.648117 1.5895 0.809289L1.59125 0.81492L1.59229 0.820723C1.62491 1.00313 1.54082 1.16025 1.43775 1.25242C1.38627 1.29846 1.32441 1.33362 1.2611 1.34612C1.19712 1.35875 1.11887 1.34914 1.06447 1.28536C1.04558 1.26321 1.02859 1.24186 1.01246 1.22158C0.933305 1.12208 0.874605 1.04829 0.712497 1.0332C0.567618 1.0197 0.442 0.953025 0.356744 0.867923C0.27556 0.786886 0.213269 0.669065 0.243012 0.553116C0.264988 0.46745 0.314784 0.367813 0.432848 0.303509C0.54658 0.241564 0.709179 0.220561 0.939276 0.25369ZM1.40574 0.859973C1.3647 0.735012 1.20967 0.485058 0.912132 0.442219C0.701498 0.411893 0.586466 0.436733 0.523954 0.47078C0.465775 0.502468 0.440716 0.54897 0.427512 0.600444C0.422076 0.621635 0.431381 0.673298 0.491307 0.733116C0.54716 0.788869 0.632165 0.834416 0.73016 0.843543C0.978704 0.866692 1.08844 1.00773 1.16992 1.11246C1.18327 1.12961 1.19586 1.14579 1.20817 1.16032C1.21046 1.16078 1.2153 1.16101 1.22421 1.15925C1.24603 1.15494 1.27792 1.13983 1.31077 1.11045C1.37515 1.05287 1.42151 0.960932 1.40574 0.859973ZM1.20649 1.15965C1.20655 1.15958 1.20705 1.1597 1.2078 1.16024C1.2068 1.16 1.20642 1.15973 1.20649 1.15965Z" fill="#E9EDED"/>
</svg>
