<svg width="35" height="35" viewBox="0 0 35 35" fill="none" xmlns="http://www.w3.org/2000/svg">
<path d="M8.39471 3.90981C10.39 1.6651 14.8379 1.03464 16.8124 1C18.6829 1 22.8813 1.37412 24.7104 2.87059C26.9966 4.74118 27.2045 4.94902 29.3868 6.40392C31.5692 7.85883 33.128 10.0412 34.0633 15.2373C34.9986 20.4333 32.0888 21.6804 31.8809 23.9667C31.6731 26.253 29.2829 29.1628 26.5809 30.5137C23.879 31.8647 25.126 32.6961 23.6711 32.6961C22.2162 32.6961 22.4241 32.6961 20.5535 33.3196C18.6829 33.9431 16.8124 34.151 14.9417 34.3588C13.0711 34.5667 10.6809 33.7353 8.39471 32.6961C6.1085 31.6569 2.78289 26.9804 2.26328 25.0059C1.74368 23.0314 1.01628 24.3824 0.704516 19.498C0.392751 14.6137 2.0555 9.10589 3.61432 7.96275C5.17314 6.81961 5.9006 6.71569 8.39471 3.90981Z" fill="#00B0F0" fill-opacity="0.1" stroke="#00B0F0" stroke-width="0.62353"/>
</svg>
