<svg width="2" height="2" viewBox="0 0 2 2" fill="none" xmlns="http://www.w3.org/2000/svg">
<path fill-rule="evenodd" clip-rule="evenodd" d="M0.525183 1.02065C0.293926 1.29685 0.362619 1.63495 0.424866 1.77064L0.427041 1.77538L0.429784 1.77981C0.515996 1.91925 0.664175 1.97311 0.786509 1.97298C0.847611 1.97291 0.909123 1.95954 0.958209 1.9304C1.00782 1.90094 1.0537 1.84841 1.05188 1.77426C1.05125 1.74852 1.04983 1.72442 1.04849 1.70153C1.04188 1.58924 1.03699 1.50597 1.13487 1.4003C1.22236 1.30586 1.26575 1.18776 1.27166 1.08135C1.2773 0.98002 1.24877 0.865615 1.16071 0.806787C1.09564 0.763325 1.004 0.727084 0.888249 0.754433C0.776742 0.780779 0.657216 0.862953 0.525183 1.02065ZM0.575859 1.69552C0.529112 1.58896 0.483658 1.33274 0.654389 1.12883C0.775254 0.984472 0.865708 0.932913 0.926997 0.918433C0.984037 0.904956 1.02801 0.920797 1.0671 0.946912C1.08319 0.957663 1.10757 0.997195 1.10341 1.07199C1.09953 1.1417 1.07042 1.2219 1.01125 1.28578C0.861172 1.44779 0.872157 1.60551 0.880314 1.72262C0.88165 1.7418 0.88291 1.7599 0.883374 1.77674C0.882139 1.77839 0.879084 1.7814 0.872176 1.7855C0.855254 1.79555 0.825319 1.80442 0.786328 1.80446C0.709916 1.80455 0.625089 1.77135 0.575859 1.69552ZM0.88409 1.7753C0.884003 1.77529 0.883743 1.77567 0.883572 1.77646C0.884091 1.77571 0.884176 1.77531 0.88409 1.7753Z" fill="#E9EDED"/>
</svg>
