<svg width="26" height="26" viewBox="0 0 26 26" fill="none" xmlns="http://www.w3.org/2000/svg">
<path d="M6.29616 2.59153C7.79263 0.908003 11.1285 0.43516 12.6094 0.40918C14.0123 0.40918 17.1611 0.689768 18.5329 1.81212C20.2476 3.21506 20.4035 3.37095 22.0402 4.46212C23.677 5.5533 24.8461 7.19006 25.5476 11.0871C26.2491 14.9842 24.0667 15.9195 23.9108 17.6342C23.7549 19.3489 21.9623 21.5312 19.9358 22.5445C17.9094 23.5577 18.8447 24.1812 17.7535 24.1812C16.6623 24.1812 16.8182 24.1812 15.4152 24.6489C14.0123 25.1165 12.6094 25.2724 11.2064 25.4283C9.80343 25.5842 8.01082 24.9607 6.29616 24.1812C4.58149 23.4018 2.08729 19.8945 1.69758 18.4136C1.30788 16.9327 0.762332 17.946 0.528509 14.2827C0.294685 10.6195 1.54174 6.48859 2.71086 5.63124C3.87998 4.77389 4.42557 4.69595 6.29616 2.59153Z" fill="#68DA80" fill-opacity="0.1" stroke="#68DA80" stroke-width="0.467647"/>
</svg>
