<svg width="35" height="35" viewBox="0 0 35 35" fill="none" xmlns="http://www.w3.org/2000/svg">
<path d="M8.72919 3.78871C10.7245 1.544 15.1723 0.913547 17.1468 0.878906C19.0174 0.878906 23.2158 1.25302 25.0448 2.7495C27.3311 4.62008 27.5389 4.82793 29.7213 6.28283C31.9037 7.73773 33.4625 9.92009 34.3978 15.1162C35.3331 20.3122 32.4233 21.5593 32.2154 23.8456C32.0076 26.1319 29.6174 29.0417 26.9154 30.3926C24.2135 31.7436 25.4605 32.575 24.0056 32.575C22.5507 32.575 22.7585 32.575 20.888 33.1985C19.0174 33.8221 17.1468 34.0299 15.2762 34.2377C13.4055 34.4456 11.0154 33.6142 8.72919 32.575C6.44297 31.5358 3.11736 26.8593 2.59776 24.8848C2.07815 22.9103 1.35075 24.2613 1.03899 19.377C0.727224 14.4926 2.38997 8.98479 3.94879 7.84165C5.50762 6.69852 6.23507 6.59459 8.72919 3.78871Z" fill="#68DA80" fill-opacity="0.1" stroke="#68DA80" stroke-width="0.62353"/>
</svg>
