<svg width="27" height="27" viewBox="0 0 27 27" fill="none" xmlns="http://www.w3.org/2000/svg">
<path d="M21.3715 4.06671C23.4591 4.92153 25.0169 7.91059 25.5349 9.29826C26.0024 10.621 26.7867 13.6826 26.1844 15.3467C25.4316 17.4269 25.3364 17.6253 24.8519 19.529C24.3673 21.4327 23.212 23.0757 19.7674 25.0244C16.3229 26.9732 14.7129 25.2245 13.0425 25.6439C11.3721 26.0634 8.71499 25.0941 7.08341 23.5182C5.45182 21.9422 5.17494 23.03 4.81136 22.0012C4.44777 20.9724 4.49971 21.1193 3.59085 19.9511C2.68199 18.7828 2.06741 17.5115 1.45279 16.2402C0.838183 14.9689 0.829406 13.0728 0.993732 11.1986C1.15806 9.32446 3.63744 5.81418 4.90534 4.95755C6.17324 4.10092 5.0351 3.92126 8.41479 2.49069C11.7945 1.06013 16.109 0.871334 17.3078 1.69043C18.5065 2.50952 18.7619 2.99818 21.3715 4.06671Z" fill="#68DA80" fill-opacity="0.1" stroke="#68DA80" stroke-width="0.467647"/>
</svg>
