<svg width="26" height="27" viewBox="0 0 26 27" fill="none" xmlns="http://www.w3.org/2000/svg">
<path d="M6.04323 2.99278C7.5397 1.30925 10.8756 0.836405 12.3565 0.810425C13.7594 0.810425 16.9082 1.09101 18.28 2.21337C19.9947 3.61631 20.1505 3.77219 21.7873 4.86337C23.4241 5.95454 24.5932 7.59131 25.2947 11.4884C25.9961 15.3854 23.8138 16.3207 23.6579 18.0354C23.502 19.7501 21.7094 21.9325 19.6829 22.9457C17.6564 23.959 18.5917 24.5825 17.5005 24.5825C16.4094 24.5825 16.5653 24.5825 15.1623 25.0501C13.7594 25.5178 12.3565 25.6737 10.9535 25.8296C9.5505 25.9854 7.75789 25.3619 6.04323 24.5825C4.32856 23.8031 1.83436 20.2957 1.44466 18.8148C1.05495 17.334 0.509403 18.3472 0.275579 14.684C0.0417556 11.0207 1.28881 6.88984 2.45793 6.03249C3.62705 5.17513 4.17264 5.09719 6.04323 2.99278Z" fill="#FF9933" fill-opacity="0.1" stroke="#FF9933" stroke-width="0.467647"/>
</svg>
