<svg width="35" height="35" viewBox="0 0 35 35" fill="none" xmlns="http://www.w3.org/2000/svg">
<path d="M3.09719 10.0589C3.57275 7.10011 6.98998 4.18829 8.63916 3.10223C10.2192 2.10099 13.9672 0.168871 16.3187 0.450378C19.258 0.802261 19.5456 0.866082 22.1732 0.923448C24.8007 0.980814 27.2937 1.98468 30.8843 5.86083C34.4748 9.73699 32.6891 12.3449 33.7458 14.382C34.8024 16.419 34.3518 20.1494 32.7976 22.7336C31.2435 25.3178 32.7449 25.3506 31.516 26.1294C30.287 26.9081 30.4626 26.7969 29.2186 28.3233C27.9746 29.8498 26.5066 31.0261 25.0385 32.2025C23.5705 33.3788 21.1034 33.9579 18.6122 34.3062C16.121 34.6546 10.7914 32.4956 9.28826 31.1105C7.78515 29.7255 7.89887 31.2528 5.00302 27.3055C2.10716 23.3582 0.543086 17.8288 1.24368 16.0315C1.94428 14.2343 2.50274 13.7574 3.09719 10.0589Z" fill="#68DA80" fill-opacity="0.1" stroke="#68DA80" stroke-width="0.62353"/>
</svg>
