<svg width="3" height="2" viewBox="0 0 3 2" fill="none" xmlns="http://www.w3.org/2000/svg">
<path fill-rule="evenodd" clip-rule="evenodd" d="M2.02468 0.420579C1.63796 -0.00302363 1.08985 0.0335496 0.862506 0.102951L0.854563 0.105376L0.84698 0.108761C0.608629 0.215182 0.492163 0.437567 0.466381 0.630639C0.453504 0.727073 0.461532 0.826979 0.497094 0.910629C0.533037 0.995172 0.606196 1.07873 0.723581 1.09161C0.764334 1.09608 0.802664 1.09897 0.839076 1.10171C1.01767 1.11514 1.15012 1.12511 1.29607 1.30202C1.42651 1.46013 1.60366 1.55369 1.77032 1.58563C1.92901 1.61605 2.11561 1.59533 2.22714 1.46887C2.30955 1.37543 2.38621 1.23852 2.36764 1.05005C2.34975 0.868498 2.24548 0.662427 2.02468 0.420579ZM0.948957 0.357175C1.12705 0.306047 1.54102 0.288751 1.82652 0.601485C2.02864 0.822876 2.09079 0.976566 2.10062 1.07636C2.10976 1.16923 2.07543 1.23525 2.02591 1.29139C2.00553 1.3145 1.93797 1.34457 1.82083 1.32212C1.71164 1.30119 1.59127 1.23822 1.50304 1.13127C1.27927 0.860029 1.02805 0.843857 0.841518 0.831849C0.810965 0.829882 0.782148 0.828027 0.755471 0.825181C0.753132 0.822883 0.749026 0.817421 0.744022 0.80565C0.731762 0.776813 0.724119 0.727689 0.732336 0.666153C0.74844 0.545557 0.818852 0.418753 0.948957 0.357175ZM0.757586 0.826616C0.757623 0.826482 0.757086 0.825993 0.755863 0.825554C0.756937 0.826531 0.757549 0.826751 0.757586 0.826616Z" fill="#E9EDED"/>
</svg>
