<svg width="26" height="26" viewBox="0 0 26 26" fill="none" xmlns="http://www.w3.org/2000/svg">
<path d="M6.16823 2.56468C7.6647 0.881148 11.0006 0.408305 12.4815 0.382324C13.8844 0.382324 17.0332 0.662913 18.405 1.78527C20.1197 3.18821 20.2755 3.34409 21.9123 4.43527C23.5491 5.52644 24.7182 7.16321 25.4197 11.0603C26.1211 14.9573 23.9388 15.8926 23.7829 17.6073C23.627 19.322 21.8344 21.5044 19.8079 22.5176C17.7814 23.5309 18.7167 24.1544 17.6255 24.1544C16.5344 24.1544 16.6903 24.1544 15.2873 24.622C13.8844 25.0897 12.4815 25.2456 11.0785 25.4015C9.6755 25.5573 7.88289 24.9338 6.16823 24.1544C4.45356 23.375 1.95936 19.8676 1.56966 18.3867C1.17995 16.9059 0.634403 17.9191 0.400579 14.2559C0.166756 10.5926 1.41381 6.46174 2.58293 5.60439C3.75205 4.74703 4.29764 4.66909 6.16823 2.56468Z" fill="#68DA80" fill-opacity="0.1" stroke="#68DA80" stroke-width="0.467647"/>
</svg>
