<svg width="35" height="35" viewBox="0 0 35 35" fill="none" xmlns="http://www.w3.org/2000/svg">
<path d="M8.77264 3.76772C10.7679 1.52301 15.2158 0.892551 17.1903 0.85791C19.0609 0.85791 23.2593 1.23203 25.0883 2.7285C27.3746 4.59909 27.5824 4.80693 29.7648 6.26183C31.9471 7.71674 33.5059 9.89909 34.4412 15.0952C35.3765 20.2913 32.4667 21.5383 32.2589 23.8246C32.051 26.1109 29.6608 29.0207 26.9589 30.3716C24.2569 31.7226 25.504 32.554 24.0491 32.554C22.5942 32.554 22.802 32.554 20.9314 33.1775C19.0608 33.8011 17.1903 34.0089 15.3196 34.2167C13.449 34.4246 11.0589 33.5932 8.77264 32.554C6.48643 31.5148 3.16082 26.8383 2.64121 24.8638C2.12161 22.8893 1.39421 24.2403 1.08245 19.356C0.770681 14.4716 2.43343 8.9638 3.99225 7.82066C5.55107 6.67752 6.27853 6.5736 8.77264 3.76772Z" fill="#68DA80" fill-opacity="0.1" stroke="#68DA80" stroke-width="0.62353"/>
</svg>
