<svg width="26" height="26" viewBox="0 0 26 26" fill="none" xmlns="http://www.w3.org/2000/svg">
<path d="M6.1863 2.72361C7.68277 1.04008 11.0187 0.56724 12.4995 0.54126C13.9025 0.54126 17.0513 0.821848 18.423 1.9442C20.1377 3.34714 20.2936 3.50303 21.9304 4.5942C23.5671 5.68538 24.7363 7.32214 25.4377 11.2192C26.1392 15.1163 23.9568 16.0516 23.801 17.7663C23.6451 19.481 21.8524 21.6633 19.826 22.6766C17.7995 23.6898 18.7348 24.3133 17.6436 24.3133C16.5524 24.3133 16.7083 24.3133 15.3054 24.781C13.9024 25.2486 12.4995 25.4045 11.0965 25.5604C9.69357 25.7163 7.90096 25.0927 6.1863 24.3133C4.47163 23.5339 1.97743 20.0266 1.58772 18.5457C1.19802 17.0648 0.652469 18.078 0.418646 14.4148C0.184822 10.7516 1.43188 6.62067 2.601 5.76332C3.77012 4.90597 4.31571 4.82803 6.1863 2.72361Z" fill="#68DA80" fill-opacity="0.1" stroke="#68DA80" stroke-width="0.467647"/>
</svg>
