<svg width="27" height="27" viewBox="0 0 27 27" fill="none" xmlns="http://www.w3.org/2000/svg">
<path d="M6.79616 3.06041C8.29263 1.37688 11.6285 0.904032 13.1094 0.878052C14.5123 0.878052 17.6611 1.15864 19.0329 2.28099C20.7476 3.68394 20.9035 3.83982 22.5402 4.93099C24.177 6.02217 25.3461 7.65894 26.0476 11.556C26.7491 15.4531 24.5667 16.3884 24.4108 18.1031C24.2549 19.8178 22.4623 22.0001 20.4358 23.0134C18.4094 24.0266 19.3447 24.6501 18.2535 24.6501C17.1623 24.6501 17.3182 24.6501 15.9152 25.1178C14.5123 25.5854 13.1094 25.7413 11.7064 25.8972C10.3034 26.0531 8.51082 25.4295 6.79616 24.6501C5.08149 23.8707 2.58729 20.3634 2.19758 18.8825C1.80788 17.4016 1.26233 18.4148 1.02851 14.7516C0.794685 11.0884 2.04174 6.95747 3.21086 6.10011C4.37998 5.24276 4.92557 5.16482 6.79616 3.06041Z" fill="#68DA80" fill-opacity="0.1" stroke="#68DA80" stroke-width="0.467647"/>
</svg>
