<svg width="4" height="3" viewBox="0 0 4 3" fill="none" xmlns="http://www.w3.org/2000/svg">
<path fill-rule="evenodd" clip-rule="evenodd" d="M3.03291 0.894024C2.51728 0.32922 1.78647 0.377985 1.48334 0.47052L1.47275 0.473753L1.46264 0.478267C1.14484 0.620162 0.98955 0.916675 0.955175 1.1741C0.938005 1.30268 0.948709 1.43589 0.996126 1.54742C1.04405 1.66015 1.14159 1.77156 1.29811 1.78874C1.35245 1.7947 1.40355 1.79854 1.4521 1.8022C1.69022 1.82011 1.86682 1.8334 2.06142 2.06928C2.23534 2.28009 2.47154 2.40484 2.69375 2.44743C2.90535 2.48799 3.15414 2.46036 3.30286 2.29174C3.41273 2.16717 3.51494 1.98462 3.49019 1.73332C3.46634 1.49125 3.3273 1.21649 3.03291 0.894024ZM1.59861 0.809485C1.83606 0.741314 2.38802 0.718253 2.7687 1.13523C3.03819 1.43042 3.12105 1.63534 3.13415 1.76839C3.14635 1.89223 3.10057 1.98025 3.03455 2.0551C3.00737 2.08592 2.91729 2.12601 2.7611 2.09607C2.61552 2.06817 2.45502 1.98421 2.33739 1.84161C2.03902 1.47996 1.70407 1.4584 1.45536 1.44238C1.41462 1.43976 1.3762 1.43729 1.34063 1.43349C1.33751 1.43043 1.33203 1.42315 1.32536 1.40745C1.30902 1.369 1.29883 1.3035 1.30978 1.22146C1.33125 1.06066 1.42514 0.891589 1.59861 0.809485ZM1.34345 1.43541C1.3435 1.43523 1.34278 1.43458 1.34115 1.43399C1.34258 1.43529 1.3434 1.43559 1.34345 1.43541Z" fill="#E9EDED"/>
</svg>
