<svg width="27" height="27" viewBox="0 0 27 27" fill="none" xmlns="http://www.w3.org/2000/svg">
<path d="M6.77077 2.92308C8.26724 1.23955 11.6031 0.766703 13.084 0.740723C14.4869 0.740723 17.6357 1.02131 19.0075 2.14366C20.7222 3.54661 20.8781 3.70249 22.5149 4.79367C24.1516 5.88484 25.3207 7.52161 26.0222 11.4187C26.7237 15.3157 24.5413 16.251 24.3854 17.9657C24.2296 19.6804 22.4369 21.8628 20.4104 22.876C18.384 23.8893 19.3193 24.5128 18.2281 24.5128C17.1369 24.5128 17.2928 24.5128 15.8898 24.9804C14.4869 25.4481 13.084 25.604 11.681 25.7599C10.278 25.9157 8.48543 25.2922 6.77077 24.5128C5.0561 23.7334 2.5619 20.226 2.17219 18.7451C1.78249 17.2643 1.23694 18.2775 1.00312 14.6143C0.769295 10.951 2.01635 6.82014 3.18547 5.96278C4.35459 5.10543 4.90018 5.02749 6.77077 2.92308Z" fill="#FF9933" fill-opacity="0.1" stroke="#FF9933" stroke-width="0.467647"/>
</svg>
