<svg width="26" height="27" viewBox="0 0 26 27" fill="none" xmlns="http://www.w3.org/2000/svg">
<path d="M18.677 24.2971C17.0334 25.8369 13.6683 26.0029 12.1913 25.8935C10.7942 25.7653 7.68417 25.1981 6.42046 23.9551C4.84083 22.4013 4.69981 22.2318 3.16937 20.9956C1.63893 19.7594 0.623924 18.0226 0.280671 14.0777C-0.0625847 10.1328 2.19591 9.40078 2.50746 7.70746C2.81901 6.01414 4.80312 4.00468 6.91349 3.18085C9.02385 2.35701 8.14931 1.65061 9.23593 1.75032C10.3225 1.85003 10.1673 1.83578 11.607 1.49828C13.0467 1.16078 14.458 1.13375 15.8693 1.10672C17.2806 1.07969 19.0089 1.86443 20.6453 2.79728C22.2817 3.73013 24.4458 7.4508 24.6988 8.96112C24.9519 10.4714 25.5875 9.51228 25.4864 13.1816C25.3853 16.851 23.7669 20.8507 22.5245 21.5977C21.2821 22.3446 20.7317 22.3724 18.677 24.2971Z" fill="#00B0F0" fill-opacity="0.1" stroke="#00B0F0" stroke-width="0.467647"/>
</svg>
