<svg width="27" height="27" viewBox="0 0 27 27" fill="none" xmlns="http://www.w3.org/2000/svg">
<path d="M6.41823 3.31468C7.9147 1.63115 11.2506 1.1583 12.7315 1.13232C14.1344 1.13232 17.2832 1.41291 18.655 2.53527C20.3697 3.93821 20.5255 4.09409 22.1623 5.18527C23.7991 6.27644 24.9682 7.91321 25.6697 11.8103C26.3711 15.7073 24.1888 16.6426 24.0329 18.3573C23.877 20.072 22.0844 22.2544 20.0579 23.2676C18.0314 24.2809 18.9667 24.9044 17.8755 24.9044C16.7844 24.9044 16.9403 24.9044 15.5373 25.372C14.1344 25.8397 12.7315 25.9956 11.3285 26.1515C9.9255 26.3073 8.13289 25.6838 6.41823 24.9044C4.70356 24.125 2.20936 20.6176 1.81966 19.1367C1.42995 17.6559 0.884403 18.6691 0.650579 15.0059C0.416756 11.3426 1.66381 7.21174 2.83293 6.35439C4.00205 5.49703 4.54764 5.41909 6.41823 3.31468Z" fill="#68DA80" fill-opacity="0.1" stroke="#68DA80" stroke-width="0.467647"/>
</svg>
