<svg width="26" height="27" viewBox="0 0 26 27" fill="none" xmlns="http://www.w3.org/2000/svg">
<path d="M6.29616 3.18235C7.79263 1.49882 11.1285 1.02598 12.6094 1C14.0123 1 17.1611 1.28059 18.5329 2.40294C20.2476 3.80588 20.4035 3.96177 22.0402 5.05294C23.677 6.14412 24.8461 7.78089 25.5476 11.6779C26.2491 15.575 24.0667 16.5103 23.9108 18.225C23.7549 19.9397 21.9623 22.1221 19.9358 23.1353C17.9094 24.1485 18.8447 24.7721 17.7535 24.7721C16.6623 24.7721 16.8182 24.7721 15.4152 25.2397C14.0123 25.7074 12.6094 25.8632 11.2064 26.0191C9.80343 26.175 8.01082 25.5515 6.29616 24.7721C4.58149 23.9927 2.08729 20.4853 1.69758 19.0044C1.30788 17.5235 0.762332 18.5368 0.528509 14.8735C0.294685 11.2103 1.54174 7.07941 2.71086 6.22206C3.87998 5.36471 4.42557 5.28677 6.29616 3.18235Z" fill="#FF9933" fill-opacity="0.1" stroke="#FF9933" stroke-width="0.467647"/>
</svg>
