<svg width="60" height="60" viewBox="0 0 60 60" fill="none" xmlns="http://www.w3.org/2000/svg">
<path d="M58.2122 33.7494H32.0406L49.4703 52.2688C50.1365 52.9766 51.2328 53.034 51.9177 52.3485C56.1861 48.0758 59.1221 42.3159 59.9835 35.8412C60.1313 34.7326 59.2655 33.7494 58.2122 33.7494ZM56.4662 26.1556C55.5574 12.1562 45.0288 0.969385 31.8531 0.00374928C30.8472 -0.0700796 30.0001 0.831102 30.0001 1.90221V28.1244H54.6806C55.6887 28.1244 56.5357 27.2244 56.4662 26.1556ZM24.706 33.7494V5.9417C24.706 4.82255 23.7807 3.90262 22.7384 4.05965C9.5947 6.03311 -0.451963 18.2336 0.0156822 32.8553C0.496563 47.8718 12.6653 60.186 26.8049 59.9974C32.3637 59.9235 37.5001 58.0204 41.7233 54.8376C42.5946 54.1813 42.6519 52.8184 41.8964 52.0156L24.706 33.7494Z" fill="#25474F"/>
</svg>
