<svg width="5" height="6" viewBox="0 0 5 6" fill="none" xmlns="http://www.w3.org/2000/svg">
<path fill-rule="evenodd" clip-rule="evenodd" d="M3.03355 1.33301C4.16106 2.22005 4.17026 3.59397 4.0388 4.17378L4.03421 4.19404L4.02715 4.21358C3.80536 4.82762 3.27198 5.15889 2.7951 5.25858C2.55691 5.30837 2.30623 5.30665 2.09106 5.23327C1.87358 5.1591 1.65175 4.99192 1.5981 4.70148C1.57948 4.60064 1.56526 4.50556 1.55176 4.41523C1.48552 3.9722 1.43639 3.64365 0.968354 3.312C0.550057 3.0156 0.284224 2.59085 0.174004 2.18099C0.0690495 1.7907 0.0865412 1.32146 0.381561 1.02006C0.599527 0.797385 0.927 0.581087 1.40053 0.592865C1.85668 0.604211 2.38982 0.82657 3.03355 1.33301ZM3.38881 4.00472C3.48372 3.55112 3.45101 2.51532 2.6186 1.86045C2.02932 1.39685 1.63456 1.26999 1.38384 1.26376C1.1505 1.25795 0.992116 1.3557 0.861146 1.4895C0.80723 1.54458 0.744607 1.71862 0.82208 2.00671C0.894287 2.27522 1.07342 2.56395 1.35635 2.76443C2.07395 3.27292 2.16032 3.89659 2.22446 4.35969C2.23496 4.43554 2.24487 4.50709 2.25686 4.57311C2.26302 4.57852 2.27739 4.58776 2.30767 4.59809C2.38185 4.62339 2.50579 4.63345 2.65778 4.60168C2.95565 4.53941 3.25905 4.34054 3.38881 4.00472ZM2.25289 4.5681C2.25322 4.56798 2.25454 4.56923 2.25586 4.5722C2.25322 4.5697 2.25256 4.56821 2.25289 4.5681Z" fill="#E9EDED"/>
</svg>
