<svg width="27" height="27" viewBox="0 0 27 27" fill="none" xmlns="http://www.w3.org/2000/svg">
<path d="M6.79616 3.18235C8.29263 1.49882 11.6285 1.02598 13.1094 1C14.5123 1 17.6611 1.28059 19.0329 2.40294C20.7476 3.80588 20.9035 3.96177 22.5402 5.05294C24.177 6.14412 25.3461 7.78089 26.0476 11.6779C26.7491 15.575 24.5667 16.5103 24.4108 18.225C24.2549 19.9397 22.4623 22.1221 20.4358 23.1353C18.4094 24.1485 19.3447 24.7721 18.2535 24.7721C17.1623 24.7721 17.3182 24.7721 15.9152 25.2397C14.5123 25.7074 13.1094 25.8632 11.7064 26.0191C10.3034 26.175 8.51082 25.5515 6.79616 24.7721C5.08149 23.9927 2.58729 20.4853 2.19758 19.0044C1.80788 17.5235 1.26233 18.5368 1.02851 14.8735C0.794685 11.2103 2.04174 7.07941 3.21086 6.22206C4.37998 5.36471 4.92557 5.28677 6.79616 3.18235Z" fill="#FF9933" fill-opacity="0.1" stroke="#FF9933" stroke-width="0.467647"/>
</svg>
