<svg width="26" height="26" viewBox="0 0 26 26" fill="none" xmlns="http://www.w3.org/2000/svg">
<path d="M6.1863 2.47361C7.68277 0.790083 11.0187 0.31724 12.4995 0.29126C13.9025 0.29126 17.0513 0.571848 18.423 1.6942C20.1377 3.09714 20.2936 3.25303 21.9304 4.3442C23.5671 5.43538 24.7363 7.07214 25.4377 10.9692C26.1392 14.8663 23.9568 15.8016 23.801 17.5163C23.6451 19.231 21.8524 21.4133 19.826 22.4266C17.7995 23.4398 18.7348 24.0633 17.6436 24.0633C16.5524 24.0633 16.7083 24.0633 15.3054 24.531C13.9024 24.9986 12.4995 25.1545 11.0965 25.3104C9.69357 25.4663 7.90096 24.8427 6.1863 24.0633C4.47163 23.2839 1.97743 19.7766 1.58772 18.2957C1.19802 16.8148 0.652469 17.828 0.418646 14.1648C0.184822 10.5016 1.43188 6.37067 2.601 5.51332C3.77012 4.65597 4.31571 4.57803 6.1863 2.47361Z" fill="#68DA80" fill-opacity="0.1" stroke="#68DA80" stroke-width="0.467647"/>
</svg>
