<svg width="27" height="27" viewBox="0 0 27 27" fill="none" xmlns="http://www.w3.org/2000/svg">
<path d="M6.46169 3.18235C7.95816 1.49882 11.294 1.02598 12.7749 1C14.1779 1 17.3266 1.28059 18.6984 2.40294C20.4131 3.80588 20.569 3.96177 22.2058 5.05294C23.8425 6.14412 25.0117 7.78089 25.7131 11.6779C26.4146 15.575 24.2322 16.5103 24.0764 18.225C23.9205 19.9397 22.1278 22.1221 20.1014 23.1353C18.0749 24.1485 19.0102 24.7721 17.919 24.7721C16.8278 24.7721 16.9837 24.7721 15.5808 25.2397C14.1778 25.7074 12.7749 25.8632 11.3719 26.0191C9.96896 26.175 8.17635 25.5515 6.46169 24.7721C4.74702 23.9927 2.25282 20.4853 1.86311 19.0044C1.47341 17.5235 0.92786 18.5368 0.694036 14.8735C0.460213 11.2103 1.70727 7.07941 2.87639 6.22206C4.04551 5.36471 4.5911 5.28677 6.46169 3.18235Z" fill="#00B0F0" fill-opacity="0.1" stroke="#00B0F0" stroke-width="0.467647"/>
</svg>
