<svg width="48" height="48" viewBox="0 0 48 48" fill="none" xmlns="http://www.w3.org/2000/svg">
<path d="M11.3822 4.55028C14.1595 1.42578 20.3507 0.548218 23.0991 0.5C25.7028 0.5 31.5467 1.02075 34.0926 3.10375C37.275 5.7075 37.5643 5.99681 40.602 8.02194C43.6397 10.0471 45.8095 13.0848 47.1114 20.3174C48.4132 27.5501 44.363 29.2859 44.0737 32.4683C43.7844 35.6506 40.4573 39.7009 36.6964 41.5814C32.9354 43.4619 34.6712 44.6191 32.6461 44.6191C30.621 44.6191 30.9103 44.6191 28.3065 45.487C25.7028 46.3549 23.0991 46.6442 20.4953 46.9335C17.8914 47.2229 14.5645 46.0656 11.3822 44.6191C8.19993 43.1726 3.57089 36.6632 2.84762 33.9148C2.12436 31.1664 1.11187 33.0469 0.67791 26.2482C0.243952 19.4495 2.5584 11.7829 4.72819 10.1917C6.89798 8.60056 7.91055 8.4559 11.3822 4.55028Z" fill="#00B0F0" fill-opacity="0.1" stroke="#00B0F0" stroke-width="0.867917"/>
</svg>
