<svg width="27" height="27" viewBox="0 0 27 27" fill="none" xmlns="http://www.w3.org/2000/svg">
<path d="M6.6863 3.22361C8.18277 1.54008 11.5187 1.06724 12.9995 1.04126C14.4025 1.04126 17.5513 1.32185 18.923 2.4442C20.6377 3.84714 20.7936 4.00303 22.4304 5.0942C24.0671 6.18538 25.2363 7.82214 25.9377 11.7192C26.6392 15.6163 24.4568 16.5516 24.301 18.2663C24.1451 19.981 22.3524 22.1633 20.326 23.1766C18.2995 24.1898 19.2348 24.8133 18.1436 24.8133C17.0524 24.8133 17.2083 24.8133 15.8054 25.281C14.4024 25.7486 12.9995 25.9045 11.5965 26.0604C10.1936 26.2163 8.40096 25.5927 6.6863 24.8133C4.97163 24.0339 2.47743 20.5266 2.08772 19.0457C1.69802 17.5648 1.15247 18.578 0.918646 14.9148C0.684822 11.2516 1.93188 7.12067 3.101 6.26332C4.27012 5.40597 4.81571 5.32803 6.6863 3.22361Z" fill="#68DA80" fill-opacity="0.1" stroke="#68DA80" stroke-width="0.467647"/>
</svg>
