<svg width="27" height="27" viewBox="0 0 27 27" fill="none" xmlns="http://www.w3.org/2000/svg">
<path d="M6.66823 3.31468C8.1647 1.63115 11.5006 1.1583 12.9815 1.13232C14.3844 1.13232 17.5332 1.41291 18.905 2.53527C20.6197 3.93821 20.7755 4.09409 22.4123 5.18527C24.0491 6.27644 25.2182 7.91321 25.9197 11.8103C26.6211 15.7073 24.4388 16.6426 24.2829 18.3573C24.127 20.072 22.3344 22.2544 20.3079 23.2676C18.2814 24.2809 19.2167 24.9044 18.1255 24.9044C17.0344 24.9044 17.1903 24.9044 15.7873 25.372C14.3844 25.8397 12.9815 25.9956 11.5785 26.1515C10.1755 26.3073 8.38289 25.6838 6.66823 24.9044C4.95356 24.125 2.45936 20.6176 2.06966 19.1367C1.67995 17.6559 1.1344 18.6691 0.900579 15.0059C0.666756 11.3426 1.91381 7.21174 3.08293 6.35439C4.25205 5.49703 4.79764 5.41909 6.66823 3.31468Z" fill="#FF9933" fill-opacity="0.1" stroke="#FF9933" stroke-width="0.467647"/>
</svg>
