<svg width="27" height="26" viewBox="0 0 27 26" fill="none" xmlns="http://www.w3.org/2000/svg">
<path d="M18.5505 1.89904C20.7888 2.22948 23.0275 4.75294 23.8671 5.97336C24.6419 7.14295 26.1456 9.92088 25.9619 11.6759C25.7324 13.8697 25.6878 14.0846 25.6766 16.0435C25.6655 18.0025 24.9386 19.8688 22.0579 22.5766C19.1773 25.2844 17.1877 23.9745 15.6637 24.7787C14.1397 25.5829 11.3196 25.2772 9.3508 24.1398C7.38199 23.0024 7.37562 24.1218 6.77302 23.2121C6.17041 22.3024 6.2565 22.4323 5.08955 21.5175C3.92261 20.6027 3.01713 19.518 2.11161 18.4333C1.20608 17.3486 0.738993 15.5145 0.445669 13.6604C0.152344 11.8063 1.71614 7.81627 2.74277 6.68465C3.7694 5.55303 2.61844 5.65019 5.56125 3.45965C8.50407 1.26911 12.6569 0.0583893 14.0215 0.565998C15.3861 1.07361 15.7528 1.48599 18.5505 1.89904Z" fill="#68DA80" fill-opacity="0.1" stroke="#68DA80" stroke-width="0.467647"/>
</svg>
