<svg width="1" height="2" viewBox="0 0 1 2" fill="none" xmlns="http://www.w3.org/2000/svg">
<path fill-rule="evenodd" clip-rule="evenodd" d="M0.307333 0.441699C0.130997 0.652306 0.183376 0.910107 0.230841 1.01357L0.232499 1.01719L0.23459 1.02057C0.300328 1.12689 0.413315 1.16796 0.506596 1.16786C0.553187 1.16781 0.600091 1.15762 0.637519 1.13539C0.675347 1.11293 0.710331 1.07287 0.708944 1.01634C0.708463 0.996709 0.707383 0.978333 0.706356 0.960877C0.701322 0.875257 0.697589 0.811759 0.772228 0.731186C0.838934 0.659176 0.872018 0.569121 0.876531 0.487983C0.880828 0.41072 0.859072 0.323485 0.791924 0.278629C0.742314 0.245488 0.672437 0.217855 0.584173 0.238708C0.499149 0.258797 0.408009 0.321456 0.307333 0.441699ZM0.345974 0.956298C0.310329 0.875042 0.27567 0.679673 0.405854 0.524187C0.498014 0.414115 0.566986 0.374801 0.613719 0.363759C0.657213 0.353483 0.690739 0.365562 0.720548 0.385475C0.73282 0.393673 0.751407 0.423816 0.748235 0.480848C0.745279 0.534003 0.723083 0.595158 0.677964 0.643865C0.563528 0.7674 0.571904 0.887662 0.578123 0.97696C0.579142 0.991587 0.580102 1.00538 0.580456 1.01823C0.579515 1.01948 0.577185 1.02178 0.571918 1.02491C0.559015 1.03257 0.536189 1.03933 0.506458 1.03937C0.448194 1.03943 0.383512 1.01411 0.345974 0.956298ZM0.581002 1.01713C0.580936 1.01712 0.580738 1.01741 0.580608 1.01801C0.581003 1.01744 0.581068 1.01714 0.581002 1.01713Z" fill="#E9EDED"/>
</svg>
