<svg width="26" height="27" viewBox="0 0 26 27" fill="none" xmlns="http://www.w3.org/2000/svg">
<path d="M6.29616 3.27317C7.79263 1.58964 11.1285 1.1168 12.6094 1.09082C14.0123 1.09082 17.1611 1.37141 18.5329 2.49376C20.2476 3.8967 20.4035 4.05259 22.0402 5.14376C23.677 6.23494 24.8461 7.87171 25.5476 11.7688C26.2491 15.6658 24.0667 16.6011 23.9108 18.3158C23.7549 20.0305 21.9623 22.2129 19.9358 23.2261C17.9094 24.2394 18.8447 24.8629 17.7535 24.8629C16.6623 24.8629 16.8182 24.8629 15.4152 25.3305C14.0123 25.7982 12.6094 25.9541 11.2064 26.1099C9.80343 26.2658 8.01082 25.6423 6.29616 24.8629C4.58149 24.0835 2.08729 20.5761 1.69758 19.0952C1.30788 17.6144 0.762332 18.6276 0.528509 14.9644C0.294685 11.3011 1.54174 7.17023 2.71086 6.31288C3.87998 5.45553 4.42557 5.37759 6.29616 3.27317Z" fill="#FF9933" fill-opacity="0.1" stroke="#FF9933" stroke-width="0.467647"/>
</svg>
