<svg width="27" height="26" viewBox="0 0 27 26" fill="none" xmlns="http://www.w3.org/2000/svg">
<path d="M10.0796 1.64772C12.0097 0.474669 15.3414 0.99283 16.766 1.39854C18.1084 1.80641 21.0381 2.98985 22.0185 4.46073C23.2439 6.29933 23.3469 6.49355 24.59 8.01169C25.8332 9.52983 26.4674 11.4332 25.9852 15.3596C25.503 19.286 23.1381 19.5449 22.4814 21.1375C21.8248 22.7301 19.4637 24.2935 17.2249 24.6722C14.9861 25.0509 15.6964 25.9184 14.6524 25.6011C13.6083 25.2839 13.7575 25.3292 12.2767 25.3681C10.796 25.4069 9.40756 25.1479 8.01904 24.889C6.63052 24.63 5.09988 23.5132 3.68995 22.2702C2.28002 21.0272 0.931579 16.9519 0.996986 15.4241C1.06239 13.8962 0.240534 14.7055 1.10098 11.1384C1.96142 7.57125 4.37718 3.98797 5.74954 3.50892C7.1219 3.02987 7.667 3.11403 10.0796 1.64772Z" fill="#68DA80" fill-opacity="0.1" stroke="#68DA80" stroke-width="0.467647"/>
</svg>
