<svg width="17" height="16" viewBox="0 0 17 16" fill="none" xmlns="http://www.w3.org/2000/svg">
<g clip-path="url(#clip0_17_4368)">
<path d="M6.55508 15L5.28841 12.8333L2.77174 12.3167L3.05508 9.86667L1.45508 8L3.05508 6.15L2.77174 3.7L5.28841 3.18333L6.55508 1L8.78841 2.03333L11.0217 1L12.3051 3.18333L14.8051 3.7L14.5217 6.15L16.1217 8L14.5217 9.86667L14.8051 12.3167L12.3051 12.8333L11.0217 15L8.78841 13.9667L6.55508 15ZM8.07174 10.2167L11.8551 6.46667L11.1051 5.78333L8.07174 8.78333L6.48841 7.13333L5.72175 7.88333L8.07174 10.2167Z" fill="#0FB4DB"/>
</g>
<defs>
<clipPath id="clip0_17_4368">
<rect width="16" height="16" fill="white" transform="translate(0.789062)"/>
</clipPath>
</defs>
</svg>
