<svg width="250" height="100" viewBox="0 0 250 100" fill="none" xmlns="http://www.w3.org/2000/svg">
<rect width="260" height="100" transform="translate(-10)" fill="white"/>
<path d="M31.9509 40.5849C33.2953 41.8982 33.9746 43.7043 34.0364 45.7267L31.9909 47.8208C32.2599 45.6132 31.7322 43.5991 30.3375 42.2367C27.9763 39.9303 23.8061 40.1522 20.0415 42.5085L31.5133 53.7139C31.0977 54.3496 30.6325 54.974 30.1191 55.5798L17.0032 42.7684C22.0578 38.2764 28.5401 37.2533 31.9509 40.5849Z" fill="#25474F"/>
<path d="M13.558 59.4151C12.2135 58.1019 11.5343 56.2957 11.4725 54.2733L13.518 52.1792C13.249 54.3868 13.7766 56.4009 15.1714 57.7633C17.5326 60.0697 21.7028 59.8478 25.4673 57.4915L13.9956 46.2861C14.4112 45.6504 14.8763 45.026 15.3898 44.4202L28.5057 57.2316C23.4511 61.7236 16.9688 62.7467 13.558 59.4151Z" fill="#25474F"/>
<path d="M45.7589 56L42.6495 44.5547H44.7589L46.9776 53.4609L49.587 44.6094H51.6104L54.087 53.4922L56.3526 44.5547H58.462L55.2589 56H53.0635L50.6182 47.6172L47.9385 56H45.7589ZM59.6885 56V47.4141H61.7354V56H59.6885ZM59.6885 46.1641V44.4141H61.7432V46.1641H59.6885ZM67.3057 56.1172C66.7224 56.1172 66.2354 56.0495 65.8448 55.9141C65.4594 55.7734 65.1573 55.5547 64.9385 55.2578C64.7198 54.9609 64.5635 54.612 64.4698 54.2109C64.3812 53.8047 64.337 53.3047 64.337 52.7109V48.6562H62.9307L63.0089 47.5469L64.4776 47.4141L65.1339 45.0859L66.3839 45.0781V47.4141H68.5167V48.6562H66.3839V52.75C66.3839 53.401 66.4776 53.8646 66.6651 54.1406C66.8526 54.4167 67.199 54.5547 67.7042 54.5547C68.001 54.5547 68.3187 54.5286 68.6573 54.4766L68.712 55.9453C68.7016 55.9453 68.6365 55.9583 68.5167 55.9844C68.4021 56.0052 68.2901 56.0234 68.1807 56.0391C68.0766 56.0599 67.9411 56.0781 67.7745 56.0938C67.6078 56.1094 67.4516 56.1172 67.3057 56.1172ZM73.587 56.1172C73.0036 56.1172 72.5167 56.0495 72.126 55.9141C71.7406 55.7734 71.4385 55.5547 71.2198 55.2578C71.001 54.9609 70.8448 54.612 70.751 54.2109C70.6625 53.8047 70.6182 53.3047 70.6182 52.7109V48.6562H69.212L69.2901 47.5469L70.7589 47.4141L71.4151 45.0859L72.6651 45.0781V47.4141H74.7979V48.6562H72.6651V52.75C72.6651 53.401 72.7589 53.8646 72.9464 54.1406C73.1339 54.4167 73.4802 54.5547 73.9854 54.5547C74.2823 54.5547 74.6 54.5286 74.9385 54.4766L74.9932 55.9453C74.9828 55.9453 74.9177 55.9583 74.7979 55.9844C74.6833 56.0052 74.5714 56.0234 74.462 56.0391C74.3578 56.0599 74.2224 56.0781 74.0557 56.0938C73.8891 56.1094 73.7328 56.1172 73.587 56.1172ZM81.7432 56.1641C79.9984 56.1641 78.6339 55.638 77.6495 54.5859C76.6703 53.5339 76.1807 52.0938 76.1807 50.2656C76.1807 49.1042 76.4099 48.0833 76.8682 47.2031C77.3266 46.3177 78.001 45.6276 78.8917 45.1328C79.7823 44.638 80.8344 44.3906 82.0479 44.3906C83.4385 44.3906 84.6312 44.6901 85.626 45.2891L84.9385 46.8672C83.9906 46.3568 83.0401 46.1016 82.087 46.1016C80.9307 46.1016 80.0219 46.4766 79.3604 47.2266C78.699 47.9766 78.3682 48.9974 78.3682 50.2891C78.3682 51.5703 78.6625 52.5833 79.251 53.3281C79.8396 54.0729 80.7016 54.4453 81.837 54.4453C82.5661 54.4453 83.2276 54.3307 83.8214 54.1016V51.4453H81.4229L81.4385 49.7812H85.8135V55.3047C85.1052 55.5964 84.4333 55.8125 83.7979 55.9531C83.1677 56.0938 82.4828 56.1641 81.7432 56.1641ZM91.8604 56.1641C90.4802 56.1641 89.4047 55.7682 88.6339 54.9766C87.8682 54.1797 87.4854 53.0807 87.4854 51.6797C87.4854 50.3151 87.8474 49.2292 88.5714 48.4219C89.2953 47.6146 90.2823 47.2083 91.5323 47.2031C92.7146 47.2031 93.6312 47.5729 94.2823 48.3125C94.9385 49.0521 95.2667 50.0339 95.2667 51.2578C95.2667 51.3464 95.2641 51.4896 95.2589 51.6875C95.2589 51.8854 95.2589 52.0312 95.2589 52.125H89.5479C89.5687 52.9271 89.7875 53.5495 90.2042 53.9922C90.626 54.4297 91.2042 54.6484 91.9385 54.6484C92.876 54.6484 93.7771 54.4036 94.6417 53.9141L94.9307 55.3672C94.0714 55.8984 93.0479 56.1641 91.8604 56.1641ZM89.587 50.8359H93.337C93.337 50.138 93.1781 49.6016 92.8604 49.2266C92.5427 48.8516 92.1026 48.6641 91.5401 48.6641C91.0141 48.6641 90.5687 48.8464 90.2042 49.2109C89.8448 49.5755 89.6391 50.1172 89.587 50.8359ZM96.9385 56V47.4141H98.587L98.8135 48.5C99.6885 47.6354 100.66 47.2031 101.728 47.2031C102.728 47.2031 103.475 47.4922 103.97 48.0703C104.47 48.6432 104.72 49.4766 104.72 50.5703V56H102.665V50.8203C102.66 50.1276 102.548 49.6094 102.329 49.2656C102.11 48.9219 101.717 48.75 101.149 48.75C100.707 48.75 100.301 48.8646 99.9307 49.0938C99.5661 49.3177 99.3005 49.6016 99.1339 49.9453C99.0349 50.3516 98.9854 50.9766 98.9854 51.8203V56H96.9385ZM107.118 56V44.375H110.29C111.733 44.375 112.785 44.6146 113.446 45.0938C114.113 45.5729 114.446 46.3021 114.446 47.2812C114.446 47.3958 114.444 47.4818 114.439 47.5391C114.439 47.5964 114.428 47.7109 114.407 47.8828C114.386 48.0495 114.353 48.1901 114.306 48.3047C114.264 48.4193 114.196 48.5625 114.103 48.7344C114.009 48.901 113.894 49.0469 113.759 49.1719C113.629 49.2969 113.457 49.4245 113.243 49.5547C113.03 49.6797 112.787 49.7839 112.517 49.8672C113.329 49.987 113.952 50.3125 114.384 50.8438C114.816 51.375 115.032 52.0026 115.032 52.7266C115.032 53.7526 114.707 54.5547 114.056 55.1328C113.405 55.7109 112.405 56 111.056 56H107.118ZM108.118 55.2188H110.798C112.907 55.2188 113.962 54.388 113.962 52.7266C113.962 51.8255 113.67 51.2005 113.087 50.8516C112.504 50.4974 111.59 50.3203 110.345 50.3203H108.118V55.2188ZM108.118 49.5547H110.782C111.194 49.5547 111.548 49.5234 111.845 49.4609C112.142 49.3984 112.41 49.2891 112.649 49.1328C112.894 48.9714 113.077 48.7448 113.196 48.4531C113.321 48.1562 113.384 47.7891 113.384 47.3516C113.384 46.5391 113.131 45.9766 112.626 45.6641C112.126 45.3464 111.332 45.1875 110.243 45.1875H108.118V49.5547ZM116.837 56V47.4375H117.814V56H116.837ZM116.837 45.6875V44.375H117.806V45.6875H116.837ZM123.767 55.4141C124.392 55.4141 124.918 55.25 125.345 54.9219C125.777 54.5885 126.09 54.151 126.282 53.6094C126.48 53.0677 126.579 52.4453 126.579 51.7422C126.579 50.638 126.345 49.75 125.876 49.0781C125.407 48.4062 124.694 48.0703 123.735 48.0703C123.11 48.0703 122.577 48.2396 122.134 48.5781C121.696 48.9115 121.376 49.3516 121.173 49.8984C120.97 50.4401 120.868 51.0625 120.868 51.7656C120.868 52.8333 121.116 53.7083 121.61 54.3906C122.11 55.0729 122.829 55.4141 123.767 55.4141ZM123.696 56.1875C122.92 56.1875 122.235 55.9922 121.642 55.6016C121.053 55.2109 120.603 54.6823 120.29 54.0156C119.983 53.3438 119.829 52.5859 119.829 51.7422C119.829 51.1068 119.918 50.5182 120.095 49.9766C120.277 49.4297 120.535 48.9583 120.868 48.5625C121.202 48.1615 121.616 47.849 122.11 47.625C122.605 47.3958 123.155 47.2812 123.759 47.2812C124.561 47.2812 125.256 47.4792 125.845 47.875C126.433 48.2656 126.873 48.7943 127.165 49.4609C127.462 50.1224 127.61 50.8776 127.61 51.7266C127.61 52.5807 127.459 53.3411 127.157 54.0078C126.855 54.6745 126.405 55.2057 125.806 55.6016C125.207 55.9922 124.504 56.1875 123.696 56.1875ZM131.931 56.1797C131.212 56.1797 130.686 56.0182 130.353 55.6953C130.019 55.3672 129.853 54.8359 129.853 54.1016V48.1484H128.642L128.712 47.5625L129.868 47.4531L130.126 45.4922L130.806 45.4453V47.4375H133.306V48.1484H130.806V53.8984C130.806 54.5026 130.905 54.9089 131.103 55.1172C131.301 55.3203 131.649 55.4219 132.149 55.4219C132.472 55.4219 132.873 55.362 133.353 55.2422L133.392 55.9922C132.761 56.1172 132.274 56.1797 131.931 56.1797ZM138.267 56.1875C137.084 56.1875 136.144 55.7917 135.446 55C134.754 54.2083 134.407 53.1354 134.407 51.7812C134.407 50.474 134.746 49.4036 135.423 48.5703C136.105 47.737 136.985 47.3073 138.064 47.2812C139.069 47.2812 139.876 47.6406 140.485 48.3594C141.095 49.0781 141.399 50.0417 141.399 51.25C141.399 51.2969 141.397 51.3932 141.392 51.5391C141.392 51.6797 141.392 51.7786 141.392 51.8359H135.431C135.441 52.9349 135.707 53.8073 136.228 54.4531C136.748 55.0938 137.436 55.4141 138.29 55.4141C138.847 55.4141 139.332 55.349 139.743 55.2188C140.155 55.0885 140.584 54.9036 141.032 54.6641L141.196 55.3906C140.332 55.9219 139.355 56.1875 138.267 56.1875ZM135.47 51.0547H140.345C140.345 50.1016 140.139 49.3724 139.728 48.8672C139.316 48.3568 138.751 48.1016 138.032 48.1016C137.303 48.1016 136.715 48.3724 136.267 48.9141C135.819 49.4557 135.553 50.1693 135.47 51.0547ZM146.915 56.1875C146.087 56.1875 145.368 55.9844 144.759 55.5781C144.149 55.1719 143.696 54.6432 143.399 53.9922C143.103 53.3359 142.954 52.6068 142.954 51.8047C142.954 51.1901 143.043 50.612 143.22 50.0703C143.397 49.5286 143.647 49.0495 143.97 48.6328C144.298 48.2161 144.717 47.888 145.228 47.6484C145.743 47.4036 146.316 47.2812 146.946 47.2812C147.358 47.2812 147.767 47.3359 148.173 47.4453C148.584 47.5547 148.889 47.6849 149.087 47.8359L148.782 48.5625C148.246 48.2604 147.61 48.1094 146.876 48.1094C145.985 48.1094 145.28 48.4479 144.759 49.125C144.238 49.7969 143.978 50.6901 143.978 51.8047C143.978 52.8724 144.235 53.737 144.751 54.3984C145.272 55.0547 145.98 55.3828 146.876 55.3828C147.501 55.3828 148.173 55.2266 148.892 54.9141L149.04 55.6094C148.795 55.7917 148.478 55.9323 148.087 56.0312C147.696 56.1354 147.306 56.1875 146.915 56.1875ZM150.892 56V44.1172L151.86 44.0312V48.1172C151.86 48.2266 151.86 48.3021 151.86 48.3438C151.86 48.3854 151.858 48.4089 151.853 48.4141C151.853 48.4193 151.85 48.4479 151.845 48.5C151.845 48.5521 151.842 48.6302 151.837 48.7344C152.535 47.7656 153.535 47.2812 154.837 47.2812C156.696 47.2812 157.626 48.4036 157.626 50.6484V56H156.665V50.8359C156.665 49.8724 156.517 49.1771 156.22 48.75C155.923 48.3177 155.399 48.1016 154.649 48.1016C153.905 48.1016 153.285 48.2995 152.79 48.6953C152.295 49.0859 151.991 49.5911 151.876 50.2109C151.866 50.4193 151.86 50.7292 151.86 51.1406V56H150.892ZM159.876 56V47.4375H160.72L160.853 48.7578C161.16 48.2995 161.571 47.9401 162.087 47.6797C162.608 47.4141 163.168 47.2812 163.767 47.2812C164.751 47.2812 165.475 47.5521 165.939 48.0938C166.402 48.6354 166.634 49.5 166.634 50.6875V56H165.657V50.25C165.631 49.4896 165.47 48.9427 165.173 48.6094C164.876 48.276 164.389 48.1094 163.712 48.1094C162.936 48.1094 162.301 48.3047 161.806 48.6953C161.316 49.0859 161.009 49.5911 160.884 50.2109C160.863 50.4557 160.853 50.7109 160.853 50.9766V56H159.876ZM172.423 55.4141C173.048 55.4141 173.574 55.25 174.001 54.9219C174.433 54.5885 174.746 54.151 174.939 53.6094C175.136 53.0677 175.235 52.4453 175.235 51.7422C175.235 50.638 175.001 49.75 174.532 49.0781C174.064 48.4062 173.35 48.0703 172.392 48.0703C171.767 48.0703 171.233 48.2396 170.79 48.5781C170.353 48.9115 170.032 49.3516 169.829 49.8984C169.626 50.4401 169.524 51.0625 169.524 51.7656C169.524 52.8333 169.772 53.7083 170.267 54.3906C170.767 55.0729 171.485 55.4141 172.423 55.4141ZM172.353 56.1875C171.577 56.1875 170.892 55.9922 170.298 55.6016C169.709 55.2109 169.259 54.6823 168.946 54.0156C168.639 53.3438 168.485 52.5859 168.485 51.7422C168.485 51.1068 168.574 50.5182 168.751 49.9766C168.933 49.4297 169.191 48.9583 169.524 48.5625C169.858 48.1615 170.272 47.849 170.767 47.625C171.261 47.3958 171.811 47.2812 172.415 47.2812C173.217 47.2812 173.912 47.4792 174.501 47.875C175.09 48.2656 175.53 48.7943 175.821 49.4609C176.118 50.1224 176.267 50.8776 176.267 51.7266C176.267 52.5807 176.116 53.3411 175.814 54.0078C175.511 54.6745 175.061 55.2057 174.462 55.6016C173.863 55.9922 173.16 56.1875 172.353 56.1875ZM180.329 56.1797C179.61 56.1797 179.084 56.0182 178.751 55.6953C178.418 55.3672 178.251 54.8359 178.251 54.1016V44.1094L179.204 44.0312V54.0469C179.204 54.5677 179.298 54.9271 179.485 55.125C179.678 55.3229 179.967 55.4219 180.353 55.4219C180.665 55.4219 181.056 55.362 181.524 55.2422L181.564 55.9922C181.053 56.1172 180.642 56.1797 180.329 56.1797ZM186.267 55.4141C186.892 55.4141 187.418 55.25 187.845 54.9219C188.277 54.5885 188.59 54.151 188.782 53.6094C188.98 53.0677 189.079 52.4453 189.079 51.7422C189.079 50.638 188.845 49.75 188.376 49.0781C187.907 48.4062 187.194 48.0703 186.235 48.0703C185.61 48.0703 185.077 48.2396 184.634 48.5781C184.196 48.9115 183.876 49.3516 183.673 49.8984C183.47 50.4401 183.368 51.0625 183.368 51.7656C183.368 52.8333 183.616 53.7083 184.11 54.3906C184.61 55.0729 185.329 55.4141 186.267 55.4141ZM186.196 56.1875C185.42 56.1875 184.735 55.9922 184.142 55.6016C183.553 55.2109 183.103 54.6823 182.79 54.0156C182.483 53.3438 182.329 52.5859 182.329 51.7422C182.329 51.1068 182.418 50.5182 182.595 49.9766C182.777 49.4297 183.035 48.9583 183.368 48.5625C183.702 48.1615 184.116 47.849 184.61 47.625C185.105 47.3958 185.655 47.2812 186.259 47.2812C187.061 47.2812 187.756 47.4792 188.345 47.875C188.933 48.2656 189.373 48.7943 189.665 49.4609C189.962 50.1224 190.11 50.8776 190.11 51.7266C190.11 52.5807 189.959 53.3411 189.657 54.0078C189.355 54.6745 188.905 55.2057 188.306 55.6016C187.707 55.9922 187.004 56.1875 186.196 56.1875ZM193.337 59.9766L193.22 59.1094H195.032C195.433 59.1094 195.787 59.0729 196.095 59C196.402 58.9323 196.66 58.8411 196.868 58.7266C197.082 58.6172 197.261 58.4609 197.407 58.2578C197.558 58.0599 197.676 57.862 197.759 57.6641C197.842 57.4661 197.905 57.2083 197.946 56.8906C197.993 56.5781 198.022 56.2891 198.032 56.0234C198.043 55.763 198.048 55.4323 198.048 55.0312C198.048 55.0885 198.043 55.0755 198.032 54.9922C198.006 54.6328 197.993 54.4531 197.993 54.4531C197.665 54.9479 197.277 55.3307 196.829 55.6016C196.381 55.8672 195.834 56 195.189 56C194.678 56 194.212 55.9089 193.79 55.7266C193.373 55.5443 193.03 55.3073 192.759 55.0156C192.493 54.724 192.269 54.3906 192.087 54.0156C191.905 53.6406 191.774 53.2682 191.696 52.8984C191.618 52.5234 191.579 52.1536 191.579 51.7891C191.579 51.3307 191.616 50.8958 191.689 50.4844C191.767 50.0677 191.899 49.6615 192.087 49.2656C192.274 48.8698 192.509 48.5286 192.79 48.2422C193.071 47.9505 193.433 47.7188 193.876 47.5469C194.319 47.3698 194.819 47.2812 195.376 47.2812C195.923 47.2812 196.405 47.3906 196.821 47.6094C197.243 47.8229 197.634 48.1667 197.993 48.6406L198.087 47.4375H198.946V55.375C198.946 55.7188 198.941 55.9948 198.931 56.2031C198.926 56.4167 198.894 56.7031 198.837 57.0625C198.785 57.4271 198.709 57.724 198.61 57.9531C198.517 58.1875 198.371 58.4453 198.173 58.7266C197.975 59.0078 197.735 59.2292 197.454 59.3906C197.178 59.5521 196.821 59.6901 196.384 59.8047C195.952 59.9193 195.459 59.9766 194.907 59.9766H193.337ZM195.314 55.2109C195.694 55.2109 196.037 55.151 196.345 55.0312C196.652 54.9062 196.905 54.7448 197.103 54.5469C197.306 54.3438 197.475 54.1068 197.61 53.8359C197.751 53.5651 197.85 53.2865 197.907 53C197.965 52.7083 197.993 52.4089 197.993 52.1016V51.2109C197.993 50.8047 197.944 50.4219 197.845 50.0625C197.746 49.7031 197.592 49.3724 197.384 49.0703C197.181 48.763 196.899 48.5208 196.54 48.3438C196.181 48.1667 195.764 48.0781 195.29 48.0781C194.905 48.0781 194.556 48.1536 194.243 48.3047C193.936 48.4505 193.683 48.6458 193.485 48.8906C193.287 49.1354 193.121 49.4219 192.985 49.75C192.85 50.0781 192.754 50.4141 192.696 50.7578C192.644 51.0964 192.618 51.4453 192.618 51.8047C192.618 52.1224 192.642 52.4323 192.689 52.7344C192.741 53.0312 192.829 53.3333 192.954 53.6406C193.084 53.9479 193.248 54.2161 193.446 54.4453C193.644 54.6693 193.902 54.8542 194.22 55C194.543 55.1406 194.907 55.2109 195.314 55.2109ZM201.29 56V47.4375H202.267V56H201.29ZM201.29 45.6875V44.375H202.259V45.6875H201.29ZM208.142 56.1875C206.959 56.1875 206.019 55.7917 205.321 55C204.629 54.2083 204.282 53.1354 204.282 51.7812C204.282 50.474 204.621 49.4036 205.298 48.5703C205.98 47.737 206.86 47.3073 207.939 47.2812C208.944 47.2812 209.751 47.6406 210.36 48.3594C210.97 49.0781 211.274 50.0417 211.274 51.25C211.274 51.2969 211.272 51.3932 211.267 51.5391C211.267 51.6797 211.267 51.7786 211.267 51.8359H205.306C205.316 52.9349 205.582 53.8073 206.103 54.4531C206.623 55.0938 207.311 55.4141 208.165 55.4141C208.722 55.4141 209.207 55.349 209.618 55.2188C210.03 55.0885 210.459 54.9036 210.907 54.6641L211.071 55.3906C210.207 55.9219 209.23 56.1875 208.142 56.1875ZM205.345 51.0547H210.22C210.22 50.1016 210.014 49.3724 209.603 48.8672C209.191 48.3568 208.626 48.1016 207.907 48.1016C207.178 48.1016 206.59 48.3724 206.142 48.9141C205.694 49.4557 205.428 50.1693 205.345 51.0547ZM215.72 56.1953C215.168 56.1953 214.649 56.1276 214.165 55.9922C213.681 55.8568 213.298 55.6953 213.017 55.5078L213.157 54.6953C214.017 55.1432 214.84 55.3672 215.626 55.3672C217.037 55.3672 217.769 54.8438 217.821 53.7969C217.821 53.3594 217.678 53.0156 217.392 52.7656C217.11 52.5156 216.543 52.2552 215.689 51.9844C215.241 51.8281 214.993 51.7422 214.946 51.7266C213.608 51.3203 212.933 50.599 212.923 49.5625C212.923 48.9635 213.186 48.4349 213.712 47.9766C214.243 47.513 214.959 47.2812 215.86 47.2812C216.761 47.2812 217.608 47.4583 218.399 47.8125L218.071 48.5312C217.269 48.2292 216.524 48.0781 215.837 48.0781C215.233 48.0781 214.756 48.2135 214.407 48.4844C214.064 48.7552 213.892 49.1198 213.892 49.5781C213.892 49.9635 214.004 50.2604 214.228 50.4688C214.457 50.6719 214.907 50.8672 215.579 51.0547C215.652 51.0755 215.785 51.1224 215.978 51.1953C216.176 51.2682 216.285 51.3073 216.306 51.3125C217.207 51.5885 217.834 51.9167 218.189 52.2969C218.548 52.6719 218.728 53.1849 218.728 53.8359C218.712 54.5859 218.431 55.1667 217.884 55.5781C217.342 55.9896 216.621 56.1953 215.72 56.1953Z" fill="#25474F"/>
</svg>
