<svg width="25" height="24" viewBox="0 0 25 24" fill="none" xmlns="http://www.w3.org/2000/svg">
<path d="M4.75 21C4.33333 21 3.97917 20.8542 3.6875 20.5625C3.39583 20.2708 3.25 19.9167 3.25 19.5V4.5C3.25 4.08333 3.39583 3.72917 3.6875 3.4375C3.97917 3.14583 4.33333 3 4.75 3H9.875C9.95833 2.41667 10.225 1.9375 10.675 1.5625C11.125 1.1875 11.65 1 12.25 1C12.85 1 13.375 1.1875 13.825 1.5625C14.275 1.9375 14.5417 2.41667 14.625 3H19.75C20.1667 3 20.5208 3.14583 20.8125 3.4375C21.1042 3.72917 21.25 4.08333 21.25 4.5V19.5C21.25 19.9167 21.1042 20.2708 20.8125 20.5625C20.5208 20.8542 20.1667 21 19.75 21H4.75ZM4.75 19.5H19.75V4.5H4.75V19.5ZM7.25 17H14.075V15.5H7.25V17ZM7.25 12.75H17.25V11.25H7.25V12.75ZM7.25 8.5H17.25V7H7.25V8.5ZM12.25 4.075C12.4833 4.075 12.6875 3.9875 12.8625 3.8125C13.0375 3.6375 13.125 3.43333 13.125 3.2C13.125 2.96667 13.0375 2.7625 12.8625 2.5875C12.6875 2.4125 12.4833 2.325 12.25 2.325C12.0167 2.325 11.8125 2.4125 11.6375 2.5875C11.4625 2.7625 11.375 2.96667 11.375 3.2C11.375 3.43333 11.4625 3.6375 11.6375 3.8125C11.8125 3.9875 12.0167 4.075 12.25 4.075ZM4.75 19.5V4.5V19.5Z" fill="#25474F"/>
</svg>
