<svg width="26" height="24" viewBox="0 0 26 24" fill="none" xmlns="http://www.w3.org/2000/svg">
<path d="M7.41953 21C7.00286 21 6.6487 20.8542 6.35703 20.5625C6.06536 20.2708 5.91953 19.9167 5.91953 19.5V5.25H4.89453V3.75H9.59453V3H16.1945V3.75H20.8945V5.25H19.8695V19.5C19.8695 19.9 19.7195 20.25 19.4195 20.55C19.1195 20.85 18.7695 21 18.3695 21H7.41953ZM18.3695 5.25H7.41953V19.5H18.3695V5.25ZM10.0695 17.35H11.5695V7.375H10.0695V17.35ZM14.2195 17.35H15.7195V7.375H14.2195V17.35ZM7.41953 5.25V19.5V5.25Z" fill="#7C9195"/>
</svg>
