<svg width="272" height="36" xmlns="http://www.w3.org/2000/svg" xmlns:xlink="http://www.w3.org/1999/xlink" xml:space="preserve" overflow="hidden"><defs><clipPath id="clip0"><rect x="250" y="197" width="272" height="36"/></clipPath><clipPath id="clip1"><rect x="251" y="198" width="271" height="35"/></clipPath><clipPath id="clip2"><rect x="251" y="198" width="271" height="35"/></clipPath><clipPath id="clip3"><rect x="251" y="156" width="303" height="120"/></clipPath></defs><g clip-path="url(#clip0)" transform="translate(-250 -197)"><g clip-path="url(#clip1)"><g clip-path="url(#clip2)"><g clip-path="url(#clip3)"><path d="M0 0 310.474 0 310.474 119.413 0 119.413Z" fill="#FFFFFF" fill-rule="nonzero" fill-opacity="1" transform="matrix(1.0136 0 0 1 238.896 156.035)"/><path d="M38.1536 48.4637C39.759 50.032 40.5701 52.1887 40.6439 54.6037L38.2013 57.1043C38.5226 54.4682 37.8924 52.0631 36.227 50.4362 33.4074 47.682 28.4276 47.947 23.9322 50.7607L37.631 64.1415C37.1348 64.9006 36.5792 65.6462 35.9662 66.3696L20.3041 51.0711C26.3399 45.7071 34.0806 44.4853 38.1536 48.4637Z" fill="#25474F" fill-rule="nonzero" fill-opacity="1" transform="matrix(1.0136 0 0 1 251 156.035)"/><path d="M16.19 70.9495C14.5845 69.3813 13.7735 67.2245 13.6997 64.8095L16.1423 62.3088C15.8211 64.945 16.4511 67.3501 18.1166 68.977 20.9362 71.7311 25.916 71.4662 30.4113 68.6524L16.7126 55.2717C17.2089 54.5126 17.7643 53.767 18.3774 53.0436L34.0396 68.3421C28.0037 73.7061 20.263 74.9278 16.19 70.9495Z" fill="#25474F" fill-rule="nonzero" fill-opacity="1" transform="matrix(1.0136 0 0 1 251 156.035)"/><path d="M54.6422 66.8714 50.9291 53.2042 53.448 53.2042 56.0974 63.8394 59.2134 53.2695 61.6296 53.2695 64.587 63.8767 67.2924 53.2042 69.8113 53.2042 65.9864 66.8714 63.3648 66.8714 60.4448 56.8612 57.2449 66.8714 54.6422 66.8714ZM71.2759 66.8714 71.2759 56.6187 73.7202 56.6187 73.7202 66.8714 71.2759 66.8714ZM71.2759 55.126 71.2759 53.0363 73.7295 53.0363 73.7295 55.126 71.2759 55.126ZM80.3719 67.0113C79.6753 67.0113 79.0938 66.9305 78.6274 66.7688 78.1671 66.6008 77.8064 66.3396 77.5451 65.9851 77.284 65.6306 77.0973 65.2139 76.9854 64.735 76.8796 64.2499 76.8269 63.6528 76.8269 62.9438L76.8269 58.1019 75.1475 58.1019 75.2409 56.7773 76.9948 56.6187 77.7785 53.8385 79.2711 53.8292 79.2711 56.6187 81.818 56.6187 81.818 58.1019 79.2711 58.1019 79.2711 62.9904C79.2711 63.7678 79.383 64.3214 79.6069 64.651 79.8308 64.9807 80.2445 65.1455 80.8477 65.1455 81.2021 65.1455 81.5815 65.1143 81.9859 65.0522L82.0512 66.8061C82.0388 66.8061 81.961 66.8216 81.818 66.8528 81.6811 66.8776 81.5474 66.8993 81.4167 66.9181 81.2924 66.9429 81.1306 66.9646 80.9317 66.9834 80.7326 67.002 80.5461 67.0113 80.3719 67.0113ZM87.8726 67.0113C87.1759 67.0113 86.5945 66.9305 86.1279 66.7688 85.6677 66.6008 85.307 66.3396 85.0458 65.9851 84.7845 65.6306 84.598 65.2139 84.486 64.735 84.3803 64.2499 84.3274 63.6528 84.3274 62.9438L84.3274 58.1019 82.6482 58.1019 82.7415 56.7773 84.4955 56.6187 85.279 53.8385 86.7717 53.8292 86.7717 56.6187 89.3185 56.6187 89.3185 58.1019 86.7717 58.1019 86.7717 62.9904C86.7717 63.7678 86.8837 64.3214 87.1076 64.651 87.3315 64.9807 87.745 65.1455 88.3483 65.1455 88.7029 65.1455 89.0822 65.1143 89.4864 65.0522L89.5518 66.8061C89.5393 66.8061 89.4616 66.8216 89.3185 66.8528 89.1817 66.8776 89.0481 66.8993 88.9174 66.9181 88.793 66.9429 88.6313 66.9646 88.4323 66.9834 88.2333 67.002 88.0467 67.0113 87.8726 67.0113ZM97.6122 67.0673C95.5286 67.0673 93.8992 66.4391 92.7237 65.1828 91.5544 63.9265 90.9698 62.2069 90.9698 60.0237 90.9698 58.6369 91.2435 57.4178 91.7908 56.3667 92.3381 55.3094 93.1435 54.4854 94.2071 53.8945 95.2706 53.3037 96.5269 53.0082 97.976 53.0082 99.6366 53.0082 101.061 53.3659 102.249 54.0812L101.428 55.9656C100.296 55.3561 99.1608 55.0514 98.0227 55.0514 96.6419 55.0514 95.5567 55.4992 94.7668 56.3948 93.977 57.2904 93.582 58.5093 93.582 60.0518 93.582 61.5817 93.9334 62.7914 94.6361 63.6808 95.339 64.5702 96.3683 65.0149 97.7242 65.0149 98.5948 65.0149 99.3847 64.878 100.094 64.6044L100.094 61.4325 97.2297 61.4325 97.2483 59.4453 102.473 59.4453 102.473 66.0411C101.627 66.3894 100.824 66.6475 100.066 66.8154 99.3132 66.9834 98.4953 67.0673 97.6122 67.0673ZM109.693 67.0673C108.045 67.0673 106.761 66.5946 105.841 65.6493 104.926 64.6977 104.469 63.3853 104.469 61.7124 104.469 60.0829 104.901 58.7861 105.766 57.8221 106.63 56.8581 107.809 56.3729 109.302 56.3667 110.713 56.3667 111.808 56.8083 112.585 57.6915 113.369 58.5747 113.761 59.7471 113.761 61.2086 113.761 61.3144 113.758 61.4854 113.752 61.7217 113.752 61.958 113.752 62.1321 113.752 62.2441L106.932 62.2441C106.957 63.2019 107.218 63.9452 107.716 64.4738 108.219 64.9962 108.91 65.2574 109.787 65.2574 110.906 65.2574 111.982 64.9651 113.015 64.3805L113.36 66.1157C112.334 66.7501 111.111 67.0673 109.693 67.0673ZM106.979 60.7048 111.457 60.7048C111.457 59.8714 111.267 59.2308 110.888 58.783 110.508 58.3352 109.983 58.1113 109.311 58.1113 108.683 58.1113 108.151 58.329 107.716 58.7643 107.287 59.1997 107.041 59.8465 106.979 60.7048ZM115.757 66.8714 115.757 56.6187 117.726 56.6187 117.996 57.9154C119.041 56.8829 120.201 56.3667 121.477 56.3667 122.671 56.3667 123.563 56.7119 124.154 57.4023 124.751 58.0864 125.049 59.0816 125.049 60.3876L125.049 66.8714 122.596 66.8714 122.596 60.6861C122.59 59.859 122.456 59.2402 122.194 58.8296 121.933 58.4192 121.464 58.2139 120.785 58.2139 120.257 58.2139 119.773 58.3508 119.33 58.6245 118.895 58.8918 118.578 59.2308 118.379 59.6413 118.261 60.1264 118.202 60.8728 118.202 61.8803L118.202 66.8714 115.757 66.8714ZM127.913 66.8714 127.913 52.9896 131.701 52.9896C133.424 52.9896 134.68 53.2757 135.469 53.8479 136.266 54.42 136.664 55.2908 136.664 56.46 136.664 56.5968 136.661 56.6995 136.655 56.7679 136.655 56.8364 136.642 56.9731 136.617 57.1784 136.592 57.3774 136.553 57.5453 136.496 57.6822 136.446 57.819 136.365 57.99 136.254 58.1953 136.142 58.3942 136.004 58.5685 135.843 58.7177 135.688 58.867 135.483 59.0194 135.227 59.1748 134.973 59.3241 134.683 59.4485 134.36 59.548 135.33 59.6911 136.074 60.0798 136.59 60.7142 137.105 61.3485 137.363 62.098 137.363 62.9625 137.363 64.1877 136.975 65.1455 136.198 65.8358 135.421 66.5262 134.226 66.8714 132.615 66.8714L127.913 66.8714ZM129.107 65.9385 132.307 65.9385C134.826 65.9385 136.086 64.9464 136.086 62.9625 136.086 61.8865 135.737 61.1401 135.041 60.7235 134.345 60.3005 133.253 60.0891 131.766 60.0891L129.107 60.0891 129.107 65.9385ZM129.107 59.1748 132.288 59.1748C132.78 59.1748 133.203 59.1375 133.558 59.0628 133.912 58.9882 134.232 58.8577 134.518 58.671 134.81 58.4783 135.029 58.2077 135.171 57.8594 135.32 57.5048 135.395 57.0665 135.395 56.544 135.395 55.5738 135.093 54.9021 134.49 54.5289 133.893 54.1496 132.945 53.9598 131.645 53.9598L129.107 53.9598 129.107 59.1748ZM139.519 66.8714 139.519 56.6466 140.685 56.6466 140.685 66.8714 139.519 66.8714ZM139.519 54.5569 139.519 52.9896 140.676 52.9896 140.676 54.5569 139.519 54.5569ZM147.794 66.1717C148.54 66.1717 149.169 65.9758 149.678 65.584 150.194 65.1859 150.568 64.6634 150.797 64.0167 151.034 63.3698 151.152 62.6266 151.152 61.787 151.152 60.4684 150.873 59.4081 150.313 58.6057 149.752 57.8034 148.901 57.4023 147.756 57.4023 147.01 57.4023 146.373 57.6044 145.844 58.0086 145.321 58.4068 144.939 58.9323 144.697 59.5853 144.454 60.2321 144.332 60.9754 144.332 61.8149 144.332 63.0899 144.628 64.1348 145.218 64.9495 145.815 65.7643 146.674 66.1717 147.794 66.1717ZM147.709 67.0953C146.783 67.0953 145.965 66.8621 145.257 66.3956 144.553 65.9291 144.016 65.2979 143.642 64.5017 143.276 63.6995 143.092 62.7945 143.092 61.787 143.092 61.0283 143.198 60.3254 143.409 59.6786 143.627 59.0256 143.935 58.4627 144.332 57.99 144.731 57.5112 145.226 57.138 145.815 56.8705 146.407 56.5968 147.063 56.46 147.785 56.46 148.742 56.46 149.572 56.6964 150.276 57.1691 150.978 57.6355 151.503 58.2668 151.852 59.0628 152.206 59.8527 152.383 60.7546 152.383 61.7684 152.383 62.7883 152.203 63.6963 151.842 64.4924 151.482 65.2886 150.944 65.9229 150.229 66.3956 149.514 66.8621 148.674 67.0953 147.709 67.0953ZM157.543 67.086C156.684 67.086 156.056 66.8931 155.659 66.5075 155.26 66.1157 155.062 65.4813 155.062 64.6044L155.062 57.4955 153.615 57.4955 153.699 56.7959 155.079 56.6652 155.388 54.3237 156.2 54.2677 156.2 56.6466 159.185 56.6466 159.185 57.4955 156.2 57.4955 156.2 64.3618C156.2 65.0833 156.318 65.5685 156.554 65.8172 156.791 66.0597 157.206 66.1811 157.803 66.1811 158.189 66.1811 158.668 66.1095 159.241 65.9665L159.288 66.8621C158.534 67.0113 157.953 67.086 157.543 67.086ZM165.109 67.0953C163.696 67.0953 162.574 66.6226 161.74 65.6772 160.914 64.7318 160.5 63.4507 160.5 61.8336 160.5 60.2726 160.904 58.9944 161.713 57.9993 162.527 57.0043 163.578 56.4911 164.867 56.46 166.067 56.46 167.03 56.8891 167.758 57.7475 168.486 58.6057 168.849 59.7564 168.849 61.1993 168.849 61.2553 168.847 61.3703 168.841 61.5445 168.841 61.7124 168.841 61.8305 168.841 61.8989L161.722 61.8989C161.734 63.2112 162.052 64.253 162.674 65.0242 163.295 65.7893 164.117 66.1717 165.136 66.1717 165.802 66.1717 166.381 66.094 166.872 65.9385 167.364 65.7829 167.876 65.5621 168.411 65.2761L168.607 66.1437C167.575 66.7781 166.408 67.0953 165.109 67.0953ZM161.769 60.966 167.59 60.966C167.59 59.8279 167.344 58.9571 166.854 58.3539 166.362 57.7444 165.687 57.4396 164.828 57.4396 163.958 57.4396 163.256 57.763 162.721 58.4099 162.186 59.0566 161.868 59.9088 161.769 60.966ZM175.436 67.0953C174.447 67.0953 173.589 66.8528 172.861 66.3676 172.133 65.8825 171.592 65.2512 171.237 64.4738 170.884 63.6901 170.706 62.8195 170.706 61.8616 170.706 61.1277 170.812 60.4374 171.024 59.7905 171.235 59.1437 171.533 58.5716 171.919 58.074 172.311 57.5764 172.811 57.1846 173.421 56.8985 174.036 56.6061 174.721 56.46 175.473 56.46 175.965 56.46 176.453 56.5253 176.938 56.6559 177.429 56.7866 177.793 56.9421 178.03 57.1224L177.665 57.99C177.025 57.6293 176.266 57.449 175.389 57.449 174.325 57.449 173.483 57.8532 172.861 58.6617 172.239 59.4641 171.929 60.5307 171.929 61.8616 171.929 63.1366 172.236 64.1691 172.852 64.9589 173.474 65.7426 174.319 66.1344 175.389 66.1344 176.136 66.1344 176.938 65.9478 177.797 65.5747L177.973 66.405C177.681 66.6226 177.302 66.7905 176.835 66.9086 176.368 67.0331 175.903 67.0953 175.436 67.0953ZM180.185 66.8714 180.185 52.6817 181.341 52.5791 181.341 57.4583C181.341 57.5889 181.341 57.6791 181.341 57.7289 181.341 57.7785 181.338 57.8066 181.332 57.8128 181.332 57.819 181.329 57.8532 181.323 57.9154 181.323 57.9776 181.319 58.0709 181.313 58.1953 182.147 57.0384 183.341 56.46 184.896 56.46 187.116 56.46 188.226 57.8003 188.226 60.4809L188.226 66.8714 187.079 66.8714 187.079 60.7048C187.079 59.5542 186.902 58.7239 186.547 58.2139 186.193 57.6977 185.567 57.4396 184.671 57.4396 183.783 57.4396 183.042 57.676 182.451 58.1486 181.86 58.615 181.497 59.2183 181.36 59.9584 181.348 60.2073 181.341 60.5773 181.341 61.0686L181.341 66.8714 180.185 66.8714ZM190.913 66.8714 190.913 56.6466 191.921 56.6466 192.08 58.2232C192.446 57.676 192.937 57.2468 193.553 56.9358 194.175 56.6187 194.844 56.46 195.559 56.46 196.734 56.46 197.599 56.7835 198.153 57.4303 198.706 58.0771 198.983 59.1095 198.983 60.5276L198.983 66.8714 197.816 66.8714 197.816 60.0051C197.785 59.0971 197.593 58.444 197.238 58.046 196.884 57.6479 196.302 57.449 195.494 57.449 194.567 57.449 193.809 57.6822 193.218 58.1486 192.633 58.615 192.266 59.2183 192.117 59.9584 192.092 60.2508 192.08 60.5555 192.08 60.8728L192.08 66.8714 190.913 66.8714ZM205.896 66.1717C206.642 66.1717 207.27 65.9758 207.78 65.584 208.296 65.1859 208.67 64.6634 208.9 64.0167 209.135 63.3698 209.254 62.6266 209.254 61.787 209.254 60.4684 208.974 59.4081 208.414 58.6057 207.855 57.8034 207.003 57.4023 205.859 57.4023 205.112 57.4023 204.475 57.6044 203.946 58.0086 203.424 58.4068 203.041 58.9323 202.798 59.5853 202.556 60.2321 202.434 60.9754 202.434 61.8149 202.434 63.0899 202.73 64.1348 203.321 64.9495 203.918 65.7643 204.776 66.1717 205.896 66.1717ZM205.812 67.0953C204.886 67.0953 204.068 66.8621 203.358 66.3956 202.655 65.9291 202.118 65.2979 201.744 64.5017 201.377 63.6995 201.193 62.7945 201.193 61.787 201.193 61.0283 201.3 60.3254 201.511 59.6786 201.728 59.0256 202.036 58.4627 202.434 57.99 202.833 57.5112 203.327 57.138 203.918 56.8705 204.508 56.5968 205.165 56.46 205.886 56.46 206.844 56.46 207.674 56.6964 208.377 57.1691 209.081 57.6355 209.606 58.2668 209.953 59.0628 210.308 59.8527 210.486 60.7546 210.486 61.7684 210.486 62.7883 210.306 63.6963 209.945 64.4924 209.583 65.2886 209.046 65.9229 208.331 66.3956 207.615 66.8621 206.776 67.0953 205.812 67.0953ZM215.337 67.086C214.478 67.086 213.85 66.8931 213.452 66.5075 213.055 66.1157 212.855 65.4813 212.855 64.6044L212.855 52.6724 213.993 52.5791 213.993 64.5391C213.993 65.161 214.105 65.5902 214.329 65.8265 214.559 66.0628 214.904 66.1811 215.365 66.1811 215.738 66.1811 216.205 66.1095 216.764 65.9665L216.811 66.8621C216.201 67.0113 215.71 67.086 215.337 67.086ZM222.427 66.1717C223.174 66.1717 223.802 65.9758 224.312 65.584 224.828 65.1859 225.201 64.6634 225.431 64.0167 225.667 63.3698 225.785 62.6266 225.785 61.787 225.785 60.4684 225.506 59.4081 224.946 58.6057 224.386 57.8034 223.534 57.4023 222.389 57.4023 221.643 57.4023 221.006 57.6044 220.477 58.0086 219.954 58.4068 219.572 58.9323 219.33 59.5853 219.087 60.2321 218.966 60.9754 218.966 61.8149 218.966 63.0899 219.262 64.1348 219.852 64.9495 220.449 65.7643 221.307 66.1717 222.427 66.1717ZM222.343 67.0953C221.416 67.0953 220.598 66.8621 219.89 66.3956 219.186 65.9291 218.649 65.2979 218.275 64.5017 217.909 63.6995 217.725 62.7945 217.725 61.787 217.725 61.0283 217.831 60.3254 218.042 59.6786 218.26 59.0256 218.568 58.4627 218.966 57.99 219.364 57.5112 219.859 57.138 220.449 56.8705 221.04 56.5968 221.697 56.46 222.418 56.46 223.375 56.46 224.205 56.6964 224.909 57.1691 225.611 57.6355 226.136 58.2668 226.485 59.0628 226.84 59.8527 227.016 60.7546 227.016 61.7684 227.016 62.7883 226.836 63.6963 226.475 64.4924 226.115 65.2886 225.577 65.9229 224.862 66.3956 224.147 66.8621 223.307 67.0953 222.343 67.0953ZM230.87 71.62 230.73 70.5844 232.894 70.5844C233.373 70.5844 233.795 70.5408 234.163 70.4538 234.53 70.3729 234.838 70.264 235.086 70.1273 235.342 69.9967 235.556 69.81 235.73 69.5675 235.91 69.3312 236.051 69.0948 236.15 68.8585 236.249 68.6221 236.325 68.3142 236.374 67.9349 236.43 67.5617 236.464 67.2166 236.476 66.8993 236.489 66.5884 236.495 66.1935 236.495 65.7145 236.495 65.7829 236.489 65.7674 236.476 65.6679 236.445 65.2388 236.43 65.0242 236.43 65.0242 236.038 65.615 235.575 66.0721 235.04 66.3956 234.505 66.7128 233.852 66.8714 233.081 66.8714 232.471 66.8714 231.915 66.7626 231.411 66.5449 230.913 66.3272 230.503 66.0442 230.18 65.6959 229.862 65.3477 229.595 64.9495 229.377 64.5017 229.16 64.0539 229.003 63.6092 228.91 63.1677 228.817 62.7199 228.771 62.2783 228.771 61.843 228.771 61.2956 228.815 60.7763 228.902 60.285 228.995 59.7874 229.153 59.3024 229.377 58.8296 229.6 58.357 229.881 57.9495 230.217 57.6075 230.552 57.2592 230.984 56.9825 231.513 56.7773 232.042 56.5658 232.64 56.46 233.305 56.46 233.958 56.46 234.533 56.5906 235.03 56.8519 235.534 57.1068 236.001 57.5174 236.43 58.0833L236.542 56.6466 237.568 56.6466 237.568 66.125C237.568 66.5356 237.562 66.8652 237.55 67.1139 237.544 67.369 237.506 67.711 237.438 68.1401 237.375 68.5755 237.285 68.9301 237.167 69.2036 237.055 69.4835 236.881 69.7914 236.645 70.1273 236.408 70.4631 236.122 70.7275 235.786 70.9202 235.456 71.1131 235.03 71.2778 234.508 71.4147 233.992 71.5515 233.404 71.62 232.745 71.62L230.87 71.62ZM233.231 65.9291C233.684 65.9291 234.094 65.8576 234.462 65.7145 234.828 65.5652 235.131 65.3725 235.367 65.1362 235.609 64.8937 235.811 64.6106 235.972 64.2872 236.141 63.9638 236.259 63.6311 236.327 63.289 236.396 62.9407 236.43 62.5831 236.43 62.2162L236.43 61.1526C236.43 60.6675 236.371 60.2104 236.253 59.7812 236.135 59.352 235.951 58.9571 235.702 58.5964 235.46 58.2294 235.123 57.9402 234.695 57.7289 234.266 57.5174 233.768 57.4116 233.202 57.4116 232.742 57.4116 232.326 57.5017 231.952 57.6822 231.585 57.8563 231.283 58.0895 231.047 58.3818 230.81 58.6741 230.612 59.0163 230.45 59.4081 230.288 59.7998 230.174 60.2011 230.104 60.6115 230.042 61.0158 230.011 61.4325 230.011 61.8616 230.011 62.241 230.04 62.6111 230.096 62.9718 230.158 63.3262 230.263 63.687 230.412 64.0539 230.568 64.4209 230.764 64.7412 231 65.0149 231.236 65.2823 231.545 65.5031 231.924 65.6772 232.31 65.8451 232.745 65.9291 233.231 65.9291ZM240.367 66.8714 240.367 56.6466 241.533 56.6466 241.533 66.8714 240.367 66.8714ZM240.367 54.5569 240.367 52.9896 241.524 52.9896 241.524 54.5569 240.367 54.5569ZM248.549 67.0953C247.136 67.0953 246.014 66.6226 245.18 65.6772 244.354 64.7318 243.94 63.4507 243.94 61.8336 243.94 60.2726 244.344 58.9944 245.153 57.9993 245.967 57.0043 247.018 56.4911 248.307 56.46 249.507 56.46 250.47 56.8891 251.198 57.7475 251.926 58.6057 252.289 59.7564 252.289 61.1993 252.289 61.2553 252.287 61.3703 252.281 61.5445 252.281 61.7124 252.281 61.8305 252.281 61.8989L245.162 61.8989C245.174 63.2112 245.492 64.253 246.114 65.0242 246.735 65.7893 247.557 66.1717 248.576 66.1717 249.242 66.1717 249.821 66.094 250.312 65.9385 250.803 65.7829 251.316 65.5621 251.851 65.2761L252.047 66.1437C251.015 66.7781 249.848 67.0953 248.549 67.0953ZM245.209 60.966 251.03 60.966C251.03 59.8279 250.784 58.9571 250.294 58.3539 249.802 57.7444 249.127 57.4396 248.268 57.4396 247.398 57.4396 246.696 57.763 246.161 58.4099 245.626 59.0566 245.308 59.9088 245.209 60.966ZM257.598 67.1046C256.939 67.1046 256.319 67.0238 255.741 66.8621 255.163 66.7004 254.706 66.5075 254.37 66.2836L254.538 65.3134C255.564 65.8482 256.547 66.1157 257.486 66.1157 259.171 66.1157 260.045 65.4907 260.107 64.2406 260.107 63.7182 259.936 63.3076 259.595 63.0091 259.258 62.7105 258.581 62.3996 257.561 62.0762 257.026 61.8896 256.73 61.787 256.674 61.7684 255.076 61.2832 254.27 60.4219 254.258 59.1842 254.258 58.4689 254.572 57.8377 255.2 57.2904 255.834 56.7368 256.689 56.46 257.765 56.46 258.841 56.46 259.853 56.6715 260.797 57.0944L260.405 57.9526C259.448 57.592 258.558 57.4116 257.738 57.4116 257.017 57.4116 256.447 57.5733 256.03 57.8968 255.621 58.2201 255.415 58.6555 255.415 59.2028 255.415 59.663 255.549 60.0175 255.816 60.2664 256.09 60.5089 256.627 60.7421 257.43 60.966 257.517 60.9909 257.676 61.0469 257.906 61.1339 258.143 61.221 258.273 61.2677 258.298 61.2739 259.374 61.6035 260.122 61.9954 260.546 62.4494 260.975 62.8972 261.19 63.5098 261.19 64.2872 261.171 65.1828 260.835 65.8763 260.182 66.3676 259.535 66.859 258.674 67.1046 257.598 67.1046Z" fill="#25474F" fill-rule="nonzero" fill-opacity="1" transform="matrix(1.0136 0 0 1 251 156.035)"/></g></g></g></g></svg>