<svg width="19" height="18" viewBox="0 0 19 18" fill="none" xmlns="http://www.w3.org/2000/svg">
<path d="M10.1562 16.5L9.96875 14.4375H9.21875C7.43125 14.4375 5.90625 13.8063 4.64375 12.5438C3.38125 11.2813 2.75 9.75625 2.75 7.96875C2.75 6.18125 3.38437 4.65625 4.65312 3.39375C5.92187 2.13125 7.45625 1.5 9.25625 1.5C10.1438 1.5 10.9656 1.65938 11.7219 1.97813C12.4781 2.29688 13.1375 2.74375 13.7 3.31875C14.2625 3.89375 14.7031 4.57187 15.0219 5.35312C15.3406 6.13437 15.5 6.9875 15.5 7.9125C15.5 8.7375 15.3781 9.5625 15.1344 10.3875C14.8906 11.2125 14.5375 12 14.075 12.75C13.6125 13.5 13.05 14.1937 12.3875 14.8312C11.725 15.4687 10.9813 16.025 10.1562 16.5ZM11.0938 14.475C12.1188 13.6125 12.9219 12.5969 13.5031 11.4281C14.0844 10.2594 14.375 9.0875 14.375 7.9125C14.375 6.3625 13.8906 5.09375 12.9219 4.10625C11.9531 3.11875 10.7313 2.625 9.25625 2.625C7.75625 2.625 6.48438 3.14688 5.44063 4.19063C4.39688 5.23438 3.875 6.49375 3.875 7.96875C3.875 9.44375 4.39688 10.7031 5.44063 11.7469C6.48438 12.7906 7.74375 13.3125 9.21875 13.3125H11.0938V14.475ZM9.25625 12.3187C9.45625 12.3187 9.625 12.25 9.7625 12.1125C9.9 11.975 9.96875 11.8063 9.96875 11.6063C9.96875 11.4063 9.9 11.2375 9.7625 11.1C9.625 10.9625 9.45625 10.8937 9.25625 10.8937C9.05625 10.8937 8.8875 10.9625 8.75 11.1C8.6125 11.2375 8.54375 11.4063 8.54375 11.6063C8.54375 11.8063 8.6125 11.975 8.75 12.1125C8.8875 12.25 9.05625 12.3187 9.25625 12.3187ZM8.75 9.76875H9.6875C9.6875 9.45625 9.74062 9.19688 9.84687 8.99063C9.95312 8.78438 10.175 8.5125 10.5125 8.175C10.85 7.8375 11.0875 7.52813 11.225 7.24688C11.3625 6.96563 11.4312 6.6625 11.4312 6.3375C11.4312 5.775 11.2406 5.3125 10.8594 4.95C10.4781 4.5875 9.96875 4.40625 9.33125 4.40625C8.80625 4.40625 8.3375 4.54375 7.925 4.81875C7.5125 5.09375 7.20625 5.46875 7.00625 5.94375L7.86875 6.3C8.00625 5.975 8.19687 5.73437 8.44062 5.57812C8.68437 5.42188 8.9625 5.34375 9.275 5.34375C9.65 5.34375 9.94375 5.43438 10.1562 5.61563C10.3687 5.79688 10.475 6.0375 10.475 6.3375C10.475 6.575 10.4062 6.81563 10.2687 7.05938C10.1312 7.30313 9.8875 7.60625 9.5375 7.96875C9.2 8.31875 8.98438 8.6 8.89062 8.8125C8.79688 9.025 8.75 9.34375 8.75 9.76875V9.76875Z" fill="white"/>
</svg>
