<svg width="25" height="24" viewBox="0 0 25 24" fill="none" xmlns="http://www.w3.org/2000/svg">
<g clip-path="url(#clip0_17_6550)">
<path d="M0.5 18V16.675C0.5 16.025 0.85 15.5 1.55 15.1C2.25 14.7 3.15 14.5 4.25 14.5C4.46667 14.5 4.66667 14.5042 4.85 14.5125C5.03333 14.5208 5.21667 14.5417 5.4 14.575C5.26667 14.8583 5.16667 15.1458 5.1 15.4375C5.03333 15.7292 5 16.0417 5 16.375V18H0.5ZM6.5 18V16.375C6.5 15.2917 7.05417 14.4167 8.1625 13.75C9.27083 13.0833 10.7167 12.75 12.5 12.75C14.3 12.75 15.75 13.0833 16.85 13.75C17.95 14.4167 18.5 15.2917 18.5 16.375V18H6.5ZM20 18V16.375C20 16.0417 19.9708 15.7292 19.9125 15.4375C19.8542 15.1458 19.7583 14.8583 19.625 14.575C19.8083 14.5417 19.9917 14.5208 20.175 14.5125C20.3583 14.5042 20.55 14.5 20.75 14.5C21.8833 14.5 22.7917 14.7 23.475 15.1C24.1583 15.5 24.5 16.025 24.5 16.675V18H20ZM12.5 14.25C11.1667 14.25 10.0833 14.45 9.25 14.85C8.41667 15.25 8 15.7583 8 16.375V16.5H17V16.35C17 15.75 16.5875 15.25 15.7625 14.85C14.9375 14.45 13.85 14.25 12.5 14.25ZM4.25 13.75C3.76667 13.75 3.35417 13.5792 3.0125 13.2375C2.67083 12.8958 2.5 12.4833 2.5 12C2.5 11.5167 2.67083 11.1042 3.0125 10.7625C3.35417 10.4208 3.76667 10.25 4.25 10.25C4.73333 10.25 5.14583 10.4208 5.4875 10.7625C5.82917 11.1042 6 11.5167 6 12C6 12.4833 5.82917 12.8958 5.4875 13.2375C5.14583 13.5792 4.73333 13.75 4.25 13.75ZM20.75 13.75C20.2667 13.75 19.8542 13.5792 19.5125 13.2375C19.1708 12.8958 19 12.4833 19 12C19 11.5167 19.1708 11.1042 19.5125 10.7625C19.8542 10.4208 20.2667 10.25 20.75 10.25C21.2333 10.25 21.6458 10.4208 21.9875 10.7625C22.3292 11.1042 22.5 11.5167 22.5 12C22.5 12.4833 22.3292 12.8958 21.9875 13.2375C21.6458 13.5792 21.2333 13.75 20.75 13.75ZM12.5 12C11.6667 12 10.9583 11.7083 10.375 11.125C9.79167 10.5417 9.5 9.83333 9.5 9C9.5 8.15 9.79167 7.4375 10.375 6.8625C10.9583 6.2875 11.6667 6 12.5 6C13.35 6 14.0625 6.2875 14.6375 6.8625C15.2125 7.4375 15.5 8.15 15.5 9C15.5 9.83333 15.2125 10.5417 14.6375 11.125C14.0625 11.7083 13.35 12 12.5 12ZM12.5 7.5C12.0833 7.5 11.7292 7.64167 11.4375 7.925C11.1458 8.20833 11 8.56667 11 9C11 9.41667 11.1458 9.77083 11.4375 10.0625C11.7292 10.3542 12.0833 10.5 12.5 10.5C12.9333 10.5 13.2917 10.3542 13.575 10.0625C13.8583 9.77083 14 9.41667 14 9C14 8.56667 13.8583 8.20833 13.575 7.925C13.2917 7.64167 12.9333 7.5 12.5 7.5Z" fill="white"/>
</g>
<defs>
<clipPath id="clip0_17_6550">
<rect width="24" height="24" fill="white" transform="translate(0.5)"/>
</clipPath>
</defs>
</svg>
