<svg width="24" height="24" viewBox="0 0 24 24" fill="none" xmlns="http://www.w3.org/2000/svg">
<path d="M6.46793 21C6.05488 21 5.70379 20.8542 5.41465 20.5625C5.12552 20.2708 4.98095 19.9167 4.98095 19.5V5.25H3.96484V3.75H8.62406V3H15.1668V3.75H19.826V5.25H18.8099V19.5C18.8099 19.9 18.6612 20.25 18.3638 20.55C18.0664 20.85 17.7194 21 17.3229 21H6.46793ZM17.3229 5.25H6.46793V19.5H17.3229V5.25ZM9.09493 17.35H10.5819V7.375H9.09493V17.35ZM13.2089 17.35H14.6959V7.375H13.2089V17.35ZM6.46793 5.25V19.5V5.25Z" fill="#7C9195"/>
</svg>
