<svg width="18" height="19" viewBox="0 0 18 19" fill="none" xmlns="http://www.w3.org/2000/svg">
<path d="M4.85144 16.25C4.54165 16.25 4.27833 16.1406 4.06148 15.9219C3.84463 15.7031 3.7362 15.4375 3.7362 15.125V4.4375H2.97412V3.3125H6.46853V2.75H11.3756V3.3125H14.87V4.4375H14.1079V15.125C14.1079 15.425 13.9964 15.6875 13.7733 15.9125C13.5503 16.1375 13.2901 16.25 12.9927 16.25H4.85144ZM12.9927 4.4375H4.85144V15.125H12.9927V4.4375ZM6.82169 13.5125H7.93693V6.03125H6.82169V13.5125ZM9.90718 13.5125H11.0224V6.03125H9.90718V13.5125ZM4.85144 4.4375V15.125V4.4375Z" fill="#7C9195"/>
</svg>
