<svg width="16" height="17" viewBox="0 0 16 17" fill="none" xmlns="http://www.w3.org/2000/svg">
<path d="M7.3335 10.25H8.66683V11.5834H7.3335V10.25ZM7.3335 4.91671H8.66683V8.91671H7.3335V4.91671ZM8.00016 1.58337C4.3135 1.58337 1.3335 4.58337 1.3335 8.25004C1.3335 10.0182 2.03587 11.7138 3.28612 12.9641C3.90517 13.5831 4.6401 14.0742 5.44894 14.4092C6.25778 14.7443 7.12468 14.9167 8.00016 14.9167C9.76827 14.9167 11.464 14.2143 12.7142 12.9641C13.9644 11.7138 14.6668 10.0182 14.6668 8.25004C14.6668 7.37456 14.4944 6.50765 14.1594 5.69882C13.8243 4.88998 13.3333 4.15505 12.7142 3.536C12.0951 2.91694 11.3602 2.42588 10.5514 2.09084C9.74255 1.75581 8.87564 1.58337 8.00016 1.58337ZM8.00016 13.5834C6.58567 13.5834 5.22912 13.0215 4.22893 12.0213C3.22873 11.0211 2.66683 9.66453 2.66683 8.25004C2.66683 6.83555 3.22873 5.479 4.22893 4.4788C5.22912 3.47861 6.58567 2.91671 8.00016 2.91671C9.41465 2.91671 10.7712 3.47861 11.7714 4.4788C12.7716 5.479 13.3335 6.83555 13.3335 8.25004C13.3335 9.66453 12.7716 11.0211 11.7714 12.0213C10.7712 13.0215 9.41465 13.5834 8.00016 13.5834Z" fill="#DD0000"/>
</svg>
