<svg width="18" height="18" viewBox="0 0 18 18" fill="none" xmlns="http://www.w3.org/2000/svg">
<path d="M10.125 16.4813C8.725 16.4813 7.5625 15.9906 6.6375 15.0094C5.7125 14.0281 5.25 12.8562 5.25 11.4937V10.8375C4.1875 10.7 3.29688 10.2281 2.57812 9.42188C1.85938 8.61562 1.5 7.6625 1.5 6.5625V2.25H3.75V1.5H4.875V4.125H3.75V3.375H2.625V6.5625C2.625 7.45 2.93438 8.20312 3.55313 8.82187C4.17188 9.44062 4.925 9.75 5.8125 9.75C6.7 9.75 7.45312 9.44062 8.07187 8.82187C8.69062 8.20312 9 7.45 9 6.5625V3.375H7.875V4.125H6.75V1.5H7.875V2.25H10.125V6.5625C10.125 7.6625 9.76562 8.61562 9.04688 9.42188C8.32812 10.2281 7.4375 10.7 6.375 10.8375V11.4937C6.375 12.5562 6.72813 13.4656 7.43438 14.2219C8.14063 14.9781 9.0375 15.3563 10.125 15.3563C11.1375 15.3563 12.0156 14.9813 12.7594 14.2313C13.5031 13.4813 13.875 12.5687 13.875 11.4937V10.05C13.4375 9.925 13.0781 9.68125 12.7969 9.31875C12.5156 8.95625 12.375 8.5375 12.375 8.0625C12.375 7.4875 12.575 7 12.975 6.6C13.375 6.2 13.8625 6 14.4375 6C15.0125 6 15.5 6.2 15.9 6.6C16.3 7 16.5 7.4875 16.5 8.0625C16.5 8.5375 16.3594 8.95625 16.0781 9.31875C15.7969 9.68125 15.4375 9.925 15 10.05V11.4937C15 12.8812 14.5219 14.0594 13.5656 15.0281C12.6094 15.9969 11.4625 16.4813 10.125 16.4813ZM14.4375 9C14.7 9 14.9219 8.90937 15.1031 8.72812C15.2844 8.54688 15.375 8.325 15.375 8.0625C15.375 7.8 15.2844 7.57812 15.1031 7.39688C14.9219 7.21563 14.7 7.125 14.4375 7.125C14.175 7.125 13.9531 7.21563 13.7719 7.39688C13.5906 7.57812 13.5 7.8 13.5 8.0625C13.5 8.325 13.5906 8.54688 13.7719 8.72812C13.9531 8.90937 14.175 9 14.4375 9Z" fill="white"/>
</svg>
