<svg width="15" height="16" viewBox="0 0 15 16" fill="none" xmlns="http://www.w3.org/2000/svg">
<path d="M6.95625 13.3812H7.9875V12.4062C8.75 12.3188 9.34375 12.0844 9.76875 11.7031C10.1937 11.3219 10.4062 10.8125 10.4062 10.175C10.4062 9.5375 10.225 9.01875 9.8625 8.61875C9.5 8.21875 8.8875 7.8375 8.025 7.475C7.3 7.175 6.775 6.90625 6.45 6.66875C6.125 6.43125 5.9625 6.1125 5.9625 5.7125C5.9625 5.325 6.10312 5.01875 6.38437 4.79375C6.66562 4.56875 7.05 4.45625 7.5375 4.45625C7.9125 4.45625 8.2375 4.54375 8.5125 4.71875C8.7875 4.89375 9.01875 5.15625 9.20625 5.50625L10.1063 5.075C9.89375 4.6375 9.6125 4.29375 9.2625 4.04375C8.9125 3.79375 8.5 3.64375 8.025 3.59375V2.6375H6.99375V3.59375C6.35625 3.68125 5.85313 3.91563 5.48438 4.29688C5.11562 4.67812 4.93125 5.15 4.93125 5.7125C4.93125 6.325 5.11875 6.8125 5.49375 7.175C5.86875 7.5375 6.43125 7.875 7.18125 8.1875C8.01875 8.5375 8.59375 8.85312 8.90625 9.13437C9.21875 9.41562 9.375 9.7625 9.375 10.175C9.375 10.575 9.20937 10.8969 8.87812 11.1406C8.54688 11.3844 8.13125 11.5062 7.63125 11.5062C7.14375 11.5062 6.70937 11.3687 6.32812 11.0938C5.94688 10.8188 5.68125 10.4438 5.53125 9.96875L4.575 10.2875C4.8375 10.8625 5.15937 11.3156 5.54062 11.6469C5.92188 11.9781 6.39375 12.2188 6.95625 12.3688V13.3812ZM7.5 15.5C6.475 15.5 5.50625 15.3031 4.59375 14.9094C3.68125 14.5156 2.88438 13.9781 2.20312 13.2969C1.52188 12.6156 0.984375 11.8188 0.590625 10.9062C0.196875 9.99375 0 9.025 0 8C0 6.9625 0.196875 5.9875 0.590625 5.075C0.984375 4.1625 1.52188 3.36875 2.20312 2.69375C2.88438 2.01875 3.68125 1.48437 4.59375 1.09062C5.50625 0.696875 6.475 0.5 7.5 0.5C8.5375 0.5 9.5125 0.696875 10.425 1.09062C11.3375 1.48437 12.1313 2.01875 12.8063 2.69375C13.4813 3.36875 14.0156 4.1625 14.4094 5.075C14.8031 5.9875 15 6.9625 15 8C15 9.025 14.8031 9.99375 14.4094 10.9062C14.0156 11.8188 13.4813 12.6156 12.8063 13.2969C12.1313 13.9781 11.3375 14.5156 10.425 14.9094C9.5125 15.3031 8.5375 15.5 7.5 15.5ZM7.5 14.375C9.275 14.375 10.7812 13.7531 12.0187 12.5094C13.2562 11.2656 13.875 9.7625 13.875 8C13.875 6.225 13.2562 4.71875 12.0187 3.48125C10.7812 2.24375 9.275 1.625 7.5 1.625C5.7375 1.625 4.23438 2.24375 2.99063 3.48125C1.74688 4.71875 1.125 6.225 1.125 8C1.125 9.7625 1.74688 11.2656 2.99063 12.5094C4.23438 13.7531 5.7375 14.375 7.5 14.375Z" fill="white"/>
</svg>
