<svg width="18" height="18" viewBox="0 0 19 18" fill="none" xmlns="http://www.w3.org/2000/svg">
<path d="M8.95625 14.3812H9.9875V13.4062C10.75 13.3188 11.3438 13.0844 11.7687 12.7031C12.1937 12.3219 12.4062 11.8125 12.4062 11.175C12.4062 10.5375 12.225 10.0188 11.8625 9.61875C11.5 9.21875 10.8875 8.8375 10.025 8.475C9.3 8.175 8.775 7.90625 8.45 7.66875C8.125 7.43125 7.9625 7.1125 7.9625 6.7125C7.9625 6.325 8.10312 6.01875 8.38437 5.79375C8.66562 5.56875 9.05 5.45625 9.5375 5.45625C9.9125 5.45625 10.2375 5.54375 10.5125 5.71875C10.7875 5.89375 11.0187 6.15625 11.2062 6.50625L12.1063 6.075C11.8938 5.6375 11.6125 5.29375 11.2625 5.04375C10.9125 4.79375 10.5 4.64375 10.025 4.59375V3.6375H8.99375V4.59375C8.35625 4.68125 7.85313 4.91563 7.48438 5.29688C7.11562 5.67812 6.93125 6.15 6.93125 6.7125C6.93125 7.325 7.11875 7.8125 7.49375 8.175C7.86875 8.5375 8.43125 8.875 9.18125 9.1875C10.0188 9.5375 10.5938 9.85312 10.9062 10.1344C11.2188 10.4156 11.375 10.7625 11.375 11.175C11.375 11.575 11.2094 11.8969 10.8781 12.1406C10.5469 12.3844 10.1313 12.5062 9.63125 12.5062C9.14375 12.5062 8.70937 12.3687 8.32812 12.0938C7.94688 11.8188 7.68125 11.4438 7.53125 10.9688L6.575 11.2875C6.8375 11.8625 7.15937 12.3156 7.54062 12.6469C7.92188 12.9781 8.39375 13.2188 8.95625 13.3688V14.3812ZM9.5 16.5C8.475 16.5 7.50625 16.3031 6.59375 15.9094C5.68125 15.5156 4.88438 14.9781 4.20312 14.2969C3.52188 13.6156 2.98437 12.8188 2.59062 11.9062C2.19687 10.9937 2 10.025 2 9C2 7.9625 2.19687 6.9875 2.59062 6.075C2.98437 5.1625 3.52188 4.36875 4.20312 3.69375C4.88438 3.01875 5.68125 2.48437 6.59375 2.09062C7.50625 1.69687 8.475 1.5 9.5 1.5C10.5375 1.5 11.5125 1.69687 12.425 2.09062C13.3375 2.48437 14.1313 3.01875 14.8063 3.69375C15.4813 4.36875 16.0156 5.1625 16.4094 6.075C16.8031 6.9875 17 7.9625 17 9C17 10.025 16.8031 10.9937 16.4094 11.9062C16.0156 12.8188 15.4813 13.6156 14.8063 14.2969C14.1313 14.9781 13.3375 15.5156 12.425 15.9094C11.5125 16.3031 10.5375 16.5 9.5 16.5Z" fill="white"/>
</svg>
