<svg width="19" height="19" viewBox="0 0 19 19" fill="none" xmlns="http://www.w3.org/2000/svg">
<path d="M17 4.625V14.375C17 14.675 16.8875 14.9375 16.6625 15.1625C16.4375 15.3875 16.175 15.5 15.875 15.5H3.125C2.825 15.5 2.5625 15.3875 2.3375 15.1625C2.1125 14.9375 2 14.675 2 14.375V4.625C2 4.325 2.1125 4.0625 2.3375 3.8375C2.5625 3.6125 2.825 3.5 3.125 3.5H15.875C16.175 3.5 16.4375 3.6125 16.6625 3.8375C16.8875 4.0625 17 4.325 17 4.625ZM3.125 6.66875H15.875V4.625H3.125V6.66875ZM3.125 9.0875V14.375H15.875V9.0875H3.125Z" fill="#717F8C"/>
</svg>
