<svg width="12" height="13" viewBox="0 0 12 13" fill="none" xmlns="http://www.w3.org/2000/svg">
<g clip-path="url(#clip0_466_2256)">
<path d="M6 8.12506C6.11667 8.12506 6.21458 8.08548 6.29375 8.00631C6.37292 7.92714 6.4125 7.82923 6.4125 7.71256C6.4125 7.59589 6.37292 7.49798 6.29375 7.41881C6.21458 7.33964 6.11667 7.30006 6 7.30006C5.88333 7.30006 5.78542 7.33964 5.70625 7.41881C5.62708 7.49798 5.5875 7.59589 5.5875 7.71256C5.5875 7.82923 5.62708 7.92714 5.70625 8.00631C5.78542 8.08548 5.88333 8.12506 6 8.12506ZM5.6625 6.21256H6.4125V3.05006H5.6625V6.21256ZM6 10.6251C5.31667 10.6251 4.67083 10.4938 4.0625 10.2313C3.45417 9.96881 2.92292 9.61048 2.46875 9.15631C2.01458 8.70214 1.65625 8.17089 1.39375 7.56256C1.13125 6.95423 1 6.30423 1 5.61256C1 4.92923 1.13125 4.28339 1.39375 3.67506C1.65625 3.06673 2.01458 2.53756 2.46875 2.08756C2.92292 1.63756 3.45417 1.28131 4.0625 1.01881C4.67083 0.756311 5.32083 0.625061 6.0125 0.625061C6.69583 0.625061 7.34167 0.756311 7.95 1.01881C8.55833 1.28131 9.0875 1.63756 9.5375 2.08756C9.9875 2.53756 10.3438 3.06673 10.6062 3.67506C10.8687 4.28339 11 4.93339 11 5.62506C11 6.30839 10.8687 6.95423 10.6062 7.56256C10.3438 8.17089 9.9875 8.70214 9.5375 9.15631C9.0875 9.61048 8.55833 9.96881 7.95 10.2313C7.34167 10.4938 6.69167 10.6251 6 10.6251ZM6.0125 9.87506C7.1875 9.87506 8.1875 9.46048 9.0125 8.63131C9.8375 7.80215 10.25 6.79589 10.25 5.61256C10.25 4.43756 9.8375 3.43756 9.0125 2.61256C8.1875 1.78756 7.18333 1.37506 6 1.37506C4.825 1.37506 3.82292 1.78756 2.99375 2.61256C2.16458 3.43756 1.75 4.44173 1.75 5.62506C1.75 6.80006 2.16458 7.80215 2.99375 8.63131C3.82292 9.46048 4.82917 9.87506 6.0125 9.87506Z" fill="#B60B0B"/>
</g>
<defs>
<clipPath id="clip0_466_2256">
<rect width="12" height="12" fill="white" transform="translate(0 0.125)"/>
</clipPath>
</defs>
</svg>
