<?xml version="1.0" encoding="UTF-8"?>
<svg version="1.1" xmlns="http://www.w3.org/2000/svg" width="1920" height="1920">
<path d="M0 0 C633.6 0 1267.2 0 1920 0 C1920 633.6 1920 1267.2 1920 1920 C1286.4 1920 652.8 1920 0 1920 C0 1286.4 0 652.8 0 0 Z " fill="#FEFEFE" transform="translate(0,0)"/>
<path d="M0 0 C1.56089355 0.00090637 1.56089355 0.00090637 3.15332031 0.00183105 C65.71504229 0.09973299 132.41597265 8.68232902 190.90234375 32.15234375 C194.43440758 33.49523746 197.93490445 34.39159704 201.625 35.1875 C201.625 35.8475 201.625 36.5075 201.625 37.1875 C202.8625 37.414375 204.1 37.64125 205.375 37.875 C217.51289516 40.61399953 228.93708016 46.99052691 240.22851562 52.10766602 C242.57843593 53.16651865 244.93479784 54.2096746 247.29296875 55.25 C278.86765359 69.2728443 308.67156857 87.99434845 336.625 108.1875 C337.62015625 108.90292969 338.6153125 109.61835938 339.640625 110.35546875 C350.44488605 118.15686954 360.87180317 126.40848242 371.00390625 135.06640625 C371.5752832 135.55399414 372.14666016 136.04158203 372.73535156 136.54394531 C373.83759997 137.4868325 374.93737914 138.43261712 376.03417969 139.38183594 C378.54594783 141.5322898 381.05213111 143.46876871 383.81640625 145.2890625 C386.33319577 146.9902582 387.89101882 148.39833802 389.75 150.75 C392.7034688 154.26170686 395.90512684 157.37441066 399.3125 160.4375 C407.49980676 167.81939193 415.44529384 175.46264312 422.58984375 183.87109375 C424.89883695 186.49918006 427.29089796 189.03739626 429.69238281 191.58081055 C434.88269203 197.08077659 439.95436975 202.57870342 444.58984375 208.5625 C446.14223538 210.56481704 447.71494658 212.5375305 449.31640625 214.5 C468.10938752 237.5748869 484.75713325 262.42245504 499.625 288.1875 C500.20556152 289.18990723 500.78612305 290.19231445 501.38427734 291.22509766 C507.8485741 302.4320443 514.12053826 313.56094858 519.0625 325.52734375 C520.71172998 329.39066497 522.57098738 333.08472513 524.5 336.8125 C529.53866494 346.65510183 533.58702898 356.90280347 537.625 367.1875 C538.05425781 368.27828857 538.05425781 368.27828857 538.4921875 369.39111328 C545.11180929 386.32931632 550.75643209 403.66888197 555.625 421.1875 C555.97062988 422.41847412 555.97062988 422.41847412 556.32324219 423.67431641 C562.46023163 445.71094271 567.09783428 468.21755386 570.29394531 490.87060547 C570.64452951 493.32417778 571.02198536 495.77292882 571.3984375 498.22265625 C580.21176594 557.71805014 577.9358373 620.23053791 566.625 679.1875 C566.49569092 679.8646405 566.36638184 680.54178101 566.2331543 681.23944092 C563.26842726 696.70991717 559.90842616 712.02840469 555.625 727.1875 C555.32303711 728.26950684 555.02107422 729.35151367 554.70996094 730.46630859 C544.87085074 765.69186197 544.87085074 765.69186197 539.58203125 776.96484375 C538.45713323 779.57736201 537.60901413 782.22612618 536.75 784.9375 C534.97325613 790.41291301 532.72422249 795.52036925 530.25390625 800.71484375 C528.81456538 803.78336661 527.45161956 806.86874954 526.11621094 809.98291016 C505.63197629 857.68323334 477.00040877 901.43616639 444.08105469 941.41113281 C442.78538703 942.99182998 441.50487367 944.58492145 440.2265625 946.1796875 C434.87211996 952.84857803 429.18227891 959.13431036 423.33300781 965.36621094 C421.48556827 967.33617935 419.64489531 969.31233803 417.8046875 971.2890625 C401.43180404 988.8525161 401.43180404 988.8525161 392.546875 996.48046875 C390.7150398 998.10752562 389.01371889 999.80052329 387.3125 1001.5625 C383.68805995 1005.24408212 379.73377471 1008.43316677 375.7109375 1011.66796875 C372.91948504 1013.94706601 370.1887363 1016.27727665 367.46899414 1018.64038086 C360.74332827 1024.48121197 353.84909583 1029.96649107 346.625 1035.1875 C346.09471191 1035.57083496 345.56442383 1035.95416992 345.01806641 1036.34912109 C341.5329455 1038.86346769 338.03064055 1041.35272661 334.52294922 1043.83544922 C332.55986304 1045.23390192 330.60948027 1046.64884531 328.66015625 1048.06640625 C318.0145156 1055.76285696 306.98449491 1062.59886539 295.625 1069.1875 C294.74730957 1069.69845215 293.86961914 1070.2094043 292.96533203 1070.73583984 C282.50320908 1076.81412552 271.95769293 1082.69191142 261.23046875 1088.2890625 C258.34478639 1089.79703063 255.50927112 1091.37489621 252.6875 1093 C249.87375635 1094.58120516 247.06433028 1095.85987427 244.0546875 1097.0234375 C239.49562686 1098.82026585 235.01297647 1100.75365513 230.53344727 1102.73925781 C220.07534829 1107.3721499 209.54883708 1111.57260801 198.77587891 1115.40820312 C196.73873057 1116.14629365 194.71769222 1116.91557771 192.69921875 1117.703125 C149.42821917 1134.5629604 100.88351491 1144.92416985 54.62255859 1147.96972656 C52.63350579 1148.13470132 52.63350579 1148.13470132 50.79006958 1148.68188477 C48.48189282 1149.22092025 46.35366664 1149.39175318 43.98632812 1149.49511719 C42.60253967 1149.55617645 42.60253967 1149.55617645 41.1907959 1149.61846924 C40.18939575 1149.65671814 39.18799561 1149.69496704 38.15625 1149.734375 C37.0990979 1149.77600769 36.0419458 1149.81764038 34.95275879 1149.86053467 C22.01271436 1150.33172953 9.0725963 1150.42933752 -3.875 1150.4375 C-5.14404175 1150.43883942 -6.4130835 1150.44017883 -7.72058105 1150.44155884 C-27.14289934 1150.4371287 -46.11174566 1149.74289108 -65.375 1147.1875 C-67.31228335 1146.95521718 -69.24977559 1146.72466804 -71.1875 1146.49609375 C-114.75080486 1141.15244153 -158.38537015 1130.99282338 -199.375 1115.1875 C-200.65476866 1114.70785478 -201.93472143 1114.22870053 -203.21484375 1113.75 C-221.40121563 1106.85379552 -239.24724102 1099.04568059 -256.53320312 1090.12597656 C-258.42323112 1089.16292412 -260.3257478 1088.23028554 -262.234375 1087.3046875 C-296.80297044 1070.48799674 -329.71472064 1048.60324259 -359.375 1024.1875 C-360.65712536 1023.15311668 -361.93972233 1022.11931779 -363.22265625 1021.0859375 C-372.36514037 1013.68448034 -381.08660268 1005.96890253 -389.60498047 997.86035156 C-391.89269549 995.69822421 -394.21265715 993.57281583 -396.53564453 991.44873047 C-404.64324719 984.03134051 -412.52711588 976.46884332 -419.671875 968.10546875 C-421.45237808 966.10036093 -423.32592556 964.24226121 -425.25 962.375 C-429.13500648 958.5421913 -432.5436062 954.42543736 -435.95703125 950.171875 C-438.08848181 947.54113473 -440.26291696 944.96114846 -442.46728516 942.39208984 C-447.61537855 936.38687372 -452.46081478 930.22582305 -457.14453125 923.84765625 C-458.49773451 922.02190581 -459.87196688 920.21332774 -461.25 918.40625 C-467.98887864 909.552597 -474.34198774 900.53515484 -480.375 891.1875 C-480.83342285 890.48318848 -481.2918457 889.77887695 -481.76416016 889.05322266 C-502.67234062 856.86665314 -520.09899718 822.7812718 -534.375 787.1875 C-534.9006958 785.87773193 -534.9006958 785.87773193 -535.43701172 784.54150391 C-536.41889974 782.09118175 -537.39766174 779.63963986 -538.375 777.1875 C-538.84421875 776.011875 -539.3134375 774.83625 -539.796875 773.625 C-544.30841709 761.94806754 -547.93664658 750.01904919 -551.5234375 738.03027344 C-552.19430696 735.79070808 -552.87462023 733.55467558 -553.5625 731.3203125 C-561.76500374 703.91027916 -567.02874848 675.25033394 -570.625 646.875 C-570.77598145 645.69921387 -570.92696289 644.52342773 -571.08251953 643.31201172 C-573.75847609 620.99025007 -574.71147982 598.68880166 -574.63574219 576.22290039 C-574.62424545 572.7843502 -574.6311934 569.34610631 -574.64263248 565.90756607 C-574.67949806 552.81341222 -574.62783369 539.85883427 -572.86962891 526.86645508 C-572.16335063 521.61329254 -571.818164 516.34701199 -571.4375 511.0625 C-570.80461814 502.93334137 -569.80337599 495.11685194 -568.1484375 487.12890625 C-567.41403392 483.54664877 -566.89614381 479.95382812 -566.40039062 476.33178711 C-560.44290411 433.01517813 -546.38448924 390.32989461 -529.375 350.1875 C-528.97522949 349.23311035 -528.57545898 348.2787207 -528.16357422 347.29541016 C-522.91706848 334.78835697 -517.26977145 322.65060193 -510.76708984 310.74804688 C-509.22926027 307.91943296 -507.71731111 305.07778911 -506.20703125 302.234375 C-500.00440278 290.59643466 -493.61163991 279.21154024 -486.375 268.1875 C-485.72370117 267.1881543 -485.07240234 266.18880859 -484.40136719 265.15917969 C-475.66392575 251.76491007 -466.7923412 238.55614602 -456.83349609 226.02685547 C-455.38183393 224.19611849 -453.94842339 222.35245234 -452.51953125 220.50390625 C-443.17504941 208.44376618 -433.30553386 196.95447195 -422.88671875 185.8125 C-421.38324525 184.19636311 -419.8928154 182.56919184 -418.40625 180.9375 C-409.57440917 171.25546551 -400.59827281 161.606041 -390.58984375 153.12109375 C-388.11790167 150.96304908 -385.73159439 148.72663702 -383.34082031 146.47949219 C-377.98097339 141.44379516 -372.58708248 136.58223191 -366.77734375 132.0625 C-364.22459141 130.07010793 -361.7391411 128.0087021 -359.25 125.9375 C-334.47101967 105.66378882 -307.67120562 88.20672594 -279.78662109 72.54980469 C-277.61467508 71.32289046 -275.45536762 70.07737781 -273.30078125 68.8203125 C-257.352739 59.56462501 -240.55021431 52.02201483 -223.625 44.75 C-221.89491699 44.00592896 -221.89491699 44.00592896 -220.12988281 43.24682617 C-178.04633045 25.35368152 -132.65367779 12.55873197 -87.375 6.1875 C-86.47023926 6.05561279 -85.56547852 5.92372559 -84.63330078 5.7878418 C-56.42973432 1.70691471 -28.49462163 -0.03098239 0 0 Z " fill="#FEFEFE" transform="translate(959.375,384.8125)"/>
<path d="M0 0 C1.56089355 0.00090637 1.56089355 0.00090637 3.15332031 0.00183105 C65.71504229 0.09973299 132.41597265 8.68232902 190.90234375 32.15234375 C194.43440758 33.49523746 197.93490445 34.39159704 201.625 35.1875 C201.625 35.8475 201.625 36.5075 201.625 37.1875 C202.8625 37.414375 204.1 37.64125 205.375 37.875 C217.51289516 40.61399953 228.93708016 46.99052691 240.22851562 52.10766602 C242.57843593 53.16651865 244.93479784 54.2096746 247.29296875 55.25 C278.86765359 69.2728443 308.67156857 87.99434845 336.625 108.1875 C337.62015625 108.90292969 338.6153125 109.61835938 339.640625 110.35546875 C350.44488605 118.15686954 360.87180317 126.40848242 371.00390625 135.06640625 C371.5752832 135.55399414 372.14666016 136.04158203 372.73535156 136.54394531 C373.83759997 137.4868325 374.93737914 138.43261712 376.03417969 139.38183594 C378.54594783 141.5322898 381.05213111 143.46876871 383.81640625 145.2890625 C386.33319577 146.9902582 387.89101882 148.39833802 389.75 150.75 C392.7034688 154.26170686 395.90512684 157.37441066 399.3125 160.4375 C407.49980676 167.81939193 415.44529384 175.46264312 422.58984375 183.87109375 C424.89883695 186.49918006 427.29089796 189.03739626 429.69238281 191.58081055 C434.88269203 197.08077659 439.95436975 202.57870342 444.58984375 208.5625 C446.14223538 210.56481704 447.71494658 212.5375305 449.31640625 214.5 C468.10938752 237.5748869 484.75713325 262.42245504 499.625 288.1875 C500.20556152 289.18990723 500.78612305 290.19231445 501.38427734 291.22509766 C507.8485741 302.4320443 514.12053826 313.56094858 519.0625 325.52734375 C520.71172998 329.39066497 522.57098738 333.08472513 524.5 336.8125 C529.53866494 346.65510183 533.58702898 356.90280347 537.625 367.1875 C538.05425781 368.27828857 538.05425781 368.27828857 538.4921875 369.39111328 C545.11180929 386.32931632 550.75643209 403.66888197 555.625 421.1875 C555.97062988 422.41847412 555.97062988 422.41847412 556.32324219 423.67431641 C562.46023163 445.71094271 567.09783428 468.21755386 570.29394531 490.87060547 C570.64452951 493.32417778 571.02198536 495.77292882 571.3984375 498.22265625 C580.21176594 557.71805014 577.9358373 620.23053791 566.625 679.1875 C566.49569092 679.8646405 566.36638184 680.54178101 566.2331543 681.23944092 C563.26842726 696.70991717 559.90842616 712.02840469 555.625 727.1875 C555.32303711 728.26950684 555.02107422 729.35151367 554.70996094 730.46630859 C544.87085074 765.69186197 544.87085074 765.69186197 539.58203125 776.96484375 C538.45713323 779.57736201 537.60901413 782.22612618 536.75 784.9375 C534.97325613 790.41291301 532.72422249 795.52036925 530.25390625 800.71484375 C528.81456538 803.78336661 527.45161956 806.86874954 526.11621094 809.98291016 C505.63197629 857.68323334 477.00040877 901.43616639 444.08105469 941.41113281 C442.78538703 942.99182998 441.50487367 944.58492145 440.2265625 946.1796875 C434.87211996 952.84857803 429.18227891 959.13431036 423.33300781 965.36621094 C421.48556827 967.33617935 419.64489531 969.31233803 417.8046875 971.2890625 C401.43180404 988.8525161 401.43180404 988.8525161 392.546875 996.48046875 C390.7150398 998.10752562 389.01371889 999.80052329 387.3125 1001.5625 C383.68805995 1005.24408212 379.73377471 1008.43316677 375.7109375 1011.66796875 C372.91948504 1013.94706601 370.1887363 1016.27727665 367.46899414 1018.64038086 C360.74332827 1024.48121197 353.84909583 1029.96649107 346.625 1035.1875 C346.09471191 1035.57083496 345.56442383 1035.95416992 345.01806641 1036.34912109 C341.5329455 1038.86346769 338.03064055 1041.35272661 334.52294922 1043.83544922 C332.55986304 1045.23390192 330.60948027 1046.64884531 328.66015625 1048.06640625 C318.0145156 1055.76285696 306.98449491 1062.59886539 295.625 1069.1875 C294.74730957 1069.69845215 293.86961914 1070.2094043 292.96533203 1070.73583984 C282.50320908 1076.81412552 271.95769293 1082.69191142 261.23046875 1088.2890625 C258.34478639 1089.79703063 255.50927112 1091.37489621 252.6875 1093 C249.87375635 1094.58120516 247.06433028 1095.85987427 244.0546875 1097.0234375 C239.49562686 1098.82026585 235.01297647 1100.75365513 230.53344727 1102.73925781 C220.07534829 1107.3721499 209.54883708 1111.57260801 198.77587891 1115.40820312 C196.73873057 1116.14629365 194.71769222 1116.91557771 192.69921875 1117.703125 C149.42821917 1134.5629604 100.88351491 1144.92416985 54.62255859 1147.96972656 C52.63350579 1148.13470132 52.63350579 1148.13470132 50.79006958 1148.68188477 C48.48189282 1149.22092025 46.35366664 1149.39175318 43.98632812 1149.49511719 C42.60253967 1149.55617645 42.60253967 1149.55617645 41.1907959 1149.61846924 C40.18939575 1149.65671814 39.18799561 1149.69496704 38.15625 1149.734375 C37.0990979 1149.77600769 36.0419458 1149.81764038 34.95275879 1149.86053467 C22.01271436 1150.33172953 9.0725963 1150.42933752 -3.875 1150.4375 C-5.14404175 1150.43883942 -6.4130835 1150.44017883 -7.72058105 1150.44155884 C-27.14289934 1150.4371287 -46.11174566 1149.74289108 -65.375 1147.1875 C-67.31228335 1146.95521718 -69.24977559 1146.72466804 -71.1875 1146.49609375 C-114.75080486 1141.15244153 -158.38537015 1130.99282338 -199.375 1115.1875 C-200.65476866 1114.70785478 -201.93472143 1114.22870053 -203.21484375 1113.75 C-221.40121563 1106.85379552 -239.24724102 1099.04568059 -256.53320312 1090.12597656 C-258.42323112 1089.16292412 -260.3257478 1088.23028554 -262.234375 1087.3046875 C-296.80297044 1070.48799674 -329.71472064 1048.60324259 -359.375 1024.1875 C-360.65712536 1023.15311668 -361.93972233 1022.11931779 -363.22265625 1021.0859375 C-372.36514037 1013.68448034 -381.08660268 1005.96890253 -389.60498047 997.86035156 C-391.89269549 995.69822421 -394.21265715 993.57281583 -396.53564453 991.44873047 C-404.64324719 984.03134051 -412.52711588 976.46884332 -419.671875 968.10546875 C-421.45237808 966.10036093 -423.32592556 964.24226121 -425.25 962.375 C-429.13500648 958.5421913 -432.5436062 954.42543736 -435.95703125 950.171875 C-438.08848181 947.54113473 -440.26291696 944.96114846 -442.46728516 942.39208984 C-447.61537855 936.38687372 -452.46081478 930.22582305 -457.14453125 923.84765625 C-458.49773451 922.02190581 -459.87196688 920.21332774 -461.25 918.40625 C-467.98887864 909.552597 -474.34198774 900.53515484 -480.375 891.1875 C-480.83342285 890.48318848 -481.2918457 889.77887695 -481.76416016 889.05322266 C-502.67234062 856.86665314 -520.09899718 822.7812718 -534.375 787.1875 C-534.9006958 785.87773193 -534.9006958 785.87773193 -535.43701172 784.54150391 C-536.41889974 782.09118175 -537.39766174 779.63963986 -538.375 777.1875 C-538.84421875 776.011875 -539.3134375 774.83625 -539.796875 773.625 C-544.30841709 761.94806754 -547.93664658 750.01904919 -551.5234375 738.03027344 C-552.19430696 735.79070808 -552.87462023 733.55467558 -553.5625 731.3203125 C-561.76500374 703.91027916 -567.02874848 675.25033394 -570.625 646.875 C-570.77598145 645.69921387 -570.92696289 644.52342773 -571.08251953 643.31201172 C-573.75847609 620.99025007 -574.71147982 598.68880166 -574.63574219 576.22290039 C-574.62424545 572.7843502 -574.6311934 569.34610631 -574.64263248 565.90756607 C-574.67949806 552.81341222 -574.62783369 539.85883427 -572.86962891 526.86645508 C-572.16335063 521.61329254 -571.818164 516.34701199 -571.4375 511.0625 C-570.80461814 502.93334137 -569.80337599 495.11685194 -568.1484375 487.12890625 C-567.41403392 483.54664877 -566.89614381 479.95382812 -566.40039062 476.33178711 C-560.44290411 433.01517813 -546.38448924 390.32989461 -529.375 350.1875 C-528.97522949 349.23311035 -528.57545898 348.2787207 -528.16357422 347.29541016 C-522.91706848 334.78835697 -517.26977145 322.65060193 -510.76708984 310.74804688 C-509.22926027 307.91943296 -507.71731111 305.07778911 -506.20703125 302.234375 C-500.00440278 290.59643466 -493.61163991 279.21154024 -486.375 268.1875 C-485.72370117 267.1881543 -485.07240234 266.18880859 -484.40136719 265.15917969 C-475.66392575 251.76491007 -466.7923412 238.55614602 -456.83349609 226.02685547 C-455.38183393 224.19611849 -453.94842339 222.35245234 -452.51953125 220.50390625 C-443.17504941 208.44376618 -433.30553386 196.95447195 -422.88671875 185.8125 C-421.38324525 184.19636311 -419.8928154 182.56919184 -418.40625 180.9375 C-409.57440917 171.25546551 -400.59827281 161.606041 -390.58984375 153.12109375 C-388.11790167 150.96304908 -385.73159439 148.72663702 -383.34082031 146.47949219 C-377.98097339 141.44379516 -372.58708248 136.58223191 -366.77734375 132.0625 C-364.22459141 130.07010793 -361.7391411 128.0087021 -359.25 125.9375 C-334.47101967 105.66378882 -307.67120562 88.20672594 -279.78662109 72.54980469 C-277.61467508 71.32289046 -275.45536762 70.07737781 -273.30078125 68.8203125 C-257.352739 59.56462501 -240.55021431 52.02201483 -223.625 44.75 C-221.89491699 44.00592896 -221.89491699 44.00592896 -220.12988281 43.24682617 C-178.04633045 25.35368152 -132.65367779 12.55873197 -87.375 6.1875 C-86.47023926 6.05561279 -85.56547852 5.92372559 -84.63330078 5.7878418 C-56.42973432 1.70691471 -28.49462163 -0.03098239 0 0 Z M-61.8125 52.375 C-63.09169312 52.53831314 -63.09169312 52.53831314 -64.39672852 52.70492554 C-128.61242067 60.95636547 -190.42337601 80.22866609 -247.375 111.1875 C-248.921875 112.01701172 -248.921875 112.01701172 -250.5 112.86328125 C-255.49263344 115.5555298 -260.43908504 118.33032717 -265.375 121.125 C-266.4475 121.73214844 -267.52 122.33929688 -268.625 122.96484375 C-277.43402712 128.10252107 -285.89547221 133.81305007 -294.3125 139.5625 C-295.27542969 140.22024414 -296.23835937 140.87798828 -297.23046875 141.55566406 C-304.08877533 146.26148185 -310.81175654 151.07556531 -317.375 156.1875 C-318.48691544 157.04305157 -319.59889816 157.89851572 -320.7109375 158.75390625 C-332.71962095 168.04244601 -344.15632925 177.96288868 -355.375 188.1875 C-356.72078125 189.3940625 -356.72078125 189.3940625 -358.09375 190.625 C-364.11062978 196.05960109 -369.94320313 201.65263807 -375.6875 207.375 C-376.34508301 208.02799072 -377.00266602 208.68098145 -377.68017578 209.35375977 C-381.5324135 213.2181604 -385.19123478 217.19741508 -388.75610352 221.32788086 C-390.1791422 222.96251902 -391.628646 224.55821305 -393.11328125 226.13671875 C-398.71847654 232.09914955 -403.85517211 238.23280442 -408.7734375 244.76953125 C-411.07972478 247.82771435 -413.47406549 250.80646516 -415.88891602 253.77929688 C-421.29540074 260.44129981 -426.38479229 267.22815116 -431.15625 274.36669922 C-432.52257069 276.40796919 -433.9019785 278.44011651 -435.28125 280.47265625 C-441.63076181 289.86662058 -447.723884 299.35726527 -453.375 309.1875 C-454.15230469 310.53908203 -454.15230469 310.53908203 -454.9453125 311.91796875 C-477.78974974 351.81749954 -495.05237189 392.91349194 -507.375 437.1875 C-507.62531982 438.06172607 -507.87563965 438.93595215 -508.13354492 439.83666992 C-517.10654072 471.2907681 -522.7873064 504.2129639 -524.1640625 536.89453125 C-524.375 540.1875 -524.375 540.1875 -524.87910461 542.57182312 C-525.3815802 545.22220828 -525.50853409 547.63626794 -525.52026367 550.33129883 C-525.52664352 551.33457718 -525.53302338 552.33785553 -525.53959656 553.37153625 C-525.54070938 554.4516246 -525.5418222 555.53171295 -525.54296875 556.64453125 C-525.54629715 557.77912277 -525.54962555 558.91371429 -525.55305481 560.08268738 C-525.55811918 562.4943298 -525.56046329 564.90597922 -525.56030273 567.31762695 C-525.56245278 570.92086262 -525.58051081 574.52377313 -525.59960938 578.12695312 C-525.63468203 592.3627702 -525.04563417 606.39245455 -523.63479614 620.55807495 C-523.39571675 622.97782354 -523.17543774 625.39820811 -522.96459961 627.82055664 C-520.89360529 651.36500892 -516.72582037 674.18012746 -511.375 697.1875 C-511.12041016 698.2919043 -510.86582031 699.39630859 -510.60351562 700.53417969 C-508.20817791 710.81903233 -505.36404351 720.91112927 -502.09472656 730.95019531 C-501.27104005 733.5106645 -500.47461922 736.07889844 -499.6796875 738.6484375 C-499.07821363 740.57815263 -498.47665164 742.50784029 -497.875 744.4375 C-497.60252441 745.32421387 -497.33004883 746.21092773 -497.04931641 747.12451172 C-494.88841906 753.99593661 -492.19706105 760.56457898 -489.375 767.1875 C-488.57348882 769.13925914 -487.77528012 771.09237793 -486.98046875 773.046875 C-482.5102067 783.96645947 -477.86910733 794.67265226 -472.42431641 805.14013672 C-471.26910736 807.39411137 -470.15359587 809.66514347 -469.04296875 811.94140625 C-454.52299209 841.63504777 -436.95651454 871.28035021 -415.56640625 896.5703125 C-413.48194914 899.05977108 -411.48434389 901.59662182 -409.49804688 904.1640625 C-401.295873 914.75805095 -392.7363271 925.12794075 -383.10546875 934.4609375 C-381.40589826 936.15667149 -379.86127546 937.91643711 -378.3125 939.75 C-370.72875015 948.55693531 -362.26888332 956.9621028 -353.38671875 964.45703125 C-351.22980288 966.31239772 -349.14524077 968.23820881 -347.06152344 970.17504883 C-341.36861614 975.46119274 -335.52519845 980.43381277 -329.375 985.1875 C-328.42496094 985.93257812 -327.47492188 986.67765625 -326.49609375 987.4453125 C-284.53716731 1020.10920768 -238.78435244 1046.53700951 -189.375 1066.1875 C-188.55241699 1066.51621094 -187.72983398 1066.84492187 -186.88232422 1067.18359375 C-165.18646214 1075.79251182 -142.55090867 1082.12910779 -119.875 1087.5625 C-119.0651767 1087.75659454 -118.25535339 1087.95068909 -117.42098999 1088.15066528 C-104.75256473 1091.1593527 -92.05241518 1093.62185872 -79.1875 1095.625 C-78.04498779 1095.80406891 -78.04498779 1095.80406891 -76.87939453 1095.98675537 C-50.64527857 1100.05150652 -24.53169161 1101.40306986 2 1101.375 C3.47169144 1101.37459213 3.47169144 1101.37459213 4.97311401 1101.37417603 C18.65956216 1101.35680267 32.20369976 1101.06872642 45.81347656 1099.49951172 C48.91165592 1099.15568806 52.01231222 1098.8743418 55.1171875 1098.59765625 C93.78061399 1095.0188292 131.75998312 1086.24207621 168.625 1074.1875 C169.6051709 1073.87490234 170.5853418 1073.56230469 171.59521484 1073.24023438 C177.74766975 1071.24829601 183.71048147 1068.98655606 189.65917969 1066.45117188 C192.52332103 1065.23082321 195.40209372 1064.05576935 198.2890625 1062.890625 C223.5345827 1052.56435731 248.42490289 1040.56977482 271.625 1026.1875 C272.92969238 1025.3821582 272.92969238 1025.3821582 274.26074219 1024.56054688 C290.76908287 1014.32433703 306.7321595 1003.45361901 322.00830078 991.45263672 C323.71579008 990.11645286 325.43330793 988.79394517 327.15234375 987.47265625 C333.75785933 982.37267129 340.07385232 977.11537611 346.1953125 971.4375 C348.22321494 969.55957106 350.27827395 967.73726485 352.375 965.9375 C364.37418508 955.49376483 376.31055026 944.54350502 386.65234375 932.44140625 C388.71613011 930.08337708 390.84137065 927.79414495 392.98120117 925.50537109 C398.49207267 919.60566707 403.67752489 913.57286463 408.625 907.1875 C409.46105007 906.1305684 410.29836713 905.0746382 411.13671875 904.01953125 C413.98820026 900.42589039 416.81154988 896.81096816 419.625 893.1875 C420.10485352 892.57132813 420.58470703 891.95515625 421.07910156 891.3203125 C429.58310625 880.35327502 437.21215346 868.91444337 444.625 857.1875 C445.0060791 856.58873047 445.3871582 855.98996094 445.77978516 855.37304688 C465.24891552 824.72150351 481.11936042 792.35875318 493.8125 758.35522461 C494.37064291 756.86611677 494.93339722 755.37873173 495.5 753.89282227 C504.7603996 729.58182087 511.11670757 704.58699591 516.625 679.1875 C516.78668671 678.45070007 516.94837341 677.71390015 517.11495972 676.95477295 C519.79729242 664.61786605 521.65562536 652.30882822 523.00805664 639.75878906 C523.31396144 636.92395676 523.63349049 634.09090451 523.95507812 631.2578125 C526.05549597 612.5141721 526.78819594 594.03918659 526.75537109 575.18383789 C526.74995556 571.46952335 526.75537409 567.75532676 526.76171875 564.04101562 C526.76105886 561.66927057 526.75977954 559.29752558 526.7578125 556.92578125 C526.75983673 555.82059647 526.76186096 554.71541168 526.76394653 553.57673645 C526.75921829 552.03308662 526.75921829 552.03308662 526.75439453 550.45825195 C526.75359894 549.55831009 526.75280334 548.65836823 526.75198364 547.7311554 C526.62187955 545.12499304 526.17903689 542.73375429 525.625 540.1875 C525.45285075 538.40098835 525.31148187 536.61133564 525.1953125 534.8203125 C525.12417236 533.78261719 525.05303223 532.74492188 524.97973633 531.67578125 C524.90392334 530.56589844 524.82811035 529.45601562 524.75 528.3125 C518.33030725 442.19205348 488.01325237 354.82436822 438.75439453 283.81835938 C437.63652081 282.20413619 436.53495301 280.57866059 435.43359375 278.953125 C425.55936664 264.46857002 414.83251928 250.66000161 403.625 237.1875 C403.13032227 236.59227539 402.63564453 235.99705078 402.12597656 235.38378906 C391.42243305 222.56384683 379.96442158 210.46005871 368.1875 198.625 C367.54973633 197.98256348 366.91197266 197.34012695 366.25488281 196.67822266 C362.44493764 192.88116902 358.51477109 189.27721836 354.4440918 185.76147461 C352.17507013 183.79819684 349.96332205 181.77568748 347.75 179.75 C342.86883221 175.34650001 337.79043832 171.25011318 332.625 167.1875 C331.02008618 165.8967618 329.41592691 164.60508486 327.8125 163.3125 C317.17456388 154.828612 306.41167198 146.81146552 295.0625 139.3125 C294.40726349 138.87829742 293.75202698 138.44409485 293.07693481 137.99673462 C261.99107836 117.41773845 228.95251936 99.45438351 194.140625 85.9765625 C191.08802702 84.79302918 188.11013435 83.51038255 185.13671875 82.140625 C180.59309581 80.09634016 175.97433786 78.66981922 171.1875 77.3125 C165.41954381 75.63703588 159.69541257 73.90700838 154.0222168 71.93310547 C126.29943715 62.30657118 96.71534528 56.68996534 67.625 53.1875 C66.55088867 53.05746582 65.47677734 52.92743164 64.37011719 52.79345703 C60.85197107 52.37335773 57.33271286 51.96490057 53.8125 51.5625 C52.7397583 51.43915283 51.6670166 51.31580566 50.56176758 51.1887207 C35.48544368 49.52990032 20.55413302 49.02391942 5.40039062 49.05712891 C2.524685 49.06245429 -0.35086179 49.05716733 -3.2265625 49.05078125 C-22.88342341 49.04081545 -42.31227125 49.83961177 -61.8125 52.375 Z " fill="#088D45" transform="translate(959.375,384.8125)"/>
<path d="M0 0 C4.69411193 2.92352585 8.71076859 6.42087618 12.72265625 10.2109375 C15.29174217 12.60133893 17.95154656 14.80347568 20.6875 17 C25.45996203 20.85958603 29.98109109 24.93449991 34.49609375 29.08984375 C38.08072545 32.30838541 41.81401326 35.31940274 45.5625 38.34375 C48.2169962 40.53525268 50.77000885 42.80497683 53.3125 45.125 C56.51732617 48.04675004 59.77715741 50.82121355 63.1875 53.5 C67.86958433 57.18980586 72.26474228 61.13317708 76.63671875 65.18359375 C78.93052184 67.27167459 81.28361985 69.22960875 83.6875 71.1875 C88.32285908 75.28984038 90.89024255 79.18631465 91.5546875 85.421875 C91.91970582 101.40156601 85.96516179 108.57614047 75.5 120.03125 C73.34234741 122.45860916 71.31718888 124.94563836 69.3125 127.5 C65.64818957 132.15505838 61.70014838 136.48855847 57.6875 140.84375 C55.43881578 143.35189778 53.32909377 145.91333213 51.25 148.5625 C47.62966002 153.17351651 43.72813705 157.46314633 39.7578125 161.7734375 C36.52412028 165.36978679 33.50160975 169.11630515 30.46484375 172.87890625 C28.29367173 175.50958557 26.04758643 178.04192424 23.75 180.5625 C20.63541332 183.97989372 17.6581338 187.4677235 14.75 191.0625 C11.13967558 195.52526213 7.36572071 199.78969533 3.5 204.03125 C1.17137947 206.6509481 -1.04562947 209.3376531 -3.25 212.0625 C-6.86032442 216.52526213 -10.63427929 220.78969533 -14.5 225.03125 C-16.82862053 227.6509481 -19.04562947 230.3376531 -21.25 233.0625 C-24.86032442 237.52526213 -28.63427929 241.78969533 -32.5 246.03125 C-34.82862053 248.6509481 -37.04562947 251.3376531 -39.25 254.0625 C-42.86149134 258.52670457 -46.63660694 262.79252114 -50.50390625 267.03515625 C-52.81187598 269.63212393 -55.00555863 272.29654013 -57.1875 275 C-61.04825137 279.773903 -65.12437075 284.29638428 -69.28125 288.8125 C-71.69378104 291.49987634 -73.9825621 294.25215444 -76.25 297.0625 C-79.30348679 300.84710334 -82.45668301 304.48457537 -85.75 308.0625 C-89.86378909 312.5323512 -93.72087297 317.15294893 -97.53515625 321.87890625 C-99.70632827 324.50958557 -101.95241357 327.04192424 -104.25 329.5625 C-107.27282421 332.88239486 -110.17512161 336.26014112 -113 339.75 C-118.1949835 346.16255776 -123.61139722 352.3727684 -129.03417969 358.59228516 C-131.90493111 361.88866592 -134.76412986 365.1950446 -137.625 368.5 C-140.8634665 372.23946572 -144.10590426 375.97474126 -147.375 379.6875 C-150.75201074 383.53745819 -154.05116143 387.45269426 -157.35424805 391.3659668 C-162.28331612 397.20260401 -167.25705267 403.00047873 -172.23388672 408.79638672 C-174.24150941 411.13505701 -176.24733271 413.47526628 -178.25292969 415.81567383 C-179.24946014 416.97845521 -180.24620432 418.14105346 -181.24316406 419.3034668 C-183.78443768 422.26676447 -186.3226075 425.23263235 -188.85546875 428.203125 C-193.32540939 433.44026795 -197.8029519 438.65682474 -202.4375 443.75 C-206.21535086 447.91376035 -209.7740478 452.22206682 -213.3125 456.58984375 C-217.51663554 461.71700264 -221.86026766 466.72417515 -226.18847656 471.74658203 C-227.7525853 473.56550648 -229.31081076 475.38930079 -230.8671875 477.21484375 C-235.33231923 482.44889972 -239.80663329 487.66087044 -244.4375 492.75 C-248.28851005 496.98958043 -251.89843955 501.39182112 -255.5 505.84375 C-258.39475711 509.34158151 -261.44589539 512.68035404 -264.50390625 516.03515625 C-266.81187598 518.63212393 -269.00555863 521.29654013 -271.1875 524 C-275.04708603 528.77246203 -279.12199991 533.29359109 -283.27734375 537.80859375 C-286.49709519 541.39457284 -289.50905176 545.12951492 -292.53515625 548.87890625 C-295.41480887 552.36800916 -298.45693876 555.69246921 -301.50390625 559.03515625 C-303.81187598 561.63212393 -306.00555863 564.29654013 -308.1875 567 C-311.28148714 570.82705727 -314.4783055 574.50530873 -317.8125 578.125 C-321.71329263 582.36446609 -325.36288851 586.72950856 -328.921875 591.2578125 C-331.44440674 594.4379273 -334.086756 597.4997694 -336.75 600.5625 C-340.42956291 599.00017979 -342.91515793 596.72665918 -345.8125 594 C-349.52478591 590.54787429 -353.29816138 587.24324816 -357.25 584.0625 C-362.06753749 580.17960602 -366.61268388 576.06085742 -371.15625 571.86328125 C-374.09431833 569.25707305 -377.15559128 566.94622064 -380.38671875 564.71875 C-380.83660156 564.3371875 -381.28648437 563.955625 -381.75 563.5625 C-381.75 562.9025 -381.75 562.2425 -381.75 561.5625 C-382.54277344 561.23378906 -382.54277344 561.23378906 -383.3515625 560.8984375 C-386.63098893 559.0717863 -389.31782619 556.65157479 -392.125 554.1875 C-393.38271772 553.09624492 -394.64053292 552.00510218 -395.8984375 550.9140625 C-396.5387793 550.3562207 -397.17912109 549.79837891 -397.83886719 549.22363281 C-400.79546044 546.65379882 -403.77311649 544.10876778 -406.75 541.5625 C-407.91807217 540.56131856 -409.08604066 539.56001615 -410.25390625 538.55859375 C-412.57325601 536.57048724 -414.89364674 534.58360562 -417.21484375 532.59765625 C-418.37245376 531.60683851 -419.53000576 530.61595299 -420.6875 529.625 C-421.26024658 529.13475342 -421.83299316 528.64450684 -422.4230957 528.1394043 C-425.48460084 525.51556233 -428.5370422 522.88186973 -431.578125 520.234375 C-437.16202236 515.37341496 -442.74044952 510.52852016 -448.5 505.875 C-453.16765023 502.09807001 -457.58332417 498.09659935 -462 494.03125 C-464.68737634 491.61871896 -467.43965444 489.3299379 -470.25 487.0625 C-474.03460334 484.00901321 -477.67207537 480.85581699 -481.25 477.5625 C-485.74245759 473.42841509 -490.38371105 469.54519788 -495.1328125 465.7109375 C-498.32367043 463.09157651 -501.38212693 460.34404822 -504.44921875 457.58203125 C-506.93442624 455.40061823 -509.48725034 453.32419966 -512.0625 451.25 C-516.63250237 447.54683211 -520.96132057 443.65696542 -525.2644043 439.65356445 C-529.39862883 435.82969103 -533.71488699 432.27415259 -538.1015625 428.7421875 C-540.72275119 426.58492601 -543.24154281 424.34939 -545.75 422.0625 C-549.16739372 418.94791332 -552.6552235 415.9706338 -556.25 413.0625 C-560.71276213 409.45217558 -564.97719533 405.67822071 -569.21875 401.8125 C-571.8384481 399.48387947 -574.5251531 397.26687053 -577.25 395.0625 C-581.71276213 391.45217558 -585.97719533 387.67822071 -590.21875 383.8125 C-592.8384481 381.48387947 -595.5251531 379.26687053 -598.25 377.0625 C-602.71276213 373.45217558 -606.97719533 369.67822071 -611.21875 365.8125 C-613.8384481 363.48387947 -616.5251531 361.26687053 -619.25 359.0625 C-623.71564707 355.4498417 -627.98284615 351.67356455 -632.2265625 347.8046875 C-634.80082358 345.51734096 -637.44289489 343.34701729 -640.125 341.1875 C-661.71552719 323.55319157 -661.71552719 323.55319157 -663.24609375 311.73046875 C-663.93984722 301.22470382 -661.29098458 294.80268863 -654.44140625 286.8984375 C-652.75625743 285.03189201 -651.05129007 283.18307028 -649.328125 281.3515625 C-646.82842098 278.64733724 -644.49733212 275.86709931 -642.1875 273 C-639.30151207 269.42421531 -636.34555196 265.95848682 -633.25 262.5625 C-630.22717579 259.24260514 -627.32487839 255.86485888 -624.5 252.375 C-619.30633819 245.96407371 -613.89150866 239.75514784 -608.47021484 233.53710938 C-605.57826405 230.21748149 -602.69567254 226.88975123 -599.8125 223.5625 C-599.29333008 222.96405273 -598.77416016 222.36560547 -598.23925781 221.74902344 C-597.7387793 221.1718457 -597.23830078 220.59466797 -596.72265625 220 C-595.98837402 219.15514038 -595.98837402 219.15514038 -595.23925781 218.29321289 C-594.2081269 217.09490354 -593.18727501 215.88770099 -592.17480469 214.67358398 C-587.1412217 208.66177341 -583.00672939 205.05868318 -574.9296875 204.1171875 C-559.65337366 203.40221051 -551.64141699 209.75099759 -540.75 219.5625 C-539.86957031 220.35527344 -538.98914063 221.14804687 -538.08203125 221.96484375 C-536.45024939 223.44097074 -534.82002711 224.91882369 -533.19140625 226.3984375 C-530.69972817 228.60706095 -528.14971249 230.71681978 -525.5625 232.8125 C-519.1411006 238.01464635 -512.92213142 243.43858668 -506.69384766 248.86865234 C-503.52957304 251.62596675 -500.35888105 254.37586498 -497.1875 257.125 C-496.56721924 257.66278076 -495.94693848 258.20056152 -495.30786133 258.75463867 C-488.81082492 264.38325513 -482.28208328 269.97463655 -475.75 275.5625 C-467.93069397 282.25151674 -460.12934454 288.95998756 -452.35791016 295.70458984 C-446.42111522 300.85411749 -440.45546545 305.96950234 -434.48388672 311.07861328 C-431.57105954 313.57145524 -428.66065939 316.06712766 -425.75 318.5625 C-424.58334482 319.5625134 -423.41667816 320.56251341 -422.25 321.5625 C-415.25 327.5625 -408.25 333.5625 -401.25 339.5625 C-400.67258057 340.05741943 -400.09516113 340.55233887 -399.50024414 341.06225586 C-398.33271772 342.06301606 -397.1652373 343.06382992 -395.99780273 344.06469727 C-393.09466371 346.55350676 -390.19075051 349.04140091 -387.28515625 351.52734375 C-380.46707916 357.36278178 -373.66853518 363.21971335 -366.89868164 369.11108398 C-365.73944178 370.11841795 -364.57673128 371.12177542 -363.41015625 372.12060547 C-362.29559284 373.08863657 -361.1991259 374.07787113 -360.12109375 375.08642578 C-357.27967189 377.77625249 -357.27967189 377.77625249 -353.60546875 378.65234375 C-351.10439498 377.183292 -349.79439742 375.45235062 -348.0625 373.125 C-345.27015791 369.48461328 -342.41298131 366.00734324 -339.3125 362.625 C-336.19502057 359.20858418 -333.21665009 355.72450997 -330.3125 352.125 C-327.23663412 348.32162497 -324.06246834 344.66167348 -320.75 341.0625 C-316.73470254 336.69563271 -312.95862042 332.19438173 -309.23046875 327.58203125 C-302.70770409 319.64172088 -295.91300315 311.91438634 -289 304.3125 C-285.24478392 300.16881329 -281.70704253 295.87959156 -278.1875 291.53515625 C-273.98336446 286.40799736 -269.63973234 281.40082485 -265.31152344 276.37841797 C-263.7474147 274.55949352 -262.18918924 272.73569921 -260.6328125 270.91015625 C-256.16768077 265.67610028 -251.69336671 260.46412956 -247.0625 255.375 C-243.21148995 251.13541957 -239.60156045 246.73317888 -236 242.28125 C-233.10642111 238.78484218 -230.05650817 235.44741868 -227 232.09375 C-224.67137947 229.4740519 -222.45437053 226.7873469 -220.25 224.0625 C-216.63850866 219.59829543 -212.86339306 215.33247886 -208.99609375 211.08984375 C-206.68812402 208.49287607 -204.49444137 205.82845987 -202.3125 203.125 C-198.45291397 198.35253797 -194.37800009 193.83140891 -190.22265625 189.31640625 C-187.00290481 185.73042716 -183.99094824 181.99548508 -180.96484375 178.24609375 C-178.79367173 175.61541443 -176.54758643 173.08307576 -174.25 170.5625 C-171.22717579 167.24260514 -168.32487839 163.86485888 -165.5 160.375 C-160.29785365 153.9536006 -154.87391332 147.73463142 -149.44384766 141.50634766 C-146.68653325 138.34207304 -143.93663502 135.17138105 -141.1875 132 C-140.64971924 131.37971924 -140.11193848 130.75943848 -139.55786133 130.12036133 C-134.42735399 124.19828558 -129.32767046 118.25005087 -124.23388672 112.29638672 C-121.74104476 109.38355954 -119.24537234 106.47315939 -116.75 103.5625 C-115.7499866 102.39584482 -114.74998659 101.22917816 -113.75 100.0625 C-111.75 97.72916667 -109.75 95.39583333 -107.75 93.0625 C-107.25508057 92.48508057 -106.76016113 91.90766113 -106.25024414 91.31274414 C-105.24948394 90.14521772 -104.24867008 88.9777373 -103.24780273 87.81030273 C-100.75899324 84.90716371 -98.27109909 82.00325051 -95.78515625 79.09765625 C-94.79433851 77.94004624 -93.80345299 76.78249424 -92.8125 75.625 C-92.32225342 75.05225342 -91.83200684 74.47950684 -91.3269043 73.8894043 C-88.70306233 70.82789916 -86.06936973 67.7754578 -83.421875 64.734375 C-78.56091496 59.15047764 -73.71602016 53.57205048 -69.0625 47.8125 C-65.23607702 43.08739419 -61.20076521 38.59158861 -57.08984375 34.11328125 C-52.34390981 28.93950018 -47.79705189 23.64060026 -43.375 18.1875 C-41.83488868 16.31122224 -40.29321883 14.4362227 -38.75 12.5625 C-38.01652344 11.655 -37.28304687 10.7475 -36.52734375 9.8125 C-27.01511954 -1.46124721 -14.23446516 -7.20783384 0 0 Z " fill="#078D44" transform="translate(1245.75,689.4375)"/>
<path d="M0 0 C3.75730247 1.6281644 6.616823 4.01401917 9.75 6.625 C11.22726562 7.85089844 11.22726562 7.85089844 12.734375 9.1015625 C13.85585938 10.04128906 13.85585938 10.04128906 15 11 C11.65165606 12.76838944 8.80669345 13.66898318 5 14 C4.34 13.34 3.68 12.68 3 12 C3.375 8.375 3.375 8.375 4 5 C3.34 5 2.68 5 2 5 C1.34 3.35 0.68 1.7 0 0 Z " fill="#11914B" transform="translate(709,914)"/>
<path d="M0 0 C1 3 1 3 0 6 C-1.65 6.33 -3.3 6.66 -5 7 C-4.67 8.98 -4.34 10.96 -4 13 C-4.66 13 -5.32 13 -6 13 C-6.33 13.66 -6.66 14.32 -7 15 C-9.64 15 -12.28 15 -15 15 C-10.45200375 9.40246616 -5.47668152 4.6856053 0 0 Z " fill="#16924F" transform="translate(571,536)"/>
<path d="M0 0 C-1.66150896 3.92720299 -4.06444906 6.9279118 -7 10 C-8.66362417 10.34820041 -10.32995171 10.68404492 -12 11 C-13.32481546 13.39529669 -13.32481546 13.39529669 -14 16 C-14.33 16.66 -14.66 17.32 -15 18 C-16.32 17.67 -17.64 17.34 -19 17 C-18.48393029 13.47352367 -17.56744703 11.4720266 -14.81640625 9.18359375 C-12.23856876 7.41013348 -9.62283197 5.70587339 -7 4 C-6.01 3.195625 -5.02 2.39125 -4 1.5625 C-2 0 -2 0 0 0 Z " fill="#E8F4EE" transform="translate(1314,1414)"/>
<path d="M0 0 C0.6484375 1.8359375 0.6484375 1.8359375 1 4 C-1.375 6.625 -1.375 6.625 -4 9 C-4.33 9.66 -4.66 10.32 -5 11 C-5.825 11.639375 -6.65 12.27875 -7.5 12.9375 C-10.23573514 14.82296043 -10.23573514 14.82296043 -11 18 C-12.87617698 19.84499398 -14.92737609 21.3683599 -17 23 C-17.66 22.67 -18.32 22.34 -19 22 C-18.38253906 21.33355469 -17.76507812 20.66710938 -17.12890625 19.98046875 C-11.17372701 13.49956592 -5.50361473 6.87287154 0 0 Z " fill="#DEEFE4" transform="translate(999,1184)"/>
<path d="M0 0 C0.33 1.32 0.66 2.64 1 4 C0.01 4.33 -0.98 4.66 -2 5 C-2 5.66 -2 6.32 -2 7 C-1.01 7 -0.02 7 1 7 C1 7.66 1 8.32 1 9 C0.443125 9.103125 -0.11375 9.20625 -0.6875 9.3125 C-3.15132842 9.93498888 -3.15132842 9.93498888 -5.625 11.625 C-6.40875 12.07875 -7.1925 12.5325 -8 13 C-8.66 12.67 -9.32 12.34 -10 12 C-6.7 8.04 -3.4 4.08 0 0 Z M2 5 C2.33 5.66 2.66 6.32 3 7 C2.34 6.67 1.68 6.34 1 6 C1.33 5.67 1.66 5.34 2 5 Z " fill="#1D9654" transform="translate(1091,837)"/>
<path d="M0 0 C0.99 0.66 1.98 1.32 3 2 C1.81677089 5.54968734 1.08247613 5.79310426 -2.0625 7.5625 C-4.23757509 8.74543783 -4.23757509 8.74543783 -6 10 C-6 10.66 -6 11.32 -6 12 C-7.65 12.66 -9.3 13.32 -11 14 C-8.93687686 10.33584124 -6.64127824 7.29451872 -3.8125 4.1875 C-3.09707031 3.39730469 -2.38164063 2.60710937 -1.64453125 1.79296875 C-1.10183594 1.20128906 -0.55914063 0.60960937 0 0 Z " fill="#11914B" transform="translate(917,1040)"/>
<path d="M0 0 C0.66 0.33 1.32 0.66 2 1 C2 3.31 2 5.62 2 8 C1.34 8 0.68 8 0 8 C-0.4021875 8.8353125 -0.4021875 8.8353125 -0.8125 9.6875 C-2.10122647 12.19712523 -3.52926478 14.59334236 -5 17 C-5.33 16.34 -5.66 15.68 -6 15 C-5.09239638 12.40267775 -4.12932108 9.90549025 -3.0625 7.375 C-2.77181641 6.66859375 -2.48113281 5.9621875 -2.18164062 5.234375 C-1.46132512 3.48672427 -0.73154306 1.74298085 0 0 Z " fill="#279A5C" transform="translate(429,737)"/>
<path d="M0 0 C3.24741424 2.78496601 5.16089095 6.39536751 7.25 10.0625 C7.62640625 10.69994141 8.0028125 11.33738281 8.390625 11.99414062 C9.32643643 13.6266499 10.17105723 15.31071511 11 17 C10.67 17.66 10.34 18.32 10 19 C9.01 19 8.02 19 7 19 C6.58621094 17.95392578 6.58621094 17.95392578 6.1640625 16.88671875 C4.50860493 12.7814062 2.7604286 8.71591789 1.0234375 4.64453125 C0 2 0 2 0 0 Z " fill="#23985A" transform="translate(1455,668)"/>
<path d="M0 0 C0 4.78571429 0 4.78571429 -1 7 C-4.73397847 8.69726294 -7.92157346 9.23990744 -12 9 C-8.53005564 5.0963126 -4.44775994 2.63411025 0 0 Z " fill="#179450" transform="translate(1265,1388)"/>
<path d="M0 0 C2.46301423 2.46301423 2.76766521 4.27360036 3.625 7.625 C3.88539062 8.62789062 4.14578125 9.63078125 4.4140625 10.6640625 C4.60742188 11.43492187 4.80078125 12.20578125 5 13 C3.02 13 1.04 13 -1 13 C-1.33 11.35 -1.66 9.7 -2 8 C-1.34 7.67 -0.68 7.34 0 7 C0 4.69 0 2.38 0 0 Z " fill="#249A5A" transform="translate(1499,760)"/>
<path d="M0 0 C1.98 0.66 3.96 1.32 6 2 C6 2.66 6 3.32 6 4 C6.928125 4.433125 7.85625 4.86625 8.8125 5.3125 C11.47184073 6.72038627 13.08105905 7.76123556 15 10 C14.67 10.99 14.34 11.98 14 13 C12.34049923 11.57757077 10.68126579 10.15484775 9.0234375 8.73046875 C7.67961097 7.5812117 6.33066453 6.43791326 4.9765625 5.30078125 C4.34492187 4.76839844 3.71328125 4.23601562 3.0625 3.6875 C2.47597656 3.19636719 1.88945313 2.70523437 1.28515625 2.19921875 C0.86105469 1.80347656 0.43695312 1.40773438 0 1 C0 0.67 0 0.34 0 0 Z " fill="#1D9454" transform="translate(558,1371)"/>
<path d="M0 0 C0 1.98 0 3.96 0 6 C-0.639375 6.12375 -1.27875 6.2475 -1.9375 6.375 C-2.9584375 6.684375 -2.9584375 6.684375 -4 7 C-4.33 7.66 -4.66 8.32 -5 9 C-5.99 9 -6.98 9 -8 9 C-5.4 0 -5.4 0 0 0 Z " fill="#12924C" transform="translate(551,558)"/>
<path d="M0 0 C0.99 0.33 1.98 0.66 3 1 C0.69 3.31 -1.62 5.62 -4 8 C-8 6 -8 6 -8.75 3.875 C-8.8325 3.25625 -8.915 2.6375 -9 2 C-5.52176885 0.84058962 -3.54104422 1.29179116 0 2 C0 1.34 0 0.68 0 0 Z " fill="#0D8F49" transform="translate(1370,1360)"/>
<path d="M0 0 C4.40114397 0.50298788 6.71195019 2.08772731 10 5 C8.741875 5.185625 7.48375 5.37125 6.1875 5.5625 C5.12595703 5.71912109 5.12595703 5.71912109 4.04296875 5.87890625 C2 6 2 6 -1 5 C-0.67 3.35 -0.34 1.7 0 0 Z " fill="#15934F" transform="translate(698,1417)"/>
<path d="M0 0 C1.42944945 2.35438733 2.08661261 3.48032433 1.625 6.25 C1.41875 6.8275 1.2125 7.405 1 8 C1.66 8 2.32 8 3 8 C2.67 8.66 2.34 9.32 2 10 C-0.31 8.02 -2.62 6.04 -5 4 C-3 1 -3 1 0 0 Z " fill="#E7F4EC" transform="translate(620,1353)"/>
<path d="M0 0 C0.66 0.33 1.32 0.66 2 1 C0.55575365 4.23861303 -1.25772247 6.61969163 -3.625 9.25 C-4.25664063 9.95640625 -4.88828125 10.6628125 -5.5390625 11.390625 C-6.02117187 11.92171875 -6.50328125 12.4528125 -7 13 C-7.66 12.01 -8.32 11.02 -9 10 C-8.34 10 -7.68 10 -7 10 C-6.773125 9.278125 -6.54625 8.55625 -6.3125 7.8125 C-4.75168987 4.46790687 -2.6968713 2.48396041 0 0 Z " fill="#1D9754" transform="translate(1298,832)"/>
<path d="M0 0 C0.66 0.66 1.32 1.32 2 2 C0.02 4.97 -1.96 7.94 -4 11 C-4.66 10.67 -5.32 10.34 -6 10 C-5.67 9.01 -5.34 8.02 -5 7 C-5.33 6.01 -5.66 5.02 -6 4 C-4.02 2.68 -2.04 1.36 0 0 Z " fill="#15934F" transform="translate(1439,1274)"/>
<path d="M0 0 C1.48280196 0.78483659 2.9611498 1.57809334 4.4375 2.375 C5.67306641 3.03628906 5.67306641 3.03628906 6.93359375 3.7109375 C9 5 9 5 10 7 C9.01 7.33 8.02 7.66 7 8 C7 8.66 7 9.32 7 10 C6.01 10.33 5.02 10.66 4 11 C4 7 4 7 5 5 C4.01 4.67 3.02 4.34 2 4 C2 3.34 2 2.68 2 2 C1.01 1.67 0.02 1.34 -1 1 C-0.67 0.67 -0.34 0.34 0 0 Z " fill="#179451" transform="translate(1272,477)"/>
<path d="M0 0 C0 0.33 0 0.66 0 1 C-3.3 1.33 -6.6 1.66 -10 2 C-10 2.33 -10 2.66 -10 3 C-15.28 2.67 -20.56 2.34 -26 2 C-26 1.67 -26 1.34 -26 1 C-17.33003296 -0.16711095 -8.72630608 -0.09744014 0 0 Z " fill="#3BA46C" transform="translate(930,386)"/>
<path d="M0 0 C2.64 1.98 5.28 3.96 8 6 C4.68756695 6.82810826 2.34023421 7.09278428 -1 7 C-1.33 6.34 -1.66 5.68 -2 5 C-1.0625 2.375 -1.0625 2.375 0 0 Z " fill="#12914C" transform="translate(866,1048)"/>
<path d="M0 0 C3.375 -0.125 3.375 -0.125 7 0 C7.66 0.66 8.32 1.32 9 2 C2.25 6 2.25 6 0 6 C0 4.02 0 2.04 0 0 Z " fill="#12924D" transform="translate(697,498)"/>
<path d="M0 0 C0.33 0.66 0.66 1.32 1 2 C0.67 2.66 0.34 3.32 0 4 C0.66 4.33 1.32 4.66 2 5 C0.68 5.99 -0.64 6.98 -2 8 C-2.66 7.67 -3.32 7.34 -4 7 C-4.66 8.32 -5.32 9.64 -6 11 C-6.99 11 -7.98 11 -9 11 C-6.03 7.37 -3.06 3.74 0 0 Z " fill="#E1F2E8" transform="translate(1396,1334)"/>
<path d="M0 0 C0.33 0 0.66 0 1 0 C1.33 2.64 1.66 5.28 2 8 C-0.31 9.32 -2.62 10.64 -5 12 C-3.68938409 7.76570244 -2.05643741 3.92592596 0 0 Z " fill="#259A5B" transform="translate(1428,1198)"/>
<path d="M0 0 C0.87491004 2.4497481 1.12900603 3.63448293 0.25 6.125 C-1 8 -1 8 -4 10 C-4.99 10 -5.98 10 -7 10 C-5.33248852 6.05860922 -2.77289351 3.2107188 0 0 Z " fill="#229859" transform="translate(981,965)"/>
<path d="M0 0 C0.99 1.32 1.98 2.64 3 4 C1.75 5.5 1.75 5.5 0 7 C-1.32 7 -2.64 7 -4 7 C-4.33 7.66 -4.66 8.32 -5 9 C-5.66 8.67 -6.32 8.34 -7 8 C-4.69 5.36 -2.38 2.72 0 0 Z " fill="#1F9857" transform="translate(996,948)"/>
<path d="M0 0 C0.66 0.33 1.32 0.66 2 1 C1.34 1.66 0.68 2.32 0 3 C-0.99 3 -1.98 3 -3 3 C-3 3.66 -3 4.32 -3 5 C-5.25 6.125 -5.25 6.125 -8 7 C-10.171875 6.0546875 -10.171875 6.0546875 -12 5 C-10.04578965 4.13644222 -8.08648653 3.28440066 -6.125 2.4375 C-5.03445313 1.96183594 -3.94390625 1.48617188 -2.8203125 0.99609375 C-1.88960937 0.66738281 -0.95890625 0.33867188 0 0 Z " fill="#239858" transform="translate(1176,1439)"/>
<path d="M0 0 C0.33 0.99 0.66 1.98 1 3 C-0.36328125 5.04296875 -0.36328125 5.04296875 -2.3125 7.1875 C-2.94800781 7.90292969 -3.58351563 8.61835937 -4.23828125 9.35546875 C-6 11 -6 11 -8 11 C-8.66 12.32 -9.32 13.64 -10 15 C-10.66 14.67 -11.32 14.34 -12 14 C-11.30132813 13.24074219 -10.60265625 12.48148438 -9.8828125 11.69921875 C-8.96343578 10.69540947 -8.04417079 9.69149785 -7.125 8.6875 C-6.66480469 8.18798828 -6.20460938 7.68847656 -5.73046875 7.17382812 C-3.61393392 4.85790957 -1.74473617 2.61710426 0 0 Z " fill="#D7EEDF" transform="translate(1242,901)"/>
<path d="M0 0 C1.32 0.66 2.64 1.32 4 2 C1.36 4.31 -1.28 6.62 -4 9 C-4.33 7.68 -4.66 6.36 -5 5 C-2.5625 2.25 -2.5625 2.25 0 0 Z " fill="#EAF6F0" transform="translate(583,521)"/>
<path d="M0 0 C-0.66 0 -1.32 0 -2 0 C-1.67 1.32 -1.34 2.64 -1 4 C-3.25 4.75 -3.25 4.75 -6 5 C-8.3125 3.0625 -8.3125 3.0625 -10 1 C-3.71428571 -1.42857143 -3.71428571 -1.42857143 0 0 Z " fill="#1A9654" transform="translate(1108,1466)"/>
<path d="M0 0 C1.65 0.33 3.3 0.66 5 1 C2.6875 3.5 2.6875 3.5 0 6 C-0.99 6 -1.98 6 -3 6 C-3 4.68 -3 3.36 -3 2 C-2.01 2 -1.02 2 0 2 C0 1.34 0 0.68 0 0 Z " fill="#EEF7F2" transform="translate(1283,1369)"/>
<path d="M0 0 C4.83256305 0.41421969 6.82679218 2.46413986 10 6 C9.67 6.99 9.34 7.98 9 9 C7.49704815 7.69088122 5.99770689 6.37761608 4.5 5.0625 C3.6646875 4.33160156 2.829375 3.60070313 1.96875 2.84765625 C1.3190625 2.23792969 0.669375 1.62820313 0 1 C0 0.67 0 0.34 0 0 Z " fill="#1B9655" transform="translate(675,1089)"/>
<path d="M0 0 C4.875 2.75 4.875 2.75 6 5 C5.67 5.66 5.34 6.32 5 7 C0.25 5.125 0.25 5.125 -2 4 C-1.34 2.68 -0.68 1.36 0 0 Z " fill="#F0F8F3" transform="translate(1282,545)"/>
<path d="M0 0 C0.99 0.33 1.98 0.66 3 1 C2.34 2.98 1.68 4.96 1 7 C0.01 7 -0.98 7 -2 7 C-2.66 6.01 -3.32 5.02 -4 4 C-2.66666667 2.66666667 -1.33333333 1.33333333 0 0 Z " fill="#14914D" transform="translate(556,1361)"/>
<path d="M0 0 C0.94875 0.350625 1.8975 0.70125 2.875 1.0625 C2.875 1.7225 2.875 2.3825 2.875 3.0625 C3.535 3.0625 4.195 3.0625 4.875 3.0625 C4.875 4.0525 4.875 5.0425 4.875 6.0625 C0.87999382 4.6927836 -1.92509492 2.80527578 -5.125 0.0625 C-3.125 -0.9375 -3.125 -0.9375 0 0 Z " fill="#1D9655" transform="translate(1231.125,505.9375)"/>
<path d="M0 0 C2.31 0 4.62 0 7 0 C7.66 1.32 8.32 2.64 9 4 C7.375 4.6875 7.375 4.6875 5 5 C1.75 3.5625 1.75 3.5625 -1 2 C-0.67 1.34 -0.34 0.68 0 0 Z " fill="#229A58" transform="translate(1197,489)"/>
<path d="M0 0 C3 2 3 2 3.8125 3.9375 C4 6 4 6 2 9 C0.35 7.02 -1.3 5.04 -3 3 C-2.01 2.01 -1.02 1.02 0 0 Z " fill="#12914C" transform="translate(747,1145)"/>
<path d="M0 0 C1.32 0 2.64 0 4 0 C2.33248852 3.94139078 -0.22710649 6.7892812 -3 10 C-3.33 9.01 -3.66 8.02 -4 7 C-3.34 7 -2.68 7 -2 7 C-1.34 4.69 -0.68 2.38 0 0 Z " fill="#14914E" transform="translate(1173,976)"/>
<path d="M0 0 C0.33 0 0.66 0 1 0 C1.33 3.3 1.66 6.6 2 10 C1.01 10.33 0.02 10.66 -1 11 C-1.66 11.99 -2.32 12.98 -3 14 C-2.28547412 9.23649415 -1.20465156 4.65798604 0 0 Z " fill="#24995A" transform="translate(411,786)"/>
<path d="M0 0 C0 0.66 0 1.32 0 2 C0.66 2.33 1.32 2.66 2 3 C0.6875 4.5 0.6875 4.5 -1 6 C-1.99 6 -2.98 6 -4 6 C-4 5.34 -4 4.68 -4 4 C-4.99 3.67 -5.98 3.34 -7 3 C-2.25 0 -2.25 0 0 0 Z " fill="#179551" transform="translate(668,465)"/>
<path d="M0 0 C-1.485 2.475 -1.485 2.475 -3 5 C-5.31 4.67 -7.62 4.34 -10 4 C-6.87839899 0.56623888 -4.64008112 -1.54669371 0 0 Z " fill="#1A9553" transform="translate(685,457)"/>
<path d="M0 0 C0.99 0 1.98 0 3 0 C2.38461538 5.53846154 2.38461538 5.53846154 0.4375 7.875 C-0.036875 8.24625 -0.51125 8.6175 -1 9 C-1.625 6.1875 -1.625 6.1875 -2 3 C-1.34 2.01 -0.68 1.02 0 0 Z " fill="#12904B" transform="translate(1467,1223)"/>
<path d="M0 0 C0.33 0.99 0.66 1.98 1 3 C-1.97 6.3 -4.94 9.6 -8 13 C-8.66 12.67 -9.32 12.34 -10 12 C-6.7 8.04 -3.4 4.08 0 0 Z " fill="#D7EDE1" transform="translate(1094,1073)"/>
<path d="M0 0 C0 0.66 0 1.32 0 2 C1.32 2.33 2.64 2.66 4 3 C4 3.99 4 4.98 4 6 C0.22454612 4.90931332 -2.47043472 4.0916909 -5 1 C-3 0 -3 0 0 0 Z " fill="#169351" transform="translate(680,1458)"/>
<path d="M0 0 C0 0.66 0 1.32 0 2 C-0.99 2 -1.98 2 -3 2 C-2.67 3.32 -2.34 4.64 -2 6 C-4.875 6.125 -4.875 6.125 -8 6 C-8.66 5.34 -9.32 4.68 -10 4 C-8.71086513 3.32845067 -7.41859796 2.66291141 -6.125 2 C-5.40570312 1.62875 -4.68640625 1.2575 -3.9453125 0.875 C-2 0 -2 0 0 0 Z " fill="#2E9E62" transform="translate(1204,1426)"/>
<path d="M0 0 C0.66 1.32 1.32 2.64 2 4 C1.278125 4.226875 0.55625 4.45375 -0.1875 4.6875 C-3.53209313 6.24831013 -5.51603959 8.3031287 -8 11 C-8.66 10.67 -9.32 10.34 -10 10 C-6.7 6.7 -3.4 3.4 0 0 Z " fill="#D5ECDE" transform="translate(1356,1376)"/>
<path d="M0 0 C0.99 0.66 1.98 1.32 3 2 C1.02 4.97 1.02 4.97 -1 8 C-1.99 7.67 -2.98 7.34 -4 7 C-2.92598892 4.08482708 -2.22189824 2.22189824 0 0 Z " fill="#E1F3EA" transform="translate(1427,1295)"/>
<path d="M0 0 C-0.33 1.32 -0.66 2.64 -1 4 C-4 4 -4 4 -7 2 C-7 1.34 -7 0.68 -7 0 C-3.86650268 -1.04449911 -3.01031744 -0.93423645 0 0 Z " fill="#1A9451" transform="translate(871,1251)"/>
<path d="M0 0 C0.33 0.66 0.66 1.32 1 2 C-0.28419041 3.67243402 -1.57757185 5.33781447 -2.875 7 C-3.59429688 7.928125 -4.31359375 8.85625 -5.0546875 9.8125 C-5.69664063 10.534375 -6.33859375 11.25625 -7 12 C-7.66 12 -8.32 12 -9 12 C-7.55575365 8.76138697 -5.74227753 6.38030837 -3.375 3.75 C-2.74335937 3.04359375 -2.11171875 2.3371875 -1.4609375 1.609375 C-0.97882813 1.07828125 -0.49671875 0.5471875 0 0 Z " fill="#D1EADA" transform="translate(1291,844)"/>
<path d="M0 0 C0 3 0 3 -2.3125 5.6875 C-5 8 -5 8 -8 8 C-6.70989008 5.12206249 -5.42638194 3.03816083 -3 1 C-2.01 0.67 -1.02 0.34 0 0 Z " fill="#219859" transform="translate(1187,728)"/>
<path d="M0 0 C3.77545388 1.09068668 6.47043472 1.9083091 9 5 C8.01 5.495 8.01 5.495 7 6 C4.5249829 4.88568235 2.32116581 3.41849022 0 2 C0 1.34 0 0.68 0 0 Z M1 4 C1.66 4.33 2.32 4.66 3 5 C2.01 5 1.02 5 0 5 C0.33 4.67 0.66 4.34 1 4 Z " fill="#10914C" transform="translate(1240,688)"/>
<path d="M0 0 C0.33 0.66 0.66 1.32 1 2 C3.02463255 2.65213292 3.02463255 2.65213292 5 3 C3.69593116 5.01920337 2.36176581 7.01924973 1 9 C0.67 9 0.34 9 0 9 C-0.59732819 6.23735711 -1 3.83967231 -1 1 C-0.67 0.67 -0.34 0.34 0 0 Z " fill="#14924E" transform="translate(523,658)"/>
<path d="M0 0 C0.33 0.66 0.66 1.32 1 2 C0.67 2.99 0.34 3.98 0 5 C0.66 5 1.32 5 2 5 C1.67 6.32 1.34 7.64 1 9 C-4 3.25 -4 3.25 -4 1 C-2.68 0.67 -1.36 0.34 0 0 Z " fill="#1F9656" transform="translate(533,1338)"/>
<path d="M0 0 C2.475 0.99 2.475 0.99 5 2 C5 3.98 5 5.96 5 8 C4.01 8.495 4.01 8.495 3 9 C2.01 6.03 1.02 3.06 0 0 Z " fill="#14904D" transform="translate(426,1173)"/>
<path d="M0 0 C0.66 0.99 1.32 1.98 2 3 C1.2575 3.391875 0.515 3.78375 -0.25 4.1875 C-3.19783071 6.13038842 -4.93098611 8.16468467 -7 11 C-7.66 10.67 -8.32 10.34 -9 10 C-6.03 6.7 -3.06 3.4 0 0 Z " fill="#299B5F" transform="translate(1209,700)"/>
<path d="M0 0 C1 3 1 3 0.0625 5.0625 C-0.288125 5.701875 -0.63875 6.34125 -1 7 C-1 7.66 -1 8.32 -1 9 C-2.95927063 10.7143618 -4.95880212 12.38405168 -7 14 C-5.23570801 9.02790438 -2.6060834 4.56561939 0 0 Z " fill="#299A5F" transform="translate(461,673)"/>
<path d="M0 0 C1.66611905 -0.042721 3.33382885 -0.04063832 5 0 C6 1 6 1 6.0625 3.5625 C6.041875 4.366875 6.02125 5.17125 6 6 C5.01 6.495 5.01 6.495 4 7 C0 2.25 0 2.25 0 0 Z " fill="#12914D" transform="translate(1374,635)"/>
<path d="M0 0 C0.99 0.66 1.98 1.32 3 2 C2.43628586 5.26954202 1.50037734 6.82575883 -1 9 C-1.625 6.1875 -1.625 6.1875 -2 3 C-1.34 2.01 -0.68 1.02 0 0 Z " fill="#EEF7F2" transform="translate(517,585)"/>
<path d="M0 0 C-2.85306797 2.32472205 -5.54074837 3.7508258 -9 5 C-9.33 4.01 -9.66 3.02 -10 2 C-3.375 -1.125 -3.375 -1.125 0 0 Z " fill="#11914B" transform="translate(1234,1465)"/>
<path d="M0 0 C3.465 1.98 3.465 1.98 7 4 C3.25 7 3.25 7 1 7 C0.67 4.69 0.34 2.38 0 0 Z " fill="#189551" transform="translate(672,1400)"/>
<path d="M0 0 C0.99 0.66 1.98 1.32 3 2 C0.03 4.475 0.03 4.475 -3 7 C-4.32 6.34 -5.64 5.68 -7 5 C-6.67 4.34 -6.34 3.68 -6 3 C-4.33333333 2.66666667 -2.66666667 2.33333333 -1 2 C-0.67 1.34 -0.34 0.68 0 0 Z " fill="#229657" transform="translate(1343,1385)"/>
<path d="M0 0 C0.33 0.99 0.66 1.98 1 3 C-0.97845068 6.39162974 -3.0755255 9.36797295 -6 12 C-6.66 11.67 -7.32 11.34 -8 11 C-5.36 7.37 -2.72 3.74 0 0 Z " fill="#D5EBDE" transform="translate(1436,1282)"/>
<path d="M0 0 C0.99 0.66 1.98 1.32 3 2 C1.35 3.98 -0.3 5.96 -2 8 C-2.66 7.67 -3.32 7.34 -4 7 C-3.43628586 3.73045798 -2.50037734 2.17424117 0 0 Z " fill="#1A9452" transform="translate(973,1210)"/>
<path d="M0 0 C0.97608217 2.92824652 1.08226668 4.95613276 1 8 C-1.5 6.6875 -1.5 6.6875 -4 5 C-4 4.01 -4 3.02 -4 2 C-2.68 1.34 -1.36 0.68 0 0 Z " fill="#11904B" transform="translate(710,1112)"/>
<path d="M0 0 C2.23960447 2.87949147 4.29864224 5.76742026 6 9 C5.67 9.66 5.34 10.32 5 11 C4.01 11 3.02 11 2 11 C0.80712589 7.12315913 0 4.08378077 0 0 Z " fill="#279A5C" transform="translate(1466,687)"/>
<path d="M0 0 C0.66 0 1.32 0 2 0 C3.38232443 1.62626404 4.71937515 3.2925002 6 5 C5.34 5.66 4.68 6.32 4 7 C2.02 5.35 0.04 3.7 -2 2 C-1.34 1.34 -0.68 0.68 0 0 Z " fill="#219758" transform="translate(576,1385)"/>
<path d="M0 0 C1.67542976 0.28604898 3.34385343 0.61781233 5 1 C5 1.66 5 2.32 5 3 C5.66 3.33 6.32 3.66 7 4 C5.02 4.99 5.02 4.99 3 6 C1.68 4.35 0.36 2.7 -1 1 C-0.67 0.67 -0.34 0.34 0 0 Z " fill="#299A5D" transform="translate(904,1284)"/>
<path d="M0 0 C0.33 0.66 0.66 1.32 1 2 C-1.64 5.3 -4.28 8.6 -7 12 C-7.66 11.67 -8.32 11.34 -9 11 C-6.03 7.37 -3.06 3.74 0 0 Z " fill="#D1E8D9" transform="translate(960,1229)"/>
<path d="M0 0 C2.97 1.98 2.97 1.98 6 4 C5.67 4.99 5.34 5.98 5 7 C-0.875 3.25 -0.875 3.25 -2 1 C-1.34 0.67 -0.68 0.34 0 0 Z " fill="#E8F2EB" transform="translate(862,1041)"/>
<path d="M0 0 C1.32 0.33 2.64 0.66 4 1 C2.02 3.31 0.04 5.62 -2 8 C-2.66 6.68 -3.32 5.36 -4 4 C-3.34 4 -2.68 4 -2 4 C-1.34 2.68 -0.68 1.36 0 0 Z " fill="#E9F6ED" transform="translate(957,989)"/>
<path d="M0 0 C0.66 0.33 1.32 0.66 2 1 C1.59007812 1.47050781 1.18015625 1.94101562 0.7578125 2.42578125 C-0.05042969 3.35970703 -0.05042969 3.35970703 -0.875 4.3125 C-1.40867187 4.92738281 -1.94234375 5.54226563 -2.4921875 6.17578125 C-4.1640447 8.13498212 -4.1640447 8.13498212 -6 11 C-6.99 10.67 -7.98 10.34 -9 10 C-6.03 6.7 -3.06 3.4 0 0 Z " fill="#D7EEDF" transform="translate(1177,977)"/>
<path d="M0 0 C0.66 1.32 1.32 2.64 2 4 C-0.97 6.475 -0.97 6.475 -4 9 C-4.33 8.01 -4.66 7.02 -5 6 C-3.59554165 3.7363436 -1.8032087 1.9791315 0 0 Z " fill="#189452" transform="translate(1123,800)"/>
<path d="M0 0 C0.33 1.32 0.66 2.64 1 4 C-3.625 6.125 -3.625 6.125 -7 5 C-4.69 3.35 -2.38 1.7 0 0 Z " fill="#1E9655" transform="translate(617,498)"/>
<path d="M0 0 C3.465 1.98 3.465 1.98 7 4 C5.68 4.99 4.36 5.98 3 7 C2.34 6.67 1.68 6.34 1 6 C0.375 2.9375 0.375 2.9375 0 0 Z " fill="#15914D" transform="translate(1288,488)"/>
<path d="M0 0 C2.91517292 1.07401108 4.77810176 1.77810176 7 4 C4.69 4.33 2.38 4.66 0 5 C-0.33 4.01 -0.66 3.02 -1 2 C-0.67 1.34 -0.34 0.68 0 0 Z " fill="#16934F" transform="translate(682,1407)"/>
<path d="M0 0 C1.98 1.65 3.96 3.3 6 5 C5.01 5.99 4.02 6.98 3 8 C0 3.375 0 3.375 0 0 Z " fill="#E8F5EF" transform="translate(578,1390)"/>
<path d="M0 0 C0.33 1.32 0.66 2.64 1 4 C-5.625 7 -5.625 7 -9 7 C-6.03 4.69 -3.06 2.38 0 0 Z " fill="#249859" transform="translate(1286,1372)"/>
<path d="M0 0 C0.66 0 1.32 0 2 0 C1.75 1.875 1.75 1.875 1 4 C-0.9375 5.3125 -0.9375 5.3125 -3 6 C-3.66 5.67 -4.32 5.34 -5 5 C-4.67 3.68 -4.34 2.36 -4 1 C-2.68 1.66 -1.36 2.32 0 3 C0 2.01 0 1.02 0 0 Z " fill="#16924E" transform="translate(1358,1371)"/>
<path d="M0 0 C1 2 1 2 0.25 4.5625 C-1 7 -1 7 -4 8 C-4.99 9.485 -4.99 9.485 -6 11 C-6.66 10.67 -7.32 10.34 -8 10 C-5.36 6.7 -2.72 3.4 0 0 Z " fill="#309D64" transform="translate(1370,1288)"/>
<path d="M0 0 C0.33 0.66 0.66 1.32 1 2 C-0.25 4.3125 -0.25 4.3125 -2 7 C-2.7734375 8.3921875 -2.7734375 8.3921875 -3.5625 9.8125 C-4.036875 10.534375 -4.51125 11.25625 -5 12 C-5.66 12 -6.32 12 -7 12 C-5.44298069 7.32894208 -2.91552627 3.91294315 0 0 Z " fill="#279C5F" transform="translate(1398,1250)"/>
<path d="M0 0 C0.99 0 1.98 0 3 0 C3.99 2.31 4.98 4.62 6 7 C4.125 6.875 4.125 6.875 2 6 C0.75 2.9375 0.75 2.9375 0 0 Z " fill="#13914D" transform="translate(448,1221)"/>
<path d="M0 0 C0.66 0.66 1.32 1.32 2 2 C1.67 2.66 1.34 3.32 1 4 C0.34 4 -0.32 4 -1 4 C-1 4.66 -1 5.32 -1 6 C-3 7.625 -3 7.625 -5 9 C-5.66 8.67 -6.32 8.34 -7 8 C-4.69 5.36 -2.38 2.72 0 0 Z " fill="#DFF0E5" transform="translate(1219,928)"/>
<path d="M0 0 C2 2 2 2 2.125 4.625 C2.08375 5.40875 2.0425 6.1925 2 7 C0.35 7.33 -1.3 7.66 -3 8 C-1.125 2.25 -1.125 2.25 0 0 Z " fill="#DEEFE6" transform="translate(486,731)"/>
<path d="M0 0 C1.9375 0.8125 1.9375 0.8125 4 2 C4.33 2.99 4.66 3.98 5 5 C4.01 5.33 3.02 5.66 2 6 C2 5.34 2 4.68 2 4 C1.01 4.33 0.02 4.66 -1 5 C-1.33 4.01 -1.66 3.02 -2 2 C-1.34 2 -0.68 2 0 2 C0 1.34 0 0.68 0 0 Z " fill="#EBF4EF" transform="translate(1379,645)"/>
<path d="M0 0 C0.66 0.99 1.32 1.98 2 3 C-0.31 4.98 -2.62 6.96 -5 9 C-5.66 8.67 -6.32 8.34 -7 8 C-4.69 5.36 -2.38 2.72 0 0 Z " fill="#DCEFE4" transform="translate(580,596)"/>
<path d="M0 0 C1.32 0 2.64 0 4 0 C4 0.66 4 1.32 4 2 C4.66 2.33 5.32 2.66 6 3 C4.25 4.125 4.25 4.125 2 5 C-0.25 4.125 -0.25 4.125 -2 3 C-1.34 2.67 -0.68 2.34 0 2 C0 1.34 0 0.68 0 0 Z " fill="#EBF5F0" transform="translate(587,515)"/>
<path d="M0 0 C0.66 0.33 1.32 0.66 2 1 C1.67 1.99 1.34 2.98 1 4 C-1.06640625 4.73046875 -1.06640625 4.73046875 -3.5625 5.1875 C-4.38878906 5.34605469 -5.21507812 5.50460937 -6.06640625 5.66796875 C-7.02353516 5.83232422 -7.02353516 5.83232422 -8 6 C-5.54460659 3.45154504 -3.16995003 1.6256154 0 0 Z " fill="#D7ECE0" transform="translate(1248,1457)"/>
<path d="M0 0 C0.66 0 1.32 0 2 0 C3.32 2.31 4.64 4.62 6 7 C2.62496331 5.8141763 0.35277269 4.72426311 -2 2 C-1.34 2 -0.68 2 0 2 C0 1.34 0 0.68 0 0 Z " fill="#1F9756" transform="translate(644,1437)"/>
<path d="M0 0 C0.66 1.32 1.32 2.64 2 4 C0.67172689 6.85578718 -0.14643942 8.57321971 -3 10 C-2.01 6.7 -1.02 3.4 0 0 Z " fill="#239A5A" transform="translate(1458,1128)"/>
<path d="M0 0 C1.41377341 2.63904371 2.37240135 5.07120629 3 8 C1.02 8 -0.96 8 -3 8 C-2.67 7.01 -2.34 6.02 -2 5 C-1.34 5 -0.68 5 0 5 C0 3.35 0 1.7 0 0 Z " fill="#1D9756" transform="translate(460,1124)"/>
<path d="M0 0 C0.66 0.33 1.32 0.66 2 1 C2 2.32 2 3.64 2 5 C1.01 5.33 0.02 5.66 -1 6 C-2.22520264 9.00847418 -2.22520264 9.00847418 -3 12 C-3.88336837 9.5332355 -4.1312406 8.36140628 -3.22265625 5.859375 C-2.83980469 5.16328125 -2.45695312 4.4671875 -2.0625 3.75 C-1.68222656 3.04359375 -1.30195312 2.3371875 -0.91015625 1.609375 C-0.60980469 1.07828125 -0.30945312 0.5471875 0 0 Z " fill="#269B5B" transform="translate(1477,1064)"/>
<path d="M0 0 C0.33 0.99 0.66 1.98 1 3 C-1.31 5.31 -3.62 7.62 -6 10 C-6.66 9.67 -7.32 9.34 -8 9 C-5.36 6.03 -2.72 3.06 0 0 Z " fill="#D6EEDF" transform="translate(1109,1056)"/>
<path d="M0 0 C0.33 0.99 0.66 1.98 1 3 C-0.67045176 5.67272281 -2.72381819 7.8322078 -5 10 C-5.66 9.67 -6.32 9.34 -7 9 C-4.69 6.03 -2.38 3.06 0 0 Z " fill="#26995C" transform="translate(913,1044)"/>
<path d="M0 0 C2.3125 -0.25 2.3125 -0.25 5 0 C6.8125 2 6.8125 2 8 4 C7.34 4 6.68 4 6 4 C5.67 4.66 5.34 5.32 5 6 C3.35 4.02 1.7 2.04 0 0 Z " fill="#E8F5EE" transform="translate(1390,578)"/>
<path d="M0 0 C2.31 0.33 4.62 0.66 7 1 C4.61426621 2.89213369 2.92824652 4.02391783 0 5 C-0.66 4.34 -1.32 3.68 -2 3 C-1.34 2.01 -0.68 1.02 0 0 Z " fill="#13914B" transform="translate(716,489)"/>
<path d="M0 0 C0.268125 0.639375 0.53625 1.27875 0.8125 1.9375 C1.88667752 4.33131686 1.88667752 4.33131686 5 5 C4.34 5.66 3.68 6.32 3 7 C1.02 5.68 -0.96 4.36 -3 3 C-2.01 2.01 -1.02 1.02 0 0 Z " fill="#1D9656" transform="translate(618,1418)"/>
<path d="M0 0 C3.43595166 1.52708963 6.11912454 3.59927045 9 6 C6.75 6.25 6.75 6.25 4 6 C1.6875 4.125 1.6875 4.125 0 2 C0 1.34 0 0.68 0 0 Z " fill="#179551" transform="translate(658,1391)"/>
<path d="M0 0 C0.99 0.66 1.98 1.32 3 2 C-0.465 4.97 -0.465 4.97 -4 8 C-4.66 7.67 -5.32 7.34 -6 7 C-4.02 4.69 -2.04 2.38 0 0 Z " fill="#DEF0E4" transform="translate(1036,1141)"/>
<path d="M0 0 C0.33 1.32 0.66 2.64 1 4 C1.33 4.66 1.66 5.32 2 6 C-0.31 6.33 -2.62 6.66 -5 7 C-3.35 4.69 -1.7 2.38 0 0 Z " fill="#23995B" transform="translate(938,1015)"/>
<path d="M0 0 C0.66 0.99 1.32 1.98 2 3 C-0.97 5.475 -0.97 5.475 -4 8 C-4.33 6.68 -4.66 5.36 -5 4 C-4.01 4.33 -3.02 4.66 -2 5 C-1.7834375 4.0409375 -1.7834375 4.0409375 -1.5625 3.0625 C-1 1 -1 1 0 0 Z " fill="#11914E" transform="translate(1158,995)"/>
<path d="M0 0 C0.33 0.66 0.66 1.32 1 2 C-1.31 4.64 -3.62 7.28 -6 10 C-6.66 9.67 -7.32 9.34 -8 9 C-5.36 6.03 -2.72 3.06 0 0 Z " fill="#35A169" transform="translate(615,949)"/>
<path d="M0 0 C0.33 0.66 0.66 1.32 1 2 C0.06553465 4.03144641 -0.93224776 6.03533587 -2 8 C-3.32 7.67 -4.64 7.34 -6 7 C-4.02 4.69 -2.04 2.38 0 0 Z " fill="#1F9756" transform="translate(1080,850)"/>
<path d="M0 0 C0.66 0.66 1.32 1.32 2 2 C-0.31 4.31 -2.62 6.62 -5 9 C-5.66 8.67 -6.32 8.34 -7 8 C-4.69 5.36 -2.38 2.72 0 0 Z " fill="#D3EADA" transform="translate(1303,830)"/>
<path d="M0 0 C0.33 0.66 0.66 1.32 1 2 C-3.75 3.125 -3.75 3.125 -6 2 C-7.32860925 1.64830932 -8.66158328 1.31229724 -10 1 C-3.44680851 -1.53191489 -3.44680851 -1.53191489 0 0 Z " fill="#34A066" transform="translate(796,410)"/>
<path d="M0 0 C2.64 0.66 5.28 1.32 8 2 C4.86501708 3.85776765 2.62528568 4.20140476 -1 4 C-0.67 2.68 -0.34 1.36 0 0 Z " fill="#1E9857" transform="translate(1098,1514)"/>
<path d="M0 0 C-3.18762365 2.12508244 -5.26512223 2.5020163 -9 3 C-9 2.34 -9 1.68 -9 1 C-9.66 0.67 -10.32 0.34 -11 0 C-6.94952424 -1.35015859 -4.2079832 -0.62084998 0 0 Z " fill="#279A5B" transform="translate(1134,1508)"/>
<path d="M0 0 C0.99 0.99 1.98 1.98 3 3 C1.68 3.99 0.36 4.98 -1 6 C-1.66 4.68 -2.32 3.36 -3 2 C-2.01 1.34 -1.02 0.68 0 0 Z " fill="#12914B" transform="translate(1381,1346)"/>
<path d="M0 0 C1.32 0.33 2.64 0.66 4 1 C2.19642667 4.17772443 0.62113708 6.37886292 -2 9 C-1.34 6.03 -0.68 3.06 0 0 Z " fill="#15924F" transform="translate(1402,1321)"/>
<path d="M0 0 C0.99 0.33 1.98 0.66 3 1 C2 3 2 3 0 4 C-1.13350534 6.01669827 -1.13350534 6.01669827 -2 8 C-2.99 7.67 -3.98 7.34 -5 7 C-3.35 4.69 -1.7 2.38 0 0 Z " fill="#DCEFE4" transform="translate(1420,1304)"/>
<path d="M0 0 C0.33 0.99 0.66 1.98 1 3 C-1.3125 5.0625 -1.3125 5.0625 -4 7 C-4.99 6.67 -5.98 6.34 -7 6 C-6.67 5.01 -6.34 4.02 -6 3 C-4.68 3 -3.36 3 -2 3 C-1.34 2.01 -0.68 1.02 0 0 Z " fill="#E5F2EA" transform="translate(912,1285)"/>
<path d="M0 0 C0.66 0 1.32 0 2 0 C2.66 1.98 3.32 3.96 4 6 C3.01 6.33 2.02 6.66 1 7 C0 6 0 6 -0.0625 2.9375 C-0.041875 1.968125 -0.02125 0.99875 0 0 Z " fill="#229756" transform="translate(473,1162)"/>
<path d="M0 0 C2.35953094 2.35953094 2.49141413 3.77895617 3 7 C1.35 7 -0.3 7 -2 7 C-1.34 4.69 -0.68 2.38 0 0 Z " fill="#1E9858" transform="translate(468,1147)"/>
<path d="M0 0 C1.88391785 3.26545761 2.49287967 6.28111761 3 10 C2.01 10 1.02 10 0 10 C-1.231394 6.30581799 -0.64432764 3.7943739 0 0 Z " fill="#1D9756" transform="translate(451,1094)"/>
<path d="M0 0 C0.66 0.66 1.32 1.32 2 2 C0.35 3.65 -1.3 5.3 -3 7 C-3.33 5.68 -3.66 4.36 -4 3 C-2.68 2.67 -1.36 2.34 0 2 C0 1.34 0 0.68 0 0 Z " fill="#1A9553" transform="translate(1118,1042)"/>
<path d="M0 0 C0.99 0.33 1.98 0.66 3 1 C2.34 2.65 1.68 4.3 1 6 C-0.65 5.01 -2.3 4.02 -4 3 C-3.01 2.67 -2.02 2.34 -1 2 C-0.67 1.34 -0.34 0.68 0 0 Z " fill="#E6F2E9" transform="translate(810,994)"/>
<path d="M0 0 C1.32 1.32 2.64 2.64 4 4 C2.35 5.32 0.7 6.64 -1 8 C-2.2077558 4.37673261 -1.54311128 3.35853631 0 0 Z " fill="#E2F1E8" transform="translate(603,956)"/>
<path d="M0 0 C0.33 0.66 0.66 1.32 1 2 C1.99 1.34 2.98 0.68 4 0 C4.99 0 5.98 0 7 0 C7 0.66 7 1.32 7 2 C6.34 2 5.68 2 5 2 C4.67 2.99 4.34 3.98 4 5 C2.35 4.01 0.7 3.02 -1 2 C-0.67 1.34 -0.34 0.68 0 0 Z " fill="#EDF5EF" transform="translate(721,921)"/>
<path d="M0 0 C0.33 1.32 0.66 2.64 1 4 C1.66 4 2.32 4 3 4 C2.67 6.64 2.34 9.28 2 12 C1.67 12 1.34 12 1 12 C0.01751476 7.9472484 -0.08159574 4.16138263 0 0 Z " fill="#16924E" transform="translate(387,908)"/>
<path d="M0 0 C0 1.66666667 0 3.33333333 0 5 C-1.62626404 6.38232443 -3.2925002 7.71937515 -5 9 C-5.66 8.67 -6.32 8.34 -7 8 C-4.69 5.36 -2.38 2.72 0 0 Z " fill="#DBEFE1" transform="translate(1311,821)"/>
<path d="M0 0 C1.485 0.99 1.485 0.99 3 2 C2.38722388 4.96175123 1.74627478 6.38058783 0 9 C-0.87890625 2.84765625 -0.87890625 2.84765625 -1 1 C-0.67 0.67 -0.34 0.34 0 0 Z " fill="#199552" transform="translate(1468,817)"/>
<path d="M0 0 C0.33 0.99 0.66 1.98 1 3 C-0.65 4.65 -2.3 6.3 -4 8 C-4.66 7.67 -5.32 7.34 -6 7 C-4.02 4.69 -2.04 2.38 0 0 Z " fill="#279A5D" transform="translate(1134,787)"/>
<path d="M0 0 C1.32 0.66 2.64 1.32 4 2 C2.69593116 4.01920337 1.36176581 6.01924973 0 8 C-0.33 8 -0.66 8 -1 8 C-1.125 2.25 -1.125 2.25 0 0 Z " fill="#EEF6F0" transform="translate(1156,755)"/>
<path d="M0 0 C0.88492145 2.47778006 1.11637742 3.66056586 0.25 6.1875 C-1 8 -1 8 -4 9 C-2.94124926 5.59687262 -1.99097846 2.98646769 0 0 Z " fill="#33A066" transform="translate(449,695)"/>
<path d="M0 0 C1.65 0.33 3.3 0.66 5 1 C3.35 2.32 1.7 3.64 0 5 C-0.66 4.67 -1.32 4.34 -2 4 C-1.34 2.68 -0.68 1.36 0 0 Z " fill="#219957" transform="translate(1208,1475)"/>
<path d="M0 0 C0.66 0 1.32 0 2 0 C2 0.66 2 1.32 2 2 C2.99 2.33 3.98 2.66 5 3 C3.35 3.66 1.7 4.32 0 5 C-0.5625 3.0625 -0.5625 3.0625 -1 1 C-0.67 0.67 -0.34 0.34 0 0 Z M-4 3 C-1 4 -1 4 -1 4 Z " fill="#13924D" transform="translate(1254,1449)"/>
<path d="M0 0 C0.66 0.33 1.32 0.66 2 1 C1.67 1.66 1.34 2.32 1 3 C0.34 3 -0.32 3 -1 3 C-1 3.66 -1 4.32 -1 5 C-1.99 5.33 -2.98 5.66 -4 6 C-4.66 5.34 -5.32 4.68 -6 4 C-4.02 2.68 -2.04 1.36 0 0 Z " fill="#299B5F" transform="translate(1237,1406)"/>
<path d="M0 0 C0.99 0.33 1.98 0.66 3 1 C-0.465 3.97 -0.465 3.97 -4 7 C-4 5.68 -4 4.36 -4 3 C-2.68 2.67 -1.36 2.34 0 2 C0 1.34 0 0.68 0 0 Z " fill="#28995D" transform="translate(1370,1360)"/>
<path d="M0 0 C1.35439668 2.70879335 1.06501451 5.00933268 1 8 C-0.32 7.01 -1.64 6.02 -3 5 C-2.625 3.0625 -2.625 3.0625 -2 1 C-1.34 0.67 -0.68 0.34 0 0 Z " fill="#199552" transform="translate(550,1356)"/>
<path d="M0 0 C0 3.69418201 -1.28179295 5.77836178 -3 9 C-3.33 8.34 -3.66 7.68 -4 7 C-4.66 6.67 -5.32 6.34 -6 6 C-4.02 4.02 -2.04 2.04 0 0 Z " fill="#D4EBDE" transform="translate(1383,1349)"/>
<path d="M0 0 C1.65 1.65 3.3 3.3 5 5 C4.01 5.495 4.01 5.495 3 6 C2.67 6.66 2.34 7.32 2 8 C1.67 7.01 1.34 6.02 1 5 C0.34 4.67 -0.32 4.34 -1 4 C-0.34 4 0.32 4 1 4 C0.67 2.68 0.34 1.36 0 0 Z " fill="#E0F1E8" transform="translate(523,1334)"/>
<path d="M0 0 C1.0625 1.8125 1.0625 1.8125 2 4 C1.67 4.99 1.34 5.98 1 7 C0.67 6.01 0.34 5.02 0 4 C-1.32 4.33 -2.64 4.66 -4 5 C-2.68 3.35 -1.36 1.7 0 0 Z " fill="#EBF5EF" transform="translate(917,1280)"/>
<path d="M0 0 C0.99 0 1.98 0 3 0 C1.92598892 2.91517292 1.22189824 4.77810176 -1 7 C-1.625 5.1875 -1.625 5.1875 -2 3 C-1.34 2.01 -0.68 1.02 0 0 Z " fill="#EDF7F0" transform="translate(1415,1217)"/>
<path d="M0 0 C2 3 2 3 2 5 C1.34 5 0.68 5 0 5 C-0.33 5.99 -0.66 6.98 -1 8 C-1.66 8 -2.32 8 -3 8 C-1.125 2.25 -1.125 2.25 0 0 Z " fill="#279B5D" transform="translate(1420,1213)"/>
<path d="M0 0 C2.64 1.98 5.28 3.96 8 6 C5 7 5 7 2.3125 5.8125 C1.549375 5.214375 0.78625 4.61625 0 4 C0 2.68 0 1.36 0 0 Z " fill="#EDF5EF" transform="translate(796,1194)"/>
<path d="M0 0 C0.66 0 1.32 0 2 0 C1.34 3.3 0.68 6.6 0 10 C-0.33 10 -0.66 10 -1 10 C-1.9765625 3.9453125 -1.9765625 3.9453125 -2 2 C-1.34 1.34 -0.68 0.68 0 0 Z " fill="#1B9454" transform="translate(1509,1124)"/>
<path d="M0 0 C0.33 1.32 0.66 2.64 1 4 C-1.22189824 6.22189824 -3.08482708 6.92598892 -6 8 C-4.02 5.36 -2.04 2.72 0 0 Z " fill="#D6EBDE" transform="translate(1138,1022)"/>
<path d="M0 0 C0.33 0.66 0.66 1.32 1 2 C1.66 2 2.32 2 3 2 C3 2.66 3 3.32 3 4 C0.09399739 5.25664978 -1.79604584 6 -5 6 C-3.35 4.02 -1.7 2.04 0 0 Z " fill="#D9EEE2" transform="translate(1155,1002)"/>
<path d="M0 0 C1.98 1.65 3.96 3.3 6 5 C5.67 5.66 5.34 6.32 5 7 C3.0625 6.3125 3.0625 6.3125 1 5 C0.25 2.375 0.25 2.375 0 0 Z " fill="#1E9654" transform="translate(736,936)"/>
<path d="M0 0 C0.66 0.33 1.32 0.66 2 1 C0.63016497 4.16115776 0.0109362 4.9927092 -3 7 C-3.66 6.34 -4.32 5.68 -5 5 C-3.35 3.35 -1.7 1.7 0 0 Z " fill="#13934F" transform="translate(1298,832)"/>
<path d="M0 0 C0.99 0.33 1.98 0.66 3 1 C3 1.99 3 2.98 3 4 C3.99 4.33 4.98 4.66 6 5 C5.67 6.32 5.34 7.64 5 9 C4.16094435 7.87926138 3.32892169 6.75325453 2.5 5.625 C2.0359375 4.99851562 1.571875 4.37203125 1.09375 3.7265625 C0 2 0 2 0 0 Z " fill="#E1F2E7" transform="translate(1424,619)"/>
<path d="M0 0 C0.99 0.66 1.98 1.32 3 2 C1.35 3.32 -0.3 4.64 -2 6 C-2.66 5.01 -3.32 4.02 -4 3 C-2.68 2.01 -1.36 1.02 0 0 Z " fill="#15914F" transform="translate(627,549)"/>
<path d="M0 0 C0.94875 0.350625 1.8975 0.70125 2.875 1.0625 C2.545 1.7225 2.215 2.3825 1.875 3.0625 C-2.875 2.3125 -2.875 2.3125 -5.125 0.0625 C-3.125 -0.9375 -3.125 -0.9375 0 0 Z " fill="#2A9B5E" transform="translate(724.125,1481.9375)"/>
<path d="M0 0 C1.32 0.99 2.64 1.98 4 3 C2.35 3.66 0.7 4.32 -1 5 C-1 4.34 -1 3.68 -1 3 C-1.99 2.67 -2.98 2.34 -4 2 C-2.68 1.34 -1.36 0.68 0 0 Z " fill="#EEF6F1" transform="translate(589,1400)"/>
<path d="M0 0 C1.32 0 2.64 0 4 0 C5.0625 2.375 5.0625 2.375 6 5 C5.67 5.66 5.34 6.32 5 7 C3.35 4.69 1.7 2.38 0 0 Z " fill="#1D9855" transform="translate(506,1313)"/>
<path d="M0 0 C0.99 0.99 1.98 1.98 3 3 C2.34 4.98 1.68 6.96 1 9 C-0.61949011 6.42786866 -1.04408751 5.32330841 -0.625 2.25 C-0.41875 1.5075 -0.2125 0.765 0 0 Z " fill="#199551" transform="translate(1484,1187)"/>
<path d="M0 0 C3.875 1.75 3.875 1.75 5 4 C3.35 4.33 1.7 4.66 0 5 C-0.5625 3.0625 -0.5625 3.0625 -1 1 C-0.67 0.67 -0.34 0.34 0 0 Z " fill="#E6F3EC" transform="translate(757,1161)"/>
<path d="M0 0 C0.99 0.33 1.98 0.66 3 1 C1.25 5.875 1.25 5.875 -1 7 C-2 4 -2 4 -1.0625 1.8125 C-0.5365625 0.9153125 -0.5365625 0.9153125 0 0 Z " fill="#13924E" transform="translate(1055,1113)"/>
<path d="M0 0 C2.31 0.33 4.62 0.66 7 1 C6.67 2.65 6.34 4.3 6 6 C3.97945196 4.35830472 1.97956942 2.69088222 0 1 C0 0.67 0 0.34 0 0 Z " fill="#2B9D60" transform="translate(640,1059)"/>
<path d="M0 0 C2.97 1.98 2.97 1.98 6 4 C5.34 4.66 4.68 5.32 4 6 C2.35 4.35 0.7 2.7 -1 1 C-0.67 0.67 -0.34 0.34 0 0 Z " fill="#EBF4EE" transform="translate(628,1050)"/>
<path d="M0 0 C0.66 1.32 1.32 2.64 2 4 C1.01 4 0.02 4 -1 4 C-1.33 4.99 -1.66 5.98 -2 7 C-2.66 6.67 -3.32 6.34 -4 6 C-2.84826645 3.53199953 -1.95216435 1.95216435 0 0 Z " fill="#289B5E" transform="translate(1013,928)"/>
<path d="M0 0 C0.66 0.99 1.32 1.98 2 3 C0.68 4.32 -0.64 5.64 -2 7 C-2.6875 5.1875 -2.6875 5.1875 -3 3 C-1.5625 1.25 -1.5625 1.25 0 0 Z " fill="#E7F4ED" transform="translate(1101,821)"/>
<path d="M0 0 C1.09658936 3.28976808 0.79953138 4.71303767 0 8 C-0.66 8 -1.32 8 -2 8 C-2.6875 6.25 -2.6875 6.25 -3 4 C-1.5625 1.75 -1.5625 1.75 0 0 Z " fill="#10924C" transform="translate(453,814)"/>
<path d="M0 0 C0.99 1.32 1.98 2.64 3 4 C2.34 4 1.68 4 1 4 C1 4.66 1 5.32 1 6 C-0.32 5.34 -1.64 4.68 -3 4 C-2.01 2.68 -1.02 1.36 0 0 Z " fill="#1E9655" transform="translate(1114,810)"/>
<path d="M0 0 C0.33 0 0.66 0 1 0 C1 1.98 1 3.96 1 6 C-0.98 6.99 -0.98 6.99 -3 8 C-1.125 2.25 -1.125 2.25 0 0 Z " fill="#229859" transform="translate(453,687)"/>
<path d="M0 0 C0.66 1.32 1.32 2.64 2 4 C-0.1385485 6.1385485 -1.13275314 6.42655063 -4 7 C-2.68 4.69 -1.36 2.38 0 0 Z " fill="#DCF0E5" transform="translate(529,658)"/>
<path d="M0 0 C1.65 1.65 3.3 3.3 5 5 C3.02 5 1.04 5 -1 5 C-0.67 3.35 -0.34 1.7 0 0 Z " fill="#DFF1E6" transform="translate(1356,615)"/>
<path d="M0 0 C0.33 0.66 0.66 1.32 1 2 C-0.375 3.5 -0.375 3.5 -2 5 C-2.66 5 -3.32 5 -4 5 C-4 5.66 -4 6.32 -4 7 C-4.66 6.67 -5.32 6.34 -6 6 C-2.25 1.125 -2.25 1.125 0 0 Z " fill="#1F9857" transform="translate(510,603)"/>
<path d="M0 0 C1.2065625 0.0309375 1.2065625 0.0309375 2.4375 0.0625 C0.7875 1.7125 -0.8625 3.3625 -2.5625 5.0625 C-3.125 3.125 -3.125 3.125 -3.5625 1.0625 C-2.5625 0.0625 -2.5625 0.0625 0 0 Z " fill="#EAF5EE" transform="translate(535.5625,568.9375)"/>
<path d="M0 0 C-1.32 1.32 -2.64 2.64 -4 4 C-4.99 3.67 -5.98 3.34 -7 3 C-7 2.34 -7 1.68 -7 1 C-4.53721199 -0.231394 -2.7204945 -0.07159196 0 0 Z " fill="#1E9856" transform="translate(667,523)"/>
<path d="M0 0 C0.99 0.33 1.98 0.66 3 1 C-1.75 4.875 -1.75 4.875 -4 6 C-4.33 4.68 -4.66 3.36 -5 2 C-3.35 2 -1.7 2 0 2 C0 1.34 0 0.68 0 0 Z " fill="#1A9552" transform="translate(678,513)"/>
<path d="M0 0 C0.33 0.66 0.66 1.32 1 2 C1.66 2.33 2.32 2.66 3 3 C1.02 3.99 -0.96 4.98 -3 6 C-2.625 3.5625 -2.625 3.5625 -2 1 C-1.34 0.67 -0.68 0.34 0 0 Z " fill="#16924F" transform="translate(684,508)"/>
<path d="M0 0 C1.32 0.66 2.64 1.32 4 2 C2.68 3.32 1.36 4.64 0 6 C-0.66 5.34 -1.32 4.68 -2 4 C-1.34 2.68 -0.68 1.36 0 0 Z " fill="#EDF7F2" transform="translate(610,498)"/>
<path d="M0 0 C-0.66 1.32 -1.32 2.64 -2 4 C-3.32 3.67 -4.64 3.34 -6 3 C-6.33 3.66 -6.66 4.32 -7 5 C-7.66 4.34 -8.32 3.68 -9 3 C-2.25 0 -2.25 0 0 0 Z " fill="#D0EADC" transform="translate(748,479)"/>
</svg>
