<svg width="19" height="19" viewBox="0 0 19 19" fill="none" xmlns="http://www.w3.org/2000/svg">
<path d="M1.5 16.25L9.75 2L18 16.25H1.5ZM9.825 14.0563C9.9875 14.0563 10.1219 14.0031 10.2281 13.8969C10.3344 13.7906 10.3875 13.6563 10.3875 13.4938C10.3875 13.3313 10.3344 13.1969 10.2281 13.0906C10.1219 12.9844 9.9875 12.9313 9.825 12.9313C9.6625 12.9313 9.52812 12.9844 9.42188 13.0906C9.31563 13.1969 9.2625 13.3313 9.2625 13.4938C9.2625 13.6563 9.31563 13.7906 9.42188 13.8969C9.52812 14.0031 9.6625 14.0563 9.825 14.0563ZM9.2625 11.975H10.3875V7.775H9.2625V11.975Z" fill="#464646"/>
</svg>
