<svg width="14" height="16" viewBox="0 0 14 16" fill="none" xmlns="http://www.w3.org/2000/svg">
<path d="M8.15625 15.5L7.96875 13.4375H7.21875C5.43125 13.4375 3.90625 12.8063 2.64375 11.5438C1.38125 10.2812 0.75 8.75625 0.75 6.96875C0.75 5.18125 1.38437 3.65625 2.65312 2.39375C3.92188 1.13125 5.45625 0.5 7.25625 0.5C8.14375 0.5 8.96562 0.659375 9.72187 0.978125C10.4781 1.29688 11.1375 1.74375 11.7 2.31875C12.2625 2.89375 12.7031 3.57187 13.0219 4.35312C13.3406 5.13437 13.5 5.9875 13.5 6.9125C13.5 7.7375 13.3781 8.5625 13.1344 9.3875C12.8906 10.2125 12.5375 11 12.075 11.75C11.6125 12.5 11.05 13.1937 10.3875 13.8312C9.725 14.4688 8.98125 15.025 8.15625 15.5ZM9.09375 13.475C10.1187 12.6125 10.9219 11.5969 11.5031 10.4281C12.0844 9.25938 12.375 8.0875 12.375 6.9125C12.375 5.3625 11.8906 4.09375 10.9219 3.10625C9.95312 2.11875 8.73125 1.625 7.25625 1.625C5.75625 1.625 4.48438 2.14688 3.44063 3.19063C2.39688 4.23438 1.875 5.49375 1.875 6.96875C1.875 8.44375 2.39688 9.70312 3.44063 10.7469C4.48438 11.7906 5.74375 12.3125 7.21875 12.3125H9.09375V13.475ZM7.25625 11.3187C7.45625 11.3187 7.625 11.25 7.7625 11.1125C7.9 10.975 7.96875 10.8063 7.96875 10.6063C7.96875 10.4062 7.9 10.2375 7.7625 10.1C7.625 9.9625 7.45625 9.89375 7.25625 9.89375C7.05625 9.89375 6.8875 9.9625 6.75 10.1C6.6125 10.2375 6.54375 10.4062 6.54375 10.6063C6.54375 10.8063 6.6125 10.975 6.75 11.1125C6.8875 11.25 7.05625 11.3187 7.25625 11.3187ZM6.75 8.76875H7.6875C7.6875 8.45625 7.74062 8.19688 7.84687 7.99063C7.95312 7.78438 8.175 7.5125 8.5125 7.175C8.85 6.8375 9.0875 6.52813 9.225 6.24688C9.3625 5.96563 9.43125 5.6625 9.43125 5.3375C9.43125 4.775 9.24063 4.3125 8.85938 3.95C8.47813 3.5875 7.96875 3.40625 7.33125 3.40625C6.80625 3.40625 6.3375 3.54375 5.925 3.81875C5.5125 4.09375 5.20625 4.46875 5.00625 4.94375L5.86875 5.3C6.00625 4.975 6.19687 4.73438 6.44062 4.57812C6.68437 4.42188 6.9625 4.34375 7.275 4.34375C7.65 4.34375 7.94375 4.43438 8.15625 4.61563C8.36875 4.79688 8.475 5.0375 8.475 5.3375C8.475 5.575 8.40625 5.81563 8.26875 6.05938C8.13125 6.30313 7.8875 6.60625 7.5375 6.96875C7.2 7.31875 6.98438 7.6 6.89062 7.8125C6.79688 8.025 6.75 8.34375 6.75 8.76875Z" fill="white"/>
</svg>
