<?xml version="1.0" encoding="UTF-8" standalone="no" ?>
<!DOCTYPE svg PUBLIC "-//W3C//DTD SVG 1.1//EN" "http://www.w3.org/Graphics/SVG/1.1/DTD/svg11.dtd">
<svg xmlns="http://www.w3.org/2000/svg" xmlns:xlink="http://www.w3.org/1999/xlink" version="1.1" width="13" height="14" viewBox="0 0 13 14" xml:space="preserve">
<desc>Created with Fabric.js 5.2.4</desc>
<defs>
</defs>
<g transform="matrix(1 0 0 1 6.5 7)" id="50959318-0d14-4d6d-b649-7f583c05a3ee"  >
<rect style="stroke: none; stroke-width: 1; stroke-dasharray: none; stroke-linecap: butt; stroke-dashoffset: 0; stroke-linejoin: miter; stroke-miterlimit: 4; fill: rgb(255,255,255); fill-rule: nonzero; opacity: 1; visibility: hidden;" vector-effect="non-scaling-stroke"  x="-6.5" y="-7" rx="0" ry="0" width="13" height="14" />
</g>
<g transform="matrix(0 0 0 0 0 0)" id="e8e23624-ac37-46b1-a0f3-e98d6a44be79"  >
</g>
<g transform="matrix(0.34 0 0 0.34 6.53 7.04)"  >
<path style="stroke: rgb(255,255,255); stroke-width: 0; stroke-dasharray: none; stroke-linecap: butt; stroke-dashoffset: 0; stroke-linejoin: miter; stroke-miterlimit: 4; fill: rgb(255,255,255); fill-rule: nonzero; opacity: 1;" vector-effect="non-scaling-stroke"  transform=" translate(-6.5, -7)" d="M 1.625 12.625 L 4.4375 12.625 L 4.4375 7.9375 L 8.5625 7.9375 L 8.5625 12.625 L 11.375 12.625 L 11.375 5.3125 L 6.5 1.65625 L 1.625 5.3125 L 1.625 12.625 Z M 0.5 13.75 L 0.5 4.75 L 6.5 0.25 L 12.5 4.75 L 12.5 13.75 L 7.4375 13.75 L 7.4375 9.0625 L 5.5625 9.0625 L 5.5625 13.75 L 0.5 13.75 Z" stroke-linecap="round" />
</g>
<g transform="matrix(0.05 0 0 0.02 6.64 5.71)" id="5740b4a5-cc5e-431c-9dc8-b0c790601324"  >
<polygon style="stroke: rgb(0,0,0); stroke-width: 0; stroke-dasharray: none; stroke-linecap: butt; stroke-dashoffset: 0; stroke-linejoin: miter; stroke-miterlimit: 4; fill: rgb(255,255,255); fill-rule: nonzero; opacity: 1;" vector-effect="non-scaling-stroke"  points="-37.43,32.41 0,-32.41 37.43,32.41 " />
</g>
<g transform="matrix(0.02 0 0 0.04 5.47 7.71)" id="b8a26a23-5d28-4bf7-b98f-88f1fb620402"  >
<rect style="stroke: rgb(0,0,0); stroke-width: 0; stroke-dasharray: none; stroke-linecap: butt; stroke-dashoffset: 0; stroke-linejoin: miter; stroke-miterlimit: 4; fill: rgb(255,255,255); fill-rule: nonzero; opacity: 1;" vector-effect="non-scaling-stroke"  x="-33.085" y="-33.085" rx="0" ry="0" width="66.17" height="66.17" />
</g>
<g transform="matrix(0.02 0 0 0.04 7.8 7.71)" id="b8a26a23-5d28-4bf7-b98f-88f1fb620402"  >
<rect style="stroke: rgb(0,0,0); stroke-width: 0; stroke-dasharray: none; stroke-linecap: butt; stroke-dashoffset: 0; stroke-linejoin: miter; stroke-miterlimit: 4; fill: rgb(255,255,255); fill-rule: nonzero; opacity: 1;" vector-effect="non-scaling-stroke"  x="-33.085" y="-33.085" rx="0" ry="0" width="66.17" height="66.17" />
</g>
<g transform="matrix(0 -0.02 0.04 0 6.72 6.73)" id="b8a26a23-5d28-4bf7-b98f-88f1fb620402"  >
<rect style="stroke: rgb(0,0,0); stroke-width: 0; stroke-dasharray: none; stroke-linecap: butt; stroke-dashoffset: 0; stroke-linejoin: miter; stroke-miterlimit: 4; fill: rgb(255,255,255); fill-rule: nonzero; opacity: 1;" vector-effect="non-scaling-stroke"  x="-33.085" y="-33.085" rx="0" ry="0" width="66.17" height="66.17" />
</g>
</svg>