<svg width="15" height="16" viewBox="0 0 15 16" fill="none" xmlns="http://www.w3.org/2000/svg">
<path d="M5.775 15.5L5.4 13.1375C5.1625 13.05 4.9125 12.9312 4.65 12.7812C4.3875 12.6313 4.15625 12.475 3.95625 12.3125L1.74375 13.325L0 10.25L2.025 8.76875C2 8.65625 1.98437 8.52812 1.97812 8.38437C1.97187 8.24062 1.96875 8.1125 1.96875 8C1.96875 7.8875 1.97187 7.75938 1.97812 7.61563C1.98437 7.47188 2 7.34375 2.025 7.23125L0 5.75L1.74375 2.675L3.95625 3.6875C4.15625 3.525 4.3875 3.36875 4.65 3.21875C4.9125 3.06875 5.1625 2.95625 5.4 2.88125L5.775 0.5H9.225L9.6 2.8625C9.8375 2.95 10.0906 3.06563 10.3594 3.20938C10.6281 3.35313 10.8563 3.5125 11.0438 3.6875L13.2562 2.675L15 5.75L12.975 7.19375C13 7.31875 13.0156 7.45312 13.0219 7.59687C13.0281 7.74062 13.0312 7.875 13.0312 8C13.0312 8.125 13.0281 8.25625 13.0219 8.39375C13.0156 8.53125 13 8.6625 12.975 8.7875L15 10.25L13.2562 13.325L11.0438 12.3125C10.8438 12.475 10.6156 12.6344 10.3594 12.7906C10.1031 12.9469 9.85 13.0625 9.6 13.1375L9.225 15.5H5.775ZM7.5 10.4375C8.175 10.4375 8.75 10.2 9.225 9.725C9.7 9.25 9.9375 8.675 9.9375 8C9.9375 7.325 9.7 6.75 9.225 6.275C8.75 5.8 8.175 5.5625 7.5 5.5625C6.825 5.5625 6.25 5.8 5.775 6.275C5.3 6.75 5.0625 7.325 5.0625 8C5.0625 8.675 5.3 9.25 5.775 9.725C6.25 10.2 6.825 10.4375 7.5 10.4375ZM7.5 9.3125C7.1375 9.3125 6.82812 9.18437 6.57187 8.92813C6.31562 8.67188 6.1875 8.3625 6.1875 8C6.1875 7.6375 6.31562 7.32812 6.57187 7.07187C6.82812 6.81562 7.1375 6.6875 7.5 6.6875C7.8625 6.6875 8.17188 6.81562 8.42813 7.07187C8.68437 7.32812 8.8125 7.6375 8.8125 8C8.8125 8.3625 8.68437 8.67188 8.42813 8.92813C8.17188 9.18437 7.8625 9.3125 7.5 9.3125ZM6.675 14.375H8.325L8.5875 12.275C9 12.175 9.39062 12.0188 9.75937 11.8063C10.1281 11.5938 10.4625 11.3375 10.7625 11.0375L12.75 11.9L13.5 10.55L11.7375 9.25625C11.7875 9.04375 11.8281 8.83437 11.8594 8.62812C11.8906 8.42187 11.9062 8.2125 11.9062 8C11.9062 7.7875 11.8938 7.57813 11.8688 7.37188C11.8438 7.16563 11.8 6.95625 11.7375 6.74375L13.5 5.45L12.75 4.1L10.7625 4.9625C10.475 4.6375 10.15 4.36563 9.7875 4.14688C9.425 3.92813 9.025 3.7875 8.5875 3.725L8.325 1.625H6.675L6.4125 3.725C5.9875 3.8125 5.59062 3.9625 5.22187 4.175C4.85312 4.3875 4.525 4.65 4.2375 4.9625L2.25 4.1L1.5 5.45L3.2625 6.74375C3.2125 6.95625 3.17188 7.16563 3.14062 7.37188C3.10938 7.57813 3.09375 7.7875 3.09375 8C3.09375 8.2125 3.10938 8.42187 3.14062 8.62812C3.17188 8.83437 3.2125 9.04375 3.2625 9.25625L1.5 10.55L2.25 11.9L4.2375 11.0375C4.5375 11.3375 4.87188 11.5938 5.24063 11.8063C5.60938 12.0188 6 12.175 6.4125 12.275L6.675 14.375Z" fill="white"/>
</svg>
