<svg width="15" height="16" xmlns="http://www.w3.org/2000/svg" fill="none">

 <g>
  <title>Layer 1</title>
  <path id="svg_1" fill="white" d="m5.775,15.58264l-0.375,-2.3625c-0.2375,-0.0875 -0.4875,-0.2063 -0.75,-0.3563c-0.2625,-0.1499 -0.49375,-0.3062 -0.69375,-0.4687l-2.2125,1.0125l-1.74375,-3.075l2.025,-1.48125c-0.025,-0.1125 -0.04063,-0.24063 -0.04688,-0.38438c-0.00625,-0.14375 -0.00937,-0.27187 -0.00937,-0.38437c0,-0.1125 0.00312,-0.24062 0.00937,-0.38437c0.00625,-0.14375 0.02188,-0.27188 0.04688,-0.38438l-2.025,-1.48125l1.74375,-3.075l2.2125,1.0125c0.2,-0.1625 0.43125,-0.31875 0.69375,-0.46875c0.2625,-0.15 0.5125,-0.2625 0.75,-0.3375l0.375,-2.38125l3.45,0l0.375,2.3625c0.2375,0.0875 0.4906,0.20313 0.7594,0.34688c0.2687,0.14375 0.4969,0.30312 0.6844,0.47812l2.2124,-1.0125l1.7438,3.075l-2.025,1.44375c0.025,0.125 0.0406,0.25937 0.0469,0.40312c0.0062,0.14375 0.0093,0.27813 0.0093,0.40313c0,0.125 -0.0031,0.25625 -0.0093,0.39375c-0.0063,0.1375 -0.0219,0.26875 -0.0469,0.39375l2.025,1.4625l-1.7438,3.075l-2.2124,-1.0125c-0.2,0.1625 -0.4282,0.3219 -0.6844,0.4781c-0.2563,0.1563 -0.5094,0.2719 -0.7594,0.3469l-0.375,2.3625l-3.45,0zm1.725,-5.0625c0.675,0 1.25,-0.2375 1.725,-0.7125c0.475,-0.475 0.7125,-1.05 0.7125,-1.725c0,-0.675 -0.2375,-1.25 -0.7125,-1.725c-0.475,-0.475 -1.05,-0.7125 -1.725,-0.7125c-0.675,0 -1.25,0.2375 -1.725,0.7125c-0.475,0.475 -0.7125,1.05 -0.7125,1.725c0,0.675 0.2375,1.25 0.7125,1.725c0.475,0.475 1.05,0.7125 1.725,0.7125zm0,-1.125c-0.3625,0 -0.67188,-0.12813 -0.92813,-0.38437c-0.25625,-0.25625 -0.38437,-0.56563 -0.38437,-0.92813c0,-0.3625 0.12812,-0.67188 0.38437,-0.92813c0.25625,-0.25625 0.56563,-0.38437 0.92813,-0.38437c0.3625,0 0.67188,0.12812 0.92813,0.38437c0.25624,0.25625 0.38437,0.56563 0.38437,0.92813c0,0.3625 -0.12813,0.67188 -0.38437,0.92813c-0.25625,0.25624 -0.56563,0.38437 -0.92813,0.38437zm-0.825,5.0625l1.65,0l0.2625,-2.1c0.4125,-0.1 0.80312,-0.2562 1.17187,-0.4687c0.36873,-0.2125 0.70313,-0.4688 1.00313,-0.7688l1.9875,0.8625l0.75,-1.35l-1.7625,-1.29375c0.05,-0.2125 0.0906,-0.42188 0.1219,-0.62813c0.0312,-0.20625 0.0468,-0.41562 0.0468,-0.62812c0,-0.2125 -0.0124,-0.42187 -0.0374,-0.62812c-0.025,-0.20625 -0.0688,-0.41563 -0.1313,-0.62813l1.7625,-1.29375l-0.75,-1.35l-1.9875,0.8625c-0.2875,-0.325 -0.6125,-0.59687 -0.975,-0.81562c-0.3625,-0.21875 -0.7625,-0.35938 -1.2,-0.42188l-0.2625,-2.1l-1.65,0l-0.2625,2.1c-0.425,0.0875 -0.82188,0.2375 -1.19063,0.45c-0.36875,0.2125 -0.69687,0.475 -0.98437,0.7875l-1.9875,-0.8625l-0.75,1.35l1.7625,1.29375c-0.05,0.2125 -0.09062,0.42188 -0.12188,0.62813c-0.03124,0.20625 -0.04687,0.41562 -0.04687,0.62812c0,0.2125 0.01563,0.42187 0.04687,0.62812c0.03126,0.20625 0.07188,0.41563 0.12188,0.62813l-1.7625,1.29375l0.75,1.35l1.9875,-0.8625c0.3,0.3 0.63438,0.5563 1.00313,0.7688c0.36875,0.2125 0.75937,0.3687 1.17187,0.4687l0.2625,2.1z"/>
  <ellipse stroke="null" ry="4.66942" rx="4.75206" id="svg_8" cy="7.87603" cx="7.62397" fill="white"/>
  <rect stroke="null" id="svg_9" height="3.38843" width="2.80992" y="1.38843" x="6.09504" fill="white"/>
  <path id="svg_10" d="m6.09504,11.63636l2.80992,0l0,3.38843l-2.80992,0l0,-3.38843z" opacity="undefined" stroke="null" fill="white"/>
  <rect stroke="null" id="svg_11" height="2.64463" width="2.47934" y="4.03306" x="11.05372" fill="white"/>
  <rect stroke="null" id="svg_12" height="2.64463" width="3.14049" y="9.57025" x="10.72314" fill="white"/>
  <rect stroke="null" id="svg_13" height="2.64463" width="3.14049" y="9.4876" x="1.46695" fill="white"/>
  <rect stroke="null" id="svg_14" height="2.64463" width="2.80992" y="4.03306" x="1.30166" fill="white"/>
 </g>
</svg>