<svg width="43" height="43" viewBox="0 0 43 43" fill="none" xmlns="http://www.w3.org/2000/svg">
<path d="M19.4875 28.1813L15.8125 24.5062C15.6958 24.3896 15.5646 24.3021 15.4187 24.2438C15.2729 24.1854 15.1271 24.1562 14.9812 24.1562C14.8354 24.1562 14.6896 24.1854 14.5437 24.2438C14.3979 24.3021 14.2667 24.4042 14.15 24.55C13.9167 24.7833 13.8 25.0677 13.8 25.4031C13.8 25.7385 13.9167 26.0229 14.15 26.2562L18.5687 30.675C18.7146 30.8208 18.8604 30.9229 19.0062 30.9812C19.1521 31.0396 19.3125 31.0688 19.4875 31.0688C19.6625 31.0688 19.8229 31.0396 19.9688 30.9812C20.1146 30.9229 20.2604 30.8208 20.4062 30.675L28.675 22.4062C28.9083 22.1729 29.025 21.8885 29.025 21.5531C29.025 21.2177 28.9083 20.9333 28.675 20.7C28.4417 20.4667 28.1573 20.35 27.8219 20.35C27.4865 20.35 27.2021 20.4667 26.9688 20.7L19.4875 28.1813ZM10.125 39.25C9.425 39.25 8.8125 38.9875 8.2875 38.4625C7.7625 37.9375 7.5 37.325 7.5 36.625V6.875C7.5 6.175 7.7625 5.5625 8.2875 5.0375C8.8125 4.5125 9.425 4.25 10.125 4.25H24.825C25.175 4.25 25.5177 4.32292 25.8531 4.46875C26.1885 4.61458 26.4729 4.80417 26.7063 5.0375L34.7125 13.0438C34.9458 13.2771 35.1354 13.5615 35.2812 13.8969C35.4271 14.2323 35.5 14.575 35.5 14.925V36.625C35.5 37.325 35.2375 37.9375 34.7125 38.4625C34.1875 38.9875 33.575 39.25 32.875 39.25H10.125ZM24.6062 13.7V6.875H10.125V36.625H32.875V15.0125H25.9187C25.5396 15.0125 25.226 14.8885 24.9781 14.6406C24.7302 14.3927 24.6062 14.0792 24.6062 13.7ZM10.125 6.875V15.0125V6.875V36.625V6.875Z" />
</svg>
