<svg width="19" height="19" viewBox="0 0 19 19" fill="none" xmlns="http://www.w3.org/2000/svg">
<g clip-path="url(#clip0_626_311)">
<path d="M1.5 16L9.75 1.75L18 16H1.5ZM9.825 13.8063C9.9875 13.8063 10.1219 13.7531 10.2281 13.6469C10.3344 13.5406 10.3875 13.4063 10.3875 13.2438C10.3875 13.0813 10.3344 12.9469 10.2281 12.8406C10.1219 12.7344 9.9875 12.6813 9.825 12.6813C9.6625 12.6813 9.52812 12.7344 9.42188 12.8406C9.31563 12.9469 9.2625 13.0813 9.2625 13.2438C9.2625 13.4063 9.31563 13.5406 9.42188 13.6469C9.52812 13.7531 9.6625 13.8063 9.825 13.8063ZM9.2625 11.725H10.3875V7.525H9.2625V11.725Z" fill="#464646"/>
</g>
<defs>
<clipPath id="clip0_626_311">
<rect width="18" height="18" fill="white" transform="translate(0.75 0.25)"/>
</clipPath>
</defs>
</svg>
